ISO-10303-21;
HEADER;
FILE_DESCRIPTION(
  ('This file contains a STEP AP42 implementation'
    ,'as created by ZW3D STEP Interface translator.')
  ,'2;1'
  );
FILE_NAME(
  '轴直径10mm_抱紧式联轴器_带法兰.stp'
  ,'24 514.134811',
  (''),
  ('ZWCAD Software Co.'),
  'Version 1.0',
  'ZW3D to STEP translator',
  ''
  );
FILE_SCHEMA(('AUTOMOTIVE_DESIGN { 1 0 10303 214 1 1 1 1 }'));
ENDSEC;

DATA;

/**File Base Unit**/
#1 = (LENGTH_UNIT()NAMED_UNIT(*)SI_UNIT(.MILLI.,.METRE.));
#2 = (NAMED_UNIT(*)PLANE_ANGLE_UNIT()SI_UNIT($,.RADIAN.));
#3 = (NAMED_UNIT(*)SI_UNIT($,.STERADIAN.)SOLID_ANGLE_UNIT());
#4 = UNCERTAINTY_MEASURE_WITH_UNIT(LENGTH_MEASURE(0.01),#1,'DISTANCE_ACCURACY_VALUE','Maximum Tolerance applied to model');
#5 = (GEOMETRIC_REPRESENTATION_CONTEXT(3)GLOBAL_UNCERTAINTY_ASSIGNED_CONTEXT((#4))GLOBAL_UNIT_ASSIGNED_CONTEXT((#1,#2,#3))REPRESENTATION_CONTEXT('STEP 203','TOP_LEVEL_ASSEMBLY_PART'));

/**product_definition_shape**/
#6=APPLICATION_CONTEXT('mechanical parts and assemblies' );
#7=DESIGN_CONTEXT('NONE',#6,'design');
#8=MECHANICAL_CONTEXT('NONE',#6,'mechanical');
#9=PRODUCT('0','Part','',(#8));
#10=PRODUCT_DEFINITION_FORMATION_WITH_SPECIFIED_SOURCE('ANY','',#9,.NOT_KNOWN.);
#11=PRODUCT_DEFINITION('UNKNOWN','',#10,#7);
#12=PRODUCT_DEFINITION_SHAPE('NONE','NONE',#11);
#13=PRODUCT_RELATED_PRODUCT_CATEGORY('detail','',(#9));
/**geometry information**/
#14=CARTESIAN_POINT('',(0.,0.,0.));
#15=DIRECTION('',(0.,0.,1.));
#16=DIRECTION('',(1.,0.,0.));
#17=AXIS2_PLACEMENT_3D('',#14,#15,#16);
#18=APPLICATION_CONTEXT('part');
#19=MECHANICAL_CONTEXT('none',#18,'component');
#20=PRODUCT('轴直径10mm_抱紧式联轴器_带法兰','轴直径10mm_抱紧式联轴器_带法兰','',(#19));
#21=PRODUCT_RELATED_PRODUCT_CATEGORY('detail','',(#20));
#22=PRODUCT_DEFINITION_FORMATION_WITH_SPECIFIED_SOURCE('ANY','UNSPECIFIED',#20,.NOT_KNOWN.);
#23=APPLICATION_CONTEXT('part');
#24=APPLICATION_PROTOCOL_DEFINITION('international standard','config_control_design',1994,#23);
#25=DESIGN_CONTEXT('detailed',#23,'design');
#26=PRODUCT_DEFINITION('','UNSPECIFIED',#22,#25);
#27=PRODUCT_DEFINITION_SHAPE('NONE','NONE',#26);
#28=SHAPE_REPRESENTATION('轴直径10mm_抱紧式联轴器_带法兰',(#17),#5);
#29=SHAPE_DEFINITION_REPRESENTATION(#27,#28);
#30=CARTESIAN_POINT('',(1.7763568394003E-14,-1.0658141036402E-14,0.099999999999991));
#31=DIRECTION('',(1.,3.7528665621132E-16,3.5622913070059E-16));
#32=DIRECTION('',(-6.125368411725E-16,0.,1.));
#33=AXIS2_PLACEMENT_3D('',#30,#32,#31);
#34=CYLINDRICAL_SURFACE('',#33,28.4);
#35=CARTESIAN_POINT('',(28.4,-6.955993819157E-15,5.9));
#36=VERTEX_POINT('',#35);
#37=CARTESIAN_POINT('',(28.4,-6.955993819157E-15,0.1));
#38=VERTEX_POINT('',#37);
#39=CARTESIAN_POINT('',(28.4,-6.955993819157E-15,5.9));
#40=DIRECTION('',(0.,0.,-1.));
#41=VECTOR('',#40,5.8);
#42=LINE('',#39,#41);
#43=EDGE_CURVE('',#36,#38,#42,.T.);
#44=ORIENTED_EDGE('',*,*,#43,.T.);
#45=CARTESIAN_POINT('',(-3.5527136788005E-15,-1.9516733488627E-14,0.1));
#46=DIRECTION('',(1.,4.4227956582642E-16,6.3773640497644E-19));
#47=DIRECTION('',(-6.3773640497643E-19,-1.9695261915708E-17,1.));
#48=AXIS2_PLACEMENT_3D('',#45,#47,#46);
#49=CIRCLE('',#48,28.4);
#50=EDGE_CURVE('',#38,#38,#49,.T.);
#51=ORIENTED_EDGE('',*,*,#50,.T.);
#52=ORIENTED_EDGE('',*,*,#43,.F.);
#53=CARTESIAN_POINT('',(-7.105427357601E-15,-1.9516733488627E-14,5.9));
#54=DIRECTION('',(1.,4.4227956582642E-16,3.5068046856352E-17));
#55=DIRECTION('',(3.5068046856352E-17,-6.6341934873962E-17,-1.));
#56=AXIS2_PLACEMENT_3D('',#53,#55,#54);
#57=CIRCLE('',#56,28.4);
#58=EDGE_CURVE('',#36,#36,#57,.T.);
#59=ORIENTED_EDGE('',*,*,#58,.T.);
#60=EDGE_LOOP('',(#44,#51,#52,#59));
#61=FACE_OUTER_BOUND('',#60,.T.);
#62=ADVANCED_FACE('',(#61),#34,.T.);
#63=CARTESIAN_POINT('',(-7.6097570650439,-1.7763568394003E-14,26.4));
#64=DIRECTION('',(1.,0.,0.));
#65=DIRECTION('',(0.,0.,1.));
#66=AXIS2_PLACEMENT_3D('',#63,#65,#64);
#67=PLANE('',#66);
#68=CARTESIAN_POINT('',(14.891608376043,0.5,26.399999999828));
#69=VERTEX_POINT('',#68);
#70=CARTESIAN_POINT('',(14.891608376395,-0.49999999999986,26.399999999828));
#71=VERTEX_POINT('',#70);
#72=CARTESIAN_POINT('',(1.7763568394003E-15,1.2434497875802E-14,26.4));
#73=DIRECTION('',(0.99943680370403,0.033557046977943,0.));
#74=DIRECTION('',(-2.1469347962615E-16,-2.2578373988985E-16,1.));
#75=AXIS2_PLACEMENT_3D('',#72,#74,#73);
#76=CIRCLE('',#75,14.900000000853);
#77=EDGE_CURVE('',#69,#71,#76,.T.);
#78=ORIENTED_EDGE('',*,*,#77,.T.);
#79=CARTESIAN_POINT('',(14.891608376395,-0.49999999999986,26.399999999828));
#80=DIRECTION('',(-3.5200109493876E-10,1.,0.));
#81=VECTOR('',#80,0.99999999999986);
#82=LINE('',#79,#81);
#83=EDGE_CURVE('',#71,#69,#82,.T.);
#84=ORIENTED_EDGE('',*,*,#83,.T.);
#85=EDGE_LOOP('',(#78,#84));
#86=FACE_OUTER_BOUND('',#85,.T.);
#87=CARTESIAN_POINT('',(5.0754311229959,-0.5,26.4));
#88=VERTEX_POINT('',#87);
#89=CARTESIAN_POINT('',(-5.0754308596717,-0.49999999999998,26.4));
#90=VERTEX_POINT('',#89);
#91=CARTESIAN_POINT('',(-1.7763568394003E-15,2.2204460492503E-15,26.4));
#92=DIRECTION('',(0.99518255239343,-0.098039213642801,-2.0898315322057E-15));
#93=DIRECTION('',(-1.5801840890409E-15,1.7435033260537E-15,-1.));
#94=AXIS2_PLACEMENT_3D('',#91,#93,#92);
#95=CIRCLE('',#94,5.1000001063015);
#96=EDGE_CURVE('',#88,#90,#95,.T.);
#97=ORIENTED_EDGE('',*,*,#96,.T.);
#98=CARTESIAN_POINT('',(-5.0754309758078,0.49999999999998,26.4));
#99=VERTEX_POINT('',#98);
#100=CARTESIAN_POINT('',(-5.0754308596717,-0.49999999999998,26.4));
#101=DIRECTION('',(-1.1613609984807E-07,0.99999999999999,0.));
#102=VECTOR('',#101,0.99999999999997);
#103=LINE('',#100,#102);
#104=EDGE_CURVE('',#90,#99,#103,.T.);
#105=ORIENTED_EDGE('',*,*,#104,.T.);
#106=CARTESIAN_POINT('',(5.075431051541,0.5,26.4));
#107=VERTEX_POINT('',#106);
#108=CARTESIAN_POINT('',(4.4408920985006E-16,3.1086244689504E-15,26.4));
#109=DIRECTION('',(-0.99518255211603,0.098039216458618,2.0898315922286E-15));
#110=DIRECTION('',(-1.5372168245363E-15,-1.3932210603667E-15,-1.));
#111=AXIS2_PLACEMENT_3D('',#108,#110,#109);
#112=CIRCLE('',#111,5.0999999598225);
#113=EDGE_CURVE('',#99,#107,#112,.T.);
#114=ORIENTED_EDGE('',*,*,#113,.T.);
#115=CARTESIAN_POINT('',(5.075431051541,0.5,26.4));
#116=DIRECTION('',(7.1454899774892E-08,-1.,0.));
#117=VECTOR('',#116,1.);
#118=LINE('',#115,#117);
#119=EDGE_CURVE('',#107,#88,#118,.T.);
#120=ORIENTED_EDGE('',*,*,#119,.T.);
#121=EDGE_LOOP('',(#97,#105,#114,#120));
#122=FACE_BOUND('',#121,.T.);
#123=ADVANCED_FACE('',(#86,#122),#67,.T.);
#124=CARTESIAN_POINT('',(-7.6097570650439,-1.4210854715202E-14,6.));
#125=DIRECTION('',(1.,0.,0.));
#126=DIRECTION('',(0.,0.,1.));
#127=AXIS2_PLACEMENT_3D('',#124,#126,#125);
#128=PLANE('',#127);
#129=CARTESIAN_POINT('',(28.3,0.,6.));
#130=VERTEX_POINT('',#129);
#131=CARTESIAN_POINT('',(-1.0658141036402E-14,-2.512147933894E-15,6.));
#132=DIRECTION('',(1.,8.8768478229471E-17,5.548029889342E-17));
#133=DIRECTION('',(-5.548029889342E-17,-5.548029889342E-17,1.));
#134=AXIS2_PLACEMENT_3D('',#131,#133,#132);
#135=CIRCLE('',#134,28.3);
#136=EDGE_CURVE('',#130,#130,#135,.T.);
#137=ORIENTED_EDGE('',*,*,#136,.T.);
#138=EDGE_LOOP('',(#137));
#139=FACE_OUTER_BOUND('',#138,.T.);
#140=CARTESIAN_POINT('',(15.,-3.6739403974421E-15,6.));
#141=VERTEX_POINT('',#140);
#142=CARTESIAN_POINT('',(-1.0658141036402E-14,8.8867992720281E-15,6.));
#143=DIRECTION('',(1.,-8.3738264463135E-16,1.2201559299403E-16));
#144=DIRECTION('',(1.2201559299403E-16,-6.2803698347351E-17,-1.));
#145=AXIS2_PLACEMENT_3D('',#142,#144,#143);
#146=CIRCLE('',#145,15.);
#147=EDGE_CURVE('',#141,#141,#146,.T.);
#148=ORIENTED_EDGE('',*,*,#147,.T.);
#149=EDGE_LOOP('',(#148));
#150=FACE_BOUND('',#149,.T.);
#151=CARTESIAN_POINT('',(13.95,-19.48557158515,6.));
#152=VERTEX_POINT('',#151);
#153=CARTESIAN_POINT('',(11.25,-19.48557158515,6.));
#154=DIRECTION('',(1.,6.6279465630709E-31,8.1412201561381E-16));
#155=DIRECTION('',(8.1412201561381E-16,-8.1412201561381E-16,-1.));
#156=AXIS2_PLACEMENT_3D('',#153,#155,#154);
#157=CIRCLE('',#156,2.7);
#158=EDGE_CURVE('',#152,#152,#157,.T.);
#159=ORIENTED_EDGE('',*,*,#158,.T.);
#160=EDGE_LOOP('',(#159));
#161=FACE_BOUND('',#160,.T.);
#162=CARTESIAN_POINT('',(13.95,19.48557158515,6.));
#163=VERTEX_POINT('',#162);
#164=CARTESIAN_POINT('',(11.25,19.48557158515,6.));
#165=DIRECTION('',(1.,1.2173779401559E-31,3.4890943526306E-16));
#166=DIRECTION('',(3.4890943526306E-16,-3.4890943526306E-16,-1.));
#167=AXIS2_PLACEMENT_3D('',#164,#166,#165);
#168=CIRCLE('',#167,2.7);
#169=EDGE_CURVE('',#163,#163,#168,.T.);
#170=ORIENTED_EDGE('',*,*,#169,.T.);
#171=EDGE_LOOP('',(#170));
#172=FACE_BOUND('',#171,.T.);
#173=CARTESIAN_POINT('',(26.45,-3.6127080574847E-16,6.));
#174=VERTEX_POINT('',#173);
#175=CARTESIAN_POINT('',(23.75,-5.3855666735365E-15,6.));
#176=DIRECTION('',(1.,1.860850321403E-15,3.4890943526306E-16));
#177=DIRECTION('',(3.4890943526306E-16,-3.4890943526306E-16,-1.));
#178=AXIS2_PLACEMENT_3D('',#175,#177,#176);
#179=CIRCLE('',#178,2.7);
#180=EDGE_CURVE('',#174,#174,#179,.T.);
#181=ORIENTED_EDGE('',*,*,#180,.T.);
#182=EDGE_LOOP('',(#181));
#183=FACE_BOUND('',#182,.T.);
#184=CARTESIAN_POINT('',(-9.175,-20.56810333988,6.));
#185=VERTEX_POINT('',#184);
#186=CARTESIAN_POINT('',(-11.875,-20.56810333988,6.));
#187=DIRECTION('',(1.,2.3260629017538E-16,8.1412201561381E-16));
#188=DIRECTION('',(8.1412201561381E-16,-8.1412201561381E-16,-1.));
#189=AXIS2_PLACEMENT_3D('',#186,#188,#187);
#190=CIRCLE('',#189,2.7);
#191=EDGE_CURVE('',#185,#185,#190,.T.);
#192=ORIENTED_EDGE('',*,*,#191,.T.);
#193=EDGE_LOOP('',(#192));
#194=FACE_BOUND('',#193,.T.);
#195=CARTESIAN_POINT('',(-9.175,20.56810333988,6.));
#196=VERTEX_POINT('',#195);
#197=CARTESIAN_POINT('',(-11.875,20.56810333988,6.));
#198=DIRECTION('',(1.,2.3260629017537E-16,3.4890943526306E-16));
#199=DIRECTION('',(3.4890943526306E-16,-3.4890943526306E-16,-1.));
#200=AXIS2_PLACEMENT_3D('',#197,#199,#198);
#201=CIRCLE('',#200,2.7);
#202=EDGE_CURVE('',#196,#196,#201,.T.);
#203=ORIENTED_EDGE('',*,*,#202,.T.);
#204=EDGE_LOOP('',(#203));
#205=FACE_BOUND('',#204,.T.);
#206=CARTESIAN_POINT('',(-19.8,-3.9543151419847E-16,6.));
#207=VERTEX_POINT('',#206);
#208=CARTESIAN_POINT('',(-22.5,8.6064245274855E-16,6.));
#209=DIRECTION('',(1.,-4.6521258035075E-16,3.4890943526306E-16));
#210=DIRECTION('',(3.4890943526306E-16,-3.4890943526306E-16,-1.));
#211=AXIS2_PLACEMENT_3D('',#208,#210,#209);
#212=CIRCLE('',#211,2.7);
#213=EDGE_CURVE('',#207,#207,#212,.T.);
#214=ORIENTED_EDGE('',*,*,#213,.T.);
#215=EDGE_LOOP('',(#214));
#216=FACE_BOUND('',#215,.T.);
#217=ADVANCED_FACE('',(#139,#150,#161,#172,#183,#194,#205,#216),#128,.T.);
#218=CARTESIAN_POINT('',(-7.6097570650439,-1.4210854715202E-14,0.));
#219=DIRECTION('',(1.,0.,0.));
#220=DIRECTION('',(0.,0.,-1.));
#221=AXIS2_PLACEMENT_3D('',#218,#220,#219);
#222=PLANE('',#221);
#223=CARTESIAN_POINT('',(28.3,0.,0.));
#224=VERTEX_POINT('',#223);
#225=CARTESIAN_POINT('',(0.,-2.512147933894E-15,0.));
#226=DIRECTION('',(1.,8.8768478229471E-17,-0.));
#227=DIRECTION('',(0.,-0.,-1.));
#228=AXIS2_PLACEMENT_3D('',#225,#227,#226);
#229=CIRCLE('',#228,28.3);
#230=EDGE_CURVE('',#224,#224,#229,.T.);
#231=ORIENTED_EDGE('',*,*,#230,.T.);
#232=EDGE_LOOP('',(#231));
#233=FACE_OUTER_BOUND('',#232,.T.);
#234=CARTESIAN_POINT('',(13.95,-19.48557158515,0.));
#235=VERTEX_POINT('',#234);
#236=CARTESIAN_POINT('',(11.25,-19.48557158515,0.));
#237=DIRECTION('',(1.,-0.,-0.));
#238=DIRECTION('',(0.,-0.,1.));
#239=AXIS2_PLACEMENT_3D('',#236,#238,#237);
#240=CIRCLE('',#239,2.7);
#241=EDGE_CURVE('',#235,#235,#240,.T.);
#242=ORIENTED_EDGE('',*,*,#241,.T.);
#243=EDGE_LOOP('',(#242));
#244=FACE_BOUND('',#243,.T.);
#245=CARTESIAN_POINT('',(-9.175,-20.56810333988,0.));
#246=VERTEX_POINT('',#245);
#247=CARTESIAN_POINT('',(-11.875,-20.56810333988,0.));
#248=DIRECTION('',(1.,-2.3260629017537E-16,-0.));
#249=DIRECTION('',(0.,-0.,1.));
#250=AXIS2_PLACEMENT_3D('',#247,#249,#248);
#251=CIRCLE('',#250,2.7);
#252=EDGE_CURVE('',#246,#246,#251,.T.);
#253=ORIENTED_EDGE('',*,*,#252,.T.);
#254=EDGE_LOOP('',(#253));
#255=FACE_BOUND('',#254,.T.);
#256=CARTESIAN_POINT('',(-19.8,-4.028394244574E-17,5.5511151231258E-17));
#257=VERTEX_POINT('',#256);
#258=CARTESIAN_POINT('',(-22.5,3.7279379583953E-15,4.2619627436478E-17));
#259=DIRECTION('',(1.,-1.3956377410522E-15,4.7746384425109E-18));
#260=DIRECTION('',(-4.774638442511E-18,-5.6904418481109E-17,1.));
#261=AXIS2_PLACEMENT_3D('',#258,#260,#259);
#262=CIRCLE('',#261,2.7);
#263=EDGE_CURVE('',#257,#257,#262,.T.);
#264=ORIENTED_EDGE('',*,*,#263,.T.);
#265=EDGE_LOOP('',(#264));
#266=FACE_BOUND('',#265,.T.);
#267=CARTESIAN_POINT('',(-9.175,20.56810333988,0.));
#268=VERTEX_POINT('',#267);
#269=CARTESIAN_POINT('',(-11.875,20.56810333988,0.));
#270=DIRECTION('',(1.,-2.3260629017537E-16,-0.));
#271=DIRECTION('',(0.,-0.,1.));
#272=AXIS2_PLACEMENT_3D('',#269,#271,#270);
#273=CIRCLE('',#272,2.7);
#274=EDGE_CURVE('',#268,#268,#273,.T.);
#275=ORIENTED_EDGE('',*,*,#274,.T.);
#276=EDGE_LOOP('',(#275));
#277=FACE_BOUND('',#276,.T.);
#278=CARTESIAN_POINT('',(13.95,19.48557158515,0.));
#279=VERTEX_POINT('',#278);
#280=CARTESIAN_POINT('',(11.25,19.48557158515,0.));
#281=DIRECTION('',(1.,-0.,-0.));
#282=DIRECTION('',(0.,-0.,1.));
#283=AXIS2_PLACEMENT_3D('',#280,#282,#281);
#284=CIRCLE('',#283,2.7);
#285=EDGE_CURVE('',#279,#279,#284,.T.);
#286=ORIENTED_EDGE('',*,*,#285,.T.);
#287=EDGE_LOOP('',(#286));
#288=FACE_BOUND('',#287,.T.);
#289=CARTESIAN_POINT('',(26.45,-6.1232339957368E-18,5.5511151231258E-17));
#290=VERTEX_POINT('',#289);
#291=CARTESIAN_POINT('',(23.75,-5.0304191017838E-15,4.2619627436478E-17));
#292=DIRECTION('',(1.,1.860850321403E-15,4.7746384425111E-18));
#293=DIRECTION('',(-4.774638442511E-18,-5.6904418481109E-17,1.));
#294=AXIS2_PLACEMENT_3D('',#291,#293,#292);
#295=CIRCLE('',#294,2.7);
#296=EDGE_CURVE('',#290,#290,#295,.T.);
#297=ORIENTED_EDGE('',*,*,#296,.T.);
#298=EDGE_LOOP('',(#297));
#299=FACE_BOUND('',#298,.T.);
#300=CARTESIAN_POINT('',(5.1,0.,1.4155343563971E-15));
#301=VERTEX_POINT('',#300);
#302=CARTESIAN_POINT('',(1.7763568394003E-15,-9.4205547521026E-16,1.4179854999788E-15));
#303=DIRECTION('',(1.,1.8471675984515E-16,-4.8061638856412E-19));
#304=DIRECTION('',(4.8061638856412E-19,4.8061638856412E-19,1.));
#305=AXIS2_PLACEMENT_3D('',#302,#304,#303);
#306=CIRCLE('',#305,5.1);
#307=EDGE_CURVE('',#301,#301,#306,.T.);
#308=ORIENTED_EDGE('',*,*,#307,.T.);
#309=EDGE_LOOP('',(#308));
#310=FACE_BOUND('',#309,.T.);
#311=ADVANCED_FACE('',(#233,#244,#255,#266,#277,#288,#299,#310),#222,.T.);
#312=CARTESIAN_POINT('',(-22.5,1.3322676295502E-15,0.1));
#313=DIRECTION('',(1.,-5.1476571674843E-16,-1.601283208594E-17));
#314=DIRECTION('',(0.,-6.1232339957368E-17,1.));
#315=AXIS2_PLACEMENT_3D('',#312,#314,#313);
#316=CYLINDRICAL_SURFACE('',#315,2.6);
#317=CARTESIAN_POINT('',(-19.9,-3.6127080574847E-16,5.9));
#318=VERTEX_POINT('',#317);
#319=CARTESIAN_POINT('',(-19.9,-6.1232339957368E-18,0.1));
#320=VERTEX_POINT('',#319);
#321=CARTESIAN_POINT('',(-19.9,-3.6127080574847E-16,5.9));
#322=DIRECTION('',(0.,6.1232339957368E-17,-1.));
#323=VECTOR('',#322,5.8);
#324=LINE('',#321,#323);
#325=EDGE_CURVE('',#318,#320,#324,.T.);
#326=ORIENTED_EDGE('',*,*,#325,.T.);
#327=CARTESIAN_POINT('',(-22.5,6.2742466007394E-15,0.1));
#328=DIRECTION('',(1.,-2.4155268595135E-15,5.2265068332449E-18));
#329=DIRECTION('',(5.2265068332451E-18,6.4162432205827E-17,-1.));
#330=AXIS2_PLACEMENT_3D('',#327,#329,#328);
#331=CIRCLE('',#330,2.6);
#332=EDGE_CURVE('',#320,#320,#331,.T.);
#333=ORIENTED_EDGE('',*,*,#332,.T.);
#334=ORIENTED_EDGE('',*,*,#325,.F.);
#335=CARTESIAN_POINT('',(-22.5,5.9190990289866E-15,5.9));
#336=DIRECTION('',(1.,-2.4155268595135E-15,6.0388171487838E-16));
#337=DIRECTION('',(-6.0388171487838E-16,-6.0388171487837E-16,1.));
#338=AXIS2_PLACEMENT_3D('',#335,#337,#336);
#339=CIRCLE('',#338,2.6);
#340=EDGE_CURVE('',#318,#318,#339,.T.);
#341=ORIENTED_EDGE('',*,*,#340,.T.);
#342=EDGE_LOOP('',(#326,#333,#334,#341));
#343=FACE_OUTER_BOUND('',#342,.T.);
#344=ADVANCED_FACE('',(#343),#316,.F.);
#345=CARTESIAN_POINT('',(-11.875,20.56810333988,0.1));
#346=DIRECTION('',(1.,0.,-1.601283208594E-17));
#347=DIRECTION('',(0.,0.,1.));
#348=AXIS2_PLACEMENT_3D('',#345,#347,#346);
#349=CYLINDRICAL_SURFACE('',#348,2.6);
#350=CARTESIAN_POINT('',(-9.275,20.56810333988,5.9));
#351=VERTEX_POINT('',#350);
#352=CARTESIAN_POINT('',(-9.275,20.56810333988,0.1));
#353=VERTEX_POINT('',#352);
#354=CARTESIAN_POINT('',(-9.275,20.56810333988,5.9));
#355=DIRECTION('',(0.,0.,-1.));
#356=VECTOR('',#355,5.8);
#357=LINE('',#354,#356);
#358=EDGE_CURVE('',#351,#353,#357,.T.);
#359=ORIENTED_EDGE('',*,*,#358,.T.);
#360=CARTESIAN_POINT('',(-11.875,20.56810333988,0.1));
#361=DIRECTION('',(1.,4.831053719027E-16,5.6058391459506E-18));
#362=DIRECTION('',(5.6058391459506E-18,2.6419825025929E-17,-1.));
#363=AXIS2_PLACEMENT_3D('',#360,#362,#361);
#364=CIRCLE('',#363,2.6);
#365=EDGE_CURVE('',#353,#353,#364,.T.);
#366=ORIENTED_EDGE('',*,*,#365,.T.);
#367=ORIENTED_EDGE('',*,*,#358,.F.);
#368=CARTESIAN_POINT('',(-11.875,20.56810333988,5.9));
#369=DIRECTION('',(1.,-4.831053719027E-16,-1.2077634297567E-16));
#370=DIRECTION('',(1.2077634297567E-16,1.2077634297567E-16,1.));
#371=AXIS2_PLACEMENT_3D('',#368,#370,#369);
#372=CIRCLE('',#371,2.6);
#373=EDGE_CURVE('',#351,#351,#372,.T.);
#374=ORIENTED_EDGE('',*,*,#373,.T.);
#375=EDGE_LOOP('',(#359,#366,#367,#374));
#376=FACE_OUTER_BOUND('',#375,.T.);
#377=ADVANCED_FACE('',(#376),#349,.F.);
#378=CARTESIAN_POINT('',(-11.875,-20.56810333988,0.1));
#379=DIRECTION('',(1.,0.,-1.601283208594E-17));
#380=DIRECTION('',(0.,0.,1.));
#381=AXIS2_PLACEMENT_3D('',#378,#380,#379);
#382=CYLINDRICAL_SURFACE('',#381,2.6);
#383=CARTESIAN_POINT('',(-9.275,-20.56810333988,5.9));
#384=VERTEX_POINT('',#383);
#385=CARTESIAN_POINT('',(-9.275,-20.56810333988,0.1));
#386=VERTEX_POINT('',#385);
#387=CARTESIAN_POINT('',(-9.275,-20.56810333988,5.9));
#388=DIRECTION('',(0.,0.,-1.));
#389=VECTOR('',#388,5.8);
#390=LINE('',#387,#389);
#391=EDGE_CURVE('',#384,#386,#390,.T.);
#392=ORIENTED_EDGE('',*,*,#391,.T.);
#393=CARTESIAN_POINT('',(-11.875,-20.56810333988,0.1));
#394=DIRECTION('',(1.,4.831053719027E-16,5.6058391459506E-18));
#395=DIRECTION('',(5.6058391459506E-18,2.6419825025929E-17,-1.));
#396=AXIS2_PLACEMENT_3D('',#393,#395,#394);
#397=CIRCLE('',#396,2.6);
#398=EDGE_CURVE('',#386,#386,#397,.T.);
#399=ORIENTED_EDGE('',*,*,#398,.T.);
#400=ORIENTED_EDGE('',*,*,#391,.F.);
#401=CARTESIAN_POINT('',(-11.875,-20.56810333988,5.9));
#402=DIRECTION('',(1.,-4.831053719027E-16,-1.2077634297567E-16));
#403=DIRECTION('',(1.2077634297567E-16,1.2077634297567E-16,1.));
#404=AXIS2_PLACEMENT_3D('',#401,#403,#402);
#405=CIRCLE('',#404,2.6);
#406=EDGE_CURVE('',#384,#384,#405,.T.);
#407=ORIENTED_EDGE('',*,*,#406,.T.);
#408=EDGE_LOOP('',(#392,#399,#400,#407));
#409=FACE_OUTER_BOUND('',#408,.T.);
#410=ADVANCED_FACE('',(#409),#382,.F.);
#411=CARTESIAN_POINT('',(23.75,-2.6645352591004E-15,0.099999999999999));
#412=DIRECTION('',(1.,1.0224661635018E-15,5.8713717648446E-17));
#413=DIRECTION('',(0.,-6.1232339957368E-17,1.));
#414=AXIS2_PLACEMENT_3D('',#411,#413,#412);
#415=CYLINDRICAL_SURFACE('',#414,2.6);
#416=CARTESIAN_POINT('',(26.35,-3.6127080574847E-16,5.9));
#417=VERTEX_POINT('',#416);
#418=CARTESIAN_POINT('',(26.35,-6.1232339957368E-18,0.1));
#419=VERTEX_POINT('',#418);
#420=CARTESIAN_POINT('',(26.35,-3.6127080574847E-16,5.9));
#421=DIRECTION('',(0.,6.1232339957368E-17,-1.));
#422=VECTOR('',#421,5.8);
#423=LINE('',#420,#422);
#424=EDGE_CURVE('',#417,#419,#423,.T.);
#425=ORIENTED_EDGE('',*,*,#424,.T.);
#426=CARTESIAN_POINT('',(23.75,2.5060246998983E-15,0.1));
#427=DIRECTION('',(1.,-9.662107438054E-16,5.2265068332449E-18));
#428=DIRECTION('',(5.226506833245E-18,6.4162432205827E-17,-1.));
#429=AXIS2_PLACEMENT_3D('',#426,#428,#427);
#430=CIRCLE('',#429,2.6);
#431=EDGE_CURVE('',#419,#419,#430,.T.);
#432=ORIENTED_EDGE('',*,*,#431,.T.);
#433=ORIENTED_EDGE('',*,*,#424,.F.);
#434=CARTESIAN_POINT('',(23.75,-2.8734187396425E-15,5.9));
#435=DIRECTION('',(1.,9.662107438054E-16,6.0388171487837E-16));
#436=DIRECTION('',(-6.0388171487837E-16,-6.0388171487838E-16,1.));
#437=AXIS2_PLACEMENT_3D('',#434,#436,#435);
#438=CIRCLE('',#437,2.6);
#439=EDGE_CURVE('',#417,#417,#438,.T.);
#440=ORIENTED_EDGE('',*,*,#439,.T.);
#441=EDGE_LOOP('',(#425,#432,#433,#440));
#442=FACE_OUTER_BOUND('',#441,.T.);
#443=ADVANCED_FACE('',(#442),#415,.F.);
#444=CARTESIAN_POINT('',(11.25,19.48557158515,0.099999999999999));
#445=DIRECTION('',(1.,0.,2.2417964920316E-16));
#446=DIRECTION('',(0.,0.,1.));
#447=AXIS2_PLACEMENT_3D('',#444,#446,#445);
#448=CYLINDRICAL_SURFACE('',#447,2.6);
#449=CARTESIAN_POINT('',(13.85,19.48557158515,5.9));
#450=VERTEX_POINT('',#449);
#451=CARTESIAN_POINT('',(13.85,19.48557158515,0.1));
#452=VERTEX_POINT('',#451);
#453=CARTESIAN_POINT('',(13.85,19.48557158515,5.9));
#454=DIRECTION('',(0.,0.,-1.));
#455=VECTOR('',#454,5.8);
#456=LINE('',#453,#455);
#457=EDGE_CURVE('',#450,#452,#456,.T.);
#458=ORIENTED_EDGE('',*,*,#457,.T.);
#459=CARTESIAN_POINT('',(11.25,19.48557158515,0.1));
#460=DIRECTION('',(1.,-1.4810528935952E-34,5.6058391459506E-18));
#461=DIRECTION('',(5.6058391459506E-18,2.6419825025929E-17,-1.));
#462=AXIS2_PLACEMENT_3D('',#459,#461,#460);
#463=CIRCLE('',#462,2.6);
#464=EDGE_CURVE('',#452,#452,#463,.T.);
#465=ORIENTED_EDGE('',*,*,#464,.T.);
#466=ORIENTED_EDGE('',*,*,#457,.F.);
#467=CARTESIAN_POINT('',(11.25,19.48557158515,5.9));
#468=DIRECTION('',(1.,-1.4586925022578E-32,1.2077634297567E-16));
#469=DIRECTION('',(-1.2077634297567E-16,-1.2077634297568E-16,1.));
#470=AXIS2_PLACEMENT_3D('',#467,#469,#468);
#471=CIRCLE('',#470,2.6);
#472=EDGE_CURVE('',#450,#450,#471,.T.);
#473=ORIENTED_EDGE('',*,*,#472,.T.);
#474=EDGE_LOOP('',(#458,#465,#466,#473));
#475=FACE_OUTER_BOUND('',#474,.T.);
#476=ADVANCED_FACE('',(#475),#448,.F.);
#477=CARTESIAN_POINT('',(11.25,-19.48557158515,0.099999999999999));
#478=DIRECTION('',(1.,0.,2.2417964920316E-16));
#479=DIRECTION('',(0.,0.,1.));
#480=AXIS2_PLACEMENT_3D('',#477,#479,#478);
#481=CYLINDRICAL_SURFACE('',#480,2.6);
#482=CARTESIAN_POINT('',(13.85,-19.48557158515,5.9));
#483=VERTEX_POINT('',#482);
#484=CARTESIAN_POINT('',(13.85,-19.48557158515,0.1));
#485=VERTEX_POINT('',#484);
#486=CARTESIAN_POINT('',(13.85,-19.48557158515,5.9));
#487=DIRECTION('',(0.,0.,-1.));
#488=VECTOR('',#487,5.8);
#489=LINE('',#486,#488);
#490=EDGE_CURVE('',#483,#485,#489,.T.);
#491=ORIENTED_EDGE('',*,*,#490,.T.);
#492=CARTESIAN_POINT('',(11.25,-19.48557158515,0.1));
#493=DIRECTION('',(1.,-1.4810528935952E-34,5.6058391459506E-18));
#494=DIRECTION('',(5.6058391459506E-18,2.6419825025929E-17,-1.));
#495=AXIS2_PLACEMENT_3D('',#492,#494,#493);
#496=CIRCLE('',#495,2.6);
#497=EDGE_CURVE('',#485,#485,#496,.T.);
#498=ORIENTED_EDGE('',*,*,#497,.T.);
#499=ORIENTED_EDGE('',*,*,#490,.F.);
#500=CARTESIAN_POINT('',(11.25,-19.48557158515,5.9));
#501=DIRECTION('',(1.,-1.4586925022578E-32,1.2077634297567E-16));
#502=DIRECTION('',(-1.2077634297567E-16,-1.2077634297567E-16,1.));
#503=AXIS2_PLACEMENT_3D('',#500,#502,#501);
#504=CIRCLE('',#503,2.6);
#505=EDGE_CURVE('',#483,#483,#504,.T.);
#506=ORIENTED_EDGE('',*,*,#505,.T.);
#507=EDGE_LOOP('',(#491,#498,#499,#506));
#508=FACE_OUTER_BOUND('',#507,.T.);
#509=ADVANCED_FACE('',(#508),#481,.F.);
#510=CARTESIAN_POINT('',(10.,0.5,20.9));
#511=DIRECTION('',(1.,6.7286243916676E-16,0.));
#512=DIRECTION('',(5.4277663676828E-16,-1.,5.4277663676828E-16));
#513=AXIS2_PLACEMENT_3D('',#510,#512,#511);
#514=CYLINDRICAL_SURFACE('',#513,1.65);
#515=CARTESIAN_POINT('',(11.65,-9.4486771560891,20.9));
#516=VERTEX_POINT('',#515);
#517=CARTESIAN_POINT('',(11.65,-9.4486771560891,20.9));
#518=CARTESIAN_POINT('',(11.65,-9.4486771560891,21.061793435399));
#519=CARTESIAN_POINT('',(11.578607866169,-9.53670200289,21.547173741596));
#520=CARTESIAN_POINT('',(11.320221233979,-9.8448490578412,21.919150963044));
#521=CARTESIAN_POINT('',(10.688375226755,-10.546296130845,22.528218407876));
#522=CARTESIAN_POINT('',(10.009522772405,-11.198719925661,22.672631513533));
#523=CARTESIAN_POINT('',(8.8574814810564,-12.125976093028,22.227370609238));
#524=CARTESIAN_POINT('',(8.35,-12.4610392825,21.667455702713));
#525=CARTESIAN_POINT('',(8.35,-12.4610392825,20.132544297287));
#526=CARTESIAN_POINT('',(8.8574814810565,-12.125976093028,19.572629390762));
#527=CARTESIAN_POINT('',(9.9596719181843,-11.238843931955,19.146635709437));
#528=CARTESIAN_POINT('',(10.565735358367,-10.667351449409,19.251544399299));
#529=CARTESIAN_POINT('',(11.227776896387,-9.9518941646458,19.763717425518));
#530=CARTESIAN_POINT('',(11.556699089741,-9.5637150165807,20.16015857092));
#531=CARTESIAN_POINT('',(11.65,-9.4486771560891,20.71503964273));
#532=CARTESIAN_POINT('',(11.65,-9.4486771560891,20.9));
#533=B_SPLINE_CURVE_WITH_KNOTS('',3,(#517,#518,#519,#520,#521,#522,#523,#524,#525,#526,#527,#528,#529,#530,#531,#532),.UNSPECIFIED.,.T.,.U.,(4,1,2,2,2,2,2,1,4),(0.,0.2834030732697,0.850209219809,2.328658200409,3.6684507856118,5.0082433708147,6.3647420788761,7.0314087455427,7.3647420788761),.UNSPECIFIED.);
#534=EDGE_CURVE('',#516,#516,#533,.T.);
#535=ORIENTED_EDGE('',*,*,#534,.T.);
#536=CARTESIAN_POINT('',(11.65,0.5,20.9));
#537=VERTEX_POINT('',#536);
#538=CARTESIAN_POINT('',(11.65,-9.4486771560891,20.9));
#539=DIRECTION('',(0.,1.,0.));
#540=VECTOR('',#539,9.9486771560891);
#541=LINE('',#538,#540);
#542=EDGE_CURVE('',#516,#537,#541,.T.);
#543=ORIENTED_EDGE('',*,*,#542,.T.);
#544=CARTESIAN_POINT('',(10.,0.5,20.9));
#545=DIRECTION('',(1.,-0.,7.6125694966486E-16));
#546=DIRECTION('',(0.,1.,0.));
#547=AXIS2_PLACEMENT_3D('',#544,#546,#545);
#548=CIRCLE('',#547,1.65);
#549=EDGE_CURVE('',#537,#537,#548,.T.);
#550=ORIENTED_EDGE('',*,*,#549,.T.);
#551=ORIENTED_EDGE('',*,*,#542,.F.);
#552=EDGE_LOOP('',(#535,#543,#550,#551));
#553=FACE_OUTER_BOUND('',#552,.T.);
#554=ADVANCED_FACE('',(#553),#514,.F.);
#555=CARTESIAN_POINT('',(10.,0.5,20.9));
#556=DIRECTION('',(1.,-5.2867763077388E-17,1.6917684184764E-15));
#557=DIRECTION('',(0.,1.,0.));
#558=AXIS2_PLACEMENT_3D('',#555,#557,#556);
#559=CYLINDRICAL_SURFACE('',#558,2.1);
#560=CARTESIAN_POINT('',(12.1,0.5,20.9));
#561=VERTEX_POINT('',#560);
#562=CARTESIAN_POINT('',(10.,0.5,20.9));
#563=DIRECTION('',(1.,-0.,-2.9906523022548E-16));
#564=DIRECTION('',(0.,-1.,0.));
#565=AXIS2_PLACEMENT_3D('',#562,#564,#563);
#566=CIRCLE('',#565,2.1);
#567=EDGE_CURVE('',#561,#561,#566,.T.);
#568=ORIENTED_EDGE('',*,*,#567,.T.);
#569=CARTESIAN_POINT('',(12.1,4.5,20.9));
#570=VERTEX_POINT('',#569);
#571=CARTESIAN_POINT('',(12.1,0.5,20.9));
#572=DIRECTION('',(0.,1.,0.));
#573=VECTOR('',#572,4.);
#574=LINE('',#571,#573);
#575=EDGE_CURVE('',#561,#570,#574,.T.);
#576=ORIENTED_EDGE('',*,*,#575,.T.);
#577=CARTESIAN_POINT('',(10.,4.5,20.9));
#578=DIRECTION('',(1.,4.4859784533822E-16,2.9906523022548E-16));
#579=DIRECTION('',(-4.4859784533822E-16,1.,4.4859784533822E-16));
#580=AXIS2_PLACEMENT_3D('',#577,#579,#578);
#581=CIRCLE('',#580,2.1);
#582=EDGE_CURVE('',#570,#570,#581,.T.);
#583=ORIENTED_EDGE('',*,*,#582,.T.);
#584=ORIENTED_EDGE('',*,*,#575,.F.);
#585=EDGE_LOOP('',(#568,#576,#583,#584));
#586=FACE_OUTER_BOUND('',#585,.T.);
#587=ADVANCED_FACE('',(#586),#559,.F.);
#588=CARTESIAN_POINT('',(10.,4.5,20.9));
#589=DIRECTION('',(1.,0.,0.));
#590=DIRECTION('',(0.,1.,0.));
#591=AXIS2_PLACEMENT_3D('',#588,#590,#589);
#592=CYLINDRICAL_SURFACE('',#591,3.45);
#593=CARTESIAN_POINT('',(13.45,4.5,20.9));
#594=VERTEX_POINT('',#593);
#595=CARTESIAN_POINT('',(10.,4.5,20.9));
#596=DIRECTION('',(1.,2.7305955803196E-16,-1.8203970535464E-16));
#597=DIRECTION('',(2.7305955803196E-16,-1.,2.7305955803196E-16));
#598=AXIS2_PLACEMENT_3D('',#595,#597,#596);
#599=CIRCLE('',#598,3.45);
#600=EDGE_CURVE('',#594,#594,#599,.T.);
#601=ORIENTED_EDGE('',*,*,#600,.T.);
#602=CARTESIAN_POINT('',(13.45,6.6405948528728,20.9));
#603=VERTEX_POINT('',#602);
#604=CARTESIAN_POINT('',(13.45,4.5,20.9));
#605=DIRECTION('',(0.,1.,0.));
#606=VECTOR('',#605,2.1405948528728);
#607=LINE('',#604,#606);
#608=EDGE_CURVE('',#594,#603,#607,.T.);
#609=ORIENTED_EDGE('',*,*,#608,.T.);
#610=CARTESIAN_POINT('',(13.45,6.6405948528728,20.9));
#611=CARTESIAN_POINT('',(13.45,6.6405948528728,20.658580526321));
#612=CARTESIAN_POINT('',(13.373978223124,6.7945709531516,19.934322105285));
#613=CARTESIAN_POINT('',(13.090024721756,7.3337875093588,19.32741670577));
#614=CARTESIAN_POINT('',(12.51091131697,8.3109200867161,18.424561558669));
#615=CARTESIAN_POINT('',(11.945513045716,9.1199448665842,17.974980891529));
#616=CARTESIAN_POINT('',(10.539174950299,10.742557527435,17.384771812198));
#617=CARTESIAN_POINT('',(9.5305156442512,11.644652798142,17.314711022469));
#618=CARTESIAN_POINT('',(7.4465451833322,13.089950392215,18.281320532086));
#619=CARTESIAN_POINT('',(6.55,13.494350669817,19.442217837943));
#620=CARTESIAN_POINT('',(6.55,13.494350669817,22.150096806933));
#621=CARTESIAN_POINT('',(7.2175654997623,13.193732266334,23.208906544922));
#622=CARTESIAN_POINT('',(9.0325119800522,12.02401914555,24.383164369145));
#623=CARTESIAN_POINT('',(10.031256548715,11.215642643112,24.452542964708));
#624=CARTESIAN_POINT('',(11.599892062747,9.5714952846474,24.052327576129));
#625=CARTESIAN_POINT('',(12.281582873073,8.6599261376708,23.608465873948));
#626=CARTESIAN_POINT('',(12.994149520048,7.5065982140661,22.657519352618));
#627=CARTESIAN_POINT('',(13.353217139885,6.8366208862901,21.989588492997));
#628=CARTESIAN_POINT('',(13.45,6.6405948528728,21.172397123249));
#629=CARTESIAN_POINT('',(13.45,6.6405948528728,20.9));
#630=B_SPLINE_CURVE_WITH_KNOTS('',3,(#610,#611,#612,#613,#614,#615,#616,#617,#618,#619,#620,#621,#622,#623,#624,#625,#626,#627,#628,#629),.UNSPECIFIED.,.T.,.U.,(4,1,2,2,2,2,2,2,2,1,4),(0.,0.28491785332,0.8547535599611,2.0584599251501,3.6279016287903,5.3884774592409,6.8982299320681,8.4050618920828,9.7749979620507,10.441664628717,10.774997962051),.UNSPECIFIED.);
#631=EDGE_CURVE('',#603,#603,#630,.T.);
#632=ORIENTED_EDGE('',*,*,#631,.T.);
#633=ORIENTED_EDGE('',*,*,#608,.F.);
#634=EDGE_LOOP('',(#601,#609,#632,#633));
#635=FACE_OUTER_BOUND('',#634,.T.);
#636=ADVANCED_FACE('',(#635),#592,.F.);
#637=CARTESIAN_POINT('',(9.0755752861126,4.5,20.9));
#638=DIRECTION('',(1.,0.,0.));
#639=DIRECTION('',(-0.,1.,0.));
#640=AXIS2_PLACEMENT_3D('',#637,#639,#638);
#641=PLANE('',#640);
#642=ORIENTED_EDGE('',*,*,#600,.F.);
#643=EDGE_LOOP('',(#642));
#644=FACE_OUTER_BOUND('',#643,.T.);
#645=ORIENTED_EDGE('',*,*,#582,.F.);
#646=EDGE_LOOP('',(#645));
#647=FACE_BOUND('',#646,.T.);
#648=ADVANCED_FACE('',(#644,#647),#641,.T.);
#649=CARTESIAN_POINT('',(7.105427357601E-15,-3.155443620884E-30,-28.3));
#650=DIRECTION('',(1.,-1.267276109058E-16,4.0600642342679E-17));
#651=DIRECTION('',(-4.0600642342679E-17,1.2672761090579E-16,1.));
#652=AXIS2_PLACEMENT_3D('',#649,#651,#650);
#653=CONICAL_SURFACE('',#652,0.,0.78539816339744);
#654=ORIENTED_EDGE('',*,*,#230,.F.);
#655=CARTESIAN_POINT('',(28.3,0.,0.));
#656=DIRECTION('',(0.70710678118654,-4.9186303994177E-14,0.70710678118656));
#657=VECTOR('',#656,0.14142135623731);
#658=LINE('',#655,#657);
#659=EDGE_CURVE('',#224,#38,#658,.T.);
#660=ORIENTED_EDGE('',*,*,#659,.T.);
#661=ORIENTED_EDGE('',*,*,#50,.F.);
#662=ORIENTED_EDGE('',*,*,#659,.F.);
#663=EDGE_LOOP('',(#654,#660,#661,#662));
#664=FACE_OUTER_BOUND('',#663,.T.);
#665=ADVANCED_FACE('',(#664),#653,.T.);
#666=CARTESIAN_POINT('',(1.1151471454501E-14,-1.3262959766825E-14,34.300000000001));
#667=DIRECTION('',(1.,4.6700562559245E-16,0.));
#668=DIRECTION('',(-0.,-0.,-1.));
#669=AXIS2_PLACEMENT_3D('',#666,#668,#667);
#670=CONICAL_SURFACE('',#669,0.,0.78539816339743);
#671=CARTESIAN_POINT('',(28.3,0.,6.));
#672=DIRECTION('',(0.70710678118654,-4.9186303994177E-14,-0.70710678118655));
#673=VECTOR('',#672,0.14142135623731);
#674=LINE('',#671,#673);
#675=EDGE_CURVE('',#130,#36,#674,.T.);
#676=ORIENTED_EDGE('',*,*,#675,.T.);
#677=ORIENTED_EDGE('',*,*,#58,.F.);
#678=ORIENTED_EDGE('',*,*,#675,.F.);
#679=ORIENTED_EDGE('',*,*,#136,.F.);
#680=EDGE_LOOP('',(#676,#677,#678,#679));
#681=FACE_OUTER_BOUND('',#680,.T.);
#682=ADVANCED_FACE('',(#681),#670,.T.);
#683=CARTESIAN_POINT('',(3.2171387942201E-14,-1.3121154000091E-13,41.3));
#684=DIRECTION('',(1.,8.6281527265373E-15,1.9966122807601E-16));
#685=DIRECTION('',(1.9966122807601E-16,-1.2564608630577E-16,-1.));
#686=AXIS2_PLACEMENT_3D('',#683,#685,#684);
#687=CONICAL_SURFACE('',#686,0.,0.78539816339745);
#688=CARTESIAN_POINT('',(14.995832175282,0.5,26.3));
#689=VERTEX_POINT('',#688);
#690=CARTESIAN_POINT('',(14.995832175282,-0.5,26.3));
#691=VERTEX_POINT('',#690);
#692=CARTESIAN_POINT('',(-5.3290705182008E-15,1.2434497875802E-14,26.3));
#693=DIRECTION('',(0.99944459863687,0.033324079215966,2.3678182412799E-16));
#694=DIRECTION('',(-3.146163467492E-17,4.568838770069E-16,1.));
#695=AXIS2_PLACEMENT_3D('',#692,#694,#693);
#696=CIRCLE('',#695,15.004165509259);
#697=EDGE_CURVE('',#689,#691,#696,.T.);
#698=ORIENTED_EDGE('',*,*,#697,.T.);
#699=CARTESIAN_POINT('',(14.994009910886,-0.50000000000513,26.301306267874));
#700=CARTESIAN_POINT('',(14.978284686009,-0.50000000004632,26.312731898263));
#701=CARTESIAN_POINT('',(14.966043744227,-0.5,26.325606351224));
#702=CARTESIAN_POINT('',(14.937259454653,-0.5,26.354374561197));
#703=CARTESIAN_POINT('',(14.906825414316,-0.49999999998234,26.384791531743));
#704=CARTESIAN_POINT('',(14.891608376223,-0.49999999998234,26.399999999656));
#705=B_SPLINE_CURVE_WITH_KNOTS('',3,(#699,#700,#701,#702,#703,#704),.UNSPECIFIED.,.F.,.U.,(4,2,4),(0.036883984502326,0.99999999999993,2.0802262760681),.UNSPECIFIED.);
#706=EDGE_CURVE('',#691,#71,#705,.T.);
#707=ORIENTED_EDGE('',*,*,#706,.T.);
#708=ORIENTED_EDGE('',*,*,#77,.F.);
#709=CARTESIAN_POINT('',(14.891608376047,0.50000000000424,26.399999999832));
#710=CARTESIAN_POINT('',(14.90682541408,0.50000000000424,26.384791531977));
#711=CARTESIAN_POINT('',(14.937259454594,0.5,26.354374561256));
#712=CARTESIAN_POINT('',(14.966043744227,0.5,26.325606351224));
#713=CARTESIAN_POINT('',(14.978284686009,0.50000000004632,26.312731898263));
#714=CARTESIAN_POINT('',(14.994009910886,0.50000000000513,26.301306267874));
#715=B_SPLINE_CURVE_WITH_KNOTS('',3,(#709,#710,#711,#712,#713,#714),.UNSPECIFIED.,.F.,.U.,(4,2,4),(0.036883984502563,1.1171102647483,2.0802262802457),.UNSPECIFIED.);
#716=EDGE_CURVE('',#69,#689,#715,.T.);
#717=ORIENTED_EDGE('',*,*,#716,.T.);
#718=EDGE_LOOP('',(#698,#707,#708,#717));
#719=FACE_OUTER_BOUND('',#718,.T.);
#720=ADVANCED_FACE('',(#719),#687,.T.);
#721=CARTESIAN_POINT('',(7.9936057773011E-15,1.9539925233403E-14,21.299999999998));
#722=DIRECTION('',(1.5325783030544E-09,-1.,-5.9715499809989E-16));
#723=DIRECTION('',(-1.8016277844016E-16,-5.97154998376E-16,1.));
#724=AXIS2_PLACEMENT_3D('',#721,#723,#722);
#725=CONICAL_SURFACE('',#724,0.,0.78539816339723);
#726=ORIENTED_EDGE('',*,*,#113,.F.);
#727=CARTESIAN_POINT('',(-4.9749371855331,0.50000000000002,26.3));
#728=VERTEX_POINT('',#727);
#729=CARTESIAN_POINT('',(-5.0754310211883,0.49999999507496,26.399999954398));
#730=CARTESIAN_POINT('',(-5.0503083034782,0.49999999847354,26.374999167494));
#731=CARTESIAN_POINT('',(-5.0000618719446,0.5,26.324998747341));
#732=CARTESIAN_POINT('',(-4.9749371855331,0.5,26.3));
#733=B_SPLINE_CURVE_WITH_KNOTS('',3,(#729,#730,#731,#732),.UNSPECIFIED.,.F.,.U.,(4,4),(0.,0.99999939199396),.UNSPECIFIED.);
#734=EDGE_CURVE('',#99,#728,#733,.T.);
#735=ORIENTED_EDGE('',*,*,#734,.T.);
#736=CARTESIAN_POINT('',(-1.6742859137287E-08,4.999999999924,26.299999999924));
#737=VERTEX_POINT('',#736);
#738=CARTESIAN_POINT('',(-4.8849813083507E-15,4.4408920985006E-16,26.3));
#739=DIRECTION('',(-0.99498743710662,0.1,2.1316282073127E-15));
#740=DIRECTION('',(-1.6394891099764E-15,-5.5595238344778E-16,-1.));
#741=AXIS2_PLACEMENT_3D('',#738,#740,#739);
#742=CIRCLE('',#741,4.999999999924);
#743=EDGE_CURVE('',#728,#737,#742,.T.);
#744=ORIENTED_EDGE('',*,*,#743,.T.);
#745=CARTESIAN_POINT('',(4.9749371838985,0.50000001626453,26.3));
#746=VERTEX_POINT('',#745);
#747=CARTESIAN_POINT('',(-4.4408920985006E-15,-3.5527136788005E-15,26.3));
#748=DIRECTION('',(-3.3485710204672E-09,1.,-7.1054273576009E-16));
#749=DIRECTION('',(-8.5395455544405E-16,-1.5459035761102E-16,-1.));
#750=AXIS2_PLACEMENT_3D('',#747,#749,#748);
#751=CIRCLE('',#750,5.0000000000001);
#752=EDGE_CURVE('',#737,#746,#751,.T.);
#753=ORIENTED_EDGE('',*,*,#752,.T.);
#754=CARTESIAN_POINT('',(4.9749371855331,0.5,26.3));
#755=CARTESIAN_POINT('',(5.0000618755526,0.5,26.32499875093));
#756=CARTESIAN_POINT('',(5.050308315922,0.50000000056592,26.374999201203));
#757=CARTESIAN_POINT('',(5.0754309889767,0.50000000181733,26.399999991066));
#758=B_SPLINE_CURVE_WITH_KNOTS('',3,(#754,#755,#756,#757),.UNSPECIFIED.,.F.,.U.,(4,4),(0.,0.99999988088649),.UNSPECIFIED.);
#759=EDGE_CURVE('',#746,#107,#758,.T.);
#760=ORIENTED_EDGE('',*,*,#759,.T.);
#761=EDGE_LOOP('',(#726,#735,#744,#753,#760));
#762=FACE_OUTER_BOUND('',#761,.T.);
#763=ADVANCED_FACE('',(#762),#725,.F.);
#764=CARTESIAN_POINT('',(2.4546782249761E-15,5.3671118308796E-15,5.0999999999999));
#765=DIRECTION('',(1.,-1.5363637880969E-15,-2.9518776666264E-16));
#766=DIRECTION('',(-2.9518776666264E-16,4.8398891929709E-16,-1.));
#767=AXIS2_PLACEMENT_3D('',#764,#766,#765);
#768=CONICAL_SURFACE('',#767,0.,0.78539816339746);
#769=ORIENTED_EDGE('',*,*,#307,.F.);
#770=CARTESIAN_POINT('',(5.,-1.2246467991474E-15,0.1));
#771=VERTEX_POINT('',#770);
#772=CARTESIAN_POINT('',(5.1,0.,1.4155343563971E-15));
#773=DIRECTION('',(-0.70710678118655,-8.6595605623553E-15,0.70710678118654));
#774=VECTOR('',#773,0.14142135623731);
#775=LINE('',#772,#774);
#776=EDGE_CURVE('',#301,#771,#775,.T.);
#777=ORIENTED_EDGE('',*,*,#776,.T.);
#778=CARTESIAN_POINT('',(4.9749371855331,0.50000000000005,0.1));
#779=VERTEX_POINT('',#778);
#780=CARTESIAN_POINT('',(-2.9665159217984E-13,-3.6470826358936E-14,0.099999999999998));
#781=DIRECTION('',(1.,7.0610184366156E-15,-2.3592239273283E-16));
#782=DIRECTION('',(2.3516719359351E-16,3.1709923525536E-16,1.));
#783=AXIS2_PLACEMENT_3D('',#780,#782,#781);
#784=CIRCLE('',#783,5.0000000000003);
#785=EDGE_CURVE('',#771,#779,#784,.T.);
#786=ORIENTED_EDGE('',*,*,#785,.T.);
#787=CARTESIAN_POINT('',(-2.2204460492503E-15,1.7763568394003E-15,0.1));
#788=DIRECTION('',(0.99498743710662,0.10000000000001,-3.0531133177192E-17));
#789=DIRECTION('',(3.2242596718681E-19,2.85000195768E-16,1.));
#790=AXIS2_PLACEMENT_3D('',#787,#789,#788);
#791=CIRCLE('',#790,5.);
#792=EDGE_CURVE('',#779,#771,#791,.T.);
#793=ORIENTED_EDGE('',*,*,#792,.T.);
#794=ORIENTED_EDGE('',*,*,#776,.F.);
#795=EDGE_LOOP('',(#769,#777,#786,#793,#794));
#796=FACE_OUTER_BOUND('',#795,.T.);
#797=ADVANCED_FACE('',(#796),#768,.F.);
#798=CARTESIAN_POINT('',(23.75,-4.7176292153106E-15,2.6999999999996));
#799=DIRECTION('',(1.,1.5495410408434E-15,-2.4419639516748E-16));
#800=DIRECTION('',(-2.4419639516749E-16,1.9546117445841E-16,-1.));
#801=AXIS2_PLACEMENT_3D('',#798,#800,#799);
#802=CONICAL_SURFACE('',#801,0.,0.78539816339752);
#803=CARTESIAN_POINT('',(26.45,-6.1232339957368E-18,5.5511151231258E-17));
#804=DIRECTION('',(-0.70710678118654,0.,0.70710678118655));
#805=VECTOR('',#804,0.14142135623731);
#806=LINE('',#803,#805);
#807=EDGE_CURVE('',#290,#419,#806,.T.);
#808=ORIENTED_EDGE('',*,*,#807,.T.);
#809=ORIENTED_EDGE('',*,*,#431,.F.);
#810=ORIENTED_EDGE('',*,*,#807,.F.);
#811=ORIENTED_EDGE('',*,*,#296,.F.);
#812=EDGE_LOOP('',(#808,#809,#810,#811));
#813=FACE_OUTER_BOUND('',#812,.T.);
#814=ADVANCED_FACE('',(#813),#802,.F.);
#815=CARTESIAN_POINT('',(11.25,19.48557158515,2.6999999999998));
#816=DIRECTION('',(1.,-1.2209819758373E-15,0.));
#817=DIRECTION('',(-0.,-0.,-1.));
#818=AXIS2_PLACEMENT_3D('',#815,#817,#816);
#819=CONICAL_SURFACE('',#818,0.,0.78539816339748);
#820=CARTESIAN_POINT('',(13.95,19.48557158515,0.));
#821=DIRECTION('',(-0.70710678118655,0.,0.70710678118655));
#822=VECTOR('',#821,0.14142135623731);
#823=LINE('',#820,#822);
#824=EDGE_CURVE('',#279,#452,#823,.T.);
#825=ORIENTED_EDGE('',*,*,#824,.T.);
#826=ORIENTED_EDGE('',*,*,#464,.F.);
#827=ORIENTED_EDGE('',*,*,#824,.F.);
#828=ORIENTED_EDGE('',*,*,#285,.F.);
#829=EDGE_LOOP('',(#825,#826,#827,#828));
#830=FACE_OUTER_BOUND('',#829,.T.);
#831=ADVANCED_FACE('',(#830),#819,.F.);
#832=CARTESIAN_POINT('',(-11.875,20.56810333988,2.7));
#833=DIRECTION('',(1.,2.6861603468421E-15,-1.2209819758373E-16));
#834=DIRECTION('',(-1.2209819758373E-16,-0.,-1.));
#835=AXIS2_PLACEMENT_3D('',#832,#834,#833);
#836=CONICAL_SURFACE('',#835,0.,0.78539816339744);
#837=CARTESIAN_POINT('',(-9.175,20.56810333988,0.));
#838=DIRECTION('',(-0.70710678118655,0.,0.70710678118655));
#839=VECTOR('',#838,0.14142135623731);
#840=LINE('',#837,#839);
#841=EDGE_CURVE('',#268,#353,#840,.T.);
#842=ORIENTED_EDGE('',*,*,#841,.T.);
#843=ORIENTED_EDGE('',*,*,#365,.F.);
#844=ORIENTED_EDGE('',*,*,#841,.F.);
#845=ORIENTED_EDGE('',*,*,#274,.F.);
#846=EDGE_LOOP('',(#842,#843,#844,#845));
#847=FACE_OUTER_BOUND('',#846,.T.);
#848=ADVANCED_FACE('',(#847),#836,.F.);
#849=CARTESIAN_POINT('',(-22.5,-7.208263266601E-16,2.7));
#850=DIRECTION('',(1.,1.8689901007473E-16,0.));
#851=DIRECTION('',(-0.,6.5153724819473E-17,-1.));
#852=AXIS2_PLACEMENT_3D('',#849,#851,#850);
#853=CONICAL_SURFACE('',#852,0.,0.78539816339744);
#854=CARTESIAN_POINT('',(-19.8,-4.028394244574E-17,5.5511151231258E-17));
#855=DIRECTION('',(-0.70710678118654,2.4155268595134E-16,0.70710678118655));
#856=VECTOR('',#855,0.14142135623731);
#857=LINE('',#854,#856);
#858=EDGE_CURVE('',#257,#320,#857,.T.);
#859=ORIENTED_EDGE('',*,*,#858,.T.);
#860=ORIENTED_EDGE('',*,*,#332,.F.);
#861=ORIENTED_EDGE('',*,*,#858,.F.);
#862=ORIENTED_EDGE('',*,*,#263,.F.);
#863=EDGE_LOOP('',(#859,#860,#861,#862));
#864=FACE_OUTER_BOUND('',#863,.T.);
#865=ADVANCED_FACE('',(#864),#853,.F.);
#866=CARTESIAN_POINT('',(-11.875,-20.56810333988,2.7));
#867=DIRECTION('',(1.,2.6861603468421E-15,-1.2209819758373E-16));
#868=DIRECTION('',(-1.2209819758373E-16,-0.,-1.));
#869=AXIS2_PLACEMENT_3D('',#866,#868,#867);
#870=CONICAL_SURFACE('',#869,0.,0.78539816339744);
#871=CARTESIAN_POINT('',(-9.175,-20.56810333988,0.));
#872=DIRECTION('',(-0.70710678118655,0.,0.70710678118655));
#873=VECTOR('',#872,0.14142135623731);
#874=LINE('',#871,#873);
#875=EDGE_CURVE('',#246,#386,#874,.T.);
#876=ORIENTED_EDGE('',*,*,#875,.T.);
#877=ORIENTED_EDGE('',*,*,#398,.F.);
#878=ORIENTED_EDGE('',*,*,#875,.F.);
#879=ORIENTED_EDGE('',*,*,#252,.F.);
#880=EDGE_LOOP('',(#876,#877,#878,#879));
#881=FACE_OUTER_BOUND('',#880,.T.);
#882=ADVANCED_FACE('',(#881),#870,.F.);
#883=CARTESIAN_POINT('',(11.25,-19.48557158515,2.6999999999998));
#884=DIRECTION('',(1.,-5.1281242985166E-15,0.));
#885=DIRECTION('',(-0.,-0.,-1.));
#886=AXIS2_PLACEMENT_3D('',#883,#885,#884);
#887=CONICAL_SURFACE('',#886,0.,0.78539816339748);
#888=CARTESIAN_POINT('',(13.95,-19.48557158515,0.));
#889=DIRECTION('',(-0.70710678118655,0.,0.70710678118655));
#890=VECTOR('',#889,0.14142135623731);
#891=LINE('',#888,#890);
#892=EDGE_CURVE('',#235,#485,#891,.T.);
#893=ORIENTED_EDGE('',*,*,#892,.T.);
#894=ORIENTED_EDGE('',*,*,#497,.F.);
#895=ORIENTED_EDGE('',*,*,#892,.F.);
#896=ORIENTED_EDGE('',*,*,#241,.F.);
#897=EDGE_LOOP('',(#893,#894,#895,#896));
#898=FACE_OUTER_BOUND('',#897,.T.);
#899=ADVANCED_FACE('',(#898),#887,.F.);
#900=CARTESIAN_POINT('',(-22.5,-3.1683409976267E-15,3.2999999999999));
#901=DIRECTION('',(1.,1.1573109620198E-15,2.4419639516745E-16));
#902=DIRECTION('',(-2.4419639516745E-16,-1.3030744963895E-16,1.));
#903=AXIS2_PLACEMENT_3D('',#900,#902,#901);
#904=CONICAL_SURFACE('',#903,0.,0.78539816339743);
#905=ORIENTED_EDGE('',*,*,#213,.F.);
#906=CARTESIAN_POINT('',(-19.8,-3.9543151419847E-16,6.));
#907=DIRECTION('',(-0.70710678118654,2.4155268595132E-16,-0.70710678118655));
#908=VECTOR('',#907,0.14142135623731);
#909=LINE('',#906,#908);
#910=EDGE_CURVE('',#207,#318,#909,.T.);
#911=ORIENTED_EDGE('',*,*,#910,.T.);
#912=ORIENTED_EDGE('',*,*,#340,.F.);
#913=ORIENTED_EDGE('',*,*,#910,.F.);
#914=EDGE_LOOP('',(#905,#911,#912,#913));
#915=FACE_OUTER_BOUND('',#914,.T.);
#916=ADVANCED_FACE('',(#915),#904,.F.);
#917=CARTESIAN_POINT('',(-11.875,20.56810333988,3.2999999999999));
#918=DIRECTION('',(1.,2.6861603468421E-15,0.));
#919=DIRECTION('',(-0.,-0.,1.));
#920=AXIS2_PLACEMENT_3D('',#917,#919,#918);
#921=CONICAL_SURFACE('',#920,0.,0.78539816339743);
#922=ORIENTED_EDGE('',*,*,#202,.F.);
#923=CARTESIAN_POINT('',(-9.175,20.56810333988,6.));
#924=DIRECTION('',(-0.70710678118655,0.,-0.70710678118655));
#925=VECTOR('',#924,0.14142135623731);
#926=LINE('',#923,#925);
#927=EDGE_CURVE('',#196,#351,#926,.T.);
#928=ORIENTED_EDGE('',*,*,#927,.T.);
#929=ORIENTED_EDGE('',*,*,#373,.F.);
#930=ORIENTED_EDGE('',*,*,#927,.F.);
#931=EDGE_LOOP('',(#922,#928,#929,#930));
#932=FACE_OUTER_BOUND('',#931,.T.);
#933=ADVANCED_FACE('',(#932),#921,.F.);
#934=CARTESIAN_POINT('',(-11.875,-20.56810333988,3.2999999999999));
#935=DIRECTION('',(1.,2.6861603468421E-15,0.));
#936=DIRECTION('',(-0.,-0.,1.));
#937=AXIS2_PLACEMENT_3D('',#934,#936,#935);
#938=CONICAL_SURFACE('',#937,0.,0.78539816339743);
#939=ORIENTED_EDGE('',*,*,#191,.F.);
#940=CARTESIAN_POINT('',(-9.175,-20.56810333988,6.));
#941=DIRECTION('',(-0.70710678118655,0.,-0.70710678118655));
#942=VECTOR('',#941,0.14142135623731);
#943=LINE('',#940,#942);
#944=EDGE_CURVE('',#185,#384,#943,.T.);
#945=ORIENTED_EDGE('',*,*,#944,.T.);
#946=ORIENTED_EDGE('',*,*,#406,.F.);
#947=ORIENTED_EDGE('',*,*,#944,.F.);
#948=EDGE_LOOP('',(#939,#945,#946,#947));
#949=FACE_OUTER_BOUND('',#948,.T.);
#950=ADVANCED_FACE('',(#949),#938,.F.);
#951=CARTESIAN_POINT('',(23.75,-3.6124302074766E-15,3.3000000000003));
#952=DIRECTION('',(1.,1.3344405613901E-15,2.4419639516748E-16));
#953=DIRECTION('',(-2.4419639516748E-16,-1.3030744963894E-16,1.));
#954=AXIS2_PLACEMENT_3D('',#951,#953,#952);
#955=CONICAL_SURFACE('',#954,0.,0.78539816339751);
#956=ORIENTED_EDGE('',*,*,#180,.F.);
#957=CARTESIAN_POINT('',(26.45,-3.6127080574847E-16,6.));
#958=DIRECTION('',(-0.70710678118654,0.,-0.70710678118655));
#959=VECTOR('',#958,0.14142135623731);
#960=LINE('',#957,#959);
#961=EDGE_CURVE('',#174,#417,#960,.T.);
#962=ORIENTED_EDGE('',*,*,#961,.T.);
#963=ORIENTED_EDGE('',*,*,#439,.F.);
#964=ORIENTED_EDGE('',*,*,#961,.F.);
#965=EDGE_LOOP('',(#956,#962,#963,#964));
#966=FACE_OUTER_BOUND('',#965,.T.);
#967=ADVANCED_FACE('',(#966),#955,.F.);
#968=CARTESIAN_POINT('',(11.25,19.48557158515,3.3000000000001));
#969=DIRECTION('',(1.,-1.2209819758373E-15,0.));
#970=DIRECTION('',(-0.,-0.,1.));
#971=AXIS2_PLACEMENT_3D('',#968,#970,#969);
#972=CONICAL_SURFACE('',#971,0.,0.78539816339747);
#973=ORIENTED_EDGE('',*,*,#169,.F.);
#974=CARTESIAN_POINT('',(13.95,19.48557158515,6.));
#975=DIRECTION('',(-0.70710678118655,0.,-0.70710678118655));
#976=VECTOR('',#975,0.14142135623731);
#977=LINE('',#974,#976);
#978=EDGE_CURVE('',#163,#450,#977,.T.);
#979=ORIENTED_EDGE('',*,*,#978,.T.);
#980=ORIENTED_EDGE('',*,*,#472,.F.);
#981=ORIENTED_EDGE('',*,*,#978,.F.);
#982=EDGE_LOOP('',(#973,#979,#980,#981));
#983=FACE_OUTER_BOUND('',#982,.T.);
#984=ADVANCED_FACE('',(#983),#972,.F.);
#985=CARTESIAN_POINT('',(11.25,-19.48557158515,3.3000000000001));
#986=DIRECTION('',(1.,-5.1281242985166E-15,0.));
#987=DIRECTION('',(-0.,-0.,1.));
#988=AXIS2_PLACEMENT_3D('',#985,#987,#986);
#989=CONICAL_SURFACE('',#988,0.,0.78539816339747);
#990=ORIENTED_EDGE('',*,*,#158,.F.);
#991=CARTESIAN_POINT('',(13.95,-19.48557158515,6.));
#992=DIRECTION('',(-0.70710678118655,0.,-0.70710678118655));
#993=VECTOR('',#992,0.14142135623731);
#994=LINE('',#991,#993);
#995=EDGE_CURVE('',#152,#483,#994,.T.);
#996=ORIENTED_EDGE('',*,*,#995,.T.);
#997=ORIENTED_EDGE('',*,*,#505,.F.);
#998=ORIENTED_EDGE('',*,*,#995,.F.);
#999=EDGE_LOOP('',(#990,#996,#997,#998));
#1000=FACE_OUTER_BOUND('',#999,.T.);
#1001=ADVANCED_FACE('',(#1000),#989,.F.);
#1002=CARTESIAN_POINT('',(3.6229744030744E-14,1.0678888990781E-13,21.299999999999));
#1003=DIRECTION('',(-1.3704935415257E-08,1.,1.1480061970471E-15));
#1004=DIRECTION('',(-1.0158731538186E-15,-1.1480062109696E-15,1.));
#1005=AXIS2_PLACEMENT_3D('',#1002,#1004,#1003);
#1006=CONICAL_SURFACE('',#1005,0.,0.78539816339738);
#1007=CARTESIAN_POINT('',(4.9749371855331,-0.5,26.3));
#1008=VERTEX_POINT('',#1007);
#1009=CARTESIAN_POINT('',(-4.9749371855331,-0.5,26.3));
#1010=VERTEX_POINT('',#1009);
#1011=CARTESIAN_POINT('',(-1.3322676295502E-15,-3.9968028886506E-15,26.3));
#1012=DIRECTION('',(0.99498743710662,-0.099999999999999,7.105427357601E-16));
#1013=DIRECTION('',(5.2960728602609E-16,-1.3749948132847E-15,-1.));
#1014=AXIS2_PLACEMENT_3D('',#1011,#1013,#1012);
#1015=CIRCLE('',#1014,5.);
#1016=EDGE_CURVE('',#1008,#1010,#1015,.T.);
#1017=ORIENTED_EDGE('',*,*,#1016,.T.);
#1018=CARTESIAN_POINT('',(-4.9749371855331,-0.5,26.3));
#1019=CARTESIAN_POINT('',(-5.0000618580422,-0.5,26.324998733508));
#1020=CARTESIAN_POINT('',(-5.0503082411876,-0.49999999847341,26.374999177236));
#1021=CARTESIAN_POINT('',(-5.0754308347404,-0.49999999507449,26.4));
#1022=B_SPLINE_CURVE_WITH_KNOTS('',3,(#1018,#1019,#1020,#1021),.UNSPECIFIED.,.F.,.U.,(4,4),(0.,1.),.UNSPECIFIED.);
#1023=EDGE_CURVE('',#1010,#90,#1022,.T.);
#1024=ORIENTED_EDGE('',*,*,#1023,.T.);
#1025=ORIENTED_EDGE('',*,*,#96,.F.);
#1026=CARTESIAN_POINT('',(5.0754310701036,-0.49999999476522,26.4));
#1027=CARTESIAN_POINT('',(5.0503083662205,-0.49999999837743,26.374999228975));
#1028=CARTESIAN_POINT('',(5.0000618876089,-0.5,26.324998762926));
#1029=CARTESIAN_POINT('',(4.9749371855331,-0.5,26.3));
#1030=B_SPLINE_CURVE_WITH_KNOTS('',3,(#1026,#1027,#1028,#1029),.UNSPECIFIED.,.F.,.U.,(4,4),(0.,1.),.UNSPECIFIED.);
#1031=EDGE_CURVE('',#88,#1008,#1030,.T.);
#1032=ORIENTED_EDGE('',*,*,#1031,.T.);
#1033=EDGE_LOOP('',(#1017,#1024,#1025,#1032));
#1034=FACE_OUTER_BOUND('',#1033,.T.);
#1035=ADVANCED_FACE('',(#1034),#1006,.F.);
#1036=CARTESIAN_POINT('',(-2.6645352591004E-15,8.8817841970013E-15,26.3));
#1037=DIRECTION('',(1.,-8.3704830629622E-16,0.));
#1038=DIRECTION('',(-4.3752631512321E-17,0.,-1.));
#1039=AXIS2_PLACEMENT_3D('',#1036,#1038,#1037);
#1040=CYLINDRICAL_SURFACE('',#1039,15.);
#1041=CARTESIAN_POINT('',(14.995833799226,0.49998612263756,15.4));
#1042=VERTEX_POINT('',#1041);
#1043=CARTESIAN_POINT('',(15.,-1.8413435120695E-15,15.4));
#1044=VERTEX_POINT('',#1043);
#1045=CARTESIAN_POINT('',(-3.1139535394686E-12,-4.8600012902966E-14,15.400000000004));
#1046=DIRECTION('',(0.99944462956097,0.033323151737709,-2.4584778657294E-13));
#1047=DIRECTION('',(-2.4583085285578E-13,-5.4326792155405E-16,-1.));
#1048=AXIS2_PLACEMENT_3D('',#1045,#1047,#1046);
#1049=CIRCLE('',#1048,15.000000000003);
#1050=EDGE_CURVE('',#1042,#1044,#1049,.T.);
#1051=ORIENTED_EDGE('',*,*,#1050,.T.);
#1052=CARTESIAN_POINT('',(15.,-1.8413435120695E-15,15.4));
#1053=DIRECTION('',(0.,-1.9495711546517E-16,-1.));
#1054=VECTOR('',#1053,9.4);
#1055=LINE('',#1052,#1054);
#1056=EDGE_CURVE('',#1044,#141,#1055,.T.);
#1057=ORIENTED_EDGE('',*,*,#1056,.T.);
#1058=ORIENTED_EDGE('',*,*,#147,.F.);
#1059=ORIENTED_EDGE('',*,*,#1056,.F.);
#1060=CARTESIAN_POINT('',(14.995834497548,-0.49996518051933,15.4));
#1061=VERTEX_POINT('',#1060);
#1062=CARTESIAN_POINT('',(-9.0718543788171E-12,1.8252066524838E-13,15.4));
#1063=DIRECTION('',(1.,-1.2271957029294E-14,3.1965543784474E-14));
#1064=DIRECTION('',(3.2055479493489E-14,-5.3422076559658E-16,-1.));
#1065=AXIS2_PLACEMENT_3D('',#1062,#1064,#1063);
#1066=CIRCLE('',#1065,15.004166669957);
#1067=EDGE_CURVE('',#1044,#1061,#1066,.T.);
#1068=ORIENTED_EDGE('',*,*,#1067,.T.);
#1069=CARTESIAN_POINT('',(14.995834497548,-0.49996518051933,15.4));
#1070=DIRECTION('',(-2.1305192651773E-07,-3.1944477678757E-06,0.99999999999488));
#1071=VECTOR('',#1070,10.900000000056);
#1072=LINE('',#1069,#1071);
#1073=EDGE_CURVE('',#1061,#691,#1072,.T.);
#1074=ORIENTED_EDGE('',*,*,#1073,.T.);
#1075=ORIENTED_EDGE('',*,*,#697,.F.);
#1076=CARTESIAN_POINT('',(14.995832175282,0.5,26.3));
#1077=DIRECTION('',(1.4898568804739E-07,-1.2731525174318E-06,-0.99999999999918));
#1078=VECTOR('',#1077,10.900000000009);
#1079=LINE('',#1076,#1078);
#1080=EDGE_CURVE('',#689,#1042,#1079,.T.);
#1081=ORIENTED_EDGE('',*,*,#1080,.T.);
#1082=EDGE_LOOP('',(#1051,#1057,#1058,#1059,#1068,#1074,#1075,#1081));
#1083=FACE_OUTER_BOUND('',#1082,.T.);
#1084=ORIENTED_EDGE('',*,*,#631,.F.);
#1085=EDGE_LOOP('',(#1084));
#1086=FACE_BOUND('',#1085,.T.);
#1087=ORIENTED_EDGE('',*,*,#534,.F.);
#1088=EDGE_LOOP('',(#1087));
#1089=FACE_BOUND('',#1088,.T.);
#1090=ADVANCED_FACE('',(#1083,#1086,#1089),#1040,.T.);
#1091=CARTESIAN_POINT('',(14.995833336415,0.,20.85));
#1092=DIRECTION('',(2.1305192644941E-07,0.,-0.99999999999998));
#1093=DIRECTION('',(0.99999999999998,-0.,2.1305192644941E-07));
#1094=AXIS2_PLACEMENT_3D('',#1091,#1093,#1092);
#1095=PLANE('',#1094);
#1096=ORIENTED_EDGE('',*,*,#1073,.F.);
#1097=ORIENTED_EDGE('',*,*,#1067,.F.);
#1098=ORIENTED_EDGE('',*,*,#1050,.F.);
#1099=ORIENTED_EDGE('',*,*,#1080,.F.);
#1100=CARTESIAN_POINT('',(14.995832175282,0.5,26.3));
#1101=DIRECTION('',(0.,-1.,0.));
#1102=VECTOR('',#1101,1.);
#1103=LINE('',#1100,#1102);
#1104=EDGE_CURVE('',#689,#691,#1103,.T.);
#1105=ORIENTED_EDGE('',*,*,#1104,.T.);
#1106=EDGE_LOOP('',(#1096,#1097,#1098,#1099,#1105));
#1107=FACE_OUTER_BOUND('',#1106,.T.);
#1108=ADVANCED_FACE('',(#1107),#1095,.T.);
#1109=CARTESIAN_POINT('',(14.942809143554,2.2204460492503E-16,26.350653133765));
#1110=DIRECTION('',(0.72002206596466,0.,-0.69395116868839));
#1111=DIRECTION('',(0.69395116868839,-0.,0.72002206596466));
#1112=AXIS2_PLACEMENT_3D('',#1109,#1111,#1110);
#1113=PLANE('',#1112);
#1114=ORIENTED_EDGE('',*,*,#706,.F.);
#1115=ORIENTED_EDGE('',*,*,#1104,.F.);
#1116=ORIENTED_EDGE('',*,*,#716,.F.);
#1117=ORIENTED_EDGE('',*,*,#83,.F.);
#1118=EDGE_LOOP('',(#1114,#1115,#1116,#1117));
#1119=FACE_OUTER_BOUND('',#1118,.T.);
#1120=ADVANCED_FACE('',(#1119),#1113,.T.);
#1121=CARTESIAN_POINT('',(5.0251841278183,0.,26.35));
#1122=DIRECTION('',(0.70884647482886,0.,0.70536279680934));
#1123=DIRECTION('',(-0.70536279680934,0.,0.70884647482886));
#1124=AXIS2_PLACEMENT_3D('',#1121,#1123,#1122);
#1125=PLANE('',#1124);
#1126=ORIENTED_EDGE('',*,*,#1031,.F.);
#1127=ORIENTED_EDGE('',*,*,#119,.F.);
#1128=ORIENTED_EDGE('',*,*,#759,.F.);
#1129=CARTESIAN_POINT('',(4.7867976249449E-09,-1.3865564252313E-10,21.349512513115));
#1130=DIRECTION('',(0.70884647482882,3.951738936081E-11,0.70536279680938));
#1131=DIRECTION('',(0.70536279680938,-2.9004576518332E-15,-0.70884647482882));
#1132=AXIS2_PLACEMENT_3D('',#1129,#1131,#1130);
#1133=ELLIPSE('',#1132,7.0537135652973,4.999999997609);
#1134=TRIMMED_CURVE('',#1133,(PARAMETER_VALUE(6.1830178859978)),(PARAMETER_VALUE(0.10016742123749)),.T.,.PARAMETER.);
#1135=EDGE_CURVE('',#746,#1008,#1134,.T.);
#1136=ORIENTED_EDGE('',*,*,#1135,.T.);
#1137=EDGE_LOOP('',(#1126,#1127,#1128,#1136));
#1138=FACE_OUTER_BOUND('',#1137,.T.);
#1139=ADVANCED_FACE('',(#1138),#1125,.T.);
#1140=CARTESIAN_POINT('',(-5.0251840101367,0.,26.35));
#1141=DIRECTION('',(0.70884564883471,0.,-0.70536362688198));
#1142=DIRECTION('',(0.70536362688198,-0.,0.70884564883471));
#1143=AXIS2_PLACEMENT_3D('',#1140,#1142,#1141);
#1144=PLANE('',#1143);
#1145=ORIENTED_EDGE('',*,*,#1023,.F.);
#1146=CARTESIAN_POINT('',(-3.486470667724E-09,-8.7831519834936E-11,21.349500917432));
#1147=DIRECTION('',(-0.7088456488347,2.5039442741459E-11,0.70536362688199));
#1148=DIRECTION('',(-0.70536362688199,1.8318679906315E-15,-0.7088456488347));
#1149=AXIS2_PLACEMENT_3D('',#1146,#1148,#1147);
#1150=ELLIPSE('',#1149,7.0537217865882,4.9999999982579);
#1151=TRIMMED_CURVE('',#1150,(PARAMETER_VALUE(6.1830178859653)),(PARAMETER_VALUE(0.10016742117891)),.T.,.PARAMETER.);
#1152=EDGE_CURVE('',#1010,#728,#1151,.T.);
#1153=ORIENTED_EDGE('',*,*,#1152,.T.);
#1154=ORIENTED_EDGE('',*,*,#734,.F.);
#1155=ORIENTED_EDGE('',*,*,#104,.F.);
#1156=EDGE_LOOP('',(#1145,#1153,#1154,#1155));
#1157=FACE_OUTER_BOUND('',#1156,.T.);
#1158=ADVANCED_FACE('',(#1157),#1144,.T.);
#1159=CARTESIAN_POINT('',(9.495834497548,0.5,20.9));
#1160=DIRECTION('',(-1.,0.,0.));
#1161=DIRECTION('',(0.,1.,-0.));
#1162=AXIS2_PLACEMENT_3D('',#1159,#1161,#1160);
#1163=PLANE('',#1162);
#1164=ORIENTED_EDGE('',*,*,#567,.F.);
#1165=EDGE_LOOP('',(#1164));
#1166=FACE_OUTER_BOUND('',#1165,.T.);
#1167=ORIENTED_EDGE('',*,*,#549,.F.);
#1168=EDGE_LOOP('',(#1167));
#1169=FACE_BOUND('',#1168,.T.);
#1170=ADVANCED_FACE('',(#1166,#1169),#1163,.T.);
#1171=CARTESIAN_POINT('',(1.9984014443253E-15,0.,26.324489135041));
#1172=DIRECTION('',(0.99498743710662,0.10000000000001,7.105427357601E-16));
#1173=DIRECTION('',(8.3824000438603E-16,-9.1867717652409E-16,-1.));
#1174=AXIS2_PLACEMENT_3D('',#1171,#1173,#1172);
#1175=CYLINDRICAL_SURFACE('',#1174,5.);
#1176=CARTESIAN_POINT('',(4.9749371855331,0.50000000000005,14.4));
#1177=VERTEX_POINT('',#1176);
#1178=CARTESIAN_POINT('',(4.9749371855331,0.50000000000005,14.4));
#1179=DIRECTION('',(0.,0.,-1.));
#1180=VECTOR('',#1179,14.3);
#1181=LINE('',#1178,#1180);
#1182=EDGE_CURVE('',#1177,#779,#1181,.T.);
#1183=ORIENTED_EDGE('',*,*,#1182,.T.);
#1184=ORIENTED_EDGE('',*,*,#785,.F.);
#1185=ORIENTED_EDGE('',*,*,#792,.F.);
#1186=ORIENTED_EDGE('',*,*,#1182,.F.);
#1187=CARTESIAN_POINT('',(3.0616169978684E-16,5.,14.4));
#1188=VERTEX_POINT('',#1187);
#1189=CARTESIAN_POINT('',(-3.5527136788005E-15,-4.4408920985006E-15,14.4));
#1190=DIRECTION('',(0.99498743710662,0.10000000000001,3.5527136788005E-16));
#1191=DIRECTION('',(-8.1086817498546E-17,3.051011146156E-16,1.));
#1192=AXIS2_PLACEMENT_3D('',#1189,#1191,#1190);
#1193=CIRCLE('',#1192,5.);
#1194=EDGE_CURVE('',#1177,#1188,#1193,.T.);
#1195=ORIENTED_EDGE('',*,*,#1194,.T.);
#1196=CARTESIAN_POINT('',(3.0616169978684E-16,5.,14.4));
#1197=DIRECTION('',(-1.4069629784501E-09,-6.3865252955786E-12,1.));
#1198=VECTOR('',#1197,11.899999999924);
#1199=LINE('',#1196,#1198);
#1200=EDGE_CURVE('',#1188,#737,#1199,.T.);
#1201=ORIENTED_EDGE('',*,*,#1200,.T.);
#1202=ORIENTED_EDGE('',*,*,#743,.F.);
#1203=ORIENTED_EDGE('',*,*,#1152,.F.);
#1204=ORIENTED_EDGE('',*,*,#1016,.F.);
#1205=ORIENTED_EDGE('',*,*,#1135,.F.);
#1206=CARTESIAN_POINT('',(4.9749371838985,0.50000001626453,26.3));
#1207=DIRECTION('',(1.3736134545399E-10,-1.3667630239529E-09,-1.));
#1208=VECTOR('',#1207,11.9);
#1209=LINE('',#1206,#1208);
#1210=EDGE_CURVE('',#746,#1177,#1209,.T.);
#1211=ORIENTED_EDGE('',*,*,#1210,.T.);
#1212=EDGE_LOOP('',(#1183,#1184,#1185,#1186,#1195,#1201,#1202,#1203,#1204,#1205,#1211));
#1213=FACE_OUTER_BOUND('',#1212,.T.);
#1214=ADVANCED_FACE('',(#1213),#1175,.F.);
#1215=CARTESIAN_POINT('',(6.2172489379009E-15,7.9936057773011E-15,26.3));
#1216=DIRECTION('',(-2.0845029743655E-09,1.,0.));
#1217=DIRECTION('',(1.321738604461E-15,-4.4782105194964E-16,-1.));
#1218=AXIS2_PLACEMENT_3D('',#1215,#1217,#1216);
#1219=CYLINDRICAL_SURFACE('',#1218,5.);
#1220=ORIENTED_EDGE('',*,*,#752,.F.);
#1221=ORIENTED_EDGE('',*,*,#1200,.F.);
#1222=ORIENTED_EDGE('',*,*,#1194,.F.);
#1223=ORIENTED_EDGE('',*,*,#1210,.F.);
#1224=EDGE_LOOP('',(#1220,#1221,#1222,#1223));
#1225=FACE_OUTER_BOUND('',#1224,.T.);
#1226=ADVANCED_FACE('',(#1225),#1219,.F.);
#1227=CLOSED_SHELL('',(#62,#123,#217,#311,#344,#377,#410,#443,#476,#509,#554,#587,#636,#648,#665,#682,#720,#763,#797,#814,#831,#848,#865,#882,#899,#916,#933,#950,#967,#984,#1001,#1035,#1090,#1108,#1120,#1139,#1158,#1170,#1214,#1226));
#1228=COLOUR_RGB('',0.745098,0.901961,0.960784);
#1229=FILL_AREA_STYLE_COLOUR('',#1228);
#1230=FILL_AREA_STYLE('',(#1229));
#1231=SURFACE_STYLE_FILL_AREA(#1230);
#1232=SURFACE_SIDE_STYLE('',(#1231));
#1233=SURFACE_STYLE_USAGE(.BOTH.,#1232);
#1234=PRESENTATION_STYLE_ASSIGNMENT((#1233));
#1235=OVER_RIDING_STYLED_ITEM('',(#1234),#62,#1227);
#1236=OVER_RIDING_STYLED_ITEM('',(#1234),#123,#1227);
#1237=OVER_RIDING_STYLED_ITEM('',(#1234),#217,#1227);
#1238=OVER_RIDING_STYLED_ITEM('',(#1234),#311,#1227);
#1239=OVER_RIDING_STYLED_ITEM('',(#1234),#344,#1227);
#1240=OVER_RIDING_STYLED_ITEM('',(#1234),#377,#1227);
#1241=OVER_RIDING_STYLED_ITEM('',(#1234),#410,#1227);
#1242=OVER_RIDING_STYLED_ITEM('',(#1234),#443,#1227);
#1243=OVER_RIDING_STYLED_ITEM('',(#1234),#476,#1227);
#1244=OVER_RIDING_STYLED_ITEM('',(#1234),#509,#1227);
#1245=COLOUR_RGB('',0.54902,0.54902,0.921569);
#1246=FILL_AREA_STYLE_COLOUR('',#1245);
#1247=FILL_AREA_STYLE('',(#1246));
#1248=SURFACE_STYLE_FILL_AREA(#1247);
#1249=SURFACE_SIDE_STYLE('',(#1248));
#1250=SURFACE_STYLE_USAGE(.BOTH.,#1249);
#1251=PRESENTATION_STYLE_ASSIGNMENT((#1250));
#1252=OVER_RIDING_STYLED_ITEM('',(#1251),#554,#1227);
#1253=OVER_RIDING_STYLED_ITEM('',(#1234),#587,#1227);
#1254=OVER_RIDING_STYLED_ITEM('',(#1234),#636,#1227);
#1255=OVER_RIDING_STYLED_ITEM('',(#1234),#648,#1227);
#1256=OVER_RIDING_STYLED_ITEM('',(#1234),#665,#1227);
#1257=OVER_RIDING_STYLED_ITEM('',(#1234),#682,#1227);
#1258=OVER_RIDING_STYLED_ITEM('',(#1234),#720,#1227);
#1259=OVER_RIDING_STYLED_ITEM('',(#1234),#763,#1227);
#1260=OVER_RIDING_STYLED_ITEM('',(#1234),#797,#1227);
#1261=OVER_RIDING_STYLED_ITEM('',(#1234),#814,#1227);
#1262=OVER_RIDING_STYLED_ITEM('',(#1234),#831,#1227);
#1263=OVER_RIDING_STYLED_ITEM('',(#1234),#848,#1227);
#1264=OVER_RIDING_STYLED_ITEM('',(#1234),#865,#1227);
#1265=OVER_RIDING_STYLED_ITEM('',(#1234),#882,#1227);
#1266=OVER_RIDING_STYLED_ITEM('',(#1234),#899,#1227);
#1267=OVER_RIDING_STYLED_ITEM('',(#1234),#916,#1227);
#1268=OVER_RIDING_STYLED_ITEM('',(#1234),#933,#1227);
#1269=OVER_RIDING_STYLED_ITEM('',(#1234),#950,#1227);
#1270=OVER_RIDING_STYLED_ITEM('',(#1234),#967,#1227);
#1271=OVER_RIDING_STYLED_ITEM('',(#1234),#984,#1227);
#1272=OVER_RIDING_STYLED_ITEM('',(#1234),#1001,#1227);
#1273=OVER_RIDING_STYLED_ITEM('',(#1234),#1035,#1227);
#1274=OVER_RIDING_STYLED_ITEM('',(#1234),#1090,#1227);
#1275=OVER_RIDING_STYLED_ITEM('',(#1234),#1108,#1227);
#1276=OVER_RIDING_STYLED_ITEM('',(#1234),#1120,#1227);
#1277=OVER_RIDING_STYLED_ITEM('',(#1234),#1139,#1227);
#1278=OVER_RIDING_STYLED_ITEM('',(#1234),#1158,#1227);
#1279=OVER_RIDING_STYLED_ITEM('',(#1234),#1170,#1227);
#1280=OVER_RIDING_STYLED_ITEM('',(#1234),#1214,#1227);
#1281=OVER_RIDING_STYLED_ITEM('',(#1234),#1226,#1227);
#1282=MANIFOLD_SOLID_BREP('S1',#1227);
#1283=ADVANCED_BREP_SHAPE_REPRESENTATION('',(#1282),#5);
#1284=SHAPE_REPRESENTATION_RELATIONSHIP('NONE', 'NONE', #28, #1283);
#1285=PRESENTATION_LAYER_ASSIGNMENT('图层000','',(#1282));
#1286=MECHANICAL_DESIGN_GEOMETRIC_PRESENTATION_REPRESENTATION('',(#1235,#1236,#1237,#1238,#1239,#1240,#1241,#1242,#1243,#1244,#1252,#1253,#1254,#1255,#1256,#1257,#1258,#1259,#1260,#1261,#1262,#1263,#1264,#1265,#1266,#1267,#1268,#1269,#1270,#1271,#1272,#1273,#1274,#1275,#1276,#1277,#1278,#1279,#1280,#1281),#5);
ENDSEC;
END-ISO-10303-21;
