ISO-10303-21;
HEADER;
FILE_DESCRIPTION (( 'STEP AP214' ),
    '1' );
FILE_NAME ('k230支架上.STEP',
    '2026-07-31T04:38:50',
    ( '' ),
    ( '' ),
    'SwSTEP 2.0',
    'SolidWorks 2024',
    '' );
FILE_SCHEMA (( 'AUTOMOTIVE_DESIGN' ));
ENDSEC;

DATA;
#1 = CARTESIAN_POINT ( 'NONE',  ( 0.000000000000000000, 0.000000000000000000, -80.00000000000000000 ) ) ;
#2 = AXIS2_PLACEMENT_3D ( 'NONE', #246, #61, #4 ) ;
#3 = CIRCLE ( 'NONE', #198, 15.00000000000000000 ) ;
#4 = DIRECTION ( 'NONE',  ( 0.000000000000000000, 0.000000000000000000, 1.000000000000000000 ) ) ;
#5 = LINE ( 'NONE', #1, #189 ) ;
#6 = EDGE_CURVE ( 'NONE', #92, #231, #140, .T. ) ;
#7 = CLOSED_SHELL ( 'NONE', ( #194, #221, #219, #95, #55, #291, #226, #129, #321, #43, #68, #253 ) ) ;
#8 = AXIS2_PLACEMENT_3D ( 'NONE', #135, #161, #292 ) ;
#9 = AXIS2_PLACEMENT_3D ( 'NONE', #30, #56, #139 ) ;
#10 = ORIENTED_EDGE ( 'NONE', *, *, #187, .T. ) ;
#11 = ORIENTED_EDGE ( 'NONE', *, *, #124, .T. ) ;
#12 = ORIENTED_EDGE ( 'NONE', *, *, #201, .T. ) ;
#13 = DIRECTION ( 'NONE',  ( 0.000000000000000000, 1.000000000000000000, 0.000000000000000000 ) ) ;
#14 = DIRECTION ( 'NONE',  ( 0.000000000000000000, 1.000000000000000000, 0.000000000000000000 ) ) ;
#15 = DIRECTION ( 'NONE',  ( -0.000000000000000000, -1.000000000000000000, -0.000000000000000000 ) ) ;
#16 = EDGE_CURVE ( 'NONE', #204, #228, #333, .T. ) ;
#17 = ORIENTED_EDGE ( 'NONE', *, *, #268, .F. ) ;
#18 = AXIS2_PLACEMENT_3D ( 'NONE', #67, #172, #281 ) ;
#19 = EDGE_LOOP ( 'NONE', ( #10, #203 ) ) ;
#20 = ORIENTED_EDGE ( 'NONE', *, *, #34, .F. ) ;
#21 = ORIENTED_EDGE ( 'NONE', *, *, #215, .F. ) ;
#22 = CARTESIAN_POINT ( 'NONE',  ( 0.000000000000000000, 2.000000000000000000, -80.00000000000000000 ) ) ;
#23 = LINE ( 'NONE', #289, #153 ) ;
#24 = CARTESIAN_POINT ( 'NONE',  ( 0.000000000000000000, 2.000000000000000000, 0.000000000000000000 ) ) ;
#25 = FACE_OUTER_BOUND ( 'NONE', #255, .T. ) ;
#26 = CARTESIAN_POINT ( 'NONE',  ( 0.000000000000000000, 0.000000000000000000, 0.000000000000000000 ) ) ;
#27 = CARTESIAN_POINT ( 'NONE',  ( 75.00000000000000000, 0.000000000000000000, 0.000000000000000000 ) ) ;
#28 = DIRECTION ( 'NONE',  ( 0.000000000000000000, 0.000000000000000000, 1.000000000000000000 ) ) ;
#29 = EDGE_CURVE ( 'NONE', #305, #338, #227, .T. ) ;
#30 = CARTESIAN_POINT ( 'NONE',  ( 0.000000000000000000, 2.000000000000000000, 0.000000000000000000 ) ) ;
#31 = CARTESIAN_POINT ( 'NONE',  ( 37.50000000000000000, 2.000000000000000000, -18.00000000000000000 ) ) ;
#32 = STYLED_ITEM ( 'NONE', ( #45 ), #193 ) ;
#33 = VECTOR ( 'NONE', #326, 1000.000000000000000 ) ;
#34 = EDGE_CURVE ( 'NONE', #312, #262, #230, .T. ) ;
#35 = PRODUCT_DEFINITION_SHAPE ( 'NONE', 'NONE',  #287 ) ;
#36 = VECTOR ( 'NONE', #97, 1000.000000000000000 ) ;
#37 = CIRCLE ( 'NONE', #64, 10.14999999999999858 ) ;
#38 = LINE ( 'NONE', #167, #137 ) ;
#39 = AXIS2_PLACEMENT_3D ( 'NONE', #182, #345, #59 ) ;
#40 = VECTOR ( 'NONE', #105, 1000.000000000000000 ) ;
#41 = ORIENTED_EDGE ( 'NONE', *, *, #16, .T. ) ;
#42 = ORIENTED_EDGE ( 'NONE', *, *, #201, .F. ) ;
#43 = ADVANCED_FACE ( 'NONE', ( #266 ), #242, .T. ) ;
#44 = ORIENTED_EDGE ( 'NONE', *, *, #311, .F. ) ;
#45 = PRESENTATION_STYLE_ASSIGNMENT (( #314 ) ) ;
#46 = CARTESIAN_POINT ( 'NONE',  ( 37.50000000000000000, 52.00000000000000711, -18.00000000000000000 ) ) ;
#47 = ORIENTED_EDGE ( 'NONE', *, *, #215, .T. ) ;
#48 = ORIENTED_EDGE ( 'NONE', *, *, #29, .F. ) ;
#49 = CARTESIAN_POINT ( 'NONE',  ( 37.50000000000000000, 52.00000000000000711, -18.00000000000000000 ) ) ;
#50 = FILL_AREA_STYLE ('',( #334 ) ) ;
#51 = CARTESIAN_POINT ( 'NONE',  ( 37.50000000000000000, 52.00000000000000711, -7.849999999999999645 ) ) ;
#52 = PLANE ( 'NONE',  #9 ) ;
#53 = CARTESIAN_POINT ( 'NONE',  ( 37.50000000000000000, 2.000000000000001776, -7.849999999999999645 ) ) ;
#54 = VECTOR ( 'NONE', #290, 1000.000000000000000 ) ;
#55 = ADVANCED_FACE ( 'NONE', ( #158 ), #296, .T. ) ;
#56 = DIRECTION ( 'NONE',  ( -0.000000000000000000, 1.000000000000000000, 0.000000000000000000 ) ) ;
#57 = CARTESIAN_POINT ( 'NONE',  ( 37.50000000000000000, 52.00000000000000711, -18.00000000000000000 ) ) ;
#58 = VECTOR ( 'NONE', #298, 1000.000000000000000 ) ;
#59 = DIRECTION ( 'NONE',  ( 0.000000000000000000, 0.000000000000000000, 1.000000000000000000 ) ) ;
#60 = CARTESIAN_POINT ( 'NONE',  ( 37.50000000000000000, 52.00000000000000711, -2.999999999999999112 ) ) ;
#61 = DIRECTION ( 'NONE',  ( 0.000000000000000000, 1.000000000000000000, 0.000000000000000000 ) ) ;
#62 = SHAPE_DEFINITION_REPRESENTATION ( #35, #195 ) ;
#63 = EDGE_CURVE ( 'NONE', #204, #92, #132, .T. ) ;
#64 = AXIS2_PLACEMENT_3D ( 'NONE', #236, #331, #210 ) ;
#65 = ORIENTED_EDGE ( 'NONE', *, *, #91, .F. ) ;
#66 = CARTESIAN_POINT ( 'NONE',  ( 0.000000000000000000, 0.000000000000000000, 0.000000000000000000 ) ) ;
#67 = CARTESIAN_POINT ( 'NONE',  ( 37.50000000000000000, 2.000000000000001776, -18.00000000000000000 ) ) ;
#68 = ADVANCED_FACE ( 'NONE', ( #342 ), #82, .F. ) ;
#69 = ORIENTED_EDGE ( 'NONE', *, *, #117, .F. ) ;
#70 = CYLINDRICAL_SURFACE ( 'NONE', #234, 10.14999999999999858 ) ;
#71 = EDGE_LOOP ( 'NONE', ( #123, #41, #202, #147 ) ) ;
#72 = ORIENTED_EDGE ( 'NONE', *, *, #187, .F. ) ;
#73 = VERTEX_POINT ( 'NONE', #22 ) ;
#74 = DIRECTION ( 'NONE',  ( 0.000000000000000000, 0.000000000000000000, 1.000000000000000000 ) ) ;
#75 = CARTESIAN_POINT ( 'NONE',  ( 0.000000000000000000, 2.000000000000000000, -80.00000000000000000 ) ) ;
#76 =( NAMED_UNIT ( * ) PLANE_ANGLE_UNIT ( ) SI_UNIT ( $, .RADIAN. ) );
#77 = PRESENTATION_LAYER_ASSIGNMENT (  '', '', ( #32 ) ) ;
#78 = CARTESIAN_POINT ( 'NONE',  ( 0.000000000000000000, 0.000000000000000000, 0.000000000000000000 ) ) ;
#79 = DIRECTION ( 'NONE',  ( -0.000000000000000000, -1.000000000000000000, -0.000000000000000000 ) ) ;
#80 = EDGE_CURVE ( 'NONE', #312, #151, #267, .T. ) ;
#81 = CARTESIAN_POINT ( 'NONE',  ( 75.00000000000000000, 2.000000000000000000, 0.000000000000000000 ) ) ;
#82 = CYLINDRICAL_SURFACE ( 'NONE', #85, 10.14999999999999858 ) ;
#83 = VECTOR ( 'NONE', #269, 1000.000000000000000 ) ;
#84 = PLANE ( 'NONE',  #39 ) ;
#85 = AXIS2_PLACEMENT_3D ( 'NONE', #57, #154, #160 ) ;
#86 = FACE_BOUND ( 'NONE', #101, .T. ) ;
#87 = CARTESIAN_POINT ( 'NONE',  ( 75.00000000000000000, 2.000000000000000000, 0.000000000000000000 ) ) ;
#88 = PRODUCT ( 'k230\X2\652f67b64e0a\X0\', 'k230\X2\652f67b64e0a\X0\', '', ( #197 ) ) ;
#89 =( NAMED_UNIT ( * ) PLANE_ANGLE_UNIT ( ) SI_UNIT ( $, .RADIAN. ) );
#90 = UNCERTAINTY_MEASURE_WITH_UNIT (LENGTH_MEASURE( 1.000000000000000082E-05 ), #149, 'distance_accuracy_value', 'NONE');
#91 = EDGE_CURVE ( 'NONE', #231, #92, #155, .T. ) ;
#92 = VERTEX_POINT ( 'NONE', #53 ) ;
#93 = EDGE_LOOP ( 'NONE', ( #11, #150, #48, #47 ) ) ;
#94 = PRODUCT_DEFINITION_FORMATION_WITH_SPECIFIED_SOURCE ( '浠', '', #88, .NOT_KNOWN. ) ;
#95 = ADVANCED_FACE ( 'NONE', ( #127 ), #239, .F. ) ;
#96 = ORIENTED_EDGE ( 'NONE', *, *, #117, .T. ) ;
#97 = DIRECTION ( 'NONE',  ( 0.000000000000000000, 0.000000000000000000, -1.000000000000000000 ) ) ;
#98 = EDGE_LOOP ( 'NONE', ( #96, #115, #44, #335 ) ) ;
#99 = APPLICATION_CONTEXT ( 'automotive_design' ) ;
#100 = VERTEX_POINT ( 'NONE', #106 ) ;
#101 = EDGE_LOOP ( 'NONE', ( #232, #174 ) ) ;
#102 = PRODUCT_RELATED_PRODUCT_CATEGORY ( 'part', '', ( #88 ) ) ;
#103 = CARTESIAN_POINT ( 'NONE',  ( 75.00000000000000000, 0.000000000000000000, -80.00000000000000000 ) ) ;
#104 = EDGE_LOOP ( 'NONE', ( #263, #206, #148, #303 ) ) ;
#105 = DIRECTION ( 'NONE',  ( -0.000000000000000000, -1.000000000000000000, -0.000000000000000000 ) ) ;
#106 = CARTESIAN_POINT ( 'NONE',  ( 0.000000000000000000, 0.000000000000000000, 0.000000000000000000 ) ) ;
#107 = CIRCLE ( 'NONE', #260, 15.00000000000000000 ) ;
#108 = EDGE_CURVE ( 'NONE', #100, #224, #315, .T. ) ;
#109 = DIRECTION ( 'NONE',  ( -0.000000000000000000, -1.000000000000000000, -0.000000000000000000 ) ) ;
#110 = DIRECTION ( 'NONE',  ( 0.000000000000000000, 0.000000000000000000, 1.000000000000000000 ) ) ;
#111 =( GEOMETRIC_REPRESENTATION_CONTEXT ( 3 ) GLOBAL_UNCERTAINTY_ASSIGNED_CONTEXT ( ( #90 ) ) GLOBAL_UNIT_ASSIGNED_CONTEXT ( ( #149, #76, #128 ) ) REPRESENTATION_CONTEXT ( 'NONE', 'WORKASPACE' ) );
#112 = LINE ( 'NONE', #320, #247 ) ;
#113 = LINE ( 'NONE', #243, #58 ) ;
#114 = FACE_OUTER_BOUND ( 'NONE', #282, .T. ) ;
#115 = ORIENTED_EDGE ( 'NONE', *, *, #29, .T. ) ;
#116 = FACE_OUTER_BOUND ( 'NONE', #98, .T. ) ;
#117 = EDGE_CURVE ( 'NONE', #177, #305, #157, .T. ) ;
#118 = APPLICATION_CONTEXT ( 'automotive_design' ) ;
#119 = DIRECTION ( 'NONE',  ( 0.000000000000000000, 0.000000000000000000, 1.000000000000000000 ) ) ;
#120 = ORIENTED_EDGE ( 'NONE', *, *, #6, .T. ) ;
#121 = DIRECTION ( 'NONE',  ( 0.000000000000000000, 0.000000000000000000, 1.000000000000000000 ) ) ;
#122 = ORIENTED_EDGE ( 'NONE', *, *, #141, .T. ) ;
#123 = ORIENTED_EDGE ( 'NONE', *, *, #63, .F. ) ;
#124 = EDGE_CURVE ( 'NONE', #264, #144, #130, .T. ) ;
#125 = SURFACE_STYLE_FILL_AREA ( #50 ) ;
#126 = ORIENTED_EDGE ( 'NONE', *, *, #279, .T. ) ;
#127 = FACE_OUTER_BOUND ( 'NONE', #93, .T. ) ;
#128 =( NAMED_UNIT ( * ) SI_UNIT ( $, .STERADIAN. ) SOLID_ANGLE_UNIT ( ) );
#129 = ADVANCED_FACE ( 'NONE', ( #183 ), #293, .F. ) ;
#130 = LINE ( 'NONE', #212, #336 ) ;
#131 = CYLINDRICAL_SURFACE ( 'NONE', #173, 15.00000000000000355 ) ;
#132 = LINE ( 'NONE', #51, #138 ) ;
#133 = DIRECTION ( 'NONE',  ( 0.000000000000000000, 0.000000000000000000, -1.000000000000000000 ) ) ;
#134 = CARTESIAN_POINT ( 'NONE',  ( 37.50000000000000000, 52.00000000000000711, -18.00000000000000000 ) ) ;
#135 = CARTESIAN_POINT ( 'NONE',  ( 0.000000000000000000, 2.000000000000000000, 0.000000000000000000 ) ) ;
#136 = PRODUCT_DEFINITION_CONTEXT ( 'detailed design', #118, 'design' ) ;
#137 = VECTOR ( 'NONE', #143, 1000.000000000000000 ) ;
#138 = VECTOR ( 'NONE', #79, 1000.000000000000000 ) ;
#139 = DIRECTION ( 'NONE',  ( 0.000000000000000000, -0.000000000000000000, 1.000000000000000000 ) ) ;
#140 = CIRCLE ( 'NONE', #18, 10.14999999999999858 ) ;
#141 = EDGE_CURVE ( 'NONE', #228, #204, #37, .T. ) ;
#142 = ORIENTED_EDGE ( 'NONE', *, *, #347, .F. ) ;
#143 = DIRECTION ( 'NONE',  ( -0.000000000000000000, -1.000000000000000000, -0.000000000000000000 ) ) ;
#144 = VERTEX_POINT ( 'NONE', #103 ) ;
#145 = CARTESIAN_POINT ( 'NONE',  ( 37.50000000000000000, 52.00000000000000711, -18.00000000000000000 ) ) ;
#146 = CARTESIAN_POINT ( 'NONE',  ( 37.50000000000000000, 2.000000000000000000, -2.999999999999999112 ) ) ;
#147 = ORIENTED_EDGE ( 'NONE', *, *, #91, .T. ) ;
#148 = ORIENTED_EDGE ( 'NONE', *, *, #268, .T. ) ;
#149 =( LENGTH_UNIT ( ) NAMED_UNIT ( * ) SI_UNIT ( .MILLI., .METRE. ) );
#150 = ORIENTED_EDGE ( 'NONE', *, *, #175, .F. ) ;
#151 = VERTEX_POINT ( 'NONE', #146 ) ;
#152 = ORIENTED_EDGE ( 'NONE', *, *, #80, .F. ) ;
#153 = VECTOR ( 'NONE', #15, 1000.000000000000000 ) ;
#154 = DIRECTION ( 'NONE',  ( -0.000000000000000000, -1.000000000000000000, -0.000000000000000000 ) ) ;
#155 = CIRCLE ( 'NONE', #248, 10.14999999999999858 ) ;
#156 = CARTESIAN_POINT ( 'NONE',  ( 0.000000000000000000, 2.000000000000000000, 0.000000000000000000 ) ) ;
#157 = LINE ( 'NONE', #24, #294 ) ;
#158 = FACE_OUTER_BOUND ( 'NONE', #259, .T. ) ;
#159 = LINE ( 'NONE', #81, #83 ) ;
#160 = DIRECTION ( 'NONE',  ( 0.000000000000000000, 0.000000000000000000, -1.000000000000000000 ) ) ;
#161 = DIRECTION ( 'NONE',  ( 0.000000000000000000, 0.000000000000000000, -1.000000000000000000 ) ) ;
#162 = EDGE_CURVE ( 'NONE', #177, #73, #265, .T. ) ;
#163 = CARTESIAN_POINT ( 'NONE',  ( 37.50000000000000000, 52.00000000000000711, -28.14999999999999858 ) ) ;
#164 = FACE_BOUND ( 'NONE', #309, .T. ) ;
#165 = AXIS2_PLACEMENT_3D ( 'NONE', #258, #13, #301 ) ;
#166 = CARTESIAN_POINT ( 'NONE',  ( 75.00000000000000000, 2.000000000000000000, -80.00000000000000000 ) ) ;
#167 = CARTESIAN_POINT ( 'NONE',  ( 0.000000000000000000, 2.000000000000000000, -80.00000000000000000 ) ) ;
#168 = CARTESIAN_POINT ( 'NONE',  ( 0.000000000000000000, 0.000000000000000000, 0.000000000000000000 ) ) ;
#169 = LINE ( 'NONE', #329, #33 ) ;
#170 = VERTEX_POINT ( 'NONE', #261 ) ;
#171 =( LENGTH_UNIT ( ) NAMED_UNIT ( * ) SI_UNIT ( .MILLI., .METRE. ) );
#172 = DIRECTION ( 'NONE',  ( 0.000000000000000000, -1.000000000000000000, -0.000000000000000000 ) ) ;
#173 = AXIS2_PLACEMENT_3D ( 'NONE', #343, #109, #133 ) ;
#174 = ORIENTED_EDGE ( 'NONE', *, *, #316, .F. ) ;
#175 = EDGE_CURVE ( 'NONE', #338, #144, #23, .T. ) ;
#176 = DIRECTION ( 'NONE',  ( -0.000000000000000000, -1.000000000000000000, -0.000000000000000000 ) ) ;
#177 = VERTEX_POINT ( 'NONE', #238 ) ;
#178 = CARTESIAN_POINT ( 'NONE',  ( 37.50000000000000000, 52.00000000000000711, -18.00000000000000000 ) ) ;
#179 = DIRECTION ( 'NONE',  ( 0.000000000000000000, 0.000000000000000000, -1.000000000000000000 ) ) ;
#180 = COLOUR_RGB ( '',0.7921568627450980005, 0.8196078431372548767, 0.9333333333333333481 ) ;
#181 = CARTESIAN_POINT ( 'NONE',  ( 37.50000000000000000, 52.00000000000000711, -2.999999999999999112 ) ) ;
#182 = CARTESIAN_POINT ( 'NONE',  ( 0.000000000000000000, 2.000000000000000000, 0.000000000000000000 ) ) ;
#183 = FACE_OUTER_BOUND ( 'NONE', #104, .T. ) ;
#184 = AXIS2_PLACEMENT_3D ( 'NONE', #145, #14, #121 ) ;
#185 = DIRECTION ( 'NONE',  ( 0.000000000000000000, 0.000000000000000000, -1.000000000000000000 ) ) ;
#186 = AXIS2_PLACEMENT_3D ( 'NONE', #26, #214, #319 ) ;
#187 = EDGE_CURVE ( 'NONE', #262, #312, #3, .T. ) ;
#188 = PLANE ( 'NONE',  #8 ) ;
#189 = VECTOR ( 'NONE', #217, 1000.000000000000000 ) ;
#190 = DIRECTION ( 'NONE',  ( 0.000000000000000000, -0.000000000000000000, 1.000000000000000000 ) ) ;
#191 = CARTESIAN_POINT ( 'NONE',  ( 37.50000000000000000, 52.00000000000000711, -7.849999999999999645 ) ) ;
#192 = ORIENTED_EDGE ( 'NONE', *, *, #316, .T. ) ;
#193 = MANIFOLD_SOLID_BREP ( '凸台-拉伸2', #7 ) ;
#194 = ADVANCED_FACE ( 'NONE', ( #208 ), #70, .F. ) ;
#195 = ADVANCED_BREP_SHAPE_REPRESENTATION ( 'k230\X2\652f67b64e0a\X0\', ( #193, #225 ), #327 ) ;
#196 =( NAMED_UNIT ( * ) SI_UNIT ( $, .STERADIAN. ) SOLID_ANGLE_UNIT ( ) );
#197 = PRODUCT_CONTEXT ( 'NONE', #99, 'mechanical' ) ;
#198 = AXIS2_PLACEMENT_3D ( 'NONE', #46, #229, #74 ) ;
#199 = AXIS2_PLACEMENT_3D ( 'NONE', #75, #185, #346 ) ;
#200 = ORIENTED_EDGE ( 'NONE', *, *, #325, .F. ) ;
#201 = EDGE_CURVE ( 'NONE', #177, #100, #318, .T. ) ;
#202 = ORIENTED_EDGE ( 'NONE', *, *, #347, .T. ) ;
#203 = ORIENTED_EDGE ( 'NONE', *, *, #34, .T. ) ;
#204 = VERTEX_POINT ( 'NONE', #191 ) ;
#205 = DIRECTION ( 'NONE',  ( 0.000000000000000000, 0.000000000000000000, -1.000000000000000000 ) ) ;
#206 = ORIENTED_EDGE ( 'NONE', *, *, #108, .T. ) ;
#207 = ORIENTED_EDGE ( 'NONE', *, *, #275, .T. ) ;
#208 = FACE_OUTER_BOUND ( 'NONE', #307, .T. ) ;
#209 = ORIENTED_EDGE ( 'NONE', *, *, #141, .F. ) ;
#210 = DIRECTION ( 'NONE',  ( 0.000000000000000000, 0.000000000000000000, 1.000000000000000000 ) ) ;
#211 = DIRECTION ( 'NONE',  ( -1.000000000000000000, 0.000000000000000000, 0.000000000000000000 ) ) ;
#212 = CARTESIAN_POINT ( 'NONE',  ( 75.00000000000000000, 0.000000000000000000, 0.000000000000000000 ) ) ;
#213 = CARTESIAN_POINT ( 'NONE',  ( 0.000000000000000000, 0.000000000000000000, -80.00000000000000000 ) ) ;
#214 = DIRECTION ( 'NONE',  ( -0.000000000000000000, 1.000000000000000000, 0.000000000000000000 ) ) ;
#215 = EDGE_CURVE ( 'NONE', #305, #264, #159, .T. ) ;
#216 = DIRECTION ( 'NONE',  ( 0.000000000000000000, 0.000000000000000000, 1.000000000000000000 ) ) ;
#217 = DIRECTION ( 'NONE',  ( 1.000000000000000000, 0.000000000000000000, 0.000000000000000000 ) ) ;
#218 = FACE_OUTER_BOUND ( 'NONE', #19, .T. ) ;
#219 = ADVANCED_FACE ( 'NONE', ( #25 ), #188, .F. ) ;
#220 = CARTESIAN_POINT ( 'NONE',  ( 0.000000000000000000, 2.000000000000000000, 0.000000000000000000 ) ) ;
#221 = ADVANCED_FACE ( 'NONE', ( #322 ), #131, .T. ) ;
#222 = LINE ( 'NONE', #66, #235 ) ;
#223 = MECHANICAL_DESIGN_GEOMETRIC_PRESENTATION_REPRESENTATION (  '', ( #32 ), #111 ) ;
#224 = VERTEX_POINT ( 'NONE', #213 ) ;
#225 = AXIS2_PLACEMENT_3D ( 'NONE', #168, #119, #328 ) ;
#226 = ADVANCED_FACE ( 'NONE', ( #86, #116 ), #295, .T. ) ;
#227 = LINE ( 'NONE', #332, #36 ) ;
#228 = VERTEX_POINT ( 'NONE', #163 ) ;
#229 = DIRECTION ( 'NONE',  ( 0.000000000000000000, 1.000000000000000000, 0.000000000000000000 ) ) ;
#230 = CIRCLE ( 'NONE', #277, 15.00000000000000000 ) ;
#231 = VERTEX_POINT ( 'NONE', #245 ) ;
#232 = ORIENTED_EDGE ( 'NONE', *, *, #275, .F. ) ;
#233 = ORIENTED_EDGE ( 'NONE', *, *, #325, .T. ) ;
#234 = AXIS2_PLACEMENT_3D ( 'NONE', #178, #176, #205 ) ;
#235 = VECTOR ( 'NONE', #280, 1000.000000000000000 ) ;
#236 = CARTESIAN_POINT ( 'NONE',  ( 37.50000000000000000, 52.00000000000000711, -18.00000000000000000 ) ) ;
#237 = ORIENTED_EDGE ( 'NONE', *, *, #340, .T. ) ;
#238 = CARTESIAN_POINT ( 'NONE',  ( 0.000000000000000000, 2.000000000000000000, 0.000000000000000000 ) ) ;
#239 = PLANE ( 'NONE',  #313 ) ;
#240 = DIRECTION ( 'NONE',  ( 0.000000000000000000, 0.000000000000000000, -1.000000000000000000 ) ) ;
#241 = DIRECTION ( 'NONE',  ( -0.000000000000000000, -1.000000000000000000, -0.000000000000000000 ) ) ;
#242 = CYLINDRICAL_SURFACE ( 'NONE', #330, 15.00000000000000355 ) ;
#243 = CARTESIAN_POINT ( 'NONE',  ( 37.50000000000000000, 52.00000000000000711, -33.00000000000000000 ) ) ;
#244 = DIRECTION ( 'NONE',  ( -0.000000000000000000, -1.000000000000000000, -0.000000000000000000 ) ) ;
#245 = CARTESIAN_POINT ( 'NONE',  ( 37.50000000000000000, 2.000000000000001776, -28.14999999999999858 ) ) ;
#246 = CARTESIAN_POINT ( 'NONE',  ( 37.50000000000000000, 2.000000000000000000, -18.00000000000000000 ) ) ;
#247 = VECTOR ( 'NONE', #299, 1000.000000000000000 ) ;
#248 = AXIS2_PLACEMENT_3D ( 'NONE', #344, #272, #288 ) ;
#249 = DIRECTION ( 'NONE',  ( -0.000000000000000000, 1.000000000000000000, 0.000000000000000000 ) ) ;
#250 = APPLICATION_PROTOCOL_DEFINITION ( 'draft international standard', 'automotive_design', 1998, #99 ) ;
#251 = ORIENTED_EDGE ( 'NONE', *, *, #16, .F. ) ;
#252 = UNCERTAINTY_MEASURE_WITH_UNIT (LENGTH_MEASURE( 1.000000000000000082E-05 ), #171, 'distance_accuracy_value', 'NONE');
#253 = ADVANCED_FACE ( 'NONE', ( #300 ), #52, .T. ) ;
#254 = ORIENTED_EDGE ( 'NONE', *, *, #63, .T. ) ;
#255 = EDGE_LOOP ( 'NONE', ( #237, #21, #69, #12 ) ) ;
#256 = ORIENTED_EDGE ( 'NONE', *, *, #311, .T. ) ;
#257 = AXIS2_PLACEMENT_3D ( 'NONE', #220, #249, #190 ) ;
#258 = CARTESIAN_POINT ( 'NONE',  ( 37.50000000000000000, 52.00000000000000711, -18.00000000000000000 ) ) ;
#259 = EDGE_LOOP ( 'NONE', ( #17, #200, #256, #284 ) ) ;
#260 = AXIS2_PLACEMENT_3D ( 'NONE', #31, #324, #216 ) ;
#261 = CARTESIAN_POINT ( 'NONE',  ( 37.50000000000000000, 2.000000000000000000, -33.00000000000000000 ) ) ;
#262 = VERTEX_POINT ( 'NONE', #271 ) ;
#263 = ORIENTED_EDGE ( 'NONE', *, *, #340, .F. ) ;
#264 = VERTEX_POINT ( 'NONE', #27 ) ;
#265 = LINE ( 'NONE', #156, #304 ) ;
#266 = FACE_OUTER_BOUND ( 'NONE', #306, .T. ) ;
#267 = LINE ( 'NONE', #181, #40 ) ;
#268 = EDGE_CURVE ( 'NONE', #224, #144, #5, .T. ) ;
#269 = DIRECTION ( 'NONE',  ( -0.000000000000000000, -1.000000000000000000, -0.000000000000000000 ) ) ;
#270 = DIRECTION ( 'NONE',  ( 0.000000000000000000, 1.000000000000000000, 0.000000000000000000 ) ) ;
#271 = CARTESIAN_POINT ( 'NONE',  ( 37.50000000000000000, 52.00000000000000711, -33.00000000000000000 ) ) ;
#272 = DIRECTION ( 'NONE',  ( 0.000000000000000000, -1.000000000000000000, -0.000000000000000000 ) ) ;
#273 = CARTESIAN_POINT ( 'NONE',  ( 0.000000000000000000, 2.000000000000000000, 0.000000000000000000 ) ) ;
#274 = PLANE ( 'NONE',  #165 ) ;
#275 = EDGE_CURVE ( 'NONE', #170, #151, #107, .T. ) ;
#276 = ORIENTED_EDGE ( 'NONE', *, *, #108, .F. ) ;
#277 = AXIS2_PLACEMENT_3D ( 'NONE', #134, #270, #28 ) ;
#278 = ORIENTED_EDGE ( 'NONE', *, *, #80, .T. ) ;
#279 = EDGE_CURVE ( 'NONE', #262, #170, #113, .T. ) ;
#280 = DIRECTION ( 'NONE',  ( 1.000000000000000000, 0.000000000000000000, 0.000000000000000000 ) ) ;
#281 = DIRECTION ( 'NONE',  ( 0.000000000000000000, 0.000000000000000000, 1.000000000000000000 ) ) ;
#282 = EDGE_LOOP ( 'NONE', ( #276, #42, #308, #233 ) ) ;
#283 = CIRCLE ( 'NONE', #2, 15.00000000000000000 ) ;
#284 = ORIENTED_EDGE ( 'NONE', *, *, #175, .T. ) ;
#285 = ORIENTED_EDGE ( 'NONE', *, *, #6, .F. ) ;
#286 = DIRECTION ( 'NONE',  ( 0.000000000000000000, 0.000000000000000000, -1.000000000000000000 ) ) ;
#287 = PRODUCT_DEFINITION ( '鏈', '', #94, #136 ) ;
#288 = DIRECTION ( 'NONE',  ( 0.000000000000000000, 0.000000000000000000, 1.000000000000000000 ) ) ;
#289 = CARTESIAN_POINT ( 'NONE',  ( 75.00000000000000000, 2.000000000000000000, -80.00000000000000000 ) ) ;
#290 = DIRECTION ( 'NONE',  ( 0.000000000000000000, 0.000000000000000000, -1.000000000000000000 ) ) ;
#291 = ADVANCED_FACE ( 'NONE', ( #114 ), #84, .T. ) ;
#292 = DIRECTION ( 'NONE',  ( -1.000000000000000000, 0.000000000000000000, -0.000000000000000000 ) ) ;
#293 = PLANE ( 'NONE',  #186 ) ;
#294 = VECTOR ( 'NONE', #317, 1000.000000000000000 ) ;
#295 = PLANE ( 'NONE',  #257 ) ;
#296 = PLANE ( 'NONE',  #199 ) ;
#297 = VECTOR ( 'NONE', #241, 1000.000000000000000 ) ;
#298 = DIRECTION ( 'NONE',  ( -0.000000000000000000, -1.000000000000000000, -0.000000000000000000 ) ) ;
#299 = DIRECTION ( 'NONE',  ( 1.000000000000000000, 0.000000000000000000, 0.000000000000000000 ) ) ;
#300 = FACE_OUTER_BOUND ( 'NONE', #323, .T. ) ;
#301 = DIRECTION ( 'NONE',  ( 0.000000000000000000, -0.000000000000000000, 1.000000000000000000 ) ) ;
#302 = APPLICATION_PROTOCOL_DEFINITION ( 'draft international standard', 'automotive_design', 1998, #118 ) ;
#303 = ORIENTED_EDGE ( 'NONE', *, *, #124, .F. ) ;
#304 = VECTOR ( 'NONE', #286, 1000.000000000000000 ) ;
#305 = VERTEX_POINT ( 'NONE', #87 ) ;
#306 = EDGE_LOOP ( 'NONE', ( #152, #72, #126, #207 ) ) ;
#307 = EDGE_LOOP ( 'NONE', ( #122, #254, #120, #142 ) ) ;
#308 = ORIENTED_EDGE ( 'NONE', *, *, #162, .T. ) ;
#309 = EDGE_LOOP ( 'NONE', ( #209, #251 ) ) ;
#310 = ORIENTED_EDGE ( 'NONE', *, *, #279, .F. ) ;
#311 = EDGE_CURVE ( 'NONE', #73, #338, #112, .T. ) ;
#312 = VERTEX_POINT ( 'NONE', #60 ) ;
#313 = AXIS2_PLACEMENT_3D ( 'NONE', #341, #211, #110 ) ;
#314 = SURFACE_STYLE_USAGE ( .BOTH. , #339 ) ;
#315 = LINE ( 'NONE', #78, #54 ) ;
#316 = EDGE_CURVE ( 'NONE', #151, #170, #283, .T. ) ;
#317 = DIRECTION ( 'NONE',  ( 1.000000000000000000, 0.000000000000000000, 0.000000000000000000 ) ) ;
#318 = LINE ( 'NONE', #273, #297 ) ;
#319 = DIRECTION ( 'NONE',  ( 0.000000000000000000, -0.000000000000000000, 1.000000000000000000 ) ) ;
#320 = CARTESIAN_POINT ( 'NONE',  ( 0.000000000000000000, 2.000000000000000000, -80.00000000000000000 ) ) ;
#321 = ADVANCED_FACE ( 'NONE', ( #218, #164 ), #274, .T. ) ;
#322 = FACE_OUTER_BOUND ( 'NONE', #337, .T. ) ;
#323 = EDGE_LOOP ( 'NONE', ( #65, #285 ) ) ;
#324 = DIRECTION ( 'NONE',  ( 0.000000000000000000, 1.000000000000000000, 0.000000000000000000 ) ) ;
#325 = EDGE_CURVE ( 'NONE', #73, #224, #38, .T. ) ;
#326 = DIRECTION ( 'NONE',  ( -0.000000000000000000, -1.000000000000000000, -0.000000000000000000 ) ) ;
#327 =( GEOMETRIC_REPRESENTATION_CONTEXT ( 3 ) GLOBAL_UNCERTAINTY_ASSIGNED_CONTEXT ( ( #252 ) ) GLOBAL_UNIT_ASSIGNED_CONTEXT ( ( #171, #89, #196 ) ) REPRESENTATION_CONTEXT ( 'NONE', 'WORKASPACE' ) );
#328 = DIRECTION ( 'NONE',  ( 1.000000000000000000, 0.000000000000000000, 0.000000000000000000 ) ) ;
#329 = CARTESIAN_POINT ( 'NONE',  ( 37.50000000000000000, 52.00000000000000711, -28.14999999999999858 ) ) ;
#330 = AXIS2_PLACEMENT_3D ( 'NONE', #49, #244, #179 ) ;
#331 = DIRECTION ( 'NONE',  ( 0.000000000000000000, 1.000000000000000000, 0.000000000000000000 ) ) ;
#332 = CARTESIAN_POINT ( 'NONE',  ( 75.00000000000000000, 2.000000000000000000, 0.000000000000000000 ) ) ;
#333 = CIRCLE ( 'NONE', #184, 10.14999999999999858 ) ;
#334 = FILL_AREA_STYLE_COLOUR ( '', #180 ) ;
#335 = ORIENTED_EDGE ( 'NONE', *, *, #162, .F. ) ;
#336 = VECTOR ( 'NONE', #240, 1000.000000000000000 ) ;
#337 = EDGE_LOOP ( 'NONE', ( #20, #278, #192, #310 ) ) ;
#338 = VERTEX_POINT ( 'NONE', #166 ) ;
#339 = SURFACE_SIDE_STYLE ('',( #125 ) ) ;
#340 = EDGE_CURVE ( 'NONE', #100, #264, #222, .T. ) ;
#341 = CARTESIAN_POINT ( 'NONE',  ( 75.00000000000000000, 2.000000000000000000, 0.000000000000000000 ) ) ;
#342 = FACE_OUTER_BOUND ( 'NONE', #71, .T. ) ;
#343 = CARTESIAN_POINT ( 'NONE',  ( 37.50000000000000000, 52.00000000000000711, -18.00000000000000000 ) ) ;
#344 = CARTESIAN_POINT ( 'NONE',  ( 37.50000000000000000, 2.000000000000001776, -18.00000000000000000 ) ) ;
#345 = DIRECTION ( 'NONE',  ( -1.000000000000000000, 0.000000000000000000, 0.000000000000000000 ) ) ;
#346 = DIRECTION ( 'NONE',  ( -1.000000000000000000, 0.000000000000000000, -0.000000000000000000 ) ) ;
#347 = EDGE_CURVE ( 'NONE', #228, #231, #169, .T. ) ;
ENDSEC;
END-ISO-10303-21;
