ISO-10303-21;
HEADER;
FILE_DESCRIPTION (( 'STEP AP203' ),
    '1' );
FILE_NAME ('¹âµç.STEP',
    '2026-07-16T10:42:39',
    ( '' ),
    ( '' ),
    'SwSTEP 2.0',
    'SolidWorks 2024',
    '' );
FILE_SCHEMA (( 'CONFIG_CONTROL_DESIGN' ));
ENDSEC;

DATA;
#1 = DIRECTION ( 'NONE',  ( 0.000000000000000000, 0.000000000000000000, 1.000000000000000000 ) ) ;
#2 = CARTESIAN_POINT ( 'NONE',  ( 15.00000000000000000, 1.674999999999997602, -14.99999999999998934 ) ) ;
#3 = ORIENTED_EDGE ( 'NONE', *, *, #296, .T. ) ;
#4 = FACE_OUTER_BOUND ( 'NONE', #289, .T. ) ;
#5 = AXIS2_PLACEMENT_3D ( 'NONE', #173, #548, #401 ) ;
#6 = PERSON_AND_ORGANIZATION ( #342, #379 ) ;
#7 = FACE_OUTER_BOUND ( 'NONE', #65, .T. ) ;
#8 = ORIENTED_EDGE ( 'NONE', *, *, #814, .F. ) ;
#9 = EDGE_LOOP ( 'NONE', ( #828, #855 ) ) ;
#10 = AXIS2_PLACEMENT_3D ( 'NONE', #641, #122, #422 ) ;
#11 = ADVANCED_FACE ( 'NONE', ( #430 ), #706, .F. ) ;
#12 = DIRECTION ( 'NONE',  ( 8.659560562354955045E-17, 0.7071067811865456854, -0.7071067811865493491 ) ) ;
#13 = EDGE_LOOP ( 'NONE', ( #466, #868, #261, #80 ) ) ;
#14 = ORIENTED_EDGE ( 'NONE', *, *, #458, .T. ) ;
#15 = AXIS2_PLACEMENT_3D ( 'NONE', #112, #31, #325 ) ;
#16 = AXIS2_PLACEMENT_3D ( 'NONE', #374, #491, #1 ) ;
#17 = COORDINATED_UNIVERSAL_TIME_OFFSET ( 8, 0, .AHEAD. ) ;
#18 = EDGE_CURVE ( 'NONE', #556, #243, #408, .T. ) ;
#19 = AXIS2_PLACEMENT_3D ( 'NONE', #883, #684, #101 ) ;
#20 = PLANE ( 'NONE',  #766 ) ;
#21 = ORIENTED_EDGE ( 'NONE', *, *, #366, .T. ) ;
#22 = DIRECTION ( 'NONE',  ( -0.000000000000000000, 1.000000000000000000, -0.000000000000000000 ) ) ;
#23 = LINE ( 'NONE', #465, #683 ) ;
#24 = ADVANCED_FACE ( 'NONE', ( #195 ), #537, .F. ) ;
#25 = EDGE_LOOP ( 'NONE', ( #248, #682 ) ) ;
#26 = AXIS2_PLACEMENT_3D ( 'NONE', #420, #51, #348 ) ;
#27 = DIRECTION ( 'NONE',  ( -0.000000000000000000, 1.000000000000000000, -0.000000000000000000 ) ) ;
#28 = DIRECTION ( 'NONE',  ( 8.659560562354862600E-17, 0.7071067811865532349, -0.7071067811865417996 ) ) ;
#29 = ORIENTED_EDGE ( 'NONE', *, *, #916, .T. ) ;
#30 = EDGE_CURVE ( 'NONE', #452, #660, #885, .T. ) ;
#31 = DIRECTION ( 'NONE',  ( -0.000000000000000000, 1.000000000000000000, -0.000000000000000000 ) ) ;
#32 = CARTESIAN_POINT ( 'NONE',  ( 15.00000000000000000, 2.000000000000001776, -16.77499999999998792 ) ) ;
#33 = CARTESIAN_POINT ( 'NONE',  ( 11.19999999999999929, 2.000000000000000000, -5.000000000000000888 ) ) ;
#34 = ORIENTED_EDGE ( 'NONE', *, *, #345, .T. ) ;
#35 = ADVANCED_FACE ( 'NONE', ( #247 ), #820, .F. ) ;
#36 = FACE_OUTER_BOUND ( 'NONE', #294, .T. ) ;
#37 = AXIS2_PLACEMENT_3D ( 'NONE', #907, #339, #270 ) ;
#38 = CARTESIAN_POINT ( 'NONE',  ( 64.99999999999995737, 2.000000000000001776, -16.77499999999992042 ) ) ;
#39 = EDGE_CURVE ( 'NONE', #243, #556, #651, .T. ) ;
#40 = VECTOR ( 'NONE', #509, 1000.000000000000000 ) ;
#41 = DIRECTION ( 'NONE',  ( 0.000000000000000000, 0.000000000000000000, -1.000000000000000000 ) ) ;
#42 = VECTOR ( 'NONE', #182, 1000.000000000000000 ) ;
#43 = FACE_OUTER_BOUND ( 'NONE', #463, .T. ) ;
#44 = DIRECTION ( 'NONE',  ( -0.000000000000000000, 1.000000000000000000, -0.000000000000000000 ) ) ;
#45 = DIRECTION ( 'NONE',  ( 0.000000000000000000, 0.000000000000000000, 1.000000000000000000 ) ) ;
#46 = EDGE_CURVE ( 'NONE', #452, #487, #812, .T. ) ;
#47 =( GEOMETRIC_REPRESENTATION_CONTEXT ( 3 ) GLOBAL_UNCERTAINTY_ASSIGNED_CONTEXT ( ( #268 ) ) GLOBAL_UNIT_ASSIGNED_CONTEXT ( ( #762, #830, #539 ) ) REPRESENTATION_CONTEXT ( 'NONE', 'WORKASPACE' ) );
#48 = CARTESIAN_POINT ( 'NONE',  ( 64.99999999999995737, 2.000000000000000000, -14.99999999999992362 ) ) ;
#49 = VECTOR ( 'NONE', #222, 1000.000000000000114 ) ;
#50 = EDGE_LOOP ( 'NONE', ( #189, #236, #688, #172 ) ) ;
#51 = DIRECTION ( 'NONE',  ( -0.000000000000000000, 1.000000000000000000, -0.000000000000000000 ) ) ;
#52 = ORIENTED_EDGE ( 'NONE', *, *, #458, .F. ) ;
#53 = DIRECTION ( 'NONE',  ( -3.133941051409839399E-16, 0.000000000000000000, 1.000000000000000000 ) ) ;
#54 = LINE ( 'NONE', #214, #521 ) ;
#55 = ORIENTED_EDGE ( 'NONE', *, *, #476, .F. ) ;
#56 = DIRECTION ( 'NONE',  ( 0.000000000000000000, 0.000000000000000000, 1.000000000000000000 ) ) ;
#57 = VECTOR ( 'NONE', #72, 1000.000000000000000 ) ;
#58 = FACE_BOUND ( 'NONE', #9, .T. ) ;
#59 = VECTOR ( 'NONE', #835, 1000.000000000000000 ) ;
#60 = EDGE_CURVE ( 'NONE', #61, #417, #323, .T. ) ;
#61 = VERTEX_POINT ( 'NONE', #888 ) ;
#62 = CARTESIAN_POINT ( 'NONE',  ( 11.19999999999999929, 2.000000000000001776, -6.775000000000001243 ) ) ;
#63 = DIRECTION ( 'NONE',  ( 0.000000000000000000, 0.000000000000000000, -1.000000000000000000 ) ) ;
#64 = LINE ( 'NONE', #386, #879 ) ;
#65 = EDGE_LOOP ( 'NONE', ( #388, #21, #349, #52 ) ) ;
#66 = ORIENTED_EDGE ( 'NONE', *, *, #922, .F. ) ;
#67 = SHAPE_DEFINITION_REPRESENTATION ( #109, #655 ) ;
#68 = DIRECTION ( 'NONE',  ( 0.000000000000000000, 0.000000000000000000, 1.000000000000000000 ) ) ;
#69 = ORIENTED_EDGE ( 'NONE', *, *, #515, .F. ) ;
#70 = ADVANCED_FACE ( 'NONE', ( #414 ), #20, .T. ) ;
#71 = ORIENTED_EDGE ( 'NONE', *, *, #301, .T. ) ;
#72 = DIRECTION ( 'NONE',  ( 0.000000000000000000, 0.7071067811865532349, 0.7071067811865417996 ) ) ;
#73 = APPLICATION_PROTOCOL_DEFINITION ( 'international standard', 'config_control_design', 1994, #822 ) ;
#74 = LINE ( 'NONE', #376, #151 ) ;
#75 = ORIENTED_EDGE ( 'NONE', *, *, #120, .T. ) ;
#76 = ORIENTED_EDGE ( 'NONE', *, *, #402, .F. ) ;
#77 = ADVANCED_FACE ( 'NONE', ( #390 ), #314, .F. ) ;
#78 = VECTOR ( 'NONE', #249, 1000.000000000000000 ) ;
#79 = DIRECTION ( 'NONE',  ( -0.000000000000000000, 1.000000000000000000, -0.000000000000000000 ) ) ;
#80 = ORIENTED_EDGE ( 'NONE', *, *, #120, .F. ) ;
#81 = ORIENTED_EDGE ( 'NONE', *, *, #84, .F. ) ;
#82 = CIRCLE ( 'NONE', #423, 1.775000000000000577 ) ;
#83 = ADVANCED_FACE ( 'NONE', ( #469 ), #609, .F. ) ;
#84 = EDGE_CURVE ( 'NONE', #319, #368, #356, .T. ) ;
#85 = APPROVAL_STATUS ( 'not_yet_approved' ) ;
#86 = CARTESIAN_POINT ( 'NONE',  ( 59.99999999999998579, 0.000000000000000000, -19.99999999999998934 ) ) ;
#87 = DIRECTION ( 'NONE',  ( -2.081668171172169697E-15, 0.000000000000000000, 1.000000000000000000 ) ) ;
#88 = ORIENTED_EDGE ( 'NONE', *, *, #18, .F. ) ;
#89 = CIRCLE ( 'NONE', #129, 1.449999999999998179 ) ;
#90 = EDGE_CURVE ( 'NONE', #391, #200, #23, .T. ) ;
#91 = CARTESIAN_POINT ( 'NONE',  ( 0.000000000000000000, 2.000000000000000000, 0.000000000000000000 ) ) ;
#92 = EDGE_LOOP ( 'NONE', ( #873, #14, #869, #663 ) ) ;
#93 = LINE ( 'NONE', #472, #78 ) ;
#94 = DIRECTION ( 'NONE',  ( 0.000000000000000000, 0.000000000000000000, 1.000000000000000000 ) ) ;
#95 = DIRECTION ( 'NONE',  ( 0.000000000000000000, 0.000000000000000000, 1.000000000000000000 ) ) ;
#96 = ORIENTED_EDGE ( 'NONE', *, *, #853, .F. ) ;
#97 = AXIS2_PLACEMENT_3D ( 'NONE', #412, #716, #354 ) ;
#98 = DIRECTION ( 'NONE',  ( 0.000000000000000000, 0.000000000000000000, 1.000000000000000000 ) ) ;
#99 = DIRECTION ( 'NONE',  ( 0.000000000000000000, -1.000000000000000000, 0.000000000000000000 ) ) ;
#100 = CARTESIAN_POINT ( 'NONE',  ( 19.99999999999997513, -8.000000000000000000, -5.000000000000000888 ) ) ;
#101 = DIRECTION ( 'NONE',  ( 0.000000000000000000, 0.000000000000000000, 1.000000000000000000 ) ) ;
#102 = ORIENTED_EDGE ( 'NONE', *, *, #90, .F. ) ;
#103 = DIRECTION ( 'NONE',  ( 0.000000000000000000, 0.000000000000000000, 1.000000000000000000 ) ) ;
#104 = FACE_BOUND ( 'NONE', #542, .T. ) ;
#105 = VECTOR ( 'NONE', #293, 1000.000000000000000 ) ;
#106 = CIRCLE ( 'NONE', #720, 1.449999999999999956 ) ;
#107 = EDGE_CURVE ( 'NONE', #373, #183, #395, .T. ) ;
#108 = APPROVAL_PERSON_ORGANIZATION ( #602, #371, #607 ) ;
#109 = PRODUCT_DEFINITION_SHAPE ( 'NONE', 'NONE',  #494 ) ;
#110 = DIRECTION ( 'NONE',  ( -0.000000000000000000, 1.000000000000000000, -0.000000000000000000 ) ) ;
#111 = CYLINDRICAL_SURFACE ( 'NONE', #525, 1.449999999999998179 ) ;
#112 = CARTESIAN_POINT ( 'NONE',  ( 64.99999999999995737, 2.000000000000001776, -14.99999999999992362 ) ) ;
#113 = EDGE_CURVE ( 'NONE', #155, #565, #616, .T. ) ;
#114 = CARTESIAN_POINT ( 'NONE',  ( 0.000000000000000000, 2.000000000000000000, -19.99999999999998934 ) ) ;
#115 = CARTESIAN_POINT ( 'NONE',  ( 79.99999999999995737, 2.000000000000000000, 0.000000000000000000 ) ) ;
#116 = CARTESIAN_POINT ( 'NONE',  ( 68.79999999999995453, 2.000000000000001776, -3.224999999999943245 ) ) ;
#117 = CARTESIAN_POINT ( 'NONE',  ( 19.99999999999997868, -8.000000000000000000, -16.07055587530226148 ) ) ;
#118 = EDGE_LOOP ( 'NONE', ( #797, #517, #913, #743 ) ) ;
#119 = CARTESIAN_POINT ( 'NONE',  ( 68.79999999999995453, 1.674999999999997602, -6.449999999999935341 ) ) ;
#120 = EDGE_CURVE ( 'NONE', #475, #167, #546, .T. ) ;
#121 = EDGE_LOOP ( 'NONE', ( #231, #131, #734, #929 ) ) ;
#122 = DIRECTION ( 'NONE',  ( 0.000000000000000000, 0.000000000000000000, -1.000000000000000000 ) ) ;
#123 = CARTESIAN_POINT ( 'NONE',  ( 0.000000000000000000, 0.000000000000000000, 0.000000000000000000 ) ) ;
#124 = ORIENTED_EDGE ( 'NONE', *, *, #935, .F. ) ;
#125 = DIRECTION ( 'NONE',  ( -0.000000000000000000, 1.000000000000000000, -0.000000000000000000 ) ) ;
#126 = EDGE_CURVE ( 'NONE', #533, #324, #693, .T. ) ;
#127 = LINE ( 'NONE', #637, #40 ) ;
#128 = LINE ( 'NONE', #428, #477 ) ;
#129 = AXIS2_PLACEMENT_3D ( 'NONE', #622, #27, #94 ) ;
#130 = CARTESIAN_POINT ( 'NONE',  ( 15.00000000000000000, 0.000000000000000000, -13.54999999999998828 ) ) ;
#131 = ORIENTED_EDGE ( 'NONE', *, *, #46, .F. ) ;
#132 = EDGE_LOOP ( 'NONE', ( #821, #592, #754, #785 ) ) ;
#133 = CARTESIAN_POINT ( 'NONE',  ( 64.99999999999995737, 1.674999999999997602, -13.54999999999992966 ) ) ;
#134 = CC_DESIGN_PERSON_AND_ORGANIZATION_ASSIGNMENT ( #809, #234, ( #870 ) ) ;
#135 = VECTOR ( 'NONE', #612, 1000.000000000000000 ) ;
#136 = LINE ( 'NONE', #847, #57 ) ;
#137 = DIRECTION ( 'NONE',  ( -0.000000000000000000, 1.000000000000000000, -0.000000000000000000 ) ) ;
#138 = EDGE_LOOP ( 'NONE', ( #664, #88 ) ) ;
#139 = EDGE_LOOP ( 'NONE', ( #652, #295, #507, #659 ) ) ;
#140 = DIRECTION ( 'NONE',  ( -0.000000000000000000, 1.000000000000000000, -0.000000000000000000 ) ) ;
#141 = DIRECTION ( 'NONE',  ( -0.000000000000000000, 1.000000000000000000, -0.000000000000000000 ) ) ;
#142 = LINE ( 'NONE', #581, #919 ) ;
#143 = AXIS2_PLACEMENT_3D ( 'NONE', #2, #933, #68 ) ;
#144 = ADVANCED_FACE ( 'NONE', ( #312 ), #111, .F. ) ;
#145 = APPROVAL_STATUS ( 'not_yet_approved' ) ;
#146 = CARTESIAN_POINT ( 'NONE',  ( 59.99999999999998579, 2.000000000000000000, -20.00000000000000355 ) ) ;
#147 = ORIENTED_EDGE ( 'NONE', *, *, #176, .T. ) ;
#148 = EDGE_LOOP ( 'NONE', ( #480, #217 ) ) ;
#149 = CARTESIAN_POINT ( 'NONE',  ( 19.99999999999997868, 0.000000000000000000, -19.99999999999998934 ) ) ;
#150 = VERTEX_POINT ( 'NONE', #832 ) ;
#151 = VECTOR ( 'NONE', #667, 1000.000000000000000 ) ;
#152 = AXIS2_PLACEMENT_3D ( 'NONE', #250, #171, #532 ) ;
#153 = CALENDAR_DATE ( 2026, 16, 7 ) ;
#154 = CARTESIAN_POINT ( 'NONE',  ( 64.99999999999995737, 0.000000000000000000, -13.54999999999992966 ) ) ;
#155 = VERTEX_POINT ( 'NONE', #474 ) ;
#156 = EDGE_CURVE ( 'NONE', #487, #167, #826, .T. ) ;
#157 = LINE ( 'NONE', #791, #705 ) ;
#158 = APPROVAL_DATE_TIME ( #239, #771 ) ;
#159 = LINE ( 'NONE', #871, #911 ) ;
#160 = CARTESIAN_POINT ( 'NONE',  ( 0.000000000000000000, 0.000000000000000000, -19.99999999999998934 ) ) ;
#161 = ORIENTED_EDGE ( 'NONE', *, *, #60, .F. ) ;
#162 = AXIS2_PLACEMENT_3D ( 'NONE', #864, #564, #773 ) ;
#163 = EDGE_CURVE ( 'NONE', #501, #150, #921, .T. ) ;
#164 = SECURITY_CLASSIFICATION_LEVEL ( 'unclassified' ) ;
#165 = CARTESIAN_POINT ( 'NONE',  ( 15.00000000000000000, 2.000000000000000000, -16.44999999999998863 ) ) ;
#166 = DIRECTION ( 'NONE',  ( 0.000000000000000000, 0.000000000000000000, 1.000000000000000000 ) ) ;
#167 = VERTEX_POINT ( 'NONE', #902 ) ;
#168 = VECTOR ( 'NONE', #99, 1000.000000000000000 ) ;
#169 = APPLICATION_PROTOCOL_DEFINITION ( 'international standard', 'config_control_design', 1994, #361 ) ;
#170 = EDGE_CURVE ( 'NONE', #617, #211, #106, .T. ) ;
#171 = DIRECTION ( 'NONE',  ( -0.000000000000000000, 1.000000000000000000, -0.000000000000000000 ) ) ;
#172 = ORIENTED_EDGE ( 'NONE', *, *, #744, .T. ) ;
#173 = CARTESIAN_POINT ( 'NONE',  ( 68.79999999999995453, 0.000000000000000000, -4.999999999999942268 ) ) ;
#174 = CARTESIAN_POINT ( 'NONE',  ( 59.99999999999998579, 2.000000000000000000, -19.99999999999998934 ) ) ;
#175 = DIRECTION ( 'NONE',  ( 0.000000000000000000, 0.000000000000000000, 1.000000000000000000 ) ) ;
#176 = EDGE_CURVE ( 'NONE', #928, #721, #246, .T. ) ;
#177 = SECURITY_CLASSIFICATION ( '', '', #164 ) ;
#178 = DIRECTION ( 'NONE',  ( -0.000000000000000000, 1.000000000000000000, -0.000000000000000000 ) ) ;
#179 = ORIENTED_EDGE ( 'NONE', *, *, #434, .T. ) ;
#180 = AXIS2_PLACEMENT_3D ( 'NONE', #114, #340, #707 ) ;
#181 = CARTESIAN_POINT ( 'NONE',  ( 64.99999999999995737, 0.000000000000000000, -14.99999999999992362 ) ) ;
#182 = DIRECTION ( 'NONE',  ( 0.000000000000000000, 0.000000000000000000, -1.000000000000000000 ) ) ;
#183 = VERTEX_POINT ( 'NONE', #32 ) ;
#184 = FACE_OUTER_BOUND ( 'NONE', #303, .T. ) ;
#185 = VECTOR ( 'NONE', #290, 1000.000000000000000 ) ;
#186 = CARTESIAN_POINT ( 'NONE',  ( 68.79999999999995453, 0.000000000000000000, -4.999999999999942268 ) ) ;
#187 = VECTOR ( 'NONE', #22, 1000.000000000000000 ) ;
#188 = EDGE_CURVE ( 'NONE', #884, #715, #479, .T. ) ;
#189 = ORIENTED_EDGE ( 'NONE', *, *, #351, .F. ) ;
#190 = EDGE_CURVE ( 'NONE', #617, #373, #554, .T. ) ;
#191 = DIRECTION ( 'NONE',  ( 0.000000000000000000, 0.000000000000000000, 1.000000000000000000 ) ) ;
#192 = FACE_OUTER_BOUND ( 'NONE', #936, .T. ) ;
#193 = VECTOR ( 'NONE', #79, 1000.000000000000000 ) ;
#194 = DIRECTION ( 'NONE',  ( -0.000000000000000000, 1.000000000000000000, -0.000000000000000000 ) ) ;
#195 = FACE_OUTER_BOUND ( 'NONE', #383, .T. ) ;
#196 = FACE_OUTER_BOUND ( 'NONE', #833, .T. ) ;
#197 = ORIENTED_EDGE ( 'NONE', *, *, #922, .T. ) ;
#198 = CARTESIAN_POINT ( 'NONE',  ( 64.99999999999995737, 1.674999999999997602, -16.44999999999991758 ) ) ;
#199 = EDGE_CURVE ( 'NONE', #183, #309, #872, .T. ) ;
#200 = VERTEX_POINT ( 'NONE', #493 ) ;
#201 = DIRECTION ( 'NONE',  ( -0.000000000000000000, -0.000000000000000000, -1.000000000000000000 ) ) ;
#202 = FACE_OUTER_BOUND ( 'NONE', #789, .T. ) ;
#203 = ORIENTED_EDGE ( 'NONE', *, *, #887, .F. ) ;
#204 = DIRECTION ( 'NONE',  ( -0.000000000000000000, 1.000000000000000000, -0.000000000000000000 ) ) ;
#205 = CC_DESIGN_APPROVAL ( #771, ( #494 ) ) ;
#206 = LINE ( 'NONE', #910, #672 ) ;
#207 = CARTESIAN_POINT ( 'NONE',  ( 68.79999999999995453, 0.000000000000000000, -3.549999999999949196 ) ) ;
#208 = ORIENTED_EDGE ( 'NONE', *, *, #798, .T. ) ;
#209 = PLANE ( 'NONE',  #180 ) ;
#210 = CONICAL_SURFACE ( 'NONE', #286, 1.774999999999998801, 0.7853981633974509435 ) ;
#211 = VERTEX_POINT ( 'NONE', #130 ) ;
#212 = ORIENTED_EDGE ( 'NONE', *, *, #320, .F. ) ;
#213 = DIRECTION ( 'NONE',  ( 0.000000000000000000, 0.000000000000000000, 1.000000000000000000 ) ) ;
#214 = CARTESIAN_POINT ( 'NONE',  ( 0.000000000000000000, 0.000000000000000000, 0.000000000000000000 ) ) ;
#215 = AXIS2_PLACEMENT_3D ( 'NONE', #483, #397, #553 ) ;
#216 = CARTESIAN_POINT ( 'NONE',  ( 11.19999999999999929, 1.674999999999997602, -3.550000000000002931 ) ) ;
#217 = ORIENTED_EDGE ( 'NONE', *, *, #739, .F. ) ;
#218 = ORIENTED_EDGE ( 'NONE', *, *, #849, .T. ) ;
#219 = DIRECTION ( 'NONE',  ( 0.000000000000000000, 0.000000000000000000, 1.000000000000000000 ) ) ;
#220 = DIRECTION ( 'NONE',  ( -0.000000000000000000, 1.000000000000000000, -0.000000000000000000 ) ) ;
#221 = APPROVAL_DATE_TIME ( #311, #371 ) ;
#222 = DIRECTION ( 'NONE',  ( 0.000000000000000000, 0.7071067811865493491, 0.7071067811865456854 ) ) ;
#223 = ORIENTED_EDGE ( 'NONE', *, *, #156, .T. ) ;
#224 = CIRCLE ( 'NONE', #549, 1.449999999999993072 ) ;
#225 = LINE ( 'NONE', #123, #569 ) ;
#226 = EDGE_CURVE ( 'NONE', #308, #722, #796, .T. ) ;
#227 = CIRCLE ( 'NONE', #237, 1.449999999999999956 ) ;
#228 = PERSON_AND_ORGANIZATION_ROLE ( 'classification_officer' ) ;
#229 = FACE_OUTER_BOUND ( 'NONE', #118, .T. ) ;
#230 = ORIENTED_EDGE ( 'NONE', *, *, #503, .T. ) ;
#231 = ORIENTED_EDGE ( 'NONE', *, *, #476, .T. ) ;
#232 = DIRECTION ( 'NONE',  ( 0.000000000000000000, 0.000000000000000000, 1.000000000000000000 ) ) ;
#233 = CC_DESIGN_PERSON_AND_ORGANIZATION_ASSIGNMENT ( #679, #816, ( #870 ) ) ;
#234 = PERSON_AND_ORGANIZATION_ROLE ( 'design_supplier' ) ;
#235 = DIRECTION ( 'NONE',  ( -0.000000000000000000, -1.000000000000000000, -0.000000000000000000 ) ) ;
#236 = ORIENTED_EDGE ( 'NONE', *, *, #176, .F. ) ;
#237 = AXIS2_PLACEMENT_3D ( 'NONE', #297, #740, #447 ) ;
#238 = VECTOR ( 'NONE', #536, 1000.000000000000000 ) ;
#239 = DATE_AND_TIME ( #153, #593 ) ;
#240 = CARTESIAN_POINT ( 'NONE',  ( 19.99999999999997868, -8.000000000000000000, -16.07055587530226148 ) ) ;
#241 = CC_DESIGN_SECURITY_CLASSIFICATION ( #177, ( #870 ) ) ;
#242 = DIRECTION ( 'NONE',  ( -0.000000000000000000, 0.000000000000000000, -1.000000000000000000 ) ) ;
#243 = VERTEX_POINT ( 'NONE', #116 ) ;
#244 = AXIS2_PLACEMENT_3D ( 'NONE', #33, #327, #166 ) ;
#245 = APPROVAL_ROLE ( '' ) ;
#246 = LINE ( 'NONE', #405, #238 ) ;
#247 = FACE_OUTER_BOUND ( 'NONE', #774, .T. ) ;
#248 = ORIENTED_EDGE ( 'NONE', *, *, #897, .T. ) ;
#249 = DIRECTION ( 'NONE',  ( 1.000000000000000000, 0.000000000000000000, 0.000000000000000000 ) ) ;
#250 = CARTESIAN_POINT ( 'NONE',  ( 68.79999999999995453, 1.674999999999997602, -4.999999999999942268 ) ) ;
#251 = ORIENTED_EDGE ( 'NONE', *, *, #301, .F. ) ;
#252 = DIRECTION ( 'NONE',  ( -0.000000000000000000, 1.000000000000000000, -0.000000000000000000 ) ) ;
#253 = DIRECTION ( 'NONE',  ( 1.000000000000000000, 0.000000000000000000, 0.000000000000000000 ) ) ;
#254 = DIRECTION ( 'NONE',  ( -0.000000000000000000, 1.000000000000000000, -0.000000000000000000 ) ) ;
#255 = VERTEX_POINT ( 'NONE', #711 ) ;
#256 = DIRECTION ( 'NONE',  ( -0.000000000000000000, 1.000000000000000000, -0.000000000000000000 ) ) ;
#257 = CARTESIAN_POINT ( 'NONE',  ( 19.99999999999997868, 2.000000000000000000, -19.99999999999998934 ) ) ;
#258 = EDGE_CURVE ( 'NONE', #150, #319, #485, .T. ) ;
#259 = DIRECTION ( 'NONE',  ( 0.000000000000000000, 0.000000000000000000, 1.000000000000000000 ) ) ;
#260 = AXIS2_PLACEMENT_3D ( 'NONE', #384, #321, #98 ) ;
#261 = ORIENTED_EDGE ( 'NONE', *, *, #415, .T. ) ;
#262 = VECTOR ( 'NONE', #585, 1000.000000000000000 ) ;
#263 = CARTESIAN_POINT ( 'NONE',  ( 59.99999999999998579, -8.000000000000000000, -20.00000000000000355 ) ) ;
#264 = ADVANCED_FACE ( 'NONE', ( #425 ), #209, .T. ) ;
#265 = AXIS2_PLACEMENT_3D ( 'NONE', #758, #892, #393 ) ;
#266 = CARTESIAN_POINT ( 'NONE',  ( 11.19999999999999929, 2.000000000000001776, -5.000000000000000888 ) ) ;
#267 = ADVANCED_FACE ( 'NONE', ( #192 ), #468, .F. ) ;
#268 = UNCERTAINTY_MEASURE_WITH_UNIT (LENGTH_MEASURE( 1.000000000000000082E-05 ), #762, 'distance_accuracy_value', 'NONE');
#269 = DIRECTION ( 'NONE',  ( 0.000000000000000000, 0.000000000000000000, 1.000000000000000000 ) ) ;
#270 = DIRECTION ( 'NONE',  ( 0.000000000000000000, 0.000000000000000000, 1.000000000000000000 ) ) ;
#271 = CARTESIAN_POINT ( 'NONE',  ( 15.00000000000000000, 2.000000000000001776, -13.22499999999999076 ) ) ;
#272 = VECTOR ( 'NONE', #334, 1000.000000000000000 ) ;
#273 = CC_DESIGN_PERSON_AND_ORGANIZATION_ASSIGNMENT ( #6, #511, ( #761 ) ) ;
#274 = DIRECTION ( 'NONE',  ( -1.000000000000000000, 0.000000000000000000, 0.000000000000000000 ) ) ;
#275 = ORIENTED_EDGE ( 'NONE', *, *, #814, .T. ) ;
#276 = CARTESIAN_POINT ( 'NONE',  ( 80.00000000000000000, 2.000000000000000000, -19.99999999999998934 ) ) ;
#277 = VERTEX_POINT ( 'NONE', #646 ) ;
#278 = AXIS2_PLACEMENT_3D ( 'NONE', #240, #810, #658 ) ;
#279 = VECTOR ( 'NONE', #827, 1000.000000000000000 ) ;
#280 = FACE_OUTER_BOUND ( 'NONE', #583, .T. ) ;
#281 = CARTESIAN_POINT ( 'NONE',  ( 59.99999999999998579, 0.000000000000000000, -19.99999999999998934 ) ) ;
#282 = EDGE_LOOP ( 'NONE', ( #124, #251, #861, #367, #640, #378 ) ) ;
#283 = CARTESIAN_POINT ( 'NONE',  ( 59.99999999999998579, 2.000000000000000000, -19.99999999999998934 ) ) ;
#284 = EDGE_LOOP ( 'NONE', ( #600, #817 ) ) ;
#285 = DIRECTION ( 'NONE',  ( -0.000000000000000000, 1.000000000000000000, -0.000000000000000000 ) ) ;
#286 = AXIS2_PLACEMENT_3D ( 'NONE', #713, #579, #486 ) ;
#287 = CARTESIAN_POINT ( 'NONE',  ( 15.00000000000000000, 2.000000000000000000, -14.99999999999998934 ) ) ;
#288 = ORIENTED_EDGE ( 'NONE', *, *, #806, .F. ) ;
#289 = EDGE_LOOP ( 'NONE', ( #8, #886, #844, #508 ) ) ;
#290 = DIRECTION ( 'NONE',  ( -3.133941051409839399E-16, 0.000000000000000000, 1.000000000000000000 ) ) ;
#291 = AXIS2_PLACEMENT_3D ( 'NONE', #337, #252, #544 ) ;
#292 = COORDINATED_UNIVERSAL_TIME_OFFSET ( 8, 0, .AHEAD. ) ;
#293 = DIRECTION ( 'NONE',  ( -0.000000000000000000, 1.000000000000000000, -0.000000000000000000 ) ) ;
#294 = EDGE_LOOP ( 'NONE', ( #81, #179, #807, #451 ) ) ;
#295 = ORIENTED_EDGE ( 'NONE', *, *, #909, .F. ) ;
#296 = EDGE_CURVE ( 'NONE', #277, #928, #572, .T. ) ;
#297 = CARTESIAN_POINT ( 'NONE',  ( 15.00000000000000000, 1.674999999999997602, -14.99999999999998934 ) ) ;
#298 = ORIENTED_EDGE ( 'NONE', *, *, #854, .T. ) ;
#299 = EDGE_CURVE ( 'NONE', #211, #255, #634, .T. ) ;
#300 = CARTESIAN_POINT ( 'NONE',  ( 15.00000000000000000, 0.000000000000000000, -16.44999999999998863 ) ) ;
#301 = EDGE_CURVE ( 'NONE', #737, #805, #674, .T. ) ;
#302 = CARTESIAN_POINT ( 'NONE',  ( 68.79999999999995453, 2.000000000000001776, -6.774999999999940847 ) ) ;
#303 = EDGE_LOOP ( 'NONE', ( #621, #513, #34, #588 ) ) ;
#304 = ORIENTED_EDGE ( 'NONE', *, *, #351, .T. ) ;
#305 = CARTESIAN_POINT ( 'NONE',  ( 15.00000000000000000, 0.000000000000000000, -14.99999999999998934 ) ) ;
#306 = DATE_AND_TIME ( #520, #527 ) ;
#307 = CARTESIAN_POINT ( 'NONE',  ( 0.000000000000000000, 0.000000000000000000, 0.000000000000000000 ) ) ;
#308 = VERTEX_POINT ( 'NONE', #198 ) ;
#309 = VERTEX_POINT ( 'NONE', #271 ) ;
#310 = AXIS2_PLACEMENT_3D ( 'NONE', #326, #551, #697 ) ;
#311 = DATE_AND_TIME ( #586, #573 ) ;
#312 = FACE_OUTER_BOUND ( 'NONE', #636, .T. ) ;
#313 = ADVANCED_FACE ( 'NONE', ( #488 ), #576, .T. ) ;
#314 = CYLINDRICAL_SURFACE ( 'NONE', #19, 1.449999999999993072 ) ;
#315 = ORIENTED_EDGE ( 'NONE', *, *, #523, .F. ) ;
#316 = AXIS2_PLACEMENT_3D ( 'NONE', #852, #627, #779 ) ;
#317 = CARTESIAN_POINT ( 'NONE',  ( 15.00000000000000000, 0.000000000000000000, -14.99999999999998934 ) ) ;
#318 = DIRECTION ( 'NONE',  ( 1.000000000000000000, 0.000000000000000000, -0.000000000000000000 ) ) ;
#319 = VERTEX_POINT ( 'NONE', #119 ) ;
#320 = EDGE_CURVE ( 'NONE', #155, #669, #841, .T. ) ;
#321 = DIRECTION ( 'NONE',  ( -0.000000000000000000, 1.000000000000000000, -0.000000000000000000 ) ) ;
#322 = DIRECTION ( 'NONE',  ( -0.000000000000000000, 1.000000000000000000, -0.000000000000000000 ) ) ;
#323 = LINE ( 'NONE', #750, #838 ) ;
#324 = VERTEX_POINT ( 'NONE', #639 ) ;
#325 = DIRECTION ( 'NONE',  ( 0.000000000000000000, 0.000000000000000000, 1.000000000000000000 ) ) ;
#326 = CARTESIAN_POINT ( 'NONE',  ( 64.99999999999995737, 2.000000000000001776, -14.99999999999992362 ) ) ;
#327 = DIRECTION ( 'NONE',  ( -0.000000000000000000, 1.000000000000000000, -0.000000000000000000 ) ) ;
#328 = ORIENTED_EDGE ( 'NONE', *, *, #402, .T. ) ;
#329 = CC_DESIGN_PERSON_AND_ORGANIZATION_ASSIGNMENT ( #454, #459, ( #494 ) ) ;
#330 = DIRECTION ( 'NONE',  ( 0.000000000000000000, 0.000000000000000000, 1.000000000000000000 ) ) ;
#331 = EDGE_CURVE ( 'NONE', #722, #715, #918, .T. ) ;
#332 = VECTOR ( 'NONE', #824, 1000.000000000000000 ) ;
#333 = CARTESIAN_POINT ( 'NONE',  ( 15.00000000000000000, 2.000000000000001776, -14.99999999999998934 ) ) ;
#334 = DIRECTION ( 'NONE',  ( 0.000000000000000000, 0.7071067811865456854, 0.7071067811865493491 ) ) ;
#335 = EDGE_CURVE ( 'NONE', #604, #452, #591, .T. ) ;
#336 = CIRCLE ( 'NONE', #15, 1.774999999999998801 ) ;
#337 = CARTESIAN_POINT ( 'NONE',  ( 11.19999999999999929, 1.674999999999997602, -5.000000000000000888 ) ) ;
#338 = CC_DESIGN_DATE_AND_TIME_ASSIGNMENT ( #306, #535, ( #177 ) ) ;
#339 = DIRECTION ( 'NONE',  ( -0.000000000000000000, 1.000000000000000000, -0.000000000000000000 ) ) ;
#340 = DIRECTION ( 'NONE',  ( 0.000000000000000000, 0.000000000000000000, -1.000000000000000000 ) ) ;
#341 = CIRCLE ( 'NONE', #5, 1.449999999999993072 ) ;
#342 = PERSON ( 'æœª', 'æœª', 'æœª', ('æœª'), ('æœª'), ('æœª') ) ;
#343 = ORIENTED_EDGE ( 'NONE', *, *, #199, .F. ) ;
#344 = VECTOR ( 'NONE', #44, 1000.000000000000000 ) ;
#345 = EDGE_CURVE ( 'NONE', #373, #255, #563, .T. ) ;
#346 = DIRECTION ( 'NONE',  ( -0.000000000000000000, 1.000000000000000000, -0.000000000000000000 ) ) ;
#347 = VERTEX_POINT ( 'NONE', #154 ) ;
#348 = DIRECTION ( 'NONE',  ( 0.000000000000000000, 0.000000000000000000, 1.000000000000000000 ) ) ;
#349 = ORIENTED_EDGE ( 'NONE', *, *, #126, .T. ) ;
#350 = LINE ( 'NONE', #497, #580 ) ;
#351 = EDGE_CURVE ( 'NONE', #721, #737, #370, .T. ) ;
#352 = CARTESIAN_POINT ( 'NONE',  ( 19.99999999999997868, 2.000000000000000000, -16.07055587530226148 ) ) ;
#353 = ORIENTED_EDGE ( 'NONE', *, *, #84, .T. ) ;
#354 = DIRECTION ( 'NONE',  ( 0.000000000000000000, 0.000000000000000000, 1.000000000000000000 ) ) ;
#355 = AXIS2_PLACEMENT_3D ( 'NONE', #590, #440, #666 ) ;
#356 = CIRCLE ( 'NONE', #152, 1.449999999999993072 ) ;
#357 = ORIENTED_EDGE ( 'NONE', *, *, #464, .F. ) ;
#358 = DIRECTION ( 'NONE',  ( -1.000000000000000000, 0.000000000000000000, -3.133941051409839399E-16 ) ) ;
#359 = EDGE_CURVE ( 'NONE', #449, #748, #450, .T. ) ;
#360 = DIRECTION ( 'NONE',  ( 8.659560562354909439E-17, 0.7071067811865493491, -0.7071067811865456854 ) ) ;
#361 = APPLICATION_CONTEXT ( 'configuration controlled 3d designs of mechanical parts and assemblies' ) ;
#362 = ORIENTED_EDGE ( 'NONE', *, *, #903, .F. ) ;
#363 = CARTESIAN_POINT ( 'NONE',  ( 0.000000000000000000, -0.000000000000000000, -5.000000000000000888 ) ) ;
#364 = CARTESIAN_POINT ( 'NONE',  ( 59.99999999999998579, 2.000000000000000000, -16.07055587530226148 ) ) ;
#365 = PLANE ( 'NONE',  #278 ) ;
#366 = EDGE_CURVE ( 'NONE', #417, #533, #159, .T. ) ;
#367 = ORIENTED_EDGE ( 'NONE', *, *, #798, .F. ) ;
#368 = VERTEX_POINT ( 'NONE', #455 ) ;
#369 = LINE ( 'NONE', #363, #780 ) ;
#370 = LINE ( 'NONE', #867, #193 ) ;
#371 = APPROVAL ( #85, 'æœª' ) ;
#372 = ORIENTED_EDGE ( 'NONE', *, *, #523, .T. ) ;
#373 = VERTEX_POINT ( 'NONE', #442 ) ;
#374 = CARTESIAN_POINT ( 'NONE',  ( 15.00000000000000000, 2.000000000000001776, -14.99999999999998934 ) ) ;
#375 = DATE_AND_TIME ( #746, #668 ) ;
#376 = CARTESIAN_POINT ( 'NONE',  ( 0.000000000000000000, 2.000000000000000000, 0.000000000000000000 ) ) ;
#377 = ORIENTED_EDGE ( 'NONE', *, *, #126, .F. ) ;
#378 = ORIENTED_EDGE ( 'NONE', *, *, #30, .T. ) ;
#379 = ORGANIZATION ( 'æœª', 'æœª', '' ) ;
#380 = CARTESIAN_POINT ( 'NONE',  ( 11.19999999999999929, 2.000000000000001776, -3.225000000000000533 ) ) ;
#381 = CIRCLE ( 'NONE', #702, 1.775000000000000577 ) ;
#382 = ORIENTED_EDGE ( 'NONE', *, *, #695, .F. ) ;
#383 = EDGE_LOOP ( 'NONE', ( #223, #760, #923, #444 ) ) ;
#384 = CARTESIAN_POINT ( 'NONE',  ( 64.99999999999995737, 0.000000000000000000, -14.99999999999992362 ) ) ;
#385 = COORDINATED_UNIVERSAL_TIME_OFFSET ( 8, 0, .AHEAD. ) ;
#386 = CARTESIAN_POINT ( 'NONE',  ( 80.00000000000000000, 2.000000000000000000, -19.99999999999998934 ) ) ;
#387 = DIRECTION ( 'NONE',  ( -1.000000000000000000, 0.000000000000000000, 0.000000000000000000 ) ) ;
#388 = ORIENTED_EDGE ( 'NONE', *, *, #60, .T. ) ;
#389 = ADVANCED_FACE ( 'NONE', ( #229 ), #757, .F. ) ;
#390 = FACE_OUTER_BOUND ( 'NONE', #132, .T. ) ;
#391 = VERTEX_POINT ( 'NONE', #512 ) ;
#392 = DIRECTION ( 'NONE',  ( 1.000000000000000000, 0.000000000000000000, 0.000000000000000000 ) ) ;
#393 = DIRECTION ( 'NONE',  ( 0.000000000000000000, -0.000000000000000000, -1.000000000000000000 ) ) ;
#394 = VECTOR ( 'NONE', #704, 1000.000000000000000 ) ;
#395 = LINE ( 'NONE', #687, #559 ) ;
#396 = ORIENTED_EDGE ( 'NONE', *, *, #863, .F. ) ;
#397 = DIRECTION ( 'NONE',  ( -0.000000000000000000, 1.000000000000000000, -0.000000000000000000 ) ) ;
#398 = CARTESIAN_POINT ( 'NONE',  ( 11.19999999999999929, 2.000000000000000000, -6.449999999999999289 ) ) ;
#399 = EDGE_CURVE ( 'NONE', #255, #373, #227, .T. ) ;
#400 = AXIS2_PLACEMENT_3D ( 'NONE', #287, #803, #859 ) ;
#401 = DIRECTION ( 'NONE',  ( 0.000000000000000000, 0.000000000000000000, 1.000000000000000000 ) ) ;
#402 = EDGE_CURVE ( 'NONE', #475, #721, #461, .T. ) ;
#403 = LINE ( 'NONE', #263, #168 ) ;
#404 = CARTESIAN_POINT ( 'NONE',  ( 11.19999999999999929, 2.000000000000001776, -6.775000000000001243 ) ) ;
#405 = CARTESIAN_POINT ( 'NONE',  ( 0.000000000000000000, 0.000000000000000000, -19.99999999999998934 ) ) ;
#406 = ADVANCED_FACE ( 'NONE', ( #799 ), #620, .F. ) ;
#407 = FACE_OUTER_BOUND ( 'NONE', #282, .T. ) ;
#408 = CIRCLE ( 'NONE', #37, 1.774999999999998801 ) ;
#409 = DIRECTION ( 'NONE',  ( -0.000000000000000000, 1.000000000000000000, -0.000000000000000000 ) ) ;
#410 = DIRECTION ( 'NONE',  ( -0.000000000000000000, 1.000000000000000000, -0.000000000000000000 ) ) ;
#411 = EDGE_CURVE ( 'NONE', #604, #443, #74, .T. ) ;
#412 = CARTESIAN_POINT ( 'NONE',  ( 15.00000000000000000, 2.000000000000001776, -14.99999999999998934 ) ) ;
#413 = CIRCLE ( 'NONE', #291, 1.449999999999998179 ) ;
#414 = FACE_OUTER_BOUND ( 'NONE', #575, .T. ) ;
#415 = EDGE_CURVE ( 'NONE', #660, #167, #64, .T. ) ;
#416 = DESIGN_CONTEXT ( 'detailed design', #822, 'design' ) ;
#417 = VERTEX_POINT ( 'NONE', #877 ) ;
#418 = FACE_OUTER_BOUND ( 'NONE', #139, .T. ) ;
#419 = ORIENTED_EDGE ( 'NONE', *, *, #199, .T. ) ;
#420 = CARTESIAN_POINT ( 'NONE',  ( 11.19999999999999929, 0.000000000000000000, -5.000000000000000888 ) ) ;
#421 = AXIS2_PLACEMENT_3D ( 'NONE', #181, #256, #103 ) ;
#422 = DIRECTION ( 'NONE',  ( -1.000000000000000000, 0.000000000000000000, -0.000000000000000000 ) ) ;
#423 = AXIS2_PLACEMENT_3D ( 'NONE', #558, #626, #330 ) ;
#424 = EDGE_LOOP ( 'NONE', ( #837, #801, #547, #848 ) ) ;
#425 = FACE_OUTER_BOUND ( 'NONE', #50, .T. ) ;
#426 = ADVANCED_FACE ( 'NONE', ( #7 ), #365, .F. ) ;
#427 = FACE_BOUND ( 'NONE', #25, .T. ) ;
#428 = CARTESIAN_POINT ( 'NONE',  ( 59.99999999999998579, 0.000000000000000000, 0.000000000000000000 ) ) ;
#429 = CONICAL_SURFACE ( 'NONE', #16, 1.774999999999998801, 0.7853981633974401744 ) ;
#430 = FACE_OUTER_BOUND ( 'NONE', #898, .T. ) ;
#431 = AXIS2_PLACEMENT_3D ( 'NONE', #457, #462, #681 ) ;
#432 = ORIENTED_EDGE ( 'NONE', *, *, #90, .T. ) ;
#433 = DIRECTION ( 'NONE',  ( 0.000000000000000000, 0.000000000000000000, 1.000000000000000000 ) ) ;
#434 = EDGE_CURVE ( 'NONE', #319, #556, #587, .T. ) ;
#435 = LINE ( 'NONE', #724, #105 ) ;
#436 = ORIENTED_EDGE ( 'NONE', *, *, #836, .T. ) ;
#437 = VERTEX_POINT ( 'NONE', #522 ) ;
#438 = DIRECTION ( 'NONE',  ( -0.000000000000000000, 1.000000000000000000, -0.000000000000000000 ) ) ;
#439 = DIRECTION ( 'NONE',  ( 0.000000000000000000, 0.000000000000000000, 1.000000000000000000 ) ) ;
#440 = DIRECTION ( 'NONE',  ( -0.000000000000000000, 1.000000000000000000, -0.000000000000000000 ) ) ;
#441 = APPROVAL_ROLE ( '' ) ;
#442 = CARTESIAN_POINT ( 'NONE',  ( 15.00000000000000000, 1.674999999999997602, -16.44999999999998863 ) ) ;
#443 = VERTEX_POINT ( 'NONE', #307 ) ;
#444 = ORIENTED_EDGE ( 'NONE', *, *, #46, .T. ) ;
#445 = LINE ( 'NONE', #865, #642 ) ;
#446 = COORDINATED_UNIVERSAL_TIME_OFFSET ( 8, 0, .AHEAD. ) ;
#447 = DIRECTION ( 'NONE',  ( 0.000000000000000000, 0.000000000000000000, 1.000000000000000000 ) ) ;
#448 = ADVANCED_FACE ( 'NONE', ( #881 ), #680, .F. ) ;
#449 = VERTEX_POINT ( 'NONE', #216 ) ;
#450 = LINE ( 'NONE', #380, #49 ) ;
#451 = ORIENTED_EDGE ( 'NONE', *, *, #629, .F. ) ;
#452 = VERTEX_POINT ( 'NONE', #506 ) ;
#453 = DIRECTION ( 'NONE',  ( 0.000000000000000000, 0.000000000000000000, 1.000000000000000000 ) ) ;
#454 = PERSON_AND_ORGANIZATION ( #342, #379 ) ;
#455 = CARTESIAN_POINT ( 'NONE',  ( 68.79999999999995453, 1.674999999999997602, -3.549999999999949196 ) ) ;
#456 = AXIS2_PLACEMENT_3D ( 'NONE', #100, #529, #253 ) ;
#457 = CARTESIAN_POINT ( 'NONE',  ( 68.79999999999995453, 2.000000000000001776, -4.999999999999942268 ) ) ;
#458 = EDGE_CURVE ( 'NONE', #61, #324, #435, .T. ) ;
#459 = PERSON_AND_ORGANIZATION_ROLE ( 'creator' ) ;
#460 = AXIS2_PLACEMENT_3D ( 'NONE', #831, #194, #269 ) ;
#461 = B_SPLINE_CURVE_WITH_KNOTS ( 'NONE', 2,
 ( #86, #795, #516 ),
 .UNSPECIFIED., .F., .F.,
 ( 3, 3 ),
 ( 0.000000000000000000, 1.000000000000000000 ),
 .UNSPECIFIED. ) ;
#462 = DIRECTION ( 'NONE',  ( -0.000000000000000000, 1.000000000000000000, -0.000000000000000000 ) ) ;
#463 = EDGE_LOOP ( 'NONE', ( #571, #362, #470, #298 ) ) ;
#464 = EDGE_CURVE ( 'NONE', #565, #675, #912, .T. ) ;
#465 = CARTESIAN_POINT ( 'NONE',  ( 19.99999999999997513, 2.000000000000000000, -5.000000000000000888 ) ) ;
#466 = ORIENTED_EDGE ( 'NONE', *, *, #836, .F. ) ;
#467 = LINE ( 'NONE', #615, #42 ) ;
#468 = CONICAL_SURFACE ( 'NONE', #97, 1.774999999999998801, 0.7853981633974401744 ) ;
#469 = FACE_OUTER_BOUND ( 'NONE', #567, .T. ) ;
#470 = ORIENTED_EDGE ( 'NONE', *, *, #331, .T. ) ;
#471 = EDGE_CURVE ( 'NONE', #878, #308, #445, .T. ) ;
#472 = CARTESIAN_POINT ( 'NONE',  ( 0.000000000000000000, 2.000000000000000000, -19.99999999999998934 ) ) ;
#473 = CARTESIAN_POINT ( 'NONE',  ( 0.000000000000000000, 2.000000000000000000, -19.99999999999998934 ) ) ;
#474 = CARTESIAN_POINT ( 'NONE',  ( 11.19999999999999929, 0.000000000000000000, -6.449999999999999289 ) ) ;
#475 = VERTEX_POINT ( 'NONE', #281 ) ;
#476 = EDGE_CURVE ( 'NONE', #443, #487, #225, .T. ) ;
#477 = VECTOR ( 'NONE', #433, 1000.000000000000000 ) ;
#478 = CYLINDRICAL_SURFACE ( 'NONE', #860, 1.449999999999999956 ) ;
#479 = CIRCLE ( 'NONE', #310, 1.774999999999998801 ) ;
#480 = ORIENTED_EDGE ( 'NONE', *, *, #752, .F. ) ;
#481 = PRODUCT_RELATED_PRODUCT_CATEGORY ( 'detail', '', ( #761 ) ) ;
#482 = CARTESIAN_POINT ( 'NONE',  ( 68.79999999999995453, 2.000000000000001776, -4.999999999999942268 ) ) ;
#483 = CARTESIAN_POINT ( 'NONE',  ( 11.19999999999999929, 0.000000000000000000, -5.000000000000000888 ) ) ;
#484 = DIRECTION ( 'NONE',  ( 2.081668171172169697E-15, 0.000000000000000000, -1.000000000000000000 ) ) ;
#485 = LINE ( 'NONE', #908, #595 ) ;
#486 = DIRECTION ( 'NONE',  ( 0.000000000000000000, 0.000000000000000000, 1.000000000000000000 ) ) ;
#487 = VERTEX_POINT ( 'NONE', #714 ) ;
#488 = FACE_OUTER_BOUND ( 'NONE', #13, .T. ) ;
#489 = EDGE_CURVE ( 'NONE', #669, #449, #142, .T. ) ;
#490 = FACE_BOUND ( 'NONE', #895, .T. ) ;
#491 = DIRECTION ( 'NONE',  ( -0.000000000000000000, 1.000000000000000000, -0.000000000000000000 ) ) ;
#492 = ORIENTED_EDGE ( 'NONE', *, *, #411, .F. ) ;
#493 = CARTESIAN_POINT ( 'NONE',  ( 59.99999999999998579, 2.000000000000000000, -5.000000000000000888 ) ) ;
#494 = PRODUCT_DEFINITION ( 'æœ', '', #870, #416 ) ;
#495 = AXIS2_PLACEMENT_3D ( 'NONE', #891, #690, #392 ) ;
#496 = ADVANCED_FACE ( 'NONE', ( #570 ), #764, .F. ) ;
#497 = CARTESIAN_POINT ( 'NONE',  ( 59.99999999999998579, 2.000000000000000000, -16.07055587530226148 ) ) ;
#498 = VECTOR ( 'NONE', #140, 1000.000000000000000 ) ;
#499 = ORIENTED_EDGE ( 'NONE', *, *, #695, .T. ) ;
#500 = DIRECTION ( 'NONE',  ( -1.000000000000000000, 0.000000000000000000, -0.000000000000000000 ) ) ;
#501 = VERTEX_POINT ( 'NONE', #207 ) ;
#502 = EDGE_LOOP ( 'NONE', ( #538, #288, #784, #800 ) ) ;
#503 = EDGE_CURVE ( 'NONE', #443, #928, #54, .T. ) ;
#504 = AXIS2_PLACEMENT_3D ( 'NONE', #333, #839, #906 ) ;
#505 = CARTESIAN_POINT ( 'NONE',  ( 19.99999999999997868, 0.000000000000000000, -19.99999999999998934 ) ) ;
#506 = CARTESIAN_POINT ( 'NONE',  ( 79.99999999999995737, 2.000000000000000000, 0.000000000000000000 ) ) ;
#507 = ORIENTED_EDGE ( 'NONE', *, *, #618, .T. ) ;
#508 = ORIENTED_EDGE ( 'NONE', *, *, #359, .F. ) ;
#509 = DIRECTION ( 'NONE',  ( 0.000000000000000000, 0.7071067811865456854, 0.7071067811865493491 ) ) ;
#510 = CARTESIAN_POINT ( 'NONE',  ( 19.99999999999997513, -8.000000000000000000, -5.000000000000000888 ) ) ;
#511 = PERSON_AND_ORGANIZATION_ROLE ( 'design_owner' ) ;
#512 = CARTESIAN_POINT ( 'NONE',  ( 19.99999999999997513, 2.000000000000000000, -5.000000000000000888 ) ) ;
#513 = ORIENTED_EDGE ( 'NONE', *, *, #190, .T. ) ;
#514 = AXIS2_PLACEMENT_3D ( 'NONE', #560, #204, #56 ) ;
#515 = EDGE_CURVE ( 'NONE', #255, #309, #136, .T. ) ;
#516 = CARTESIAN_POINT ( 'NONE',  ( 19.99999999999997868, 0.000000000000000000, -19.99999999999998934 ) ) ;
#517 = ORIENTED_EDGE ( 'NONE', *, *, #632, .T. ) ;
#518 = ORIENTED_EDGE ( 'NONE', *, *, #887, .T. ) ;
#519 = CARTESIAN_POINT ( 'NONE',  ( 0.000000000000000000, 2.000000000000000000, 0.000000000000000000 ) ) ;
#520 = CALENDAR_DATE ( 2026, 16, 7 ) ;
#521 = VECTOR ( 'NONE', #63, 1000.000000000000000 ) ;
#522 = CARTESIAN_POINT ( 'NONE',  ( 19.99999999999997513, 0.000000000000000000, -5.000000000000000888 ) ) ;
#523 = EDGE_CURVE ( 'NONE', #417, #727, #128, .T. ) ;
#524 = ORIENTED_EDGE ( 'NONE', *, *, #665, .F. ) ;
#525 = AXIS2_PLACEMENT_3D ( 'NONE', #893, #545, #819 ) ;
#526 = CARTESIAN_POINT ( 'NONE',  ( 64.99999999999995737, 1.674999999999997602, -14.99999999999992362 ) ) ;
#527 = LOCAL_TIME ( 18, 42, 39.00000000000000000, #657 ) ;
#528 = PERSON_AND_ORGANIZATION ( #342, #379 ) ;
#529 = DIRECTION ( 'NONE',  ( -0.000000000000000000, 0.000000000000000000, 1.000000000000000000 ) ) ;
#530 = CARTESIAN_POINT ( 'NONE',  ( 39.99999999999999289, 2.000000000000000000, -16.07055587530226148 ) ) ;
#531 = EDGE_CURVE ( 'NONE', #324, #391, #656, .T. ) ;
#532 = DIRECTION ( 'NONE',  ( 0.000000000000000000, 0.000000000000000000, 1.000000000000000000 ) ) ;
#533 = VERTEX_POINT ( 'NONE', #364 ) ;
#534 = EDGE_CURVE ( 'NONE', #437, #391, #931, .T. ) ;
#535 = DATE_TIME_ROLE ( 'classification_date' ) ;
#536 = DIRECTION ( 'NONE',  ( 1.000000000000000000, 0.000000000000000000, 0.000000000000000000 ) ) ;
#537 = PLANE ( 'NONE',  #811 ) ;
#538 = ORIENTED_EDGE ( 'NONE', *, *, #434, .F. ) ;
#539 =( NAMED_UNIT ( * ) SI_UNIT ( $, .STERADIAN. ) SOLID_ANGLE_UNIT ( ) );
#540 = CIRCLE ( 'NONE', #460, 1.449999999999993072 ) ;
#541 = CARTESIAN_POINT ( 'NONE',  ( 59.99999999999998579, -8.000000000000000000, -16.07055587530226148 ) ) ;
#542 = EDGE_LOOP ( 'NONE', ( #203, #343 ) ) ;
#543 = APPROVAL ( #145, 'æœª' ) ;
#544 = DIRECTION ( 'NONE',  ( 0.000000000000000000, 0.000000000000000000, 1.000000000000000000 ) ) ;
#545 = DIRECTION ( 'NONE',  ( -0.000000000000000000, 1.000000000000000000, -0.000000000000000000 ) ) ;
#546 = LINE ( 'NONE', #160, #279 ) ;
#547 = ORIENTED_EDGE ( 'NONE', *, *, #299, .T. ) ;
#548 = DIRECTION ( 'NONE',  ( -0.000000000000000000, 1.000000000000000000, -0.000000000000000000 ) ) ;
#549 = AXIS2_PLACEMENT_3D ( 'NONE', #526, #808, #453 ) ;
#550 = CARTESIAN_POINT ( 'NONE',  ( 64.99999999999995737, 2.000000000000001776, -14.99999999999992362 ) ) ;
#551 = DIRECTION ( 'NONE',  ( -0.000000000000000000, 1.000000000000000000, -0.000000000000000000 ) ) ;
#552 = EDGE_LOOP ( 'NONE', ( #328, #304, #71, #436 ) ) ;
#553 = DIRECTION ( 'NONE',  ( 0.000000000000000000, 0.000000000000000000, 1.000000000000000000 ) ) ;
#554 = LINE ( 'NONE', #165, #187 ) ;
#555 = AXIS2_PLACEMENT_3D ( 'NONE', #482, #322, #763 ) ;
#556 = VERTEX_POINT ( 'NONE', #729 ) ;
#557 = AXIS2_PLACEMENT_3D ( 'NONE', #305, #141, #439 ) ;
#558 = CARTESIAN_POINT ( 'NONE',  ( 11.19999999999999929, 2.000000000000001776, -5.000000000000000888 ) ) ;
#559 = VECTOR ( 'NONE', #28, 1000.000000000000000 ) ;
#560 = CARTESIAN_POINT ( 'NONE',  ( 15.00000000000000000, 2.000000000000001776, -14.99999999999998934 ) ) ;
#561 = FACE_BOUND ( 'NONE', #284, .T. ) ;
#562 = CARTESIAN_POINT ( 'NONE',  ( 0.000000000000000000, 2.000000000000000000, -19.99999999999998934 ) ) ;
#563 = CIRCLE ( 'NONE', #143, 1.449999999999999956 ) ;
#564 = DIRECTION ( 'NONE',  ( 0.000000000000000000, -1.000000000000000000, 0.000000000000000000 ) ) ;
#565 = VERTEX_POINT ( 'NONE', #661 ) ;
#566 = CARTESIAN_POINT ( 'NONE',  ( 15.00000000000000000, 2.000000000000000000, -13.54999999999998828 ) ) ;
#567 = EDGE_LOOP ( 'NONE', ( #372, #499, #862, #751 ) ) ;
#568 = FACE_BOUND ( 'NONE', #694, .T. ) ;
#569 = VECTOR ( 'NONE', #643, 1000.000000000000000 ) ;
#570 = FACE_OUTER_BOUND ( 'NONE', #733, .T. ) ;
#571 = ORIENTED_EDGE ( 'NONE', *, *, #632, .F. ) ;
#572 = LINE ( 'NONE', #562, #394 ) ;
#573 = LOCAL_TIME ( 18, 42, 39.00000000000000000, #17 ) ;
#574 = CYLINDRICAL_SURFACE ( 'NONE', #625, 1.449999999999993072 ) ;
#575 = EDGE_LOOP ( 'NONE', ( #653, #492, #208, #3 ) ) ;
#576 = PLANE ( 'NONE',  #635 ) ;
#577 = AXIS2_PLACEMENT_3D ( 'NONE', #894, #178, #95 ) ;
#578 = ORIENTED_EDGE ( 'NONE', *, *, #107, .T. ) ;
#579 = DIRECTION ( 'NONE',  ( -0.000000000000000000, 1.000000000000000000, -0.000000000000000000 ) ) ;
#580 = VECTOR ( 'NONE', #201, 1000.000000000000000 ) ;
#581 = CARTESIAN_POINT ( 'NONE',  ( 11.19999999999999929, 2.000000000000000000, -3.550000000000002931 ) ) ;
#582 = DIRECTION ( 'NONE',  ( -0.000000000000000000, 1.000000000000000000, -0.000000000000000000 ) ) ;
#583 = EDGE_LOOP ( 'NONE', ( #66, #633, #353, #889 ) ) ;
#584 = CIRCLE ( 'NONE', #504, 1.774999999999998801 ) ;
#585 = DIRECTION ( 'NONE',  ( 8.659560562354955045E-17, 0.7071067811865456854, -0.7071067811865493491 ) ) ;
#586 = CALENDAR_DATE ( 2026, 16, 7 ) ;
#587 = LINE ( 'NONE', #302, #692 ) ;
#588 = ORIENTED_EDGE ( 'NONE', *, *, #299, .F. ) ;
#589 = ADVANCED_FACE ( 'NONE', ( #202 ), #429, .F. ) ;
#590 = CARTESIAN_POINT ( 'NONE',  ( 11.19999999999999929, 2.000000000000001776, -5.000000000000000888 ) ) ;
#591 = LINE ( 'NONE', #736, #611 ) ;
#592 = ORIENTED_EDGE ( 'NONE', *, *, #163, .F. ) ;
#593 = LOCAL_TIME ( 18, 42, 39.00000000000000000, #446 ) ;
#594 = EDGE_LOOP ( 'NONE', ( #102, #741, #377, #778 ) ) ;
#595 = VECTOR ( 'NONE', #125, 1000.000000000000000 ) ;
#596 = DIRECTION ( 'NONE',  ( -0.000000000000000000, 1.000000000000000000, -0.000000000000000000 ) ) ;
#597 = PERSON_AND_ORGANIZATION ( #342, #379 ) ;
#598 = CARTESIAN_POINT ( 'NONE',  ( 39.99999999999999289, 0.000000000000000000, -16.07055587530226148 ) ) ;
#599 = ORIENTED_EDGE ( 'NONE', *, *, #163, .T. ) ;
#600 = ORIENTED_EDGE ( 'NONE', *, *, #854, .F. ) ;
#601 = ADVANCED_FACE ( 'NONE', ( #4 ), #815, .F. ) ;
#602 = PERSON_AND_ORGANIZATION ( #342, #379 ) ;
#603 = CARTESIAN_POINT ( 'NONE',  ( 59.99999999999998579, 0.000000000000000000, -20.00000000000000355 ) ) ;
#604 = VERTEX_POINT ( 'NONE', #519 ) ;
#605 = EDGE_LOOP ( 'NONE', ( #648, #685, #432, #382 ) ) ;
#606 = AXIS2_PLACEMENT_3D ( 'NONE', #541, #318, #242 ) ;
#607 = APPROVAL_ROLE ( '' ) ;
#608 = DIRECTION ( 'NONE',  ( -0.000000000000000000, 1.000000000000000000, -0.000000000000000000 ) ) ;
#609 = PLANE ( 'NONE',  #606 ) ;
#610 = ORIENTED_EDGE ( 'NONE', *, *, #113, .T. ) ;
#611 = VECTOR ( 'NONE', #662, 1000.000000000000000 ) ;
#612 = DIRECTION ( 'NONE',  ( -0.000000000000000000, -1.000000000000000000, -0.000000000000000000 ) ) ;
#613 = ORIENTED_EDGE ( 'NONE', *, *, #113, .F. ) ;
#614 = CC_DESIGN_DATE_AND_TIME_ASSIGNMENT ( #375, #932, ( #494 ) ) ;
#615 = CARTESIAN_POINT ( 'NONE',  ( 0.000000000000000000, 2.000000000000000000, 0.000000000000000000 ) ) ;
#616 = LINE ( 'NONE', #398, #882 ) ;
#617 = VERTEX_POINT ( 'NONE', #300 ) ;
#618 = EDGE_CURVE ( 'NONE', #347, #722, #206, .T. ) ;
#619 = CARTESIAN_POINT ( 'NONE',  ( 19.99999999999997513, 0.000000000000000000, 6.267882102819671303E-15 ) ) ;
#620 = B_SPLINE_SURFACE_WITH_KNOTS ( 'NONE', 2, 1, ( 
 ( #149, #673 ),
 ( #598, #530 ),
 ( #603, #146 ) ),
 .UNSPECIFIED., .F., .F., .F.,
 ( 3, 3 ),
 ( 2, 2 ),
 ( 0.000000000000000000, 1.000000000000000000 ),
 ( 0.000000000000000000, 1.000000000000000000 ),
 .UNSPECIFIED. ) ;
#621 = ORIENTED_EDGE ( 'NONE', *, *, #170, .F. ) ;
#622 = CARTESIAN_POINT ( 'NONE',  ( 11.19999999999999929, 1.674999999999997602, -5.000000000000000888 ) ) ;
#623 = MANIFOLD_SOLID_BREP ( 'ÇÐ³ý-À­Éì5', #927 ) ;
#624 = DIRECTION ( 'NONE',  ( -1.000000000000000000, -0.000000000000000000, -0.000000000000000000 ) ) ;
#625 = AXIS2_PLACEMENT_3D ( 'NONE', #850, #285, #213 ) ;
#626 = DIRECTION ( 'NONE',  ( -0.000000000000000000, 1.000000000000000000, -0.000000000000000000 ) ) ;
#627 = DIRECTION ( 'NONE',  ( -0.000000000000000000, 1.000000000000000000, -0.000000000000000000 ) ) ;
#628 = CIRCLE ( 'NONE', #215, 1.449999999999998179 ) ;
#629 = EDGE_CURVE ( 'NONE', #368, #243, #127, .T. ) ;
#630 = CARTESIAN_POINT ( 'NONE',  ( 64.99999999999995737, 0.000000000000000000, -16.44999999999991758 ) ) ;
#631 = CARTESIAN_POINT ( 'NONE',  ( 19.99999999999997868, 2.000000000000000000, -16.07055587530226148 ) ) ;
#632 = EDGE_CURVE ( 'NONE', #308, #884, #728, .T. ) ;
#633 = ORIENTED_EDGE ( 'NONE', *, *, #258, .T. ) ;
#634 = LINE ( 'NONE', #566, #344 ) ;
#635 = AXIS2_PLACEMENT_3D ( 'NONE', #775, #41, #500 ) ;
#636 = EDGE_LOOP ( 'NONE', ( #613, #96, #726, #218 ) ) ;
#637 = CARTESIAN_POINT ( 'NONE',  ( 68.79999999999995453, 2.000000000000001776, -3.224999999999943245 ) ) ;
#638 = ORIENTED_EDGE ( 'NONE', *, *, #359, .T. ) ;
#639 = CARTESIAN_POINT ( 'NONE',  ( 19.99999999999997868, 2.000000000000000000, -16.07055587530226148 ) ) ;
#640 = ORIENTED_EDGE ( 'NONE', *, *, #335, .T. ) ;
#641 = CARTESIAN_POINT ( 'NONE',  ( 0.000000000000000000, 2.000000000000000000, 0.000000000000000000 ) ) ;
#642 = VECTOR ( 'NONE', #220, 1000.000000000000000 ) ;
#643 = DIRECTION ( 'NONE',  ( 1.000000000000000000, 0.000000000000000000, 0.000000000000000000 ) ) ;
#644 = ADVANCED_FACE ( 'NONE', ( #926 ), #210, .F. ) ;
#645 = ORIENTED_EDGE ( 'NONE', *, *, #156, .F. ) ;
#646 = CARTESIAN_POINT ( 'NONE',  ( 0.000000000000000000, 2.000000000000000000, -19.99999999999998934 ) ) ;
#647 = AXIS2_PLACEMENT_3D ( 'NONE', #186, #409, #259 ) ;
#648 = ORIENTED_EDGE ( 'NONE', *, *, #665, .T. ) ;
#649 = CARTESIAN_POINT ( 'NONE',  ( 59.99999999999998579, -8.000000000000000000, -5.000000000000000888 ) ) ;
#650 = EDGE_CURVE ( 'NONE', #200, #533, #350, .T. ) ;
#651 = CIRCLE ( 'NONE', #431, 1.774999999999998801 ) ;
#652 = ORIENTED_EDGE ( 'NONE', *, *, #471, .F. ) ;
#653 = ORIENTED_EDGE ( 'NONE', *, *, #503, .F. ) ;
#654 = FACE_OUTER_BOUND ( 'NONE', #605, .T. ) ;
#655 = ADVANCED_BREP_SHAPE_REPRESENTATION ( '\X2\51497535\X0\', ( #623, #495 ), #47 ) ;
#656 = LINE ( 'NONE', #352, #185 ) ;
#657 = COORDINATED_UNIVERSAL_TIME_OFFSET ( 8, 0, .AHEAD. ) ;
#658 = DIRECTION ( 'NONE',  ( -1.000000000000000000, 0.000000000000000000, -0.000000000000000000 ) ) ;
#659 = ORIENTED_EDGE ( 'NONE', *, *, #903, .T. ) ;
#660 = VERTEX_POINT ( 'NONE', #276 ) ;
#661 = CARTESIAN_POINT ( 'NONE',  ( 11.19999999999999929, 1.674999999999997602, -6.449999999999999289 ) ) ;
#662 = DIRECTION ( 'NONE',  ( 1.000000000000000000, 0.000000000000000000, 0.000000000000000000 ) ) ;
#663 = ORIENTED_EDGE ( 'NONE', *, *, #534, .F. ) ;
#664 = ORIENTED_EDGE ( 'NONE', *, *, #39, .F. ) ;
#665 = EDGE_CURVE ( 'NONE', #727, #437, #369, .T. ) ;
#666 = DIRECTION ( 'NONE',  ( 0.000000000000000000, 0.000000000000000000, 1.000000000000000000 ) ) ;
#667 = DIRECTION ( 'NONE',  ( -0.000000000000000000, -1.000000000000000000, -0.000000000000000000 ) ) ;
#668 = LOCAL_TIME ( 18, 42, 39.00000000000000000, #292 ) ;
#669 = VERTEX_POINT ( 'NONE', #781 ) ;
#670 = DIRECTION ( 'NONE',  ( -0.000000000000000000, 1.000000000000000000, -0.000000000000000000 ) ) ;
#671 = ADVANCED_FACE ( 'NONE', ( #196, #568, #427, #717, #490, #58 ), #790, .T. ) ;
#672 = VECTOR ( 'NONE', #438, 1000.000000000000000 ) ;
#673 = CARTESIAN_POINT ( 'NONE',  ( 19.99999999999997868, 2.000000000000000000, -19.99999999999998934 ) ) ;
#674 = B_SPLINE_CURVE_WITH_KNOTS ( 'NONE', 2,
 ( #701, #924, #283 ),
 .UNSPECIFIED., .F., .F.,
 ( 3, 3 ),
 ( 0.000000000000000000, 1.000000000000000000 ),
 .UNSPECIFIED. ) ;
#675 = VERTEX_POINT ( 'NONE', #62 ) ;
#676 = ORIENTED_EDGE ( 'NONE', *, *, #849, .F. ) ;
#677 = CONICAL_SURFACE ( 'NONE', #934, 1.774999999999998801, 0.7853981633974509435 ) ;
#678 = ADVANCED_FACE ( 'NONE', ( #857 ), #846, .F. ) ;
#679 = PERSON_AND_ORGANIZATION ( #342, #379 ) ;
#680 = CYLINDRICAL_SURFACE ( 'NONE', #400, 1.449999999999999956 ) ;
#681 = DIRECTION ( 'NONE',  ( 0.000000000000000000, 0.000000000000000000, 1.000000000000000000 ) ) ;
#682 = ORIENTED_EDGE ( 'NONE', *, *, #170, .T. ) ;
#683 = VECTOR ( 'NONE', #753, 1000.000000000000000 ) ;
#684 = DIRECTION ( 'NONE',  ( -0.000000000000000000, 1.000000000000000000, -0.000000000000000000 ) ) ;
#685 = ORIENTED_EDGE ( 'NONE', *, *, #534, .T. ) ;
#686 = LINE ( 'NONE', #473, #332 ) ;
#687 = CARTESIAN_POINT ( 'NONE',  ( 15.00000000000000000, 2.000000000000001776, -16.77499999999998792 ) ) ;
#688 = ORIENTED_EDGE ( 'NONE', *, *, #296, .F. ) ;
#689 = ADVANCED_FACE ( 'NONE', ( #418 ), #708, .F. ) ;
#690 = DIRECTION ( 'NONE',  ( 0.000000000000000000, 0.000000000000000000, 1.000000000000000000 ) ) ;
#691 = DIRECTION ( 'NONE',  ( 0.000000000000000000, 0.000000000000000000, 1.000000000000000000 ) ) ;
#692 = VECTOR ( 'NONE', #12, 1000.000000000000000 ) ;
#693 = LINE ( 'NONE', #631, #804 ) ;
#694 = EDGE_LOOP ( 'NONE', ( #396, #524, #315, #161 ) ) ;
#695 = EDGE_CURVE ( 'NONE', #727, #200, #915, .T. ) ;
#696 = CARTESIAN_POINT ( 'NONE',  ( 11.19999999999999929, 2.000000000000001776, -3.225000000000000533 ) ) ;
#697 = DIRECTION ( 'NONE',  ( 0.000000000000000000, 0.000000000000000000, 1.000000000000000000 ) ) ;
#698 = VECTOR ( 'NONE', #484, 1000.000000000000000 ) ;
#699 = ADVANCED_FACE ( 'NONE', ( #786 ), #776, .F. ) ;
#700 = DIRECTION ( 'NONE',  ( 0.000000000000000000, 0.000000000000000000, 1.000000000000000000 ) ) ;
#701 = CARTESIAN_POINT ( 'NONE',  ( 19.99999999999997868, 2.000000000000000000, -19.99999999999998934 ) ) ;
#702 = AXIS2_PLACEMENT_3D ( 'NONE', #266, #410, #691 ) ;
#703 = FACE_BOUND ( 'NONE', #594, .T. ) ;
#704 = DIRECTION ( 'NONE',  ( -0.000000000000000000, -1.000000000000000000, -0.000000000000000000 ) ) ;
#705 = VECTOR ( 'NONE', #670, 1000.000000000000000 ) ;
#706 = CYLINDRICAL_SURFACE ( 'NONE', #577, 1.449999999999993072 ) ;
#707 = DIRECTION ( 'NONE',  ( -1.000000000000000000, 0.000000000000000000, -0.000000000000000000 ) ) ;
#708 = CYLINDRICAL_SURFACE ( 'NONE', #856, 1.449999999999993072 ) ;
#709 = CIRCLE ( 'NONE', #421, 1.449999999999993072 ) ;
#710 = ORIENTED_EDGE ( 'NONE', *, *, #916, .F. ) ;
#711 = CARTESIAN_POINT ( 'NONE',  ( 15.00000000000000000, 1.674999999999997602, -13.54999999999998828 ) ) ;
#712 = ORIENTED_EDGE ( 'NONE', *, *, #345, .F. ) ;
#713 = CARTESIAN_POINT ( 'NONE',  ( 68.79999999999995453, 2.000000000000001776, -4.999999999999942268 ) ) ;
#714 = CARTESIAN_POINT ( 'NONE',  ( 79.99999999999995737, 0.000000000000000000, 0.000000000000000000 ) ) ;
#715 = VERTEX_POINT ( 'NONE', #920 ) ;
#716 = DIRECTION ( 'NONE',  ( -0.000000000000000000, 1.000000000000000000, -0.000000000000000000 ) ) ;
#717 = FACE_BOUND ( 'NONE', #925, .T. ) ;
#718 = VECTOR ( 'NONE', #792, 1000.000000000000000 ) ;
#719 = ADVANCED_FACE ( 'NONE', ( #280 ), #574, .F. ) ;
#720 = AXIS2_PLACEMENT_3D ( 'NONE', #317, #608, #175 ) ;
#721 = VERTEX_POINT ( 'NONE', #505 ) ;
#722 = VERTEX_POINT ( 'NONE', #133 ) ;
#723 = CARTESIAN_POINT ( 'NONE',  ( 59.99999999999998579, -0.000000000000000000, -5.000000000000000888 ) ) ;
#724 = CARTESIAN_POINT ( 'NONE',  ( 19.99999999999997868, -8.000000000000000000, -16.07055587530226148 ) ) ;
#725 = AXIS2_PLACEMENT_3D ( 'NONE', #731, #137, #788 ) ;
#726 = ORIENTED_EDGE ( 'NONE', *, *, #489, .T. ) ;
#727 = VERTEX_POINT ( 'NONE', #723 ) ;
#728 = LINE ( 'NONE', #843, #262 ) ;
#729 = CARTESIAN_POINT ( 'NONE',  ( 68.79999999999995453, 2.000000000000001776, -6.774999999999940847 ) ) ;
#730 = APPROVAL_DATE_TIME ( #866, #543 ) ;
#731 = CARTESIAN_POINT ( 'NONE',  ( 64.99999999999995737, 2.000000000000001776, -14.99999999999992362 ) ) ;
#732 = ADVANCED_FACE ( 'NONE', ( #654 ), #930, .F. ) ;
#733 = EDGE_LOOP ( 'NONE', ( #357, #676, #638, #917 ) ) ;
#734 = ORIENTED_EDGE ( 'NONE', *, *, #335, .F. ) ;
#735 = CALENDAR_DATE ( 2026, 16, 7 ) ;
#736 = CARTESIAN_POINT ( 'NONE',  ( 0.000000000000000000, 2.000000000000000000, 0.000000000000000000 ) ) ;
#737 = VERTEX_POINT ( 'NONE', #257 ) ;
#738 = ORIENTED_EDGE ( 'NONE', *, *, #515, .T. ) ;
#739 = EDGE_CURVE ( 'NONE', #675, #748, #82, .T. ) ;
#740 = DIRECTION ( 'NONE',  ( -0.000000000000000000, 1.000000000000000000, -0.000000000000000000 ) ) ;
#741 = ORIENTED_EDGE ( 'NONE', *, *, #531, .F. ) ;
#742 = APPROVAL_PERSON_ORGANIZATION ( #794, #771, #245 ) ;
#743 = ORIENTED_EDGE ( 'NONE', *, *, #331, .F. ) ;
#744 = EDGE_CURVE ( 'NONE', #277, #737, #686, .T. ) ;
#745 = AXIS2_PLACEMENT_3D ( 'NONE', #117, #358, #53 ) ;
#746 = CALENDAR_DATE ( 2026, 16, 7 ) ;
#747 = CARTESIAN_POINT ( 'NONE',  ( 79.99999999999995737, 2.000000000000000000, 0.000000000000000000 ) ) ;
#748 = VERTEX_POINT ( 'NONE', #696 ) ;
#749 = CONICAL_SURFACE ( 'NONE', #555, 1.774999999999998801, 0.7853981633974509435 ) ;
#750 = CARTESIAN_POINT ( 'NONE',  ( 0.000000000000000000, 0.000000000000000000, -16.07055587530226148 ) ) ;
#751 = ORIENTED_EDGE ( 'NONE', *, *, #366, .F. ) ;
#752 = EDGE_CURVE ( 'NONE', #748, #675, #381, .T. ) ;
#753 = DIRECTION ( 'NONE',  ( 1.000000000000000000, 0.000000000000000000, 0.000000000000000000 ) ) ;
#754 = ORIENTED_EDGE ( 'NONE', *, *, #890, .T. ) ;
#755 = APPROVAL_PERSON_ORGANIZATION ( #528, #543, #441 ) ;
#756 = MECHANICAL_CONTEXT ( 'NONE', #361, 'mechanical' ) ;
#757 = CONICAL_SURFACE ( 'NONE', #725, 1.774999999999998801, 0.7853981633974509435 ) ;
#758 = CARTESIAN_POINT ( 'NONE',  ( 0.000000000000000000, 2.000000000000000000, 0.000000000000000000 ) ) ;
#759 = CARTESIAN_POINT ( 'NONE',  ( 79.99999999999995737, 2.000000000000000000, 0.000000000000000000 ) ) ;
#760 = ORIENTED_EDGE ( 'NONE', *, *, #415, .F. ) ;
#761 = PRODUCT ( '\X2\51497535\X0\', '\X2\51497535\X0\', '', ( #756 ) ) ;
#762 =( LENGTH_UNIT ( ) NAMED_UNIT ( * ) SI_UNIT ( .MILLI., .METRE. ) );
#763 = DIRECTION ( 'NONE',  ( 0.000000000000000000, 0.000000000000000000, 1.000000000000000000 ) ) ;
#764 = CONICAL_SURFACE ( 'NONE', #355, 1.775000000000000577, 0.7853981633974456145 ) ;
#765 = CC_DESIGN_PERSON_AND_ORGANIZATION_ASSIGNMENT ( #597, #228, ( #177 ) ) ;
#766 = AXIS2_PLACEMENT_3D ( 'NONE', #91, #387, #45 ) ;
#767 = CARTESIAN_POINT ( 'NONE',  ( 15.00000000000000000, 2.000000000000000000, -14.99999999999998934 ) ) ;
#768 = CC_DESIGN_APPROVAL ( #371, ( #177 ) ) ;
#769 = CARTESIAN_POINT ( 'NONE',  ( 79.99999999999995737, 0.000000000000000000, 0.000000000000000000 ) ) ;
#770 = FACE_BOUND ( 'NONE', #148, .T. ) ;
#771 = APPROVAL ( #880, 'æœª' ) ;
#772 = DIRECTION ( 'NONE',  ( 1.000000000000000000, 0.000000000000000000, 0.000000000000000000 ) ) ;
#773 = DIRECTION ( 'NONE',  ( 0.000000000000000000, -0.000000000000000000, -1.000000000000000000 ) ) ;
#774 = EDGE_LOOP ( 'NONE', ( #212, #610, #275, #813 ) ) ;
#775 = CARTESIAN_POINT ( 'NONE',  ( 0.000000000000000000, 2.000000000000000000, -19.99999999999998934 ) ) ;
#776 = PLANE ( 'NONE',  #10 ) ;
#777 = LOCAL_TIME ( 18, 42, 39.00000000000000000, #385 ) ;
#778 = ORIENTED_EDGE ( 'NONE', *, *, #650, .F. ) ;
#779 = DIRECTION ( 'NONE',  ( 0.000000000000000000, 0.000000000000000000, 1.000000000000000000 ) ) ;
#780 = VECTOR ( 'NONE', #274, 1000.000000000000000 ) ;
#781 = CARTESIAN_POINT ( 'NONE',  ( 11.19999999999999929, 0.000000000000000000, -3.550000000000002931 ) ) ;
#782 = ORIENTED_EDGE ( 'NONE', *, *, #471, .T. ) ;
#783 = CARTESIAN_POINT ( 'NONE',  ( 64.99999999999995737, 2.000000000000001776, -13.22499999999992504 ) ) ;
#784 = ORIENTED_EDGE ( 'NONE', *, *, #629, .T. ) ;
#785 = ORIENTED_EDGE ( 'NONE', *, *, #806, .T. ) ;
#786 = FACE_OUTER_BOUND ( 'NONE', #121, .T. ) ;
#787 = ADVANCED_FACE ( 'NONE', ( #36 ), #749, .F. ) ;
#788 = DIRECTION ( 'NONE',  ( 0.000000000000000000, 0.000000000000000000, 1.000000000000000000 ) ) ;
#789 = EDGE_LOOP ( 'NONE', ( #712, #578, #419, #69 ) ) ;
#790 = PLANE ( 'NONE',  #162 ) ;
#791 = CARTESIAN_POINT ( 'NONE',  ( 68.79999999999995453, 2.000000000000000000, -3.549999999999949196 ) ) ;
#792 = DIRECTION ( 'NONE',  ( -0.000000000000000000, 1.000000000000000000, -0.000000000000000000 ) ) ;
#793 = ADVANCED_FACE ( 'NONE', ( #43 ), #677, .F. ) ;
#794 = PERSON_AND_ORGANIZATION ( #342, #379 ) ;
#795 = CARTESIAN_POINT ( 'NONE',  ( 39.99999999999999289, 0.000000000000000000, -16.07055587530226148 ) ) ;
#796 = CIRCLE ( 'NONE', #316, 1.449999999999993072 ) ;
#797 = ORIENTED_EDGE ( 'NONE', *, *, #226, .F. ) ;
#798 = EDGE_CURVE ( 'NONE', #604, #277, #467, .T. ) ;
#799 = FACE_OUTER_BOUND ( 'NONE', #552, .T. ) ;
#800 = ORIENTED_EDGE ( 'NONE', *, *, #39, .T. ) ;
#801 = ORIENTED_EDGE ( 'NONE', *, *, #897, .F. ) ;
#802 = VECTOR ( 'NONE', #360, 1000.000000000000114 ) ;
#803 = DIRECTION ( 'NONE',  ( -0.000000000000000000, 1.000000000000000000, -0.000000000000000000 ) ) ;
#804 = VECTOR ( 'NONE', #624, 1000.000000000000000 ) ;
#805 = VERTEX_POINT ( 'NONE', #174 ) ;
#806 = EDGE_CURVE ( 'NONE', #368, #319, #540, .T. ) ;
#807 = ORIENTED_EDGE ( 'NONE', *, *, #18, .T. ) ;
#808 = DIRECTION ( 'NONE',  ( -0.000000000000000000, 1.000000000000000000, -0.000000000000000000 ) ) ;
#809 = PERSON_AND_ORGANIZATION ( #342, #379 ) ;
#810 = DIRECTION ( 'NONE',  ( 0.000000000000000000, 0.000000000000000000, -1.000000000000000000 ) ) ;
#811 = AXIS2_PLACEMENT_3D ( 'NONE', #747, #842, #87 ) ;
#812 = LINE ( 'NONE', #115, #135 ) ;
#813 = ORIENTED_EDGE ( 'NONE', *, *, #489, .F. ) ;
#814 = EDGE_CURVE ( 'NONE', #565, #449, #89, .T. ) ;
#815 = CONICAL_SURFACE ( 'NONE', #901, 1.775000000000000577, 0.7853981633974456145 ) ;
#816 = PERSON_AND_ORGANIZATION_ROLE ( 'creator' ) ;
#817 = ORIENTED_EDGE ( 'NONE', *, *, #188, .F. ) ;
#818 = CIRCLE ( 'NONE', #557, 1.449999999999999956 ) ;
#819 = DIRECTION ( 'NONE',  ( 0.000000000000000000, 0.000000000000000000, 1.000000000000000000 ) ) ;
#820 = CYLINDRICAL_SURFACE ( 'NONE', #244, 1.449999999999998179 ) ;
#821 = ORIENTED_EDGE ( 'NONE', *, *, #258, .F. ) ;
#822 = APPLICATION_CONTEXT ( 'configuration controlled 3d designs of mechanical parts and assemblies' ) ;
#823 = CARTESIAN_POINT ( 'NONE',  ( 0.000000000000000000, 0.000000000000000000, -19.99999999999998934 ) ) ;
#824 = DIRECTION ( 'NONE',  ( 1.000000000000000000, 0.000000000000000000, 0.000000000000000000 ) ) ;
#825 = ADVANCED_FACE ( 'NONE', ( #703, #104, #770, #561, #407, #905 ), #900, .F. ) ;
#826 = LINE ( 'NONE', #769, #59 ) ;
#827 = DIRECTION ( 'NONE',  ( 1.000000000000000000, 0.000000000000000000, 0.000000000000000000 ) ) ;
#828 = ORIENTED_EDGE ( 'NONE', *, *, #853, .T. ) ;
#829 = CIRCLE ( 'NONE', #260, 1.449999999999993072 ) ;
#830 =( NAMED_UNIT ( * ) PLANE_ANGLE_UNIT ( ) SI_UNIT ( $, .RADIAN. ) );
#831 = CARTESIAN_POINT ( 'NONE',  ( 68.79999999999995453, 1.674999999999997602, -4.999999999999942268 ) ) ;
#832 = CARTESIAN_POINT ( 'NONE',  ( 68.79999999999995453, 0.000000000000000000, -6.449999999999935341 ) ) ;
#833 = EDGE_LOOP ( 'NONE', ( #76, #75, #645, #55, #230, #147 ) ) ;
#834 = LINE ( 'NONE', #619, #904 ) ;
#835 = DIRECTION ( 'NONE',  ( 2.081668171172169697E-15, 0.000000000000000000, -1.000000000000000000 ) ) ;
#836 = EDGE_CURVE ( 'NONE', #805, #475, #403, .T. ) ;
#837 = ORIENTED_EDGE ( 'NONE', *, *, #190, .F. ) ;
#838 = VECTOR ( 'NONE', #772, 1000.000000000000000 ) ;
#839 = DIRECTION ( 'NONE',  ( -0.000000000000000000, 1.000000000000000000, -0.000000000000000000 ) ) ;
#840 = DIRECTION ( 'NONE',  ( -0.000000000000000000, 1.000000000000000000, -0.000000000000000000 ) ) ;
#841 = CIRCLE ( 'NONE', #26, 1.449999999999998179 ) ;
#842 = DIRECTION ( 'NONE',  ( -1.000000000000000000, 0.000000000000000000, -2.081668171172169697E-15 ) ) ;
#843 = CARTESIAN_POINT ( 'NONE',  ( 64.99999999999995737, 2.000000000000001776, -16.77499999999992042 ) ) ;
#844 = ORIENTED_EDGE ( 'NONE', *, *, #739, .T. ) ;
#845 = ORIENTED_EDGE ( 'NONE', *, *, #399, .F. ) ;
#846 = PLANE ( 'NONE',  #745 ) ;
#847 = CARTESIAN_POINT ( 'NONE',  ( 15.00000000000000000, 2.000000000000001776, -13.22499999999999076 ) ) ;
#848 = ORIENTED_EDGE ( 'NONE', *, *, #399, .T. ) ;
#849 = EDGE_CURVE ( 'NONE', #449, #565, #413, .T. ) ;
#850 = CARTESIAN_POINT ( 'NONE',  ( 68.79999999999995453, 2.000000000000000000, -4.999999999999942268 ) ) ;
#851 = ORIENTED_EDGE ( 'NONE', *, *, #107, .F. ) ;
#852 = CARTESIAN_POINT ( 'NONE',  ( 64.99999999999995737, 1.674999999999997602, -14.99999999999992362 ) ) ;
#853 = EDGE_CURVE ( 'NONE', #669, #155, #628, .T. ) ;
#854 = EDGE_CURVE ( 'NONE', #715, #884, #336, .T. ) ;
#855 = ORIENTED_EDGE ( 'NONE', *, *, #320, .T. ) ;
#856 = AXIS2_PLACEMENT_3D ( 'NONE', #48, #346, #219 ) ;
#857 = FACE_OUTER_BOUND ( 'NONE', #92, .T. ) ;
#858 = DIRECTION ( 'NONE',  ( -0.000000000000000000, 1.000000000000000000, -0.000000000000000000 ) ) ;
#859 = DIRECTION ( 'NONE',  ( 0.000000000000000000, 0.000000000000000000, 1.000000000000000000 ) ) ;
#860 = AXIS2_PLACEMENT_3D ( 'NONE', #767, #110, #700 ) ;
#861 = ORIENTED_EDGE ( 'NONE', *, *, #744, .F. ) ;
#862 = ORIENTED_EDGE ( 'NONE', *, *, #650, .T. ) ;
#863 = EDGE_CURVE ( 'NONE', #437, #61, #834, .T. ) ;
#864 = CARTESIAN_POINT ( 'NONE',  ( 0.000000000000000000, 0.000000000000000000, 0.000000000000000000 ) ) ;
#865 = CARTESIAN_POINT ( 'NONE',  ( 64.99999999999995737, 2.000000000000000000, -16.44999999999991758 ) ) ;
#866 = DATE_AND_TIME ( #735, #777 ) ;
#867 = CARTESIAN_POINT ( 'NONE',  ( 19.99999999999997868, -8.000000000000000000, -19.99999999999998934 ) ) ;
#868 = ORIENTED_EDGE ( 'NONE', *, *, #935, .T. ) ;
#869 = ORIENTED_EDGE ( 'NONE', *, *, #531, .T. ) ;
#870 = PRODUCT_DEFINITION_FORMATION_WITH_SPECIFIED_SOURCE ( 'ä»', '', #761, .NOT_KNOWN. ) ;
#871 = CARTESIAN_POINT ( 'NONE',  ( 59.99999999999998579, -8.000000000000000000, -16.07055587530226148 ) ) ;
#872 = CIRCLE ( 'NONE', #514, 1.774999999999998801 ) ;
#873 = ORIENTED_EDGE ( 'NONE', *, *, #863, .T. ) ;
#874 = ORIENTED_EDGE ( 'NONE', *, *, #226, .T. ) ;
#875 = CARTESIAN_POINT ( 'NONE',  ( 11.19999999999999929, 2.000000000000001776, -5.000000000000000888 ) ) ;
#876 = ADVANCED_FACE ( 'NONE', ( #184 ), #478, .F. ) ;
#877 = CARTESIAN_POINT ( 'NONE',  ( 59.99999999999998579, 0.000000000000000000, -16.07055587530226148 ) ) ;
#878 = VERTEX_POINT ( 'NONE', #630 ) ;
#879 = VECTOR ( 'NONE', #235, 1000.000000000000000 ) ;
#880 = APPROVAL_STATUS ( 'not_yet_approved' ) ;
#881 = FACE_OUTER_BOUND ( 'NONE', #424, .T. ) ;
#882 = VECTOR ( 'NONE', #254, 1000.000000000000000 ) ;
#883 = CARTESIAN_POINT ( 'NONE',  ( 68.79999999999995453, 2.000000000000000000, -4.999999999999942268 ) ) ;
#884 = VERTEX_POINT ( 'NONE', #38 ) ;
#885 = LINE ( 'NONE', #759, #698 ) ;
#886 = ORIENTED_EDGE ( 'NONE', *, *, #464, .T. ) ;
#887 = EDGE_CURVE ( 'NONE', #309, #183, #584, .T. ) ;
#888 = CARTESIAN_POINT ( 'NONE',  ( 19.99999999999997868, 0.000000000000000000, -16.07055587530226148 ) ) ;
#889 = ORIENTED_EDGE ( 'NONE', *, *, #890, .F. ) ;
#890 = EDGE_CURVE ( 'NONE', #501, #368, #157, .T. ) ;
#891 = CARTESIAN_POINT ( 'NONE',  ( 0.000000000000000000, 0.000000000000000000, 0.000000000000000000 ) ) ;
#892 = DIRECTION ( 'NONE',  ( 0.000000000000000000, -1.000000000000000000, 0.000000000000000000 ) ) ;
#893 = CARTESIAN_POINT ( 'NONE',  ( 11.19999999999999929, 2.000000000000000000, -5.000000000000000888 ) ) ;
#894 = CARTESIAN_POINT ( 'NONE',  ( 64.99999999999995737, 2.000000000000000000, -14.99999999999992362 ) ) ;
#895 = EDGE_LOOP ( 'NONE', ( #937, #29 ) ) ;
#896 = DIRECTION ( 'NONE',  ( 3.133941051409839399E-16, 0.000000000000000000, -1.000000000000000000 ) ) ;
#897 = EDGE_CURVE ( 'NONE', #211, #617, #818, .T. ) ;
#898 = EDGE_LOOP ( 'NONE', ( #710, #782, #874, #914 ) ) ;
#899 = CC_DESIGN_APPROVAL ( #543, ( #870 ) ) ;
#900 = PLANE ( 'NONE',  #265 ) ;
#901 = AXIS2_PLACEMENT_3D ( 'NONE', #875, #596, #232 ) ;
#902 = CARTESIAN_POINT ( 'NONE',  ( 80.00000000000000000, 0.000000000000000000, -19.99999999999998934 ) ) ;
#903 = EDGE_CURVE ( 'NONE', #722, #308, #224, .T. ) ;
#904 = VECTOR ( 'NONE', #896, 1000.000000000000000 ) ;
#905 = FACE_BOUND ( 'NONE', #138, .T. ) ;
#906 = DIRECTION ( 'NONE',  ( 0.000000000000000000, 0.000000000000000000, 1.000000000000000000 ) ) ;
#907 = CARTESIAN_POINT ( 'NONE',  ( 68.79999999999995453, 2.000000000000001776, -4.999999999999942268 ) ) ;
#908 = CARTESIAN_POINT ( 'NONE',  ( 68.79999999999995453, 2.000000000000000000, -6.449999999999935341 ) ) ;
#909 = EDGE_CURVE ( 'NONE', #347, #878, #829, .T. ) ;
#910 = CARTESIAN_POINT ( 'NONE',  ( 64.99999999999995737, 2.000000000000000000, -13.54999999999992966 ) ) ;
#911 = VECTOR ( 'NONE', #582, 1000.000000000000000 ) ;
#912 = LINE ( 'NONE', #404, #802 ) ;
#913 = ORIENTED_EDGE ( 'NONE', *, *, #188, .T. ) ;
#914 = ORIENTED_EDGE ( 'NONE', *, *, #618, .F. ) ;
#915 = LINE ( 'NONE', #649, #498 ) ;
#916 = EDGE_CURVE ( 'NONE', #878, #347, #709, .T. ) ;
#917 = ORIENTED_EDGE ( 'NONE', *, *, #752, .T. ) ;
#918 = LINE ( 'NONE', #783, #272 ) ;
#919 = VECTOR ( 'NONE', #858, 1000.000000000000000 ) ;
#920 = CARTESIAN_POINT ( 'NONE',  ( 64.99999999999995737, 2.000000000000001776, -13.22499999999992504 ) ) ;
#921 = CIRCLE ( 'NONE', #647, 1.449999999999993072 ) ;
#922 = EDGE_CURVE ( 'NONE', #150, #501, #341, .T. ) ;
#923 = ORIENTED_EDGE ( 'NONE', *, *, #30, .F. ) ;
#924 = CARTESIAN_POINT ( 'NONE',  ( 39.99999999999999289, 2.000000000000000000, -16.07055587530226148 ) ) ;
#925 = EDGE_LOOP ( 'NONE', ( #599, #197 ) ) ;
#926 = FACE_OUTER_BOUND ( 'NONE', #502, .T. ) ;
#927 = CLOSED_SHELL ( 'NONE', ( #589, #876, #601, #35, #389, #11, #787, #719, #264, #671, #825, #70, #699, #24, #313, #77, #644, #689, #793, #144, #496, #448, #267, #678, #426, #83, #732, #406 ) ) ;
#928 = VERTEX_POINT ( 'NONE', #823 ) ;
#929 = ORIENTED_EDGE ( 'NONE', *, *, #411, .T. ) ;
#930 = PLANE ( 'NONE',  #456 ) ;
#931 = LINE ( 'NONE', #510, #718 ) ;
#932 = DATE_TIME_ROLE ( 'creation_date' ) ;
#933 = DIRECTION ( 'NONE',  ( -0.000000000000000000, 1.000000000000000000, -0.000000000000000000 ) ) ;
#934 = AXIS2_PLACEMENT_3D ( 'NONE', #550, #840, #191 ) ;
#935 = EDGE_CURVE ( 'NONE', #805, #660, #93, .T. ) ;
#936 = EDGE_LOOP ( 'NONE', ( #851, #845, #738, #518 ) ) ;
#937 = ORIENTED_EDGE ( 'NONE', *, *, #909, .T. ) ;
ENDSEC;
END-ISO-10303-21;
