ISO-10303-21;
HEADER;
FILE_DESCRIPTION (( 'STEP AP214' ),
    '1' );
FILE_NAME ('坐台.STEP',
    '2026-07-28T23:53:09',
    ( '' ),
    ( '' ),
    'SwSTEP 2.0',
    'SolidWorks 2024',
    '' );
FILE_SCHEMA (( 'AUTOMOTIVE_DESIGN' ));
ENDSEC;

DATA;
#1 = CARTESIAN_POINT ( 'NONE',  ( 100.0000000000000000, 50.00000000000000000, -30.00000000000000000 ) ) ;
#2 = ORIENTED_EDGE ( 'NONE', *, *, #469, .T. ) ;
#3 = ORIENTED_EDGE ( 'NONE', *, *, #238, .T. ) ;
#4 = CARTESIAN_POINT ( 'NONE',  ( 4.999999999999999112, 0.000000000000000000, -26.75000000000000355 ) ) ;
#5 = VERTEX_POINT ( 'NONE', #396 ) ;
#6 = DIRECTION ( 'NONE',  ( -1.000000000000000000, -0.000000000000000000, -0.000000000000000000 ) ) ;
#7 = ORIENTED_EDGE ( 'NONE', *, *, #561, .T. ) ;
#8 = CARTESIAN_POINT ( 'NONE',  ( 5.000000000000011546, 0.000000000000000000, -5.000000000000000000 ) ) ;
#9 = VERTEX_POINT ( 'NONE', #589 ) ;
#10 = VERTEX_POINT ( 'NONE', #168 ) ;
#11 = CARTESIAN_POINT ( 'NONE',  ( 4.999999999999999112, 0.000000000000000000, -26.75000000000000355 ) ) ;
#12 = AXIS2_PLACEMENT_3D ( 'NONE', #518, #481, #577 ) ;
#13 = VERTEX_POINT ( 'NONE', #338 ) ;
#14 = EDGE_CURVE ( 'NONE', #154, #563, #275, .T. ) ;
#15 = DIRECTION ( 'NONE',  ( -0.000000000000000000, -0.000000000000000000, 1.000000000000000000 ) ) ;
#16 = ORIENTED_EDGE ( 'NONE', *, *, #109, .F. ) ;
#17 = ORIENTED_EDGE ( 'NONE', *, *, #109, .T. ) ;
#18 = DIRECTION ( 'NONE',  ( 0.000000000000000000, 1.000000000000000000, 0.000000000000000000 ) ) ;
#19 = EDGE_LOOP ( 'NONE', ( #161, #116, #490, #330 ) ) ;
#20 = UNCERTAINTY_MEASURE_WITH_UNIT (LENGTH_MEASURE( 1.000000000000000082E-05 ), #229, 'distance_accuracy_value', 'NONE');
#21 = DIRECTION ( 'NONE',  ( 0.000000000000000000, 0.000000000000000000, 1.000000000000000000 ) ) ;
#22 = CIRCLE ( 'NONE', #188, 1.749999999999999778 ) ;
#23 = PRODUCT ( '\X2\575053f0\X0\', '\X2\575053f0\X0\', '', ( #592 ) ) ;
#24 = CARTESIAN_POINT ( 'NONE',  ( 4.999999999999999112, 0.000000000000000000, -23.25000000000000000 ) ) ;
#25 = VECTOR ( 'NONE', #594, 1000.000000000000000 ) ;
#26 = DIRECTION ( 'NONE',  ( -0.000000000000000000, 1.000000000000000000, -0.000000000000000000 ) ) ;
#27 = DIRECTION ( 'NONE',  ( 0.000000000000000000, 1.000000000000000000, 0.000000000000000000 ) ) ;
#28 = DIRECTION ( 'NONE',  ( -0.000000000000000000, 1.000000000000000000, -0.000000000000000000 ) ) ;
#29 = EDGE_CURVE ( 'NONE', #253, #569, #121, .T. ) ;
#30 = ORIENTED_EDGE ( 'NONE', *, *, #256, .T. ) ;
#31 = PLANE ( 'NONE',  #440 ) ;
#32 = FILL_AREA_STYLE_COLOUR ( '', #313 ) ;
#33 = DIRECTION ( 'NONE',  ( 0.000000000000000000, 1.000000000000000000, 0.000000000000000000 ) ) ;
#34 = CARTESIAN_POINT ( 'NONE',  ( 0.000000000000000000, 50.00000000000000000, 0.000000000000000000 ) ) ;
#35 = ADVANCED_FACE ( 'NONE', ( #228 ), #498, .F. ) ;
#36 = CARTESIAN_POINT ( 'NONE',  ( 95.00000000000000000, 50.00000000000000000, -25.00000000000000000 ) ) ;
#37 = CARTESIAN_POINT ( 'NONE',  ( 4.999999999999999112, 0.000000000000000000, -16.75000000000000000 ) ) ;
#38 = SHAPE_DEFINITION_REPRESENTATION ( #540, #231 ) ;
#39 = FACE_OUTER_BOUND ( 'NONE', #571, .T. ) ;
#40 = LINE ( 'NONE', #278, #286 ) ;
#41 = VECTOR ( 'NONE', #488, 1000.000000000000000 ) ;
#42 = CARTESIAN_POINT ( 'NONE',  ( 5.000000000000011546, 0.000000000000000000, -25.00000000000000000 ) ) ;
#43 = VERTEX_POINT ( 'NONE', #134 ) ;
#44 = CIRCLE ( 'NONE', #155, 1.749999999999999778 ) ;
#45 = EDGE_CURVE ( 'NONE', #164, #198, #78, .T. ) ;
#46 = ORIENTED_EDGE ( 'NONE', *, *, #361, .F. ) ;
#47 = CARTESIAN_POINT ( 'NONE',  ( 95.00000000000000000, 50.00000000000000000, -3.250000000000000444 ) ) ;
#48 = ADVANCED_FACE ( 'NONE', ( #267 ), #446, .F. ) ;
#49 = ORIENTED_EDGE ( 'NONE', *, *, #341, .F. ) ;
#50 = ORIENTED_EDGE ( 'NONE', *, *, #83, .T. ) ;
#51 = VECTOR ( 'NONE', #567, 1000.000000000000000 ) ;
#52 = CARTESIAN_POINT ( 'NONE',  ( 4.999999999999999112, 0.000000000000000000, -13.25000000000000178 ) ) ;
#53 = EDGE_CURVE ( 'NONE', #290, #191, #591, .T. ) ;
#54 = FACE_OUTER_BOUND ( 'NONE', #62, .T. ) ;
#55 = AXIS2_PLACEMENT_3D ( 'NONE', #226, #358, #177 ) ;
#56 = EDGE_LOOP ( 'NONE', ( #106, #144, #289, #381 ) ) ;
#57 = CYLINDRICAL_SURFACE ( 'NONE', #462, 1.749999999999999778 ) ;
#58 = ORIENTED_EDGE ( 'NONE', *, *, #92, .F. ) ;
#59 = CARTESIAN_POINT ( 'NONE',  ( 0.000000000000000000, 0.000000000000000000, -30.00000000000000000 ) ) ;
#60 = VECTOR ( 'NONE', #234, 1000.000000000000000 ) ;
#61 = ADVANCED_FACE ( 'NONE', ( #597 ), #127, .F. ) ;
#62 = EDGE_LOOP ( 'NONE', ( #245, #327, #297, #3 ) ) ;
#63 = CARTESIAN_POINT ( 'NONE',  ( 4.999999999999999112, 0.000000000000000000, -3.250000000000000444 ) ) ;
#64 = EDGE_LOOP ( 'NONE', ( #350, #583, #292, #486 ) ) ;
#65 = VERTEX_POINT ( 'NONE', #223 ) ;
#66 = CARTESIAN_POINT ( 'NONE',  ( 0.000000000000000000, 50.00000000000000000, -30.00000000000000000 ) ) ;
#67 = EDGE_LOOP ( 'NONE', ( #482, #379, #250, #30 ) ) ;
#68 = ORIENTED_EDGE ( 'NONE', *, *, #574, .T. ) ;
#69 = DIRECTION ( 'NONE',  ( 1.000000000000000000, 0.000000000000000000, 0.000000000000000000 ) ) ;
#70 = ORIENTED_EDGE ( 'NONE', *, *, #421, .F. ) ;
#71 = PRODUCT_DEFINITION_CONTEXT ( 'detailed design', #533, 'design' ) ;
#72 = CARTESIAN_POINT ( 'NONE',  ( 95.00000000000000000, 0.000000000000000000, -16.75000000000000000 ) ) ;
#73 = DIRECTION ( 'NONE',  ( 0.000000000000000000, 0.000000000000000000, 1.000000000000000000 ) ) ;
#74 = PRODUCT_DEFINITION_FORMATION_WITH_SPECIFIED_SOURCE ( '浠', '', #23, .NOT_KNOWN. ) ;
#75 = VECTOR ( 'NONE', #197, 1000.000000000000000 ) ;
#76 = EDGE_CURVE ( 'NONE', #437, #65, #402, .T. ) ;
#77 = DIRECTION ( 'NONE',  ( 0.000000000000000000, 0.000000000000000000, 1.000000000000000000 ) ) ;
#78 = LINE ( 'NONE', #355, #477 ) ;
#79 = VECTOR ( 'NONE', #501, 1000.000000000000000 ) ;
#80 = DIRECTION ( 'NONE',  ( 0.000000000000000000, 0.000000000000000000, 1.000000000000000000 ) ) ;
#81 = LINE ( 'NONE', #277, #264 ) ;
#82 = FACE_BOUND ( 'NONE', #487, .T. ) ;
#83 = EDGE_CURVE ( 'NONE', #437, #300, #217, .T. ) ;
#84 = EDGE_CURVE ( 'NONE', #303, #9, #588, .T. ) ;
#85 = DIRECTION ( 'NONE',  ( -0.000000000000000000, 1.000000000000000000, -0.000000000000000000 ) ) ;
#86 = DIRECTION ( 'NONE',  ( 0.000000000000000000, -1.000000000000000000, 0.000000000000000000 ) ) ;
#87 = DIRECTION ( 'NONE',  ( -0.000000000000000000, 0.000000000000000000, 1.000000000000000000 ) ) ;
#88 = CARTESIAN_POINT ( 'NONE',  ( 95.00000000000000000, 0.000000000000000000, -5.000000000000000000 ) ) ;
#89 = AXIS2_PLACEMENT_3D ( 'NONE', #270, #451, #362 ) ;
#90 = DIRECTION ( 'NONE',  ( 0.000000000000000000, 0.000000000000000000, 1.000000000000000000 ) ) ;
#91 = CYLINDRICAL_SURFACE ( 'NONE', #141, 1.749999999999999778 ) ;
#92 = EDGE_CURVE ( 'NONE', #429, #417, #174, .T. ) ;
#93 = AXIS2_PLACEMENT_3D ( 'NONE', #11, #337, #295 ) ;
#94 = DIRECTION ( 'NONE',  ( -0.000000000000000000, 1.000000000000000000, -0.000000000000000000 ) ) ;
#95 = ORIENTED_EDGE ( 'NONE', *, *, #249, .F. ) ;
#96 = VERTEX_POINT ( 'NONE', #123 ) ;
#97 = DIRECTION ( 'NONE',  ( 0.000000000000000000, 0.000000000000000000, 1.000000000000000000 ) ) ;
#98 = ORIENTED_EDGE ( 'NONE', *, *, #491, .T. ) ;
#99 = AXIS2_PLACEMENT_3D ( 'NONE', #136, #189, #97 ) ;
#100 = CARTESIAN_POINT ( 'NONE',  ( 4.999999999999999112, 0.000000000000000000, -23.25000000000000000 ) ) ;
#101 = EDGE_LOOP ( 'NONE', ( #326, #388, #17, #7 ) ) ;
#102 =( GEOMETRIC_REPRESENTATION_CONTEXT ( 3 ) GLOBAL_UNCERTAINTY_ASSIGNED_CONTEXT ( ( #20 ) ) GLOBAL_UNIT_ASSIGNED_CONTEXT ( ( #229, #400, #322 ) ) REPRESENTATION_CONTEXT ( 'NONE', 'WORKASPACE' ) );
#103 = CARTESIAN_POINT ( 'NONE',  ( 0.000000000000000000, 50.00000000000000000, -30.00000000000000000 ) ) ;
#104 = AXIS2_PLACEMENT_3D ( 'NONE', #422, #556, #509 ) ;
#105 = VECTOR ( 'NONE', #365, 1000.000000000000000 ) ;
#106 = ORIENTED_EDGE ( 'NONE', *, *, #528, .T. ) ;
#107 = AXIS2_PLACEMENT_3D ( 'NONE', #36, #269, #77 ) ;
#108 = LINE ( 'NONE', #66, #233 ) ;
#109 = EDGE_CURVE ( 'NONE', #268, #517, #185, .T. ) ;
#110 = ORIENTED_EDGE ( 'NONE', *, *, #361, .T. ) ;
#111 = ORIENTED_EDGE ( 'NONE', *, *, #238, .F. ) ;
#112 = LINE ( 'NONE', #59, #510 ) ;
#113 = EDGE_LOOP ( 'NONE', ( #2, #578, #255, #374 ) ) ;
#114 = ORIENTED_EDGE ( 'NONE', *, *, #548, .F. ) ;
#115 = CARTESIAN_POINT ( 'NONE',  ( 4.999999999999999112, 50.00000000000000000, -13.25000000000000178 ) ) ;
#116 = ORIENTED_EDGE ( 'NONE', *, *, #468, .F. ) ;
#117 = EDGE_LOOP ( 'NONE', ( #519, #209, #568, #489 ) ) ;
#118 = CARTESIAN_POINT ( 'NONE',  ( 95.00000000000000000, 0.000000000000000000, -26.75000000000000355 ) ) ;
#119 = ORIENTED_EDGE ( 'NONE', *, *, #574, .F. ) ;
#120 = LINE ( 'NONE', #395, #369 ) ;
#121 = LINE ( 'NONE', #37, #443 ) ;
#122 = PLANE ( 'NONE',  #125 ) ;
#123 = CARTESIAN_POINT ( 'NONE',  ( 4.999999999999999112, 0.000000000000000000, -13.25000000000000178 ) ) ;
#124 = DIRECTION ( 'NONE',  ( 0.000000000000000000, -0.000000000000000000, -1.000000000000000000 ) ) ;
#125 = AXIS2_PLACEMENT_3D ( 'NONE', #549, #87, #169 ) ;
#126 = CARTESIAN_POINT ( 'NONE',  ( 4.999999999999999112, 50.00000000000000000, -6.750000000000000000 ) ) ;
#127 = CYLINDRICAL_SURFACE ( 'NONE', #558, 1.750000000000001554 ) ;
#128 = VECTOR ( 'NONE', #551, 1000.000000000000000 ) ;
#129 = EDGE_CURVE ( 'NONE', #150, #268, #81, .T. ) ;
#130 = DIRECTION ( 'NONE',  ( 1.000000000000000000, 0.000000000000000000, 0.000000000000000000 ) ) ;
#131 = FACE_BOUND ( 'NONE', #428, .T. ) ;
#132 = VECTOR ( 'NONE', #242, 1000.000000000000000 ) ;
#133 = DIRECTION ( 'NONE',  ( 0.000000000000000000, 0.000000000000000000, 1.000000000000000000 ) ) ;
#134 = CARTESIAN_POINT ( 'NONE',  ( 4.999999999999999112, 0.000000000000000000, -6.750000000000000000 ) ) ;
#135 = APPLICATION_PROTOCOL_DEFINITION ( 'draft international standard', 'automotive_design', 1998, #533 ) ;
#136 = CARTESIAN_POINT ( 'NONE',  ( 100.0000000000000000, 50.00000000000000000, 0.000000000000000000 ) ) ;
#137 = CLOSED_SHELL ( 'NONE', ( #448, #61, #328, #271, #204, #363, #166, #372, #581, #146, #434, #35, #237, #280, #48, #485, #213, #595 ) ) ;
#138 = CIRCLE ( 'NONE', #107, 1.750000000000001554 ) ;
#139 = DIRECTION ( 'NONE',  ( 0.000000000000000000, 0.000000000000000000, 1.000000000000000000 ) ) ;
#140 = EDGE_CURVE ( 'NONE', #253, #96, #537, .T. ) ;
#141 = AXIS2_PLACEMENT_3D ( 'NONE', #460, #332, #90 ) ;
#142 = CARTESIAN_POINT ( 'NONE',  ( 4.999999999999999112, 0.000000000000000000, -23.25000000000000000 ) ) ;
#143 = ORIENTED_EDGE ( 'NONE', *, *, #256, .F. ) ;
#144 = ORIENTED_EDGE ( 'NONE', *, *, #547, .F. ) ;
#145 = CARTESIAN_POINT ( 'NONE',  ( 4.999999999999999112, 0.000000000000000000, -16.75000000000000000 ) ) ;
#146 = ADVANCED_FACE ( 'NONE', ( #457, #550, #39, #131 ), #273, .T. ) ;
#147 = ORIENTED_EDGE ( 'NONE', *, *, #53, .T. ) ;
#148 = PLANE ( 'NONE',  #212 ) ;
#149 = DIRECTION ( 'NONE',  ( -0.000000000000000000, 1.000000000000000000, -0.000000000000000000 ) ) ;
#150 = VERTEX_POINT ( 'NONE', #454 ) ;
#151 = ORIENTED_EDGE ( 'NONE', *, *, #376, .T. ) ;
#152 = DIRECTION ( 'NONE',  ( 1.000000000000000000, 0.000000000000000000, 0.000000000000000000 ) ) ;
#153 = AXIS2_PLACEMENT_3D ( 'NONE', #199, #430, #152 ) ;
#154 = VERTEX_POINT ( 'NONE', #409 ) ;
#155 = AXIS2_PLACEMENT_3D ( 'NONE', #320, #172, #539 ) ;
#156 = FACE_OUTER_BOUND ( 'NONE', #348, .T. ) ;
#157 = ORIENTED_EDGE ( 'NONE', *, *, #221, .T. ) ;
#158 = ORIENTED_EDGE ( 'NONE', *, *, #343, .F. ) ;
#159 = EDGE_CURVE ( 'NONE', #300, #216, #599, .T. ) ;
#160 = DIRECTION ( 'NONE',  ( 0.000000000000000000, 0.000000000000000000, 1.000000000000000000 ) ) ;
#161 = ORIENTED_EDGE ( 'NONE', *, *, #192, .T. ) ;
#162 = ORIENTED_EDGE ( 'NONE', *, *, #14, .F. ) ;
#163 = LINE ( 'NONE', #432, #359 ) ;
#164 = VERTEX_POINT ( 'NONE', #412 ) ;
#165 = VECTOR ( 'NONE', #6, 1000.000000000000000 ) ;
#166 = ADVANCED_FACE ( 'NONE', ( #602 ), #181, .F. ) ;
#167 = DIRECTION ( 'NONE',  ( -0.000000000000000000, 1.000000000000000000, -0.000000000000000000 ) ) ;
#168 = CARTESIAN_POINT ( 'NONE',  ( 0.000000000000000000, 0.000000000000000000, -30.00000000000000000 ) ) ;
#169 = DIRECTION ( 'NONE',  ( 1.000000000000000000, 0.000000000000000000, 0.000000000000000000 ) ) ;
#170 = DIRECTION ( 'NONE',  ( 0.000000000000000000, 1.000000000000000000, 0.000000000000000000 ) ) ;
#171 = DIRECTION ( 'NONE',  ( 1.000000000000000000, 0.000000000000000000, 0.000000000000000000 ) ) ;
#172 = DIRECTION ( 'NONE',  ( 0.000000000000000000, 1.000000000000000000, 0.000000000000000000 ) ) ;
#173 = EDGE_CURVE ( 'NONE', #483, #429, #194, .T. ) ;
#174 = LINE ( 'NONE', #542, #105 ) ;
#175 = AXIS2_PLACEMENT_3D ( 'NONE', #42, #560, #139 ) ;
#176 = LINE ( 'NONE', #126, #128 ) ;
#177 = DIRECTION ( 'NONE',  ( -1.000000000000000000, 0.000000000000000000, -0.000000000000000000 ) ) ;
#178 = PLANE ( 'NONE',  #414 ) ;
#179 = CARTESIAN_POINT ( 'NONE',  ( 4.999999999999999112, 0.000000000000000000, -26.75000000000000355 ) ) ;
#180 = SURFACE_STYLE_USAGE ( .BOTH. , #411 ) ;
#181 = PLANE ( 'NONE',  #99 ) ;
#182 = DIRECTION ( 'NONE',  ( 0.000000000000000000, 0.000000000000000000, 1.000000000000000000 ) ) ;
#183 = AXIS2_PLACEMENT_3D ( 'NONE', #34, #404, #124 ) ;
#184 = CARTESIAN_POINT ( 'NONE',  ( 95.00000000000000000, -0.000000000000000000, -3.250000000000000444 ) ) ;
#185 = CIRCLE ( 'NONE', #523, 1.749999999999999778 ) ;
#186 = EDGE_CURVE ( 'NONE', #565, #437, #240, .T. ) ;
#187 = CIRCLE ( 'NONE', #265, 1.749999999999999778 ) ;
#188 = AXIS2_PLACEMENT_3D ( 'NONE', #458, #195, #375 ) ;
#189 = DIRECTION ( 'NONE',  ( -1.000000000000000000, 0.000000000000000000, 0.000000000000000000 ) ) ;
#190 = ORIENTED_EDGE ( 'NONE', *, *, #449, .T. ) ;
#191 = VERTEX_POINT ( 'NONE', #47 ) ;
#192 = EDGE_CURVE ( 'NONE', #13, #303, #40, .T. ) ;
#193 = EDGE_CURVE ( 'NONE', #96, #154, #471, .T. ) ;
#194 = LINE ( 'NONE', #373, #318 ) ;
#195 = DIRECTION ( 'NONE',  ( 0.000000000000000000, 1.000000000000000000, 0.000000000000000000 ) ) ;
#196 = ORIENTED_EDGE ( 'NONE', *, *, #210, .F. ) ;
#197 = DIRECTION ( 'NONE',  ( -0.000000000000000000, -1.000000000000000000, -0.000000000000000000 ) ) ;
#198 = VERTEX_POINT ( 'NONE', #508 ) ;
#199 = CARTESIAN_POINT ( 'NONE',  ( 4.999999999999999112, 0.000000000000000000, -3.250000000000000444 ) ) ;
#200 = ORIENTED_EDGE ( 'NONE', *, *, #221, .F. ) ;
#201 = ORIENTED_EDGE ( 'NONE', *, *, #14, .T. ) ;
#202 = DIRECTION ( 'NONE',  ( -1.000000000000000000, -0.000000000000000000, -0.000000000000000000 ) ) ;
#203 = VECTOR ( 'NONE', #564, 1000.000000000000000 ) ;
#204 = ADVANCED_FACE ( 'NONE', ( #54 ), #148, .F. ) ;
#205 = ORIENTED_EDGE ( 'NONE', *, *, #528, .F. ) ;
#206 = PLANE ( 'NONE',  #12 ) ;
#207 = EDGE_LOOP ( 'NONE', ( #147, #333, #340, #419 ) ) ;
#208 = UNCERTAINTY_MEASURE_WITH_UNIT (LENGTH_MEASURE( 1.000000000000000082E-05 ), #557, 'distance_accuracy_value', 'NONE');
#209 = ORIENTED_EDGE ( 'NONE', *, *, #76, .F. ) ;
#210 = EDGE_CURVE ( 'NONE', #191, #5, #552, .T. ) ;
#211 = DIRECTION ( 'NONE',  ( 1.000000000000000000, 0.000000000000000000, -0.000000000000000000 ) ) ;
#212 = AXIS2_PLACEMENT_3D ( 'NONE', #288, #607, #232 ) ;
#213 = ADVANCED_FACE ( 'NONE', ( #413 ), #507, .F. ) ;
#214 = ORIENTED_EDGE ( 'NONE', *, *, #254, .T. ) ;
#215 = CARTESIAN_POINT ( 'NONE',  ( 4.999999999999999112, 50.00000000000000000, -23.25000000000000000 ) ) ;
#216 = VERTEX_POINT ( 'NONE', #4 ) ;
#217 = CIRCLE ( 'NONE', #293, 1.750000000000001554 ) ;
#218 = CARTESIAN_POINT ( 'NONE',  ( 4.999999999999999112, 50.00000000000000000, -16.75000000000000000 ) ) ;
#219 = CARTESIAN_POINT ( 'NONE',  ( 5.000000000000011546, 0.000000000000000000, -15.00000000000000000 ) ) ;
#220 = FACE_BOUND ( 'NONE', #299, .T. ) ;
#221 = EDGE_CURVE ( 'NONE', #514, #290, #22, .T. ) ;
#222 = CARTESIAN_POINT ( 'NONE',  ( 5.000000000000011546, 0.000000000000000000, -5.000000000000000000 ) ) ;
#223 = CARTESIAN_POINT ( 'NONE',  ( 95.00000000000000000, 50.00000000000000000, -23.25000000000000000 ) ) ;
#224 = ORIENTED_EDGE ( 'NONE', *, *, #449, .F. ) ;
#225 = FILL_AREA_STYLE ('',( #32 ) ) ;
#226 = CARTESIAN_POINT ( 'NONE',  ( 4.999999999999999112, 0.000000000000000000, -6.750000000000000000 ) ) ;
#227 = CARTESIAN_POINT ( 'NONE',  ( 95.00000000000000000, 0.000000000000000000, -23.25000000000000000 ) ) ;
#228 = FACE_OUTER_BOUND ( 'NONE', #447, .T. ) ;
#229 =( LENGTH_UNIT ( ) NAMED_UNIT ( * ) SI_UNIT ( .MILLI., .METRE. ) );
#230 = DIRECTION ( 'NONE',  ( 0.000000000000000000, -0.000000000000000000, -1.000000000000000000 ) ) ;
#231 = ADVANCED_BREP_SHAPE_REPRESENTATION ( '\X2\575053f0\X0\', ( #576, #520 ), #261 ) ;
#232 = DIRECTION ( 'NONE',  ( 0.000000000000000000, 0.000000000000000000, -1.000000000000000000 ) ) ;
#233 = VECTOR ( 'NONE', #202, 1000.000000000000000 ) ;
#234 = DIRECTION ( 'NONE',  ( -0.000000000000000000, -1.000000000000000000, -0.000000000000000000 ) ) ;
#235 = EDGE_LOOP ( 'NONE', ( #403, #224, #530, #535 ) ) ;
#236 = MECHANICAL_DESIGN_GEOMETRIC_PRESENTATION_REPRESENTATION (  '', ( #500 ), #102 ) ;
#237 = ADVANCED_FACE ( 'NONE', ( #329 ), #91, .F. ) ;
#238 = EDGE_CURVE ( 'NONE', #483, #10, #516, .T. ) ;
#239 = EDGE_LOOP ( 'NONE', ( #382, #493, #201, #110 ) ) ;
#240 = LINE ( 'NONE', #100, #51 ) ;
#241 = ORIENTED_EDGE ( 'NONE', *, *, #186, .T. ) ;
#242 = DIRECTION ( 'NONE',  ( 1.000000000000000000, 0.000000000000000000, 0.000000000000000000 ) ) ;
#243 = ORIENTED_EDGE ( 'NONE', *, *, #173, .T. ) ;
#244 = LINE ( 'NONE', #474, #165 ) ;
#245 = ORIENTED_EDGE ( 'NONE', *, *, #319, .T. ) ;
#246 = DIRECTION ( 'NONE',  ( 0.000000000000000000, 0.000000000000000000, -1.000000000000000000 ) ) ;
#247 = VERTEX_POINT ( 'NONE', #415 ) ;
#248 = DIRECTION ( 'NONE',  ( -1.000000000000000000, -0.000000000000000000, -0.000000000000000000 ) ) ;
#249 = EDGE_CURVE ( 'NONE', #423, #569, #244, .T. ) ;
#250 = ORIENTED_EDGE ( 'NONE', *, *, #376, .F. ) ;
#251 = CARTESIAN_POINT ( 'NONE',  ( 4.999999999999999112, 50.00000000000000000, -3.250000000000000444 ) ) ;
#252 = VECTOR ( 'NONE', #389, 1000.000000000000000 ) ;
#253 = VERTEX_POINT ( 'NONE', #145 ) ;
#254 = EDGE_CURVE ( 'NONE', #538, #247, #425, .T. ) ;
#255 = ORIENTED_EDGE ( 'NONE', *, *, #83, .F. ) ;
#256 = EDGE_CURVE ( 'NONE', #417, #198, #605, .T. ) ;
#257 = CARTESIAN_POINT ( 'NONE',  ( 100.0000000000000000, 50.00000000000000000, 0.000000000000000000 ) ) ;
#258 = CARTESIAN_POINT ( 'NONE',  ( 95.00000000000000000, 50.00000000000000000, -16.75000000000000000 ) ) ;
#259 = ORIENTED_EDGE ( 'NONE', *, *, #511, .F. ) ;
#260 = CARTESIAN_POINT ( 'NONE',  ( 4.999999999999999112, 0.000000000000000000, -13.25000000000000178 ) ) ;
#261 =( GEOMETRIC_REPRESENTATION_CONTEXT ( 3 ) GLOBAL_UNCERTAINTY_ASSIGNED_CONTEXT ( ( #208 ) ) GLOBAL_UNIT_ASSIGNED_CONTEXT ( ( #557, #311, #455 ) ) REPRESENTATION_CONTEXT ( 'NONE', 'WORKASPACE' ) );
#262 = DIRECTION ( 'NONE',  ( -0.000000000000000000, 1.000000000000000000, -0.000000000000000000 ) ) ;
#263 = VECTOR ( 'NONE', #536, 1000.000000000000000 ) ;
#264 = VECTOR ( 'NONE', #504, 1000.000000000000000 ) ;
#265 = AXIS2_PLACEMENT_3D ( 'NONE', #494, #27, #133 ) ;
#266 = CARTESIAN_POINT ( 'NONE',  ( 4.999999999999999112, 0.000000000000000000, -6.750000000000000000 ) ) ;
#267 = FACE_OUTER_BOUND ( 'NONE', #56, .T. ) ;
#268 = VERTEX_POINT ( 'NONE', #184 ) ;
#269 = DIRECTION ( 'NONE',  ( 0.000000000000000000, 1.000000000000000000, 0.000000000000000000 ) ) ;
#270 = CARTESIAN_POINT ( 'NONE',  ( 5.000000000000011546, 0.000000000000000000, -15.00000000000000000 ) ) ;
#271 = ADVANCED_FACE ( 'NONE', ( #562 ), #370, .F. ) ;
#272 = CARTESIAN_POINT ( 'NONE',  ( 4.999999999999999112, 50.00000000000000000, -6.750000000000000000 ) ) ;
#273 = PLANE ( 'NONE',  #472 ) ;
#274 = LINE ( 'NONE', #260, #464 ) ;
#275 = CIRCLE ( 'NONE', #351, 1.749999999999999778 ) ;
#276 = EDGE_CURVE ( 'NONE', #565, #9, #279, .T. ) ;
#277 = CARTESIAN_POINT ( 'NONE',  ( 4.999999999999999112, 0.000000000000000000, -3.250000000000000444 ) ) ;
#278 = CARTESIAN_POINT ( 'NONE',  ( 4.999999999999999112, 50.00000000000000000, -26.75000000000000355 ) ) ;
#279 = LINE ( 'NONE', #142, #310 ) ;
#280 = ADVANCED_FACE ( 'NONE', ( #282 ), #465, .F. ) ;
#281 = AXIS2_PLACEMENT_3D ( 'NONE', #103, #21, #211 ) ;
#282 = FACE_OUTER_BOUND ( 'NONE', #207, .T. ) ;
#283 = EDGE_LOOP ( 'NONE', ( #475, #431, #162, #190 ) ) ;
#284 = EDGE_LOOP ( 'NONE', ( #391, #119, #16, #527 ) ) ;
#285 = DIRECTION ( 'NONE',  ( -0.000000000000000000, -0.000000000000000000, 1.000000000000000000 ) ) ;
#286 = VECTOR ( 'NONE', #324, 1000.000000000000000 ) ;
#287 = EDGE_LOOP ( 'NONE', ( #470, #143, #58, #426 ) ) ;
#288 = CARTESIAN_POINT ( 'NONE',  ( 0.000000000000000000, 50.00000000000000000, 0.000000000000000000 ) ) ;
#289 = ORIENTED_EDGE ( 'NONE', *, *, #140, .F. ) ;
#290 = VERTEX_POINT ( 'NONE', #251 ) ;
#291 = CARTESIAN_POINT ( 'NONE',  ( 0.000000000000000000, 0.000000000000000000, 0.000000000000000000 ) ) ;
#292 = ORIENTED_EDGE ( 'NONE', *, *, #384, .F. ) ;
#293 = AXIS2_PLACEMENT_3D ( 'NONE', #506, #33, #442 ) ;
#294 = PRESENTATION_LAYER_ASSIGNMENT (  '', '', ( #500 ) ) ;
#295 = DIRECTION ( 'NONE',  ( -1.000000000000000000, 0.000000000000000000, -0.000000000000000000 ) ) ;
#296 = DIRECTION ( 'NONE',  ( 0.000000000000000000, 0.000000000000000000, 1.000000000000000000 ) ) ;
#297 = ORIENTED_EDGE ( 'NONE', *, *, #173, .F. ) ;
#298 = LINE ( 'NONE', #529, #252 ) ;
#299 = EDGE_LOOP ( 'NONE', ( #480, #200, #585, #196 ) ) ;
#300 = VERTEX_POINT ( 'NONE', #118 ) ;
#301 = LINE ( 'NONE', #584, #41 ) ;
#302 = ORIENTED_EDGE ( 'NONE', *, *, #312, .T. ) ;
#303 = VERTEX_POINT ( 'NONE', #524 ) ;
#304 = LINE ( 'NONE', #492, #383 ) ;
#305 = ORIENTED_EDGE ( 'NONE', *, *, #467, .T. ) ;
#306 = DIRECTION ( 'NONE',  ( -1.000000000000000000, -0.000000000000000000, -0.000000000000000000 ) ) ;
#307 = CARTESIAN_POINT ( 'NONE',  ( 4.999999999999999112, 50.00000000000000000, -3.250000000000000444 ) ) ;
#308 = CARTESIAN_POINT ( 'NONE',  ( 95.00000000000000000, 0.000000000000000000, -6.750000000000000000 ) ) ;
#309 = CARTESIAN_POINT ( 'NONE',  ( 95.00000000000000000, 0.000000000000000000, -23.25000000000000000 ) ) ;
#310 = VECTOR ( 'NONE', #94, 1000.000000000000000 ) ;
#311 =( NAMED_UNIT ( * ) PLANE_ANGLE_UNIT ( ) SI_UNIT ( $, .RADIAN. ) );
#312 = EDGE_CURVE ( 'NONE', #247, #10, #112, .T. ) ;
#313 = COLOUR_RGB ( '',0.7921568627450980005, 0.8196078431372548767, 0.9333333333333333481 ) ;
#314 = CARTESIAN_POINT ( 'NONE',  ( 4.999999999999999112, 0.000000000000000000, -6.750000000000000000 ) ) ;
#315 = DIRECTION ( 'NONE',  ( 1.000000000000000000, 0.000000000000000000, 0.000000000000000000 ) ) ;
#316 = CARTESIAN_POINT ( 'NONE',  ( 95.00000000000000000, 0.000000000000000000, -13.25000000000000178 ) ) ;
#317 = CARTESIAN_POINT ( 'NONE',  ( 0.000000000000000000, 0.000000000000000000, 0.000000000000000000 ) ) ;
#318 = VECTOR ( 'NONE', #285, 1000.000000000000000 ) ;
#319 = EDGE_CURVE ( 'NONE', #10, #164, #393, .T. ) ;
#320 = CARTESIAN_POINT ( 'NONE',  ( 5.000000000000011546, 50.00000000000000000, -15.00000000000000000 ) ) ;
#321 = DIRECTION ( 'NONE',  ( 0.000000000000000000, 0.000000000000000000, 1.000000000000000000 ) ) ;
#322 =( NAMED_UNIT ( * ) SI_UNIT ( $, .STERADIAN. ) SOLID_ANGLE_UNIT ( ) );
#323 = DIRECTION ( 'NONE',  ( 0.000000000000000000, 0.000000000000000000, 1.000000000000000000 ) ) ;
#324 = DIRECTION ( 'NONE',  ( -1.000000000000000000, -0.000000000000000000, -0.000000000000000000 ) ) ;
#325 = DIRECTION ( 'NONE',  ( 0.000000000000000000, 1.000000000000000000, 0.000000000000000000 ) ) ;
#326 = ORIENTED_EDGE ( 'NONE', *, *, #534, .T. ) ;
#327 = ORIENTED_EDGE ( 'NONE', *, *, #420, .F. ) ;
#328 = ADVANCED_FACE ( 'NONE', ( #346 ), #380, .F. ) ;
#329 = FACE_OUTER_BOUND ( 'NONE', #284, .T. ) ;
#330 = ORIENTED_EDGE ( 'NONE', *, *, #416, .T. ) ;
#331 = APPLICATION_CONTEXT ( 'automotive_design' ) ;
#332 = DIRECTION ( 'NONE',  ( -0.000000000000000000, 1.000000000000000000, -0.000000000000000000 ) ) ;
#333 = ORIENTED_EDGE ( 'NONE', *, *, #356, .F. ) ;
#334 = CARTESIAN_POINT ( 'NONE',  ( 4.999999999999999112, 0.000000000000000000, -16.75000000000000000 ) ) ;
#335 = ORIENTED_EDGE ( 'NONE', *, *, #192, .F. ) ;
#336 = VECTOR ( 'NONE', #570, 1000.000000000000000 ) ;
#337 = DIRECTION ( 'NONE',  ( 0.000000000000000000, 0.000000000000000000, -1.000000000000000000 ) ) ;
#338 = CARTESIAN_POINT ( 'NONE',  ( 95.00000000000000000, 50.00000000000000000, -26.75000000000000355 ) ) ;
#339 = VECTOR ( 'NONE', #306, 1000.000000000000000 ) ;
#340 = ORIENTED_EDGE ( 'NONE', *, *, #129, .F. ) ;
#341 = EDGE_CURVE ( 'NONE', #150, #290, #484, .T. ) ;
#342 = PLANE ( 'NONE',  #281 ) ;
#343 = EDGE_CURVE ( 'NONE', #538, #483, #108, .T. ) ;
#344 = ORIENTED_EDGE ( 'NONE', *, *, #561, .F. ) ;
#345 = ORIENTED_EDGE ( 'NONE', *, *, #467, .F. ) ;
#346 = FACE_OUTER_BOUND ( 'NONE', #19, .T. ) ;
#347 = ORIENTED_EDGE ( 'NONE', *, *, #469, .F. ) ;
#348 = EDGE_LOOP ( 'NONE', ( #302, #111, #158, #214 ) ) ;
#349 = DIRECTION ( 'NONE',  ( -0.000000000000000000, 1.000000000000000000, -0.000000000000000000 ) ) ;
#350 = ORIENTED_EDGE ( 'NONE', *, *, #84, .T. ) ;
#351 = AXIS2_PLACEMENT_3D ( 'NONE', #353, #526, #296 ) ;
#352 = DIRECTION ( 'NONE',  ( -1.000000000000000000, 0.000000000000000000, -0.000000000000000000 ) ) ;
#353 = CARTESIAN_POINT ( 'NONE',  ( 95.00000000000000000, 0.000000000000000000, -15.00000000000000000 ) ) ;
#354 = CARTESIAN_POINT ( 'NONE',  ( 95.00000000000000000, 50.00000000000000000, -13.25000000000000178 ) ) ;
#355 = CARTESIAN_POINT ( 'NONE',  ( 0.000000000000000000, 0.000000000000000000, 0.000000000000000000 ) ) ;
#356 = EDGE_CURVE ( 'NONE', #268, #191, #163, .T. ) ;
#357 = CARTESIAN_POINT ( 'NONE',  ( 100.0000000000000000, 50.00000000000000000, -30.00000000000000000 ) ) ;
#358 = DIRECTION ( 'NONE',  ( 0.000000000000000000, 0.000000000000000000, -1.000000000000000000 ) ) ;
#359 = VECTOR ( 'NONE', #349, 1000.000000000000000 ) ;
#360 = DIRECTION ( 'NONE',  ( -0.000000000000000000, 1.000000000000000000, -0.000000000000000000 ) ) ;
#361 = EDGE_CURVE ( 'NONE', #563, #253, #572, .T. ) ;
#362 = DIRECTION ( 'NONE',  ( 0.000000000000000000, 0.000000000000000000, 1.000000000000000000 ) ) ;
#363 = ADVANCED_FACE ( 'NONE', ( #385 ), #206, .F. ) ;
#364 = CARTESIAN_POINT ( 'NONE',  ( 4.999999999999999112, 0.000000000000000000, -16.75000000000000000 ) ) ;
#365 = DIRECTION ( 'NONE',  ( 1.000000000000000000, 0.000000000000000000, 0.000000000000000000 ) ) ;
#366 = CARTESIAN_POINT ( 'NONE',  ( 95.00000000000000000, 0.000000000000000000, -25.00000000000000000 ) ) ;
#367 = DIRECTION ( 'NONE',  ( 1.000000000000000000, 0.000000000000000000, 0.000000000000000000 ) ) ;
#368 = AXIS2_PLACEMENT_3D ( 'NONE', #495, #170, #73 ) ;
#369 = VECTOR ( 'NONE', #85, 1000.000000000000000 ) ;
#370 = CYLINDRICAL_SURFACE ( 'NONE', #175, 1.750000000000001554 ) ;
#371 = CARTESIAN_POINT ( 'NONE',  ( 0.000000000000000000, 50.00000000000000000, -30.00000000000000000 ) ) ;
#372 = ADVANCED_FACE ( 'NONE', ( #156 ), #342, .F. ) ;
#373 = CARTESIAN_POINT ( 'NONE',  ( 0.000000000000000000, 50.00000000000000000, 0.000000000000000000 ) ) ;
#374 = ORIENTED_EDGE ( 'NONE', *, *, #76, .T. ) ;
#375 = DIRECTION ( 'NONE',  ( 0.000000000000000000, 0.000000000000000000, 1.000000000000000000 ) ) ;
#376 = EDGE_CURVE ( 'NONE', #417, #538, #298, .T. ) ;
#377 = CARTESIAN_POINT ( 'NONE',  ( 100.0000000000000000, 0.000000000000000000, 0.000000000000000000 ) ) ;
#378 = EDGE_LOOP ( 'NONE', ( #522, #335, #347, #114 ) ) ;
#379 = ORIENTED_EDGE ( 'NONE', *, *, #254, .F. ) ;
#380 = PLANE ( 'NONE',  #93 ) ;
#381 = ORIENTED_EDGE ( 'NONE', *, *, #29, .T. ) ;
#382 = ORIENTED_EDGE ( 'NONE', *, *, #140, .T. ) ;
#383 = VECTOR ( 'NONE', #69, 1000.000000000000000 ) ;
#384 = EDGE_CURVE ( 'NONE', #216, #565, #575, .T. ) ;
#385 = FACE_OUTER_BOUND ( 'NONE', #287, .T. ) ;
#386 = ORIENTED_EDGE ( 'NONE', *, *, #319, .F. ) ;
#387 = CIRCLE ( 'NONE', #606, 1.749999999999999778 ) ;
#388 = ORIENTED_EDGE ( 'NONE', *, *, #129, .T. ) ;
#389 = DIRECTION ( 'NONE',  ( 0.000000000000000000, 0.000000000000000000, -1.000000000000000000 ) ) ;
#390 = VERTEX_POINT ( 'NONE', #115 ) ;
#391 = ORIENTED_EDGE ( 'NONE', *, *, #210, .T. ) ;
#392 = VECTOR ( 'NONE', #553, 1000.000000000000000 ) ;
#393 = LINE ( 'NONE', #291, #497 ) ;
#394 = ORIENTED_EDGE ( 'NONE', *, *, #159, .T. ) ;
#395 = CARTESIAN_POINT ( 'NONE',  ( 4.999999999999999112, 0.000000000000000000, -26.75000000000000355 ) ) ;
#396 = CARTESIAN_POINT ( 'NONE',  ( 95.00000000000000000, 50.00000000000000000, -6.750000000000000000 ) ) ;
#397 = VECTOR ( 'NONE', #315, 1000.000000000000000 ) ;
#398 = LINE ( 'NONE', #308, #79 ) ;
#399 = DIRECTION ( 'NONE',  ( 1.000000000000000000, 0.000000000000000000, 0.000000000000000000 ) ) ;
#400 =( NAMED_UNIT ( * ) PLANE_ANGLE_UNIT ( ) SI_UNIT ( $, .RADIAN. ) );
#401 = DIRECTION ( 'NONE',  ( -0.000000000000000000, 1.000000000000000000, -0.000000000000000000 ) ) ;
#402 = LINE ( 'NONE', #309, #25 ) ;
#403 = ORIENTED_EDGE ( 'NONE', *, *, #421, .T. ) ;
#404 = DIRECTION ( 'NONE',  ( 0.000000000000000000, -1.000000000000000000, 0.000000000000000000 ) ) ;
#405 = SURFACE_STYLE_FILL_AREA ( #225 ) ;
#406 = EDGE_CURVE ( 'NONE', #198, #247, #532, .T. ) ;
#407 = DIRECTION ( 'NONE',  ( 0.000000000000000000, 0.000000000000000000, 1.000000000000000000 ) ) ;
#408 = FACE_OUTER_BOUND ( 'NONE', #433, .T. ) ;
#409 = CARTESIAN_POINT ( 'NONE',  ( 95.00000000000000000, -0.000000000000000000, -13.25000000000000178 ) ) ;
#410 = PLANE ( 'NONE',  #183 ) ;
#411 = SURFACE_SIDE_STYLE ('',( #405 ) ) ;
#412 = CARTESIAN_POINT ( 'NONE',  ( 0.000000000000000000, 0.000000000000000000, 0.000000000000000000 ) ) ;
#413 = FACE_OUTER_BOUND ( 'NONE', #283, .T. ) ;
#414 = AXIS2_PLACEMENT_3D ( 'NONE', #364, #593, #352 ) ;
#415 = CARTESIAN_POINT ( 'NONE',  ( 100.0000000000000000, 0.000000000000000000, -30.00000000000000000 ) ) ;
#416 = EDGE_CURVE ( 'NONE', #300, #13, #301, .T. ) ;
#417 = VERTEX_POINT ( 'NONE', #257 ) ;
#418 = CARTESIAN_POINT ( 'NONE',  ( 95.00000000000000000, 50.00000000000000000, -5.000000000000000000 ) ) ;
#419 = ORIENTED_EDGE ( 'NONE', *, *, #341, .T. ) ;
#420 = EDGE_CURVE ( 'NONE', #429, #164, #427, .T. ) ;
#421 = EDGE_CURVE ( 'NONE', #390, #476, #304, .T. ) ;
#422 = CARTESIAN_POINT ( 'NONE',  ( 95.00000000000000000, 0.000000000000000000, -15.00000000000000000 ) ) ;
#423 = VERTEX_POINT ( 'NONE', #258 ) ;
#424 = AXIS2_PLACEMENT_3D ( 'NONE', #219, #26, #407 ) ;
#425 = LINE ( 'NONE', #1, #75 ) ;
#426 = ORIENTED_EDGE ( 'NONE', *, *, #420, .T. ) ;
#427 = LINE ( 'NONE', #436, #263 ) ;
#428 = EDGE_LOOP ( 'NONE', ( #435, #241, #50, #394 ) ) ;
#429 = VERTEX_POINT ( 'NONE', #478 ) ;
#430 = DIRECTION ( 'NONE',  ( -0.000000000000000000, 0.000000000000000000, 1.000000000000000000 ) ) ;
#431 = ORIENTED_EDGE ( 'NONE', *, *, #491, .F. ) ;
#432 = CARTESIAN_POINT ( 'NONE',  ( 95.00000000000000000, 0.000000000000000000, -3.250000000000000444 ) ) ;
#433 = EDGE_LOOP ( 'NONE', ( #582, #463, #46, #98 ) ) ;
#434 = ADVANCED_FACE ( 'NONE', ( #438 ), #57, .F. ) ;
#435 = ORIENTED_EDGE ( 'NONE', *, *, #384, .T. ) ;
#436 = CARTESIAN_POINT ( 'NONE',  ( 0.000000000000000000, 50.00000000000000000, 0.000000000000000000 ) ) ;
#437 = VERTEX_POINT ( 'NONE', #227 ) ;
#438 = FACE_OUTER_BOUND ( 'NONE', #512, .T. ) ;
#439 = PRODUCT_RELATED_PRODUCT_CATEGORY ( 'part', '', ( #23 ) ) ;
#440 = AXIS2_PLACEMENT_3D ( 'NONE', #600, #554, #367 ) ;
#441 = DIRECTION ( 'NONE',  ( 0.000000000000000000, 0.000000000000000000, 1.000000000000000000 ) ) ;
#442 = DIRECTION ( 'NONE',  ( 0.000000000000000000, 0.000000000000000000, 1.000000000000000000 ) ) ;
#443 = VECTOR ( 'NONE', #28, 1000.000000000000000 ) ;
#444 = VECTOR ( 'NONE', #401, 1000.000000000000000 ) ;
#445 = LINE ( 'NONE', #316, #444 ) ;
#446 = CYLINDRICAL_SURFACE ( 'NONE', #424, 1.749999999999999778 ) ;
#447 = EDGE_LOOP ( 'NONE', ( #573, #345, #344, #68 ) ) ;
#448 = ADVANCED_FACE ( 'NONE', ( #503 ), #122, .F. ) ;
#449 = EDGE_CURVE ( 'NONE', #154, #476, #445, .T. ) ;
#450 = LINE ( 'NONE', #596, #525 ) ;
#451 = DIRECTION ( 'NONE',  ( 0.000000000000000000, 1.000000000000000000, 0.000000000000000000 ) ) ;
#452 = FACE_OUTER_BOUND ( 'NONE', #235, .T. ) ;
#453 = DIRECTION ( 'NONE',  ( -0.000000000000000000, 1.000000000000000000, -0.000000000000000000 ) ) ;
#454 = CARTESIAN_POINT ( 'NONE',  ( 4.999999999999999112, 0.000000000000000000, -3.250000000000000444 ) ) ;
#455 =( NAMED_UNIT ( * ) SI_UNIT ( $, .STERADIAN. ) SOLID_ANGLE_UNIT ( ) );
#456 = DIRECTION ( 'NONE',  ( -0.000000000000000000, 1.000000000000000000, -0.000000000000000000 ) ) ;
#457 = FACE_BOUND ( 'NONE', #239, .T. ) ;
#458 = CARTESIAN_POINT ( 'NONE',  ( 5.000000000000011546, 50.00000000000000000, -5.000000000000000000 ) ) ;
#459 = EDGE_CURVE ( 'NONE', #5, #514, #176, .T. ) ;
#460 = CARTESIAN_POINT ( 'NONE',  ( 95.00000000000000000, 0.000000000000000000, -5.000000000000000000 ) ) ;
#461 = ORIENTED_EDGE ( 'NONE', *, *, #45, .F. ) ;
#462 = AXIS2_PLACEMENT_3D ( 'NONE', #8, #167, #441 ) ;
#463 = ORIENTED_EDGE ( 'NONE', *, *, #29, .F. ) ;
#464 = VECTOR ( 'NONE', #456, 1000.000000000000000 ) ;
#465 = PLANE ( 'NONE',  #153 ) ;
#466 = ORIENTED_EDGE ( 'NONE', *, *, #312, .F. ) ;
#467 = EDGE_CURVE ( 'NONE', #43, #514, #590, .T. ) ;
#468 = EDGE_CURVE ( 'NONE', #216, #303, #120, .T. ) ;
#469 = EDGE_CURVE ( 'NONE', #65, #13, #138, .T. ) ;
#470 = ORIENTED_EDGE ( 'NONE', *, *, #45, .T. ) ;
#471 = LINE ( 'NONE', #52, #132 ) ;
#472 = AXIS2_PLACEMENT_3D ( 'NONE', #317, #86, #230 ) ;
#473 = ORIENTED_EDGE ( 'NONE', *, *, #343, .T. ) ;
#474 = CARTESIAN_POINT ( 'NONE',  ( 4.999999999999999112, 50.00000000000000000, -16.75000000000000000 ) ) ;
#475 = ORIENTED_EDGE ( 'NONE', *, *, #511, .T. ) ;
#476 = VERTEX_POINT ( 'NONE', #354 ) ;
#477 = VECTOR ( 'NONE', #399, 1000.000000000000000 ) ;
#478 = CARTESIAN_POINT ( 'NONE',  ( 0.000000000000000000, 50.00000000000000000, 0.000000000000000000 ) ) ;
#479 = VECTOR ( 'NONE', #130, 1000.000000000000000 ) ;
#480 = ORIENTED_EDGE ( 'NONE', *, *, #53, .F. ) ;
#481 = DIRECTION ( 'NONE',  ( 0.000000000000000000, 0.000000000000000000, -1.000000000000000000 ) ) ;
#482 = ORIENTED_EDGE ( 'NONE', *, *, #406, .T. ) ;
#483 = VERTEX_POINT ( 'NONE', #598 ) ;
#484 = LINE ( 'NONE', #63, #545 ) ;
#485 = ADVANCED_FACE ( 'NONE', ( #408 ), #178, .F. ) ;
#486 = ORIENTED_EDGE ( 'NONE', *, *, #468, .T. ) ;
#487 = EDGE_LOOP ( 'NONE', ( #70, #205, #95, #259 ) ) ;
#488 = DIRECTION ( 'NONE',  ( -0.000000000000000000, 1.000000000000000000, -0.000000000000000000 ) ) ;
#489 = ORIENTED_EDGE ( 'NONE', *, *, #276, .T. ) ;
#490 = ORIENTED_EDGE ( 'NONE', *, *, #159, .F. ) ;
#491 = EDGE_CURVE ( 'NONE', #563, #423, #450, .T. ) ;
#492 = CARTESIAN_POINT ( 'NONE',  ( 4.999999999999999112, 50.00000000000000000, -13.25000000000000178 ) ) ;
#493 = ORIENTED_EDGE ( 'NONE', *, *, #193, .T. ) ;
#494 = CARTESIAN_POINT ( 'NONE',  ( 95.00000000000000000, 50.00000000000000000, -15.00000000000000000 ) ) ;
#495 = CARTESIAN_POINT ( 'NONE',  ( 5.000000000000011546, 50.00000000000000000, -25.00000000000000000 ) ) ;
#496 = FACE_OUTER_BOUND ( 'NONE', #566, .T. ) ;
#497 = VECTOR ( 'NONE', #15, 1000.000000000000000 ) ;
#498 = PLANE ( 'NONE',  #55 ) ;
#499 = APPLICATION_PROTOCOL_DEFINITION ( 'draft international standard', 'automotive_design', 1998, #331 ) ;
#500 = STYLED_ITEM ( 'NONE', ( #601 ), #576 ) ;
#501 = DIRECTION ( 'NONE',  ( -0.000000000000000000, 1.000000000000000000, -0.000000000000000000 ) ) ;
#502 = DIRECTION ( 'NONE',  ( 0.000000000000000000, 0.000000000000000000, 1.000000000000000000 ) ) ;
#503 = FACE_OUTER_BOUND ( 'NONE', #117, .T. ) ;
#504 = DIRECTION ( 'NONE',  ( 1.000000000000000000, 0.000000000000000000, 0.000000000000000000 ) ) ;
#505 = DIRECTION ( 'NONE',  ( 0.000000000000000000, 1.000000000000000000, 0.000000000000000000 ) ) ;
#506 = CARTESIAN_POINT ( 'NONE',  ( 95.00000000000000000, 0.000000000000000000, -25.00000000000000000 ) ) ;
#507 = CYLINDRICAL_SURFACE ( 'NONE', #104, 1.749999999999999778 ) ;
#508 = CARTESIAN_POINT ( 'NONE',  ( 100.0000000000000000, 0.000000000000000000, 0.000000000000000000 ) ) ;
#509 = DIRECTION ( 'NONE',  ( 0.000000000000000000, 0.000000000000000000, 1.000000000000000000 ) ) ;
#510 = VECTOR ( 'NONE', #248, 1000.000000000000000 ) ;
#511 = EDGE_CURVE ( 'NONE', #476, #423, #187, .T. ) ;
#512 = EDGE_LOOP ( 'NONE', ( #157, #49, #515, #305 ) ) ;
#513 = CARTESIAN_POINT ( 'NONE',  ( 100.0000000000000000, 50.00000000000000000, 0.000000000000000000 ) ) ;
#514 = VERTEX_POINT ( 'NONE', #272 ) ;
#515 = ORIENTED_EDGE ( 'NONE', *, *, #534, .F. ) ;
#516 = LINE ( 'NONE', #371, #60 ) ;
#517 = VERTEX_POINT ( 'NONE', #541 ) ;
#518 = CARTESIAN_POINT ( 'NONE',  ( 0.000000000000000000, 50.00000000000000000, 0.000000000000000000 ) ) ;
#519 = ORIENTED_EDGE ( 'NONE', *, *, #548, .T. ) ;
#520 = AXIS2_PLACEMENT_3D ( 'NONE', #603, #182, #171 ) ;
#521 = AXIS2_PLACEMENT_3D ( 'NONE', #580, #18, #160 ) ;
#522 = ORIENTED_EDGE ( 'NONE', *, *, #84, .F. ) ;
#523 = AXIS2_PLACEMENT_3D ( 'NONE', #88, #546, #502 ) ;
#524 = CARTESIAN_POINT ( 'NONE',  ( 4.999999999999999112, 50.00000000000000000, -26.75000000000000355 ) ) ;
#525 = VECTOR ( 'NONE', #360, 1000.000000000000000 ) ;
#526 = DIRECTION ( 'NONE',  ( 0.000000000000000000, 1.000000000000000000, 0.000000000000000000 ) ) ;
#527 = ORIENTED_EDGE ( 'NONE', *, *, #356, .T. ) ;
#528 = EDGE_CURVE ( 'NONE', #569, #390, #44, .T. ) ;
#529 = CARTESIAN_POINT ( 'NONE',  ( 100.0000000000000000, 50.00000000000000000, 0.000000000000000000 ) ) ;
#530 = ORIENTED_EDGE ( 'NONE', *, *, #193, .F. ) ;
#531 = ORIENTED_EDGE ( 'NONE', *, *, #92, .T. ) ;
#532 = LINE ( 'NONE', #377, #604 ) ;
#533 = APPLICATION_CONTEXT ( 'automotive_design' ) ;
#534 = EDGE_CURVE ( 'NONE', #43, #150, #387, .T. ) ;
#535 = ORIENTED_EDGE ( 'NONE', *, *, #547, .T. ) ;
#536 = DIRECTION ( 'NONE',  ( -0.000000000000000000, -1.000000000000000000, -0.000000000000000000 ) ) ;
#537 = CIRCLE ( 'NONE', #89, 1.749999999999999778 ) ;
#538 = VERTEX_POINT ( 'NONE', #357 ) ;
#539 = DIRECTION ( 'NONE',  ( 0.000000000000000000, 0.000000000000000000, 1.000000000000000000 ) ) ;
#540 = PRODUCT_DEFINITION_SHAPE ( 'NONE', 'NONE',  #555 ) ;
#541 = CARTESIAN_POINT ( 'NONE',  ( 95.00000000000000000, 0.000000000000000000, -6.750000000000000000 ) ) ;
#542 = CARTESIAN_POINT ( 'NONE',  ( 0.000000000000000000, 50.00000000000000000, 0.000000000000000000 ) ) ;
#543 = FACE_BOUND ( 'NONE', #378, .T. ) ;
#544 = LINE ( 'NONE', #215, #479 ) ;
#545 = VECTOR ( 'NONE', #149, 1000.000000000000000 ) ;
#546 = DIRECTION ( 'NONE',  ( 0.000000000000000000, 1.000000000000000000, 0.000000000000000000 ) ) ;
#547 = EDGE_CURVE ( 'NONE', #96, #390, #274, .T. ) ;
#548 = EDGE_CURVE ( 'NONE', #9, #65, #544, .T. ) ;
#549 = CARTESIAN_POINT ( 'NONE',  ( 4.999999999999999112, 0.000000000000000000, -23.25000000000000000 ) ) ;
#550 = FACE_BOUND ( 'NONE', #101, .T. ) ;
#551 = DIRECTION ( 'NONE',  ( -1.000000000000000000, -0.000000000000000000, -0.000000000000000000 ) ) ;
#552 = CIRCLE ( 'NONE', #586, 1.749999999999999778 ) ;
#553 = DIRECTION ( 'NONE',  ( -1.000000000000000000, -0.000000000000000000, -0.000000000000000000 ) ) ;
#554 = DIRECTION ( 'NONE',  ( -0.000000000000000000, 0.000000000000000000, 1.000000000000000000 ) ) ;
#555 = PRODUCT_DEFINITION ( '鏈', '', #74, #71 ) ;
#556 = DIRECTION ( 'NONE',  ( -0.000000000000000000, 1.000000000000000000, -0.000000000000000000 ) ) ;
#557 =( LENGTH_UNIT ( ) NAMED_UNIT ( * ) SI_UNIT ( .MILLI., .METRE. ) );
#558 = AXIS2_PLACEMENT_3D ( 'NONE', #366, #262, #321 ) ;
#559 = VECTOR ( 'NONE', #453, 1000.000000000000000 ) ;
#560 = DIRECTION ( 'NONE',  ( -0.000000000000000000, 1.000000000000000000, -0.000000000000000000 ) ) ;
#561 = EDGE_CURVE ( 'NONE', #517, #43, #587, .T. ) ;
#562 = FACE_OUTER_BOUND ( 'NONE', #64, .T. ) ;
#563 = VERTEX_POINT ( 'NONE', #72 ) ;
#564 = DIRECTION ( 'NONE',  ( -0.000000000000000000, -1.000000000000000000, -0.000000000000000000 ) ) ;
#565 = VERTEX_POINT ( 'NONE', #24 ) ;
#566 = EDGE_LOOP ( 'NONE', ( #243, #531, #151, #473 ) ) ;
#567 = DIRECTION ( 'NONE',  ( 1.000000000000000000, 0.000000000000000000, 0.000000000000000000 ) ) ;
#568 = ORIENTED_EDGE ( 'NONE', *, *, #186, .F. ) ;
#569 = VERTEX_POINT ( 'NONE', #218 ) ;
#570 = DIRECTION ( 'NONE',  ( -1.000000000000000000, -0.000000000000000000, -0.000000000000000000 ) ) ;
#571 = EDGE_LOOP ( 'NONE', ( #386, #466, #579, #461 ) ) ;
#572 = LINE ( 'NONE', #334, #336 ) ;
#573 = ORIENTED_EDGE ( 'NONE', *, *, #459, .T. ) ;
#574 = EDGE_CURVE ( 'NONE', #517, #5, #398, .T. ) ;
#575 = CIRCLE ( 'NONE', #521, 1.750000000000001554 ) ;
#576 = MANIFOLD_SOLID_BREP ( '阵列(线性)1', #137 ) ;
#577 = DIRECTION ( 'NONE',  ( -1.000000000000000000, 0.000000000000000000, -0.000000000000000000 ) ) ;
#578 = ORIENTED_EDGE ( 'NONE', *, *, #416, .F. ) ;
#579 = ORIENTED_EDGE ( 'NONE', *, *, #406, .F. ) ;
#580 = CARTESIAN_POINT ( 'NONE',  ( 5.000000000000011546, 0.000000000000000000, -25.00000000000000000 ) ) ;
#581 = ADVANCED_FACE ( 'NONE', ( #82, #220, #496, #543 ), #410, .F. ) ;
#582 = ORIENTED_EDGE ( 'NONE', *, *, #249, .T. ) ;
#583 = ORIENTED_EDGE ( 'NONE', *, *, #276, .F. ) ;
#584 = CARTESIAN_POINT ( 'NONE',  ( 95.00000000000000000, 0.000000000000000000, -26.75000000000000355 ) ) ;
#585 = ORIENTED_EDGE ( 'NONE', *, *, #459, .F. ) ;
#586 = AXIS2_PLACEMENT_3D ( 'NONE', #418, #325, #323 ) ;
#587 = LINE ( 'NONE', #314, #339 ) ;
#588 = CIRCLE ( 'NONE', #368, 1.750000000000001554 ) ;
#589 = CARTESIAN_POINT ( 'NONE',  ( 4.999999999999999112, 50.00000000000000000, -23.25000000000000000 ) ) ;
#590 = LINE ( 'NONE', #266, #559 ) ;
#591 = LINE ( 'NONE', #307, #397 ) ;
#592 = PRODUCT_CONTEXT ( 'NONE', #331, 'mechanical' ) ;
#593 = DIRECTION ( 'NONE',  ( 0.000000000000000000, 0.000000000000000000, -1.000000000000000000 ) ) ;
#594 = DIRECTION ( 'NONE',  ( -0.000000000000000000, 1.000000000000000000, -0.000000000000000000 ) ) ;
#595 = ADVANCED_FACE ( 'NONE', ( #452 ), #31, .F. ) ;
#596 = CARTESIAN_POINT ( 'NONE',  ( 95.00000000000000000, 0.000000000000000000, -16.75000000000000000 ) ) ;
#597 = FACE_OUTER_BOUND ( 'NONE', #113, .T. ) ;
#598 = CARTESIAN_POINT ( 'NONE',  ( 0.000000000000000000, 50.00000000000000000, -30.00000000000000000 ) ) ;
#599 = LINE ( 'NONE', #179, #392 ) ;
#600 = CARTESIAN_POINT ( 'NONE',  ( 4.999999999999999112, 0.000000000000000000, -13.25000000000000178 ) ) ;
#601 = PRESENTATION_STYLE_ASSIGNMENT (( #180 ) ) ;
#602 = FACE_OUTER_BOUND ( 'NONE', #67, .T. ) ;
#603 = CARTESIAN_POINT ( 'NONE',  ( 0.000000000000000000, 0.000000000000000000, 0.000000000000000000 ) ) ;
#604 = VECTOR ( 'NONE', #246, 1000.000000000000000 ) ;
#605 = LINE ( 'NONE', #513, #203 ) ;
#606 = AXIS2_PLACEMENT_3D ( 'NONE', #222, #505, #80 ) ;
#607 = DIRECTION ( 'NONE',  ( 1.000000000000000000, -0.000000000000000000, 0.000000000000000000 ) ) ;
ENDSEC;
END-ISO-10303-21;
