ISO-10303-21;
HEADER;
FILE_DESCRIPTION (( 'STEP AP214' ),
    '1' );
FILE_NAME ('摄像头支架上.STEP',
    '2026-07-31T06:00:11',
    ( '' ),
    ( '' ),
    'SwSTEP 2.0',
    'SolidWorks 2024',
    '' );
FILE_SCHEMA (( 'AUTOMOTIVE_DESIGN' ));
ENDSEC;

DATA;
#1 = DIRECTION ( 'NONE',  ( 0.000000000000000000, 1.000000000000000000, 0.000000000000000000 ) ) ;
#2 = CARTESIAN_POINT ( 'NONE',  ( -30.00000000000000355, 52.00000000000000711, -2.500000000000000444 ) ) ;
#3 = CARTESIAN_POINT ( 'NONE',  ( -30.00000000000000355, 2.000000000000000000, -17.50000000000000000 ) ) ;
#4 = PRODUCT_DEFINITION_FORMATION_WITH_SPECIFIED_SOURCE ( '浠', '', #90, .NOT_KNOWN. ) ;
#5 = DIRECTION ( 'NONE',  ( -0.000000000000000000, 1.000000000000000000, -0.000000000000000000 ) ) ;
#6 = LINE ( 'NONE', #595, #467 ) ;
#7 = PRODUCT_CONTEXT ( 'NONE', #86, 'mechanical' ) ;
#8 = CARTESIAN_POINT ( 'NONE',  ( -60.00000000000000000, 2.000000000000000000, 0.000000000000000000 ) ) ;
#9 = CARTESIAN_POINT ( 'NONE',  ( -3.000000000000002665, 2.000000000000000000, -23.22500000000000142 ) ) ;
#10 = DIRECTION ( 'NONE',  ( -0.000000000000000000, 1.000000000000000000, -0.000000000000000000 ) ) ;
#11 = DIRECTION ( 'NONE',  ( 0.000000000000000000, 0.000000000000000000, -1.000000000000000000 ) ) ;
#12 = PLANE ( 'NONE',  #187 ) ;
#13 = CARTESIAN_POINT ( 'NONE',  ( 0.000000000000000000, 2.000000000000000000, 15.00000000000000000 ) ) ;
#14 = DIRECTION ( 'NONE',  ( 0.000000000000000000, 1.000000000000000000, -0.000000000000000000 ) ) ;
#15 = DIRECTION ( 'NONE',  ( -0.000000000000000000, 1.000000000000000000, -0.000000000000000000 ) ) ;
#16 = CARTESIAN_POINT ( 'NONE',  ( -56.99999999999999289, 0.000000000000000000, -26.44999999999999929 ) ) ;
#17 = ORIENTED_EDGE ( 'NONE', *, *, #527, .F. ) ;
#18 = VECTOR ( 'NONE', #265, 1000.000000000000000 ) ;
#19 = EDGE_CURVE ( 'NONE', #146, #583, #349, .T. ) ;
#20 = LINE ( 'NONE', #173, #181 ) ;
#21 = ORIENTED_EDGE ( 'NONE', *, *, #593, .T. ) ;
#22 = ORIENTED_EDGE ( 'NONE', *, *, #54, .F. ) ;
#23 = AXIS2_PLACEMENT_3D ( 'NONE', #110, #76, #25 ) ;
#24 = AXIS2_PLACEMENT_3D ( 'NONE', #298, #338, #529 ) ;
#25 = DIRECTION ( 'NONE',  ( 0.000000000000000000, 0.000000000000000000, 1.000000000000000000 ) ) ;
#26 = ORIENTED_EDGE ( 'NONE', *, *, #201, .F. ) ;
#27 = AXIS2_PLACEMENT_3D ( 'NONE', #46, #1, #82 ) ;
#28 = LINE ( 'NONE', #525, #209 ) ;
#29 = EDGE_LOOP ( 'NONE', ( #474, #251, #284, #394 ) ) ;
#30 = PRODUCT_DEFINITION_CONTEXT ( 'detailed design', #215, 'design' ) ;
#31 = CARTESIAN_POINT ( 'NONE',  ( -30.00000000000000355, 52.00000000000000711, -2.500000000000000444 ) ) ;
#32 = EDGE_CURVE ( 'NONE', #213, #337, #427, .T. ) ;
#33 = ORIENTED_EDGE ( 'NONE', *, *, #290, .F. ) ;
#34 = EDGE_CURVE ( 'NONE', #492, #337, #591, .T. ) ;
#35 = CONICAL_SURFACE ( 'NONE', #109, 1.774999999999998801, 0.7853981633974489451 ) ;
#36 = DIRECTION ( 'NONE',  ( -0.000000000000000000, 1.000000000000000000, -0.000000000000000000 ) ) ;
#37 = ORIENTED_EDGE ( 'NONE', *, *, #232, .T. ) ;
#38 = EDGE_CURVE ( 'NONE', #115, #146, #308, .T. ) ;
#39 = CARTESIAN_POINT ( 'NONE',  ( -3.469446951953614189E-15, 2.000000000000000000, -30.00000000000000000 ) ) ;
#40 = CARTESIAN_POINT ( 'NONE',  ( -56.99999999999999289, 2.000000000000000000, -23.22499999999999787 ) ) ;
#41 = EDGE_CURVE ( 'NONE', #583, #146, #378, .T. ) ;
#42 = CARTESIAN_POINT ( 'NONE',  ( -3.000000000000002665, 2.000000000000000000, -25.00000000000000000 ) ) ;
#43 = DIRECTION ( 'NONE',  ( -0.000000000000000000, 1.000000000000000000, -0.000000000000000000 ) ) ;
#44 = AXIS2_PLACEMENT_3D ( 'NONE', #504, #147, #275 ) ;
#45 = CARTESIAN_POINT ( 'NONE',  ( -30.00000000000000355, 52.00000000000000711, -17.50000000000000000 ) ) ;
#46 = CARTESIAN_POINT ( 'NONE',  ( -30.00000000000000355, 2.000000000000000000, -2.500000000000000444 ) ) ;
#47 = CIRCLE ( 'NONE', #214, 15.00000000000000178 ) ;
#48 = FACE_BOUND ( 'NONE', #296, .T. ) ;
#49 = FACE_OUTER_BOUND ( 'NONE', #383, .T. ) ;
#50 = EDGE_CURVE ( 'NONE', #443, #322, #89, .T. ) ;
#51 = PLANE ( 'NONE',  #300 ) ;
#52 = CARTESIAN_POINT ( 'NONE',  ( -30.00000000000000355, 2.000000000000001776, 7.749999999999996447 ) ) ;
#53 = CARTESIAN_POINT ( 'NONE',  ( 0.000000000000000000, 2.000000000000000000, 0.000000000000000000 ) ) ;
#54 = EDGE_CURVE ( 'NONE', #337, #213, #73, .T. ) ;
#55 = CARTESIAN_POINT ( 'NONE',  ( -3.000000000000002665, 2.000000000000000000, -25.00000000000000000 ) ) ;
#56 = ORIENTED_EDGE ( 'NONE', *, *, #573, .T. ) ;
#57 = VECTOR ( 'NONE', #405, 1000.000000000000000 ) ;
#58 = CARTESIAN_POINT ( 'NONE',  ( -60.00000000000000000, 0.000000000000000000, -0.000000000000000000 ) ) ;
#59 = ORIENTED_EDGE ( 'NONE', *, *, #32, .T. ) ;
#60 = ORIENTED_EDGE ( 'NONE', *, *, #158, .F. ) ;
#61 = FACE_OUTER_BOUND ( 'NONE', #87, .T. ) ;
#62 = ORIENTED_EDGE ( 'NONE', *, *, #569, .F. ) ;
#63 = ORIENTED_EDGE ( 'NONE', *, *, #264, .F. ) ;
#64 = EDGE_CURVE ( 'NONE', #543, #526, #47, .T. ) ;
#65 = CARTESIAN_POINT ( 'NONE',  ( -30.00000000000000355, 52.00000000000000711, -12.74999999999999822 ) ) ;
#66 = ORIENTED_EDGE ( 'NONE', *, *, #371, .F. ) ;
#67 = CYLINDRICAL_SURFACE ( 'NONE', #280, 15.00000000000000178 ) ;
#68 = ORIENTED_EDGE ( 'NONE', *, *, #41, .F. ) ;
#69 = DIRECTION ( 'NONE',  ( -0.000000000000000000, -1.000000000000000000, -0.000000000000000000 ) ) ;
#70 = ORIENTED_EDGE ( 'NONE', *, *, #50, .F. ) ;
#71 = AXIS2_PLACEMENT_3D ( 'NONE', #104, #373, #150 ) ;
#72 = VERTEX_POINT ( 'NONE', #180 ) ;
#73 = CIRCLE ( 'NONE', #515, 1.774999999999998801 ) ;
#74 =( GEOMETRIC_REPRESENTATION_CONTEXT ( 3 ) GLOBAL_UNCERTAINTY_ASSIGNED_CONTEXT ( ( #536 ) ) GLOBAL_UNIT_ASSIGNED_CONTEXT ( ( #92, #453, #270 ) ) REPRESENTATION_CONTEXT ( 'NONE', 'WORKASPACE' ) );
#75 = EDGE_CURVE ( 'NONE', #121, #579, #409, .T. ) ;
#76 = DIRECTION ( 'NONE',  ( 0.000000000000000000, 1.000000000000000000, -0.000000000000000000 ) ) ;
#77 = ORIENTED_EDGE ( 'NONE', *, *, #91, .F. ) ;
#78 = CARTESIAN_POINT ( 'NONE',  ( 0.000000000000000000, 2.000000000000000000, 0.000000000000000000 ) ) ;
#79 = EDGE_CURVE ( 'NONE', #131, #72, #500, .T. ) ;
#80 = ORIENTED_EDGE ( 'NONE', *, *, #430, .T. ) ;
#81 = FACE_OUTER_BOUND ( 'NONE', #218, .T. ) ;
#82 = DIRECTION ( 'NONE',  ( 0.000000000000000000, 0.000000000000000000, 1.000000000000000000 ) ) ;
#83 = EDGE_CURVE ( 'NONE', #526, #579, #6, .T. ) ;
#84 = DIRECTION ( 'NONE',  ( 1.000000000000000000, 0.000000000000000000, -1.156482317317871725E-16 ) ) ;
#85 = CARTESIAN_POINT ( 'NONE',  ( -56.99999999999999289, 2.000000000000000000, -24.99999999999999645 ) ) ;
#86 = APPLICATION_CONTEXT ( 'automotive_design' ) ;
#87 = EDGE_LOOP ( 'NONE', ( #172, #375, #568, #217 ) ) ;
#88 = LINE ( 'NONE', #141, #255 ) ;
#89 = LINE ( 'NONE', #269, #57 ) ;
#90 = PRODUCT ( '\X2\644450cf5934652f67b64e0a\X0\', '\X2\644450cf5934652f67b64e0a\X0\', '', ( #7 ) ) ;
#91 = EDGE_CURVE ( 'NONE', #391, #162, #182, .T. ) ;
#92 =( LENGTH_UNIT ( ) NAMED_UNIT ( * ) SI_UNIT ( .MILLI., .METRE. ) );
#93 = CARTESIAN_POINT ( 'NONE',  ( -3.000000000000002665, 1.674999999999999378, -26.45000000000000284 ) ) ;
#94 = CARTESIAN_POINT ( 'NONE',  ( -3.000000000000002665, 2.000000000000000000, -23.22500000000000142 ) ) ;
#95 = AXIS2_PLACEMENT_3D ( 'NONE', #487, #472, #114 ) ;
#96 = CARTESIAN_POINT ( 'NONE',  ( -30.00000000000000355, 52.00000000000000711, -2.500000000000000444 ) ) ;
#97 = EDGE_CURVE ( 'NONE', #115, #480, #154, .T. ) ;
#98 = CARTESIAN_POINT ( 'NONE',  ( -56.99999999999999289, 2.000000000000000000, -26.77499999999999503 ) ) ;
#99 = AXIS2_PLACEMENT_3D ( 'NONE', #211, #340, #389 ) ;
#100 = LINE ( 'NONE', #506, #444 ) ;
#101 = DIRECTION ( 'NONE',  ( 1.000000000000000000, 0.000000000000000000, 0.000000000000000000 ) ) ;
#102 = CIRCLE ( 'NONE', #24, 15.00000000000000178 ) ;
#103 = EDGE_CURVE ( 'NONE', #543, #121, #498, .T. ) ;
#104 = CARTESIAN_POINT ( 'NONE',  ( -56.99999999999999289, 0.000000000000000000, -24.99999999999999645 ) ) ;
#105 = FACE_BOUND ( 'NONE', #125, .T. ) ;
#106 = PRESENTATION_LAYER_ASSIGNMENT (  '', '', ( #283 ) ) ;
#107 = SURFACE_STYLE_USAGE ( .BOTH. , #148 ) ;
#108 = VERTEX_POINT ( 'NONE', #363 ) ;
#109 = AXIS2_PLACEMENT_3D ( 'NONE', #564, #10, #510 ) ;
#110 = CARTESIAN_POINT ( 'NONE',  ( -3.000000000000002665, 0.000000000000000000, -25.00000000000000000 ) ) ;
#111 = ORIENTED_EDGE ( 'NONE', *, *, #366, .F. ) ;
#112 = EDGE_LOOP ( 'NONE', ( #534, #488, #476, #440 ) ) ;
#113 = EDGE_CURVE ( 'NONE', #518, #305, #549, .T. ) ;
#114 = DIRECTION ( 'NONE',  ( 0.000000000000000000, 0.000000000000000000, 1.000000000000000000 ) ) ;
#115 = VERTEX_POINT ( 'NONE', #93 ) ;
#116 = LINE ( 'NONE', #442, #464 ) ;
#117 = VERTEX_POINT ( 'NONE', #136 ) ;
#118 = ORIENTED_EDGE ( 'NONE', *, *, #113, .F. ) ;
#119 = FACE_OUTER_BOUND ( 'NONE', #331, .T. ) ;
#120 = VERTEX_POINT ( 'NONE', #227 ) ;
#121 = VERTEX_POINT ( 'NONE', #3 ) ;
#122 = DIRECTION ( 'NONE',  ( 0.000000000000000000, 0.000000000000000000, 1.000000000000000000 ) ) ;
#123 = EDGE_LOOP ( 'NONE', ( #572, #66, #289, #297 ) ) ;
#124 = AXIS2_PLACEMENT_3D ( 'NONE', #176, #36, #220 ) ;
#125 = EDGE_LOOP ( 'NONE', ( #210, #299 ) ) ;
#126 = AXIS2_PLACEMENT_3D ( 'NONE', #267, #454, #266 ) ;
#127 = FACE_OUTER_BOUND ( 'NONE', #261, .T. ) ;
#128 = ORIENTED_EDGE ( 'NONE', *, *, #130, .F. ) ;
#129 = FACE_BOUND ( 'NONE', #165, .T. ) ;
#130 = EDGE_CURVE ( 'NONE', #167, #322, #185, .T. ) ;
#131 = VERTEX_POINT ( 'NONE', #139 ) ;
#132 = AXIS2_PLACEMENT_3D ( 'NONE', #233, #415, #179 ) ;
#133 = MANIFOLD_SOLID_BREP ( '凸台-拉伸2', #175 ) ;
#134 = FACE_OUTER_BOUND ( 'NONE', #437, .T. ) ;
#135 = VECTOR ( 'NONE', #285, 1000.000000000000000 ) ;
#136 = CARTESIAN_POINT ( 'NONE',  ( -60.00000000000000000, 0.000000000000000000, -29.99999999999999289 ) ) ;
#137 = VECTOR ( 'NONE', #411, 1000.000000000000000 ) ;
#138 = CARTESIAN_POINT ( 'NONE',  ( -3.000000000000002665, 1.674999999999999378, -25.00000000000000000 ) ) ;
#139 = CARTESIAN_POINT ( 'NONE',  ( 0.000000000000000000, 2.000000000000000000, 15.00000000000000000 ) ) ;
#140 = ADVANCED_FACE ( 'NONE', ( #105, #332, #460 ), #152, .F. ) ;
#141 = CARTESIAN_POINT ( 'NONE',  ( 0.000000000000000000, 2.000000000000000000, 15.00000000000000000 ) ) ;
#142 = DIRECTION ( 'NONE',  ( 0.000000000000000000, 0.000000000000000000, 1.000000000000000000 ) ) ;
#143 = LINE ( 'NONE', #98, #202 ) ;
#144 = ADVANCED_FACE ( 'NONE', ( #517 ), #35, .F. ) ;
#145 = CARTESIAN_POINT ( 'NONE',  ( 0.000000000000000000, 0.000000000000000000, 15.00000000000000000 ) ) ;
#146 = VERTEX_POINT ( 'NONE', #276 ) ;
#147 = DIRECTION ( 'NONE',  ( -1.000000000000000000, 0.000000000000000000, 0.000000000000000000 ) ) ;
#148 = SURFACE_SIDE_STYLE ('',( #198 ) ) ;
#149 = ORIENTED_EDGE ( 'NONE', *, *, #79, .F. ) ;
#150 = DIRECTION ( 'NONE',  ( 0.000000000000000000, 0.000000000000000000, 1.000000000000000000 ) ) ;
#151 = ORIENTED_EDGE ( 'NONE', *, *, #158, .T. ) ;
#152 = PLANE ( 'NONE',  #489 ) ;
#153 = VERTEX_POINT ( 'NONE', #52 ) ;
#154 = CIRCLE ( 'NONE', #380, 1.449999999999999956 ) ;
#155 = DIRECTION ( 'NONE',  ( 0.000000000000000000, 0.000000000000000000, 1.000000000000000000 ) ) ;
#156 = EDGE_LOOP ( 'NONE', ( #62, #470, #336, #37 ) ) ;
#157 = ORIENTED_EDGE ( 'NONE', *, *, #244, .T. ) ;
#158 = EDGE_CURVE ( 'NONE', #322, #117, #100, .T. ) ;
#159 = DIRECTION ( 'NONE',  ( -0.000000000000000000, 1.000000000000000000, -0.000000000000000000 ) ) ;
#160 = ORIENTED_EDGE ( 'NONE', *, *, #593, .F. ) ;
#161 = VECTOR ( 'NONE', #316, 1000.000000000000000 ) ;
#162 = VERTEX_POINT ( 'NONE', #191 ) ;
#163 = ADVANCED_BREP_SHAPE_REPRESENTATION ( '\X2\644450cf5934652f67b64e0a\X0\', ( #133, #271 ), #74 ) ;
#164 = DIRECTION ( 'NONE',  ( -0.000000000000000000, 1.000000000000000000, -0.000000000000000000 ) ) ;
#165 = EDGE_LOOP ( 'NONE', ( #22, #379 ) ) ;
#166 = ADVANCED_FACE ( 'NONE', ( #235, #571 ), #420, .T. ) ;
#167 = VERTEX_POINT ( 'NONE', #514 ) ;
#168 = DIRECTION ( 'NONE',  ( 0.000000000000000000, 0.000000000000000000, -1.000000000000000000 ) ) ;
#169 = EDGE_LOOP ( 'NONE', ( #17, #221, #59, #253 ) ) ;
#170 = CARTESIAN_POINT ( 'NONE',  ( -56.99999999999999289, 2.000000000000000000, -24.99999999999999645 ) ) ;
#171 = ORIENTED_EDGE ( 'NONE', *, *, #75, .F. ) ;
#172 = ORIENTED_EDGE ( 'NONE', *, *, #396, .T. ) ;
#173 = CARTESIAN_POINT ( 'NONE',  ( 0.000000000000000000, 2.000000000000000000, -30.00000000000000000 ) ) ;
#174 = ORIENTED_EDGE ( 'NONE', *, *, #366, .T. ) ;
#175 = CLOSED_SHELL ( 'NONE', ( #319, #294, #193, #589, #482, #458, #519, #399, #419, #520, #478, #140, #303, #507, #541, #144, #166, #546, #346, #189 ) ) ;
#176 = CARTESIAN_POINT ( 'NONE',  ( -56.99999999999999289, 2.000000000000000000, -24.99999999999999645 ) ) ;
#177 = DIRECTION ( 'NONE',  ( 0.000000000000000000, 0.000000000000000000, 1.000000000000000000 ) ) ;
#178 = VECTOR ( 'NONE', #494, 1000.000000000000114 ) ;
#179 = DIRECTION ( 'NONE',  ( 0.000000000000000000, 0.000000000000000000, 1.000000000000000000 ) ) ;
#180 = CARTESIAN_POINT ( 'NONE',  ( 0.000000000000000000, 0.000000000000000000, 15.00000000000000000 ) ) ;
#181 = VECTOR ( 'NONE', #246, 1000.000000000000000 ) ;
#182 = LINE ( 'NONE', #404, #302 ) ;
#183 = VECTOR ( 'NONE', #552, 1000.000000000000000 ) ;
#184 = CYLINDRICAL_SURFACE ( 'NONE', #486, 15.00000000000000178 ) ;
#185 = LINE ( 'NONE', #312, #183 ) ;
#186 = DIRECTION ( 'NONE',  ( -0.000000000000000000, -1.000000000000000000, -0.000000000000000000 ) ) ;
#187 = AXIS2_PLACEMENT_3D ( 'NONE', #239, #521, #376 ) ;
#188 = FACE_BOUND ( 'NONE', #212, .T. ) ;
#189 = ADVANCED_FACE ( 'NONE', ( #282 ), #12, .T. ) ;
#190 = DIRECTION ( 'NONE',  ( 0.000000000000000000, 0.000000000000000000, -1.000000000000000000 ) ) ;
#191 = CARTESIAN_POINT ( 'NONE',  ( -56.99999999999999289, 1.674999999999999378, -26.44999999999999929 ) ) ;
#192 = DIRECTION ( 'NONE',  ( -0.000000000000000000, -1.000000000000000000, 0.000000000000000000 ) ) ;
#193 = ADVANCED_FACE ( 'NONE', ( #561 ), #553, .F. ) ;
#194 = CARTESIAN_POINT ( 'NONE',  ( -56.99999999999999289, 1.674999999999999378, -24.99999999999999645 ) ) ;
#195 = DIRECTION ( 'NONE',  ( 0.000000000000000000, 1.000000000000000000, -0.000000000000000000 ) ) ;
#196 = DIRECTION ( 'NONE',  ( 0.000000000000000000, 0.000000000000000000, 1.000000000000000000 ) ) ;
#197 = ORIENTED_EDGE ( 'NONE', *, *, #334, .F. ) ;
#198 = SURFACE_STYLE_FILL_AREA ( #465 ) ;
#199 = ORIENTED_EDGE ( 'NONE', *, *, #201, .T. ) ;
#200 = VECTOR ( 'NONE', #317, 1000.000000000000114 ) ;
#201 = EDGE_CURVE ( 'NONE', #492, #162, #471, .T. ) ;
#202 = VECTOR ( 'NONE', #545, 1000.000000000000114 ) ;
#203 = FACE_OUTER_BOUND ( 'NONE', #528, .T. ) ;
#204 = ORIENTED_EDGE ( 'NONE', *, *, #240, .T. ) ;
#205 = ORIENTED_EDGE ( 'NONE', *, *, #259, .F. ) ;
#206 = EDGE_CURVE ( 'NONE', #167, #434, #272, .T. ) ;
#207 = FACE_OUTER_BOUND ( 'NONE', #395, .T. ) ;
#208 = CONICAL_SURFACE ( 'NONE', #124, 1.774999999999998801, 0.7853981633974456145 ) ;
#209 = VECTOR ( 'NONE', #432, 1000.000000000000000 ) ;
#210 = ORIENTED_EDGE ( 'NONE', *, *, #307, .T. ) ;
#211 = CARTESIAN_POINT ( 'NONE',  ( -3.000000000000002665, 0.000000000000000000, -25.00000000000000000 ) ) ;
#212 = EDGE_LOOP ( 'NONE', ( #171, #388 ) ) ;
#213 = VERTEX_POINT ( 'NONE', #329 ) ;
#214 = AXIS2_PLACEMENT_3D ( 'NONE', #448, #225, #495 ) ;
#215 = APPLICATION_CONTEXT ( 'automotive_design' ) ;
#216 = DIRECTION ( 'NONE',  ( -0.000000000000000000, 1.000000000000000000, -0.000000000000000000 ) ) ;
#217 = ORIENTED_EDGE ( 'NONE', *, *, #573, .F. ) ;
#218 = EDGE_LOOP ( 'NONE', ( #292, #60, #70, #247 ) ) ;
#219 = DIRECTION ( 'NONE',  ( -0.000000000000000000, -1.000000000000000000, -0.000000000000000000 ) ) ;
#220 = DIRECTION ( 'NONE',  ( 0.000000000000000000, 0.000000000000000000, 1.000000000000000000 ) ) ;
#221 = ORIENTED_EDGE ( 'NONE', *, *, #412, .T. ) ;
#222 = EDGE_CURVE ( 'NONE', #434, #72, #559, .T. ) ;
#223 = DIRECTION ( 'NONE',  ( 1.156482317317871725E-16, -0.000000000000000000, 1.000000000000000000 ) ) ;
#224 = CARTESIAN_POINT ( 'NONE',  ( -3.000000000000002665, 2.000000000000000000, -25.00000000000000000 ) ) ;
#225 = DIRECTION ( 'NONE',  ( 0.000000000000000000, 1.000000000000000000, 0.000000000000000000 ) ) ;
#226 = LINE ( 'NONE', #229, #406 ) ;
#227 = CARTESIAN_POINT ( 'NONE',  ( -30.00000000000000355, 2.000000000000001776, -12.74999999999999822 ) ) ;
#228 = AXIS2_PLACEMENT_3D ( 'NONE', #323, #325, #563 ) ;
#229 = CARTESIAN_POINT ( 'NONE',  ( -3.469446951953614189E-15, 0.000000000000000000, -30.00000000000000000 ) ) ;
#230 = DIRECTION ( 'NONE',  ( -0.000000000000000000, 1.000000000000000000, -0.000000000000000000 ) ) ;
#231 = DIRECTION ( 'NONE',  ( -1.000000000000000000, 0.000000000000000000, 0.000000000000000000 ) ) ;
#232 = EDGE_CURVE ( 'NONE', #434, #117, #468, .T. ) ;
#233 = CARTESIAN_POINT ( 'NONE',  ( -56.99999999999999289, 2.000000000000000000, -24.99999999999999645 ) ) ;
#234 = AXIS2_PLACEMENT_3D ( 'NONE', #560, #355, #447 ) ;
#235 = FACE_OUTER_BOUND ( 'NONE', #523, .T. ) ;
#236 = APPLICATION_PROTOCOL_DEFINITION ( 'draft international standard', 'automotive_design', 1998, #86 ) ;
#237 = DIRECTION ( 'NONE',  ( 0.000000000000000000, 0.000000000000000000, -1.000000000000000000 ) ) ;
#238 =( NAMED_UNIT ( * ) PLANE_ANGLE_UNIT ( ) SI_UNIT ( $, .RADIAN. ) );
#239 = CARTESIAN_POINT ( 'NONE',  ( 0.000000000000000000, 2.000000000000000000, 0.000000000000000000 ) ) ;
#240 = EDGE_CURVE ( 'NONE', #565, #492, #343, .T. ) ;
#241 = DIRECTION ( 'NONE',  ( 0.000000000000000000, 0.000000000000000000, -1.000000000000000000 ) ) ;
#242 = CARTESIAN_POINT ( 'NONE',  ( 0.000000000000000000, 0.000000000000000000, 0.000000000000000000 ) ) ;
#243 = EDGE_LOOP ( 'NONE', ( #339, #149, #160, #575 ) ) ;
#244 = EDGE_CURVE ( 'NONE', #526, #543, #102, .T. ) ;
#245 = CIRCLE ( 'NONE', #321, 10.24999999999999645 ) ;
#246 = DIRECTION ( 'NONE',  ( -0.000000000000000000, -1.000000000000000000, -0.000000000000000000 ) ) ;
#247 = ORIENTED_EDGE ( 'NONE', *, *, #259, .T. ) ;
#248 = EDGE_LOOP ( 'NONE', ( #111, #522, #466, #293 ) ) ;
#249 = CARTESIAN_POINT ( 'NONE',  ( -30.00000000000000355, 2.000000000000001776, -2.500000000000000444 ) ) ;
#250 = EDGE_LOOP ( 'NONE', ( #535, #118 ) ) ;
#251 = ORIENTED_EDGE ( 'NONE', *, *, #38, .T. ) ;
#252 = CYLINDRICAL_SURFACE ( 'NONE', #357, 10.24999999999999645 ) ;
#253 = ORIENTED_EDGE ( 'NONE', *, *, #34, .F. ) ;
#254 = UNCERTAINTY_MEASURE_WITH_UNIT (LENGTH_MEASURE( 1.000000000000000082E-05 ), #320, 'distance_accuracy_value', 'NONE');
#255 = VECTOR ( 'NONE', #554, 1000.000000000000000 ) ;
#256 = CARTESIAN_POINT ( 'NONE',  ( -30.00000000000000355, 52.00000000000000711, -2.500000000000000444 ) ) ;
#257 = ORIENTED_EDGE ( 'NONE', *, *, #34, .T. ) ;
#258 = PLANE ( 'NONE',  #351 ) ;
#259 = EDGE_CURVE ( 'NONE', #443, #390, #20, .T. ) ;
#260 = AXIS2_PLACEMENT_3D ( 'NONE', #55, #424, #155 ) ;
#261 = EDGE_LOOP ( 'NONE', ( #580, #26, #257, #555 ) ) ;
#262 = CARTESIAN_POINT ( 'NONE',  ( -30.00000000000000355, 2.000000000000001776, -2.500000000000000444 ) ) ;
#263 = CARTESIAN_POINT ( 'NONE',  ( 0.000000000000000000, 2.000000000000000000, 15.00000000000000000 ) ) ;
#264 = EDGE_CURVE ( 'NONE', #153, #120, #513, .T. ) ;
#265 = DIRECTION ( 'NONE',  ( -0.000000000000000000, 1.000000000000000000, -0.000000000000000000 ) ) ;
#266 = DIRECTION ( 'NONE',  ( 0.000000000000000000, 0.000000000000000000, 1.000000000000000000 ) ) ;
#267 = CARTESIAN_POINT ( 'NONE',  ( -56.99999999999999289, 2.000000000000000000, -24.99999999999999645 ) ) ;
#268 = FACE_OUTER_BOUND ( 'NONE', #112, .T. ) ;
#269 = CARTESIAN_POINT ( 'NONE',  ( -3.469446951953614189E-15, 2.000000000000000000, -30.00000000000000000 ) ) ;
#270 =( NAMED_UNIT ( * ) SI_UNIT ( $, .STERADIAN. ) SOLID_ANGLE_UNIT ( ) );
#271 = AXIS2_PLACEMENT_3D ( 'NONE', #511, #369, #101 ) ;
#272 = LINE ( 'NONE', #457, #287 ) ;
#273 = AXIS2_PLACEMENT_3D ( 'NONE', #8, #231, #590 ) ;
#274 = CYLINDRICAL_SURFACE ( 'NONE', #567, 1.449999999999999956 ) ;
#275 = DIRECTION ( 'NONE',  ( 0.000000000000000000, 0.000000000000000000, 1.000000000000000000 ) ) ;
#276 = CARTESIAN_POINT ( 'NONE',  ( -3.000000000000002220, 2.000000000000000000, -26.77499999999999858 ) ) ;
#277 = DIRECTION ( 'NONE',  ( 0.000000000000000000, 0.000000000000000000, 1.000000000000000000 ) ) ;
#278 = AXIS2_PLACEMENT_3D ( 'NONE', #306, #449, #318 ) ;
#279 = CIRCLE ( 'NONE', #23, 1.449999999999999956 ) ;
#280 = AXIS2_PLACEMENT_3D ( 'NONE', #428, #69, #475 ) ;
#281 = CARTESIAN_POINT ( 'NONE',  ( 0.000000000000000000, 0.000000000000000000, 0.000000000000000000 ) ) ;
#282 = FACE_OUTER_BOUND ( 'NONE', #477, .T. ) ;
#283 = STYLED_ITEM ( 'NONE', ( #324 ), #133 ) ;
#284 = ORIENTED_EDGE ( 'NONE', *, *, #19, .T. ) ;
#285 = DIRECTION ( 'NONE',  ( 1.000000000000000000, -0.000000000000000000, 0.000000000000000000 ) ) ;
#286 = VERTEX_POINT ( 'NONE', #483 ) ;
#287 = VECTOR ( 'NONE', #372, 1000.000000000000000 ) ;
#288 = CARTESIAN_POINT ( 'NONE',  ( -3.000000000000002665, 1.674999999999999378, -25.00000000000000000 ) ) ;
#289 = ORIENTED_EDGE ( 'NONE', *, *, #402, .T. ) ;
#290 = EDGE_CURVE ( 'NONE', #518, #153, #116, .T. ) ;
#291 = FACE_OUTER_BOUND ( 'NONE', #348, .T. ) ;
#292 = ORIENTED_EDGE ( 'NONE', *, *, #569, .T. ) ;
#293 = ORIENTED_EDGE ( 'NONE', *, *, #371, .T. ) ;
#294 = ADVANCED_FACE ( 'NONE', ( #291 ), #67, .T. ) ;
#295 = DIRECTION ( 'NONE',  ( -0.000000000000000000, -1.000000000000000000, 0.000000000000000000 ) ) ;
#296 = EDGE_LOOP ( 'NONE', ( #68, #327 ) ) ;
#297 = ORIENTED_EDGE ( 'NONE', *, *, #41, .T. ) ;
#298 = CARTESIAN_POINT ( 'NONE',  ( -30.00000000000000355, 52.00000000000000711, -2.500000000000000444 ) ) ;
#299 = ORIENTED_EDGE ( 'NONE', *, *, #334, .T. ) ;
#300 = AXIS2_PLACEMENT_3D ( 'NONE', #39, #223, #84 ) ;
#301 = CARTESIAN_POINT ( 'NONE',  ( 0.000000000000000000, 0.000000000000000000, -30.00000000000000000 ) ) ;
#302 = VECTOR ( 'NONE', #548, 1000.000000000000000 ) ;
#303 = ADVANCED_FACE ( 'NONE', ( #203 ), #436, .F. ) ;
#304 = CARTESIAN_POINT ( 'NONE',  ( 0.000000000000000000, 2.000000000000000000, -30.00000000000000000 ) ) ;
#305 = VERTEX_POINT ( 'NONE', #65 ) ;
#306 = CARTESIAN_POINT ( 'NONE',  ( -56.99999999999999289, 2.000000000000000000, -24.99999999999999645 ) ) ;
#307 = EDGE_CURVE ( 'NONE', #286, #108, #279, .T. ) ;
#308 = LINE ( 'NONE', #450, #503 ) ;
#309 = AXIS2_PLACEMENT_3D ( 'NONE', #170, #164, #581 ) ;
#310 = DIRECTION ( 'NONE',  ( 0.000000000000000000, 0.000000000000000000, 1.000000000000000000 ) ) ;
#311 = CARTESIAN_POINT ( 'NONE',  ( -3.000000000000002665, 1.674999999999999378, -23.55000000000000071 ) ) ;
#312 = CARTESIAN_POINT ( 'NONE',  ( -60.00000000000000000, 2.000000000000000000, 0.000000000000000000 ) ) ;
#313 = DIRECTION ( 'NONE',  ( -0.000000000000000000, 1.000000000000000000, -0.000000000000000000 ) ) ;
#314 = DIRECTION ( 'NONE',  ( -0.000000000000000000, -1.000000000000000000, -0.000000000000000000 ) ) ;
#315 = ORIENTED_EDGE ( 'NONE', *, *, #206, .F. ) ;
#316 = DIRECTION ( 'NONE',  ( -0.000000000000000000, -1.000000000000000000, -0.000000000000000000 ) ) ;
#317 = DIRECTION ( 'NONE',  ( 0.000000000000000000, 0.7071067811865493491, 0.7071067811865456854 ) ) ;
#318 = DIRECTION ( 'NONE',  ( 0.000000000000000000, 0.000000000000000000, 1.000000000000000000 ) ) ;
#319 = ADVANCED_FACE ( 'NONE', ( #61 ), #252, .F. ) ;
#320 =( LENGTH_UNIT ( ) NAMED_UNIT ( * ) SI_UNIT ( .MILLI., .METRE. ) );
#321 = AXIS2_PLACEMENT_3D ( 'NONE', #262, #192, #277 ) ;
#322 = VERTEX_POINT ( 'NONE', #578 ) ;
#323 = CARTESIAN_POINT ( 'NONE',  ( -56.99999999999999289, 1.674999999999999378, -24.99999999999999645 ) ) ;
#324 = PRESENTATION_STYLE_ASSIGNMENT (( #107 ) ) ;
#325 = DIRECTION ( 'NONE',  ( -0.000000000000000000, 1.000000000000000000, -0.000000000000000000 ) ) ;
#326 = DIRECTION ( 'NONE',  ( 0.000000000000000000, 1.000000000000000000, 0.000000000000000000 ) ) ;
#327 = ORIENTED_EDGE ( 'NONE', *, *, #19, .F. ) ;
#328 = CIRCLE ( 'NONE', #71, 1.449999999999999956 ) ;
#329 = CARTESIAN_POINT ( 'NONE',  ( -56.99999999999999289, 2.000000000000000000, -26.77499999999999503 ) ) ;
#330 =( GEOMETRIC_REPRESENTATION_CONTEXT ( 3 ) GLOBAL_UNCERTAINTY_ASSIGNED_CONTEXT ( ( #254 ) ) GLOBAL_UNIT_ASSIGNED_CONTEXT ( ( #320, #238, #422 ) ) REPRESENTATION_CONTEXT ( 'NONE', 'WORKASPACE' ) );
#331 = EDGE_LOOP ( 'NONE', ( #33, #485, #56, #80 ) ) ;
#332 = FACE_BOUND ( 'NONE', #469, .T. ) ;
#333 = ORIENTED_EDGE ( 'NONE', *, *, #244, .F. ) ;
#334 = EDGE_CURVE ( 'NONE', #108, #286, #385, .T. ) ;
#335 = DIRECTION ( 'NONE',  ( 0.000000000000000000, 0.000000000000000000, -1.000000000000000000 ) ) ;
#336 = ORIENTED_EDGE ( 'NONE', *, *, #222, .F. ) ;
#337 = VERTEX_POINT ( 'NONE', #531 ) ;
#338 = DIRECTION ( 'NONE',  ( 0.000000000000000000, 1.000000000000000000, 0.000000000000000000 ) ) ;
#339 = ORIENTED_EDGE ( 'NONE', *, *, #222, .T. ) ;
#340 = DIRECTION ( 'NONE',  ( 0.000000000000000000, 1.000000000000000000, -0.000000000000000000 ) ) ;
#341 = ORIENTED_EDGE ( 'NONE', *, *, #91, .T. ) ;
#342 = ORIENTED_EDGE ( 'NONE', *, *, #452, .T. ) ;
#343 = LINE ( 'NONE', #397, #358 ) ;
#344 = EDGE_LOOP ( 'NONE', ( #576, #341, #345, #433 ) ) ;
#345 = ORIENTED_EDGE ( 'NONE', *, *, #527, .T. ) ;
#346 = ADVANCED_FACE ( 'NONE', ( #119 ), #439, .F. ) ;
#347 = DIRECTION ( 'NONE',  ( 0.000000000000000000, 0.000000000000000000, -1.000000000000000000 ) ) ;
#348 = EDGE_LOOP ( 'NONE', ( #333, #423, #585, #425 ) ) ;
#349 = CIRCLE ( 'NONE', #455, 1.774999999999998801 ) ;
#350 = EDGE_CURVE ( 'NONE', #72, #390, #587, .T. ) ;
#351 = AXIS2_PLACEMENT_3D ( 'NONE', #13, #11, #421 ) ;
#352 = LINE ( 'NONE', #94, #178 ) ;
#353 = ORIENTED_EDGE ( 'NONE', *, *, #79, .T. ) ;
#354 = DIRECTION ( 'NONE',  ( -0.000000000000000000, 1.000000000000000000, -0.000000000000000000 ) ) ;
#355 = DIRECTION ( 'NONE',  ( 0.000000000000000000, 1.000000000000000000, 0.000000000000000000 ) ) ;
#356 = DIRECTION ( 'NONE',  ( -0.000000000000000000, -1.000000000000000000, -0.000000000000000000 ) ) ;
#357 = AXIS2_PLACEMENT_3D ( 'NONE', #256, #393, #168 ) ;
#358 = VECTOR ( 'NONE', #159, 1000.000000000000000 ) ;
#359 = DIRECTION ( 'NONE',  ( -0.000000000000000000, 1.000000000000000000, -0.000000000000000000 ) ) ;
#360 = COLOUR_RGB ( '',0.7921568627450980005, 0.8196078431372548767, 0.9333333333333333481 ) ;
#361 = LINE ( 'NONE', #407, #161 ) ;
#362 = DIRECTION ( 'NONE',  ( 0.000000000000000000, 0.000000000000000000, 1.000000000000000000 ) ) ;
#363 = CARTESIAN_POINT ( 'NONE',  ( -3.000000000000002665, 0.000000000000000000, -26.45000000000000284 ) ) ;
#364 = AXIS2_PLACEMENT_3D ( 'NONE', #194, #15, #196 ) ;
#365 = APPLICATION_PROTOCOL_DEFINITION ( 'draft international standard', 'automotive_design', 1998, #215 ) ;
#366 = EDGE_CURVE ( 'NONE', #108, #115, #28, .T. ) ;
#367 = FACE_OUTER_BOUND ( 'NONE', #539, .T. ) ;
#368 = DIRECTION ( 'NONE',  ( 0.000000000000000000, -0.000000000000000000, 1.000000000000000000 ) ) ;
#369 = DIRECTION ( 'NONE',  ( 0.000000000000000000, 0.000000000000000000, 1.000000000000000000 ) ) ;
#370 = CARTESIAN_POINT ( 'NONE',  ( -30.00000000000000000, 52.00000000000000711, 12.50000000000000000 ) ) ;
#371 = EDGE_CURVE ( 'NONE', #480, #115, #544, .T. ) ;
#372 = DIRECTION ( 'NONE',  ( -0.000000000000000000, -1.000000000000000000, -0.000000000000000000 ) ) ;
#373 = DIRECTION ( 'NONE',  ( 0.000000000000000000, 1.000000000000000000, -0.000000000000000000 ) ) ;
#374 = DIRECTION ( 'NONE',  ( 0.000000000000000000, 0.000000000000000000, 1.000000000000000000 ) ) ;
#375 = ORIENTED_EDGE ( 'NONE', *, *, #290, .T. ) ;
#376 = DIRECTION ( 'NONE',  ( 0.000000000000000000, 0.000000000000000000, 1.000000000000000000 ) ) ;
#377 = CIRCLE ( 'NONE', #228, 1.449999999999999956 ) ;
#378 = CIRCLE ( 'NONE', #537, 1.774999999999998801 ) ;
#379 = ORIENTED_EDGE ( 'NONE', *, *, #32, .F. ) ;
#380 = AXIS2_PLACEMENT_3D ( 'NONE', #138, #313, #362 ) ;
#381 = EDGE_CURVE ( 'NONE', #565, #391, #540, .T. ) ;
#382 = DIRECTION ( 'NONE',  ( 0.000000000000000000, 1.000000000000000000, -0.000000000000000000 ) ) ;
#383 = EDGE_LOOP ( 'NONE', ( #197, #174, #398, #429 ) ) ;
#384 = CONICAL_SURFACE ( 'NONE', #278, 1.774999999999998801, 0.7853981633974456145 ) ;
#385 = CIRCLE ( 'NONE', #99, 1.449999999999999956 ) ;
#386 = PLANE ( 'NONE',  #273 ) ;
#387 = AXIS2_PLACEMENT_3D ( 'NONE', #249, #295, #574 ) ;
#388 = ORIENTED_EDGE ( 'NONE', *, *, #473, .F. ) ;
#389 = DIRECTION ( 'NONE',  ( 0.000000000000000000, 0.000000000000000000, 1.000000000000000000 ) ) ;
#390 = VERTEX_POINT ( 'NONE', #301 ) ;
#391 = VERTEX_POINT ( 'NONE', #16 ) ;
#392 = VECTOR ( 'NONE', #186, 1000.000000000000000 ) ;
#393 = DIRECTION ( 'NONE',  ( -0.000000000000000000, -1.000000000000000000, -0.000000000000000000 ) ) ;
#394 = ORIENTED_EDGE ( 'NONE', *, *, #402, .F. ) ;
#395 = EDGE_LOOP ( 'NONE', ( #588, #315, #562, #151 ) ) ;
#396 = EDGE_CURVE ( 'NONE', #305, #518, #505, .T. ) ;
#397 = CARTESIAN_POINT ( 'NONE',  ( -56.99999999999999289, 2.000000000000000000, -23.54999999999999716 ) ) ;
#398 = ORIENTED_EDGE ( 'NONE', *, *, #97, .T. ) ;
#399 = ADVANCED_FACE ( 'NONE', ( #207 ), #386, .T. ) ;
#400 = CARTESIAN_POINT ( 'NONE',  ( -56.99999999999999289, 1.674999999999999378, -23.54999999999999716 ) ) ;
#401 = ORIENTED_EDGE ( 'NONE', *, *, #381, .F. ) ;
#402 = EDGE_CURVE ( 'NONE', #480, #583, #352, .T. ) ;
#403 = FACE_OUTER_BOUND ( 'NONE', #344, .T. ) ;
#404 = CARTESIAN_POINT ( 'NONE',  ( -56.99999999999999289, 2.000000000000000000, -26.44999999999999929 ) ) ;
#405 = DIRECTION ( 'NONE',  ( -1.000000000000000000, 0.000000000000000000, 1.156482317317871478E-16 ) ) ;
#406 = VECTOR ( 'NONE', #410, 1000.000000000000000 ) ;
#407 = CARTESIAN_POINT ( 'NONE',  ( -30.00000000000000355, 52.00000000000000711, -12.74999999999999822 ) ) ;
#408 = DIRECTION ( 'NONE',  ( 0.000000000000000000, 0.000000000000000000, 1.000000000000000000 ) ) ;
#409 = CIRCLE ( 'NONE', #27, 15.00000000000000178 ) ;
#410 = DIRECTION ( 'NONE',  ( -1.000000000000000000, 0.000000000000000000, 1.156482317317871478E-16 ) ) ;
#411 = DIRECTION ( 'NONE',  ( -0.000000000000000000, -1.000000000000000000, -0.000000000000000000 ) ) ;
#412 = EDGE_CURVE ( 'NONE', #162, #213, #143, .T. ) ;
#413 = SHAPE_DEFINITION_REPRESENTATION ( #550, #163 ) ;
#414 = EDGE_CURVE ( 'NONE', #286, #480, #594, .T. ) ;
#415 = DIRECTION ( 'NONE',  ( -0.000000000000000000, 1.000000000000000000, -0.000000000000000000 ) ) ;
#416 = DIRECTION ( 'NONE',  ( -0.000000000000000000, -1.000000000000000000, -0.000000000000000000 ) ) ;
#417 = CARTESIAN_POINT ( 'NONE',  ( -3.000000000000002665, 2.000000000000000000, -25.00000000000000000 ) ) ;
#418 = CARTESIAN_POINT ( 'NONE',  ( -3.000000000000002665, 2.000000000000000000, -23.55000000000000071 ) ) ;
#419 = ADVANCED_FACE ( 'NONE', ( #509 ), #258, .F. ) ;
#420 = PLANE ( 'NONE',  #524 ) ;
#421 = DIRECTION ( 'NONE',  ( -1.000000000000000000, 0.000000000000000000, -0.000000000000000000 ) ) ;
#422 =( NAMED_UNIT ( * ) SI_UNIT ( $, .STERADIAN. ) SOLID_ANGLE_UNIT ( ) );
#423 = ORIENTED_EDGE ( 'NONE', *, *, #83, .T. ) ;
#424 = DIRECTION ( 'NONE',  ( -0.000000000000000000, 1.000000000000000000, -0.000000000000000000 ) ) ;
#425 = ORIENTED_EDGE ( 'NONE', *, *, #103, .F. ) ;
#426 = ORIENTED_EDGE ( 'NONE', *, *, #64, .T. ) ;
#427 = CIRCLE ( 'NONE', #126, 1.774999999999998801 ) ;
#428 = CARTESIAN_POINT ( 'NONE',  ( -30.00000000000000355, 52.00000000000000711, -2.500000000000000444 ) ) ;
#429 = ORIENTED_EDGE ( 'NONE', *, *, #414, .F. ) ;
#430 = EDGE_CURVE ( 'NONE', #120, #153, #245, .T. ) ;
#431 = AXIS2_PLACEMENT_3D ( 'NONE', #533, #382, #122 ) ;
#432 = DIRECTION ( 'NONE',  ( -0.000000000000000000, 1.000000000000000000, -0.000000000000000000 ) ) ;
#433 = ORIENTED_EDGE ( 'NONE', *, *, #240, .F. ) ;
#434 = VERTEX_POINT ( 'NONE', #490 ) ;
#435 = VECTOR ( 'NONE', #347, 1000.000000000000000 ) ;
#436 = CYLINDRICAL_SURFACE ( 'NONE', #309, 1.449999999999999956 ) ;
#437 = EDGE_LOOP ( 'NONE', ( #484, #128, #21, #342 ) ) ;
#438 = VECTOR ( 'NONE', #241, 1000.000000000000000 ) ;
#439 = CYLINDRICAL_SURFACE ( 'NONE', #462, 10.24999999999999645 ) ;
#440 = ORIENTED_EDGE ( 'NONE', *, *, #75, .T. ) ;
#441 = MECHANICAL_DESIGN_GEOMETRIC_PRESENTATION_REPRESENTATION (  '', ( #283 ), #330 ) ;
#442 = CARTESIAN_POINT ( 'NONE',  ( -30.00000000000000355, 52.00000000000000711, 7.749999999999996447 ) ) ;
#443 = VERTEX_POINT ( 'NONE', #304 ) ;
#444 = VECTOR ( 'NONE', #416, 1000.000000000000000 ) ;
#445 = PLANE ( 'NONE',  #577 ) ;
#446 = DIRECTION ( 'NONE',  ( 0.000000000000000000, 0.000000000000000000, 1.000000000000000000 ) ) ;
#447 = DIRECTION ( 'NONE',  ( 0.000000000000000000, 0.000000000000000000, 1.000000000000000000 ) ) ;
#448 = CARTESIAN_POINT ( 'NONE',  ( -30.00000000000000355, 52.00000000000000711, -2.500000000000000444 ) ) ;
#449 = DIRECTION ( 'NONE',  ( -0.000000000000000000, 1.000000000000000000, -0.000000000000000000 ) ) ;
#450 = CARTESIAN_POINT ( 'NONE',  ( -3.000000000000002220, 2.000000000000000000, -26.77499999999999858 ) ) ;
#451 = CARTESIAN_POINT ( 'NONE',  ( -30.00000000000000355, 52.00000000000000711, -17.50000000000000000 ) ) ;
#452 = EDGE_CURVE ( 'NONE', #131, #443, #496, .T. ) ;
#453 =( NAMED_UNIT ( * ) PLANE_ANGLE_UNIT ( ) SI_UNIT ( $, .RADIAN. ) );
#454 = DIRECTION ( 'NONE',  ( -0.000000000000000000, 1.000000000000000000, -0.000000000000000000 ) ) ;
#455 = AXIS2_PLACEMENT_3D ( 'NONE', #42, #230, #177 ) ;
#456 = CARTESIAN_POINT ( 'NONE',  ( -56.99999999999999289, 0.000000000000000000, -23.54999999999999716 ) ) ;
#457 = CARTESIAN_POINT ( 'NONE',  ( -60.00000000000000000, 2.000000000000000000, 15.00000000000000000 ) ) ;
#458 = ADVANCED_FACE ( 'NONE', ( #403 ), #463, .F. ) ;
#459 = DIRECTION ( 'NONE',  ( 0.000000000000000000, 0.000000000000000000, 1.000000000000000000 ) ) ;
#460 = FACE_OUTER_BOUND ( 'NONE', #156, .T. ) ;
#461 = CIRCLE ( 'NONE', #234, 15.00000000000000178 ) ;
#462 = AXIS2_PLACEMENT_3D ( 'NONE', #31, #219, #335 ) ;
#463 = CYLINDRICAL_SURFACE ( 'NONE', #132, 1.449999999999999956 ) ;
#464 = VECTOR ( 'NONE', #479, 1000.000000000000000 ) ;
#465 = FILL_AREA_STYLE ('',( #566 ) ) ;
#466 = ORIENTED_EDGE ( 'NONE', *, *, #414, .T. ) ;
#467 = VECTOR ( 'NONE', #356, 1000.000000000000000 ) ;
#468 = LINE ( 'NONE', #58, #438 ) ;
#469 = EDGE_LOOP ( 'NONE', ( #508, #586 ) ) ;
#470 = ORIENTED_EDGE ( 'NONE', *, *, #350, .F. ) ;
#471 = CIRCLE ( 'NONE', #364, 1.449999999999999956 ) ;
#472 = DIRECTION ( 'NONE',  ( 0.000000000000000000, 1.000000000000000000, 0.000000000000000000 ) ) ;
#473 = EDGE_CURVE ( 'NONE', #579, #121, #461, .T. ) ;
#474 = ORIENTED_EDGE ( 'NONE', *, *, #97, .F. ) ;
#475 = DIRECTION ( 'NONE',  ( 0.000000000000000000, 0.000000000000000000, -1.000000000000000000 ) ) ;
#476 = ORIENTED_EDGE ( 'NONE', *, *, #103, .T. ) ;
#477 = EDGE_LOOP ( 'NONE', ( #532, #63 ) ) ;
#478 = ADVANCED_FACE ( 'NONE', ( #188, #48, #129, #134 ), #445, .T. ) ;
#479 = DIRECTION ( 'NONE',  ( -0.000000000000000000, -1.000000000000000000, -0.000000000000000000 ) ) ;
#480 = VERTEX_POINT ( 'NONE', #311 ) ;
#481 = ORIENTED_EDGE ( 'NONE', *, *, #350, .T. ) ;
#482 = ADVANCED_FACE ( 'NONE', ( #538 ), #384, .F. ) ;
#483 = CARTESIAN_POINT ( 'NONE',  ( -3.000000000000002665, 0.000000000000000000, -23.55000000000000071 ) ) ;
#484 = ORIENTED_EDGE ( 'NONE', *, *, #50, .T. ) ;
#485 = ORIENTED_EDGE ( 'NONE', *, *, #113, .T. ) ;
#486 = AXIS2_PLACEMENT_3D ( 'NONE', #2, #314, #190 ) ;
#487 = CARTESIAN_POINT ( 'NONE',  ( -30.00000000000000355, 52.00000000000000711, -2.500000000000000444 ) ) ;
#488 = ORIENTED_EDGE ( 'NONE', *, *, #64, .F. ) ;
#489 = AXIS2_PLACEMENT_3D ( 'NONE', #281, #14, #374 ) ;
#490 = CARTESIAN_POINT ( 'NONE',  ( -60.00000000000000000, 0.000000000000000000, 15.00000000000000000 ) ) ;
#491 = PRODUCT_DEFINITION ( '鏈', '', #4, #30 ) ;
#492 = VERTEX_POINT ( 'NONE', #400 ) ;
#493 = VECTOR ( 'NONE', #237, 1000.000000000000000 ) ;
#494 = DIRECTION ( 'NONE',  ( 0.000000000000000000, 0.7071067811865470176, 0.7071067811865479058 ) ) ;
#495 = DIRECTION ( 'NONE',  ( 0.000000000000000000, 0.000000000000000000, 1.000000000000000000 ) ) ;
#496 = LINE ( 'NONE', #53, #493 ) ;
#497 = DIRECTION ( 'NONE',  ( 8.659560562354937789E-17, 0.7071067811865470176, -0.7071067811865479058 ) ) ;
#498 = LINE ( 'NONE', #451, #392 ) ;
#499 = DIRECTION ( 'NONE',  ( 0.000000000000000000, 0.000000000000000000, 1.000000000000000000 ) ) ;
#500 = LINE ( 'NONE', #263, #137 ) ;
#501 = CARTESIAN_POINT ( 'NONE',  ( -3.000000000000002665, 2.000000000000000000, -25.00000000000000000 ) ) ;
#502 = DIRECTION ( 'NONE',  ( 0.000000000000000000, 1.000000000000000000, 0.000000000000000000 ) ) ;
#503 = VECTOR ( 'NONE', #497, 1000.000000000000114 ) ;
#504 = CARTESIAN_POINT ( 'NONE',  ( 0.000000000000000000, 2.000000000000000000, 0.000000000000000000 ) ) ;
#505 = CIRCLE ( 'NONE', #95, 10.24999999999999645 ) ;
#506 = CARTESIAN_POINT ( 'NONE',  ( -60.00000000000000000, 2.000000000000000000, -29.99999999999999289 ) ) ;
#507 = ADVANCED_FACE ( 'NONE', ( #127 ), #208, .F. ) ;
#508 = ORIENTED_EDGE ( 'NONE', *, *, #381, .T. ) ;
#509 = FACE_OUTER_BOUND ( 'NONE', #243, .T. ) ;
#510 = DIRECTION ( 'NONE',  ( 0.000000000000000000, 0.000000000000000000, 1.000000000000000000 ) ) ;
#511 = CARTESIAN_POINT ( 'NONE',  ( 0.000000000000000000, 0.000000000000000000, 0.000000000000000000 ) ) ;
#512 = FACE_OUTER_BOUND ( 'NONE', #248, .T. ) ;
#513 = CIRCLE ( 'NONE', #387, 10.24999999999999645 ) ;
#514 = CARTESIAN_POINT ( 'NONE',  ( -60.00000000000000000, 2.000000000000000000, 15.00000000000000000 ) ) ;
#515 = AXIS2_PLACEMENT_3D ( 'NONE', #85, #43, #408 ) ;
#516 = AXIS2_PLACEMENT_3D ( 'NONE', #501, #5, #499 ) ;
#517 = FACE_OUTER_BOUND ( 'NONE', #123, .T. ) ;
#518 = VERTEX_POINT ( 'NONE', #542 ) ;
#519 = ADVANCED_FACE ( 'NONE', ( #81 ), #51, .F. ) ;
#520 = ADVANCED_FACE ( 'NONE', ( #367 ), #556, .F. ) ;
#521 = DIRECTION ( 'NONE',  ( 0.000000000000000000, 1.000000000000000000, -0.000000000000000000 ) ) ;
#522 = ORIENTED_EDGE ( 'NONE', *, *, #307, .F. ) ;
#523 = EDGE_LOOP ( 'NONE', ( #426, #157 ) ) ;
#524 = AXIS2_PLACEMENT_3D ( 'NONE', #96, #326, #368 ) ;
#525 = CARTESIAN_POINT ( 'NONE',  ( -3.000000000000002665, 2.000000000000000000, -26.45000000000000284 ) ) ;
#526 = VERTEX_POINT ( 'NONE', #370 ) ;
#527 = EDGE_CURVE ( 'NONE', #162, #492, #377, .T. ) ;
#528 = EDGE_LOOP ( 'NONE', ( #77, #401, #204, #199 ) ) ;
#529 = DIRECTION ( 'NONE',  ( 0.000000000000000000, 0.000000000000000000, 1.000000000000000000 ) ) ;
#530 = EDGE_CURVE ( 'NONE', #391, #565, #328, .T. ) ;
#531 = CARTESIAN_POINT ( 'NONE',  ( -56.99999999999999289, 2.000000000000000000, -23.22499999999999787 ) ) ;
#532 = ORIENTED_EDGE ( 'NONE', *, *, #430, .F. ) ;
#533 = CARTESIAN_POINT ( 'NONE',  ( -56.99999999999999289, 0.000000000000000000, -24.99999999999999645 ) ) ;
#534 = ORIENTED_EDGE ( 'NONE', *, *, #83, .F. ) ;
#535 = ORIENTED_EDGE ( 'NONE', *, *, #396, .F. ) ;
#536 = UNCERTAINTY_MEASURE_WITH_UNIT (LENGTH_MEASURE( 1.000000000000000082E-05 ), #92, 'distance_accuracy_value', 'NONE');
#537 = AXIS2_PLACEMENT_3D ( 'NONE', #224, #359, #446 ) ;
#538 = FACE_OUTER_BOUND ( 'NONE', #169, .T. ) ;
#539 = EDGE_LOOP ( 'NONE', ( #481, #205, #582, #353 ) ) ;
#540 = CIRCLE ( 'NONE', #431, 1.449999999999999956 ) ;
#541 = ADVANCED_FACE ( 'NONE', ( #512 ), #274, .F. ) ;
#542 = CARTESIAN_POINT ( 'NONE',  ( -30.00000000000000355, 52.00000000000000711, 7.749999999999996447 ) ) ;
#543 = VERTEX_POINT ( 'NONE', #45 ) ;
#544 = CIRCLE ( 'NONE', #592, 1.449999999999999956 ) ;
#545 = DIRECTION ( 'NONE',  ( 8.659560562354909439E-17, 0.7071067811865493491, -0.7071067811865456854 ) ) ;
#546 = ADVANCED_FACE ( 'NONE', ( #268 ), #184, .T. ) ;
#547 = CARTESIAN_POINT ( 'NONE',  ( -30.00000000000000355, 52.00000000000000711, -2.500000000000000444 ) ) ;
#548 = DIRECTION ( 'NONE',  ( -0.000000000000000000, 1.000000000000000000, -0.000000000000000000 ) ) ;
#549 = CIRCLE ( 'NONE', #570, 10.24999999999999645 ) ;
#550 = PRODUCT_DEFINITION_SHAPE ( 'NONE', 'NONE',  #491 ) ;
#551 = CYLINDRICAL_SURFACE ( 'NONE', #516, 1.449999999999999956 ) ;
#552 = DIRECTION ( 'NONE',  ( 0.000000000000000000, 0.000000000000000000, -1.000000000000000000 ) ) ;
#553 = CONICAL_SURFACE ( 'NONE', #260, 1.774999999999998801, 0.7853981633974489451 ) ;
#554 = DIRECTION ( 'NONE',  ( 1.000000000000000000, -0.000000000000000000, 0.000000000000000000 ) ) ;
#555 = ORIENTED_EDGE ( 'NONE', *, *, #54, .T. ) ;
#556 = PLANE ( 'NONE',  #44 ) ;
#557 = PRODUCT_RELATED_PRODUCT_CATEGORY ( 'part', '', ( #90 ) ) ;
#558 = CARTESIAN_POINT ( 'NONE',  ( -30.00000000000000000, 2.000000000000000000, 12.50000000000000000 ) ) ;
#559 = LINE ( 'NONE', #145, #135 ) ;
#560 = CARTESIAN_POINT ( 'NONE',  ( -30.00000000000000355, 2.000000000000000000, -2.500000000000000444 ) ) ;
#561 = FACE_OUTER_BOUND ( 'NONE', #29, .T. ) ;
#562 = ORIENTED_EDGE ( 'NONE', *, *, #130, .T. ) ;
#563 = DIRECTION ( 'NONE',  ( 0.000000000000000000, 0.000000000000000000, 1.000000000000000000 ) ) ;
#564 = CARTESIAN_POINT ( 'NONE',  ( -3.000000000000002665, 2.000000000000000000, -25.00000000000000000 ) ) ;
#565 = VERTEX_POINT ( 'NONE', #456 ) ;
#566 = FILL_AREA_STYLE_COLOUR ( '', #360 ) ;
#567 = AXIS2_PLACEMENT_3D ( 'NONE', #417, #354, #310 ) ;
#568 = ORIENTED_EDGE ( 'NONE', *, *, #264, .T. ) ;
#569 = EDGE_CURVE ( 'NONE', #390, #117, #226, .T. ) ;
#570 = AXIS2_PLACEMENT_3D ( 'NONE', #547, #502, #142 ) ;
#571 = FACE_BOUND ( 'NONE', #250, .T. ) ;
#572 = ORIENTED_EDGE ( 'NONE', *, *, #38, .F. ) ;
#573 = EDGE_CURVE ( 'NONE', #305, #120, #361, .T. ) ;
#574 = DIRECTION ( 'NONE',  ( 0.000000000000000000, 0.000000000000000000, 1.000000000000000000 ) ) ;
#575 = ORIENTED_EDGE ( 'NONE', *, *, #206, .T. ) ;
#576 = ORIENTED_EDGE ( 'NONE', *, *, #530, .F. ) ;
#577 = AXIS2_PLACEMENT_3D ( 'NONE', #78, #195, #459 ) ;
#578 = CARTESIAN_POINT ( 'NONE',  ( -60.00000000000000000, 2.000000000000000000, -29.99999999999999289 ) ) ;
#579 = VERTEX_POINT ( 'NONE', #558 ) ;
#580 = ORIENTED_EDGE ( 'NONE', *, *, #412, .F. ) ;
#581 = DIRECTION ( 'NONE',  ( 0.000000000000000000, 0.000000000000000000, 1.000000000000000000 ) ) ;
#582 = ORIENTED_EDGE ( 'NONE', *, *, #452, .F. ) ;
#583 = VERTEX_POINT ( 'NONE', #9 ) ;
#584 = DIRECTION ( 'NONE',  ( 0.000000000000000000, 0.000000000000000000, 1.000000000000000000 ) ) ;
#585 = ORIENTED_EDGE ( 'NONE', *, *, #473, .T. ) ;
#586 = ORIENTED_EDGE ( 'NONE', *, *, #530, .T. ) ;
#587 = LINE ( 'NONE', #242, #435 ) ;
#588 = ORIENTED_EDGE ( 'NONE', *, *, #232, .F. ) ;
#589 = ADVANCED_FACE ( 'NONE', ( #49 ), #551, .F. ) ;
#590 = DIRECTION ( 'NONE',  ( 0.000000000000000000, 0.000000000000000000, 1.000000000000000000 ) ) ;
#591 = LINE ( 'NONE', #40, #200 ) ;
#592 = AXIS2_PLACEMENT_3D ( 'NONE', #288, #216, #584 ) ;
#593 = EDGE_CURVE ( 'NONE', #167, #131, #88, .T. ) ;
#594 = LINE ( 'NONE', #418, #18 ) ;
#595 = CARTESIAN_POINT ( 'NONE',  ( -30.00000000000000000, 52.00000000000000711, 12.50000000000000000 ) ) ;
ENDSEC;
END-ISO-10303-21;
