ISO-10303-21;
HEADER;
FILE_DESCRIPTION (( 'STEP AP214' ),
    '1' );
FILE_NAME ('摄像头支架上2.STEP',
    '2026-07-30T19:04:25',
    ( '' ),
    ( '' ),
    'SwSTEP 2.0',
    'SolidWorks 2024',
    '' );
FILE_SCHEMA (( 'AUTOMOTIVE_DESIGN' ));
ENDSEC;

DATA;
#1 = AXIS2_PLACEMENT_3D ( 'NONE', #167, #150, #259 ) ;
#2 = ORIENTED_EDGE ( 'NONE', *, *, #204, .T. ) ;
#3 = ORIENTED_EDGE ( 'NONE', *, *, #125, .T. ) ;
#4 = ORIENTED_EDGE ( 'NONE', *, *, #98, .T. ) ;
#5 = ORIENTED_EDGE ( 'NONE', *, *, #121, .T. ) ;
#6 = ADVANCED_FACE ( 'NONE', ( #11 ), #146, .F. ) ;
#7 = MECHANICAL_DESIGN_GEOMETRIC_PRESENTATION_REPRESENTATION (  '', ( #237 ), #153 ) ;
#8 = DIRECTION ( 'NONE',  ( -0.000000000000000000, -1.000000000000000000, -0.000000000000000000 ) ) ;
#9 = FACE_OUTER_BOUND ( 'NONE', #123, .T. ) ;
#10 = EDGE_CURVE ( 'NONE', #106, #25, #47, .T. ) ;
#11 = FACE_OUTER_BOUND ( 'NONE', #62, .T. ) ;
#12 = DIRECTION ( 'NONE',  ( 1.000000000000000000, 0.000000000000000000, 0.000000000000000000 ) ) ;
#13 = CARTESIAN_POINT ( 'NONE',  ( 59.99999999999998579, 0.000000000000000000, -30.00000000000000000 ) ) ;
#14 = VECTOR ( 'NONE', #36, 1000.000000000000000 ) ;
#15 = FACE_OUTER_BOUND ( 'NONE', #42, .T. ) ;
#16 = CARTESIAN_POINT ( 'NONE',  ( 29.99999999999998579, 2.000000000000000000, -24.99999999999999645 ) ) ;
#17 = LINE ( 'NONE', #18, #199 ) ;
#18 = CARTESIAN_POINT ( 'NONE',  ( -1.387778780781445676E-14, 2.000000000000000000, -30.00000000000000000 ) ) ;
#19 = UNCERTAINTY_MEASURE_WITH_UNIT (LENGTH_MEASURE( 1.000000000000000082E-05 ), #129, 'distance_accuracy_value', 'NONE');
#20 = AXIS2_PLACEMENT_3D ( 'NONE', #235, #166, #29 ) ;
#21 = VECTOR ( 'NONE', #97, 1000.000000000000000 ) ;
#22 = ORIENTED_EDGE ( 'NONE', *, *, #125, .F. ) ;
#23 = VERTEX_POINT ( 'NONE', #233 ) ;
#24 = EDGE_LOOP ( 'NONE', ( #100, #5, #226, #66 ) ) ;
#25 = VERTEX_POINT ( 'NONE', #107 ) ;
#26 = ORIENTED_EDGE ( 'NONE', *, *, #203, .F. ) ;
#27 = DIRECTION ( 'NONE',  ( 0.000000000000000000, 0.000000000000000000, -1.000000000000000000 ) ) ;
#28 = LINE ( 'NONE', #71, #193 ) ;
#29 = DIRECTION ( 'NONE',  ( -4.625929269271486900E-16, 0.000000000000000000, -1.000000000000000000 ) ) ;
#30 = DIRECTION ( 'NONE',  ( -0.000000000000000000, -1.000000000000000000, -0.000000000000000000 ) ) ;
#31 = LINE ( 'NONE', #135, #52 ) ;
#32 = DIRECTION ( 'NONE',  ( 0.000000000000000000, 0.000000000000000000, -1.000000000000000000 ) ) ;
#33 = EDGE_CURVE ( 'NONE', #43, #124, #234, .T. ) ;
#34 = AXIS2_PLACEMENT_3D ( 'NONE', #158, #35, #242 ) ;
#35 = DIRECTION ( 'NONE',  ( 0.000000000000000000, -1.000000000000000000, 0.000000000000000000 ) ) ;
#36 = DIRECTION ( 'NONE',  ( -4.625929269271485914E-16, 0.000000000000000000, -1.000000000000000000 ) ) ;
#37 = EDGE_CURVE ( 'NONE', #247, #246, #211, .T. ) ;
#38 = VECTOR ( 'NONE', #133, 1000.000000000000000 ) ;
#39 = ADVANCED_BREP_SHAPE_REPRESENTATION ( '\X2\644450cf5934652f67b64e0a\X0\2', ( #188, #154 ), #192 ) ;
#40 = ORIENTED_EDGE ( 'NONE', *, *, #204, .F. ) ;
#41 = VECTOR ( 'NONE', #169, 1000.000000000000000 ) ;
#42 = EDGE_LOOP ( 'NONE', ( #64, #180, #105, #4 ) ) ;
#43 = VERTEX_POINT ( 'NONE', #256 ) ;
#44 = ORIENTED_EDGE ( 'NONE', *, *, #227, .T. ) ;
#45 = LINE ( 'NONE', #198, #79 ) ;
#46 = CARTESIAN_POINT ( 'NONE',  ( 60.00000000000000000, 0.000000000000000000, 0.000000000000000000 ) ) ;
#47 = LINE ( 'NONE', #93, #239 ) ;
#48 = DIRECTION ( 'NONE',  ( 0.000000000000000000, 0.000000000000000000, 1.000000000000000000 ) ) ;
#49 = CARTESIAN_POINT ( 'NONE',  ( 60.00000000000000000, 0.000000000000000000, 0.000000000000000000 ) ) ;
#50 = CARTESIAN_POINT ( 'NONE',  ( 29.99999999999998579, 0.000000000000000000, -24.99999999999999645 ) ) ;
#51 =( LENGTH_UNIT ( ) NAMED_UNIT ( * ) SI_UNIT ( .MILLI., .METRE. ) );
#52 = VECTOR ( 'NONE', #112, 1000.000000000000000 ) ;
#53 = EDGE_CURVE ( 'NONE', #82, #246, #28, .T. ) ;
#54 = CLOSED_SHELL ( 'NONE', ( #249, #101, #149, #155, #60, #223, #6, #178 ) ) ;
#55 =( NAMED_UNIT ( * ) SI_UNIT ( $, .STERADIAN. ) SOLID_ANGLE_UNIT ( ) );
#56 = DIRECTION ( 'NONE',  ( 0.000000000000000000, 1.000000000000000000, 0.000000000000000000 ) ) ;
#57 = LINE ( 'NONE', #58, #137 ) ;
#58 = CARTESIAN_POINT ( 'NONE',  ( 29.99999999999998579, 2.000000000000000000, -21.94999999999999929 ) ) ;
#59 = CIRCLE ( 'NONE', #181, 3.049999999999997158 ) ;
#60 = ADVANCED_FACE ( 'NONE', ( #111 ), #128, .F. ) ;
#61 = ORIENTED_EDGE ( 'NONE', *, *, #227, .F. ) ;
#62 = EDGE_LOOP ( 'NONE', ( #3, #104, #61, #186 ) ) ;
#63 = ORIENTED_EDGE ( 'NONE', *, *, #131, .T. ) ;
#64 = ORIENTED_EDGE ( 'NONE', *, *, #206, .T. ) ;
#65 = EDGE_CURVE ( 'NONE', #23, #106, #99, .T. ) ;
#66 = ORIENTED_EDGE ( 'NONE', *, *, #10, .F. ) ;
#67 = AXIS2_PLACEMENT_3D ( 'NONE', #95, #88, #27 ) ;
#68 = DIRECTION ( 'NONE',  ( 0.000000000000000000, 0.000000000000000000, 1.000000000000000000 ) ) ;
#69 = PLANE ( 'NONE',  #67 ) ;
#70 = LINE ( 'NONE', #157, #109 ) ;
#71 = CARTESIAN_POINT ( 'NONE',  ( 59.99999999999998579, 2.000000000000000000, -30.00000000000000000 ) ) ;
#72 = CYLINDRICAL_SURFACE ( 'NONE', #86, 3.049999999999997158 ) ;
#73 = DIRECTION ( 'NONE',  ( -1.000000000000000000, 0.000000000000000000, -0.000000000000000000 ) ) ;
#74 = FACE_OUTER_BOUND ( 'NONE', #122, .T. ) ;
#75 = AXIS2_PLACEMENT_3D ( 'NONE', #215, #156, #210 ) ;
#76 = LINE ( 'NONE', #113, #187 ) ;
#77 = FACE_BOUND ( 'NONE', #162, .T. ) ;
#78 = PLANE ( 'NONE',  #34 ) ;
#79 = VECTOR ( 'NONE', #12, 1000.000000000000000 ) ;
#80 = AXIS2_PLACEMENT_3D ( 'NONE', #130, #68, #253 ) ;
#81 = EDGE_CURVE ( 'NONE', #183, #43, #260, .T. ) ;
#82 = VERTEX_POINT ( 'NONE', #117 ) ;
#83 = ORIENTED_EDGE ( 'NONE', *, *, #85, .F. ) ;
#84 = ORIENTED_EDGE ( 'NONE', *, *, #65, .F. ) ;
#85 = EDGE_CURVE ( 'NONE', #182, #82, #119, .T. ) ;
#86 = AXIS2_PLACEMENT_3D ( 'NONE', #16, #216, #200 ) ;
#87 = VERTEX_POINT ( 'NONE', #243 ) ;
#88 = DIRECTION ( 'NONE',  ( 0.000000000000000000, -1.000000000000000000, 0.000000000000000000 ) ) ;
#89 =( NAMED_UNIT ( * ) SI_UNIT ( $, .STERADIAN. ) SOLID_ANGLE_UNIT ( ) );
#90 = AXIS2_PLACEMENT_3D ( 'NONE', #91, #195, #73 ) ;
#91 = CARTESIAN_POINT ( 'NONE',  ( 0.000000000000000000, 2.000000000000000000, 0.000000000000000000 ) ) ;
#92 = CARTESIAN_POINT ( 'NONE',  ( -1.387778780781445676E-14, 2.000000000000000000, -30.00000000000000000 ) ) ;
#93 = CARTESIAN_POINT ( 'NONE',  ( 29.99999999999998579, 2.000000000000000000, -28.04999999999999361 ) ) ;
#94 = FACE_BOUND ( 'NONE', #144, .T. ) ;
#95 = CARTESIAN_POINT ( 'NONE',  ( 0.000000000000000000, 0.000000000000000000, 0.000000000000000000 ) ) ;
#96 = DIRECTION ( 'NONE',  ( -0.000000000000000000, -1.000000000000000000, -0.000000000000000000 ) ) ;
#97 = DIRECTION ( 'NONE',  ( -1.000000000000000000, -0.000000000000000000, -0.000000000000000000 ) ) ;
#98 = EDGE_CURVE ( 'NONE', #183, #87, #17, .T. ) ;
#99 = CIRCLE ( 'NONE', #1, 3.049999999999997158 ) ;
#100 = ORIENTED_EDGE ( 'NONE', *, *, #255, .T. ) ;
#101 = ADVANCED_FACE ( 'NONE', ( #174, #77 ), #78, .F. ) ;
#102 = ORIENTED_EDGE ( 'NONE', *, *, #245, .F. ) ;
#103 = EDGE_LOOP ( 'NONE', ( #208, #142, #244, #230 ) ) ;
#104 = ORIENTED_EDGE ( 'NONE', *, *, #98, .F. ) ;
#105 = ORIENTED_EDGE ( 'NONE', *, *, #81, .F. ) ;
#106 = VERTEX_POINT ( 'NONE', #159 ) ;
#107 = CARTESIAN_POINT ( 'NONE',  ( 29.99999999999998579, 0.000000000000000000, -28.04999999999999361 ) ) ;
#108 = SURFACE_STYLE_USAGE ( .BOTH. , #217 ) ;
#109 = VECTOR ( 'NONE', #252, 1000.000000000000000 ) ;
#110 = PRODUCT_CONTEXT ( 'NONE', #189, 'mechanical' ) ;
#111 = FACE_OUTER_BOUND ( 'NONE', #229, .T. ) ;
#112 = DIRECTION ( 'NONE',  ( -0.000000000000000000, -1.000000000000000000, -0.000000000000000000 ) ) ;
#113 = CARTESIAN_POINT ( 'NONE',  ( -1.387778780781445676E-14, 2.000000000000000000, -30.00000000000000000 ) ) ;
#114 = PRODUCT_RELATED_PRODUCT_CATEGORY ( 'part', '', ( #219 ) ) ;
#115 =( NAMED_UNIT ( * ) PLANE_ANGLE_UNIT ( ) SI_UNIT ( $, .RADIAN. ) );
#116 = PRODUCT_DEFINITION_SHAPE ( 'NONE', 'NONE',  #160 ) ;
#117 = CARTESIAN_POINT ( 'NONE',  ( 59.99999999999998579, 2.000000000000000000, -30.00000000000000000 ) ) ;
#118 = LINE ( 'NONE', #202, #21 ) ;
#119 = LINE ( 'NONE', #175, #14 ) ;
#120 = AXIS2_PLACEMENT_3D ( 'NONE', #218, #151, #236 ) ;
#121 = EDGE_CURVE ( 'NONE', #23, #185, #57, .T. ) ;
#122 = EDGE_LOOP ( 'NONE', ( #140, #165, #83, #228 ) ) ;
#123 = EDGE_LOOP ( 'NONE', ( #184, #22, #207, #102 ) ) ;
#124 = VERTEX_POINT ( 'NONE', #139 ) ;
#125 = EDGE_CURVE ( 'NONE', #246, #87, #118, .T. ) ;
#126 = ORIENTED_EDGE ( 'NONE', *, *, #245, .T. ) ;
#127 = LINE ( 'NONE', #257, #38 ) ;
#128 = PLANE ( 'NONE',  #90 ) ;
#129 =( LENGTH_UNIT ( ) NAMED_UNIT ( * ) SI_UNIT ( .MILLI., .METRE. ) );
#130 = CARTESIAN_POINT ( 'NONE',  ( -1.387778780781445676E-14, 2.000000000000000000, -30.00000000000000000 ) ) ;
#131 = EDGE_CURVE ( 'NONE', #25, #185, #59, .T. ) ;
#132 = CARTESIAN_POINT ( 'NONE',  ( 60.00000000000000000, 2.000000000000000000, 0.000000000000000000 ) ) ;
#133 = DIRECTION ( 'NONE',  ( 4.625929269271485914E-16, -0.000000000000000000, 1.000000000000000000 ) ) ;
#134 = APPLICATION_PROTOCOL_DEFINITION ( 'draft international standard', 'automotive_design', 1998, #189 ) ;
#135 = CARTESIAN_POINT ( 'NONE',  ( 60.00000000000000000, 2.000000000000000000, 0.000000000000000000 ) ) ;
#136 = APPLICATION_PROTOCOL_DEFINITION ( 'draft international standard', 'automotive_design', 1998, #145 ) ;
#137 = VECTOR ( 'NONE', #138, 1000.000000000000000 ) ;
#138 = DIRECTION ( 'NONE',  ( -0.000000000000000000, -1.000000000000000000, -0.000000000000000000 ) ) ;
#139 = CARTESIAN_POINT ( 'NONE',  ( 0.000000000000000000, 0.000000000000000000, 0.000000000000000000 ) ) ;
#140 = ORIENTED_EDGE ( 'NONE', *, *, #37, .T. ) ;
#141 = VECTOR ( 'NONE', #214, 1000.000000000000000 ) ;
#142 = ORIENTED_EDGE ( 'NONE', *, *, #65, .T. ) ;
#143 = ORIENTED_EDGE ( 'NONE', *, *, #81, .T. ) ;
#144 = EDGE_LOOP ( 'NONE', ( #63, #209 ) ) ;
#145 = APPLICATION_CONTEXT ( 'automotive_design' ) ;
#146 = PLANE ( 'NONE',  #80 ) ;
#147 = DIRECTION ( 'NONE',  ( -0.000000000000000000, -1.000000000000000000, -0.000000000000000000 ) ) ;
#148 =( NAMED_UNIT ( * ) PLANE_ANGLE_UNIT ( ) SI_UNIT ( $, .RADIAN. ) );
#149 = ADVANCED_FACE ( 'NONE', ( #9, #94 ), #69, .T. ) ;
#150 = DIRECTION ( 'NONE',  ( 0.000000000000000000, 1.000000000000000000, 0.000000000000000000 ) ) ;
#151 = DIRECTION ( 'NONE',  ( 0.000000000000000000, 1.000000000000000000, 0.000000000000000000 ) ) ;
#152 = PLANE ( 'NONE',  #75 ) ;
#153 =( GEOMETRIC_REPRESENTATION_CONTEXT ( 3 ) GLOBAL_UNCERTAINTY_ASSIGNED_CONTEXT ( ( #19 ) ) GLOBAL_UNIT_ASSIGNED_CONTEXT ( ( #129, #115, #55 ) ) REPRESENTATION_CONTEXT ( 'NONE', 'WORKASPACE' ) );
#154 = AXIS2_PLACEMENT_3D ( 'NONE', #232, #48, #173 ) ;
#155 = ADVANCED_FACE ( 'NONE', ( #15 ), #240, .F. ) ;
#156 = DIRECTION ( 'NONE',  ( -1.000000000000000000, 0.000000000000000000, 4.625929269271486900E-16 ) ) ;
#157 = CARTESIAN_POINT ( 'NONE',  ( 0.000000000000000000, 0.000000000000000000, 0.000000000000000000 ) ) ;
#158 = CARTESIAN_POINT ( 'NONE',  ( 0.000000000000000000, 2.000000000000000000, 0.000000000000000000 ) ) ;
#159 = CARTESIAN_POINT ( 'NONE',  ( 29.99999999999998579, 2.000000000000000000, -28.04999999999999361 ) ) ;
#160 = PRODUCT_DEFINITION ( '鏈', '', #179, #176 ) ;
#161 = ORIENTED_EDGE ( 'NONE', *, *, #85, .T. ) ;
#162 = EDGE_LOOP ( 'NONE', ( #163, #84 ) ) ;
#163 = ORIENTED_EDGE ( 'NONE', *, *, #255, .F. ) ;
#164 = PRESENTATION_LAYER_ASSIGNMENT (  '', '', ( #237 ) ) ;
#165 = ORIENTED_EDGE ( 'NONE', *, *, #53, .F. ) ;
#166 = DIRECTION ( 'NONE',  ( 1.000000000000000000, 0.000000000000000000, -4.625929269271486900E-16 ) ) ;
#167 = CARTESIAN_POINT ( 'NONE',  ( 29.99999999999998579, 2.000000000000000000, -24.99999999999999645 ) ) ;
#168 = CARTESIAN_POINT ( 'NONE',  ( 29.99999999999998579, 0.000000000000000000, -21.94999999999999929 ) ) ;
#169 = DIRECTION ( 'NONE',  ( -4.625929269271485914E-16, 0.000000000000000000, -1.000000000000000000 ) ) ;
#170 = PRESENTATION_STYLE_ASSIGNMENT (( #108 ) ) ;
#171 = EDGE_CURVE ( 'NONE', #185, #25, #225, .T. ) ;
#172 = FACE_OUTER_BOUND ( 'NONE', #103, .T. ) ;
#173 = DIRECTION ( 'NONE',  ( 1.000000000000000000, 0.000000000000000000, 0.000000000000000000 ) ) ;
#174 = FACE_OUTER_BOUND ( 'NONE', #248, .T. ) ;
#175 = CARTESIAN_POINT ( 'NONE',  ( 60.00000000000000000, 2.000000000000000000, 0.000000000000000000 ) ) ;
#176 = PRODUCT_DEFINITION_CONTEXT ( 'detailed design', #145, 'design' ) ;
#177 = AXIS2_PLACEMENT_3D ( 'NONE', #50, #56, #251 ) ;
#178 = ADVANCED_FACE ( 'NONE', ( #172 ), #238, .F. ) ;
#179 = PRODUCT_DEFINITION_FORMATION_WITH_SPECIFIED_SOURCE ( '浠', '', #219, .NOT_KNOWN. ) ;
#180 = ORIENTED_EDGE ( 'NONE', *, *, #33, .F. ) ;
#181 = AXIS2_PLACEMENT_3D ( 'NONE', #222, #191, #231 ) ;
#182 = VERTEX_POINT ( 'NONE', #132 ) ;
#183 = VERTEX_POINT ( 'NONE', #92 ) ;
#184 = ORIENTED_EDGE ( 'NONE', *, *, #206, .F. ) ;
#185 = VERTEX_POINT ( 'NONE', #168 ) ;
#186 = ORIENTED_EDGE ( 'NONE', *, *, #53, .T. ) ;
#187 = VECTOR ( 'NONE', #194, 1000.000000000000000 ) ;
#188 = MANIFOLD_SOLID_BREP ( '凸台-拉伸1', #54 ) ;
#189 = APPLICATION_CONTEXT ( 'automotive_design' ) ;
#190 = CARTESIAN_POINT ( 'NONE',  ( 0.000000000000000000, 2.000000000000000000, 0.000000000000000000 ) ) ;
#191 = DIRECTION ( 'NONE',  ( 0.000000000000000000, 1.000000000000000000, 0.000000000000000000 ) ) ;
#192 =( GEOMETRIC_REPRESENTATION_CONTEXT ( 3 ) GLOBAL_UNCERTAINTY_ASSIGNED_CONTEXT ( ( #221 ) ) GLOBAL_UNIT_ASSIGNED_CONTEXT ( ( #51, #148, #89 ) ) REPRESENTATION_CONTEXT ( 'NONE', 'WORKASPACE' ) );
#193 = VECTOR ( 'NONE', #30, 1000.000000000000000 ) ;
#194 = DIRECTION ( 'NONE',  ( -1.000000000000000000, -0.000000000000000000, -0.000000000000000000 ) ) ;
#195 = DIRECTION ( 'NONE',  ( 0.000000000000000000, 0.000000000000000000, -1.000000000000000000 ) ) ;
#196 = FILL_AREA_STYLE ('',( #212 ) ) ;
#197 = SHAPE_DEFINITION_REPRESENTATION ( #116, #39 ) ;
#198 = CARTESIAN_POINT ( 'NONE',  ( 0.000000000000000000, 2.000000000000000000, 0.000000000000000000 ) ) ;
#199 = VECTOR ( 'NONE', #96, 1000.000000000000000 ) ;
#200 = DIRECTION ( 'NONE',  ( 0.000000000000000000, 0.000000000000000000, -1.000000000000000000 ) ) ;
#201 = DIRECTION ( 'NONE',  ( 4.625929269271485914E-16, -0.000000000000000000, 1.000000000000000000 ) ) ;
#202 = CARTESIAN_POINT ( 'NONE',  ( -1.387778780781445676E-14, 0.000000000000000000, -30.00000000000000000 ) ) ;
#203 = EDGE_CURVE ( 'NONE', #182, #247, #31, .T. ) ;
#204 = EDGE_CURVE ( 'NONE', #43, #182, #45, .T. ) ;
#205 = ORIENTED_EDGE ( 'NONE', *, *, #33, .T. ) ;
#206 = EDGE_CURVE ( 'NONE', #87, #124, #127, .T. ) ;
#207 = ORIENTED_EDGE ( 'NONE', *, *, #37, .F. ) ;
#208 = ORIENTED_EDGE ( 'NONE', *, *, #121, .F. ) ;
#209 = ORIENTED_EDGE ( 'NONE', *, *, #171, .T. ) ;
#210 = DIRECTION ( 'NONE',  ( 4.625929269271486900E-16, 0.000000000000000000, 1.000000000000000000 ) ) ;
#211 = LINE ( 'NONE', #49, #41 ) ;
#212 = FILL_AREA_STYLE_COLOUR ( '', #261 ) ;
#213 = AXIS2_PLACEMENT_3D ( 'NONE', #258, #147, #32 ) ;
#214 = DIRECTION ( 'NONE',  ( -0.000000000000000000, -1.000000000000000000, -0.000000000000000000 ) ) ;
#215 = CARTESIAN_POINT ( 'NONE',  ( 60.00000000000000000, 2.000000000000000000, 0.000000000000000000 ) ) ;
#216 = DIRECTION ( 'NONE',  ( -0.000000000000000000, -1.000000000000000000, -0.000000000000000000 ) ) ;
#217 = SURFACE_SIDE_STYLE ('',( #254 ) ) ;
#218 = CARTESIAN_POINT ( 'NONE',  ( 29.99999999999998579, 2.000000000000000000, -24.99999999999999645 ) ) ;
#219 = PRODUCT ( '\X2\644450cf5934652f67b64e0a\X0\2', '\X2\644450cf5934652f67b64e0a\X0\2', '', ( #110 ) ) ;
#220 = CARTESIAN_POINT ( 'NONE',  ( 0.000000000000000000, 2.000000000000000000, 0.000000000000000000 ) ) ;
#221 = UNCERTAINTY_MEASURE_WITH_UNIT (LENGTH_MEASURE( 1.000000000000000082E-05 ), #51, 'distance_accuracy_value', 'NONE');
#222 = CARTESIAN_POINT ( 'NONE',  ( 29.99999999999998579, 0.000000000000000000, -24.99999999999999645 ) ) ;
#223 = ADVANCED_FACE ( 'NONE', ( #74 ), #152, .F. ) ;
#224 = CIRCLE ( 'NONE', #120, 3.049999999999997158 ) ;
#225 = CIRCLE ( 'NONE', #177, 3.049999999999997158 ) ;
#226 = ORIENTED_EDGE ( 'NONE', *, *, #131, .F. ) ;
#227 = EDGE_CURVE ( 'NONE', #82, #183, #76, .T. ) ;
#228 = ORIENTED_EDGE ( 'NONE', *, *, #203, .T. ) ;
#229 = EDGE_LOOP ( 'NONE', ( #126, #26, #40, #205 ) ) ;
#230 = ORIENTED_EDGE ( 'NONE', *, *, #171, .F. ) ;
#231 = DIRECTION ( 'NONE',  ( 0.000000000000000000, 0.000000000000000000, 1.000000000000000000 ) ) ;
#232 = CARTESIAN_POINT ( 'NONE',  ( 0.000000000000000000, 0.000000000000000000, 0.000000000000000000 ) ) ;
#233 = CARTESIAN_POINT ( 'NONE',  ( 29.99999999999998579, 2.000000000000000000, -21.94999999999999929 ) ) ;
#234 = LINE ( 'NONE', #190, #141 ) ;
#235 = CARTESIAN_POINT ( 'NONE',  ( 0.000000000000000000, 2.000000000000000000, 0.000000000000000000 ) ) ;
#236 = DIRECTION ( 'NONE',  ( 0.000000000000000000, 0.000000000000000000, 1.000000000000000000 ) ) ;
#237 = STYLED_ITEM ( 'NONE', ( #170 ), #188 ) ;
#238 = CYLINDRICAL_SURFACE ( 'NONE', #213, 3.049999999999997158 ) ;
#239 = VECTOR ( 'NONE', #8, 1000.000000000000000 ) ;
#240 = PLANE ( 'NONE',  #20 ) ;
#241 = FACE_OUTER_BOUND ( 'NONE', #24, .T. ) ;
#242 = DIRECTION ( 'NONE',  ( 0.000000000000000000, 0.000000000000000000, -1.000000000000000000 ) ) ;
#243 = CARTESIAN_POINT ( 'NONE',  ( -1.387778780781445676E-14, 0.000000000000000000, -30.00000000000000000 ) ) ;
#244 = ORIENTED_EDGE ( 'NONE', *, *, #10, .T. ) ;
#245 = EDGE_CURVE ( 'NONE', #124, #247, #70, .T. ) ;
#246 = VERTEX_POINT ( 'NONE', #13 ) ;
#247 = VERTEX_POINT ( 'NONE', #46 ) ;
#248 = EDGE_LOOP ( 'NONE', ( #143, #2, #161, #44 ) ) ;
#249 = ADVANCED_FACE ( 'NONE', ( #241 ), #72, .F. ) ;
#250 = VECTOR ( 'NONE', #201, 1000.000000000000000 ) ;
#251 = DIRECTION ( 'NONE',  ( 0.000000000000000000, 0.000000000000000000, 1.000000000000000000 ) ) ;
#252 = DIRECTION ( 'NONE',  ( 1.000000000000000000, 0.000000000000000000, 0.000000000000000000 ) ) ;
#253 = DIRECTION ( 'NONE',  ( 1.000000000000000000, 0.000000000000000000, -0.000000000000000000 ) ) ;
#254 = SURFACE_STYLE_FILL_AREA ( #196 ) ;
#255 = EDGE_CURVE ( 'NONE', #106, #23, #224, .T. ) ;
#256 = CARTESIAN_POINT ( 'NONE',  ( 0.000000000000000000, 2.000000000000000000, 0.000000000000000000 ) ) ;
#257 = CARTESIAN_POINT ( 'NONE',  ( 0.000000000000000000, 0.000000000000000000, 0.000000000000000000 ) ) ;
#258 = CARTESIAN_POINT ( 'NONE',  ( 29.99999999999998579, 2.000000000000000000, -24.99999999999999645 ) ) ;
#259 = DIRECTION ( 'NONE',  ( 0.000000000000000000, 0.000000000000000000, 1.000000000000000000 ) ) ;
#260 = LINE ( 'NONE', #220, #250 ) ;
#261 = COLOUR_RGB ( '',0.7921568627450980005, 0.8196078431372548767, 0.9333333333333333481 ) ;
ENDSEC;
END-ISO-10303-21;
