ISO-10303-21;
HEADER;
FILE_DESCRIPTION (( 'STEP AP214' ),
    '1' );
FILE_NAME ('Ö§¼Ü.STEP',
    '2026-04-13T03:46:22',
    ( '' ),
    ( '' ),
    'SwSTEP 2.0',
    'SolidWorks 2024',
    '' );
FILE_SCHEMA (( 'AUTOMOTIVE_DESIGN' ));
ENDSEC;

DATA;
#1 = SPHERICAL_SURFACE ( 'NONE', #437, 2.000000000000000000 ) ;
#2 = CARTESIAN_POINT ( 'NONE',  ( 50.00000000000000000, 2.000000000000000000, -2.000000000000000000 ) ) ;
#3 = AXIS2_PLACEMENT_3D ( 'NONE', #87, #1056, #904 ) ;
#4 = DIRECTION ( 'NONE',  ( -0.000000000000000000, -1.000000000000000000, 0.000000000000000000 ) ) ;
#5 = EDGE_LOOP ( 'NONE', ( #545, #644, #312, #842, #255, #395, #1038, #233, #661 ) ) ;
#6 = DIRECTION ( 'NONE',  ( 1.000000000000000000, 0.000000000000000000, 0.000000000000000000 ) ) ;
#7 = CARTESIAN_POINT ( 'NONE',  ( 2.000000000000000000, 4.999999999999976019, -23.00000000000000000 ) ) ;
#8 = ADVANCED_FACE ( 'NONE', ( #69 ), #568, .T. ) ;
#9 = ORIENTED_EDGE ( 'NONE', *, *, #17, .F. ) ;
#10 = CARTESIAN_POINT ( 'NONE',  ( 0.8284271247461902909, 4.336808689942017736E-16, -4.336808689942017736E-16 ) ) ;
#11 = DIRECTION ( 'NONE',  ( 0.000000000000000000, 0.000000000000000000, -1.000000000000000000 ) ) ;
#12 = ORIENTED_EDGE ( 'NONE', *, *, #223, .T. ) ;
#13 = VECTOR ( 'NONE', #241, 1000.000000000000000 ) ;
#14 = CARTESIAN_POINT ( 'NONE',  ( 11.59999999999999787, 27.23850607716956418, 5.000000000000000000 ) ) ;
#15 = CARTESIAN_POINT ( 'NONE',  ( 0.000000000000000000, 2.000000000000000000, -23.00000000000000000 ) ) ;
#16 = ORIENTED_EDGE ( 'NONE', *, *, #955, .T. ) ;
#17 = EDGE_CURVE ( 'NONE', #423, #264, #75, .T. ) ;
#18 = EDGE_CURVE ( 'NONE', #382, #547, #892, .T. ) ;
#19 = CARTESIAN_POINT ( 'NONE',  ( 2.000000000000000000, 43.33950606236671632, -3.000000000000000000 ) ) ;
#20 = CYLINDRICAL_SURFACE ( 'NONE', #24, 2.000000000000000000 ) ;
#21 = AXIS2_PLACEMENT_3D ( 'NONE', #719, #714, #1053 ) ;
#22 = VERTEX_POINT ( 'NONE', #721 ) ;
#23 = CARTESIAN_POINT ( 'NONE',  ( 0.000000000000000000, 45.33950606236671632, -5.000000000000000000 ) ) ;
#24 = AXIS2_PLACEMENT_3D ( 'NONE', #834, #186, #764 ) ;
#25 = DIRECTION ( 'NONE',  ( 0.000000000000000000, 0.000000000000000000, -1.000000000000000000 ) ) ;
#26 = ORIENTED_EDGE ( 'NONE', *, *, #663, .T. ) ;
#27 = CIRCLE ( 'NONE', #624, 7.000000000000000888 ) ;
#28 = DIRECTION ( 'NONE',  ( -1.000000000000000000, -0.000000000000000000, -0.000000000000000000 ) ) ;
#29 = VECTOR ( 'NONE', #260, 1000.000000000000000 ) ;
#30 = ADVANCED_FACE ( 'NONE', ( #154 ), #736, .T. ) ;
#31 = CARTESIAN_POINT ( 'NONE',  ( 48.00000000000000000, 2.999999999999975575, -23.00000000000000000 ) ) ;
#32 = EDGE_LOOP ( 'NONE', ( #413, #77, #550, #984 ) ) ;
#33 = EDGE_CURVE ( 'NONE', #426, #619, #784, .T. ) ;
#34 = CARTESIAN_POINT ( 'NONE',  ( 11.17225658652869313, 43.44050604756386491, -4.997448122728141762 ) ) ;
#35 = EDGE_CURVE ( 'NONE', #619, #1045, #175, .T. ) ;
#36 = CARTESIAN_POINT ( 'NONE',  ( 11.59999999999999964, 35.33950606236671632, 5.000000000000000000 ) ) ;
#37 = ORIENTED_EDGE ( 'NONE', *, *, #145, .T. ) ;
#38 = DIRECTION ( 'NONE',  ( 0.000000000000000000, -1.000000000000000000, 0.000000000000000000 ) ) ;
#39 = CIRCLE ( 'NONE', #314, 2.000000000000000000 ) ;
#40 = DIRECTION ( 'NONE',  ( -0.000000000000000000, -0.000000000000000000, -1.000000000000000000 ) ) ;
#41 = ORIENTED_EDGE ( 'NONE', *, *, #61, .T. ) ;
#42 = DIRECTION ( 'NONE',  ( -0.000000000000000000, 1.000000000000000000, -0.000000000000000000 ) ) ;
#43 = CIRCLE ( 'NONE', #235, 8.100999985197150366 ) ;
#44 = APPLICATION_PROTOCOL_DEFINITION ( 'draft international standard', 'automotive_design', 1998, #772 ) ;
#45 = CARTESIAN_POINT ( 'NONE',  ( 11.17225658652869313, 43.44050604756386491, -0.002551877271858831592 ) ) ;
#46 = ORIENTED_EDGE ( 'NONE', *, *, #572, .F. ) ;
#47 = CARTESIAN_POINT ( 'NONE',  ( 48.00000000000000000, 43.33950606236671632, 0.000000000000000000 ) ) ;
#48 = ORIENTED_EDGE ( 'NONE', *, *, #663, .F. ) ;
#49 = CLOSED_SHELL ( 'NONE', ( #228, #284, #902, #259, #444, #822, #683, #476, #798, #309, #929, #604, #518, #930, #173, #633, #821, #62, #920, #475, #138, #1062, #850, #523, #125, #598, #480, #365, #631, #274, #600, #261, #30, #8, #65, #810, #932 ) ) ;
#50 = DIRECTION ( 'NONE',  ( 0.000000000000000000, 0.000000000000000000, -1.000000000000000000 ) ) ;
#51 = EDGE_LOOP ( 'NONE', ( #408, #577, #704, #1016 ) ) ;
#52 = VECTOR ( 'NONE', #874, 1000.000000000000000 ) ;
#53 = CARTESIAN_POINT ( 'NONE',  ( 50.00000000000000000, 2.000000000000000000, -23.00000000000000000 ) ) ;
#54 = SPHERICAL_SURFACE ( 'NONE', #248, 2.000000000000000000 ) ;
#55 = ORIENTED_EDGE ( 'NONE', *, *, #86, .T. ) ;
#56 = DIRECTION ( 'NONE',  ( 1.000000000000000000, -0.000000000000000000, -0.000000000000000000 ) ) ;
#57 = VERTEX_POINT ( 'NONE', #238 ) ;
#58 = ORIENTED_EDGE ( 'NONE', *, *, #584, .T. ) ;
#59 = LINE ( 'NONE', #554, #576 ) ;
#60 = DIRECTION ( 'NONE',  ( 0.000000000000000000, 0.000000000000000000, 1.000000000000000000 ) ) ;
#61 = EDGE_CURVE ( 'NONE', #351, #426, #897, .T. ) ;
#62 = ADVANCED_FACE ( 'NONE', ( #660 ), #90, .T. ) ;
#63 = ORIENTED_EDGE ( 'NONE', *, *, #371, .F. ) ;
#64 = ORIENTED_EDGE ( 'NONE', *, *, #855, .T. ) ;
#65 = ADVANCED_FACE ( 'NONE', ( #987 ), #809, .T. ) ;
#66 = CARTESIAN_POINT ( 'NONE',  ( 3.499000014802848391, 35.33950606236671632, 5.000000000000000000 ) ) ;
#67 = PLANE ( 'NONE',  #239 ) ;
#68 = EDGE_CURVE ( 'NONE', #301, #972, #640, .T. ) ;
#69 = FACE_OUTER_BOUND ( 'NONE', #127, .T. ) ;
#70 = VERTEX_POINT ( 'NONE', #575 ) ;
#71 = CARTESIAN_POINT ( 'NONE',  ( 48.00000000000000000, 45.33950606236671632, -3.000000000000000000 ) ) ;
#72 = DIRECTION ( 'NONE',  ( 0.000000000000000000, 0.000000000000000000, -1.000000000000000000 ) ) ;
#73 = AXIS2_PLACEMENT_3D ( 'NONE', #153, #250, #72 ) ;
#74 = CYLINDRICAL_SURFACE ( 'NONE', #115, 2.000000000000001776 ) ;
#75 = LINE ( 'NONE', #415, #595 ) ;
#76 = VECTOR ( 'NONE', #251, 1000.000000000000000 ) ;
#77 = ORIENTED_EDGE ( 'NONE', *, *, #402, .F. ) ;
#78 = DIRECTION ( 'NONE',  ( 1.000000000000000000, -0.000000000000000000, 0.000000000000000000 ) ) ;
#79 = LINE ( 'NONE', #409, #156 ) ;
#80 = CARTESIAN_POINT ( 'NONE',  ( 11.59999999999999964, 35.33950606236671632, 0.000000000000000000 ) ) ;
#81 = VECTOR ( 'NONE', #56, 1000.000000000000000 ) ;
#82 = LINE ( 'NONE', #654, #536 ) ;
#83 = AXIS2_PLACEMENT_3D ( 'NONE', #612, #534, #674 ) ;
#84 = ORIENTED_EDGE ( 'NONE', *, *, #1059, .F. ) ;
#85 = CARTESIAN_POINT ( 'NONE',  ( 39.25281528639225570, 43.40683965378513420, -5.000000000000000000 ) ) ;
#86 = EDGE_CURVE ( 'NONE', #547, #70, #805, .T. ) ;
#87 = CARTESIAN_POINT ( 'NONE',  ( 48.00000000000000000, 43.33950606236671632, -2.000000000000000000 ) ) ;
#88 = VERTEX_POINT ( 'NONE', #909 ) ;
#89 = LINE ( 'NONE', #420, #29 ) ;
#90 = CYLINDRICAL_SURFACE ( 'NONE', #999, 2.000000000000000000 ) ;
#91 = ORIENTED_EDGE ( 'NONE', *, *, #662, .T. ) ;
#92 = DIRECTION ( 'NONE',  ( 0.000000000000000000, 0.000000000000000000, 1.000000000000000000 ) ) ;
#93 = EDGE_CURVE ( 'NONE', #382, #619, #265, .T. ) ;
#94 = EDGE_CURVE ( 'NONE', #677, #170, #498, .T. ) ;
#95 = VERTEX_POINT ( 'NONE', #341 ) ;
#96 = VECTOR ( 'NONE', #172, 1000.000000000000000 ) ;
#97 = CARTESIAN_POINT ( 'NONE',  ( 2.000000000000000000, 2.000000000000000000, 0.000000000000000000 ) ) ;
#98 =( GEOMETRIC_REPRESENTATION_CONTEXT ( 3 ) GLOBAL_UNCERTAINTY_ASSIGNED_CONTEXT ( ( #680 ) ) GLOBAL_UNIT_ASSIGNED_CONTEXT ( ( #442, #843, #852 ) ) REPRESENTATION_CONTEXT ( 'NONE', 'WORKASPACE' ) );
#99 = DIRECTION ( 'NONE',  ( 1.000000000000000000, 0.000000000000000000, 0.000000000000000000 ) ) ;
#100 = CARTESIAN_POINT ( 'NONE',  ( 2.000000000000000000, 43.33950606236671632, -2.000000000000000000 ) ) ;
#101 = ORIENTED_EDGE ( 'NONE', *, *, #742, .F. ) ;
#102 = CARTESIAN_POINT ( 'NONE',  ( 2.000000000000000000, 0.000000000000000000, -25.00000000000000000 ) ) ;
#103 = DIRECTION ( 'NONE',  ( 0.000000000000000000, -1.000000000000000000, 0.000000000000000000 ) ) ;
#104 = AXIS2_PLACEMENT_3D ( 'NONE', #945, #126, #1036 ) ;
#105 = CARTESIAN_POINT ( 'NONE',  ( 2.000000000000000000, 0.000000000000000000, -25.00000000000000000 ) ) ;
#106 = VERTEX_POINT ( 'NONE', #331 ) ;
#107 = CARTESIAN_POINT ( 'NONE',  ( 48.00000000000000000, 4.999999999999976019, -10.00000000000000000 ) ) ;
#108 = EDGE_CURVE ( 'NONE', #835, #166, #82, .T. ) ;
#109 = CARTESIAN_POINT ( 'NONE',  ( 11.59999999999999964, 43.44050604756386491, -4.997448122728142650 ) ) ;
#110 = EDGE_LOOP ( 'NONE', ( #182, #155, #824, #389 ) ) ;
#111 = CIRCLE ( 'NONE', #675, 2.000000000000001776 ) ;
#112 = PRESENTATION_STYLE_ASSIGNMENT (( #840 ) ) ;
#113 = DIRECTION ( 'NONE',  ( 0.000000000000000000, 1.000000000000000000, 0.000000000000000000 ) ) ;
#114 = EDGE_CURVE ( 'NONE', #298, #452, #411, .T. ) ;
#115 = AXIS2_PLACEMENT_3D ( 'NONE', #244, #399, #726 ) ;
#116 = ORIENTED_EDGE ( 'NONE', *, *, #760, .F. ) ;
#117 = DIRECTION ( 'NONE',  ( 1.000000000000000000, 0.000000000000000000, 0.000000000000000000 ) ) ;
#118 = ORIENTED_EDGE ( 'NONE', *, *, #792, .T. ) ;
#119 = CIRCLE ( 'NONE', #685, 7.000000000000000000 ) ;
#120 = AXIS2_PLACEMENT_3D ( 'NONE', #407, #727, #1065 ) ;
#121 = CARTESIAN_POINT ( 'NONE',  ( 49.17157287525381548, 2.902045718294578051E-16, -25.00000000000000000 ) ) ;
#122 = DIRECTION ( 'NONE',  ( 0.000000000000000000, 0.000000000000000000, -1.000000000000000000 ) ) ;
#123 = DIRECTION ( 'NONE',  ( 0.000000000000000000, 0.000000000000000000, -1.000000000000000000 ) ) ;
#124 = ORIENTED_EDGE ( 'NONE', *, *, #584, .F. ) ;
#125 = ADVANCED_FACE ( 'NONE', ( #570 ), #738, .T. ) ;
#126 = DIRECTION ( 'NONE',  ( 0.000000000000000000, -1.000000000000000000, 0.000000000000000000 ) ) ;
#127 = EDGE_LOOP ( 'NONE', ( #287, #221, #881 ) ) ;
#128 = CARTESIAN_POINT ( 'NONE',  ( 2.000000000000000000, 9.999999999999973355, -5.000000000000000000 ) ) ;
#129 = AXIS2_PLACEMENT_3D ( 'NONE', #596, #25, #844 ) ;
#130 = CYLINDRICAL_SURFACE ( 'NONE', #728, 2.000000000000001776 ) ;
#131 = VERTEX_POINT ( 'NONE', #1009 ) ;
#132 = CARTESIAN_POINT ( 'NONE',  ( 0.000000000000000000, 4.999999999999976019, -25.00000000000000000 ) ) ;
#133 = EDGE_LOOP ( 'NONE', ( #632, #1002, #924, #116 ) ) ;
#134 = CARTESIAN_POINT ( 'NONE',  ( 48.00000000000000000, 9.999999999999973355, -5.000000000000000000 ) ) ;
#135 = ORIENTED_EDGE ( 'NONE', *, *, #662, .F. ) ;
#136 = CARTESIAN_POINT ( 'NONE',  ( 2.000000000000000000, 0.000000000000000000, 0.000000000000000000 ) ) ;
#137 = ORIENTED_EDGE ( 'NONE', *, *, #1052, .T. ) ;
#138 = ADVANCED_FACE ( 'NONE', ( #280 ), #20, .T. ) ;
#139 = CARTESIAN_POINT ( 'NONE',  ( 2.000000000000000000, 4.999999999999976019, -25.00000000000000000 ) ) ;
#140 = LINE ( 'NONE', #1021, #539 ) ;
#141 = EDGE_CURVE ( 'NONE', #858, #994, #1005, .T. ) ;
#142 = ORIENTED_EDGE ( 'NONE', *, *, #94, .T. ) ;
#143 = CARTESIAN_POINT ( 'NONE',  ( 0.000000000000000000, 43.33950606236671632, -5.000000000000000000 ) ) ;
#144 = ORIENTED_EDGE ( 'NONE', *, *, #402, .T. ) ;
#145 = EDGE_CURVE ( 'NONE', #556, #70, #178, .T. ) ;
#146 = DIRECTION ( 'NONE',  ( 0.000000000000000000, 0.000000000000000000, 1.000000000000000000 ) ) ;
#147 = PRODUCT_DEFINITION ( 'æœ', '', #1000, #296 ) ;
#148 = CIRCLE ( 'NONE', #744, 2.000000000000001776 ) ;
#149 = LINE ( 'NONE', #753, #530 ) ;
#150 = ORIENTED_EDGE ( 'NONE', *, *, #517, .T. ) ;
#151 = ORIENTED_EDGE ( 'NONE', *, *, #302, .T. ) ;
#152 = CARTESIAN_POINT ( 'NONE',  ( 48.00000000000000000, 45.33950606236671632, -5.000000000000000000 ) ) ;
#153 = CARTESIAN_POINT ( 'NONE',  ( 2.000000000000000000, 43.33950606236671632, -3.000000000000000000 ) ) ;
#154 = FACE_OUTER_BOUND ( 'NONE', #656, .T. ) ;
#155 = ORIENTED_EDGE ( 'NONE', *, *, #522, .F. ) ;
#156 = VECTOR ( 'NONE', #732, 1000.000000000000000 ) ;
#157 = DIRECTION ( 'NONE',  ( -0.000000000000000000, 0.000000000000000000, 1.000000000000000000 ) ) ;
#158 = CARTESIAN_POINT ( 'NONE',  ( 2.000000000000000000, 2.999999999999975575, -25.00000000000000000 ) ) ;
#159 = DIRECTION ( 'NONE',  ( -1.000000000000000000, 0.000000000000000000, -0.000000000000000000 ) ) ;
#160 = VECTOR ( 'NONE', #990, 1000.000000000000000 ) ;
#161 = ORIENTED_EDGE ( 'NONE', *, *, #989, .F. ) ;
#162 = DIRECTION ( 'NONE',  ( 1.000000000000000000, 0.000000000000000000, -0.000000000000000000 ) ) ;
#163 = CIRCLE ( 'NONE', #816, 2.000000000000000000 ) ;
#164 = CARTESIAN_POINT ( 'NONE',  ( 2.000000000000000000, 9.999999999999973355, -10.00000000000000000 ) ) ;
#165 = CIRCLE ( 'NONE', #952, 2.000000000000000000 ) ;
#166 = VERTEX_POINT ( 'NONE', #746 ) ;
#167 = VECTOR ( 'NONE', #641, 1000.000000000000000 ) ;
#168 = DIRECTION ( 'NONE',  ( -1.000000000000000000, 0.000000000000000000, 0.000000000000000000 ) ) ;
#169 = DIRECTION ( 'NONE',  ( 0.000000000000000000, 0.000000000000000000, -1.000000000000000000 ) ) ;
#170 = VERTEX_POINT ( 'NONE', #109 ) ;
#171 = PRODUCT ( '\X2\652f67b6\X0\', '\X2\652f67b6\X0\', '', ( #463 ) ) ;
#172 = DIRECTION ( 'NONE',  ( -0.000000000000000000, -0.000000000000000000, 1.000000000000000000 ) ) ;
#173 = ADVANCED_FACE ( 'NONE', ( #755 ), #993, .T. ) ;
#174 = EDGE_CURVE ( 'NONE', #477, #958, #519, .T. ) ;
#175 = LINE ( 'NONE', #649, #160 ) ;
#176 = CIRCLE ( 'NONE', #582, 2.000000000000000000 ) ;
#177 = ORIENTED_EDGE ( 'NONE', *, *, #667, .F. ) ;
#178 = CIRCLE ( 'NONE', #621, 2.000000000000001776 ) ;
#179 = CARTESIAN_POINT ( 'NONE',  ( 11.59999999999999964, 43.44050604756386491, -0.002551877271858831592 ) ) ;
#180 = EDGE_CURVE ( 'NONE', #269, #619, #592, .T. ) ;
#181 = DIRECTION ( 'NONE',  ( -1.000000000000000000, 0.000000000000000000, 0.000000000000000000 ) ) ;
#182 = ORIENTED_EDGE ( 'NONE', *, *, #400, .T. ) ;
#183 = VECTOR ( 'NONE', #430, 1000.000000000000000 ) ;
#184 = CARTESIAN_POINT ( 'NONE',  ( 49.17157287525381548, 4.336808689942017736E-16, -4.336808689942017736E-16 ) ) ;
#185 = DIRECTION ( 'NONE',  ( 0.000000000000000000, 0.000000000000000000, 1.000000000000000000 ) ) ;
#186 = DIRECTION ( 'NONE',  ( 0.000000000000000000, 0.000000000000000000, 1.000000000000000000 ) ) ;
#187 = ORIENTED_EDGE ( 'NONE', *, *, #742, .T. ) ;
#188 = SPHERICAL_SURFACE ( 'NONE', #868, 2.000000000000000000 ) ;
#189 = CARTESIAN_POINT ( 'NONE',  ( 0.000000000000000000, 4.999999999999976019, 0.000000000000000000 ) ) ;
#190 = EDGE_LOOP ( 'NONE', ( #466, #571, #48, #161 ) ) ;
#191 = PRODUCT_RELATED_PRODUCT_CATEGORY ( 'part', '', ( #171 ) ) ;
#192 = CARTESIAN_POINT ( 'NONE',  ( 2.000000000000000000, 4.999999999999976019, -2.000000000000000000 ) ) ;
#193 = EDGE_CURVE ( 'NONE', #95, #557, #359, .T. ) ;
#194 = DIRECTION ( 'NONE',  ( 1.000000000000000000, 0.000000000000000000, 0.000000000000000000 ) ) ;
#195 = ORIENTED_EDGE ( 'NONE', *, *, #388, .T. ) ;
#196 = LINE ( 'NONE', #454, #455 ) ;
#197 = CARTESIAN_POINT ( 'NONE',  ( 11.59999999999999964, 43.44050604756386491, -0.002551877271858831592 ) ) ;
#198 = ORIENTED_EDGE ( 'NONE', *, *, #900, .T. ) ;
#199 = SURFACE_SIDE_STYLE ('',( #847 ) ) ;
#200 = EDGE_CURVE ( 'NONE', #426, #95, #27, .T. ) ;
#201 = CARTESIAN_POINT ( 'NONE',  ( 38.40000000000000568, 43.44050604756386491, -0.002551877271858397911 ) ) ;
#202 = CARTESIAN_POINT ( 'NONE',  ( 48.00000000000000000, 43.33950606236671632, 0.000000000000000000 ) ) ;
#203 = DIRECTION ( 'NONE',  ( 1.000000000000000000, 0.000000000000000000, 0.000000000000000000 ) ) ;
#204 = EDGE_CURVE ( 'NONE', #106, #547, #111, .T. ) ;
#205 = ORIENTED_EDGE ( 'NONE', *, *, #145, .F. ) ;
#206 = FACE_OUTER_BOUND ( 'NONE', #478, .T. ) ;
#207 = AXIS2_PLACEMENT_3D ( 'NONE', #708, #1020, #456 ) ;
#208 = ORIENTED_EDGE ( 'NONE', *, *, #93, .F. ) ;
#209 = DIRECTION ( 'NONE',  ( 0.000000000000000000, 0.000000000000000000, -1.000000000000000000 ) ) ;
#210 = UNCERTAINTY_MEASURE_WITH_UNIT (LENGTH_MEASURE( 1.000000000000000082E-05 ), #1040, 'distance_accuracy_value', 'NONE');
#211 = VECTOR ( 'NONE', #257, 1000.000000000000000 ) ;
#212 = LINE ( 'NONE', #353, #363 ) ;
#213 = DIRECTION ( 'NONE',  ( 1.000000000000000000, -0.000000000000000000, 0.000000000000000000 ) ) ;
#214 = EDGE_LOOP ( 'NONE', ( #453, #735, #927, #538 ) ) ;
#215 = DIRECTION ( 'NONE',  ( 0.000000000000000000, 0.000000000000000000, -1.000000000000000000 ) ) ;
#216 = VERTEX_POINT ( 'NONE', #422 ) ;
#217 = FACE_OUTER_BOUND ( 'NONE', #756, .T. ) ;
#218 = AXIS2_PLACEMENT_3D ( 'NONE', #189, #841, #934 ) ;
#219 = CIRCLE ( 'NONE', #83, 2.000000000000001776 ) ;
#220 = DIRECTION ( 'NONE',  ( 0.000000000000000000, 0.000000000000000000, 1.000000000000000000 ) ) ;
#221 = ORIENTED_EDGE ( 'NONE', *, *, #497, .T. ) ;
#222 = ORIENTED_EDGE ( 'NONE', *, *, #966, .F. ) ;
#223 = EDGE_CURVE ( 'NONE', #829, #447, #392, .T. ) ;
#224 = DIRECTION ( 'NONE',  ( 1.000000000000000000, 0.000000000000000000, 0.000000000000000000 ) ) ;
#225 = ORIENTED_EDGE ( 'NONE', *, *, #1017, .F. ) ;
#226 = CARTESIAN_POINT ( 'NONE',  ( 0.000000000000000000, 4.999999999999976019, -23.00000000000000000 ) ) ;
#227 = ORIENTED_EDGE ( 'NONE', *, *, #710, .F. ) ;
#228 = ADVANCED_FACE ( 'NONE', ( #605 ), #431, .F. ) ;
#229 = AXIS2_PLACEMENT_3D ( 'NONE', #856, #709, #117 ) ;
#230 = EDGE_CURVE ( 'NONE', #637, #958, #491, .T. ) ;
#231 = LINE ( 'NONE', #152, #167 ) ;
#232 = DIRECTION ( 'NONE',  ( -0.000000000000000000, -0.000000000000000000, -1.000000000000000000 ) ) ;
#233 = ORIENTED_EDGE ( 'NONE', *, *, #1034, .T. ) ;
#234 = ORIENTED_EDGE ( 'NONE', *, *, #936, .F. ) ;
#235 = AXIS2_PLACEMENT_3D ( 'NONE', #664, #901, #99 ) ;
#236 = LINE ( 'NONE', #1063, #903 ) ;
#237 = FACE_OUTER_BOUND ( 'NONE', #1023, .T. ) ;
#238 = CARTESIAN_POINT ( 'NONE',  ( 38.40000000000000568, 43.44050604756386491, -4.997448122728141762 ) ) ;
#239 = AXIS2_PLACEMENT_3D ( 'NONE', #398, #720, #1054 ) ;
#240 = EDGE_LOOP ( 'NONE', ( #12, #552, #581, #277 ) ) ;
#241 = DIRECTION ( 'NONE',  ( -0.000000000000000000, -0.000000000000000000, 1.000000000000000000 ) ) ;
#242 = CARTESIAN_POINT ( 'NONE',  ( 0.000000000000000000, 2.000000000000000000, 0.000000000000000000 ) ) ;
#243 = DIRECTION ( 'NONE',  ( -0.000000000000000000, -0.000000000000000000, 1.000000000000000000 ) ) ;
#244 = CARTESIAN_POINT ( 'NONE',  ( 0.000000000000000000, 2.999999999999975575, -23.00000000000000000 ) ) ;
#245 = EDGE_CURVE ( 'NONE', #495, #1043, #355, .T. ) ;
#246 = DIRECTION ( 'NONE',  ( -0.000000000000000000, -0.000000000000000000, -1.000000000000000000 ) ) ;
#247 = ORIENTED_EDGE ( 'NONE', *, *, #174, .T. ) ;
#248 = AXIS2_PLACEMENT_3D ( 'NONE', #1044, #953, #546 ) ;
#249 = LINE ( 'NONE', #737, #831 ) ;
#250 = DIRECTION ( 'NONE',  ( 0.000000000000000000, 1.000000000000000000, 0.000000000000000000 ) ) ;
#251 = DIRECTION ( 'NONE',  ( -0.000000000000000000, 1.000000000000000000, -0.000000000000000000 ) ) ;
#252 = VERTEX_POINT ( 'NONE', #268 ) ;
#253 = CARTESIAN_POINT ( 'NONE',  ( 2.000000000000000000, 0.000000000000000000, 0.000000000000000000 ) ) ;
#254 = CARTESIAN_POINT ( 'NONE',  ( 48.00000000000000000, 2.999999999999975575, -10.00000000000000000 ) ) ;
#255 = ORIENTED_EDGE ( 'NONE', *, *, #339, .T. ) ;
#256 = EDGE_CURVE ( 'NONE', #281, #57, #354, .T. ) ;
#257 = DIRECTION ( 'NONE',  ( -0.000000000000000000, -1.000000000000000000, 0.000000000000000000 ) ) ;
#258 = ORIENTED_EDGE ( 'NONE', *, *, #33, .T. ) ;
#259 = ADVANCED_FACE ( 'NONE', ( #926 ), #923, .F. ) ;
#260 = DIRECTION ( 'NONE',  ( 1.000000000000000000, -0.000000000000000000, -0.000000000000000000 ) ) ;
#261 = ADVANCED_FACE ( 'NONE', ( #362 ), #501, .T. ) ;
#262 = DIRECTION ( 'NONE',  ( -0.000000000000000000, -0.000000000000000000, -1.000000000000000000 ) ) ;
#263 = AXIS2_PLACEMENT_3D ( 'NONE', #80, #836, #1064 ) ;
#264 = VERTEX_POINT ( 'NONE', #445 ) ;
#265 = CIRCLE ( 'NONE', #859, 4.999999999999999112 ) ;
#266 = DIRECTION ( 'NONE',  ( 0.000000000000000000, 1.000000000000000000, 0.000000000000000000 ) ) ;
#267 = DIRECTION ( 'NONE',  ( 0.000000000000000000, -1.000000000000000000, 0.000000000000000000 ) ) ;
#268 = CARTESIAN_POINT ( 'NONE',  ( 50.00000000000000000, 2.000000000000000000, -2.000000000000000000 ) ) ;
#269 = VERTEX_POINT ( 'NONE', #134 ) ;
#270 = DIRECTION ( 'NONE',  ( -1.000000000000000000, 0.000000000000000000, 0.000000000000000000 ) ) ;
#271 = VECTOR ( 'NONE', #970, 1000.000000000000000 ) ;
#272 = B_SPLINE_CURVE_WITH_KNOTS ( 'NONE', 3,
 ( #679, #527, #34, #781 ),
 .UNSPECIFIED., .F., .F.,
 ( 4, 4 ),
 ( 0.000000000000000000, 0.001279221743581490309 ),
 .UNSPECIFIED. ) ;
#273 = VERTEX_POINT ( 'NONE', #202 ) ;
#274 = ADVANCED_FACE ( 'NONE', ( #525 ), #130, .T. ) ;
#275 = FACE_OUTER_BOUND ( 'NONE', #602, .T. ) ;
#276 = CARTESIAN_POINT ( 'NONE',  ( 38.40000000000000568, 43.44050604756386491, 5.000000000000000000 ) ) ;
#277 = ORIENTED_EDGE ( 'NONE', *, *, #1013, .F. ) ;
#278 = CARTESIAN_POINT ( 'NONE',  ( 38.40000000000000568, 35.33950606236671632, 5.000000000000000000 ) ) ;
#279 = SHAPE_DEFINITION_REPRESENTATION ( #579, #1060 ) ;
#280 = FACE_OUTER_BOUND ( 'NONE', #963, .T. ) ;
#281 = VERTEX_POINT ( 'NONE', #865 ) ;
#282 = AXIS2_PLACEMENT_3D ( 'NONE', #706, #1037, #203 ) ;
#283 = DIRECTION ( 'NONE',  ( 0.000000000000000000, 0.000000000000000000, -1.000000000000000000 ) ) ;
#284 = ADVANCED_FACE ( 'NONE', ( #464 ), #872, .F. ) ;
#285 = CARTESIAN_POINT ( 'NONE',  ( 39.67522576831094483, 43.33950606236671632, 0.000000000000000000 ) ) ;
#286 = LINE ( 'NONE', #768, #81 ) ;
#287 = ORIENTED_EDGE ( 'NONE', *, *, #418, .F. ) ;
#288 = DIRECTION ( 'NONE',  ( -0.000000000000000000, -0.000000000000000000, -1.000000000000000000 ) ) ;
#289 =( NAMED_UNIT ( * ) SI_UNIT ( $, .STERADIAN. ) SOLID_ANGLE_UNIT ( ) );
#290 = DIRECTION ( 'NONE',  ( 0.000000000000000000, 0.000000000000000000, -1.000000000000000000 ) ) ;
#291 = PLANE ( 'NONE',  #800 ) ;
#292 = EDGE_LOOP ( 'NONE', ( #617, #769, #227, #935, #594, #862 ) ) ;
#293 = PLANE ( 'NONE',  #104 ) ;
#294 = EDGE_LOOP ( 'NONE', ( #729, #752, #432, #118, #41, #820, #490 ) ) ;
#295 = CARTESIAN_POINT ( 'NONE',  ( 48.00000000000000000, 2.999999999999975575, -23.00000000000000000 ) ) ;
#296 = PRODUCT_DEFINITION_CONTEXT ( 'detailed design', #832, 'design' ) ;
#297 = DIRECTION ( 'NONE',  ( 0.000000000000000000, -1.000000000000000000, 0.000000000000000000 ) ) ;
#298 = VERTEX_POINT ( 'NONE', #549 ) ;
#299 = FACE_OUTER_BOUND ( 'NONE', #707, .T. ) ;
#300 = DIRECTION ( 'NONE',  ( -0.000000000000000000, -1.000000000000000000, 0.000000000000000000 ) ) ;
#301 = VERTEX_POINT ( 'NONE', #537 ) ;
#302 = EDGE_CURVE ( 'NONE', #452, #780, #163, .T. ) ;
#303 = AXIS2_PLACEMENT_3D ( 'NONE', #686, #1048, #50 ) ;
#304 = CARTESIAN_POINT ( 'NONE',  ( 50.00000000000000000, 9.999999999999973355, -10.00000000000000000 ) ) ;
#305 = ORIENTED_EDGE ( 'NONE', *, *, #418, .T. ) ;
#306 = VECTOR ( 'NONE', #796, 1000.000000000000000 ) ;
#307 = CARTESIAN_POINT ( 'NONE',  ( 50.00000000000000000, 43.33950606236671632, 0.000000000000000000 ) ) ;
#308 = ORIENTED_EDGE ( 'NONE', *, *, #223, .F. ) ;
#309 = ADVANCED_FACE ( 'NONE', ( #690 ), #311, .F. ) ;
#310 = CARTESIAN_POINT ( 'NONE',  ( 38.40000000000000568, 27.23850607716956418, 0.000000000000000000 ) ) ;
#311 = CYLINDRICAL_SURFACE ( 'NONE', #573, 4.999999999999999112 ) ;
#312 = ORIENTED_EDGE ( 'NONE', *, *, #180, .T. ) ;
#313 = EDGE_LOOP ( 'NONE', ( #906, #137, #482, #697, #954, #793 ) ) ;
#314 = AXIS2_PLACEMENT_3D ( 'NONE', #725, #479, #474 ) ;
#315 = CARTESIAN_POINT ( 'NONE',  ( 38.40000000000000568, 27.23850607716956418, -5.000000000000000000 ) ) ;
#316 = LINE ( 'NONE', #1018, #1022 ) ;
#317 = VECTOR ( 'NONE', #270, 1000.000000000000000 ) ;
#318 = DIRECTION ( 'NONE',  ( 1.000000000000000000, -0.000000000000000000, -0.000000000000000000 ) ) ;
#319 = EDGE_LOOP ( 'NONE', ( #391, #305, #520, #508, #471, #626, #84, #845 ) ) ;
#320 = DIRECTION ( 'NONE',  ( -1.000000000000000000, 0.000000000000000000, 0.000000000000000000 ) ) ;
#321 = EDGE_CURVE ( 'NONE', #858, #447, #636, .T. ) ;
#322 = AXIS2_PLACEMENT_3D ( 'NONE', #997, #583, #590 ) ;
#323 = DIRECTION ( 'NONE',  ( -1.000000000000000000, 0.000000000000000000, 0.000000000000000000 ) ) ;
#324 = DIRECTION ( 'NONE',  ( -1.000000000000000000, 0.000000000000000000, 0.000000000000000000 ) ) ;
#325 = CARTESIAN_POINT ( 'NONE',  ( 48.00000000000000000, 4.999999999999976019, 0.000000000000000000 ) ) ;
#326 = MECHANICAL_DESIGN_GEOMETRIC_PRESENTATION_REPRESENTATION (  '', ( #507 ), #98 ) ;
#327 = ORIENTED_EDGE ( 'NONE', *, *, #366, .T. ) ;
#328 = CARTESIAN_POINT ( 'NONE',  ( 48.00000000000000000, 2.999999999999975575, -23.00000000000000000 ) ) ;
#329 = DIRECTION ( 'NONE',  ( 0.000000000000000000, 0.000000000000000000, 1.000000000000000000 ) ) ;
#330 = DIRECTION ( 'NONE',  ( 0.000000000000000000, 0.000000000000000000, 1.000000000000000000 ) ) ;
#331 = CARTESIAN_POINT ( 'NONE',  ( 50.00000000000000000, 2.999999999999975575, -10.00000000000000000 ) ) ;
#332 = ORIENTED_EDGE ( 'NONE', *, *, #771, .F. ) ;
#333 = DIRECTION ( 'NONE',  ( 0.000000000000000000, -1.000000000000000000, 0.000000000000000000 ) ) ;
#334 = DIRECTION ( 'NONE',  ( 0.000000000000000000, 0.000000000000000000, -1.000000000000000000 ) ) ;
#335 = EDGE_CURVE ( 'NONE', #22, #938, #140, .T. ) ;
#336 = DIRECTION ( 'NONE',  ( -0.000000000000000000, -0.000000000000000000, -1.000000000000000000 ) ) ;
#337 = ORIENTED_EDGE ( 'NONE', *, *, #68, .T. ) ;
#338 = EDGE_CURVE ( 'NONE', #677, #477, #782, .T. ) ;
#339 = EDGE_CURVE ( 'NONE', #1045, #385, #286, .T. ) ;
#340 = DIRECTION ( 'NONE',  ( 0.000000000000000000, -0.000000000000000000, -1.000000000000000000 ) ) ;
#341 = CARTESIAN_POINT ( 'NONE',  ( 0.000000000000000000, 2.999999999999974243, -10.00000000000000000 ) ) ;
#342 = EDGE_CURVE ( 'NONE', #216, #351, #825, .T. ) ;
#343 = B_SPLINE_CURVE_WITH_KNOTS ( 'NONE', 3,
 ( #912, #981, #85, #992 ),
 .UNSPECIFIED., .F., .F.,
 ( 4, 4 ),
 ( 0.000000000000000000, 0.001279221743581488574 ),
 .UNSPECIFIED. ) ;
#344 = EDGE_LOOP ( 'NONE', ( #378, #26, #225 ) ) ;
#345 = EDGE_CURVE ( 'NONE', #557, #607, #176, .T. ) ;
#346 = DIRECTION ( 'NONE',  ( 0.000000000000000000, 0.000000000000000000, -1.000000000000000000 ) ) ;
#347 = CARTESIAN_POINT ( 'NONE',  ( 0.000000000000000000, 9.999999999999973355, -5.000000000000000000 ) ) ;
#348 = ORIENTED_EDGE ( 'NONE', *, *, #678, .T. ) ;
#349 = DIRECTION ( 'NONE',  ( 0.000000000000000000, 0.000000000000000000, -1.000000000000000000 ) ) ;
#350 = DIRECTION ( 'NONE',  ( -0.000000000000000000, -1.000000000000000000, 0.000000000000000000 ) ) ;
#351 = VERTEX_POINT ( 'NONE', #957 ) ;
#352 = AXIS2_PLACEMENT_3D ( 'NONE', #7, #350, #665 ) ;
#353 = CARTESIAN_POINT ( 'NONE',  ( 50.00000000000000000, 2.000000000000000000, -25.00000000000000000 ) ) ;
#354 = LINE ( 'NONE', #276, #948 ) ;
#355 = CIRCLE ( 'NONE', #129, 8.100999985197150366 ) ;
#356 = ORIENTED_EDGE ( 'NONE', *, *, #572, .T. ) ;
#357 = AXIS2_PLACEMENT_3D ( 'NONE', #700, #620, #789 ) ;
#358 = FILL_AREA_STYLE ('',( #361 ) ) ;
#359 = LINE ( 'NONE', #914, #591 ) ;
#360 = ORIENTED_EDGE ( 'NONE', *, *, #848, .F. ) ;
#361 = FILL_AREA_STYLE_COLOUR ( '', #374 ) ;
#362 = FACE_OUTER_BOUND ( 'NONE', #110, .T. ) ;
#363 = VECTOR ( 'NONE', #349, 1000.000000000000000 ) ;
#364 = ORIENTED_EDGE ( 'NONE', *, *, #553, .F. ) ;
#365 = ADVANCED_FACE ( 'NONE', ( #387 ), #394, .T. ) ;
#366 = EDGE_CURVE ( 'NONE', #106, #298, #119, .T. ) ;
#367 = CARTESIAN_POINT ( 'NONE',  ( 0.000000000000000000, 2.999999999999975575, -23.00000000000000000 ) ) ;
#368 = LINE ( 'NONE', #689, #754 ) ;
#369 = DIRECTION ( 'NONE',  ( -0.000000000000000000, 1.000000000000000000, 0.000000000000000000 ) ) ;
#370 = ORIENTED_EDGE ( 'NONE', *, *, #427, .T. ) ;
#371 = EDGE_CURVE ( 'NONE', #70, #607, #544, .T. ) ;
#372 = CIRCLE ( 'NONE', #701, 2.000000000000001776 ) ;
#373 = CYLINDRICAL_SURFACE ( 'NONE', #627, 8.100999985197150366 ) ;
#374 = COLOUR_RGB ( '',0.7921568627450980005, 0.8196078431372548767, 0.9333333333333333481 ) ;
#375 = DIRECTION ( 'NONE',  ( 0.000000000000000000, 0.000000000000000000, 1.000000000000000000 ) ) ;
#376 = ORIENTED_EDGE ( 'NONE', *, *, #462, .T. ) ;
#377 = CYLINDRICAL_SURFACE ( 'NONE', #1029, 2.000000000000000000 ) ;
#378 = ORIENTED_EDGE ( 'NONE', *, *, #230, .F. ) ;
#379 = CARTESIAN_POINT ( 'NONE',  ( 38.82774341347131752, 43.44050604756386491, -0.002551877271858759601 ) ) ;
#380 = CARTESIAN_POINT ( 'NONE',  ( 48.00000000000000000, 43.33950606236671632, -3.000000000000000000 ) ) ;
#381 = AXIS2_PLACEMENT_3D ( 'NONE', #132, #459, #705 ) ;
#382 = VERTEX_POINT ( 'NONE', #696 ) ;
#383 = FACE_OUTER_BOUND ( 'NONE', #597, .T. ) ;
#384 = CARTESIAN_POINT ( 'NONE',  ( 0.000000000000000000, 2.000000000000000000, -2.000000000000000000 ) ) ;
#385 = VERTEX_POINT ( 'NONE', #1026 ) ;
#386 =( BOUNDED_CURVE ( )  B_SPLINE_CURVE ( 3, ( #648, #184, #830, #2 ),
 .UNSPECIFIED., .F., .T. ) 
 B_SPLINE_CURVE_WITH_KNOTS ( ( 4, 4 ),
 ( 0.000000000000000000, 1.570796326794896780 ),
 .UNSPECIFIED. ) 
 CURVE ( )  GEOMETRIC_REPRESENTATION_ITEM ( )  RATIONAL_B_SPLINE_CURVE ( ( 1.000000000000000000, 0.8047378541243649375, 0.8047378541243649375, 1.000000000000000000 ) ) 
 REPRESENTATION_ITEM ( '' )  );
#387 = FACE_OUTER_BOUND ( 'NONE', #869, .T. ) ;
#388 = EDGE_CURVE ( 'NONE', #423, #607, #403, .T. ) ;
#389 = ORIENTED_EDGE ( 'NONE', *, *, #441, .F. ) ;
#390 = LINE ( 'NONE', #226, #513 ) ;
#391 = ORIENTED_EDGE ( 'NONE', *, *, #694, .F. ) ;
#392 =( BOUNDED_CURVE ( )  B_SPLINE_CURVE ( 3, ( #15, #425, #511, #105 ),
 .UNSPECIFIED., .F., .F. ) 
 B_SPLINE_CURVE_WITH_KNOTS ( ( 4, 4 ),
 ( 4.712388980384689674, 6.283185307179586232 ),
 .UNSPECIFIED. ) 
 CURVE ( )  GEOMETRIC_REPRESENTATION_ITEM ( )  RATIONAL_B_SPLINE_CURVE ( ( 1.000000000000000000, 0.8047378541243649375, 0.8047378541243649375, 1.000000000000000000 ) ) 
 REPRESENTATION_ITEM ( '' )  );
#393 = DIRECTION ( 'NONE',  ( 0.000000000000000000, 0.000000000000000000, 1.000000000000000000 ) ) ;
#394 = CYLINDRICAL_SURFACE ( 'NONE', #767, 2.000000000000001776 ) ;
#395 = ORIENTED_EDGE ( 'NONE', *, *, #710, .T. ) ;
#396 = ORIENTED_EDGE ( 'NONE', *, *, #388, .F. ) ;
#397 = CARTESIAN_POINT ( 'NONE',  ( 48.00000000000000000, 2.999999999999975575, -23.00000000000000000 ) ) ;
#398 = CARTESIAN_POINT ( 'NONE',  ( 38.40000000000000568, 43.44050604756386491, 5.000000000000000000 ) ) ;
#399 = DIRECTION ( 'NONE',  ( -1.000000000000000000, 0.000000000000000000, 0.000000000000000000 ) ) ;
#400 = EDGE_CURVE ( 'NONE', #994, #252, #386, .T. ) ;
#401 = ORIENTED_EDGE ( 'NONE', *, *, #86, .F. ) ;
#402 = EDGE_CURVE ( 'NONE', #252, #777, #212, .T. ) ;
#403 = CIRCLE ( 'NONE', #995, 2.000000000000001776 ) ;
#404 = LINE ( 'NONE', #467, #763 ) ;
#405 = FACE_OUTER_BOUND ( 'NONE', #5, .T. ) ;
#406 = VECTOR ( 'NONE', #246, 1000.000000000000000 ) ;
#407 = CARTESIAN_POINT ( 'NONE',  ( 38.40000000000000568, 35.33950606236671632, 0.000000000000000000 ) ) ;
#408 = ORIENTED_EDGE ( 'NONE', *, *, #180, .F. ) ;
#409 = CARTESIAN_POINT ( 'NONE',  ( 11.59999999999999964, 27.23850607716956418, -5.000000000000000000 ) ) ;
#410 = CARTESIAN_POINT ( 'NONE',  ( 48.00000000000000000, 43.33950606236671632, -2.000000000000000000 ) ) ;
#411 = LINE ( 'NONE', #983, #76 ) ;
#412 = CIRCLE ( 'NONE', #593, 2.000000000000000000 ) ;
#413 = ORIENTED_EDGE ( 'NONE', *, *, #1050, .T. ) ;
#414 = DIRECTION ( 'NONE',  ( -0.000000000000000000, -0.000000000000000000, -1.000000000000000000 ) ) ;
#415 = CARTESIAN_POINT ( 'NONE',  ( 0.000000000000000000, 2.999999999999975575, -25.00000000000000000 ) ) ;
#416 = ORIENTED_EDGE ( 'NONE', *, *, #936, .T. ) ;
#417 = LINE ( 'NONE', #750, #96 ) ;
#418 = EDGE_CURVE ( 'NONE', #273, #22, #39, .T. ) ;
#419 = ORIENTED_EDGE ( 'NONE', *, *, #1011, .T. ) ;
#420 = CARTESIAN_POINT ( 'NONE',  ( 11.59999999999999964, 43.44050604756386491, -4.997448122728141762 ) ) ;
#421 = TOROIDAL_SURFACE ( 'NONE', #472, 7.000000000000000000, 2.000000000000000000 ) ;
#422 = CARTESIAN_POINT ( 'NONE',  ( 2.000000000000000000, 45.33950606236671632, -3.000000000000000000 ) ) ;
#423 = VERTEX_POINT ( 'NONE', #158 ) ;
#424 = DIRECTION ( 'NONE',  ( 0.000000000000000000, 0.000000000000000000, -1.000000000000000000 ) ) ;
#425 = CARTESIAN_POINT ( 'NONE',  ( 2.184664232470858947E-16, 0.8284271247461908461, -24.17157287525380838 ) ) ;
#426 = VERTEX_POINT ( 'NONE', #653 ) ;
#427 = EDGE_CURVE ( 'NONE', #469, #131, #500, .T. ) ;
#428 = VECTOR ( 'NONE', #470, 1000.000000000000000 ) ;
#429 = PLANE ( 'NONE',  #1055 ) ;
#430 = DIRECTION ( 'NONE',  ( -1.000000000000000000, -0.000000000000000000, -0.000000000000000000 ) ) ;
#431 = CYLINDRICAL_SURFACE ( 'NONE', #898, 8.100999985197150366 ) ;
#432 = ORIENTED_EDGE ( 'NONE', *, *, #108, .T. ) ;
#433 = LINE ( 'NONE', #766, #779 ) ;
#434 = DIRECTION ( 'NONE',  ( 0.000000000000000000, -0.000000000000000000, 1.000000000000000000 ) ) ;
#435 = EDGE_LOOP ( 'NONE', ( #63, #419, #9, #195 ) ) ;
#436 = DIRECTION ( 'NONE',  ( 0.000000000000000000, -1.000000000000000000, 0.000000000000000000 ) ) ;
#437 = AXIS2_PLACEMENT_3D ( 'NONE', #807, #879, #975 ) ;
#438 = CARTESIAN_POINT ( 'NONE',  ( 0.000000000000000000, 43.33950606236671632, 0.000000000000000000 ) ) ;
#439 = EDGE_CURVE ( 'NONE', #972, #1043, #891, .T. ) ;
#440 = EDGE_LOOP ( 'NONE', ( #682, #465, #873, #499 ) ) ;
#441 = EDGE_CURVE ( 'NONE', #994, #273, #885, .T. ) ;
#442 =( LENGTH_UNIT ( ) NAMED_UNIT ( * ) SI_UNIT ( .MILLI., .METRE. ) );
#443 = CARTESIAN_POINT ( 'NONE',  ( 50.00000000000000000, 0.8284271247461899579, -24.17157287525380838 ) ) ;
#444 = ADVANCED_FACE ( 'NONE', ( #237 ), #429, .F. ) ;
#445 = CARTESIAN_POINT ( 'NONE',  ( 48.00000000000000000, 2.999999999999975575, -25.00000000000000000 ) ) ;
#446 = CIRCLE ( 'NONE', #263, 8.100999985197150366 ) ;
#447 = VERTEX_POINT ( 'NONE', #102 ) ;
#448 = EDGE_CURVE ( 'NONE', #477, #469, #446, .T. ) ;
#449 = DIRECTION ( 'NONE',  ( -0.000000000000000000, 1.000000000000000000, 0.000000000000000000 ) ) ;
#450 =( NAMED_UNIT ( * ) PLANE_ANGLE_UNIT ( ) SI_UNIT ( $, .RADIAN. ) );
#451 = DIRECTION ( 'NONE',  ( -1.000000000000000000, 0.000000000000000000, 0.000000000000000000 ) ) ;
#452 = VERTEX_POINT ( 'NONE', #808 ) ;
#453 = ORIENTED_EDGE ( 'NONE', *, *, #517, .F. ) ;
#454 = CARTESIAN_POINT ( 'NONE',  ( 0.000000000000000000, 0.000000000000000000, -25.00000000000000000 ) ) ;
#455 = VECTOR ( 'NONE', #28, 1000.000000000000000 ) ;
#456 = DIRECTION ( 'NONE',  ( 1.000000000000000000, 0.000000000000000000, 0.000000000000000000 ) ) ;
#457 = DIRECTION ( 'NONE',  ( 0.000000000000000000, 0.000000000000000000, 1.000000000000000000 ) ) ;
#458 = EDGE_LOOP ( 'NONE', ( #1006, #722, #142, #91 ) ) ;
#459 = DIRECTION ( 'NONE',  ( 0.000000000000000000, 0.000000000000000000, 1.000000000000000000 ) ) ;
#460 = EDGE_LOOP ( 'NONE', ( #877, #785, #205 ) ) ;
#461 = CARTESIAN_POINT ( 'NONE',  ( 2.000000000000000000, 45.33950606236671632, -2.000000000000000000 ) ) ;
#462 = EDGE_CURVE ( 'NONE', #637, #22, #149, .T. ) ;
#463 = PRODUCT_CONTEXT ( 'NONE', #772, 'mechanical' ) ;
#464 = FACE_OUTER_BOUND ( 'NONE', #512, .T. ) ;
#465 = ORIENTED_EDGE ( 'NONE', *, *, #439, .T. ) ;
#466 = ORIENTED_EDGE ( 'NONE', *, *, #342, .T. ) ;
#467 = CARTESIAN_POINT ( 'NONE',  ( 0.000000000000000000, 45.33950606236671632, -3.000000000000000000 ) ) ;
#468 = DIRECTION ( 'NONE',  ( -1.000000000000000000, 0.000000000000000000, 0.000000000000000000 ) ) ;
#469 = VERTEX_POINT ( 'NONE', #555 ) ;
#470 = DIRECTION ( 'NONE',  ( 1.000000000000000000, -0.000000000000000000, -0.000000000000000000 ) ) ;
#471 = ORIENTED_EDGE ( 'NONE', *, *, #174, .F. ) ;
#472 = AXIS2_PLACEMENT_3D ( 'NONE', #564, #78, #561 ) ;
#473 = DIRECTION ( 'NONE',  ( 1.000000000000000000, -0.000000000000000000, -0.000000000000000000 ) ) ;
#474 = DIRECTION ( 'NONE',  ( 0.000000000000000000, 0.000000000000000000, -1.000000000000000000 ) ) ;
#475 = ADVANCED_FACE ( 'NONE', ( #880 ), #982, .T. ) ;
#476 = ADVANCED_FACE ( 'NONE', ( #405 ), #486, .F. ) ;
#477 = VERTEX_POINT ( 'NONE', #566 ) ;
#478 = EDGE_LOOP ( 'NONE', ( #1058, #610, #1010, #799 ) ) ;
#479 = DIRECTION ( 'NONE',  ( -1.000000000000000000, -0.000000000000000000, -0.000000000000000000 ) ) ;
#480 = ADVANCED_FACE ( 'NONE', ( #589 ), #896, .T. ) ;
#481 = CARTESIAN_POINT ( 'NONE',  ( 2.000000000000000000, 4.999999999999976019, -3.000000000000000000 ) ) ;
#482 = ORIENTED_EDGE ( 'NONE', *, *, #256, .T. ) ;
#483 = VECTOR ( 'NONE', #157, 1000.000000000000000 ) ;
#484 = FACE_OUTER_BOUND ( 'NONE', #563, .T. ) ;
#485 = DIRECTION ( 'NONE',  ( -0.000000000000000000, -0.000000000000000000, -1.000000000000000000 ) ) ;
#486 = PLANE ( 'NONE',  #669 ) ;
#487 = FACE_OUTER_BOUND ( 'NONE', #899, .T. ) ;
#488 = VECTOR ( 'NONE', #194, 1000.000000000000000 ) ;
#489 = DIRECTION ( 'NONE',  ( 0.000000000000000000, 1.000000000000000000, -0.000000000000000000 ) ) ;
#490 = ORIENTED_EDGE ( 'NONE', *, *, #193, .T. ) ;
#491 = CIRCLE ( 'NONE', #758, 2.000000000000000000 ) ;
#492 = LINE ( 'NONE', #652, #183 ) ;
#493 = CIRCLE ( 'NONE', #761, 2.000000000000000000 ) ;
#494 = DIRECTION ( 'NONE',  ( 0.000000000000000000, -1.000000000000000000, 0.000000000000000000 ) ) ;
#495 = VERTEX_POINT ( 'NONE', #749 ) ;
#496 = DIRECTION ( 'NONE',  ( -0.000000000000000000, 1.000000000000000000, 0.000000000000000000 ) ) ;
#497 = EDGE_CURVE ( 'NONE', #273, #1028, #693, .T. ) ;
#498 = LINE ( 'NONE', #978, #406 ) ;
#499 = ORIENTED_EDGE ( 'NONE', *, *, #730, .F. ) ;
#500 = CIRCLE ( 'NONE', #962, 8.100999985197150366 ) ;
#501 = CYLINDRICAL_SURFACE ( 'NONE', #303, 2.000000000000000000 ) ;
#502 = ORIENTED_EDGE ( 'NONE', *, *, #522, .T. ) ;
#503 = DIRECTION ( 'NONE',  ( 1.000000000000000000, 0.000000000000000000, 0.000000000000000000 ) ) ;
#504 = LINE ( 'NONE', #917, #691 ) ;
#505 = VECTOR ( 'NONE', #414, 1000.000000000000000 ) ;
#506 = DIRECTION ( 'NONE',  ( 1.000000000000000000, 0.000000000000000000, 0.000000000000000000 ) ) ;
#507 = STYLED_ITEM ( 'NONE', ( #112 ), #535 ) ;
#508 = ORIENTED_EDGE ( 'NONE', *, *, #230, .T. ) ;
#509 = FACE_OUTER_BOUND ( 'NONE', #458, .T. ) ;
#510 = DIRECTION ( 'NONE',  ( 0.000000000000000000, -0.000000000000000000, 1.000000000000000000 ) ) ;
#511 = CARTESIAN_POINT ( 'NONE',  ( 0.8284271247461902909, 4.336808689942017736E-16, -25.00000000000000000 ) ) ;
#512 = EDGE_LOOP ( 'NONE', ( #739, #55, #533, #416 ) ) ;
#513 = VECTOR ( 'NONE', #300, 1000.000000000000000 ) ;
#514 = DIRECTION ( 'NONE',  ( 1.000000000000000000, -0.000000000000000000, 0.000000000000000000 ) ) ;
#515 = ORIENTED_EDGE ( 'NONE', *, *, #366, .F. ) ;
#516 = CYLINDRICAL_SURFACE ( 'NONE', #558, 2.000000000000001776 ) ;
#517 = EDGE_CURVE ( 'NONE', #1045, #351, #412, .T. ) ;
#518 = ADVANCED_FACE ( 'NONE', ( #509 ), #67, .T. ) ;
#519 = LINE ( 'NONE', #438, #913 ) ;
#520 = ORIENTED_EDGE ( 'NONE', *, *, #462, .F. ) ;
#521 = DIRECTION ( 'NONE',  ( -1.000000000000000000, 0.000000000000000000, 0.000000000000000000 ) ) ;
#522 = EDGE_CURVE ( 'NONE', #1028, #252, #316, .T. ) ;
#523 = ADVANCED_FACE ( 'NONE', ( #1012 ), #188, .T. ) ;
#524 = CARTESIAN_POINT ( 'NONE',  ( 48.00000000000000000, 0.000000000000000000, -25.00000000000000000 ) ) ;
#525 = FACE_OUTER_BOUND ( 'NONE', #32, .T. ) ;
#526 = ORIENTED_EDGE ( 'NONE', *, *, #335, .F. ) ;
#527 = CARTESIAN_POINT ( 'NONE',  ( 10.74718471360774785, 43.40683965378513420, -5.000000000000000000 ) ) ;
#528 = DIRECTION ( 'NONE',  ( -1.000000000000000000, -0.000000000000000000, -0.000000000000000000 ) ) ;
#529 = CARTESIAN_POINT ( 'NONE',  ( 2.000000000000000000, 0.000000000000000000, -25.00000000000000000 ) ) ;
#530 = VECTOR ( 'NONE', #503, 1000.000000000000000 ) ;
#531 = ORIENTED_EDGE ( 'NONE', *, *, #441, .T. ) ;
#532 = LINE ( 'NONE', #860, #567 ) ;
#533 = ORIENTED_EDGE ( 'NONE', *, *, #371, .T. ) ;
#534 = DIRECTION ( 'NONE',  ( 0.000000000000000000, 0.000000000000000000, -1.000000000000000000 ) ) ;
#535 = MANIFOLD_SOLID_BREP ( 'Ô²½Ç22', #49 ) ;
#536 = VECTOR ( 'NONE', #489, 1000.000000000000000 ) ;
#537 = CARTESIAN_POINT ( 'NONE',  ( 39.67522576831094483, 43.33950606236671632, 0.000000000000000000 ) ) ;
#538 = ORIENTED_EDGE ( 'NONE', *, *, #61, .F. ) ;
#539 = VECTOR ( 'NONE', #849, 1000.000000000000000 ) ;
#540 = DIRECTION ( 'NONE',  ( -1.000000000000000000, 0.000000000000000000, 0.000000000000000000 ) ) ;
#541 = VERTEX_POINT ( 'NONE', #928 ) ;
#542 = DIRECTION ( 'NONE',  ( 0.000000000000000000, 1.000000000000000000, -0.000000000000000000 ) ) ;
#543 = CIRCLE ( 'NONE', #971, 2.000000000000001776 ) ;
#544 = LINE ( 'NONE', #1041, #853 ) ;
#545 = ORIENTED_EDGE ( 'NONE', *, *, #848, .T. ) ;
#546 = DIRECTION ( 'NONE',  ( 0.000000000000000000, 0.000000000000000000, -1.000000000000000000 ) ) ;
#547 = VERTEX_POINT ( 'NONE', #107 ) ;
#548 = LINE ( 'NONE', #242, #483 ) ;
#549 = CARTESIAN_POINT ( 'NONE',  ( 50.00000000000000000, 9.999999999999973355, -3.000000000000000000 ) ) ;
#550 = ORIENTED_EDGE ( 'NONE', *, *, #400, .F. ) ;
#551 = LINE ( 'NONE', #143, #428 ) ;
#552 = ORIENTED_EDGE ( 'NONE', *, *, #321, .F. ) ;
#553 = EDGE_CURVE ( 'NONE', #385, #170, #272, .T. ) ;
#554 = CARTESIAN_POINT ( 'NONE',  ( 2.000000000000000000, 4.999999999999976019, 0.000000000000000000 ) ) ;
#555 = CARTESIAN_POINT ( 'NONE',  ( 3.499000014802848391, 35.33950606236671632, 0.000000000000000000 ) ) ;
#556 = VERTEX_POINT ( 'NONE', #922 ) ;
#557 = VERTEX_POINT ( 'NONE', #367 ) ;
#558 = AXIS2_PLACEMENT_3D ( 'NONE', #599, #684, #940 ) ;
#559 = DIRECTION ( 'NONE',  ( -0.000000000000000000, 1.000000000000000000, -0.000000000000000000 ) ) ;
#560 = DIRECTION ( 'NONE',  ( -1.000000000000000000, 0.000000000000000000, 0.000000000000000000 ) ) ;
#561 = DIRECTION ( 'NONE',  ( 0.000000000000000000, 0.000000000000000000, -1.000000000000000000 ) ) ;
#562 = CARTESIAN_POINT ( 'NONE',  ( 2.000000000000000000, 9.999999999999973355, -3.000000000000000000 ) ) ;
#563 = EDGE_LOOP ( 'NONE', ( #258, #208, #894, #939 ) ) ;
#564 = CARTESIAN_POINT ( 'NONE',  ( 2.000000000000000000, 9.999999999999973355, -10.00000000000000000 ) ) ;
#565 = DIRECTION ( 'NONE',  ( -1.000000000000000000, 0.000000000000000000, 0.000000000000000000 ) ) ;
#566 = CARTESIAN_POINT ( 'NONE',  ( 10.32477423168905695, 43.33950606236671632, 0.000000000000000000 ) ) ;
#567 = VECTOR ( 'NONE', #611, 1000.000000000000000 ) ;
#568 = SPHERICAL_SURFACE ( 'NONE', #3, 2.000000000000000000 ) ;
#569 = ORIENTED_EDGE ( 'NONE', *, *, #193, .F. ) ;
#570 = FACE_OUTER_BOUND ( 'NONE', #1035, .T. ) ;
#571 = ORIENTED_EDGE ( 'NONE', *, *, #792, .F. ) ;
#572 = EDGE_CURVE ( 'NONE', #777, #556, #433, .T. ) ;
#573 = AXIS2_PLACEMENT_3D ( 'NONE', #774, #622, #290 ) ;
#574 = CARTESIAN_POINT ( 'NONE',  ( 48.00000000000000000, 0.000000000000000000, -25.00000000000000000 ) ) ;
#575 = CARTESIAN_POINT ( 'NONE',  ( 48.00000000000000000, 4.999999999999976019, -23.00000000000000000 ) ) ;
#576 = VECTOR ( 'NONE', #146, 1000.000000000000000 ) ;
#577 = ORIENTED_EDGE ( 'NONE', *, *, #886, .T. ) ;
#578 = CARTESIAN_POINT ( 'NONE',  ( 5.054190175765737579E-16, 0.8284271247461902909, -0.8284271247461902909 ) ) ;
#579 = PRODUCT_DEFINITION_SHAPE ( 'NONE', 'NONE',  #147 ) ;
#580 = DIRECTION ( 'NONE',  ( 0.000000000000000000, 0.000000000000000000, -1.000000000000000000 ) ) ;
#581 = ORIENTED_EDGE ( 'NONE', *, *, #634, .T. ) ;
#582 = AXIS2_PLACEMENT_3D ( 'NONE', #609, #122, #451 ) ;
#583 = DIRECTION ( 'NONE',  ( -1.000000000000000000, 0.000000000000000000, 0.000000000000000000 ) ) ;
#584 = EDGE_CURVE ( 'NONE', #298, #269, #833, .T. ) ;
#585 = EDGE_CURVE ( 'NONE', #639, #447, #196, .T. ) ;
#586 = DIRECTION ( 'NONE',  ( 1.000000000000000000, 0.000000000000000000, 0.000000000000000000 ) ) ;
#587 = AXIS2_PLACEMENT_3D ( 'NONE', #823, #494, #11 ) ;
#588 = ORIENTED_EDGE ( 'NONE', *, *, #427, .F. ) ;
#589 = FACE_OUTER_BOUND ( 'NONE', #240, .T. ) ;
#590 = DIRECTION ( 'NONE',  ( 0.000000000000000000, 0.000000000000000000, 1.000000000000000000 ) ) ;
#591 = VECTOR ( 'NONE', #671, 1000.000000000000000 ) ;
#592 = LINE ( 'NONE', #347, #317 ) ;
#593 = AXIS2_PLACEMENT_3D ( 'NONE', #19, #266, #916 ) ;
#594 = ORIENTED_EDGE ( 'NONE', *, *, #94, .F. ) ;
#595 = VECTOR ( 'NONE', #318, 1000.000000000000000 ) ;
#596 = CARTESIAN_POINT ( 'NONE',  ( 38.40000000000000568, 35.33950606236671632, -5.000000000000000000 ) ) ;
#597 = EDGE_LOOP ( 'NONE', ( #376, #965, #806, #946 ) ) ;
#598 = ADVANCED_FACE ( 'NONE', ( #1007 ), #608, .T. ) ;
#599 = CARTESIAN_POINT ( 'NONE',  ( 48.00000000000000000, 2.999999999999975575, 0.000000000000000000 ) ) ;
#600 = ADVANCED_FACE ( 'NONE', ( #275 ), #516, .T. ) ;
#601 = DIRECTION ( 'NONE',  ( -1.000000000000000000, -0.000000000000000000, -0.000000000000000000 ) ) ;
#602 = EDGE_LOOP ( 'NONE', ( #37, #401, #630, #666 ) ) ;
#603 = CARTESIAN_POINT ( 'NONE',  ( 2.000000000000000000, 43.33950606236671632, -2.000000000000000000 ) ) ;
#604 = ADVANCED_FACE ( 'NONE', ( #925 ), #373, .F. ) ;
#605 = FACE_OUTER_BOUND ( 'NONE', #292, .T. ) ;
#606 = CIRCLE ( 'NONE', #1019, 5.000000000000000000 ) ;
#607 = VERTEX_POINT ( 'NONE', #688 ) ;
#608 = CYLINDRICAL_SURFACE ( 'NONE', #731, 2.000000000000000000 ) ;
#609 = CARTESIAN_POINT ( 'NONE',  ( 2.000000000000000000, 2.999999999999975575, -23.00000000000000000 ) ) ;
#610 = ORIENTED_EDGE ( 'NONE', *, *, #747, .T. ) ;
#611 = DIRECTION ( 'NONE',  ( -0.000000000000000000, -0.000000000000000000, -1.000000000000000000 ) ) ;
#612 = CARTESIAN_POINT ( 'NONE',  ( 48.00000000000000000, 43.33950606236671632, -2.000000000000000000 ) ) ;
#613 = EDGE_CURVE ( 'NONE', #22, #1028, #219, .T. ) ;
#614 = CARTESIAN_POINT ( 'NONE',  ( 10.32477423168905695, 43.33950606236671632, 0.000000000000000000 ) ) ;
#615 = DIRECTION ( 'NONE',  ( -0.000000000000000000, -1.000000000000000000, -0.000000000000000000 ) ) ;
#616 = CIRCLE ( 'NONE', #21, 2.000000000000000000 ) ;
#617 = ORIENTED_EDGE ( 'NONE', *, *, #448, .T. ) ;
#618 = DIRECTION ( 'NONE',  ( 0.000000000000000000, 0.000000000000000000, -1.000000000000000000 ) ) ;
#619 = VERTEX_POINT ( 'NONE', #128 ) ;
#620 = DIRECTION ( 'NONE',  ( -1.000000000000000000, 0.000000000000000000, 0.000000000000000000 ) ) ;
#621 = AXIS2_PLACEMENT_3D ( 'NONE', #31, #92, #586 ) ;
#622 = DIRECTION ( 'NONE',  ( 1.000000000000000000, 0.000000000000000000, -0.000000000000000000 ) ) ;
#623 = ORIENTED_EDGE ( 'NONE', *, *, #448, .F. ) ;
#624 = AXIS2_PLACEMENT_3D ( 'NONE', #919, #514, #1015 ) ;
#625 = FACE_OUTER_BOUND ( 'NONE', #319, .T. ) ;
#626 = ORIENTED_EDGE ( 'NONE', *, *, #338, .F. ) ;
#627 = AXIS2_PLACEMENT_3D ( 'NONE', #278, #288, #521 ) ;
#628 = AXIS2_PLACEMENT_3D ( 'NONE', #884, #473, #329 ) ;
#629 = DIRECTION ( 'NONE',  ( 1.000000000000000000, -0.000000000000000000, -0.000000000000000000 ) ) ;
#630 = ORIENTED_EDGE ( 'NONE', *, *, #204, .F. ) ;
#631 = ADVANCED_FACE ( 'NONE', ( #1003 ), #1032, .T. ) ;
#632 = ORIENTED_EDGE ( 'NONE', *, *, #1017, .T. ) ;
#633 = ADVANCED_FACE ( 'NONE', ( #217 ), #870, .T. ) ;
#634 = EDGE_CURVE ( 'NONE', #858, #835, #1008, .T. ) ;
#635 = CARTESIAN_POINT ( 'NONE',  ( 0.000000000000000000, 27.23850607716956418, 0.000000000000000000 ) ) ;
#636 = LINE ( 'NONE', #529, #1039 ) ;
#637 = VERTEX_POINT ( 'NONE', #461 ) ;
#638 = VECTOR ( 'NONE', #232, 1000.000000000000000 ) ;
#639 = VERTEX_POINT ( 'NONE', #574 ) ;
#640 = CIRCLE ( 'NONE', #120, 8.100999985197150366 ) ;
#641 = DIRECTION ( 'NONE',  ( 0.000000000000000000, -1.000000000000000000, 0.000000000000000000 ) ) ;
#642 = CARTESIAN_POINT ( 'NONE',  ( 11.59999999999999964, 35.33950606236671632, 0.000000000000000000 ) ) ;
#643 = CARTESIAN_POINT ( 'NONE',  ( 50.00000000000000000, 4.999999999999976019, -10.00000000000000000 ) ) ;
#644 = ORIENTED_EDGE ( 'NONE', *, *, #966, .T. ) ;
#645 = AXIS2_PLACEMENT_3D ( 'NONE', #740, #267, #340 ) ;
#646 = AXIS2_PLACEMENT_3D ( 'NONE', #97, #424, #324 ) ;
#647 = DIRECTION ( 'NONE',  ( 0.000000000000000000, 0.000000000000000000, 1.000000000000000000 ) ) ;
#648 = CARTESIAN_POINT ( 'NONE',  ( 48.00000000000000000, 0.000000000000000000, 0.000000000000000000 ) ) ;
#649 = CARTESIAN_POINT ( 'NONE',  ( 2.000000000000000000, 45.33950606236671632, -5.000000000000000000 ) ) ;
#650 = ORIENTED_EDGE ( 'NONE', *, *, #900, .F. ) ;
#651 = AXIS2_PLACEMENT_3D ( 'NONE', #741, #815, #734 ) ;
#652 = CARTESIAN_POINT ( 'NONE',  ( 0.000000000000000000, 43.33950606236671632, 0.000000000000000000 ) ) ;
#653 = CARTESIAN_POINT ( 'NONE',  ( 0.000000000000000000, 9.999999999999973355, -3.000000000000000000 ) ) ;
#654 = CARTESIAN_POINT ( 'NONE',  ( 0.000000000000000000, 4.999999999999976019, -2.000000000000000000 ) ) ;
#655 = EDGE_CURVE ( 'NONE', #95, #382, #165, .T. ) ;
#656 = EDGE_LOOP ( 'NONE', ( #673, #717, #124, #515 ) ) ;
#657 = CARTESIAN_POINT ( 'NONE',  ( 48.00000000000000000, 43.33950606236671632, -3.000000000000000000 ) ) ;
#658 = DIRECTION ( 'NONE',  ( -0.000000000000000000, -1.000000000000000000, -0.000000000000000000 ) ) ;
#659 = ORIENTED_EDGE ( 'NONE', *, *, #613, .T. ) ;
#660 = FACE_OUTER_BOUND ( 'NONE', #214, .T. ) ;
#661 = ORIENTED_EDGE ( 'NONE', *, *, #245, .F. ) ;
#662 = EDGE_CURVE ( 'NONE', #170, #57, #89, .T. ) ;
#663 = EDGE_CURVE ( 'NONE', #637, #166, #493, .T. ) ;
#664 = CARTESIAN_POINT ( 'NONE',  ( 11.59999999999999964, 35.33950606236671632, -5.000000000000000000 ) ) ;
#665 = DIRECTION ( 'NONE',  ( 0.000000000000000000, 0.000000000000000000, -1.000000000000000000 ) ) ;
#666 = ORIENTED_EDGE ( 'NONE', *, *, #907, .F. ) ;
#667 = EDGE_CURVE ( 'NONE', #556, #264, #543, .T. ) ;
#668 = DIRECTION ( 'NONE',  ( 0.000000000000000000, 0.000000000000000000, 1.000000000000000000 ) ) ;
#669 = AXIS2_PLACEMENT_3D ( 'NONE', #23, #330, #162 ) ;
#670 = FACE_OUTER_BOUND ( 'NONE', #1049, .T. ) ;
#671 = DIRECTION ( 'NONE',  ( -0.000000000000000000, -0.000000000000000000, -1.000000000000000000 ) ) ;
#672 = VECTOR ( 'NONE', #169, 1000.000000000000000 ) ;
#673 = ORIENTED_EDGE ( 'NONE', *, *, #204, .T. ) ;
#674 = DIRECTION ( 'NONE',  ( -1.000000000000000000, 0.000000000000000000, 0.000000000000000000 ) ) ;
#675 = AXIS2_PLACEMENT_3D ( 'NONE', #254, #759, #506 ) ;
#676 = AXIS2_PLACEMENT_3D ( 'NONE', #295, #542, #947 ) ;
#677 = VERTEX_POINT ( 'NONE', #179 ) ;
#678 = EDGE_CURVE ( 'NONE', #639, #994, #417, .T. ) ;
#679 = CARTESIAN_POINT ( 'NONE',  ( 10.32477423168905695, 43.33950606236671632, -5.000000000000000000 ) ) ;
#680 = UNCERTAINTY_MEASURE_WITH_UNIT (LENGTH_MEASURE( 1.000000000000000082E-05 ), #442, 'distance_accuracy_value', 'NONE');
#681 = DIRECTION ( 'NONE',  ( -0.000000000000000000, -0.000000000000000000, -1.000000000000000000 ) ) ;
#682 = ORIENTED_EDGE ( 'NONE', *, *, #985, .T. ) ;
#683 = ADVANCED_FACE ( 'NONE', ( #670 ), #745, .T. ) ;
#684 = DIRECTION ( 'NONE',  ( 0.000000000000000000, 0.000000000000000000, -1.000000000000000000 ) ) ;
#685 = AXIS2_PLACEMENT_3D ( 'NONE', #304, #468, #220 ) ;
#686 = CARTESIAN_POINT ( 'NONE',  ( 48.00000000000000000, 4.999999999999976019, -2.000000000000000000 ) ) ;
#687 = ORIENTED_EDGE ( 'NONE', *, *, #114, .F. ) ;
#688 = CARTESIAN_POINT ( 'NONE',  ( 2.000000000000000000, 4.999999999999976019, -23.00000000000000000 ) ) ;
#689 = CARTESIAN_POINT ( 'NONE',  ( 38.40000000000000568, 43.44050604756386491, -0.002551877271858831592 ) ) ;
#690 = FACE_OUTER_BOUND ( 'NONE', #51, .T. ) ;
#691 = VECTOR ( 'NONE', #103, 1000.000000000000000 ) ;
#692 = EDGE_LOOP ( 'NONE', ( #765, #396, #650 ) ) ;
#693 = CIRCLE ( 'NONE', #973, 2.000000000000000000 ) ;
#694 = EDGE_CURVE ( 'NONE', #273, #301, #492, .T. ) ;
#695 = APPLICATION_PROTOCOL_DEFINITION ( 'draft international standard', 'automotive_design', 1998, #832 ) ;
#696 = CARTESIAN_POINT ( 'NONE',  ( 2.000000000000001776, 4.999999999999976019, -10.00000000000000000 ) ) ;
#697 = ORIENTED_EDGE ( 'NONE', *, *, #716, .T. ) ;
#698 = CARTESIAN_POINT ( 'NONE',  ( 0.000000000000000000, 43.33950606236671632, -2.000000000000000000 ) ) ;
#699 = ORIENTED_EDGE ( 'NONE', *, *, #985, .F. ) ;
#700 = CARTESIAN_POINT ( 'NONE',  ( 0.000000000000000000, 43.33950606236671632, -3.000000000000000000 ) ) ;
#701 = AXIS2_PLACEMENT_3D ( 'NONE', #657, #986, #168 ) ;
#702 = CARTESIAN_POINT ( 'NONE',  ( 48.00000000000000000, 2.000000000000000000, 0.000000000000000000 ) ) ;
#703 = DIRECTION ( 'NONE',  ( 0.000000000000000000, 0.000000000000000000, 1.000000000000000000 ) ) ;
#704 = ORIENTED_EDGE ( 'NONE', *, *, #18, .F. ) ;
#705 = DIRECTION ( 'NONE',  ( 1.000000000000000000, 0.000000000000000000, -0.000000000000000000 ) ) ;
#706 = CARTESIAN_POINT ( 'NONE',  ( 11.59999999999999964, 35.33950606236671632, -5.000000000000000000 ) ) ;
#707 = EDGE_LOOP ( 'NONE', ( #659, #921, #332, #526 ) ) ;
#708 = CARTESIAN_POINT ( 'NONE',  ( 2.000000000000000000, 43.33950606236671632, 0.000000000000000000 ) ) ;
#709 = DIRECTION ( 'NONE',  ( 0.000000000000000000, -0.000000000000000000, 1.000000000000000000 ) ) ;
#710 = EDGE_CURVE ( 'NONE', #385, #541, #43, .T. ) ;
#711 = ORIENTED_EDGE ( 'NONE', *, *, #321, .T. ) ;
#712 = ORIENTED_EDGE ( 'NONE', *, *, #345, .F. ) ;
#713 = AXIS2_PLACEMENT_3D ( 'NONE', #905, #336, #320 ) ;
#714 = DIRECTION ( 'NONE',  ( 0.000000000000000000, -1.000000000000000000, 0.000000000000000000 ) ) ;
#715 = DIRECTION ( 'NONE',  ( 0.000000000000000000, -1.000000000000000000, 0.000000000000000000 ) ) ;
#716 = EDGE_CURVE ( 'NONE', #57, #495, #343, .T. ) ;
#717 = ORIENTED_EDGE ( 'NONE', *, *, #886, .F. ) ;
#718 = EDGE_LOOP ( 'NONE', ( #811, #150, #979 ) ) ;
#719 = CARTESIAN_POINT ( 'NONE',  ( 2.000000000000000000, 43.33950606236671632, -2.000000000000000000 ) ) ;
#720 = DIRECTION ( 'NONE',  ( 0.000000000000000000, -1.000000000000000000, 0.000000000000000000 ) ) ;
#721 = CARTESIAN_POINT ( 'NONE',  ( 48.00000000000000000, 45.33950606236671632, -2.000000000000000000 ) ) ;
#722 = ORIENTED_EDGE ( 'NONE', *, *, #1059, .T. ) ;
#723 = LINE ( 'NONE', #66, #931 ) ;
#724 = AXIS2_PLACEMENT_3D ( 'NONE', #1014, #956, #854 ) ;
#725 = CARTESIAN_POINT ( 'NONE',  ( 48.00000000000000000, 43.33950606236671632, -2.000000000000000000 ) ) ;
#726 = DIRECTION ( 'NONE',  ( 0.000000000000000000, 0.000000000000000000, 1.000000000000000000 ) ) ;
#727 = DIRECTION ( 'NONE',  ( 0.000000000000000000, 0.000000000000000000, -1.000000000000000000 ) ) ;
#728 = AXIS2_PLACEMENT_3D ( 'NONE', #702, #457, #224 ) ;
#729 = ORIENTED_EDGE ( 'NONE', *, *, #827, .T. ) ;
#730 = EDGE_CURVE ( 'NONE', #131, #88, #837, .T. ) ;
#731 = AXIS2_PLACEMENT_3D ( 'NONE', #192, #38, #209 ) ;
#732 = DIRECTION ( 'NONE',  ( 1.000000000000000000, 0.000000000000000000, 0.000000000000000000 ) ) ;
#733 = DIRECTION ( 'NONE',  ( -0.000000000000000000, 1.000000000000000000, -0.000000000000000000 ) ) ;
#734 = DIRECTION ( 'NONE',  ( 0.000000000000000000, 0.000000000000000000, 1.000000000000000000 ) ) ;
#735 = ORIENTED_EDGE ( 'NONE', *, *, #35, .F. ) ;
#736 = TOROIDAL_SURFACE ( 'NONE', #651, 7.000000000000000000, 2.000000000000000000 ) ;
#737 = CARTESIAN_POINT ( 'NONE',  ( 2.000000000000000000, 4.999999999999976019, 0.000000000000000000 ) ) ;
#738 = CYLINDRICAL_SURFACE ( 'NONE', #352, 2.000000000000001776 ) ;
#739 = ORIENTED_EDGE ( 'NONE', *, *, #18, .T. ) ;
#740 = CARTESIAN_POINT ( 'NONE',  ( 0.000000000000000000, 0.000000000000000000, 0.000000000000000000 ) ) ;
#741 = CARTESIAN_POINT ( 'NONE',  ( 48.00000000000000000, 9.999999999999973355, -10.00000000000000000 ) ) ;
#742 = EDGE_CURVE ( 'NONE', #938, #780, #776, .T. ) ;
#743 = ORIENTED_EDGE ( 'NONE', *, *, #716, .F. ) ;
#744 = AXIS2_PLACEMENT_3D ( 'NONE', #857, #615, #123 ) ;
#745 = PLANE ( 'NONE',  #645 ) ;
#746 = CARTESIAN_POINT ( 'NONE',  ( 0.000000000000000000, 43.33950606236671632, -2.000000000000000000 ) ) ;
#747 = EDGE_CURVE ( 'NONE', #264, #639, #504, .T. ) ;
#748 = ORIENTED_EDGE ( 'NONE', *, *, #1050, .F. ) ;
#749 = CARTESIAN_POINT ( 'NONE',  ( 39.67522576831094483, 43.33950606236671632, -5.000000000000000000 ) ) ;
#750 = CARTESIAN_POINT ( 'NONE',  ( 48.00000000000000000, 0.000000000000000000, 0.000000000000000000 ) ) ;
#751 = DIRECTION ( 'NONE',  ( 0.000000000000000000, 0.000000000000000000, -1.000000000000000000 ) ) ;
#752 = ORIENTED_EDGE ( 'NONE', *, *, #1013, .T. ) ;
#753 = CARTESIAN_POINT ( 'NONE',  ( 0.000000000000000000, 45.33950606236671632, -2.000000000000000000 ) ) ;
#754 = VECTOR ( 'NONE', #528, 1000.000000000000000 ) ;
#755 = FACE_OUTER_BOUND ( 'NONE', #440, .T. ) ;
#756 = EDGE_LOOP ( 'NONE', ( #1066, #187, #360, #743, #135, #364, #1031, #16 ) ) ;
#757 = DIRECTION ( 'NONE',  ( 0.000000000000000000, 1.000000000000000000, 0.000000000000000000 ) ) ;
#758 = AXIS2_PLACEMENT_3D ( 'NONE', #100, #1001, #751 ) ;
#759 = DIRECTION ( 'NONE',  ( 0.000000000000000000, 0.000000000000000000, 1.000000000000000000 ) ) ;
#760 = EDGE_CURVE ( 'NONE', #958, #858, #249, .T. ) ;
#761 = AXIS2_PLACEMENT_3D ( 'NONE', #826, #510, #6 ) ;
#762 = ORIENTED_EDGE ( 'NONE', *, *, #141, .F. ) ;
#763 = VECTOR ( 'NONE', #565, 1000.000000000000000 ) ;
#764 = DIRECTION ( 'NONE',  ( 1.000000000000000000, 0.000000000000000000, 0.000000000000000000 ) ) ;
#765 = ORIENTED_EDGE ( 'NONE', *, *, #345, .T. ) ;
#766 = CARTESIAN_POINT ( 'NONE',  ( 50.00000000000000000, 4.999999999999976019, -23.00000000000000000 ) ) ;
#767 = AXIS2_PLACEMENT_3D ( 'NONE', #937, #297, #783 ) ;
#768 = CARTESIAN_POINT ( 'NONE',  ( 0.000000000000000000, 43.33950606236671632, -5.000000000000000000 ) ) ;
#769 = ORIENTED_EDGE ( 'NONE', *, *, #998, .T. ) ;
#770 = AXIS2_PLACEMENT_3D ( 'NONE', #828, #113, #434 ) ;
#771 = EDGE_CURVE ( 'NONE', #938, #452, #372, .T. ) ;
#772 = APPLICATION_CONTEXT ( 'automotive_design' ) ;
#773 = CYLINDRICAL_SURFACE ( 'NONE', #207, 2.000000000000000000 ) ;
#774 = CARTESIAN_POINT ( 'NONE',  ( 0.000000000000000000, 9.999999999999973355, -10.00000000000000000 ) ) ;
#775 = DIRECTION ( 'NONE',  ( 1.000000000000000000, -0.000000000000000000, -0.000000000000000000 ) ) ;
#776 = CIRCLE ( 'NONE', #322, 2.000000000000000000 ) ;
#777 = VERTEX_POINT ( 'NONE', #53 ) ;
#778 = CYLINDRICAL_SURFACE ( 'NONE', #980, 2.000000000000001776 ) ;
#779 = VECTOR ( 'NONE', #42, 1000.000000000000000 ) ;
#780 = VERTEX_POINT ( 'NONE', #786 ) ;
#781 = CARTESIAN_POINT ( 'NONE',  ( 11.59999999999999964, 43.44050604756386491, -4.997448122728142650 ) ) ;
#782 = B_SPLINE_CURVE_WITH_KNOTS ( 'NONE', 3,
 ( #197, #45, #949, #614 ),
 .UNSPECIFIED., .F., .F.,
 ( 4, 4 ),
 ( 0.000000000000000000, 0.001279221743581490309 ),
 .UNSPECIFIED. ) ;
#783 = DIRECTION ( 'NONE',  ( 0.000000000000000000, 0.000000000000000000, -1.000000000000000000 ) ) ;
#784 = CIRCLE ( 'NONE', #1057, 2.000000000000000000 ) ;
#785 = ORIENTED_EDGE ( 'NONE', *, *, #1011, .F. ) ;
#786 = CARTESIAN_POINT ( 'NONE',  ( 48.00000000000000000, 43.33950606236671632, -5.000000000000000000 ) ) ;
#787 = LINE ( 'NONE', #307, #52 ) ;
#788 = ORIENTED_EDGE ( 'NONE', *, *, #694, .T. ) ;
#789 = DIRECTION ( 'NONE',  ( 0.000000000000000000, 0.000000000000000000, 1.000000000000000000 ) ) ;
#790 = FACE_OUTER_BOUND ( 'NONE', #190, .T. ) ;
#791 = DIRECTION ( 'NONE',  ( 0.000000000000000000, -0.000000000000000000, -1.000000000000000000 ) ) ;
#792 = EDGE_CURVE ( 'NONE', #166, #351, #532, .T. ) ;
#793 = ORIENTED_EDGE ( 'NONE', *, *, #439, .F. ) ;
#794 = CARTESIAN_POINT ( 'NONE',  ( 0.000000000000000000, 2.000000000000000000, -23.00000000000000000 ) ) ;
#795 = ORIENTED_EDGE ( 'NONE', *, *, #302, .F. ) ;
#796 = DIRECTION ( 'NONE',  ( 1.000000000000000000, -0.000000000000000000, 0.000000000000000000 ) ) ;
#797 = DIRECTION ( 'NONE',  ( -1.000000000000000000, 0.000000000000000000, 0.000000000000000000 ) ) ;
#798 = ADVANCED_FACE ( 'NONE', ( #383 ), #293, .F. ) ;
#799 = ORIENTED_EDGE ( 'NONE', *, *, #933, .T. ) ;
#800 = AXIS2_PLACEMENT_3D ( 'NONE', #943, #213, #974 ) ;
#801 = FACE_OUTER_BOUND ( 'NONE', #692, .T. ) ;
#802 = ORIENTED_EDGE ( 'NONE', *, *, #585, .F. ) ;
#803 = LINE ( 'NONE', #635, #306 ) ;
#804 = CARTESIAN_POINT ( 'NONE',  ( 48.00000000000000000, 4.999999999999976019, 0.000000000000000000 ) ) ;
#805 = LINE ( 'NONE', #325, #672 ) ;
#806 = ORIENTED_EDGE ( 'NONE', *, *, #967, .T. ) ;
#807 = CARTESIAN_POINT ( 'NONE',  ( 48.00000000000000000, 43.33950606236671632, -3.000000000000000000 ) ) ;
#808 = CARTESIAN_POINT ( 'NONE',  ( 50.00000000000000000, 43.33950606236671632, -3.000000000000000000 ) ) ;
#809 = CYLINDRICAL_SURFACE ( 'NONE', #587, 2.000000000000000000 ) ;
#810 = ADVANCED_FACE ( 'NONE', ( #299 ), #778, .T. ) ;
#811 = ORIENTED_EDGE ( 'NONE', *, *, #955, .F. ) ;
#812 = CARTESIAN_POINT ( 'NONE',  ( 50.00000000000000000, 43.33950606236671632, -2.000000000000000000 ) ) ;
#813 = DIRECTION ( 'NONE',  ( 0.000000000000000000, 1.000000000000000000, 0.000000000000000000 ) ) ;
#814 = CYLINDRICAL_SURFACE ( 'NONE', #713, 8.100999985197150366 ) ;
#815 = DIRECTION ( 'NONE',  ( -1.000000000000000000, 0.000000000000000000, 0.000000000000000000 ) ) ;
#816 = AXIS2_PLACEMENT_3D ( 'NONE', #380, #369, #375 ) ;
#817 = ORIENTED_EDGE ( 'NONE', *, *, #771, .T. ) ;
#818 = CARTESIAN_POINT ( 'NONE',  ( 2.000000000000000000, 2.999999999999974243, -10.00000000000000000 ) ) ;
#819 = DIRECTION ( 'NONE',  ( 0.000000000000000000, 1.040834085586084454E-15, -1.000000000000000000 ) ) ;
#820 = ORIENTED_EDGE ( 'NONE', *, *, #200, .T. ) ;
#821 = ADVANCED_FACE ( 'NONE', ( #625 ), #377, .T. ) ;
#822 = ADVANCED_FACE ( 'NONE', ( #206 ), #867, .F. ) ;
#823 = CARTESIAN_POINT ( 'NONE',  ( 48.00000000000000000, 45.33950606236671632, -3.000000000000000000 ) ) ;
#824 = ORIENTED_EDGE ( 'NONE', *, *, #497, .F. ) ;
#825 = CIRCLE ( 'NONE', #229, 2.000000000000000000 ) ;
#826 = CARTESIAN_POINT ( 'NONE',  ( 2.000000000000000000, 43.33950606236671632, -2.000000000000000000 ) ) ;
#827 = EDGE_CURVE ( 'NONE', #557, #829, #390, .T. ) ;
#828 = CARTESIAN_POINT ( 'NONE',  ( 11.59999999999999964, 27.23850607716956418, 5.000000000000000000 ) ) ;
#829 = VERTEX_POINT ( 'NONE', #794 ) ;
#830 = CARTESIAN_POINT ( 'NONE',  ( 50.00000000000000000, 0.8284271247461908461, -0.8284271247461908461 ) ) ;
#831 = VECTOR ( 'NONE', #333, 1000.000000000000000 ) ;
#832 = APPLICATION_CONTEXT ( 'automotive_design' ) ;
#833 = CIRCLE ( 'NONE', #918, 2.000000000000000000 ) ;
#834 = CARTESIAN_POINT ( 'NONE',  ( 2.000000000000000000, 2.999999999999975575, 0.000000000000000000 ) ) ;
#835 = VERTEX_POINT ( 'NONE', #384 ) ;
#836 = DIRECTION ( 'NONE',  ( -0.000000000000000000, -0.000000000000000000, 1.000000000000000000 ) ) ;
#837 = LINE ( 'NONE', #14, #505 ) ;
#838 = CARTESIAN_POINT ( 'NONE',  ( 0.000000000000000000, 0.000000000000000000, 0.000000000000000000 ) ) ;
#839 = EDGE_LOOP ( 'NONE', ( #58, #222, #795, #687 ) ) ;
#840 = SURFACE_STYLE_USAGE ( .BOTH. , #199 ) ;
#841 = DIRECTION ( 'NONE',  ( 0.000000000000000000, 0.000000000000000000, -1.000000000000000000 ) ) ;
#842 = ORIENTED_EDGE ( 'NONE', *, *, #35, .T. ) ;
#843 =( NAMED_UNIT ( * ) PLANE_ANGLE_UNIT ( ) SI_UNIT ( $, .RADIAN. ) );
#844 = DIRECTION ( 'NONE',  ( -1.000000000000000000, 0.000000000000000000, 0.000000000000000000 ) ) ;
#845 = ORIENTED_EDGE ( 'NONE', *, *, #1052, .F. ) ;
#846 = CIRCLE ( 'NONE', #628, 2.000000000000000000 ) ;
#847 = SURFACE_STYLE_FILL_AREA ( #358 ) ;
#848 = EDGE_CURVE ( 'NONE', #495, #780, #551, .T. ) ;
#849 = DIRECTION ( 'NONE',  ( 0.000000000000000000, 0.000000000000000000, -1.000000000000000000 ) ) ;
#850 = ADVANCED_FACE ( 'NONE', ( #801 ), #54, .T. ) ;
#851 = ORIENTED_EDGE ( 'NONE', *, *, #114, .T. ) ;
#852 =( NAMED_UNIT ( * ) SI_UNIT ( $, .STERADIAN. ) SOLID_ANGLE_UNIT ( ) );
#853 = VECTOR ( 'NONE', #797, 1000.000000000000000 ) ;
#854 = DIRECTION ( 'NONE',  ( 1.000000000000000000, 0.000000000000000000, 0.000000000000000000 ) ) ;
#855 = EDGE_CURVE ( 'NONE', #452, #1028, #787, .T. ) ;
#856 = CARTESIAN_POINT ( 'NONE',  ( 2.000000000000000000, 43.33950606236671632, -3.000000000000000000 ) ) ;
#857 = CARTESIAN_POINT ( 'NONE',  ( 2.000000000000000000, 2.999999999999975575, -23.00000000000000000 ) ) ;
#858 = VERTEX_POINT ( 'NONE', #136 ) ;
#859 = AXIS2_PLACEMENT_3D ( 'NONE', #164, #159, #819 ) ;
#860 = CARTESIAN_POINT ( 'NONE',  ( 0.000000000000000000, 43.33950606236671632, 0.000000000000000000 ) ) ;
#861 =( GEOMETRIC_REPRESENTATION_CONTEXT ( 3 ) GLOBAL_UNCERTAINTY_ASSIGNED_CONTEXT ( ( #210 ) ) GLOBAL_UNIT_ASSIGNED_CONTEXT ( ( #1040, #450, #289 ) ) REPRESENTATION_CONTEXT ( 'NONE', 'WORKASPACE' ) );
#862 = ORIENTED_EDGE ( 'NONE', *, *, #338, .T. ) ;
#863 = DIRECTION ( 'NONE',  ( 0.000000000000000000, 0.000000000000000000, 1.000000000000000000 ) ) ;
#864 = AXIS2_PLACEMENT_3D ( 'NONE', #1033, #715, #791 ) ;
#865 = CARTESIAN_POINT ( 'NONE',  ( 38.40000000000000568, 43.44050604756386491, -0.002551877271858397911 ) ) ;
#866 = EDGE_LOOP ( 'NONE', ( #878, #531, #788, #337, #699, #588, #623, #247, #883 ) ) ;
#867 = PLANE ( 'NONE',  #381 ) ;
#868 = AXIS2_PLACEMENT_3D ( 'NONE', #603, #757, #283 ) ;
#869 = EDGE_LOOP ( 'NONE', ( #748, #888, #177, #46 ) ) ;
#870 = CYLINDRICAL_SURFACE ( 'NONE', #357, 2.000000000000000000 ) ;
#871 = CARTESIAN_POINT ( 'NONE',  ( 39.25281528639225570, 43.40683965378513420, 0.000000000000000000 ) ) ;
#872 = PLANE ( 'NONE',  #864 ) ;
#873 = ORIENTED_EDGE ( 'NONE', *, *, #1034, .F. ) ;
#874 = DIRECTION ( 'NONE',  ( -0.000000000000000000, -0.000000000000000000, 1.000000000000000000 ) ) ;
#875 = EDGE_CURVE ( 'NONE', #541, #88, #882, .T. ) ;
#876 = LINE ( 'NONE', #139, #1046 ) ;
#877 = ORIENTED_EDGE ( 'NONE', *, *, #667, .T. ) ;
#878 = ORIENTED_EDGE ( 'NONE', *, *, #141, .T. ) ;
#879 = DIRECTION ( 'NONE',  ( 0.000000000000000000, 1.000000000000000000, -0.000000000000000000 ) ) ;
#880 = FACE_OUTER_BOUND ( 'NONE', #718, .T. ) ;
#881 = ORIENTED_EDGE ( 'NONE', *, *, #613, .F. ) ;
#882 = CIRCLE ( 'NONE', #282, 8.100999985197150366 ) ;
#883 = ORIENTED_EDGE ( 'NONE', *, *, #760, .T. ) ;
#884 = CARTESIAN_POINT ( 'NONE',  ( 2.000000000000000000, 43.33950606236671632, -3.000000000000000000 ) ) ;
#885 = LINE ( 'NONE', #804, #911 ) ;
#886 = EDGE_CURVE ( 'NONE', #269, #547, #606, .T. ) ;
#887 = CARTESIAN_POINT ( 'NONE',  ( 0.000000000000000000, 4.999999999999976019, -3.000000000000000000 ) ) ;
#888 = ORIENTED_EDGE ( 'NONE', *, *, #747, .F. ) ;
#889 = LINE ( 'NONE', #1061, #13 ) ;
#890 = CARTESIAN_POINT ( 'NONE',  ( 2.000000000000000000, 43.33950606236671632, 0.000000000000000000 ) ) ;
#891 = LINE ( 'NONE', #961, #638 ) ;
#892 = LINE ( 'NONE', #643, #271 ) ;
#893 = CIRCLE ( 'NONE', #941, 2.000000000000001776 ) ;
#894 = ORIENTED_EDGE ( 'NONE', *, *, #655, .F. ) ;
#895 = CARTESIAN_POINT ( 'NONE',  ( 0.000000000000000000, 2.000000000000000000, -2.000000000000000000 ) ) ;
#896 = CYLINDRICAL_SURFACE ( 'NONE', #646, 2.000000000000000000 ) ;
#897 = LINE ( 'NONE', #887, #211 ) ;
#898 = AXIS2_PLACEMENT_3D ( 'NONE', #36, #262, #181 ) ;
#899 = EDGE_LOOP ( 'NONE', ( #944, #370, #959, #910 ) ) ;
#900 = EDGE_CURVE ( 'NONE', #557, #423, #148, .T. ) ;
#901 = DIRECTION ( 'NONE',  ( 0.000000000000000000, -0.000000000000000000, 1.000000000000000000 ) ) ;
#902 = ADVANCED_FACE ( 'NONE', ( #1027 ), #291, .F. ) ;
#903 = VECTOR ( 'NONE', #393, 1000.000000000000000 ) ;
#904 = DIRECTION ( 'NONE',  ( 0.000000000000000000, 0.000000000000000000, 1.000000000000000000 ) ) ;
#905 = CARTESIAN_POINT ( 'NONE',  ( 11.59999999999999964, 35.33950606236671632, 5.000000000000000000 ) ) ;
#906 = ORIENTED_EDGE ( 'NONE', *, *, #68, .F. ) ;
#907 = EDGE_CURVE ( 'NONE', #556, #106, #889, .T. ) ;
#908 = DIRECTION ( 'NONE',  ( -1.000000000000000000, 0.000000000000000000, 0.000000000000000000 ) ) ;
#909 = CARTESIAN_POINT ( 'NONE',  ( 11.59999999999999787, 27.23850607716956418, -5.000000000000000000 ) ) ;
#910 = ORIENTED_EDGE ( 'NONE', *, *, #875, .F. ) ;
#911 = VECTOR ( 'NONE', #733, 1000.000000000000000 ) ;
#912 = CARTESIAN_POINT ( 'NONE',  ( 38.40000000000000568, 43.44050604756386491, -4.997448122728141762 ) ) ;
#913 = VECTOR ( 'NONE', #601, 1000.000000000000000 ) ;
#914 = CARTESIAN_POINT ( 'NONE',  ( 0.000000000000000000, 2.999999999999975575, 0.000000000000000000 ) ) ;
#915 = ORIENTED_EDGE ( 'NONE', *, *, #827, .F. ) ;
#916 = DIRECTION ( 'NONE',  ( 0.000000000000000000, 0.000000000000000000, 1.000000000000000000 ) ) ;
#917 = CARTESIAN_POINT ( 'NONE',  ( 48.00000000000000000, 4.999999999999976019, -25.00000000000000000 ) ) ;
#918 = AXIS2_PLACEMENT_3D ( 'NONE', #1024, #449, #863 ) ;
#919 = CARTESIAN_POINT ( 'NONE',  ( 0.000000000000000000, 9.999999999999973355, -10.00000000000000000 ) ) ;
#920 = ADVANCED_FACE ( 'NONE', ( #484 ), #421, .T. ) ;
#921 = ORIENTED_EDGE ( 'NONE', *, *, #855, .F. ) ;
#922 = CARTESIAN_POINT ( 'NONE',  ( 50.00000000000000000, 2.999999999999975575, -23.00000000000000000 ) ) ;
#923 = PLANE ( 'NONE',  #218 ) ;
#924 = ORIENTED_EDGE ( 'NONE', *, *, #634, .F. ) ;
#925 = FACE_OUTER_BOUND ( 'NONE', #313, .T. ) ;
#926 = FACE_OUTER_BOUND ( 'NONE', #866, .T. ) ;
#927 = ORIENTED_EDGE ( 'NONE', *, *, #33, .F. ) ;
#928 = CARTESIAN_POINT ( 'NONE',  ( 3.499000014802848391, 35.33950606236671632, -5.000000000000000000 ) ) ;
#929 = ADVANCED_FACE ( 'NONE', ( #977 ), #74, .T. ) ;
#930 = ADVANCED_FACE ( 'NONE', ( #487 ), #814, .F. ) ;
#931 = VECTOR ( 'NONE', #485, 1000.000000000000000 ) ;
#932 = ADVANCED_FACE ( 'NONE', ( #960 ), #1, .T. ) ;
#933 = EDGE_CURVE ( 'NONE', #447, #423, #876, .T. ) ;
#934 = DIRECTION ( 'NONE',  ( -1.000000000000000000, 0.000000000000000000, -0.000000000000000000 ) ) ;
#935 = ORIENTED_EDGE ( 'NONE', *, *, #553, .T. ) ;
#936 = EDGE_CURVE ( 'NONE', #607, #382, #59, .T. ) ;
#937 = CARTESIAN_POINT ( 'NONE',  ( 48.00000000000000000, 4.999999999999976019, -23.00000000000000000 ) ) ;
#938 = VERTEX_POINT ( 'NONE', #71 ) ;
#939 = ORIENTED_EDGE ( 'NONE', *, *, #200, .F. ) ;
#940 = DIRECTION ( 'NONE',  ( -1.000000000000000000, 0.000000000000000000, 0.000000000000000000 ) ) ;
#941 = AXIS2_PLACEMENT_3D ( 'NONE', #397, #323, #647 ) ;
#942 = CARTESIAN_POINT ( 'NONE',  ( 2.000000000000000000, 2.999999999999975575, -23.00000000000000000 ) ) ;
#943 = CARTESIAN_POINT ( 'NONE',  ( 0.000000000000000000, 4.999999999999976019, 0.000000000000000000 ) ) ;
#944 = ORIENTED_EDGE ( 'NONE', *, *, #998, .F. ) ;
#945 = CARTESIAN_POINT ( 'NONE',  ( 0.000000000000000000, 45.33950606236671632, 0.000000000000000000 ) ) ;
#946 = ORIENTED_EDGE ( 'NONE', *, *, #989, .T. ) ;
#947 = DIRECTION ( 'NONE',  ( 0.000000000000000000, 0.000000000000000000, 1.000000000000000000 ) ) ;
#948 = VECTOR ( 'NONE', #681, 1000.000000000000000 ) ;
#949 = CARTESIAN_POINT ( 'NONE',  ( 10.74718471360774785, 43.40683965378513420, 1.672890071458331894E-16 ) ) ;
#950 = CARTESIAN_POINT ( 'NONE',  ( 48.00000000000000000, 9.999999999999973355, -10.00000000000000000 ) ) ;
#951 = ORIENTED_EDGE ( 'NONE', *, *, #933, .F. ) ;
#952 = AXIS2_PLACEMENT_3D ( 'NONE', #818, #346, #908 ) ;
#953 = DIRECTION ( 'NONE',  ( 0.000000000000000000, 1.000000000000000000, 0.000000000000000000 ) ) ;
#954 = ORIENTED_EDGE ( 'NONE', *, *, #245, .T. ) ;
#955 = EDGE_CURVE ( 'NONE', #1045, #216, #846, .T. ) ;
#956 = DIRECTION ( 'NONE',  ( 0.000000000000000000, 0.000000000000000000, 1.000000000000000000 ) ) ;
#957 = CARTESIAN_POINT ( 'NONE',  ( 0.000000000000000000, 43.33950606236671632, -3.000000000000000000 ) ) ;
#958 = VERTEX_POINT ( 'NONE', #890 ) ;
#959 = ORIENTED_EDGE ( 'NONE', *, *, #730, .T. ) ;
#960 = FACE_OUTER_BOUND ( 'NONE', #991, .T. ) ;
#961 = CARTESIAN_POINT ( 'NONE',  ( 38.40000000000000568, 27.23850607716956418, 5.000000000000000000 ) ) ;
#962 = AXIS2_PLACEMENT_3D ( 'NONE', #642, #243, #560 ) ;
#963 = EDGE_LOOP ( 'NONE', ( #1051, #234, #712, #569 ) ) ;
#964 =( BOUNDED_CURVE ( )  B_SPLINE_CURVE ( 3, ( #524, #121, #443, #1025 ),
 .UNSPECIFIED., .F., .T. ) 
 B_SPLINE_CURVE_WITH_KNOTS ( ( 4, 4 ),
 ( 3.141592653589793116, 4.712388980384689674 ),
 .UNSPECIFIED. ) 
 CURVE ( )  GEOMETRIC_REPRESENTATION_ITEM ( )  RATIONAL_B_SPLINE_CURVE ( ( 1.000000000000000000, 0.8047378541243649375, 0.8047378541243649375, 1.000000000000000000 ) ) 
 REPRESENTATION_ITEM ( '' )  );
#965 = ORIENTED_EDGE ( 'NONE', *, *, #335, .T. ) ;
#966 = EDGE_CURVE ( 'NONE', #780, #269, #231, .T. ) ;
#967 = EDGE_CURVE ( 'NONE', #938, #216, #404, .T. ) ;
#968 = CARTESIAN_POINT ( 'NONE',  ( 48.00000000000000000, 0.000000000000000000, 0.000000000000000000 ) ) ;
#969 = CARTESIAN_POINT ( 'NONE',  ( 50.00000000000000000, 4.999999999999976019, 0.000000000000000000 ) ) ;
#970 = DIRECTION ( 'NONE',  ( 1.000000000000000000, -0.000000000000000000, -0.000000000000000000 ) ) ;
#971 = AXIS2_PLACEMENT_3D ( 'NONE', #328, #496, #185 ) ;
#972 = VERTEX_POINT ( 'NONE', #310 ) ;
#973 = AXIS2_PLACEMENT_3D ( 'NONE', #410, #813, #668 ) ;
#974 = DIRECTION ( 'NONE',  ( 0.000000000000000000, 0.000000000000000000, -1.000000000000000000 ) ) ;
#975 = DIRECTION ( 'NONE',  ( 0.000000000000000000, 0.000000000000000000, 1.000000000000000000 ) ) ;
#976 = DIRECTION ( 'NONE',  ( -1.000000000000000000, 0.000000000000000000, 0.000000000000000000 ) ) ;
#977 = FACE_OUTER_BOUND ( 'NONE', #435, .T. ) ;
#978 = CARTESIAN_POINT ( 'NONE',  ( 11.59999999999999964, 43.44050604756386491, 5.000000000000000000 ) ) ;
#979 = ORIENTED_EDGE ( 'NONE', *, *, #342, .F. ) ;
#980 = AXIS2_PLACEMENT_3D ( 'NONE', #47, #618, #540 ) ;
#981 = CARTESIAN_POINT ( 'NONE',  ( 38.82774341347131042, 43.44050604756386491, -4.997448122728141762 ) ) ;
#982 = SPHERICAL_SURFACE ( 'NONE', #73, 2.000000000000000000 ) ;
#983 = CARTESIAN_POINT ( 'NONE',  ( 50.00000000000000000, 4.999999999999976019, -3.000000000000000000 ) ) ;
#984 = ORIENTED_EDGE ( 'NONE', *, *, #678, .F. ) ;
#985 = EDGE_CURVE ( 'NONE', #131, #972, #803, .T. ) ;
#986 = DIRECTION ( 'NONE',  ( 0.000000000000000000, 0.000000000000000000, -1.000000000000000000 ) ) ;
#987 = FACE_OUTER_BOUND ( 'NONE', #839, .T. ) ;
#988 = ORIENTED_EDGE ( 'NONE', *, *, #907, .T. ) ;
#989 = EDGE_CURVE ( 'NONE', #216, #637, #236, .T. ) ;
#990 = DIRECTION ( 'NONE',  ( -0.000000000000000000, 1.000000000000000000, -0.000000000000000000 ) ) ;
#991 = EDGE_LOOP ( 'NONE', ( #151, #101, #817 ) ) ;
#992 = CARTESIAN_POINT ( 'NONE',  ( 39.67522576831094483, 43.33950606236671632, -5.000000000000000000 ) ) ;
#993 = PLANE ( 'NONE',  #770 ) ;
#994 = VERTEX_POINT ( 'NONE', #968 ) ;
#995 = AXIS2_PLACEMENT_3D ( 'NONE', #942, #629, #60 ) ;
#996 = DIRECTION ( 'NONE',  ( 0.000000000000000000, 0.000000000000000000, 1.000000000000000000 ) ) ;
#997 = CARTESIAN_POINT ( 'NONE',  ( 48.00000000000000000, 43.33950606236671632, -3.000000000000000000 ) ) ;
#998 = EDGE_CURVE ( 'NONE', #469, #541, #723, .T. ) ;
#999 = AXIS2_PLACEMENT_3D ( 'NONE', #481, #4, #334 ) ;
#1000 = PRODUCT_DEFINITION_FORMATION_WITH_SPECIFIED_SOURCE ( 'ä»', '', #171, .NOT_KNOWN. ) ;
#1001 = DIRECTION ( 'NONE',  ( 1.000000000000000000, 0.000000000000000000, 0.000000000000000000 ) ) ;
#1002 = ORIENTED_EDGE ( 'NONE', *, *, #108, .F. ) ;
#1003 = FACE_OUTER_BOUND ( 'NONE', #460, .T. ) ;
#1004 = PRESENTATION_LAYER_ASSIGNMENT (  '', '', ( #507 ) ) ;
#1005 = LINE ( 'NONE', #838, #488 ) ;
#1006 = ORIENTED_EDGE ( 'NONE', *, *, #256, .F. ) ;
#1007 = FACE_OUTER_BOUND ( 'NONE', #133, .T. ) ;
#1008 =( BOUNDED_CURVE ( )  B_SPLINE_CURVE ( 3, ( #253, #10, #578, #895 ),
 .UNSPECIFIED., .F., .T. ) 
 B_SPLINE_CURVE_WITH_KNOTS ( ( 4, 4 ),
 ( 0.000000000000000000, 1.570796326794896558 ),
 .UNSPECIFIED. ) 
 CURVE ( )  GEOMETRIC_REPRESENTATION_ITEM ( )  RATIONAL_B_SPLINE_CURVE ( ( 1.000000000000000000, 0.8047378541243649375, 0.8047378541243649375, 1.000000000000000000 ) ) 
 REPRESENTATION_ITEM ( '' )  );
#1009 = CARTESIAN_POINT ( 'NONE',  ( 11.59999999999999787, 27.23850607716956418, 0.000000000000000000 ) ) ;
#1010 = ORIENTED_EDGE ( 'NONE', *, *, #585, .T. ) ;
#1011 = EDGE_CURVE ( 'NONE', #70, #264, #893, .T. ) ;
#1012 = FACE_OUTER_BOUND ( 'NONE', #344, .T. ) ;
#1013 = EDGE_CURVE ( 'NONE', #829, #835, #548, .T. ) ;
#1014 = CARTESIAN_POINT ( 'NONE',  ( 0.000000000000000000, 0.000000000000000000, 0.000000000000000000 ) ) ;
#1015 = DIRECTION ( 'NONE',  ( 0.000000000000000000, 0.000000000000000000, -1.000000000000000000 ) ) ;
#1016 = ORIENTED_EDGE ( 'NONE', *, *, #93, .T. ) ;
#1017 = EDGE_CURVE ( 'NONE', #958, #166, #616, .T. ) ;
#1018 = CARTESIAN_POINT ( 'NONE',  ( 50.00000000000000000, 4.999999999999976019, -2.000000000000000000 ) ) ;
#1019 = AXIS2_PLACEMENT_3D ( 'NONE', #950, #775, #703 ) ;
#1020 = DIRECTION ( 'NONE',  ( 0.000000000000000000, 0.000000000000000000, 1.000000000000000000 ) ) ;
#1021 = CARTESIAN_POINT ( 'NONE',  ( 48.00000000000000000, 45.33950606236671632, 0.000000000000000000 ) ) ;
#1022 = VECTOR ( 'NONE', #436, 1000.000000000000000 ) ;
#1023 = EDGE_LOOP ( 'NONE', ( #327, #851, #64, #502, #144, #356, #988 ) ) ;
#1024 = CARTESIAN_POINT ( 'NONE',  ( 48.00000000000000000, 9.999999999999973355, -3.000000000000000000 ) ) ;
#1025 = CARTESIAN_POINT ( 'NONE',  ( 50.00000000000000000, 2.000000000000000000, -23.00000000000000000 ) ) ;
#1026 = CARTESIAN_POINT ( 'NONE',  ( 10.32477423168905695, 43.33950606236671632, -5.000000000000000000 ) ) ;
#1027 = FACE_OUTER_BOUND ( 'NONE', #294, .T. ) ;
#1028 = VERTEX_POINT ( 'NONE', #812 ) ;
#1029 = AXIS2_PLACEMENT_3D ( 'NONE', #698, #1030, #215 ) ;
#1030 = DIRECTION ( 'NONE',  ( 1.000000000000000000, 0.000000000000000000, 0.000000000000000000 ) ) ;
#1031 = ORIENTED_EDGE ( 'NONE', *, *, #339, .F. ) ;
#1032 = SPHERICAL_SURFACE ( 'NONE', #676, 2.000000000000000000 ) ;
#1033 = CARTESIAN_POINT ( 'NONE',  ( 0.000000000000000000, 4.999999999999976019, 0.000000000000000000 ) ) ;
#1034 = EDGE_CURVE ( 'NONE', #88, #1043, #79, .T. ) ;
#1035 = EDGE_LOOP ( 'NONE', ( #198, #951, #308, #915 ) ) ;
#1036 = DIRECTION ( 'NONE',  ( 0.000000000000000000, -0.000000000000000000, -1.000000000000000000 ) ) ;
#1037 = DIRECTION ( 'NONE',  ( 0.000000000000000000, -0.000000000000000000, 1.000000000000000000 ) ) ;
#1038 = ORIENTED_EDGE ( 'NONE', *, *, #875, .T. ) ;
#1039 = VECTOR ( 'NONE', #40, 1000.000000000000000 ) ;
#1040 =( LENGTH_UNIT ( ) NAMED_UNIT ( * ) SI_UNIT ( .MILLI., .METRE. ) );
#1041 = CARTESIAN_POINT ( 'NONE',  ( 0.000000000000000000, 4.999999999999976019, -23.00000000000000000 ) ) ;
#1042 = B_SPLINE_CURVE_WITH_KNOTS ( 'NONE', 3,
 ( #285, #871, #379, #201 ),
 .UNSPECIFIED., .F., .F.,
 ( 4, 4 ),
 ( 0.000000000000000000, 0.001279221743581488357 ),
 .UNSPECIFIED. ) ;
#1043 = VERTEX_POINT ( 'NONE', #315 ) ;
#1044 = CARTESIAN_POINT ( 'NONE',  ( 2.000000000000000000, 2.999999999999975575, -23.00000000000000000 ) ) ;
#1045 = VERTEX_POINT ( 'NONE', #1047 ) ;
#1046 = VECTOR ( 'NONE', #559, 1000.000000000000000 ) ;
#1047 = CARTESIAN_POINT ( 'NONE',  ( 2.000000000000000000, 43.33950606236671632, -5.000000000000000000 ) ) ;
#1048 = DIRECTION ( 'NONE',  ( 0.000000000000000000, -1.000000000000000000, 0.000000000000000000 ) ) ;
#1049 = EDGE_LOOP ( 'NONE', ( #802, #348, #762, #711 ) ) ;
#1050 = EDGE_CURVE ( 'NONE', #639, #777, #964, .T. ) ;
#1051 = ORIENTED_EDGE ( 'NONE', *, *, #655, .T. ) ;
#1052 = EDGE_CURVE ( 'NONE', #301, #281, #1042, .T. ) ;
#1053 = DIRECTION ( 'NONE',  ( 0.000000000000000000, 0.000000000000000000, -1.000000000000000000 ) ) ;
#1054 = DIRECTION ( 'NONE',  ( 0.000000000000000000, -0.000000000000000000, -1.000000000000000000 ) ) ;
#1055 = AXIS2_PLACEMENT_3D ( 'NONE', #969, #976, #996 ) ;
#1056 = DIRECTION ( 'NONE',  ( 0.000000000000000000, 1.000000000000000000, -0.000000000000000000 ) ) ;
#1057 = AXIS2_PLACEMENT_3D ( 'NONE', #562, #658, #580 ) ;
#1058 = ORIENTED_EDGE ( 'NONE', *, *, #17, .T. ) ;
#1059 = EDGE_CURVE ( 'NONE', #281, #677, #368, .T. ) ;
#1060 = ADVANCED_BREP_SHAPE_REPRESENTATION ( '\X2\652f67b6\X0\', ( #535, #724 ), #861 ) ;
#1061 = CARTESIAN_POINT ( 'NONE',  ( 50.00000000000000000, 2.999999999999975575, 0.000000000000000000 ) ) ;
#1062 = ADVANCED_FACE ( 'NONE', ( #790 ), #773, .T. ) ;
#1063 = CARTESIAN_POINT ( 'NONE',  ( 2.000000000000000000, 45.33950606236671632, 0.000000000000000000 ) ) ;
#1064 = DIRECTION ( 'NONE',  ( -1.000000000000000000, 1.713095646608215589E-15, 0.000000000000000000 ) ) ;
#1065 = DIRECTION ( 'NONE',  ( -1.000000000000000000, 0.000000000000000000, 0.000000000000000000 ) ) ;
#1066 = ORIENTED_EDGE ( 'NONE', *, *, #967, .F. ) ;
ENDSEC;
END-ISO-10303-21;
