ISO-10303-21;
HEADER;
FILE_DESCRIPTION (( 'STEP AP214' ),
    '1' );
FILE_NAME ('ÏÔÊ¾Æ÷Ö§¼Ü.STEP',
    '2026-05-25T07:52:44',
    ( '' ),
    ( '' ),
    'SwSTEP 2.0',
    'SolidWorks 2024',
    '' );
FILE_SCHEMA (( 'AUTOMOTIVE_DESIGN' ));
ENDSEC;

DATA;
#1 = DIRECTION ( 'NONE',  ( 0.000000000000000000, 1.000000000000000000, 0.000000000000000000 ) ) ;
#2 = ORIENTED_EDGE ( 'NONE', *, *, #180, .F. ) ;
#3 = CARTESIAN_POINT ( 'NONE',  ( -1.000000000000000888, 62.00000000000000000, 0.000000000000000000 ) ) ;
#4 = LINE ( 'NONE', #457, #573 ) ;
#5 = EDGE_CURVE ( 'NONE', #191, #64, #434, .T. ) ;
#6 = CARTESIAN_POINT ( 'NONE',  ( -19.00000000000000000, 5.000000000000000000, -19.99999999999999645 ) ) ;
#7 = ORIENTED_EDGE ( 'NONE', *, *, #437, .T. ) ;
#8 = DIRECTION ( 'NONE',  ( -0.000000000000000000, -0.000000000000000000, -1.000000000000000000 ) ) ;
#9 = PLANE ( 'NONE',  #194 ) ;
#10 = CARTESIAN_POINT ( 'NONE',  ( 0.000000000000000000, 66.00000000000000000, -2.000000000000000000 ) ) ;
#11 = ORIENTED_EDGE ( 'NONE', *, *, #655, .F. ) ;
#12 = AXIS2_PLACEMENT_3D ( 'NONE', #845, #693, #106 ) ;
#13 = CIRCLE ( 'NONE', #438, 1.000000000000000888 ) ;
#14 = LINE ( 'NONE', #21, #227 ) ;
#15 = CIRCLE ( 'NONE', #887, 1.000000000000000000 ) ;
#16 = PRODUCT_DEFINITION_FORMATION_WITH_SPECIFIED_SOURCE ( 'ä»', '', #751, .NOT_KNOWN. ) ;
#17 = FACE_OUTER_BOUND ( 'NONE', #871, .T. ) ;
#18 = ADVANCED_FACE ( 'NONE', ( #135 ), #289, .F. ) ;
#19 = VERTEX_POINT ( 'NONE', #352 ) ;
#20 = VERTEX_POINT ( 'NONE', #876 ) ;
#21 = CARTESIAN_POINT ( 'NONE',  ( 0.000000000000000000, 5.000000000000000000, -19.00000000000000000 ) ) ;
#22 = PRODUCT_DEFINITION_SHAPE ( 'NONE', 'NONE',  #532 ) ;
#23 = LINE ( 'NONE', #553, #918 ) ;
#24 = ORIENTED_EDGE ( 'NONE', *, *, #519, .T. ) ;
#25 = ORIENTED_EDGE ( 'NONE', *, *, #5, .T. ) ;
#26 = EDGE_CURVE ( 'NONE', #112, #788, #127, .T. ) ;
#27 = CARTESIAN_POINT ( 'NONE',  ( -20.00000000000000000, 65.00000000000000000, -17.99999999999999645 ) ) ;
#28 = FACE_OUTER_BOUND ( 'NONE', #915, .T. ) ;
#29 = VERTEX_POINT ( 'NONE', #431 ) ;
#30 = ORIENTED_EDGE ( 'NONE', *, *, #959, .T. ) ;
#31 = DIRECTION ( 'NONE',  ( 1.000000000000000000, -0.000000000000000000, -1.734723475976807094E-16 ) ) ;
#32 = AXIS2_PLACEMENT_3D ( 'NONE', #257, #856, #559 ) ;
#33 = ADVANCED_FACE ( 'NONE', ( #870 ), #202, .F. ) ;
#34 = DIRECTION ( 'NONE',  ( 0.000000000000000000, -0.000000000000000000, -1.000000000000000000 ) ) ;
#35 = CIRCLE ( 'NONE', #590, 1.000000000000000888 ) ;
#36 = EDGE_LOOP ( 'NONE', ( #550, #414, #595 ) ) ;
#37 = ORIENTED_EDGE ( 'NONE', *, *, #211, .T. ) ;
#38 = CARTESIAN_POINT ( 'NONE',  ( -20.00000000000000000, 66.00000000000000000, -17.99999999999999645 ) ) ;
#39 = ADVANCED_FACE ( 'NONE', ( #496 ), #966, .T. ) ;
#40 = DIRECTION ( 'NONE',  ( 0.000000000000000000, 0.000000000000000000, 1.000000000000000000 ) ) ;
#41 = MANIFOLD_SOLID_BREP ( 'Ô²½Ç3', #192 ) ;
#42 = VERTEX_POINT ( 'NONE', #897 ) ;
#43 = EDGE_LOOP ( 'NONE', ( #398, #326, #639, #937 ) ) ;
#44 = DIRECTION ( 'NONE',  ( 0.000000000000000000, 0.000000000000000000, 1.000000000000000000 ) ) ;
#45 = CYLINDRICAL_SURFACE ( 'NONE', #821, 1.000000000000000888 ) ;
#46 = ORIENTED_EDGE ( 'NONE', *, *, #593, .F. ) ;
#47 = EDGE_CURVE ( 'NONE', #853, #627, #891, .T. ) ;
#48 = ORIENTED_EDGE ( 'NONE', *, *, #270, .T. ) ;
#49 = AXIS2_PLACEMENT_3D ( 'NONE', #962, #648, #210 ) ;
#50 = DIRECTION ( 'NONE',  ( 0.000000000000000000, 0.000000000000000000, 1.000000000000000000 ) ) ;
#51 = AXIS2_PLACEMENT_3D ( 'NONE', #263, #565, #485 ) ;
#52 = VECTOR ( 'NONE', #754, 1000.000000000000000 ) ;
#53 = ORIENTED_EDGE ( 'NONE', *, *, #576, .F. ) ;
#54 = CIRCLE ( 'NONE', #423, 1.000000000000000000 ) ;
#55 = EDGE_CURVE ( 'NONE', #470, #709, #816, .T. ) ;
#56 = FACE_OUTER_BOUND ( 'NONE', #794, .T. ) ;
#57 = AXIS2_PLACEMENT_3D ( 'NONE', #667, #225, #910 ) ;
#58 = ORIENTED_EDGE ( 'NONE', *, *, #785, .F. ) ;
#59 = DIRECTION ( 'NONE',  ( -1.000000000000000000, -0.000000000000000000, -0.000000000000000000 ) ) ;
#60 = ORIENTED_EDGE ( 'NONE', *, *, #560, .F. ) ;
#61 = PLANE ( 'NONE',  #161 ) ;
#62 = ORIENTED_EDGE ( 'NONE', *, *, #335, .T. ) ;
#63 = CARTESIAN_POINT ( 'NONE',  ( -19.00000000000000000, 4.000000000000000000, 0.000000000000000000 ) ) ;
#64 = VERTEX_POINT ( 'NONE', #516 ) ;
#65 = CARTESIAN_POINT ( 'NONE',  ( -19.00000000000000000, 5.000000000000000000, -1.000000000000000000 ) ) ;
#66 = ORIENTED_EDGE ( 'NONE', *, *, #721, .F. ) ;
#67 = ADVANCED_FACE ( 'NONE', ( #370 ), #817, .T. ) ;
#68 = DIRECTION ( 'NONE',  ( 0.000000000000000000, 0.000000000000000000, -1.000000000000000000 ) ) ;
#69 = CIRCLE ( 'NONE', #615, 5.000000000000000888 ) ;
#70 = DIRECTION ( 'NONE',  ( 0.000000000000000000, -1.000000000000000000, 0.000000000000000000 ) ) ;
#71 = ORIENTED_EDGE ( 'NONE', *, *, #722, .T. ) ;
#72 = EDGE_CURVE ( 'NONE', #64, #545, #76, .T. ) ;
#73 = DIRECTION ( 'NONE',  ( 0.000000000000000000, -1.000000000000000000, 0.000000000000000000 ) ) ;
#74 = LINE ( 'NONE', #672, #261 ) ;
#75 = SPHERICAL_SURFACE ( 'NONE', #634, 1.000000000000000000 ) ;
#76 = LINE ( 'NONE', #522, #848 ) ;
#77 = ADVANCED_FACE ( 'NONE', ( #144, #824 ), #440, .T. ) ;
#78 = DIRECTION ( 'NONE',  ( 1.000000000000000000, 0.000000000000000000, 0.000000000000000000 ) ) ;
#79 = UNCERTAINTY_MEASURE_WITH_UNIT (LENGTH_MEASURE( 1.000000000000000082E-05 ), #881, 'distance_accuracy_value', 'NONE');
#80 = DIRECTION ( 'NONE',  ( 0.000000000000000000, -1.000000000000000000, 0.000000000000000000 ) ) ;
#81 = CIRCLE ( 'NONE', #631, 1.000000000000000000 ) ;
#82 = DIRECTION ( 'NONE',  ( -0.000000000000000000, -0.000000000000000000, -1.000000000000000000 ) ) ;
#83 = ORIENTED_EDGE ( 'NONE', *, *, #283, .F. ) ;
#84 = CARTESIAN_POINT ( 'NONE',  ( 0.000000000000000000, 4.000000000000000000, -19.00000000000000000 ) ) ;
#85 = VECTOR ( 'NONE', #725, 1000.000000000000000 ) ;
#86 = CYLINDRICAL_SURFACE ( 'NONE', #730, 5.000000000000000888 ) ;
#87 = AXIS2_PLACEMENT_3D ( 'NONE', #388, #1, #680 ) ;
#88 = DIRECTION ( 'NONE',  ( -1.000000000000000000, -0.000000000000000000, -0.000000000000000000 ) ) ;
#89 = VERTEX_POINT ( 'NONE', #978 ) ;
#90 = DIRECTION ( 'NONE',  ( 0.000000000000000000, 0.000000000000000000, -1.000000000000000000 ) ) ;
#91 = CARTESIAN_POINT ( 'NONE',  ( -20.00000000000000000, 66.00000000000000000, -1.000000000000000000 ) ) ;
#92 = EDGE_CURVE ( 'NONE', #911, #633, #603, .T. ) ;
#93 = CARTESIAN_POINT ( 'NONE',  ( 0.000000000000000000, 66.00000000000000000, -17.99999999999999645 ) ) ;
#94 = ORIENTED_EDGE ( 'NONE', *, *, #616, .T. ) ;
#95 = CARTESIAN_POINT ( 'NONE',  ( 0.000000000000000000, 65.00000000000000000, -19.99999999999999645 ) ) ;
#96 = ADVANCED_FACE ( 'NONE', ( #527 ), #367, .T. ) ;
#97 = DIRECTION ( 'NONE',  ( 0.000000000000000000, 0.000000000000000000, 1.000000000000000000 ) ) ;
#98 = EDGE_LOOP ( 'NONE', ( #704, #815, #919 ) ) ;
#99 = ORIENTED_EDGE ( 'NONE', *, *, #328, .F. ) ;
#100 = DIRECTION ( 'NONE',  ( 0.000000000000000000, 1.000000000000000000, 0.000000000000000000 ) ) ;
#101 = CIRCLE ( 'NONE', #651, 1.000000000000000888 ) ;
#102 = DIRECTION ( 'NONE',  ( -0.000000000000000000, -1.000000000000000000, -0.000000000000000000 ) ) ;
#103 = VERTEX_POINT ( 'NONE', #453 ) ;
#104 = EDGE_LOOP ( 'NONE', ( #847, #154, #7, #694, #60, #462, #567, #250 ) ) ;
#105 = DIRECTION ( 'NONE',  ( 0.000000000000000000, 0.000000000000000000, -1.000000000000000000 ) ) ;
#106 = DIRECTION ( 'NONE',  ( 0.000000000000000000, 0.000000000000000000, -1.000000000000000000 ) ) ;
#107 = VERTEX_POINT ( 'NONE', #818 ) ;
#108 = ORIENTED_EDGE ( 'NONE', *, *, #157, .T. ) ;
#109 = ADVANCED_FACE ( 'NONE', ( #674 ), #150, .T. ) ;
#110 = CARTESIAN_POINT ( 'NONE',  ( 0.000000000000000000, 4.000000000000000000, -20.00000000000000000 ) ) ;
#111 = LINE ( 'NONE', #707, #755 ) ;
#112 = VERTEX_POINT ( 'NONE', #93 ) ;
#113 = ORIENTED_EDGE ( 'NONE', *, *, #365, .F. ) ;
#114 = EDGE_CURVE ( 'NONE', #773, #726, #728, .T. ) ;
#115 = CARTESIAN_POINT ( 'NONE',  ( -20.00000000000000000, 5.000000000000000000, 0.000000000000000000 ) ) ;
#116 = DIRECTION ( 'NONE',  ( 0.000000000000000000, 0.000000000000000000, 1.000000000000000000 ) ) ;
#117 = EDGE_LOOP ( 'NONE', ( #463, #729, #265, #549 ) ) ;
#118 = ORIENTED_EDGE ( 'NONE', *, *, #342, .F. ) ;
#119 = CIRCLE ( 'NONE', #619, 1.000000000000000000 ) ;
#120 = FACE_OUTER_BOUND ( 'NONE', #920, .T. ) ;
#121 = CARTESIAN_POINT ( 'NONE',  ( 0.000000000000000000, 66.00000000000000000, -17.99999999999999645 ) ) ;
#122 = SURFACE_STYLE_USAGE ( .BOTH. , #957 ) ;
#123 = VERTEX_POINT ( 'NONE', #898 ) ;
#124 = CARTESIAN_POINT ( 'NONE',  ( 0.000000000000000000, 66.00000000000000000, -1.000000000000000888 ) ) ;
#125 = PLANE ( 'NONE',  #600 ) ;
#126 = ADVANCED_FACE ( 'NONE', ( #758 ), #458, .F. ) ;
#127 = LINE ( 'NONE', #281, #740 ) ;
#128 = CARTESIAN_POINT ( 'NONE',  ( -1.000000000000000000, 4.000000000000000000, -19.00000000000000000 ) ) ;
#129 = VERTEX_POINT ( 'NONE', #444 ) ;
#130 = CYLINDRICAL_SURFACE ( 'NONE', #502, 1.000000000000000888 ) ;
#131 = EDGE_LOOP ( 'NONE', ( #854, #477, #399, #118 ) ) ;
#132 = CARTESIAN_POINT ( 'NONE',  ( 0.000000000000000000, 4.000000000000000000, -1.000000000000000000 ) ) ;
#133 = EDGE_LOOP ( 'NONE', ( #681, #608, #253, #380 ) ) ;
#134 =( NAMED_UNIT ( * ) SI_UNIT ( $, .STERADIAN. ) SOLID_ANGLE_UNIT ( ) );
#135 = FACE_OUTER_BOUND ( 'NONE', #878, .T. ) ;
#136 = EDGE_CURVE ( 'NONE', #430, #470, #534, .T. ) ;
#137 = LINE ( 'NONE', #893, #85 ) ;
#138 = EDGE_LOOP ( 'NONE', ( #66, #699, #389, #535 ) ) ;
#139 = LINE ( 'NONE', #965, #299 ) ;
#140 = DIRECTION ( 'NONE',  ( 1.000000000000000000, -0.000000000000000000, 0.000000000000000000 ) ) ;
#141 = VECTOR ( 'NONE', #588, 1000.000000000000000 ) ;
#142 = ORIENTED_EDGE ( 'NONE', *, *, #983, .T. ) ;
#143 = AXIS2_PLACEMENT_3D ( 'NONE', #148, #970, #669 ) ;
#144 = FACE_OUTER_BOUND ( 'NONE', #197, .T. ) ;
#145 = AXIS2_PLACEMENT_3D ( 'NONE', #416, #484, #938 ) ;
#146 = LINE ( 'NONE', #6, #580 ) ;
#147 = LINE ( 'NONE', #442, #504 ) ;
#148 = CARTESIAN_POINT ( 'NONE',  ( 0.000000000000000000, 0.000000000000000000, 0.000000000000000000 ) ) ;
#149 =( NAMED_UNIT ( * ) SI_UNIT ( $, .STERADIAN. ) SOLID_ANGLE_UNIT ( ) );
#150 = CYLINDRICAL_SURFACE ( 'NONE', #971, 1.000000000000000000 ) ;
#151 = DIRECTION ( 'NONE',  ( 0.000000000000000000, 0.000000000000000000, 1.000000000000000000 ) ) ;
#152 = EDGE_CURVE ( 'NONE', #783, #644, #119, .T. ) ;
#153 = CARTESIAN_POINT ( 'NONE',  ( -1.000000000000000000, 5.000000000000000000, -19.00000000000000000 ) ) ;
#154 = ORIENTED_EDGE ( 'NONE', *, *, #785, .T. ) ;
#155 = LINE ( 'NONE', #981, #710 ) ;
#156 = LINE ( 'NONE', #236, #525 ) ;
#157 = EDGE_CURVE ( 'NONE', #385, #433, #146, .T. ) ;
#158 = DIRECTION ( 'NONE',  ( -1.000000000000000000, 0.000000000000000000, 0.000000000000000000 ) ) ;
#159 = ORIENTED_EDGE ( 'NONE', *, *, #822, .F. ) ;
#160 = FACE_OUTER_BOUND ( 'NONE', #343, .T. ) ;
#161 = AXIS2_PLACEMENT_3D ( 'NONE', #358, #809, #660 ) ;
#162 = FACE_OUTER_BOUND ( 'NONE', #638, .T. ) ;
#163 = AXIS2_PLACEMENT_3D ( 'NONE', #153, #517, #379 ) ;
#164 = CARTESIAN_POINT ( 'NONE',  ( 0.000000000000000000, 65.00000000000000000, -1.000000000000000888 ) ) ;
#165 = ORIENTED_EDGE ( 'NONE', *, *, #114, .T. ) ;
#166 = EDGE_CURVE ( 'NONE', #369, #315, #745, .T. ) ;
#167 = CARTESIAN_POINT ( 'NONE',  ( -20.00000000000000000, 65.00000000000000000, -19.99999999999999645 ) ) ;
#168 = FACE_OUTER_BOUND ( 'NONE', #260, .T. ) ;
#169 = ORIENTED_EDGE ( 'NONE', *, *, #802, .T. ) ;
#170 = ORIENTED_EDGE ( 'NONE', *, *, #814, .F. ) ;
#171 = CARTESIAN_POINT ( 'NONE',  ( -20.00000000000000000, 66.00000000000000000, -17.99999999999999645 ) ) ;
#172 = PLANE ( 'NONE',  #32 ) ;
#173 = AXIS2_PLACEMENT_3D ( 'NONE', #217, #443, #292 ) ;
#174 = ORIENTED_EDGE ( 'NONE', *, *, #47, .T. ) ;
#175 = VERTEX_POINT ( 'NONE', #612 ) ;
#176 = VECTOR ( 'NONE', #68, 1000.000000000000000 ) ;
#177 = DIRECTION ( 'NONE',  ( -0.000000000000000000, -1.000000000000000000, -0.000000000000000000 ) ) ;
#178 = AXIS2_PLACEMENT_3D ( 'NONE', #509, #676, #750 ) ;
#179 = CARTESIAN_POINT ( 'NONE',  ( -19.00000000000000000, 62.00000000000000000, -1.000000000000000000 ) ) ;
#180 = EDGE_CURVE ( 'NONE', #107, #708, #561, .T. ) ;
#181 = ORIENTED_EDGE ( 'NONE', *, *, #822, .T. ) ;
#182 = ORIENTED_EDGE ( 'NONE', *, *, #55, .F. ) ;
#183 = DIRECTION ( 'NONE',  ( 0.000000000000000000, 0.000000000000000000, 1.000000000000000000 ) ) ;
#184 = CARTESIAN_POINT ( 'NONE',  ( -10.00000000000000000, 5.000000000000000000, -9.999999999999998224 ) ) ;
#185 = ORIENTED_EDGE ( 'NONE', *, *, #55, .T. ) ;
#186 = ORIENTED_EDGE ( 'NONE', *, *, #72, .T. ) ;
#187 = LINE ( 'NONE', #38, #273 ) ;
#188 = FACE_BOUND ( 'NONE', #839, .T. ) ;
#189 =( GEOMETRIC_REPRESENTATION_CONTEXT ( 3 ) GLOBAL_UNCERTAINTY_ASSIGNED_CONTEXT ( ( #79 ) ) GLOBAL_UNIT_ASSIGNED_CONTEXT ( ( #881, #642, #149 ) ) REPRESENTATION_CONTEXT ( 'NONE', 'WORKASPACE' ) );
#190 = ORIENTED_EDGE ( 'NONE', *, *, #643, .T. ) ;
#191 = VERTEX_POINT ( 'NONE', #384 ) ;
#192 = CLOSED_SHELL ( 'NONE', ( #308, #675, #808, #629, #475, #850, #77, #18, #466, #901, #657, #276, #382, #879, #552, #33, #126, #526, #533, #278, #39, #731, #96, #662, #246, #109, #375, #67, #611, #371, #688, #909, #513, #973 ) ) ;
#193 = CARTESIAN_POINT ( 'NONE',  ( -20.00000000000000000, 62.00000000000000000, -19.99999999999999645 ) ) ;
#194 = AXIS2_PLACEMENT_3D ( 'NONE', #312, #251, #614 ) ;
#195 = DIRECTION ( 'NONE',  ( -0.000000000000000000, -1.000000000000000000, -0.000000000000000000 ) ) ;
#196 = CIRCLE ( 'NONE', #742, 1.000000000000000888 ) ;
#197 = EDGE_LOOP ( 'NONE', ( #969, #71, #936, #404 ) ) ;
#198 = ORIENTED_EDGE ( 'NONE', *, *, #392, .F. ) ;
#199 = LINE ( 'NONE', #110, #803 ) ;
#200 = EDGE_CURVE ( 'NONE', #545, #206, #825, .T. ) ;
#201 = DIRECTION ( 'NONE',  ( 1.000000000000000000, 0.000000000000000000, 0.000000000000000000 ) ) ;
#202 = PLANE ( 'NONE',  #464 ) ;
#203 = CARTESIAN_POINT ( 'NONE',  ( -1.000000000000000000, 65.00000000000000000, -1.000000000000000888 ) ) ;
#204 = EDGE_CURVE ( 'NONE', #695, #394, #74, .T. ) ;
#205 = DIRECTION ( 'NONE',  ( 1.000000000000000000, 0.000000000000000000, 0.000000000000000000 ) ) ;
#206 = VERTEX_POINT ( 'NONE', #447 ) ;
#207 = DIRECTION ( 'NONE',  ( 0.000000000000000000, 0.000000000000000000, -1.000000000000000000 ) ) ;
#208 = CARTESIAN_POINT ( 'NONE',  ( -10.00000000000000000, 62.00000000000000000, -15.00000000000000000 ) ) ;
#209 = VECTOR ( 'NONE', #798, 1000.000000000000000 ) ;
#210 = DIRECTION ( 'NONE',  ( 0.000000000000000000, -0.000000000000000000, 1.000000000000000000 ) ) ;
#211 = EDGE_CURVE ( 'NONE', #846, #89, #833, .T. ) ;
#212 = LINE ( 'NONE', #896, #872 ) ;
#213 = ORIENTED_EDGE ( 'NONE', *, *, #365, .T. ) ;
#214 = DIRECTION ( 'NONE',  ( -1.000000000000000000, 0.000000000000000000, 0.000000000000000000 ) ) ;
#215 = FILL_AREA_STYLE ('',( #723 ) ) ;
#216 = DIRECTION ( 'NONE',  ( 1.000000000000000000, 0.000000000000000000, -1.734723475976807094E-16 ) ) ;
#217 = CARTESIAN_POINT ( 'NONE',  ( -1.000000000000000000, 62.00000000000000000, -1.000000000000000888 ) ) ;
#218 = CYLINDRICAL_SURFACE ( 'NONE', #163, 1.000000000000000888 ) ;
#219 = LINE ( 'NONE', #514, #837 ) ;
#220 = AXIS2_PLACEMENT_3D ( 'NONE', #797, #592, #422 ) ;
#221 = EDGE_CURVE ( 'NONE', #695, #369, #309, .T. ) ;
#222 = VECTOR ( 'NONE', #205, 1000.000000000000000 ) ;
#223 = DIRECTION ( 'NONE',  ( 0.000000000000000000, 0.000000000000000000, -1.000000000000000000 ) ) ;
#224 = CIRCLE ( 'NONE', #900, 1.000000000000000888 ) ;
#225 = DIRECTION ( 'NONE',  ( 0.000000000000000000, -1.000000000000000000, 0.000000000000000000 ) ) ;
#226 = DIRECTION ( 'NONE',  ( 0.000000000000000000, 0.000000000000000000, -1.000000000000000000 ) ) ;
#227 = VECTOR ( 'NONE', #383, 1000.000000000000000 ) ;
#228 = DIRECTION ( 'NONE',  ( -0.000000000000000000, 0.000000000000000000, 1.000000000000000000 ) ) ;
#229 = CARTESIAN_POINT ( 'NONE',  ( 0.000000000000000000, 65.00000000000000000, -19.99999999999999645 ) ) ;
#230 = DIRECTION ( 'NONE',  ( -1.734723475976807094E-16, 0.000000000000000000, -1.000000000000000000 ) ) ;
#231 = LINE ( 'NONE', #167, #916 ) ;
#232 = APPLICATION_PROTOCOL_DEFINITION ( 'draft international standard', 'automotive_design', 1998, #279 ) ;
#233 = DIRECTION ( 'NONE',  ( -2.168404344971006896E-16, 0.000000000000000000, -1.000000000000000000 ) ) ;
#234 = ORIENTED_EDGE ( 'NONE', *, *, #932, .T. ) ;
#235 = DIRECTION ( 'NONE',  ( -1.000000000000000000, 0.000000000000000000, 0.000000000000000000 ) ) ;
#236 = CARTESIAN_POINT ( 'NONE',  ( 0.000000000000000000, 0.000000000000000000, 0.000000000000000000 ) ) ;
#237 = AXIS2_PLACEMENT_3D ( 'NONE', #670, #975, #747 ) ;
#238 = EDGE_CURVE ( 'NONE', #20, #385, #304, .T. ) ;
#239 = CARTESIAN_POINT ( 'NONE',  ( -1.000000000000000000, 4.000000000000000000, 0.000000000000000000 ) ) ;
#240 = ORIENTED_EDGE ( 'NONE', *, *, #323, .F. ) ;
#241 = CIRCLE ( 'NONE', #666, 1.000000000000000000 ) ;
#242 = DIRECTION ( 'NONE',  ( 1.000000000000000000, 0.000000000000000000, 0.000000000000000000 ) ) ;
#243 = DIRECTION ( 'NONE',  ( 0.000000000000000000, 0.000000000000000000, -1.000000000000000000 ) ) ;
#244 = ORIENTED_EDGE ( 'NONE', *, *, #483, .T. ) ;
#245 = ORIENTED_EDGE ( 'NONE', *, *, #650, .T. ) ;
#246 = ADVANCED_FACE ( 'NONE', ( #617 ), #218, .T. ) ;
#247 = DIRECTION ( 'NONE',  ( 0.000000000000000000, 1.000000000000000000, 0.000000000000000000 ) ) ;
#248 = PLANE ( 'NONE',  #317 ) ;
#249 = ORIENTED_EDGE ( 'NONE', *, *, #792, .F. ) ;
#250 = ORIENTED_EDGE ( 'NONE', *, *, #494, .F. ) ;
#251 = DIRECTION ( 'NONE',  ( 0.000000000000000000, 0.000000000000000000, 1.000000000000000000 ) ) ;
#252 = CARTESIAN_POINT ( 'NONE',  ( 0.000000000000000000, 66.00000000000000000, 0.000000000000000000 ) ) ;
#253 = ORIENTED_EDGE ( 'NONE', *, *, #784, .F. ) ;
#254 = ORIENTED_EDGE ( 'NONE', *, *, #560, .T. ) ;
#255 = FACE_OUTER_BOUND ( 'NONE', #717, .T. ) ;
#256 = AXIS2_PLACEMENT_3D ( 'NONE', #949, #558, #272 ) ;
#257 = CARTESIAN_POINT ( 'NONE',  ( 0.000000000000000000, 5.000000000000000000, 0.000000000000000000 ) ) ;
#258 = APPLICATION_CONTEXT ( 'automotive_design' ) ;
#259 = ORIENTED_EDGE ( 'NONE', *, *, #519, .F. ) ;
#260 = EDGE_LOOP ( 'NONE', ( #510, #894, #481, #359 ) ) ;
#261 = VECTOR ( 'NONE', #376, 1000.000000000000000 ) ;
#262 = FACE_OUTER_BOUND ( 'NONE', #459, .T. ) ;
#263 = CARTESIAN_POINT ( 'NONE',  ( 0.000000000000000000, 62.00000000000000000, 0.000000000000000000 ) ) ;
#264 = ORIENTED_EDGE ( 'NONE', *, *, #959, .F. ) ;
#265 = ORIENTED_EDGE ( 'NONE', *, *, #857, .F. ) ;
#266 = DIRECTION ( 'NONE',  ( -0.000000000000000000, -1.000000000000000000, -0.000000000000000000 ) ) ;
#267 = CARTESIAN_POINT ( 'NONE',  ( -20.00000000000000000, 62.00000000000000000, 0.000000000000000000 ) ) ;
#268 = ORIENTED_EDGE ( 'NONE', *, *, #902, .F. ) ;
#269 = EDGE_LOOP ( 'NONE', ( #632, #733, #264, #618 ) ) ;
#270 = EDGE_CURVE ( 'NONE', #773, #810, #543, .T. ) ;
#271 = AXIS2_PLACEMENT_3D ( 'NONE', #280, #646, #356 ) ;
#272 = DIRECTION ( 'NONE',  ( 0.000000000000000000, 0.000000000000000000, -1.000000000000000000 ) ) ;
#273 = VECTOR ( 'NONE', #266, 1000.000000000000000 ) ;
#274 =( LENGTH_UNIT ( ) NAMED_UNIT ( * ) SI_UNIT ( .MILLI., .METRE. ) );
#275 = CARTESIAN_POINT ( 'NONE',  ( -1.000000000000000000, 4.000000000000000000, -19.00000000000000000 ) ) ;
#276 = ADVANCED_FACE ( 'NONE', ( #598 ), #905, .F. ) ;
#277 = CARTESIAN_POINT ( 'NONE',  ( -1.000000000000000000, 5.000000000000000000, -20.00000000000000000 ) ) ;
#278 = ADVANCED_FACE ( 'NONE', ( #162 ), #610, .T. ) ;
#279 = APPLICATION_CONTEXT ( 'automotive_design' ) ;
#280 = CARTESIAN_POINT ( 'NONE',  ( -19.00000000000000000, 4.000000000000000000, -18.99999999999999645 ) ) ;
#281 = CARTESIAN_POINT ( 'NONE',  ( 0.000000000000000000, 66.00000000000000000, -17.99999999999999645 ) ) ;
#282 = FACE_OUTER_BOUND ( 'NONE', #529, .T. ) ;
#283 = EDGE_CURVE ( 'NONE', #622, #407, #156, .T. ) ;
#284 = DIRECTION ( 'NONE',  ( -0.000000000000000000, 1.000000000000000000, -0.000000000000000000 ) ) ;
#285 = ORIENTED_EDGE ( 'NONE', *, *, #761, .T. ) ;
#286 = DIRECTION ( 'NONE',  ( -0.000000000000000000, 1.000000000000000000, 0.000000000000000000 ) ) ;
#287 = EDGE_CURVE ( 'NONE', #407, #726, #14, .T. ) ;
#288 = AXIS2_PLACEMENT_3D ( 'NONE', #609, #80, #90 ) ;
#289 = PLANE ( 'NONE',  #49 ) ;
#290 = CARTESIAN_POINT ( 'NONE',  ( -1.000000000000000000, 4.000000000000000000, -19.00000000000000000 ) ) ;
#291 = EDGE_LOOP ( 'NONE', ( #417, #700, #953, #948, #355, #778, #159, #774 ) ) ;
#292 = DIRECTION ( 'NONE',  ( 2.602085213965210642E-15, 0.000000000000000000, 1.000000000000000000 ) ) ;
#293 = DIRECTION ( 'NONE',  ( 0.000000000000000000, 0.000000000000000000, 1.000000000000000000 ) ) ;
#294 = CARTESIAN_POINT ( 'NONE',  ( -20.00000000000000000, 5.000000000000000000, -1.000000000000000000 ) ) ;
#295 = DIRECTION ( 'NONE',  ( -1.000000000000000000, -0.000000000000000000, 2.168404344971006649E-16 ) ) ;
#296 = EDGE_CURVE ( 'NONE', #369, #788, #769, .T. ) ;
#297 = DIRECTION ( 'NONE',  ( 0.000000000000000000, 0.000000000000000000, -1.000000000000000000 ) ) ;
#298 = SHAPE_DEFINITION_REPRESENTATION ( #22, #506 ) ;
#299 = VECTOR ( 'NONE', #720, 1000.000000000000000 ) ;
#300 = DIRECTION ( 'NONE',  ( 1.000000000000000000, 0.000000000000000000, 0.000000000000000000 ) ) ;
#301 = DIRECTION ( 'NONE',  ( -0.000000000000000000, -1.000000000000000000, -0.000000000000000000 ) ) ;
#302 = CARTESIAN_POINT ( 'NONE',  ( -19.00000000000000000, 62.00000000000000000, -18.99999999999999645 ) ) ;
#303 = AXIS2_PLACEMENT_3D ( 'NONE', #441, #838, #976 ) ;
#304 = LINE ( 'NONE', #914, #892 ) ;
#305 = ORIENTED_EDGE ( 'NONE', *, *, #5, .F. ) ;
#306 = CYLINDRICAL_SURFACE ( 'NONE', #288, 1.000000000000000888 ) ;
#307 = DIRECTION ( 'NONE',  ( 0.000000000000000000, 0.000000000000000000, 1.000000000000000000 ) ) ;
#308 = ADVANCED_FACE ( 'NONE', ( #756 ), #86, .T. ) ;
#309 = LINE ( 'NONE', #10, #637 ) ;
#310 = ORIENTED_EDGE ( 'NONE', *, *, #832, .T. ) ;
#311 = VECTOR ( 'NONE', #596, 1000.000000000000000 ) ;
#312 = CARTESIAN_POINT ( 'NONE',  ( -20.00000000000000000, 65.00000000000000000, -19.99999999999999645 ) ) ;
#313 = CIRCLE ( 'NONE', #571, 1.000000000000000888 ) ;
#314 = DIRECTION ( 'NONE',  ( -1.000000000000000000, 0.000000000000000000, 1.734723475976807094E-16 ) ) ;
#315 = VERTEX_POINT ( 'NONE', #831 ) ;
#316 = CIRCLE ( 'NONE', #869, 5.000000000000000888 ) ;
#317 = AXIS2_PLACEMENT_3D ( 'NONE', #621, #330, #923 ) ;
#318 = FACE_OUTER_BOUND ( 'NONE', #36, .T. ) ;
#319 = DIRECTION ( 'NONE',  ( -0.000000000000000000, -1.000000000000000000, -0.000000000000000000 ) ) ;
#320 = AXIS2_PLACEMENT_3D ( 'NONE', #229, #607, #844 ) ;
#321 = ORIENTED_EDGE ( 'NONE', *, *, #446, .F. ) ;
#322 = EDGE_LOOP ( 'NONE', ( #25, #186, #540, #331 ) ) ;
#323 = EDGE_CURVE ( 'NONE', #175, #964, #849, .T. ) ;
#324 = FACE_OUTER_BOUND ( 'NONE', #860, .T. ) ;
#325 = CARTESIAN_POINT ( 'NONE',  ( -1.000000000000000000, 5.000000000000000000, -1.000000000000000000 ) ) ;
#326 = ORIENTED_EDGE ( 'NONE', *, *, #960, .F. ) ;
#327 = ORIENTED_EDGE ( 'NONE', *, *, #671, .F. ) ;
#328 = EDGE_CURVE ( 'NONE', #129, #644, #400, .T. ) ;
#329 = DIRECTION ( 'NONE',  ( -1.000000000000000000, 0.000000000000000000, 0.000000000000000000 ) ) ;
#330 = DIRECTION ( 'NONE',  ( -1.000000000000000000, 0.000000000000000000, 0.000000000000000000 ) ) ;
#331 = ORIENTED_EDGE ( 'NONE', *, *, #827, .T. ) ;
#332 = ORIENTED_EDGE ( 'NONE', *, *, #238, .F. ) ;
#333 = CARTESIAN_POINT ( 'NONE',  ( -19.00000000000000000, 4.000000000000000000, -1.000000000000000000 ) ) ;
#334 = VECTOR ( 'NONE', #564, 1000.000000000000000 ) ;
#335 = EDGE_CURVE ( 'NONE', #764, #853, #4, .T. ) ;
#336 = CARTESIAN_POINT ( 'NONE',  ( -10.00000000000000000, 62.00000000000000000, -9.999999999999998224 ) ) ;
#337 = EDGE_LOOP ( 'NONE', ( #469, #108, #623, #190 ) ) ;
#338 = ORIENTED_EDGE ( 'NONE', *, *, #47, .F. ) ;
#339 = VECTOR ( 'NONE', #88, 1000.000000000000000 ) ;
#340 = DIRECTION ( 'NONE',  ( 0.000000000000000000, -1.000000000000000000, 0.000000000000000000 ) ) ;
#341 = LINE ( 'NONE', #252, #451 ) ;
#342 = EDGE_CURVE ( 'NONE', #454, #788, #387, .T. ) ;
#343 = EDGE_LOOP ( 'NONE', ( #48, #555, #501, #864 ) ) ;
#344 = VERTEX_POINT ( 'NONE', #91 ) ;
#345 = FACE_OUTER_BOUND ( 'NONE', #138, .T. ) ;
#346 = LINE ( 'NONE', #121, #176 ) ;
#347 = STYLED_ITEM ( 'NONE', ( #812 ), #41 ) ;
#348 = CARTESIAN_POINT ( 'NONE',  ( -20.00000000000000000, 62.00000000000000000, -19.99999999999999645 ) ) ;
#349 = LINE ( 'NONE', #193, #724 ) ;
#350 = AXIS2_PLACEMENT_3D ( 'NONE', #377, #235, #151 ) ;
#351 = CARTESIAN_POINT ( 'NONE',  ( -20.00000000000000000, 65.00000000000000000, -19.99999999999999645 ) ) ;
#352 = CARTESIAN_POINT ( 'NONE',  ( -19.00000000000000000, 62.00000000000000000, 0.000000000000000000 ) ) ;
#353 = EDGE_CURVE ( 'NONE', #454, #315, #231, .T. ) ;
#354 = CARTESIAN_POINT ( 'NONE',  ( -10.00000000000000000, 62.00000000000000000, -15.00000000000000000 ) ) ;
#355 = ORIENTED_EDGE ( 'NONE', *, *, #296, .F. ) ;
#356 = DIRECTION ( 'NONE',  ( 0.000000000000000000, 0.000000000000000000, 1.000000000000000000 ) ) ;
#357 = EDGE_LOOP ( 'NONE', ( #943, #626, #807, #268 ) ) ;
#358 = CARTESIAN_POINT ( 'NONE',  ( -20.00000000000000000, 65.00000000000000000, 0.000000000000000000 ) ) ;
#359 = ORIENTED_EDGE ( 'NONE', *, *, #287, .T. ) ;
#360 = FACE_OUTER_BOUND ( 'NONE', #718, .T. ) ;
#361 = ORIENTED_EDGE ( 'NONE', *, *, #946, .F. ) ;
#362 = MECHANICAL_DESIGN_GEOMETRIC_PRESENTATION_REPRESENTATION (  '', ( #347 ), #189 ) ;
#363 = CARTESIAN_POINT ( 'NONE',  ( -20.00000000000000000, 66.00000000000000000, -17.99999999999999645 ) ) ;
#364 = DIRECTION ( 'NONE',  ( 0.000000000000000000, 0.000000000000000000, -1.000000000000000000 ) ) ;
#365 = EDGE_CURVE ( 'NONE', #709, #789, #917, .T. ) ;
#366 = AXIS2_PLACEMENT_3D ( 'NONE', #128, #524, #293 ) ;
#367 = CYLINDRICAL_SURFACE ( 'NONE', #57, 1.000000000000000000 ) ;
#368 = DIRECTION ( 'NONE',  ( 0.000000000000000000, 0.000000000000000000, -1.000000000000000000 ) ) ;
#369 = VERTEX_POINT ( 'NONE', #696 ) ;
#370 = FACE_OUTER_BOUND ( 'NONE', #393, .T. ) ;
#371 = ADVANCED_FACE ( 'NONE', ( #318 ), #537, .T. ) ;
#372 = DIRECTION ( 'NONE',  ( 0.000000000000000000, -0.000000000000000000, 1.000000000000000000 ) ) ;
#373 = DIRECTION ( 'NONE',  ( -0.000000000000000000, 1.000000000000000000, 0.000000000000000000 ) ) ;
#374 = DIRECTION ( 'NONE',  ( -0.000000000000000000, 1.000000000000000000, -0.000000000000000000 ) ) ;
#375 = ADVANCED_FACE ( 'NONE', ( #324 ), #922, .T. ) ;
#376 = DIRECTION ( 'NONE',  ( -1.000000000000000000, -0.000000000000000000, -0.000000000000000000 ) ) ;
#377 = CARTESIAN_POINT ( 'NONE',  ( -19.00000000000000000, 4.000000000000000000, -1.000000000000000000 ) ) ;
#378 = AXIS2_PLACEMENT_3D ( 'NONE', #620, #247, #762 ) ;
#379 = DIRECTION ( 'NONE',  ( 0.000000000000000000, 0.000000000000000000, -1.000000000000000000 ) ) ;
#380 = ORIENTED_EDGE ( 'NONE', *, *, #494, .T. ) ;
#381 = DIRECTION ( 'NONE',  ( 1.000000000000000000, 0.000000000000000000, -1.734723475976807094E-16 ) ) ;
#382 = ADVANCED_FACE ( 'NONE', ( #687 ), #9, .F. ) ;
#383 = DIRECTION ( 'NONE',  ( -0.000000000000000000, 1.000000000000000000, -0.000000000000000000 ) ) ;
#384 = CARTESIAN_POINT ( 'NONE',  ( -1.000000000000000888, 62.00000000000000000, -19.99999999999999645 ) ) ;
#385 = VERTEX_POINT ( 'NONE', #551 ) ;
#386 = LINE ( 'NONE', #686, #411 ) ;
#387 = LINE ( 'NONE', #908, #409 ) ;
#388 = CARTESIAN_POINT ( 'NONE',  ( -10.00000000000000000, 5.000000000000000000, -9.999999999999998224 ) ) ;
#389 = ORIENTED_EDGE ( 'NONE', *, *, #902, .T. ) ;
#390 = DIRECTION ( 'NONE',  ( -0.000000000000000000, -0.000000000000000000, -1.000000000000000000 ) ) ;
#391 = CARTESIAN_POINT ( 'NONE',  ( -20.00000000000000000, 66.00000000000000000, -17.99999999999999645 ) ) ;
#392 = EDGE_CURVE ( 'NONE', #42, #64, #13, .T. ) ;
#393 = EDGE_LOOP ( 'NONE', ( #259, #737, #321, #338 ) ) ;
#394 = VERTEX_POINT ( 'NONE', #677 ) ;
#395 = CIRCLE ( 'NONE', #366, 1.000000000000000888 ) ;
#396 = CARTESIAN_POINT ( 'NONE',  ( 0.000000000000000000, 4.000000000000000000, -1.000000000000000000 ) ) ;
#397 = CARTESIAN_POINT ( 'NONE',  ( 0.000000000000000000, 65.00000000000000000, -17.99999999999999645 ) ) ;
#398 = ORIENTED_EDGE ( 'NONE', *, *, #166, .T. ) ;
#399 = ORIENTED_EDGE ( 'NONE', *, *, #296, .T. ) ;
#400 = CIRCLE ( 'NONE', #478, 1.000000000000000000 ) ;
#401 = CARTESIAN_POINT ( 'NONE',  ( -19.00000000000000000, 66.00000000000000000, -19.99999999999999645 ) ) ;
#402 = LINE ( 'NONE', #862, #967 ) ;
#403 = ORIENTED_EDGE ( 'NONE', *, *, #455, .T. ) ;
#404 = ORIENTED_EDGE ( 'NONE', *, *, #593, .T. ) ;
#405 = CARTESIAN_POINT ( 'NONE',  ( 0.000000000000000000, 66.00000000000000000, -18.99999999999999645 ) ) ;
#406 = CARTESIAN_POINT ( 'NONE',  ( -1.000000000000000888, 65.00000000000000000, -19.99999999999999645 ) ) ;
#407 = VERTEX_POINT ( 'NONE', #984 ) ;
#408 = ORIENTED_EDGE ( 'NONE', *, *, #655, .T. ) ;
#409 = VECTOR ( 'NONE', #242, 1000.000000000000000 ) ;
#410 = DIRECTION ( 'NONE',  ( 0.000000000000000000, 0.000000000000000000, -1.000000000000000000 ) ) ;
#411 = VECTOR ( 'NONE', #826, 1000.000000000000000 ) ;
#412 = EDGE_CURVE ( 'NONE', #783, #773, #606, .T. ) ;
#413 = CARTESIAN_POINT ( 'NONE',  ( -19.00000000000000000, 66.00000000000000000, -1.000000000000000000 ) ) ;
#414 = ORIENTED_EDGE ( 'NONE', *, *, #701, .T. ) ;
#415 = ORIENTED_EDGE ( 'NONE', *, *, #616, .F. ) ;
#416 = CARTESIAN_POINT ( 'NONE',  ( -19.00000000000000000, 4.000000000000000000, -18.99999999999999645 ) ) ;
#417 = ORIENTED_EDGE ( 'NONE', *, *, #748, .T. ) ;
#418 = ORIENTED_EDGE ( 'NONE', *, *, #701, .F. ) ;
#419 = CARTESIAN_POINT ( 'NONE',  ( -19.00000000000000000, 0.000000000000000000, -1.000000000000000000 ) ) ;
#420 = CARTESIAN_POINT ( 'NONE',  ( -1.000000000000000888, 62.00000000000000000, -18.99999999999999645 ) ) ;
#421 = AXIS2_PLACEMENT_3D ( 'NONE', #972, #73, #223 ) ;
#422 = DIRECTION ( 'NONE',  ( 0.000000000000000000, 0.000000000000000000, -1.000000000000000000 ) ) ;
#423 = AXIS2_PLACEMENT_3D ( 'NONE', #179, #319, #480 ) ;
#424 = CARTESIAN_POINT ( 'NONE',  ( -10.00000000000000000, 62.00000000000000000, -9.999999999999998224 ) ) ;
#425 = CIRCLE ( 'NONE', #575, 1.000000000000000000 ) ;
#426 = ORIENTED_EDGE ( 'NONE', *, *, #566, .F. ) ;
#427 = DIRECTION ( 'NONE',  ( 0.000000000000000000, -1.000000000000000000, 0.000000000000000000 ) ) ;
#428 = ORIENTED_EDGE ( 'NONE', *, *, #873, .T. ) ;
#429 = DIRECTION ( 'NONE',  ( 0.000000000000000000, 0.000000000000000000, 1.000000000000000000 ) ) ;
#430 = VERTEX_POINT ( 'NONE', #124 ) ;
#431 = CARTESIAN_POINT ( 'NONE',  ( -19.00000000000000000, 66.00000000000000000, 0.000000000000000000 ) ) ;
#432 = DIRECTION ( 'NONE',  ( -1.000000000000000000, 0.000000000000000000, 0.000000000000000000 ) ) ;
#433 = VERTEX_POINT ( 'NONE', #706 ) ;
#434 = LINE ( 'NONE', #348, #141 ) ;
#435 = VECTOR ( 'NONE', #653, 1000.000000000000000 ) ;
#436 = COLOUR_RGB ( '',0.7921568627450980005, 0.8196078431372548767, 0.9333333333333333481 ) ;
#437 = EDGE_CURVE ( 'NONE', #42, #123, #349, .T. ) ;
#438 = AXIS2_PLACEMENT_3D ( 'NONE', #302, #177, #775 ) ;
#439 = VECTOR ( 'NONE', #951, 1000.000000000000000 ) ;
#440 = PLANE ( 'NONE',  #237 ) ;
#441 = CARTESIAN_POINT ( 'NONE',  ( -20.00000000000000000, 66.00000000000000000, -2.000000000000000000 ) ) ;
#442 = CARTESIAN_POINT ( 'NONE',  ( -20.00000000000000000, 66.00000000000000000, 0.000000000000000000 ) ) ;
#443 = DIRECTION ( 'NONE',  ( -0.000000000000000000, -1.000000000000000000, -0.000000000000000000 ) ) ;
#444 = CARTESIAN_POINT ( 'NONE',  ( -1.000000000000000000, 4.000000000000000000, 0.000000000000000000 ) ) ;
#445 = CARTESIAN_POINT ( 'NONE',  ( -10.00000000000000000, 5.000000000000000000, -4.999999999999997335 ) ) ;
#446 = EDGE_CURVE ( 'NONE', #627, #846, #425, .T. ) ;
#447 = CARTESIAN_POINT ( 'NONE',  ( -1.000000000000000888, 66.00000000000000000, -19.99999999999999645 ) ) ;
#448 = VERTEX_POINT ( 'NONE', #645 ) ;
#449 = DIRECTION ( 'NONE',  ( 0.000000000000000000, 0.000000000000000000, -1.000000000000000000 ) ) ;
#450 = DIRECTION ( 'NONE',  ( 0.000000000000000000, 0.000000000000000000, -1.000000000000000000 ) ) ;
#451 = VECTOR ( 'NONE', #243, 1000.000000000000000 ) ;
#452 = AXIS2_PLACEMENT_3D ( 'NONE', #363, #207, #813 ) ;
#453 = CARTESIAN_POINT ( 'NONE',  ( -10.00000000000000000, 62.00000000000000000, -4.999999999999997335 ) ) ;
#454 = VERTEX_POINT ( 'NONE', #27 ) ;
#455 = EDGE_CURVE ( 'NONE', #627, #633, #521, .T. ) ;
#456 = DIRECTION ( 'NONE',  ( -0.000000000000000000, 1.000000000000000000, -0.000000000000000000 ) ) ;
#457 = CARTESIAN_POINT ( 'NONE',  ( -20.00000000000000000, 0.000000000000000000, 0.000000000000000000 ) ) ;
#458 = PLANE ( 'NONE',  #303 ) ;
#459 = EDGE_LOOP ( 'NONE', ( #254, #753, #234, #690, #181, #843 ) ) ;
#460 = DIRECTION ( 'NONE',  ( -0.000000000000000000, -1.000000000000000000, -0.000000000000000000 ) ) ;
#461 = CARTESIAN_POINT ( 'NONE',  ( -19.00000000000000000, 0.000000000000000000, -18.99999999999999645 ) ) ;
#462 = ORIENTED_EDGE ( 'NONE', *, *, #960, .T. ) ;
#463 = ORIENTED_EDGE ( 'NONE', *, *, #884, .F. ) ;
#464 = AXIS2_PLACEMENT_3D ( 'NONE', #663, #492, #735 ) ;
#465 = DIRECTION ( 'NONE',  ( 0.000000000000000000, -1.000000000000000000, 0.000000000000000000 ) ) ;
#466 = ADVANCED_FACE ( 'NONE', ( #345 ), #715, .T. ) ;
#467 = CARTESIAN_POINT ( 'NONE',  ( -1.000000000000000222, 4.000000000000000000, -20.00000000000000000 ) ) ;
#468 = CIRCLE ( 'NONE', #12, 1.000000000000000888 ) ;
#469 = ORIENTED_EDGE ( 'NONE', *, *, #238, .T. ) ;
#470 = VERTEX_POINT ( 'NONE', #569 ) ;
#471 = AXIS2_PLACEMENT_3D ( 'NONE', #536, #456, #449 ) ;
#472 = DIRECTION ( 'NONE',  ( 0.000000000000000000, 0.000000000000000000, -1.000000000000000000 ) ) ;
#473 = VECTOR ( 'NONE', #228, 1000.000000000000000 ) ;
#474 = DIRECTION ( 'NONE',  ( -1.000000000000000000, -0.000000000000000000, -0.000000000000000000 ) ) ;
#475 = ADVANCED_FACE ( 'NONE', ( #711 ), #861, .F. ) ;
#476 = ORIENTED_EDGE ( 'NONE', *, *, #748, .F. ) ;
#477 = ORIENTED_EDGE ( 'NONE', *, *, #166, .F. ) ;
#478 = AXIS2_PLACEMENT_3D ( 'NONE', #531, #100, #683 ) ;
#479 = DIRECTION ( 'NONE',  ( 0.000000000000000000, 0.000000000000000000, 1.000000000000000000 ) ) ;
#480 = DIRECTION ( 'NONE',  ( 0.000000000000000000, 0.000000000000000000, 1.000000000000000000 ) ) ;
#481 = ORIENTED_EDGE ( 'NONE', *, *, #283, .T. ) ;
#482 = VERTEX_POINT ( 'NONE', #405 ) ;
#483 = EDGE_CURVE ( 'NONE', #622, #448, #15, .T. ) ;
#484 = DIRECTION ( 'NONE',  ( 1.000000000000000000, 0.000000000000000000, 0.000000000000000000 ) ) ;
#485 = DIRECTION ( 'NONE',  ( 0.000000000000000000, -0.000000000000000000, 1.000000000000000000 ) ) ;
#486 = ORIENTED_EDGE ( 'NONE', *, *, #777, .T. ) ;
#487 = EDGE_LOOP ( 'NONE', ( #2, #249 ) ) ;
#488 = UNCERTAINTY_MEASURE_WITH_UNIT (LENGTH_MEASURE( 1.000000000000000082E-05 ), #274, 'distance_accuracy_value', 'NONE');
#489 = CARTESIAN_POINT ( 'NONE',  ( -19.00000000000000000, 4.000000000000000000, -1.000000000000000000 ) ) ;
#490 = CIRCLE ( 'NONE', #471, 1.000000000000000000 ) ;
#491 = DIRECTION ( 'NONE',  ( -0.000000000000000000, -1.000000000000000000, -0.000000000000000000 ) ) ;
#492 = DIRECTION ( 'NONE',  ( 0.000000000000000000, -1.000000000000000000, 0.000000000000000000 ) ) ;
#493 = ORIENTED_EDGE ( 'NONE', *, *, #72, .F. ) ;
#494 = EDGE_CURVE ( 'NONE', #175, #454, #187, .T. ) ;
#495 = FACE_OUTER_BOUND ( 'NONE', #759, .T. ) ;
#496 = FACE_OUTER_BOUND ( 'NONE', #117, .T. ) ;
#497 = DIRECTION ( 'NONE',  ( 0.000000000000000000, 0.000000000000000000, -1.000000000000000000 ) ) ;
#498 = ORIENTED_EDGE ( 'NONE', *, *, #412, .F. ) ;
#499 = DIRECTION ( 'NONE',  ( 0.000000000000000000, 0.000000000000000000, -1.000000000000000000 ) ) ;
#500 = EDGE_CURVE ( 'NONE', #433, #810, #199, .T. ) ;
#501 = ORIENTED_EDGE ( 'NONE', *, *, #547, .F. ) ;
#502 = AXIS2_PLACEMENT_3D ( 'NONE', #880, #427, #727 ) ;
#503 = LINE ( 'NONE', #804, #982 ) ;
#504 = VECTOR ( 'NONE', #594, 1000.000000000000000 ) ;
#505 = ORIENTED_EDGE ( 'NONE', *, *, #437, .F. ) ;
#506 = ADVANCED_BREP_SHAPE_REPRESENTATION ( '\X2\663e793a5668652f67b6\X0\', ( #41, #143 ), #554 ) ;
#507 = DIRECTION ( 'NONE',  ( -0.000000000000000000, -1.000000000000000000, -0.000000000000000000 ) ) ;
#508 = VECTOR ( 'NONE', #689, 1000.000000000000000 ) ;
#509 = CARTESIAN_POINT ( 'NONE',  ( 0.000000000000000000, 65.00000000000000000, 0.000000000000000000 ) ) ;
#510 = ORIENTED_EDGE ( 'NONE', *, *, #946, .T. ) ;
#511 = CARTESIAN_POINT ( 'NONE',  ( -20.00000000000000000, 66.00000000000000000, 0.000000000000000000 ) ) ;
#512 = SURFACE_STYLE_FILL_AREA ( #215 ) ;
#513 = ADVANCED_FACE ( 'NONE', ( #120 ), #866, .T. ) ;
#514 = CARTESIAN_POINT ( 'NONE',  ( 0.000000000000000000, 5.000000000000000000, -1.000000000000000000 ) ) ;
#515 = ORIENTED_EDGE ( 'NONE', *, *, #483, .F. ) ;
#516 = CARTESIAN_POINT ( 'NONE',  ( -19.00000000000000000, 62.00000000000000000, -19.99999999999999645 ) ) ;
#517 = DIRECTION ( 'NONE',  ( 0.000000000000000000, -1.000000000000000000, 0.000000000000000000 ) ) ;
#518 = CARTESIAN_POINT ( 'NONE',  ( -20.00000000000000000, 4.000000000000000000, -1.000000000000000000 ) ) ;
#519 = EDGE_CURVE ( 'NONE', #89, #853, #241, .T. ) ;
#520 = EDGE_CURVE ( 'NONE', #886, #482, #652, .T. ) ;
#521 = CIRCLE ( 'NONE', #952, 1.000000000000000888 ) ;
#522 = CARTESIAN_POINT ( 'NONE',  ( -19.00000000000000000, 65.00000000000000000, -19.99999999999999645 ) ) ;
#523 = DIRECTION ( 'NONE',  ( 0.000000000000000000, -1.000000000000000000, 0.000000000000000000 ) ) ;
#524 = DIRECTION ( 'NONE',  ( -0.000000000000000000, 1.000000000000000000, 0.000000000000000000 ) ) ;
#525 = VECTOR ( 'NONE', #840, 1000.000000000000000 ) ;
#526 = ADVANCED_FACE ( 'NONE', ( #262 ), #796, .F. ) ;
#527 = FACE_OUTER_BOUND ( 'NONE', #743, .T. ) ;
#528 = CARTESIAN_POINT ( 'NONE',  ( -20.00000000000000000, 65.00000000000000000, -2.000000000000000000 ) ) ;
#529 = EDGE_LOOP ( 'NONE', ( #165, #94, #889 ) ) ;
#530 = CYLINDRICAL_SURFACE ( 'NONE', #557, 1.000000000000000888 ) ;
#531 = CARTESIAN_POINT ( 'NONE',  ( -1.000000000000000000, 4.000000000000000000, -1.000000000000000000 ) ) ;
#532 = PRODUCT_DEFINITION ( 'æœ', '', #16, #906 ) ;
#533 = ADVANCED_FACE ( 'NONE', ( #255 ), #877, .T. ) ;
#534 = LINE ( 'NONE', #164, #541 ) ;
#535 = ORIENTED_EDGE ( 'NONE', *, *, #180, .T. ) ;
#536 = CARTESIAN_POINT ( 'NONE',  ( -1.000000000000000000, 66.00000000000000000, -1.000000000000000888 ) ) ;
#537 = SPHERICAL_SURFACE ( 'NONE', #378, 1.000000000000000000 ) ;
#538 = VECTOR ( 'NONE', #698, 1000.000000000000000 ) ;
#539 = DIRECTION ( 'NONE',  ( 0.000000000000000000, 0.000000000000000000, -1.000000000000000000 ) ) ;
#540 = ORIENTED_EDGE ( 'NONE', *, *, #200, .T. ) ;
#541 = VECTOR ( 'NONE', #523, 1000.000000000000000 ) ;
#542 = CARTESIAN_POINT ( 'NONE',  ( -10.00000000000000000, 62.00000000000000000, -9.999999999999998224 ) ) ;
#543 = CIRCLE ( 'NONE', #744, 1.000000000000000888 ) ;
#544 = LINE ( 'NONE', #406, #954 ) ;
#545 = VERTEX_POINT ( 'NONE', #401 ) ;
#546 = ORIENTED_EDGE ( 'NONE', *, *, #983, .F. ) ;
#547 = EDGE_CURVE ( 'NONE', #911, #433, #101, .T. ) ;
#548 = DIRECTION ( 'NONE',  ( 0.000000000000000000, -1.000000000000000000, 0.000000000000000000 ) ) ;
#549 = ORIENTED_EDGE ( 'NONE', *, *, #583, .F. ) ;
#550 = ORIENTED_EDGE ( 'NONE', *, *, #446, .T. ) ;
#551 = CARTESIAN_POINT ( 'NONE',  ( -19.00000000000000000, 0.000000000000000000, -19.99999999999999645 ) ) ;
#552 = ADVANCED_FACE ( 'NONE', ( #628 ), #931, .F. ) ;
#553 = CARTESIAN_POINT ( 'NONE',  ( -20.00000000000000000, 65.00000000000000000, -18.99999999999999645 ) ) ;
#554 =( GEOMETRIC_REPRESENTATION_CONTEXT ( 3 ) GLOBAL_UNCERTAINTY_ASSIGNED_CONTEXT ( ( #488 ) ) GLOBAL_UNIT_ASSIGNED_CONTEXT ( ( #274, #806, #134 ) ) REPRESENTATION_CONTEXT ( 'NONE', 'WORKASPACE' ) );
#555 = ORIENTED_EDGE ( 'NONE', *, *, #500, .F. ) ;
#556 = ORIENTED_EDGE ( 'NONE', *, *, #761, .F. ) ;
#557 = AXIS2_PLACEMENT_3D ( 'NONE', #682, #381, #230 ) ;
#558 = DIRECTION ( 'NONE',  ( -0.000000000000000000, -1.000000000000000000, -0.000000000000000000 ) ) ;
#559 = DIRECTION ( 'NONE',  ( -1.000000000000000000, 0.000000000000000000, -0.000000000000000000 ) ) ;
#560 = EDGE_CURVE ( 'NONE', #394, #344, #147, .T. ) ;
#561 = CIRCLE ( 'NONE', #87, 5.000000000000000888 ) ;
#562 = ORIENTED_EDGE ( 'NONE', *, *, #895, .T. ) ;
#563 = ORIENTED_EDGE ( 'NONE', *, *, #921, .F. ) ;
#564 = DIRECTION ( 'NONE',  ( 0.000000000000000000, 0.000000000000000000, -1.000000000000000000 ) ) ;
#565 = DIRECTION ( 'NONE',  ( 0.000000000000000000, 1.000000000000000000, 0.000000000000000000 ) ) ;
#566 = EDGE_CURVE ( 'NONE', #644, #622, #503, .T. ) ;
#567 = ORIENTED_EDGE ( 'NONE', *, *, #353, .F. ) ;
#568 = ORIENTED_EDGE ( 'NONE', *, *, #921, .T. ) ;
#569 = CARTESIAN_POINT ( 'NONE',  ( 0.000000000000000000, 62.00000000000000000, -1.000000000000000888 ) ) ;
#570 = LINE ( 'NONE', #738, #435 ) ;
#571 = AXIS2_PLACEMENT_3D ( 'NONE', #461, #102, #40 ) ;
#572 = ORIENTED_EDGE ( 'NONE', *, *, #92, .F. ) ;
#573 = VECTOR ( 'NONE', #913, 1000.000000000000000 ) ;
#574 = ORIENTED_EDGE ( 'NONE', *, *, #859, .F. ) ;
#575 = AXIS2_PLACEMENT_3D ( 'NONE', #333, #944, #183 ) ;
#576 = EDGE_CURVE ( 'NONE', #668, #764, #137, .T. ) ;
#577 = DIRECTION ( 'NONE',  ( 1.000000000000000000, -0.000000000000000000, 0.000000000000000000 ) ) ;
#578 = VECTOR ( 'NONE', #868, 1000.000000000000000 ) ;
#579 = FACE_OUTER_BOUND ( 'NONE', #104, .T. ) ;
#580 = VECTOR ( 'NONE', #749, 1000.000000000000000 ) ;
#581 = ORIENTED_EDGE ( 'NONE', *, *, #583, .T. ) ;
#582 = CARTESIAN_POINT ( 'NONE',  ( 0.000000000000000000, 65.00000000000000000, -18.99999999999999645 ) ) ;
#583 = EDGE_CURVE ( 'NONE', #29, #19, #212, .T. ) ;
#584 = DIRECTION ( 'NONE',  ( 0.000000000000000000, 0.000000000000000000, -1.000000000000000000 ) ) ;
#585 = CARTESIAN_POINT ( 'NONE',  ( -19.00000000000000000, 4.000000000000000000, -18.99999999999999645 ) ) ;
#586 = PRODUCT_RELATED_PRODUCT_CATEGORY ( 'part', '', ( #751 ) ) ;
#587 = CARTESIAN_POINT ( 'NONE',  ( 0.000000000000000000, 62.00000000000000000, -18.99999999999999645 ) ) ;
#588 = DIRECTION ( 'NONE',  ( -1.000000000000000000, -0.000000000000000000, -0.000000000000000000 ) ) ;
#589 = DIRECTION ( 'NONE',  ( -0.000000000000000000, -1.000000000000000000, -0.000000000000000000 ) ) ;
#590 = AXIS2_PLACEMENT_3D ( 'NONE', #899, #589, #656 ) ;
#591 = ORIENTED_EDGE ( 'NONE', *, *, #857, .T. ) ;
#592 = DIRECTION ( 'NONE',  ( 0.000000000000000000, -1.000000000000000000, 0.000000000000000000 ) ) ;
#593 = EDGE_CURVE ( 'NONE', #633, #783, #219, .T. ) ;
#594 = DIRECTION ( 'NONE',  ( -0.000000000000000000, -0.000000000000000000, 1.000000000000000000 ) ) ;
#595 = ORIENTED_EDGE ( 'NONE', *, *, #455, .F. ) ;
#596 = DIRECTION ( 'NONE',  ( 0.000000000000000000, 1.000000000000000000, -0.000000000000000000 ) ) ;
#597 = CARTESIAN_POINT ( 'NONE',  ( 0.000000000000000000, 5.000000000000000000, -20.00000000000000000 ) ) ;
#598 = FACE_OUTER_BOUND ( 'NONE', #291, .T. ) ;
#599 = PLANE ( 'NONE',  #757 ) ;
#600 = AXIS2_PLACEMENT_3D ( 'NONE', #351, #201, #734 ) ;
#601 = VECTOR ( 'NONE', #70, 1000.000000000000000 ) ;
#602 = AXIS2_PLACEMENT_3D ( 'NONE', #420, #195, #961 ) ;
#603 = LINE ( 'NONE', #903, #473 ) ;
#604 = DIRECTION ( 'NONE',  ( -0.000000000000000000, -1.000000000000000000, -0.000000000000000000 ) ) ;
#605 = CARTESIAN_POINT ( 'NONE',  ( -20.00000000000000000, 5.000000000000000000, -18.99999999999999645 ) ) ;
#606 = LINE ( 'NONE', #277, #334 ) ;
#607 = DIRECTION ( 'NONE',  ( -1.000000000000000000, 0.000000000000000000, 0.000000000000000000 ) ) ;
#608 = ORIENTED_EDGE ( 'NONE', *, *, #26, .F. ) ;
#609 = CARTESIAN_POINT ( 'NONE',  ( -1.000000000000000888, 65.00000000000000000, -18.99999999999999645 ) ) ;
#610 = CYLINDRICAL_SURFACE ( 'NONE', #875, 1.000000000000000888 ) ;
#611 = ADVANCED_FACE ( 'NONE', ( #282 ), #75, .T. ) ;
#612 = CARTESIAN_POINT ( 'NONE',  ( -20.00000000000000000, 66.00000000000000000, -17.99999999999999645 ) ) ;
#613 = ORIENTED_EDGE ( 'NONE', *, *, #152, .T. ) ;
#614 = DIRECTION ( 'NONE',  ( 1.000000000000000000, 0.000000000000000000, -0.000000000000000000 ) ) ;
#615 = AXIS2_PLACEMENT_3D ( 'NONE', #184, #770, #116 ) ;
#616 = EDGE_CURVE ( 'NONE', #726, #810, #395, .T. ) ;
#617 = FACE_OUTER_BOUND ( 'NONE', #782, .T. ) ;
#618 = ORIENTED_EDGE ( 'NONE', *, *, #827, .F. ) ;
#619 = AXIS2_PLACEMENT_3D ( 'NONE', #763, #82, #300 ) ;
#620 = CARTESIAN_POINT ( 'NONE',  ( -19.00000000000000000, 4.000000000000000000, -1.000000000000000000 ) ) ;
#621 = CARTESIAN_POINT ( 'NONE',  ( 0.000000000000000000, 5.000000000000000000, 0.000000000000000000 ) ) ;
#622 = VERTEX_POINT ( 'NONE', #746 ) ;
#623 = ORIENTED_EDGE ( 'NONE', *, *, #500, .T. ) ;
#624 = CARTESIAN_POINT ( 'NONE',  ( -19.00000000000000000, 65.00000000000000000, -18.99999999999999645 ) ) ;
#625 = DIRECTION ( 'NONE',  ( -0.000000000000000000, 1.000000000000000000, -0.000000000000000000 ) ) ;
#626 = ORIENTED_EDGE ( 'NONE', *, *, #721, .T. ) ;
#627 = VERTEX_POINT ( 'NONE', #518 ) ;
#628 = FACE_OUTER_BOUND ( 'NONE', #133, .T. ) ;
#629 = ADVANCED_FACE ( 'NONE', ( #732 ), #599, .F. ) ;
#630 = DIRECTION ( 'NONE',  ( 0.000000000000000000, -1.000000000000000000, 0.000000000000000000 ) ) ;
#631 = AXIS2_PLACEMENT_3D ( 'NONE', #413, #284, #584 ) ;
#632 = ORIENTED_EDGE ( 'NONE', *, *, #832, .F. ) ;
#633 = VERTEX_POINT ( 'NONE', #65 ) ;
#634 = AXIS2_PLACEMENT_3D ( 'NONE', #290, #373, #226 ) ;
#635 = DIRECTION ( 'NONE',  ( 0.000000000000000000, 0.000000000000000000, 1.000000000000000000 ) ) ;
#636 = LINE ( 'NONE', #712, #885 ) ;
#637 = VECTOR ( 'NONE', #604, 1000.000000000000000 ) ;
#638 = EDGE_LOOP ( 'NONE', ( #801, #493, #198, #58 ) ) ;
#639 = ORIENTED_EDGE ( 'NONE', *, *, #204, .F. ) ;
#640 = DIRECTION ( 'NONE',  ( 1.000000000000000000, 0.000000000000000000, 0.000000000000000000 ) ) ;
#641 = CARTESIAN_POINT ( 'NONE',  ( -19.00000000000000000, 4.000000000000000000, 0.000000000000000000 ) ) ;
#642 =( NAMED_UNIT ( * ) PLANE_ANGLE_UNIT ( ) SI_UNIT ( $, .RADIAN. ) );
#643 = EDGE_CURVE ( 'NONE', #810, #20, #968, .T. ) ;
#644 = VERTEX_POINT ( 'NONE', #132 ) ;
#645 = CARTESIAN_POINT ( 'NONE',  ( -1.000000000000000000, 0.000000000000000000, 0.000000000000000000 ) ) ;
#646 = DIRECTION ( 'NONE',  ( -0.000000000000000000, -1.000000000000000000, -0.000000000000000000 ) ) ;
#647 = CIRCLE ( 'NONE', #602, 1.000000000000000888 ) ;
#648 = DIRECTION ( 'NONE',  ( 0.000000000000000000, 1.000000000000000000, 0.000000000000000000 ) ) ;
#649 = VECTOR ( 'NONE', #765, 1000.000000000000000 ) ;
#650 = EDGE_CURVE ( 'NONE', #103, #659, #316, .T. ) ;
#651 = AXIS2_PLACEMENT_3D ( 'NONE', #702, #329, #479 ) ;
#652 = LINE ( 'NONE', #582, #209 ) ;
#653 = DIRECTION ( 'NONE',  ( -0.000000000000000000, -0.000000000000000000, 1.000000000000000000 ) ) ;
#654 = ORIENTED_EDGE ( 'NONE', *, *, #200, .F. ) ;
#655 = EDGE_CURVE ( 'NONE', #668, #911, #224, .T. ) ;
#656 = DIRECTION ( 'NONE',  ( 0.000000000000000000, 0.000000000000000000, 1.000000000000000000 ) ) ;
#657 = ADVANCED_FACE ( 'NONE', ( #56 ), #61, .F. ) ;
#658 = CARTESIAN_POINT ( 'NONE',  ( -20.00000000000000000, 65.00000000000000000, -1.000000000000000888 ) ) ;
#659 = VERTEX_POINT ( 'NONE', #354 ) ;
#660 = DIRECTION ( 'NONE',  ( -1.000000000000000000, 0.000000000000000000, -0.000000000000000000 ) ) ;
#661 = ORIENTED_EDGE ( 'NONE', *, *, #814, .T. ) ;
#662 = ADVANCED_FACE ( 'NONE', ( #673 ), #977, .T. ) ;
#663 = CARTESIAN_POINT ( 'NONE',  ( 0.000000000000000000, 66.00000000000000000, 0.000000000000000000 ) ) ;
#664 = DIRECTION ( 'NONE',  ( 0.000000000000000000, -1.000000000000000000, 0.000000000000000000 ) ) ;
#665 = AXIS2_PLACEMENT_3D ( 'NONE', #396, #927, #836 ) ;
#666 = AXIS2_PLACEMENT_3D ( 'NONE', #419, #791, #50 ) ;
#667 = CARTESIAN_POINT ( 'NONE',  ( -1.000000000000000000, 5.000000000000000000, -1.000000000000000000 ) ) ;
#668 = VERTEX_POINT ( 'NONE', #974 ) ;
#669 = DIRECTION ( 'NONE',  ( 1.000000000000000000, 0.000000000000000000, 0.000000000000000000 ) ) ;
#670 = CARTESIAN_POINT ( 'NONE',  ( 0.000000000000000000, 5.000000000000000000, 0.000000000000000000 ) ) ;
#671 = EDGE_CURVE ( 'NONE', #20, #407, #35, .T. ) ;
#672 = CARTESIAN_POINT ( 'NONE',  ( -20.00000000000000000, 66.00000000000000000, -2.000000000000000000 ) ) ;
#673 = FACE_OUTER_BOUND ( 'NONE', #98, .T. ) ;
#674 = FACE_OUTER_BOUND ( 'NONE', #779, .T. ) ;
#675 = ADVANCED_FACE ( 'NONE', ( #888 ), #958, .T. ) ;
#676 = DIRECTION ( 'NONE',  ( 0.000000000000000000, 1.000000000000000000, 0.000000000000000000 ) ) ;
#677 = CARTESIAN_POINT ( 'NONE',  ( -20.00000000000000000, 66.00000000000000000, -2.000000000000000000 ) ) ;
#678 = PRODUCT_CONTEXT ( 'NONE', #258, 'mechanical' ) ;
#679 = VECTOR ( 'NONE', #8, 1000.000000000000000 ) ;
#680 = DIRECTION ( 'NONE',  ( 0.000000000000000000, 0.000000000000000000, 1.000000000000000000 ) ) ;
#681 = ORIENTED_EDGE ( 'NONE', *, *, #342, .T. ) ;
#682 = CARTESIAN_POINT ( 'NONE',  ( -3.295974604355933479E-15, 4.000000000000000000, -19.00000000000000000 ) ) ;
#683 = DIRECTION ( 'NONE',  ( 0.000000000000000000, 0.000000000000000000, 1.000000000000000000 ) ) ;
#684 = CARTESIAN_POINT ( 'NONE',  ( -20.00000000000000000, 66.00000000000000000, -19.99999999999999645 ) ) ;
#685 = ORIENTED_EDGE ( 'NONE', *, *, #941, .T. ) ;
#686 = CARTESIAN_POINT ( 'NONE',  ( 0.000000000000000000, 0.000000000000000000, 0.000000000000000000 ) ) ;
#687 = FACE_OUTER_BOUND ( 'NONE', #322, .T. ) ;
#688 = ADVANCED_FACE ( 'NONE', ( #160 ), #530, .T. ) ;
#689 = DIRECTION ( 'NONE',  ( 0.000000000000000000, -1.000000000000000000, 0.000000000000000000 ) ) ;
#690 = ORIENTED_EDGE ( 'NONE', *, *, #716, .T. ) ;
#691 = CARTESIAN_POINT ( 'NONE',  ( -1.000000000000000888, 65.00000000000000000, 0.000000000000000000 ) ) ;
#692 = CIRCLE ( 'NONE', #979, 5.000000000000000888 ) ;
#693 = DIRECTION ( 'NONE',  ( -0.000000000000000000, 1.000000000000000000, -0.000000000000000000 ) ) ;
#694 = ORIENTED_EDGE ( 'NONE', *, *, #926, .T. ) ;
#695 = VERTEX_POINT ( 'NONE', #830 ) ;
#696 = CARTESIAN_POINT ( 'NONE',  ( 0.000000000000000000, 65.00000000000000000, -2.000000000000001776 ) ) ;
#697 = VECTOR ( 'NONE', #450, 1000.000000000000000 ) ;
#698 = DIRECTION ( 'NONE',  ( 1.000000000000000000, 0.000000000000000000, 0.000000000000000000 ) ) ;
#699 = ORIENTED_EDGE ( 'NONE', *, *, #873, .F. ) ;
#700 = ORIENTED_EDGE ( 'NONE', *, *, #520, .T. ) ;
#701 = EDGE_CURVE ( 'NONE', #846, #633, #820, .T. ) ;
#702 = CARTESIAN_POINT ( 'NONE',  ( -19.00000000000000000, 4.000000000000000000, -18.99999999999999645 ) ) ;
#703 = CARTESIAN_POINT ( 'NONE',  ( -19.00000000000000000, 66.00000000000000000, -18.99999999999999645 ) ) ;
#704 = ORIENTED_EDGE ( 'NONE', *, *, #895, .F. ) ;
#705 = ORIENTED_EDGE ( 'NONE', *, *, #671, .T. ) ;
#706 = CARTESIAN_POINT ( 'NONE',  ( -19.00000000000000000, 4.000000000000000000, -19.99999999999999645 ) ) ;
#707 = CARTESIAN_POINT ( 'NONE',  ( -20.00000000000000000, 4.000000000000000000, -19.99999999999999645 ) ) ;
#708 = VERTEX_POINT ( 'NONE', #445 ) ;
#709 = VERTEX_POINT ( 'NONE', #3 ) ;
#710 = VECTOR ( 'NONE', #301, 1000.000000000000000 ) ;
#711 = FACE_OUTER_BOUND ( 'NONE', #930, .T. ) ;
#712 = CARTESIAN_POINT ( 'NONE',  ( -20.00000000000000000, 4.000000000000000000, 0.000000000000000000 ) ) ;
#713 = ORIENTED_EDGE ( 'NONE', *, *, #136, .F. ) ;
#714 = ORIENTED_EDGE ( 'NONE', *, *, #157, .F. ) ;
#715 = CYLINDRICAL_SURFACE ( 'NONE', #256, 5.000000000000000888 ) ;
#716 = EDGE_CURVE ( 'NONE', #789, #430, #490, .T. ) ;
#717 = EDGE_LOOP ( 'NONE', ( #767, #113, #182, #713 ) ) ;
#718 = EDGE_LOOP ( 'NONE', ( #568, #714, #574, #53 ) ) ;
#719 = DIRECTION ( 'NONE',  ( 0.000000000000000000, -1.000000000000000000, 0.000000000000000000 ) ) ;
#720 = DIRECTION ( 'NONE',  ( -0.000000000000000000, -1.000000000000000000, -0.000000000000000000 ) ) ;
#721 = EDGE_CURVE ( 'NONE', #103, #708, #155, .T. ) ;
#722 = EDGE_CURVE ( 'NONE', #773, #911, #760, .T. ) ;
#723 = FILL_AREA_STYLE_COLOUR ( '', #436 ) ;
#724 = VECTOR ( 'NONE', #44, 1000.000000000000000 ) ;
#725 = DIRECTION ( 'NONE',  ( -0.000000000000000000, -1.000000000000000000, 0.000000000000000000 ) ) ;
#726 = VERTEX_POINT ( 'NONE', #84 ) ;
#727 = DIRECTION ( 'NONE',  ( 0.000000000000000000, 0.000000000000000000, -1.000000000000000000 ) ) ;
#728 = CIRCLE ( 'NONE', #985, 1.000000000000000000 ) ;
#729 = ORIENTED_EDGE ( 'NONE', *, *, #926, .F. ) ;
#730 = AXIS2_PLACEMENT_3D ( 'NONE', #542, #460, #472 ) ;
#731 = ADVANCED_FACE ( 'NONE', ( #907 ), #306, .T. ) ;
#732 = FACE_OUTER_BOUND ( 'NONE', #337, .T. ) ;
#733 = ORIENTED_EDGE ( 'NONE', *, *, #520, .F. ) ;
#734 = DIRECTION ( 'NONE',  ( 0.000000000000000000, 0.000000000000000000, -1.000000000000000000 ) ) ;
#735 = DIRECTION ( 'NONE',  ( 0.000000000000000000, -0.000000000000000000, -1.000000000000000000 ) ) ;
#736 = DIRECTION ( 'NONE',  ( 0.000000000000000000, -1.000000000000000000, 0.000000000000000000 ) ) ;
#737 = ORIENTED_EDGE ( 'NONE', *, *, #211, .F. ) ;
#738 = CARTESIAN_POINT ( 'NONE',  ( 0.000000000000000000, 4.000000000000000000, 0.000000000000000000 ) ) ;
#739 = PRESENTATION_LAYER_ASSIGNMENT (  '', '', ( #347 ) ) ;
#740 = VECTOR ( 'NONE', #507, 1000.000000000000000 ) ;
#741 = DIRECTION ( 'NONE',  ( 1.734723475976807094E-16, -0.000000000000000000, 1.000000000000000000 ) ) ;
#742 = AXIS2_PLACEMENT_3D ( 'NONE', #703, #851, #928 ) ;
#743 = EDGE_LOOP ( 'NONE', ( #99, #947, #515, #426 ) ) ;
#744 = AXIS2_PLACEMENT_3D ( 'NONE', #275, #295, #233 ) ;
#745 = LINE ( 'NONE', #528, #339 ) ;
#746 = CARTESIAN_POINT ( 'NONE',  ( 0.000000000000000000, 0.000000000000000000, -1.000000000000000000 ) ) ;
#747 = DIRECTION ( 'NONE',  ( 0.000000000000000000, -0.000000000000000000, 1.000000000000000000 ) ) ;
#748 = EDGE_CURVE ( 'NONE', #470, #886, #912, .T. ) ;
#749 = DIRECTION ( 'NONE',  ( -0.000000000000000000, 1.000000000000000000, -0.000000000000000000 ) ) ;
#750 = DIRECTION ( 'NONE',  ( 0.000000000000000000, -0.000000000000000000, 1.000000000000000000 ) ) ;
#751 = PRODUCT ( '\X2\663e793a5668652f67b6\X0\', '\X2\663e793a5668652f67b6\X0\', '', ( #678 ) ) ;
#752 = DIRECTION ( 'NONE',  ( 1.000000000000000000, 0.000000000000000000, 0.000000000000000000 ) ) ;
#753 = ORIENTED_EDGE ( 'NONE', *, *, #884, .T. ) ;
#754 = DIRECTION ( 'NONE',  ( -1.000000000000000000, 0.000000000000000000, 1.734723475976807094E-16 ) ) ;
#755 = VECTOR ( 'NONE', #34, 1000.000000000000000 ) ;
#756 = FACE_OUTER_BOUND ( 'NONE', #357, .T. ) ;
#757 = AXIS2_PLACEMENT_3D ( 'NONE', #597, #741, #216 ) ;
#758 = FACE_OUTER_BOUND ( 'NONE', #43, .T. ) ;
#759 = EDGE_LOOP ( 'NONE', ( #403, #572, #11, #858 ) ) ;
#760 = LINE ( 'NONE', #605, #52 ) ;
#761 = EDGE_CURVE ( 'NONE', #89, #448, #386, .T. ) ;
#762 = DIRECTION ( 'NONE',  ( 1.000000000000000000, 0.000000000000000000, 0.000000000000000000 ) ) ;
#763 = CARTESIAN_POINT ( 'NONE',  ( -1.000000000000000000, 4.000000000000000000, -1.000000000000000000 ) ) ;
#764 = VERTEX_POINT ( 'NONE', #781 ) ;
#765 = DIRECTION ( 'NONE',  ( -0.000000000000000000, 1.000000000000000000, -0.000000000000000000 ) ) ;
#766 = DIRECTION ( 'NONE',  ( 0.000000000000000000, 1.000000000000000000, 0.000000000000000000 ) ) ;
#767 = ORIENTED_EDGE ( 'NONE', *, *, #716, .F. ) ;
#768 = ORIENTED_EDGE ( 'NONE', *, *, #932, .F. ) ;
#769 = LINE ( 'NONE', #95, #904 ) ;
#770 = DIRECTION ( 'NONE',  ( 0.000000000000000000, 1.000000000000000000, 0.000000000000000000 ) ) ;
#771 = AXIS2_PLACEMENT_3D ( 'NONE', #963, #286, #297 ) ;
#772 = CIRCLE ( 'NONE', #867, 1.000000000000000000 ) ;
#773 = VERTEX_POINT ( 'NONE', #934 ) ;
#774 = ORIENTED_EDGE ( 'NONE', *, *, #136, .T. ) ;
#775 = DIRECTION ( 'NONE',  ( 0.000000000000000000, 0.000000000000000000, 1.000000000000000000 ) ) ;
#776 = CARTESIAN_POINT ( 'NONE',  ( -1.000000000000000888, 66.00000000000000000, 0.000000000000000000 ) ) ;
#777 = EDGE_CURVE ( 'NONE', #448, #129, #402, .T. ) ;
#778 = ORIENTED_EDGE ( 'NONE', *, *, #221, .F. ) ;
#779 = EDGE_LOOP ( 'NONE', ( #613, #361, #842, #498 ) ) ;
#780 = DIRECTION ( 'NONE',  ( -0.000000000000000000, 0.000000000000000000, -1.000000000000000000 ) ) ;
#781 = CARTESIAN_POINT ( 'NONE',  ( -20.00000000000000000, 0.000000000000000000, -18.99999999999999645 ) ) ;
#782 = EDGE_LOOP ( 'NONE', ( #327, #863, #415, #805 ) ) ;
#783 = VERTEX_POINT ( 'NONE', #325 ) ;
#784 = EDGE_CURVE ( 'NONE', #175, #112, #841, .T. ) ;
#785 = EDGE_CURVE ( 'NONE', #964, #42, #23, .T. ) ;
#786 = CARTESIAN_POINT ( 'NONE',  ( -1.000000000000000000, 0.000000000000000000, -1.000000000000000000 ) ) ;
#787 = CARTESIAN_POINT ( 'NONE',  ( -20.00000000000000000, 0.000000000000000000, -1.000000000000000000 ) ) ;
#788 = VERTEX_POINT ( 'NONE', #397 ) ;
#789 = VERTEX_POINT ( 'NONE', #776 ) ;
#790 = AXIS2_PLACEMENT_3D ( 'NONE', #855, #719, #955 ) ;
#791 = DIRECTION ( 'NONE',  ( -0.000000000000000000, -1.000000000000000000, -0.000000000000000000 ) ) ;
#792 = EDGE_CURVE ( 'NONE', #708, #107, #69, .T. ) ;
#793 = LINE ( 'NONE', #267, #578 ) ;
#794 = EDGE_LOOP ( 'NONE', ( #768, #581, #142, #213 ) ) ;
#795 = ORIENTED_EDGE ( 'NONE', *, *, #392, .T. ) ;
#796 = PLANE ( 'NONE',  #790 ) ;
#797 = CARTESIAN_POINT ( 'NONE',  ( -19.00000000000000000, 65.00000000000000000, -1.000000000000000000 ) ) ;
#798 = DIRECTION ( 'NONE',  ( -0.000000000000000000, 1.000000000000000000, -0.000000000000000000 ) ) ;
#799 = ORIENTED_EDGE ( 'NONE', *, *, #335, .F. ) ;
#800 = CARTESIAN_POINT ( 'NONE',  ( -20.00000000000000000, 66.00000000000000000, -18.99999999999999645 ) ) ;
#801 = ORIENTED_EDGE ( 'NONE', *, *, #802, .F. ) ;
#802 = EDGE_CURVE ( 'NONE', #545, #964, #196, .T. ) ;
#803 = VECTOR ( 'NONE', #31, 1000.000000000000000 ) ;
#804 = CARTESIAN_POINT ( 'NONE',  ( 0.000000000000000000, 5.000000000000000000, -1.000000000000000000 ) ) ;
#805 = ORIENTED_EDGE ( 'NONE', *, *, #287, .F. ) ;
#806 =( NAMED_UNIT ( * ) PLANE_ANGLE_UNIT ( ) SI_UNIT ( $, .RADIAN. ) );
#807 = ORIENTED_EDGE ( 'NONE', *, *, #792, .T. ) ;
#808 = ADVANCED_FACE ( 'NONE', ( #168 ), #248, .F. ) ;
#809 = DIRECTION ( 'NONE',  ( 0.000000000000000000, 0.000000000000000000, -1.000000000000000000 ) ) ;
#810 = VERTEX_POINT ( 'NONE', #467 ) ;
#811 = LINE ( 'NONE', #658, #439 ) ;
#812 = PRESENTATION_STYLE_ASSIGNMENT (( #122 ) ) ;
#813 = DIRECTION ( 'NONE',  ( -1.000000000000000000, 0.000000000000000000, -0.000000000000000000 ) ) ;
#814 = EDGE_CURVE ( 'NONE', #129, #846, #636, .T. ) ;
#815 = ORIENTED_EDGE ( 'NONE', *, *, #328, .T. ) ;
#816 = CIRCLE ( 'NONE', #173, 1.000000000000000000 ) ;
#817 = CYLINDRICAL_SURFACE ( 'NONE', #421, 1.000000000000000000 ) ;
#818 = CARTESIAN_POINT ( 'NONE',  ( -10.00000000000000000, 5.000000000000000000, -15.00000000000000000 ) ) ;
#819 = DIRECTION ( 'NONE',  ( 0.000000000000000000, 1.000000000000000000, 0.000000000000000000 ) ) ;
#820 = CIRCLE ( 'NONE', #350, 1.000000000000000000 ) ;
#821 = AXIS2_PLACEMENT_3D ( 'NONE', #63, #499, #214 ) ;
#822 = EDGE_CURVE ( 'NONE', #430, #695, #341, .T. ) ;
#823 = APPLICATION_PROTOCOL_DEFINITION ( 'draft international standard', 'automotive_design', 1998, #258 ) ;
#824 = FACE_BOUND ( 'NONE', #487, .T. ) ;
#825 = LINE ( 'NONE', #684, #939 ) ;
#826 = DIRECTION ( 'NONE',  ( 1.000000000000000000, -0.000000000000000000, -0.000000000000000000 ) ) ;
#827 = EDGE_CURVE ( 'NONE', #206, #191, #544, .T. ) ;
#828 = CARTESIAN_POINT ( 'NONE',  ( -19.00000000000000000, 5.000000000000000000, 0.000000000000000000 ) ) ;
#829 = ORIENTED_EDGE ( 'NONE', *, *, #576, .T. ) ;
#830 = CARTESIAN_POINT ( 'NONE',  ( 0.000000000000000000, 66.00000000000000000, -2.000000000000000000 ) ) ;
#831 = CARTESIAN_POINT ( 'NONE',  ( -20.00000000000000000, 65.00000000000000000, -2.000000000000000000 ) ) ;
#832 = EDGE_CURVE ( 'NONE', #482, #206, #468, .T. ) ;
#833 = LINE ( 'NONE', #828, #508 ) ;
#834 = ORIENTED_EDGE ( 'NONE', *, *, #784, .T. ) ;
#835 = CARTESIAN_POINT ( 'NONE',  ( 0.000000000000000000, 62.00000000000000000, -19.99999999999999645 ) ) ;
#836 = DIRECTION ( 'NONE',  ( 0.000000000000000000, 0.000000000000000000, 1.000000000000000000 ) ) ;
#837 = VECTOR ( 'NONE', #140, 1000.000000000000000 ) ;
#838 = DIRECTION ( 'NONE',  ( 0.000000000000000000, 0.000000000000000000, 1.000000000000000000 ) ) ;
#839 = EDGE_LOOP ( 'NONE', ( #428, #245 ) ) ;
#840 = DIRECTION ( 'NONE',  ( 0.000000000000000000, 0.000000000000000000, -1.000000000000000000 ) ) ;
#841 = LINE ( 'NONE', #391, #538 ) ;
#842 = ORIENTED_EDGE ( 'NONE', *, *, #114, .F. ) ;
#843 = ORIENTED_EDGE ( 'NONE', *, *, #204, .T. ) ;
#844 = DIRECTION ( 'NONE',  ( 0.000000000000000000, 0.000000000000000000, 1.000000000000000000 ) ) ;
#845 = CARTESIAN_POINT ( 'NONE',  ( -1.000000000000000888, 66.00000000000000000, -18.99999999999999645 ) ) ;
#846 = VERTEX_POINT ( 'NONE', #641 ) ;
#847 = ORIENTED_EDGE ( 'NONE', *, *, #323, .T. ) ;
#848 = VECTOR ( 'NONE', #374, 1000.000000000000000 ) ;
#849 = LINE ( 'NONE', #171, #697 ) ;
#850 = ADVANCED_FACE ( 'NONE', ( #28 ), #172, .F. ) ;
#851 = DIRECTION ( 'NONE',  ( -0.000000000000000000, 1.000000000000000000, -0.000000000000000000 ) ) ;
#852 = AXIS2_PLACEMENT_3D ( 'NONE', #115, #577, #410 ) ;
#853 = VERTEX_POINT ( 'NONE', #787 ) ;
#854 = ORIENTED_EDGE ( 'NONE', *, *, #353, .T. ) ;
#855 = CARTESIAN_POINT ( 'NONE',  ( 0.000000000000000000, 66.00000000000000000, 0.000000000000000000 ) ) ;
#856 = DIRECTION ( 'NONE',  ( 0.000000000000000000, 0.000000000000000000, -1.000000000000000000 ) ) ;
#857 = EDGE_CURVE ( 'NONE', #19, #123, #54, .T. ) ;
#858 = ORIENTED_EDGE ( 'NONE', *, *, #865, .F. ) ;
#859 = EDGE_CURVE ( 'NONE', #764, #385, #313, .T. ) ;
#860 = EDGE_LOOP ( 'NONE', ( #562, #46, #418, #170 ) ) ;
#861 = PLANE ( 'NONE',  #852 ) ;
#862 = CARTESIAN_POINT ( 'NONE',  ( -1.000000000000000000, 5.000000000000000000, 0.000000000000000000 ) ) ;
#863 = ORIENTED_EDGE ( 'NONE', *, *, #643, .F. ) ;
#864 = ORIENTED_EDGE ( 'NONE', *, *, #722, .F. ) ;
#865 = EDGE_CURVE ( 'NONE', #627, #668, #111, .T. ) ;
#866 = SPHERICAL_SURFACE ( 'NONE', #145, 1.000000000000000000 ) ;
#867 = AXIS2_PLACEMENT_3D ( 'NONE', #890, #59, #364 ) ;
#868 = DIRECTION ( 'NONE',  ( 1.000000000000000000, 0.000000000000000000, 0.000000000000000000 ) ) ;
#869 = AXIS2_PLACEMENT_3D ( 'NONE', #424, #819, #429 ) ;
#870 = FACE_OUTER_BOUND ( 'NONE', #924, .T. ) ;
#871 = EDGE_LOOP ( 'NONE', ( #505, #795, #305, #30, #476, #185, #546, #591 ) ) ;
#872 = VECTOR ( 'NONE', #664, 1000.000000000000000 ) ;
#873 = EDGE_CURVE ( 'NONE', #659, #103, #692, .T. ) ;
#874 = DIRECTION ( 'NONE',  ( -0.000000000000000000, -1.000000000000000000, -0.000000000000000000 ) ) ;
#875 = AXIS2_PLACEMENT_3D ( 'NONE', #624, #465, #105 ) ;
#876 = CARTESIAN_POINT ( 'NONE',  ( -1.000000000000000222, 0.000000000000000000, -20.00000000000000000 ) ) ;
#877 = CYLINDRICAL_SURFACE ( 'NONE', #935, 1.000000000000000000 ) ;
#878 = EDGE_LOOP ( 'NONE', ( #799, #942, #332, #705, #83, #244, #556, #24 ) ) ;
#879 = ADVANCED_FACE ( 'NONE', ( #188, #17 ), #940, .F. ) ;
#880 = CARTESIAN_POINT ( 'NONE',  ( -19.00000000000000000, 5.000000000000000000, -18.99999999999999645 ) ) ;
#881 =( LENGTH_UNIT ( ) NAMED_UNIT ( * ) SI_UNIT ( .MILLI., .METRE. ) );
#882 = CARTESIAN_POINT ( 'NONE',  ( -1.000000000000000222, 5.000000000000000000, -20.00000000000000000 ) ) ;
#883 = LINE ( 'NONE', #511, #222 ) ;
#884 = EDGE_CURVE ( 'NONE', #344, #29, #81, .T. ) ;
#885 = VECTOR ( 'NONE', #474, 1000.000000000000000 ) ;
#886 = VERTEX_POINT ( 'NONE', #587 ) ;
#887 = AXIS2_PLACEMENT_3D ( 'NONE', #786, #874, #635 ) ;
#888 = FACE_OUTER_BOUND ( 'NONE', #131, .T. ) ;
#889 = ORIENTED_EDGE ( 'NONE', *, *, #270, .F. ) ;
#890 = CARTESIAN_POINT ( 'NONE',  ( -1.000000000000000000, 4.000000000000000000, -1.000000000000000000 ) ) ;
#891 = LINE ( 'NONE', #294, #311 ) ;
#892 = VECTOR ( 'NONE', #314, 1000.000000000000000 ) ;
#893 = CARTESIAN_POINT ( 'NONE',  ( -20.00000000000000000, 5.000000000000000000, -18.99999999999999645 ) ) ;
#894 = ORIENTED_EDGE ( 'NONE', *, *, #566, .T. ) ;
#895 = EDGE_CURVE ( 'NONE', #129, #783, #772, .T. ) ;
#896 = CARTESIAN_POINT ( 'NONE',  ( -19.00000000000000000, 65.00000000000000000, 0.000000000000000000 ) ) ;
#897 = CARTESIAN_POINT ( 'NONE',  ( -20.00000000000000000, 62.00000000000000000, -18.99999999999999645 ) ) ;
#898 = CARTESIAN_POINT ( 'NONE',  ( -20.00000000000000000, 62.00000000000000000, -1.000000000000000888 ) ) ;
#899 = CARTESIAN_POINT ( 'NONE',  ( -1.000000000000000000, 0.000000000000000000, -19.00000000000000000 ) ) ;
#900 = AXIS2_PLACEMENT_3D ( 'NONE', #585, #368, #432 ) ;
#901 = ADVANCED_FACE ( 'NONE', ( #579 ), #125, .F. ) ;
#902 = EDGE_CURVE ( 'NONE', #659, #107, #956, .T. ) ;
#903 = CARTESIAN_POINT ( 'NONE',  ( -19.00000000000000000, 5.000000000000000000, 0.000000000000000000 ) ) ;
#904 = VECTOR ( 'NONE', #390, 1000.000000000000000 ) ;
#905 = PLANE ( 'NONE',  #320 ) ;
#906 = PRODUCT_DEFINITION_CONTEXT ( 'detailed design', #279, 'design' ) ;
#907 = FACE_OUTER_BOUND ( 'NONE', #269, .T. ) ;
#908 = CARTESIAN_POINT ( 'NONE',  ( -20.00000000000000000, 65.00000000000000000, -17.99999999999999645 ) ) ;
#909 = ADVANCED_FACE ( 'NONE', ( #495 ), #45, .T. ) ;
#910 = DIRECTION ( 'NONE',  ( 0.000000000000000000, 0.000000000000000000, -1.000000000000000000 ) ) ;
#911 = VERTEX_POINT ( 'NONE', #945 ) ;
#912 = LINE ( 'NONE', #835, #679 ) ;
#913 = DIRECTION ( 'NONE',  ( -0.000000000000000000, -0.000000000000000000, 1.000000000000000000 ) ) ;
#914 = CARTESIAN_POINT ( 'NONE',  ( 0.000000000000000000, 0.000000000000000000, -20.00000000000000000 ) ) ;
#915 = EDGE_LOOP ( 'NONE', ( #661, #37, #285, #486 ) ) ;
#916 = VECTOR ( 'NONE', #307, 1000.000000000000000 ) ;
#917 = LINE ( 'NONE', #691, #649 ) ;
#918 = VECTOR ( 'NONE', #630, 1000.000000000000000 ) ;
#919 = ORIENTED_EDGE ( 'NONE', *, *, #152, .F. ) ;
#920 = EDGE_LOOP ( 'NONE', ( #408, #925, #563 ) ) ;
#921 = EDGE_CURVE ( 'NONE', #668, #433, #933, .T. ) ;
#922 = CYLINDRICAL_SURFACE ( 'NONE', #665, 1.000000000000000000 ) ;
#923 = DIRECTION ( 'NONE',  ( 0.000000000000000000, 0.000000000000000000, 1.000000000000000000 ) ) ;
#924 = EDGE_LOOP ( 'NONE', ( #654, #169, #240, #834, #685, #310 ) ) ;
#925 = ORIENTED_EDGE ( 'NONE', *, *, #547, .T. ) ;
#926 = EDGE_CURVE ( 'NONE', #123, #344, #811, .T. ) ;
#927 = DIRECTION ( 'NONE',  ( -1.000000000000000000, 0.000000000000000000, 0.000000000000000000 ) ) ;
#928 = DIRECTION ( 'NONE',  ( 0.000000000000000000, 0.000000000000000000, -1.000000000000000000 ) ) ;
#929 = ORIENTED_EDGE ( 'NONE', *, *, #865, .T. ) ;
#930 = EDGE_LOOP ( 'NONE', ( #929, #829, #62, #174 ) ) ;
#931 = PLANE ( 'NONE',  #452 ) ;
#932 = EDGE_CURVE ( 'NONE', #29, #789, #883, .T. ) ;
#933 = CIRCLE ( 'NONE', #271, 1.000000000000000888 ) ;
#934 = CARTESIAN_POINT ( 'NONE',  ( -1.000000000000000000, 5.000000000000000000, -19.00000000000000000 ) ) ;
#935 = AXIS2_PLACEMENT_3D ( 'NONE', #203, #340, #497 ) ;
#936 = ORIENTED_EDGE ( 'NONE', *, *, #92, .T. ) ;
#937 = ORIENTED_EDGE ( 'NONE', *, *, #221, .T. ) ;
#938 = DIRECTION ( 'NONE',  ( 0.000000000000000000, 0.000000000000000000, 1.000000000000000000 ) ) ;
#939 = VECTOR ( 'NONE', #752, 1000.000000000000000 ) ;
#940 = PLANE ( 'NONE',  #51 ) ;
#941 = EDGE_CURVE ( 'NONE', #112, #482, #346, .T. ) ;
#942 = ORIENTED_EDGE ( 'NONE', *, *, #859, .T. ) ;
#943 = ORIENTED_EDGE ( 'NONE', *, *, #650, .F. ) ;
#944 = DIRECTION ( 'NONE',  ( 0.000000000000000000, 1.000000000000000000, -0.000000000000000000 ) ) ;
#945 = CARTESIAN_POINT ( 'NONE',  ( -19.00000000000000000, 5.000000000000000000, -18.99999999999999645 ) ) ;
#946 = EDGE_CURVE ( 'NONE', #726, #644, #570, .T. ) ;
#947 = ORIENTED_EDGE ( 'NONE', *, *, #777, .F. ) ;
#948 = ORIENTED_EDGE ( 'NONE', *, *, #26, .T. ) ;
#949 = CARTESIAN_POINT ( 'NONE',  ( -10.00000000000000000, 62.00000000000000000, -9.999999999999998224 ) ) ;
#950 = VECTOR ( 'NONE', #491, 1000.000000000000000 ) ;
#951 = DIRECTION ( 'NONE',  ( -0.000000000000000000, 1.000000000000000000, -0.000000000000000000 ) ) ;
#952 = AXIS2_PLACEMENT_3D ( 'NONE', #489, #780, #640 ) ;
#953 = ORIENTED_EDGE ( 'NONE', *, *, #941, .F. ) ;
#954 = VECTOR ( 'NONE', #548, 1000.000000000000000 ) ;
#955 = DIRECTION ( 'NONE',  ( 0.000000000000000000, -0.000000000000000000, -1.000000000000000000 ) ) ;
#956 = LINE ( 'NONE', #208, #950 ) ;
#957 = SURFACE_SIDE_STYLE ('',( #512 ) ) ;
#958 = PLANE ( 'NONE',  #178 ) ;
#959 = EDGE_CURVE ( 'NONE', #191, #886, #647, .T. ) ;
#960 = EDGE_CURVE ( 'NONE', #394, #315, #139, .T. ) ;
#961 = DIRECTION ( 'NONE',  ( 0.000000000000000000, 0.000000000000000000, 1.000000000000000000 ) ) ;
#962 = CARTESIAN_POINT ( 'NONE',  ( 0.000000000000000000, 0.000000000000000000, 0.000000000000000000 ) ) ;
#963 = CARTESIAN_POINT ( 'NONE',  ( -1.000000000000000000, 4.000000000000000000, -1.000000000000000000 ) ) ;
#964 = VERTEX_POINT ( 'NONE', #800 ) ;
#965 = CARTESIAN_POINT ( 'NONE',  ( -20.00000000000000000, 66.00000000000000000, -2.000000000000000000 ) ) ;
#966 = CYLINDRICAL_SURFACE ( 'NONE', #220, 1.000000000000000000 ) ;
#967 = VECTOR ( 'NONE', #625, 1000.000000000000000 ) ;
#968 = LINE ( 'NONE', #882, #601 ) ;
#969 = ORIENTED_EDGE ( 'NONE', *, *, #412, .T. ) ;
#970 = DIRECTION ( 'NONE',  ( 0.000000000000000000, 0.000000000000000000, 1.000000000000000000 ) ) ;
#971 = AXIS2_PLACEMENT_3D ( 'NONE', #239, #372, #78 ) ;
#972 = CARTESIAN_POINT ( 'NONE',  ( -19.00000000000000000, 5.000000000000000000, -1.000000000000000000 ) ) ;
#973 = ADVANCED_FACE ( 'NONE', ( #360 ), #130, .T. ) ;
#974 = CARTESIAN_POINT ( 'NONE',  ( -20.00000000000000000, 4.000000000000000000, -18.99999999999999645 ) ) ;
#975 = DIRECTION ( 'NONE',  ( 0.000000000000000000, 1.000000000000000000, 0.000000000000000000 ) ) ;
#976 = DIRECTION ( 'NONE',  ( 1.000000000000000000, 0.000000000000000000, -0.000000000000000000 ) ) ;
#977 = SPHERICAL_SURFACE ( 'NONE', #771, 1.000000000000000000 ) ;
#978 = CARTESIAN_POINT ( 'NONE',  ( -19.00000000000000000, 0.000000000000000000, 0.000000000000000000 ) ) ;
#979 = AXIS2_PLACEMENT_3D ( 'NONE', #336, #766, #97 ) ;
#980 = CARTESIAN_POINT ( 'NONE',  ( -1.000000000000000000, 4.000000000000000000, -19.00000000000000000 ) ) ;
#981 = CARTESIAN_POINT ( 'NONE',  ( -10.00000000000000000, 62.00000000000000000, -4.999999999999997335 ) ) ;
#982 = VECTOR ( 'NONE', #736, 1000.000000000000000 ) ;
#983 = EDGE_CURVE ( 'NONE', #19, #709, #793, .T. ) ;
#984 = CARTESIAN_POINT ( 'NONE',  ( 0.000000000000000000, 0.000000000000000000, -19.00000000000000000 ) ) ;
#985 = AXIS2_PLACEMENT_3D ( 'NONE', #980, #539, #158 ) ;
ENDSEC;
END-ISO-10303-21;
