ISO-10303-21;
HEADER;
FILE_DESCRIPTION (( 'STEP AP214' ),
    '1' );
FILE_NAME ('水管挡板.STEP',
    '2026-07-30T02:41:33',
    ( '' ),
    ( '' ),
    'SwSTEP 2.0',
    'SolidWorks 2024',
    '' );
FILE_SCHEMA (( 'AUTOMOTIVE_DESIGN' ));
ENDSEC;

DATA;
#1 = PLANE ( 'NONE',  #41 ) ;
#2 = DIRECTION ( 'NONE',  ( 0.000000000000000000, 1.000000000000000000, 0.000000000000000000 ) ) ;
#3 = STYLED_ITEM ( 'NONE', ( #110 ), #111 ) ;
#4 = ORIENTED_EDGE ( 'NONE', *, *, #136, .T. ) ;
#5 = DIRECTION ( 'NONE',  ( 0.000000000000000000, 0.000000000000000000, -1.000000000000000000 ) ) ;
#6 = ADVANCED_FACE ( 'NONE', ( #152 ), #98, .T. ) ;
#7 = PLANE ( 'NONE',  #81 ) ;
#8 = CARTESIAN_POINT ( 'NONE',  ( 0.000000000000000000, 2.000000000000000000, 0.000000000000000000 ) ) ;
#9 = AXIS2_PLACEMENT_3D ( 'NONE', #16, #138, #56 ) ;
#10 = DIRECTION ( 'NONE',  ( -1.000000000000000000, 0.000000000000000000, -0.000000000000000000 ) ) ;
#11 = EDGE_CURVE ( 'NONE', #44, #58, #69, .T. ) ;
#12 = ADVANCED_FACE ( 'NONE', ( #23 ), #97, .T. ) ;
#13 = SHAPE_DEFINITION_REPRESENTATION ( #90, #49 ) ;
#14 = DIRECTION ( 'NONE',  ( 0.000000000000000000, 0.000000000000000000, -1.000000000000000000 ) ) ;
#15 = PRODUCT_DEFINITION_CONTEXT ( 'detailed design', #129, 'design' ) ;
#16 = CARTESIAN_POINT ( 'NONE',  ( 10.00000000000000000, 0.000000000000000000, 0.000000000000000000 ) ) ;
#17 = ADVANCED_FACE ( 'NONE', ( #80 ), #7, .F. ) ;
#18 = CLOSED_SHELL ( 'NONE', ( #6, #12, #33, #27, #17 ) ) ;
#19 = DIRECTION ( 'NONE',  ( 1.000000000000000000, 0.000000000000000000, 0.000000000000000000 ) ) ;
#20 = VECTOR ( 'NONE', #30, 1000.000000000000000 ) ;
#21 = VERTEX_POINT ( 'NONE', #59 ) ;
#22 = VECTOR ( 'NONE', #62, 1000.000000000000000 ) ;
#23 = FACE_OUTER_BOUND ( 'NONE', #119, .T. ) ;
#24 = EDGE_CURVE ( 'NONE', #79, #58, #157, .T. ) ;
#25 = ORIENTED_EDGE ( 'NONE', *, *, #140, .T. ) ;
#26 = CARTESIAN_POINT ( 'NONE',  ( 10.00000000000000000, 2.000000000000000000, 0.000000000000000000 ) ) ;
#27 = ADVANCED_FACE ( 'NONE', ( #73 ), #150, .T. ) ;
#28 = CARTESIAN_POINT ( 'NONE',  ( 0.000000000000000000, 0.000000000000000000, 0.000000000000000000 ) ) ;
#29 = PRODUCT ( '\X2\6c347ba16321677f\X0\', '\X2\6c347ba16321677f\X0\', '', ( #93 ) ) ;
#30 = DIRECTION ( 'NONE',  ( -0.000000000000000000, -1.000000000000000000, -0.000000000000000000 ) ) ;
#31 = EDGE_LOOP ( 'NONE', ( #108, #132, #131, #125 ) ) ;
#32 = CARTESIAN_POINT ( 'NONE',  ( 20.00000000000000000, 2.000000000000000000, 0.000000000000000000 ) ) ;
#33 = ADVANCED_FACE ( 'NONE', ( #86 ), #1, .F. ) ;
#34 = VERTEX_POINT ( 'NONE', #32 ) ;
#35 = ORIENTED_EDGE ( 'NONE', *, *, #70, .F. ) ;
#36 = PRESENTATION_LAYER_ASSIGNMENT (  '', '', ( #3 ) ) ;
#37 = DIRECTION ( 'NONE',  ( 0.000000000000000000, 1.000000000000000000, 0.000000000000000000 ) ) ;
#38 =( LENGTH_UNIT ( ) NAMED_UNIT ( * ) SI_UNIT ( .MILLI., .METRE. ) );
#39 = CARTESIAN_POINT ( 'NONE',  ( 10.00000000000000000, 2.000000000000000000, 0.000000000000000000 ) ) ;
#40 =( NAMED_UNIT ( * ) SI_UNIT ( $, .STERADIAN. ) SOLID_ANGLE_UNIT ( ) );
#41 = AXIS2_PLACEMENT_3D ( 'NONE', #94, #14, #10 ) ;
#42 = CARTESIAN_POINT ( 'NONE',  ( 0.000000000000000000, 0.000000000000000000, 0.000000000000000000 ) ) ;
#43 = DIRECTION ( 'NONE',  ( 0.000000000000000000, 0.000000000000000000, 1.000000000000000000 ) ) ;
#44 = VERTEX_POINT ( 'NONE', #65 ) ;
#45 = DIRECTION ( 'NONE',  ( 0.000000000000000000, 0.000000000000000000, 1.000000000000000000 ) ) ;
#46 = AXIS2_PLACEMENT_3D ( 'NONE', #75, #67, #52 ) ;
#47 = ORIENTED_EDGE ( 'NONE', *, *, #24, .F. ) ;
#48 = SURFACE_STYLE_USAGE ( .BOTH. , #151 ) ;
#49 = ADVANCED_BREP_SHAPE_REPRESENTATION ( '\X2\6c347ba16321677f\X0\', ( #111, #148 ), #102 ) ;
#50 = CARTESIAN_POINT ( 'NONE',  ( 10.00000000000000000, 2.000000000000000000, 0.000000000000000000 ) ) ;
#51 = APPLICATION_PROTOCOL_DEFINITION ( 'draft international standard', 'automotive_design', 1998, #53 ) ;
#52 = DIRECTION ( 'NONE',  ( 0.000000000000000000, -0.000000000000000000, 1.000000000000000000 ) ) ;
#53 = APPLICATION_CONTEXT ( 'automotive_design' ) ;
#54 = EDGE_CURVE ( 'NONE', #21, #44, #124, .T. ) ;
#55 = MECHANICAL_DESIGN_GEOMETRIC_PRESENTATION_REPRESENTATION (  '', ( #3 ), #154 ) ;
#56 = DIRECTION ( 'NONE',  ( 0.000000000000000000, 0.000000000000000000, 1.000000000000000000 ) ) ;
#57 = EDGE_LOOP ( 'NONE', ( #4, #25, #141 ) ) ;
#58 = VERTEX_POINT ( 'NONE', #42 ) ;
#59 = CARTESIAN_POINT ( 'NONE',  ( 10.00000000000000000, 2.000000000000000000, -10.00000000000000000 ) ) ;
#60 = ORIENTED_EDGE ( 'NONE', *, *, #140, .F. ) ;
#61 = CARTESIAN_POINT ( 'NONE',  ( 10.00000000000000000, 0.000000000000000000, 0.000000000000000000 ) ) ;
#62 = DIRECTION ( 'NONE',  ( -0.000000000000000000, -1.000000000000000000, -0.000000000000000000 ) ) ;
#63 = CIRCLE ( 'NONE', #87, 10.00000000000000000 ) ;
#64 = CARTESIAN_POINT ( 'NONE',  ( 0.000000000000000000, 0.000000000000000000, 0.000000000000000000 ) ) ;
#65 = CARTESIAN_POINT ( 'NONE',  ( 10.00000000000000000, 0.000000000000000000, -10.00000000000000000 ) ) ;
#66 = DIRECTION ( 'NONE',  ( 1.000000000000000000, 0.000000000000000000, 0.000000000000000000 ) ) ;
#67 = DIRECTION ( 'NONE',  ( 0.000000000000000000, 1.000000000000000000, 0.000000000000000000 ) ) ;
#68 = VECTOR ( 'NONE', #19, 1000.000000000000000 ) ;
#69 = CIRCLE ( 'NONE', #91, 10.00000000000000000 ) ;
#70 = EDGE_CURVE ( 'NONE', #121, #44, #149, .T. ) ;
#71 = CARTESIAN_POINT ( 'NONE',  ( 0.000000000000000000, 2.000000000000000000, 0.000000000000000000 ) ) ;
#72 = DIRECTION ( 'NONE',  ( 0.000000000000000000, -0.000000000000000000, 1.000000000000000000 ) ) ;
#73 = FACE_OUTER_BOUND ( 'NONE', #57, .T. ) ;
#74 = ORIENTED_EDGE ( 'NONE', *, *, #136, .F. ) ;
#75 = CARTESIAN_POINT ( 'NONE',  ( 10.00000000000000000, 2.000000000000000000, 0.000000000000000000 ) ) ;
#76 = CARTESIAN_POINT ( 'NONE',  ( 20.00000000000000000, 2.000000000000000000, 0.000000000000000000 ) ) ;
#77 = UNCERTAINTY_MEASURE_WITH_UNIT (LENGTH_MEASURE( 1.000000000000000082E-05 ), #116, 'distance_accuracy_value', 'NONE');
#78 = CARTESIAN_POINT ( 'NONE',  ( 10.00000000000000000, 2.000000000000000000, -10.00000000000000000 ) ) ;
#79 = VERTEX_POINT ( 'NONE', #114 ) ;
#80 = FACE_OUTER_BOUND ( 'NONE', #82, .T. ) ;
#81 = AXIS2_PLACEMENT_3D ( 'NONE', #61, #127, #72 ) ;
#82 = EDGE_LOOP ( 'NONE', ( #35, #128, #107 ) ) ;
#83 = DIRECTION ( 'NONE',  ( -0.000000000000000000, -1.000000000000000000, -0.000000000000000000 ) ) ;
#84 = DIRECTION ( 'NONE',  ( -0.000000000000000000, -1.000000000000000000, -0.000000000000000000 ) ) ;
#85 = ORIENTED_EDGE ( 'NONE', *, *, #54, .F. ) ;
#86 = FACE_OUTER_BOUND ( 'NONE', #31, .T. ) ;
#87 = AXIS2_PLACEMENT_3D ( 'NONE', #39, #135, #43 ) ;
#88 = PRODUCT_DEFINITION ( '鏈', '', #96, #15 ) ;
#89 = FILL_AREA_STYLE_COLOUR ( '', #105 ) ;
#90 = PRODUCT_DEFINITION_SHAPE ( 'NONE', 'NONE',  #88 ) ;
#91 = AXIS2_PLACEMENT_3D ( 'NONE', #120, #37, #45 ) ;
#92 = EDGE_CURVE ( 'NONE', #58, #121, #133, .T. ) ;
#93 = PRODUCT_CONTEXT ( 'NONE', #53, 'mechanical' ) ;
#94 = CARTESIAN_POINT ( 'NONE',  ( 0.000000000000000000, 2.000000000000000000, 0.000000000000000000 ) ) ;
#95 = ORIENTED_EDGE ( 'NONE', *, *, #54, .T. ) ;
#96 = PRODUCT_DEFINITION_FORMATION_WITH_SPECIFIED_SOURCE ( '浠', '', #29, .NOT_KNOWN. ) ;
#97 = CYLINDRICAL_SURFACE ( 'NONE', #126, 10.00000000000000000 ) ;
#98 = CYLINDRICAL_SURFACE ( 'NONE', #155, 10.00000000000000000 ) ;
#99 = DIRECTION ( 'NONE',  ( -0.000000000000000000, -1.000000000000000000, -0.000000000000000000 ) ) ;
#100 =( NAMED_UNIT ( * ) SI_UNIT ( $, .STERADIAN. ) SOLID_ANGLE_UNIT ( ) );
#101 =( NAMED_UNIT ( * ) PLANE_ANGLE_UNIT ( ) SI_UNIT ( $, .RADIAN. ) );
#102 =( GEOMETRIC_REPRESENTATION_CONTEXT ( 3 ) GLOBAL_UNCERTAINTY_ASSIGNED_CONTEXT ( ( #77 ) ) GLOBAL_UNIT_ASSIGNED_CONTEXT ( ( #116, #101, #100 ) ) REPRESENTATION_CONTEXT ( 'NONE', 'WORKASPACE' ) );
#103 = DIRECTION ( 'NONE',  ( 0.000000000000000000, 0.000000000000000000, 1.000000000000000000 ) ) ;
#104 = DIRECTION ( 'NONE',  ( 1.000000000000000000, 0.000000000000000000, 0.000000000000000000 ) ) ;
#105 = COLOUR_RGB ( '',0.7921568627450980005, 0.8196078431372548767, 0.9333333333333333481 ) ;
#106 =( NAMED_UNIT ( * ) PLANE_ANGLE_UNIT ( ) SI_UNIT ( $, .RADIAN. ) );
#107 = ORIENTED_EDGE ( 'NONE', *, *, #11, .F. ) ;
#108 = ORIENTED_EDGE ( 'NONE', *, *, #92, .T. ) ;
#109 = LINE ( 'NONE', #76, #20 ) ;
#110 = PRESENTATION_STYLE_ASSIGNMENT (( #48 ) ) ;
#111 = MANIFOLD_SOLID_BREP ( '凸台-拉伸1', #18 ) ;
#112 = FILL_AREA_STYLE ('',( #89 ) ) ;
#113 = CIRCLE ( 'NONE', #134, 10.00000000000000000 ) ;
#114 = CARTESIAN_POINT ( 'NONE',  ( 0.000000000000000000, 2.000000000000000000, 0.000000000000000000 ) ) ;
#115 = VECTOR ( 'NONE', #99, 1000.000000000000000 ) ;
#116 =( LENGTH_UNIT ( ) NAMED_UNIT ( * ) SI_UNIT ( .MILLI., .METRE. ) );
#117 = ORIENTED_EDGE ( 'NONE', *, *, #143, .T. ) ;
#118 = ORIENTED_EDGE ( 'NONE', *, *, #11, .T. ) ;
#119 = EDGE_LOOP ( 'NONE', ( #85, #74, #117, #145 ) ) ;
#120 = CARTESIAN_POINT ( 'NONE',  ( 10.00000000000000000, 0.000000000000000000, 0.000000000000000000 ) ) ;
#121 = VERTEX_POINT ( 'NONE', #139 ) ;
#122 = LINE ( 'NONE', #71, #68 ) ;
#123 = DIRECTION ( 'NONE',  ( 0.000000000000000000, 0.000000000000000000, 1.000000000000000000 ) ) ;
#124 = LINE ( 'NONE', #78, #115 ) ;
#125 = ORIENTED_EDGE ( 'NONE', *, *, #24, .T. ) ;
#126 = AXIS2_PLACEMENT_3D ( 'NONE', #130, #84, #142 ) ;
#127 = DIRECTION ( 'NONE',  ( 0.000000000000000000, 1.000000000000000000, 0.000000000000000000 ) ) ;
#128 = ORIENTED_EDGE ( 'NONE', *, *, #92, .F. ) ;
#129 = APPLICATION_CONTEXT ( 'automotive_design' ) ;
#130 = CARTESIAN_POINT ( 'NONE',  ( 10.00000000000000000, 2.000000000000000000, 0.000000000000000000 ) ) ;
#131 = ORIENTED_EDGE ( 'NONE', *, *, #146, .F. ) ;
#132 = ORIENTED_EDGE ( 'NONE', *, *, #143, .F. ) ;
#133 = LINE ( 'NONE', #28, #144 ) ;
#134 = AXIS2_PLACEMENT_3D ( 'NONE', #50, #2, #123 ) ;
#135 = DIRECTION ( 'NONE',  ( 0.000000000000000000, 1.000000000000000000, 0.000000000000000000 ) ) ;
#136 = EDGE_CURVE ( 'NONE', #34, #21, #113, .T. ) ;
#137 = UNCERTAINTY_MEASURE_WITH_UNIT (LENGTH_MEASURE( 1.000000000000000082E-05 ), #38, 'distance_accuracy_value', 'NONE');
#138 = DIRECTION ( 'NONE',  ( 0.000000000000000000, 1.000000000000000000, 0.000000000000000000 ) ) ;
#139 = CARTESIAN_POINT ( 'NONE',  ( 20.00000000000000000, 0.000000000000000000, 0.000000000000000000 ) ) ;
#140 = EDGE_CURVE ( 'NONE', #21, #79, #63, .T. ) ;
#141 = ORIENTED_EDGE ( 'NONE', *, *, #146, .T. ) ;
#142 = DIRECTION ( 'NONE',  ( 0.000000000000000000, 0.000000000000000000, -1.000000000000000000 ) ) ;
#143 = EDGE_CURVE ( 'NONE', #34, #121, #109, .T. ) ;
#144 = VECTOR ( 'NONE', #104, 1000.000000000000000 ) ;
#145 = ORIENTED_EDGE ( 'NONE', *, *, #70, .T. ) ;
#146 = EDGE_CURVE ( 'NONE', #79, #34, #122, .T. ) ;
#147 = APPLICATION_PROTOCOL_DEFINITION ( 'draft international standard', 'automotive_design', 1998, #129 ) ;
#148 = AXIS2_PLACEMENT_3D ( 'NONE', #64, #103, #66 ) ;
#149 = CIRCLE ( 'NONE', #9, 10.00000000000000000 ) ;
#150 = PLANE ( 'NONE',  #46 ) ;
#151 = SURFACE_SIDE_STYLE ('',( #158 ) ) ;
#152 = FACE_OUTER_BOUND ( 'NONE', #156, .T. ) ;
#153 = PRODUCT_RELATED_PRODUCT_CATEGORY ( 'part', '', ( #29 ) ) ;
#154 =( GEOMETRIC_REPRESENTATION_CONTEXT ( 3 ) GLOBAL_UNCERTAINTY_ASSIGNED_CONTEXT ( ( #137 ) ) GLOBAL_UNIT_ASSIGNED_CONTEXT ( ( #38, #106, #40 ) ) REPRESENTATION_CONTEXT ( 'NONE', 'WORKASPACE' ) );
#155 = AXIS2_PLACEMENT_3D ( 'NONE', #26, #83, #5 ) ;
#156 = EDGE_LOOP ( 'NONE', ( #60, #95, #118, #47 ) ) ;
#157 = LINE ( 'NONE', #8, #22 ) ;
#158 = SURFACE_STYLE_FILL_AREA ( #112 ) ;
ENDSEC;
END-ISO-10303-21;
