ISO-10303-21;
HEADER;
FILE_DESCRIPTION (( 'STEP AP214' ),
    '1' );
FILE_NAME ('µç³ØºÐ.STEP',
    '2026-05-19T14:08:57',
    ( '' ),
    ( '' ),
    'SwSTEP 2.0',
    'SolidWorks 2024',
    '' );
FILE_SCHEMA (( 'AUTOMOTIVE_DESIGN' ));
ENDSEC;

DATA;
#1 = VECTOR ( 'NONE', #607, 1000.000000000000000 ) ;
#2 = VECTOR ( 'NONE', #666, 1000.000000000000000 ) ;
#3 = CARTESIAN_POINT ( 'NONE',  ( 94.00000000000000000, -35.00000000000000000, -5.000000000000015987 ) ) ;
#4 = FACE_OUTER_BOUND ( 'NONE', #462, .T. ) ;
#5 = EDGE_LOOP ( 'NONE', ( #173, #16, #723, #485 ) ) ;
#6 = ORIENTED_EDGE ( 'NONE', *, *, #414, .T. ) ;
#7 = LINE ( 'NONE', #267, #263 ) ;
#8 = VECTOR ( 'NONE', #119, 1000.000000000000000 ) ;
#9 = VERTEX_POINT ( 'NONE', #51 ) ;
#10 = CARTESIAN_POINT ( 'NONE',  ( 92.00000000000000000, 1.000000000000000888, -41.99999999999997868 ) ) ;
#11 = CARTESIAN_POINT ( 'NONE',  ( 92.00000000000000000, 20.00000000000000000, -41.99999999999997868 ) ) ;
#12 = ORIENTED_EDGE ( 'NONE', *, *, #254, .F. ) ;
#13 = DIRECTION ( 'NONE',  ( -1.000000000000000000, -0.000000000000000000, -0.000000000000000000 ) ) ;
#14 = CARTESIAN_POINT ( 'NONE',  ( 0.000000000000000000, -35.00000000000000000, -43.99999999999998579 ) ) ;
#15 = CARTESIAN_POINT ( 'NONE',  ( 0.000000000000000000, 20.00000000000000000, 0.000000000000000000 ) ) ;
#16 = ORIENTED_EDGE ( 'NONE', *, *, #96, .T. ) ;
#17 = EDGE_CURVE ( 'NONE', #681, #145, #7, .T. ) ;
#18 = CARTESIAN_POINT ( 'NONE',  ( 5.000000000000000888, 0.000000000000000000, -38.99999999999997868 ) ) ;
#19 = CARTESIAN_POINT ( 'NONE',  ( 5.000000000000000888, 0.000000000000000000, -5.000000000000000000 ) ) ;
#20 = VECTOR ( 'NONE', #262, 1000.000000000000000 ) ;
#21 = ORIENTED_EDGE ( 'NONE', *, *, #106, .T. ) ;
#22 = LINE ( 'NONE', #715, #660 ) ;
#23 = DIRECTION ( 'NONE',  ( 1.192622389734054877E-16, 0.000000000000000000, 1.000000000000000000 ) ) ;
#24 = LINE ( 'NONE', #470, #650 ) ;
#25 = LINE ( 'NONE', #696, #63 ) ;
#26 = EDGE_LOOP ( 'NONE', ( #690, #181, #465, #446, #278, #472, #549, #110 ) ) ;
#27 = CARTESIAN_POINT ( 'NONE',  ( 5.000000000000000000, -35.00000000000000000, -43.99999999999998579 ) ) ;
#28 = DIRECTION ( 'NONE',  ( -2.775557561562890957E-15, 0.000000000000000000, -1.000000000000000000 ) ) ;
#29 = EDGE_CURVE ( 'NONE', #477, #415, #497, .T. ) ;
#30 = VERTEX_POINT ( 'NONE', #452 ) ;
#31 = FACE_OUTER_BOUND ( 'NONE', #203, .T. ) ;
#32 = CARTESIAN_POINT ( 'NONE',  ( 0.000000000000000000, 1.000000000000000888, 0.000000000000000000 ) ) ;
#33 = ADVANCED_FACE ( 'NONE', ( #665 ), #108, .T. ) ;
#34 = ORIENTED_EDGE ( 'NONE', *, *, #225, .F. ) ;
#35 = FILL_AREA_STYLE_COLOUR ( '', #467 ) ;
#36 = VECTOR ( 'NONE', #70, 1000.000000000000000 ) ;
#37 = LINE ( 'NONE', #709, #182 ) ;
#38 = VERTEX_POINT ( 'NONE', #560 ) ;
#39 = SURFACE_SIDE_STYLE ('',( #372 ) ) ;
#40 = LINE ( 'NONE', #541, #503 ) ;
#41 = ORIENTED_EDGE ( 'NONE', *, *, #439, .F. ) ;
#42 = CARTESIAN_POINT ( 'NONE',  ( 2.000000000000000444, 1.000000000000000888, -41.99999999999997868 ) ) ;
#43 = CARTESIAN_POINT ( 'NONE',  ( 0.000000000000000000, 0.000000000000000000, 0.000000000000000000 ) ) ;
#44 = ADVANCED_FACE ( 'NONE', ( #272 ), #340, .F. ) ;
#45 = VERTEX_POINT ( 'NONE', #167 ) ;
#46 = LINE ( 'NONE', #265, #531 ) ;
#47 = EDGE_LOOP ( 'NONE', ( #215, #633, #697, #669 ) ) ;
#48 = FACE_OUTER_BOUND ( 'NONE', #99, .T. ) ;
#49 = EDGE_CURVE ( 'NONE', #222, #415, #396, .T. ) ;
#50 = EDGE_CURVE ( 'NONE', #490, #714, #673, .T. ) ;
#51 = CARTESIAN_POINT ( 'NONE',  ( 0.000000000000000000, 20.00000000000000000, 0.000000000000000000 ) ) ;
#52 = DIRECTION ( 'NONE',  ( 0.000000000000000000, 0.000000000000000000, -1.000000000000000000 ) ) ;
#53 = EDGE_CURVE ( 'NONE', #201, #159, #331, .T. ) ;
#54 = ORIENTED_EDGE ( 'NONE', *, *, #17, .F. ) ;
#55 = LINE ( 'NONE', #495, #137 ) ;
#56 = ORIENTED_EDGE ( 'NONE', *, *, #679, .T. ) ;
#57 = AXIS2_PLACEMENT_3D ( 'NONE', #152, #321, #295 ) ;
#58 = ORIENTED_EDGE ( 'NONE', *, *, #287, .T. ) ;
#59 = ORIENTED_EDGE ( 'NONE', *, *, #343, .T. ) ;
#60 = DIRECTION ( 'NONE',  ( 1.971276677246372752E-16, 0.000000000000000000, 1.000000000000000000 ) ) ;
#61 = ORIENTED_EDGE ( 'NONE', *, *, #358, .F. ) ;
#62 = LINE ( 'NONE', #680, #239 ) ;
#63 = VECTOR ( 'NONE', #229, 1000.000000000000000 ) ;
#64 = PRODUCT ( '\X2\75356c6076d2\X0\', '\X2\75356c6076d2\X0\', '', ( #606 ) ) ;
#65 = CARTESIAN_POINT ( 'NONE',  ( 2.000000000000000444, 1.000000000000000888, -41.99999999999997868 ) ) ;
#66 = VERTEX_POINT ( 'NONE', #116 ) ;
#67 = CARTESIAN_POINT ( 'NONE',  ( 0.000000000000000000, 20.00000000000000000, 0.000000000000000000 ) ) ;
#68 = DIRECTION ( 'NONE',  ( -1.000000000000000000, 0.000000000000000000, -0.000000000000000000 ) ) ;
#69 = DIRECTION ( 'NONE',  ( 1.734723475976805615E-16, 0.000000000000000000, 1.000000000000000000 ) ) ;
#70 = DIRECTION ( 'NONE',  ( -0.000000000000000000, 1.000000000000000000, -0.000000000000000000 ) ) ;
#71 = ORIENTED_EDGE ( 'NONE', *, *, #499, .T. ) ;
#72 = CARTESIAN_POINT ( 'NONE',  ( -8.673617379884035472E-15, 20.00000000000000000, -43.99999999999998579 ) ) ;
#73 = LINE ( 'NONE', #355, #147 ) ;
#74 = VERTEX_POINT ( 'NONE', #458 ) ;
#75 = DIRECTION ( 'NONE',  ( 0.000000000000000000, -1.000000000000000000, 0.000000000000000000 ) ) ;
#76 = CARTESIAN_POINT ( 'NONE',  ( 5.000000000000000888, 0.000000000000000000, 0.000000000000000000 ) ) ;
#77 = CARTESIAN_POINT ( 'NONE',  ( -8.673617379884035472E-15, 0.000000000000000000, -43.99999999999998579 ) ) ;
#78 = FACE_OUTER_BOUND ( 'NONE', #581, .T. ) ;
#79 = AXIS2_PLACEMENT_3D ( 'NONE', #284, #237, #175 ) ;
#80 = EDGE_LOOP ( 'NONE', ( #97, #432, #249, #41 ) ) ;
#81 = DIRECTION ( 'NONE',  ( 0.000000000000000000, -0.000000000000000000, -1.000000000000000000 ) ) ;
#82 = EDGE_CURVE ( 'NONE', #30, #242, #62, .T. ) ;
#83 = ORIENTED_EDGE ( 'NONE', *, *, #311, .F. ) ;
#84 = PLANE ( 'NONE',  #349 ) ;
#85 = CARTESIAN_POINT ( 'NONE',  ( 89.00000000000001421, 0.000000000000000000, -1.324697927109562513E-14 ) ) ;
#86 = ADVANCED_FACE ( 'NONE', ( #296 ), #226, .F. ) ;
#87 = ORIENTED_EDGE ( 'NONE', *, *, #96, .F. ) ;
#88 = CARTESIAN_POINT ( 'NONE',  ( 94.00000000000000000, -35.00000000000000000, -38.99999999999997158 ) ) ;
#89 = PRODUCT_RELATED_PRODUCT_CATEGORY ( 'part', '', ( #64 ) ) ;
#90 = ORIENTED_EDGE ( 'NONE', *, *, #206, .T. ) ;
#91 = VECTOR ( 'NONE', #233, 1000.000000000000000 ) ;
#92 = FACE_OUTER_BOUND ( 'NONE', #617, .T. ) ;
#93 = VERTEX_POINT ( 'NONE', #636 ) ;
#94 = DIRECTION ( 'NONE',  ( 1.000000000000000000, 0.000000000000000000, 0.000000000000000000 ) ) ;
#95 = DIRECTION ( 'NONE',  ( 1.000000000000000000, 0.000000000000000000, 0.000000000000000000 ) ) ;
#96 = EDGE_CURVE ( 'NONE', #591, #717, #519, .T. ) ;
#97 = ORIENTED_EDGE ( 'NONE', *, *, #518, .F. ) ;
#98 = CARTESIAN_POINT ( 'NONE',  ( 5.000000000000000888, -35.00000000000000000, -5.000000000000000000 ) ) ;
#99 = EDGE_LOOP ( 'NONE', ( #545, #424, #258, #567 ) ) ;
#100 = LINE ( 'NONE', #441, #123 ) ;
#101 = AXIS2_PLACEMENT_3D ( 'NONE', #15, #235, #185 ) ;
#102 = EDGE_CURVE ( 'NONE', #362, #428, #73, .T. ) ;
#103 = VECTOR ( 'NONE', #653, 1000.000000000000000 ) ;
#104 = DIRECTION ( 'NONE',  ( -3.154042683594196107E-16, 0.000000000000000000, -1.000000000000000000 ) ) ;
#105 = PLANE ( 'NONE',  #163 ) ;
#106 = EDGE_CURVE ( 'NONE', #279, #45, #464, .T. ) ;
#107 = EDGE_CURVE ( 'NONE', #362, #508, #527, .T. ) ;
#108 = PLANE ( 'NONE',  #435 ) ;
#109 = CARTESIAN_POINT ( 'NONE',  ( 2.000000000000005329, 20.00000000000000000, -1.999999999999980904 ) ) ;
#110 = ORIENTED_EDGE ( 'NONE', *, *, #489, .T. ) ;
#111 = VERTEX_POINT ( 'NONE', #573 ) ;
#112 = VECTOR ( 'NONE', #104, 1000.000000000000000 ) ;
#113 = AXIS2_PLACEMENT_3D ( 'NONE', #529, #192, #129 ) ;
#114 = EDGE_LOOP ( 'NONE', ( #140, #71, #90, #247 ) ) ;
#115 = ADVANCED_FACE ( 'NONE', ( #523 ), #288, .F. ) ;
#116 = CARTESIAN_POINT ( 'NONE',  ( -8.673617379884035472E-15, 20.00000000000000000, -43.99999999999998579 ) ) ;
#117 = DIRECTION ( 'NONE',  ( 1.000000000000000000, 0.000000000000000000, 0.000000000000000000 ) ) ;
#118 = ORIENTED_EDGE ( 'NONE', *, *, #106, .F. ) ;
#119 = DIRECTION ( 'NONE',  ( -0.000000000000000000, 1.000000000000000000, -0.000000000000000000 ) ) ;
#120 = LINE ( 'NONE', #348, #91 ) ;
#121 = ADVANCED_FACE ( 'NONE', ( #78 ), #303, .F. ) ;
#122 = VECTOR ( 'NONE', #615, 1000.000000000000000 ) ;
#123 = VECTOR ( 'NONE', #165, 1000.000000000000000 ) ;
#124 = DIRECTION ( 'NONE',  ( -0.000000000000000000, -0.000000000000000000, -1.000000000000000000 ) ) ;
#125 = EDGE_LOOP ( 'NONE', ( #610, #509, #459, #346 ) ) ;
#126 = DIRECTION ( 'NONE',  ( -1.000000000000000000, 0.000000000000000000, -0.000000000000000000 ) ) ;
#127 = DIRECTION ( 'NONE',  ( 1.192622389734054877E-16, 0.000000000000000000, 1.000000000000000000 ) ) ;
#128 = ORIENTED_EDGE ( 'NONE', *, *, #156, .F. ) ;
#129 = DIRECTION ( 'NONE',  ( 1.000000000000000000, 0.000000000000000000, 0.000000000000000000 ) ) ;
#130 = DIRECTION ( 'NONE',  ( -1.734723475976807094E-16, -0.000000000000000000, 1.000000000000000000 ) ) ;
#131 = LINE ( 'NONE', #11, #649 ) ;
#132 = EDGE_LOOP ( 'NONE', ( #620, #641, #440, #382, #138, #325, #568, #663, #12, #318, #54, #388 ) ) ;
#133 = DIRECTION ( 'NONE',  ( -0.000000000000000000, -1.000000000000000000, -0.000000000000000000 ) ) ;
#134 = LINE ( 'NONE', #299, #365 ) ;
#135 = CLOSED_SHELL ( 'NONE', ( #517, #384, #577, #86, #210, #177, #392, #115, #121, #430, #230, #548, #710, #512, #150, #44, #142, #626, #373, #624, #391, #310, #33 ) ) ;
#136 = DIRECTION ( 'NONE',  ( -0.000000000000000000, 0.000000000000000000, 1.000000000000000000 ) ) ;
#137 = VECTOR ( 'NONE', #273, 1000.000000000000000 ) ;
#138 = ORIENTED_EDGE ( 'NONE', *, *, #269, .F. ) ;
#139 = PLANE ( 'NONE',  #590 ) ;
#140 = ORIENTED_EDGE ( 'NONE', *, *, #166, .T. ) ;
#141 = CARTESIAN_POINT ( 'NONE',  ( 5.000000000000000000, -35.00000000000000000, 0.000000000000000000 ) ) ;
#142 = ADVANCED_FACE ( 'NONE', ( #583 ), #640, .T. ) ;
#143 = LINE ( 'NONE', #315, #411 ) ;
#144 = UNCERTAINTY_MEASURE_WITH_UNIT (LENGTH_MEASURE( 1.000000000000000082E-05 ), #308, 'distance_accuracy_value', 'NONE');
#145 = VERTEX_POINT ( 'NONE', #19 ) ;
#146 = DIRECTION ( 'NONE',  ( 1.000000000000000000, 0.000000000000000000, 0.000000000000000000 ) ) ;
#147 = VECTOR ( 'NONE', #179, 1000.000000000000000 ) ;
#148 = ORIENTED_EDGE ( 'NONE', *, *, #282, .T. ) ;
#149 = FACE_OUTER_BOUND ( 'NONE', #451, .T. ) ;
#150 = ADVANCED_FACE ( 'NONE', ( #241 ), #691, .F. ) ;
#151 = VECTOR ( 'NONE', #305, 1000.000000000000000 ) ;
#152 = CARTESIAN_POINT ( 'NONE',  ( 6.123233995736765296E-16, -35.00000000000000000, -38.99999999999997868 ) ) ;
#153 = ORIENTED_EDGE ( 'NONE', *, *, #554, .T. ) ;
#154 = DIRECTION ( 'NONE',  ( -1.000000000000000000, -0.000000000000000000, -0.000000000000000000 ) ) ;
#155 =( LENGTH_UNIT ( ) NAMED_UNIT ( * ) SI_UNIT ( .MILLI., .METRE. ) );
#156 = EDGE_CURVE ( 'NONE', #111, #661, #131, .T. ) ;
#157 = ORIENTED_EDGE ( 'NONE', *, *, #228, .T. ) ;
#158 = DIRECTION ( 'NONE',  ( -0.000000000000000000, 1.000000000000000000, -0.000000000000000000 ) ) ;
#159 = VERTEX_POINT ( 'NONE', #532 ) ;
#160 = LINE ( 'NONE', #109, #455 ) ;
#161 = EDGE_CURVE ( 'NONE', #328, #111, #25, .T. ) ;
#162 = ORIENTED_EDGE ( 'NONE', *, *, #700, .F. ) ;
#163 = AXIS2_PLACEMENT_3D ( 'NONE', #664, #334, #724 ) ;
#164 = ORIENTED_EDGE ( 'NONE', *, *, #566, .F. ) ;
#165 = DIRECTION ( 'NONE',  ( -1.000000000000000000, 0.000000000000000000, 3.154042683594198079E-16 ) ) ;
#166 = EDGE_CURVE ( 'NONE', #714, #367, #245, .T. ) ;
#167 = CARTESIAN_POINT ( 'NONE',  ( 89.00000000000001421, 0.000000000000000000, -1.324697927109562513E-14 ) ) ;
#168 = ORIENTED_EDGE ( 'NONE', *, *, #161, .F. ) ;
#169 = ORIENTED_EDGE ( 'NONE', *, *, #719, .T. ) ;
#170 = EDGE_CURVE ( 'NONE', #481, #661, #688, .T. ) ;
#171 = AXIS2_PLACEMENT_3D ( 'NONE', #345, #569, #468 ) ;
#172 = VECTOR ( 'NONE', #525, 1000.000000000000000 ) ;
#173 = ORIENTED_EDGE ( 'NONE', *, *, #369, .T. ) ;
#174 = CARTESIAN_POINT ( 'NONE',  ( 5.000000000000000000, 0.000000000000000000, 0.000000000000000000 ) ) ;
#175 = DIRECTION ( 'NONE',  ( 1.734723475976805615E-16, 0.000000000000000000, 1.000000000000000000 ) ) ;
#176 = CARTESIAN_POINT ( 'NONE',  ( 94.00000000000000000, 20.00000000000000000, 0.000000000000000000 ) ) ;
#177 = ADVANCED_FACE ( 'NONE', ( #422, #646 ), #292, .F. ) ;
#178 = ORIENTED_EDGE ( 'NONE', *, *, #706, .F. ) ;
#179 = DIRECTION ( 'NONE',  ( 1.192622389734054877E-16, 0.000000000000000000, 1.000000000000000000 ) ) ;
#180 = EDGE_CURVE ( 'NONE', #45, #74, #593, .T. ) ;
#181 = ORIENTED_EDGE ( 'NONE', *, *, #228, .F. ) ;
#182 = VECTOR ( 'NONE', #324, 1000.000000000000000 ) ;
#183 = VECTOR ( 'NONE', #586, 1000.000000000000000 ) ;
#184 = LINE ( 'NONE', #639, #449 ) ;
#185 = DIRECTION ( 'NONE',  ( 0.000000000000000000, 0.000000000000000000, -1.000000000000000000 ) ) ;
#186 = ORIENTED_EDGE ( 'NONE', *, *, #17, .T. ) ;
#187 = LINE ( 'NONE', #686, #454 ) ;
#188 = DIRECTION ( 'NONE',  ( 0.000000000000000000, -1.000000000000000000, 0.000000000000000000 ) ) ;
#189 = ORIENTED_EDGE ( 'NONE', *, *, #369, .F. ) ;
#190 = DIRECTION ( 'NONE',  ( 0.000000000000000000, -0.000000000000000000, -1.000000000000000000 ) ) ;
#191 = ORIENTED_EDGE ( 'NONE', *, *, #572, .T. ) ;
#192 = DIRECTION ( 'NONE',  ( -0.000000000000000000, 0.000000000000000000, 1.000000000000000000 ) ) ;
#193 = CARTESIAN_POINT ( 'NONE',  ( 5.000000000000000000, -35.00000000000000000, 0.000000000000000000 ) ) ;
#194 = VECTOR ( 'NONE', #130, 1000.000000000000000 ) ;
#195 = AXIS2_PLACEMENT_3D ( 'NONE', #487, #483, #209 ) ;
#196 = ORIENTED_EDGE ( 'NONE', *, *, #448, .T. ) ;
#197 = LINE ( 'NONE', #363, #507 ) ;
#198 = VERTEX_POINT ( 'NONE', #76 ) ;
#199 = FILL_AREA_STYLE ('',( #35 ) ) ;
#200 = CARTESIAN_POINT ( 'NONE',  ( 5.000000000000000888, -35.00000000000000000, -5.000000000000000000 ) ) ;
#201 = VERTEX_POINT ( 'NONE', #251 ) ;
#202 = LINE ( 'NONE', #601, #274 ) ;
#203 = EDGE_LOOP ( 'NONE', ( #186, #164, #231, #157 ) ) ;
#204 = DIRECTION ( 'NONE',  ( -0.000000000000000000, 1.000000000000000000, -0.000000000000000000 ) ) ;
#205 = VECTOR ( 'NONE', #154, 1000.000000000000000 ) ;
#206 = EDGE_CURVE ( 'NONE', #297, #490, #416, .T. ) ;
#207 = ORIENTED_EDGE ( 'NONE', *, *, #439, .T. ) ;
#208 = CARTESIAN_POINT ( 'NONE',  ( 89.00000000000000000, -35.00000000000000000, -5.000000000000014211 ) ) ;
#209 = DIRECTION ( 'NONE',  ( 1.000000000000000000, 0.000000000000000000, 0.000000000000000000 ) ) ;
#210 = ADVANCED_FACE ( 'NONE', ( #238 ), #643, .T. ) ;
#211 = DIRECTION ( 'NONE',  ( 0.000000000000000000, -0.000000000000000000, -1.000000000000000000 ) ) ;
#212 = DIRECTION ( 'NONE',  ( -1.000000000000000000, 0.000000000000000000, -1.734723475976807094E-16 ) ) ;
#213 = APPLICATION_PROTOCOL_DEFINITION ( 'draft international standard', 'automotive_design', 1998, #476 ) ;
#214 = EDGE_CURVE ( 'NONE', #508, #721, #134, .T. ) ;
#215 = ORIENTED_EDGE ( 'NONE', *, *, #725, .T. ) ;
#216 = CARTESIAN_POINT ( 'NONE',  ( 94.00000000000000000, 20.00000000000000000, 0.000000000000000000 ) ) ;
#217 = AXIS2_PLACEMENT_3D ( 'NONE', #10, #460, #511 ) ;
#218 = ORIENTED_EDGE ( 'NONE', *, *, #654, .T. ) ;
#219 = EDGE_LOOP ( 'NONE', ( #153, #261, #352, #304, #118, #671, #356, #281 ) ) ;
#220 = EDGE_CURVE ( 'NONE', #279, #201, #187, .T. ) ;
#221 = ORIENTED_EDGE ( 'NONE', *, *, #107, .T. ) ;
#222 = VERTEX_POINT ( 'NONE', #364 ) ;
#223 = ORIENTED_EDGE ( 'NONE', *, *, #311, .T. ) ;
#224 = VECTOR ( 'NONE', #645, 1000.000000000000000 ) ;
#225 = EDGE_CURVE ( 'NONE', #66, #242, #309, .T. ) ;
#226 = PLANE ( 'NONE',  #703 ) ;
#227 = EDGE_LOOP ( 'NONE', ( #59, #552, #562, #385 ) ) ;
#228 = EDGE_CURVE ( 'NONE', #367, #681, #426, .T. ) ;
#229 = DIRECTION ( 'NONE',  ( -0.000000000000000000, 1.000000000000000000, -0.000000000000000000 ) ) ;
#230 = ADVANCED_FACE ( 'NONE', ( #634 ), #538, .T. ) ;
#231 = ORIENTED_EDGE ( 'NONE', *, *, #499, .F. ) ;
#232 = FACE_OUTER_BOUND ( 'NONE', #637, .T. ) ;
#233 = DIRECTION ( 'NONE',  ( 2.775557561562888984E-15, -0.000000000000000000, -1.000000000000000000 ) ) ;
#234 = PRODUCT_DEFINITION_CONTEXT ( 'detailed design', #720, 'design' ) ;
#235 = DIRECTION ( 'NONE',  ( 0.000000000000000000, -1.000000000000000000, 0.000000000000000000 ) ) ;
#236 = EDGE_LOOP ( 'NONE', ( #672, #564, #189, #34, #207, #191, #61, #223 ) ) ;
#237 = DIRECTION ( 'NONE',  ( -1.000000000000000000, 0.000000000000000000, 1.734723475976805615E-16 ) ) ;
#238 = FACE_OUTER_BOUND ( 'NONE', #236, .T. ) ;
#239 = VECTOR ( 'NONE', #283, 1000.000000000000000 ) ;
#240 = AXIS2_PLACEMENT_3D ( 'NONE', #670, #52, #491 ) ;
#241 = FACE_OUTER_BOUND ( 'NONE', #657, .T. ) ;
#242 = VERTEX_POINT ( 'NONE', #14 ) ;
#243 = CARTESIAN_POINT ( 'NONE',  ( 92.00000000000000000, 1.000000000000000888, -41.99999999999997868 ) ) ;
#244 = DIRECTION ( 'NONE',  ( -0.000000000000000000, 1.000000000000000000, -0.000000000000000000 ) ) ;
#245 = LINE ( 'NONE', #461, #378 ) ;
#246 = EDGE_CURVE ( 'NONE', #336, #539, #120, .T. ) ;
#247 = ORIENTED_EDGE ( 'NONE', *, *, #50, .T. ) ;
#248 = CARTESIAN_POINT ( 'NONE',  ( 94.00000000000000000, -35.00000000000000000, -5.000000000000015987 ) ) ;
#249 = ORIENTED_EDGE ( 'NONE', *, *, #644, .T. ) ;
#250 = DIRECTION ( 'NONE',  ( -0.000000000000000000, 1.000000000000000000, -0.000000000000000000 ) ) ;
#251 = CARTESIAN_POINT ( 'NONE',  ( 89.00000000000000000, -35.00000000000000000, -5.000000000000014211 ) ) ;
#252 = VECTOR ( 'NONE', #28, 1000.000000000000000 ) ;
#253 = LINE ( 'NONE', #77, #563 ) ;
#254 = EDGE_CURVE ( 'NONE', #198, #45, #551, .T. ) ;
#255 = VECTOR ( 'NONE', #271, 1000.000000000000000 ) ;
#256 = ORIENTED_EDGE ( 'NONE', *, *, #170, .F. ) ;
#257 = DIRECTION ( 'NONE',  ( -0.000000000000000000, 1.000000000000000000, -0.000000000000000000 ) ) ;
#258 = ORIENTED_EDGE ( 'NONE', *, *, #443, .F. ) ;
#259 = PRESENTATION_STYLE_ASSIGNMENT (( #712 ) ) ;
#260 = LINE ( 'NONE', #488, #504 ) ;
#261 = ORIENTED_EDGE ( 'NONE', *, *, #50, .F. ) ;
#262 = DIRECTION ( 'NONE',  ( -3.154042683594196107E-16, 0.000000000000000000, -1.000000000000000000 ) ) ;
#263 = VECTOR ( 'NONE', #501, 1000.000000000000000 ) ;
#264 = ORIENTED_EDGE ( 'NONE', *, *, #692, .T. ) ;
#265 = CARTESIAN_POINT ( 'NONE',  ( 2.000000000000005329, 1.000000000000000888, -1.999999999999980904 ) ) ;
#266 = VECTOR ( 'NONE', #158, 1000.000000000000000 ) ;
#267 = CARTESIAN_POINT ( 'NONE',  ( 6.123233995736765296E-16, 0.000000000000000000, -5.000000000000000000 ) ) ;
#268 = PLANE ( 'NONE',  #555 ) ;
#269 = EDGE_CURVE ( 'NONE', #415, #336, #377, .T. ) ;
#270 = CARTESIAN_POINT ( 'NONE',  ( 0.000000000000000000, -35.00000000000000000, 0.000000000000000000 ) ) ;
#271 = DIRECTION ( 'NONE',  ( -0.000000000000000000, -1.000000000000000000, -0.000000000000000000 ) ) ;
#272 = FACE_OUTER_BOUND ( 'NONE', #227, .T. ) ;
#273 = DIRECTION ( 'NONE',  ( -0.000000000000000000, -0.000000000000000000, 1.000000000000000000 ) ) ;
#274 = VECTOR ( 'NONE', #434, 1000.000000000000000 ) ;
#275 = CARTESIAN_POINT ( 'NONE',  ( 92.00000000000000000, 1.000000000000000888, -41.99999999999997868 ) ) ;
#276 = VECTOR ( 'NONE', #133, 1000.000000000000000 ) ;
#277 = EDGE_CURVE ( 'NONE', #681, #408, #143, .T. ) ;
#278 = ORIENTED_EDGE ( 'NONE', *, *, #518, .T. ) ;
#279 = VERTEX_POINT ( 'NONE', #597 ) ;
#280 = DIRECTION ( 'NONE',  ( -1.734723475976807094E-16, -0.000000000000000000, 1.000000000000000000 ) ) ;
#281 = ORIENTED_EDGE ( 'NONE', *, *, #675, .F. ) ;
#282 = EDGE_CURVE ( 'NONE', #717, #342, #260, .T. ) ;
#283 = DIRECTION ( 'NONE',  ( -1.224646799147351975E-16, -0.000000000000000000, -1.000000000000000000 ) ) ;
#284 = CARTESIAN_POINT ( 'NONE',  ( 5.000000000000000000, -35.00000000000000000, -43.99999999999998579 ) ) ;
#285 = AXIS2_PLACEMENT_3D ( 'NONE', #3, #623, #444 ) ;
#286 = EDGE_CURVE ( 'NONE', #428, #328, #40, .T. ) ;
#287 = EDGE_CURVE ( 'NONE', #707, #38, #37, .T. ) ;
#288 = PLANE ( 'NONE',  #337 ) ;
#289 = CARTESIAN_POINT ( 'NONE',  ( 5.000000000000000888, -35.00000000000000000, -38.99999999999997868 ) ) ;
#290 = ORIENTED_EDGE ( 'NONE', *, *, #282, .F. ) ;
#291 = CARTESIAN_POINT ( 'NONE',  ( 6.123233995736765296E-16, -35.00000000000000000, -38.99999999999997868 ) ) ;
#292 = PLANE ( 'NONE',  #101 ) ;
#293 = LINE ( 'NONE', #174, #716 ) ;
#294 = VERTEX_POINT ( 'NONE', #704 ) ;
#295 = DIRECTION ( 'NONE',  ( -1.000000000000000000, 0.000000000000000000, -0.000000000000000000 ) ) ;
#296 = FACE_OUTER_BOUND ( 'NONE', #494, .T. ) ;
#297 = VERTEX_POINT ( 'NONE', #200 ) ;
#298 = LINE ( 'NONE', #27, #705 ) ;
#299 = CARTESIAN_POINT ( 'NONE',  ( 2.000000000000000444, 20.00000000000000000, -41.99999999999997868 ) ) ;
#300 = EDGE_CURVE ( 'NONE', #661, #508, #202, .T. ) ;
#301 = VECTOR ( 'NONE', #69, 1000.000000000000000 ) ;
#302 = PRODUCT_DEFINITION_SHAPE ( 'NONE', 'NONE',  #457 ) ;
#303 = PLANE ( 'NONE',  #399 ) ;
#304 = ORIENTED_EDGE ( 'NONE', *, *, #254, .T. ) ;
#305 = DIRECTION ( 'NONE',  ( -1.000000000000000000, 0.000000000000000000, 1.387778780781444492E-15 ) ) ;
#306 = CARTESIAN_POINT ( 'NONE',  ( -8.673617379884035472E-15, 20.00000000000000000, -43.99999999999998579 ) ) ;
#307 = ORIENTED_EDGE ( 'NONE', *, *, #496, .T. ) ;
#308 =( LENGTH_UNIT ( ) NAMED_UNIT ( * ) SI_UNIT ( .MILLI., .METRE. ) );
#309 = LINE ( 'NONE', #306, #667 ) ;
#310 = ADVANCED_FACE ( 'NONE', ( #92 ), #659, .F. ) ;
#311 = EDGE_CURVE ( 'NONE', #38, #539, #354, .T. ) ;
#312 = ADVANCED_BREP_SHAPE_REPRESENTATION ( '\X2\75356c6076d2\X0\', ( #544, #195 ), #515 ) ;
#313 = ORIENTED_EDGE ( 'NONE', *, *, #654, .F. ) ;
#314 = DIRECTION ( 'NONE',  ( 0.000000000000000000, 0.000000000000000000, 1.000000000000000000 ) ) ;
#315 = CARTESIAN_POINT ( 'NONE',  ( 0.000000000000000000, 0.000000000000000000, 0.000000000000000000 ) ) ;
#316 = EDGE_CURVE ( 'NONE', #655, #539, #253, .T. ) ;
#317 = VECTOR ( 'NONE', #381, 1000.000000000000000 ) ;
#318 = ORIENTED_EDGE ( 'NONE', *, *, #719, .F. ) ;
#319 = CARTESIAN_POINT ( 'NONE',  ( 0.000000000000000000, -35.00000000000000000, 0.000000000000000000 ) ) ;
#320 =( NAMED_UNIT ( * ) SI_UNIT ( $, .STERADIAN. ) SOLID_ANGLE_UNIT ( ) );
#321 = DIRECTION ( 'NONE',  ( 0.000000000000000000, 0.000000000000000000, -1.000000000000000000 ) ) ;
#322 = EDGE_LOOP ( 'NONE', ( #397, #83, #524, #6 ) ) ;
#323 = CARTESIAN_POINT ( 'NONE',  ( 5.000000000000000000, -35.00000000000000000, 0.000000000000000000 ) ) ;
#324 = DIRECTION ( 'NONE',  ( 2.775557561562888984E-15, -0.000000000000000000, -1.000000000000000000 ) ) ;
#325 = ORIENTED_EDGE ( 'NONE', *, *, #49, .F. ) ;
#326 = CARTESIAN_POINT ( 'NONE',  ( 5.000000000000000000, 0.000000000000000000, -43.99999999999998579 ) ) ;
#327 = VECTOR ( 'NONE', #580, 1000.000000000000000 ) ;
#328 = VERTEX_POINT ( 'NONE', #480 ) ;
#329 = LINE ( 'NONE', #323, #2 ) ;
#330 =( GEOMETRIC_REPRESENTATION_CONTEXT ( 3 ) GLOBAL_UNCERTAINTY_ASSIGNED_CONTEXT ( ( #144 ) ) GLOBAL_UNIT_ASSIGNED_CONTEXT ( ( #308, #596, #540 ) ) REPRESENTATION_CONTEXT ( 'NONE', 'WORKASPACE' ) );
#331 = LINE ( 'NONE', #622, #589 ) ;
#332 = CARTESIAN_POINT ( 'NONE',  ( 0.000000000000000000, -35.00000000000000000, 0.000000000000000000 ) ) ;
#333 = ORIENTED_EDGE ( 'NONE', *, *, #180, .T. ) ;
#334 = DIRECTION ( 'NONE',  ( -1.387778780781444492E-15, 0.000000000000000000, -1.000000000000000000 ) ) ;
#335 = ORIENTED_EDGE ( 'NONE', *, *, #374, .T. ) ;
#336 = VERTEX_POINT ( 'NONE', #526 ) ;
#337 = AXIS2_PLACEMENT_3D ( 'NONE', #361, #136, #117 ) ;
#338 = VECTOR ( 'NONE', #94, 1000.000000000000000 ) ;
#339 = PLANE ( 'NONE',  #427 ) ;
#340 = PLANE ( 'NONE',  #285 ) ;
#341 = CARTESIAN_POINT ( 'NONE',  ( -7.687979041260849910E-15, 0.000000000000000000, -38.99999999999997868 ) ) ;
#342 = VERTEX_POINT ( 'NONE', #18 ) ;
#343 = EDGE_CURVE ( 'NONE', #74, #222, #24, .T. ) ;
#344 = DIRECTION ( 'NONE',  ( -1.000000000000000000, 0.000000000000000000, 1.971276677246372752E-16 ) ) ;
#345 = CARTESIAN_POINT ( 'NONE',  ( 89.00000000000001421, -35.00000000000000000, -1.324697927109562513E-14 ) ) ;
#346 = ORIENTED_EDGE ( 'NONE', *, *, #700, .T. ) ;
#347 = CARTESIAN_POINT ( 'NONE',  ( 93.99999999999998579, 0.000000000000000000, -38.99999999999996447 ) ) ;
#348 = CARTESIAN_POINT ( 'NONE',  ( 89.00000000000001421, 0.000000000000000000, -43.99999999999997158 ) ) ;
#349 = AXIS2_PLACEMENT_3D ( 'NONE', #546, #75, #648 ) ;
#350 = LINE ( 'NONE', #579, #301 ) ;
#351 = CARTESIAN_POINT ( 'NONE',  ( 92.00000000000000000, 1.000000000000000888, -41.99999999999997868 ) ) ;
#352 = ORIENTED_EDGE ( 'NONE', *, *, #598, .T. ) ;
#353 = CARTESIAN_POINT ( 'NONE',  ( 2.000000000000005329, 1.000000000000000888, -1.999999999999980904 ) ) ;
#354 = LINE ( 'NONE', #412, #687 ) ;
#355 = CARTESIAN_POINT ( 'NONE',  ( 2.000000000000000444, 1.000000000000000888, -41.99999999999997868 ) ) ;
#356 = ORIENTED_EDGE ( 'NONE', *, *, #448, .F. ) ;
#357 = CARTESIAN_POINT ( 'NONE',  ( 94.00000000000000000, -35.00000000000000000, -1.482400061289271919E-14 ) ) ;
#358 = EDGE_CURVE ( 'NONE', #38, #93, #184, .T. ) ;
#359 = UNCERTAINTY_MEASURE_WITH_UNIT (LENGTH_MEASURE( 1.000000000000000082E-05 ), #155, 'distance_accuracy_value', 'NONE');
#360 = DIRECTION ( 'NONE',  ( 1.000000000000000000, -0.000000000000000000, -0.000000000000000000 ) ) ;
#361 = CARTESIAN_POINT ( 'NONE',  ( 2.000000000000005329, 1.000000000000000888, -1.999999999999980904 ) ) ;
#362 = VERTEX_POINT ( 'NONE', #475 ) ;
#363 = CARTESIAN_POINT ( 'NONE',  ( 6.123233995736765296E-16, -35.00000000000000000, -5.000000000000000000 ) ) ;
#364 = CARTESIAN_POINT ( 'NONE',  ( 94.00000000000000000, 0.000000000000000000, -5.000000000000015987 ) ) ;
#365 = VECTOR ( 'NONE', #23, 1000.000000000000000 ) ;
#366 = STYLED_ITEM ( 'NONE', ( #259 ), #544 ) ;
#367 = VERTEX_POINT ( 'NONE', #695 ) ;
#368 = CARTESIAN_POINT ( 'NONE',  ( 94.00000000000000000, 20.00000000000000000, 0.000000000000000000 ) ) ;
#369 = EDGE_CURVE ( 'NONE', #242, #591, #421, .T. ) ;
#370 = CARTESIAN_POINT ( 'NONE',  ( 0.000000000000000000, -35.00000000000000000, -43.99999999999998579 ) ) ;
#371 = VERTEX_POINT ( 'NONE', #536 ) ;
#372 = SURFACE_STYLE_FILL_AREA ( #199 ) ;
#373 = ADVANCED_FACE ( 'NONE', ( #651 ), #139, .F. ) ;
#374 = EDGE_CURVE ( 'NONE', #655, #342, #350, .T. ) ;
#375 = EDGE_LOOP ( 'NONE', ( #218, #168, #537, #264 ) ) ;
#376 =( NAMED_UNIT ( * ) PLANE_ANGLE_UNIT ( ) SI_UNIT ( $, .RADIAN. ) );
#377 = LINE ( 'NONE', #547, #1 ) ;
#378 = VECTOR ( 'NONE', #683, 1000.000000000000000 ) ;
#379 = EDGE_LOOP ( 'NONE', ( #419, #128, #313, #599 ) ) ;
#380 = LINE ( 'NONE', #605, #338 ) ;
#381 = DIRECTION ( 'NONE',  ( 1.000000000000000000, 0.000000000000000000, 0.000000000000000000 ) ) ;
#382 = ORIENTED_EDGE ( 'NONE', *, *, #246, .F. ) ;
#383 = CARTESIAN_POINT ( 'NONE',  ( 92.00000000000000000, 20.00000000000000000, -41.99999999999997868 ) ) ;
#384 = ADVANCED_FACE ( 'NONE', ( #674 ), #339, .T. ) ;
#385 = ORIENTED_EDGE ( 'NONE', *, *, #706, .T. ) ;
#386 = LINE ( 'NONE', #216, #20 ) ;
#387 = VECTOR ( 'NONE', #471, 1000.000000000000000 ) ;
#388 = ORIENTED_EDGE ( 'NONE', *, *, #277, .T. ) ;
#389 = DIRECTION ( 'NONE',  ( -1.000000000000000000, -0.000000000000000000, -0.000000000000000000 ) ) ;
#390 = VECTOR ( 'NONE', #250, 1000.000000000000000 ) ;
#391 = ADVANCED_FACE ( 'NONE', ( #570 ), #456, .F. ) ;
#392 = ADVANCED_FACE ( 'NONE', ( #516 ), #401, .F. ) ;
#393 = ORIENTED_EDGE ( 'NONE', *, *, #107, .F. ) ;
#394 = CARTESIAN_POINT ( 'NONE',  ( 0.000000000000000000, -35.00000000000000000, 0.000000000000000000 ) ) ;
#395 = ORIENTED_EDGE ( 'NONE', *, *, #598, .F. ) ;
#396 = LINE ( 'NONE', #618, #112 ) ;
#397 = ORIENTED_EDGE ( 'NONE', *, *, #246, .T. ) ;
#398 = DIRECTION ( 'NONE',  ( -1.000000000000000000, -0.000000000000000000, -0.000000000000000000 ) ) ;
#399 = AXIS2_PLACEMENT_3D ( 'NONE', #65, #413, #127 ) ;
#400 = CARTESIAN_POINT ( 'NONE',  ( 94.00000000000000000, -35.00000000000000000, -38.99999999999997158 ) ) ;
#401 = PLANE ( 'NONE',  #217 ) ;
#402 = DIRECTION ( 'NONE',  ( -1.000000000000000000, 0.000000000000000000, 3.154042683594196107E-16 ) ) ;
#403 = ORIENTED_EDGE ( 'NONE', *, *, #566, .T. ) ;
#404 = CARTESIAN_POINT ( 'NONE',  ( 89.00000000000000000, -35.00000000000000000, -38.99999999999996447 ) ) ;
#405 = DIRECTION ( 'NONE',  ( -0.000000000000000000, 1.000000000000000000, -0.000000000000000000 ) ) ;
#406 = DIRECTION ( 'NONE',  ( 1.000000000000000000, 0.000000000000000000, 2.775557561562888984E-15 ) ) ;
#407 = CARTESIAN_POINT ( 'NONE',  ( 0.000000000000000000, -35.00000000000000000, 0.000000000000000000 ) ) ;
#408 = VERTEX_POINT ( 'NONE', #341 ) ;
#409 = DIRECTION ( 'NONE',  ( 0.000000000000000000, 0.000000000000000000, -1.000000000000000000 ) ) ;
#410 = DIRECTION ( 'NONE',  ( 0.000000000000000000, -0.000000000000000000, 1.000000000000000000 ) ) ;
#411 = VECTOR ( 'NONE', #484, 1000.000000000000000 ) ;
#412 = CARTESIAN_POINT ( 'NONE',  ( 89.00000000000001421, -35.00000000000000000, -43.99999999999997158 ) ) ;
#413 = DIRECTION ( 'NONE',  ( -1.000000000000000000, 0.000000000000000000, 1.192622389734054877E-16 ) ) ;
#414 = EDGE_CURVE ( 'NONE', #707, #336, #682, .T. ) ;
#415 = VERTEX_POINT ( 'NONE', #347 ) ;
#416 = LINE ( 'NONE', #193, #194 ) ;
#417 = DIRECTION ( 'NONE',  ( 1.000000000000000000, -0.000000000000000000, -3.469446951953611231E-16 ) ) ;
#418 = DIRECTION ( 'NONE',  ( 3.154042683594196107E-16, 0.000000000000000000, 1.000000000000000000 ) ) ;
#419 = ORIENTED_EDGE ( 'NONE', *, *, #300, .F. ) ;
#420 = CARTESIAN_POINT ( 'NONE',  ( 94.00000000000000000, -35.00000000000000000, -38.99999999999997158 ) ) ;
#421 = LINE ( 'NONE', #370, #224 ) ;
#422 = FACE_BOUND ( 'NONE', #379, .T. ) ;
#423 = EDGE_CURVE ( 'NONE', #717, #30, #521, .T. ) ;
#424 = ORIENTED_EDGE ( 'NONE', *, *, #414, .F. ) ;
#425 = CARTESIAN_POINT ( 'NONE',  ( 94.00000000000000000, -35.00000000000000000, -43.99999999999997158 ) ) ;
#426 = LINE ( 'NONE', #535, #542 ) ;
#427 = AXIS2_PLACEMENT_3D ( 'NONE', #67, #344, #60 ) ;
#428 = VERTEX_POINT ( 'NONE', #353 ) ;
#429 = CARTESIAN_POINT ( 'NONE',  ( 0.000000000000000000, 20.00000000000000000, 0.000000000000000000 ) ) ;
#430 = ADVANCED_FACE ( 'NONE', ( #232 ), #463, .F. ) ;
#431 = ORIENTED_EDGE ( 'NONE', *, *, #644, .F. ) ;
#432 = ORIENTED_EDGE ( 'NONE', *, *, #675, .T. ) ;
#433 = CARTESIAN_POINT ( 'NONE',  ( 5.000000000000000000, -35.00000000000000000, 0.000000000000000000 ) ) ;
#434 = DIRECTION ( 'NONE',  ( -1.000000000000000000, -0.000000000000000000, -0.000000000000000000 ) ) ;
#435 = AXIS2_PLACEMENT_3D ( 'NONE', #270, #505, #211 ) ;
#436 = AXIS2_PLACEMENT_3D ( 'NONE', #685, #409, #126 ) ;
#437 = ORIENTED_EDGE ( 'NONE', *, *, #206, .F. ) ;
#438 = LINE ( 'NONE', #42, #205 ) ;
#439 = EDGE_CURVE ( 'NONE', #66, #294, #582, .T. ) ;
#440 = ORIENTED_EDGE ( 'NONE', *, *, #316, .T. ) ;
#441 = CARTESIAN_POINT ( 'NONE',  ( 94.00000000000000000, -35.00000000000000000, -1.482400061289271919E-14 ) ) ;
#442 = SHAPE_DEFINITION_REPRESENTATION ( #302, #312 ) ;
#443 = EDGE_CURVE ( 'NONE', #477, #707, #702, .T. ) ;
#444 = DIRECTION ( 'NONE',  ( 1.000000000000000000, 0.000000000000000000, -3.469446951953611231E-16 ) ) ;
#445 = DIRECTION ( 'NONE',  ( -0.000000000000000000, 1.000000000000000000, -0.000000000000000000 ) ) ;
#446 = ORIENTED_EDGE ( 'NONE', *, *, #554, .F. ) ;
#447 = CARTESIAN_POINT ( 'NONE',  ( 93.99999999999998579, 20.00000000000000000, -43.99999999999998579 ) ) ;
#448 = EDGE_CURVE ( 'NONE', #371, #469, #592, .T. ) ;
#449 = VECTOR ( 'NONE', #360, 1000.000000000000000 ) ;
#450 = EDGE_LOOP ( 'NONE', ( #335, #290, #87, #307 ) ) ;
#451 = EDGE_LOOP ( 'NONE', ( #565, #693, #58, #576 ) ) ;
#452 = CARTESIAN_POINT ( 'NONE',  ( 6.123233995736765296E-16, -35.00000000000000000, -38.99999999999997868 ) ) ;
#453 = CARTESIAN_POINT ( 'NONE',  ( 0.000000000000000000, -35.00000000000000000, 0.000000000000000000 ) ) ;
#454 = VECTOR ( 'NONE', #474, 1000.000000000000000 ) ;
#455 = VECTOR ( 'NONE', #561, 1000.000000000000000 ) ;
#456 = PLANE ( 'NONE',  #79 ) ;
#457 = PRODUCT_DEFINITION ( 'æœ', '', #612, #234 ) ;
#458 = CARTESIAN_POINT ( 'NONE',  ( 89.00000000000000000, 0.000000000000000000, -5.000000000000014211 ) ) ;
#459 = ORIENTED_EDGE ( 'NONE', *, *, #53, .T. ) ;
#460 = DIRECTION ( 'NONE',  ( 1.000000000000000000, 0.000000000000000000, -0.000000000000000000 ) ) ;
#461 = CARTESIAN_POINT ( 'NONE',  ( 0.000000000000000000, -35.00000000000000000, 0.000000000000000000 ) ) ;
#462 = EDGE_LOOP ( 'NONE', ( #169, #395, #437, #403 ) ) ;
#463 = PLANE ( 'NONE',  #436 ) ;
#464 = LINE ( 'NONE', #630, #36 ) ;
#465 = ORIENTED_EDGE ( 'NONE', *, *, #166, .F. ) ;
#466 = DIRECTION ( 'NONE',  ( 0.000000000000000000, 0.000000000000000000, -1.000000000000000000 ) ) ;
#467 = COLOUR_RGB ( '',0.7921568627450980005, 0.8196078431372548767, 0.9333333333333333481 ) ;
#468 = DIRECTION ( 'NONE',  ( -2.775557561562891351E-15, 0.000000000000000000, -1.000000000000000000 ) ) ;
#469 = VERTEX_POINT ( 'NONE', #357 ) ;
#470 = CARTESIAN_POINT ( 'NONE',  ( 94.00000000000000000, 0.000000000000000000, -5.000000000000015987 ) ) ;
#471 = DIRECTION ( 'NONE',  ( -0.000000000000000000, 1.000000000000000000, -0.000000000000000000 ) ) ;
#472 = ORIENTED_EDGE ( 'NONE', *, *, #225, .T. ) ;
#473 = LINE ( 'NONE', #425, #493 ) ;
#474 = DIRECTION ( 'NONE',  ( -2.775557561562890957E-15, 0.000000000000000000, -1.000000000000000000 ) ) ;
#475 = CARTESIAN_POINT ( 'NONE',  ( 2.000000000000000444, 1.000000000000000888, -41.99999999999997868 ) ) ;
#476 = APPLICATION_CONTEXT ( 'automotive_design' ) ;
#477 = VERTEX_POINT ( 'NONE', #420 ) ;
#478 = LINE ( 'NONE', #642, #603 ) ;
#479 = AXIS2_PLACEMENT_3D ( 'NONE', #530, #466, #68 ) ;
#480 = CARTESIAN_POINT ( 'NONE',  ( 92.00000000000000000, 1.000000000000000888, -1.999999999999980904 ) ) ;
#481 = VERTEX_POINT ( 'NONE', #243 ) ;
#482 = PLANE ( 'NONE',  #632 ) ;
#483 = DIRECTION ( 'NONE',  ( 0.000000000000000000, 0.000000000000000000, 1.000000000000000000 ) ) ;
#484 = DIRECTION ( 'NONE',  ( -1.971276677246372505E-16, 0.000000000000000000, -1.000000000000000000 ) ) ;
#485 = ORIENTED_EDGE ( 'NONE', *, *, #82, .T. ) ;
#486 = LINE ( 'NONE', #248, #390 ) ;
#487 = CARTESIAN_POINT ( 'NONE',  ( 0.000000000000000000, 0.000000000000000000, 0.000000000000000000 ) ) ;
#488 = CARTESIAN_POINT ( 'NONE',  ( 5.000000000000000888, -35.00000000000000000, -38.99999999999997868 ) ) ;
#489 = EDGE_CURVE ( 'NONE', #30, #408, #478, .T. ) ;
#490 = VERTEX_POINT ( 'NONE', #141 ) ;
#491 = DIRECTION ( 'NONE',  ( -1.000000000000000000, 0.000000000000000000, -0.000000000000000000 ) ) ;
#492 = AXIS2_PLACEMENT_3D ( 'NONE', #407, #188, #190 ) ;
#493 = VECTOR ( 'NONE', #314, 1000.000000000000000 ) ;
#494 = EDGE_LOOP ( 'NONE', ( #196, #162, #608, #558, #604, #627, #684, #431 ) ) ;
#495 = CARTESIAN_POINT ( 'NONE',  ( 94.00000000000000000, -35.00000000000000000, -1.482400061289271919E-14 ) ) ;
#496 = EDGE_CURVE ( 'NONE', #591, #655, #298, .T. ) ;
#497 = LINE ( 'NONE', #400, #122 ) ;
#498 = DIRECTION ( 'NONE',  ( -0.000000000000000000, -1.000000000000000000, -0.000000000000000000 ) ) ;
#499 = EDGE_CURVE ( 'NONE', #367, #297, #197, .T. ) ;
#500 = EDGE_CURVE ( 'NONE', #93, #477, #473, .T. ) ;
#501 = DIRECTION ( 'NONE',  ( 1.000000000000000000, 0.000000000000000000, 0.000000000000000000 ) ) ;
#502 = DIRECTION ( 'NONE',  ( 0.000000000000000000, -0.000000000000000000, -1.000000000000000000 ) ) ;
#503 = VECTOR ( 'NONE', #95, 1000.000000000000000 ) ;
#504 = VECTOR ( 'NONE', #713, 1000.000000000000000 ) ;
#505 = DIRECTION ( 'NONE',  ( 0.000000000000000000, -1.000000000000000000, 0.000000000000000000 ) ) ;
#506 = LINE ( 'NONE', #662, #621 ) ;
#507 = VECTOR ( 'NONE', #146, 1000.000000000000000 ) ;
#508 = VERTEX_POINT ( 'NONE', #694 ) ;
#509 = ORIENTED_EDGE ( 'NONE', *, *, #220, .T. ) ;
#510 = ORIENTED_EDGE ( 'NONE', *, *, #214, .T. ) ;
#511 = DIRECTION ( 'NONE',  ( -0.000000000000000000, 0.000000000000000000, -1.000000000000000000 ) ) ;
#512 = ADVANCED_FACE ( 'NONE', ( #588 ), #482, .T. ) ;
#513 = DIRECTION ( 'NONE',  ( 1.000000000000000000, -0.000000000000000000, -3.469446951953611231E-16 ) ) ;
#514 = CARTESIAN_POINT ( 'NONE',  ( 2.000000000000000444, 1.000000000000000888, -41.99999999999997868 ) ) ;
#515 =( GEOMETRIC_REPRESENTATION_CONTEXT ( 3 ) GLOBAL_UNCERTAINTY_ASSIGNED_CONTEXT ( ( #359 ) ) GLOBAL_UNIT_ASSIGNED_CONTEXT ( ( #155, #376, #320 ) ) REPRESENTATION_CONTEXT ( 'NONE', 'WORKASPACE' ) );
#516 = FACE_OUTER_BOUND ( 'NONE', #613, .T. ) ;
#517 = ADVANCED_FACE ( 'NONE', ( #698 ), #84, .T. ) ;
#518 = EDGE_CURVE ( 'NONE', #9, #66, #534, .T. ) ;
#519 = LINE ( 'NONE', #625, #327 ) ;
#520 = ORIENTED_EDGE ( 'NONE', *, *, #692, .F. ) ;
#521 = LINE ( 'NONE', #291, #676 ) ;
#522 = EDGE_CURVE ( 'NONE', #159, #222, #486, .T. ) ;
#523 = FACE_OUTER_BOUND ( 'NONE', #375, .T. ) ;
#524 = ORIENTED_EDGE ( 'NONE', *, *, #287, .F. ) ;
#525 = DIRECTION ( 'NONE',  ( 1.000000000000000000, 0.000000000000000000, 0.000000000000000000 ) ) ;
#526 = CARTESIAN_POINT ( 'NONE',  ( 89.00000000000000000, 0.000000000000000000, -38.99999999999996447 ) ) ;
#527 = LINE ( 'NONE', #514, #183 ) ;
#528 = ORIENTED_EDGE ( 'NONE', *, *, #156, .T. ) ;
#529 = CARTESIAN_POINT ( 'NONE',  ( 6.123233995736765296E-16, -35.00000000000000000, -5.000000000000000000 ) ) ;
#530 = CARTESIAN_POINT ( 'NONE',  ( -8.673617379884035472E-15, 20.00000000000000000, -43.99999999999998579 ) ) ;
#531 = VECTOR ( 'NONE', #445, 1000.000000000000000 ) ;
#532 = CARTESIAN_POINT ( 'NONE',  ( 94.00000000000000000, -35.00000000000000000, -5.000000000000015987 ) ) ;
#533 = ORIENTED_EDGE ( 'NONE', *, *, #423, .F. ) ;
#534 = LINE ( 'NONE', #429, #103 ) ;
#535 = CARTESIAN_POINT ( 'NONE',  ( 6.123233995736765296E-16, -35.00000000000000000, -5.000000000000000000 ) ) ;
#536 = CARTESIAN_POINT ( 'NONE',  ( 94.00000000000000000, 20.00000000000000000, 0.000000000000000000 ) ) ;
#537 = ORIENTED_EDGE ( 'NONE', *, *, #286, .F. ) ;
#538 = PLANE ( 'NONE',  #631 ) ;
#539 = VERTEX_POINT ( 'NONE', #600 ) ;
#540 =( NAMED_UNIT ( * ) SI_UNIT ( $, .STERADIAN. ) SOLID_ANGLE_UNIT ( ) );
#541 = CARTESIAN_POINT ( 'NONE',  ( 2.000000000000005329, 1.000000000000000888, -1.999999999999980904 ) ) ;
#542 = VECTOR ( 'NONE', #405, 1000.000000000000000 ) ;
#543 = PRESENTATION_LAYER_ASSIGNMENT (  '', '', ( #366 ) ) ;
#544 = MANIFOLD_SOLID_BREP ( 'Í¹Ì¨-À­Éì3', #135 ) ;
#545 = ORIENTED_EDGE ( 'NONE', *, *, #269, .T. ) ;
#546 = CARTESIAN_POINT ( 'NONE',  ( 0.000000000000000000, 0.000000000000000000, 0.000000000000000000 ) ) ;
#547 = CARTESIAN_POINT ( 'NONE',  ( 94.00000000000000000, 0.000000000000000000, -38.99999999999997158 ) ) ;
#548 = ADVANCED_FACE ( 'NONE', ( #31 ), #638, .F. ) ;
#549 = ORIENTED_EDGE ( 'NONE', *, *, #82, .F. ) ;
#550 = LINE ( 'NONE', #98, #575 ) ;
#551 = LINE ( 'NONE', #43, #317 ) ;
#552 = ORIENTED_EDGE ( 'NONE', *, *, #522, .F. ) ;
#553 = LINE ( 'NONE', #447, #255 ) ;
#554 = EDGE_CURVE ( 'NONE', #9, #714, #22, .T. ) ;
#555 = AXIS2_PLACEMENT_3D ( 'NONE', #433, #212, #614 ) ;
#556 = ORIENTED_EDGE ( 'NONE', *, *, #489, .F. ) ;
#557 = DIRECTION ( 'NONE',  ( 0.000000000000000000, -1.000000000000000000, 0.000000000000000000 ) ) ;
#558 = ORIENTED_EDGE ( 'NONE', *, *, #49, .T. ) ;
#559 = CARTESIAN_POINT ( 'NONE',  ( 5.000000000000000000, -35.00000000000000000, -43.99999999999998579 ) ) ;
#560 = CARTESIAN_POINT ( 'NONE',  ( 89.00000000000001421, -35.00000000000000000, -43.99999999999997158 ) ) ;
#561 = DIRECTION ( 'NONE',  ( 1.000000000000000000, 0.000000000000000000, 0.000000000000000000 ) ) ;
#562 = ORIENTED_EDGE ( 'NONE', *, *, #53, .F. ) ;
#563 = VECTOR ( 'NONE', #635, 1000.000000000000000 ) ;
#564 = ORIENTED_EDGE ( 'NONE', *, *, #496, .F. ) ;
#565 = ORIENTED_EDGE ( 'NONE', *, *, #500, .T. ) ;
#566 = EDGE_CURVE ( 'NONE', #297, #145, #550, .T. ) ;
#567 = ORIENTED_EDGE ( 'NONE', *, *, #29, .T. ) ;
#568 = ORIENTED_EDGE ( 'NONE', *, *, #343, .F. ) ;
#569 = DIRECTION ( 'NONE',  ( 1.000000000000000000, 0.000000000000000000, -2.775557561562891351E-15 ) ) ;
#570 = FACE_OUTER_BOUND ( 'NONE', #450, .T. ) ;
#571 = CARTESIAN_POINT ( 'NONE',  ( 2.000000000000005329, 20.00000000000000000, -1.999999999999980904 ) ) ;
#572 = EDGE_CURVE ( 'NONE', #294, #93, #553, .T. ) ;
#573 = CARTESIAN_POINT ( 'NONE',  ( 92.00000000000000000, 20.00000000000000000, -1.999999999999980904 ) ) ;
#574 = VECTOR ( 'NONE', #398, 1000.000000000000000 ) ;
#575 = VECTOR ( 'NONE', #204, 1000.000000000000000 ) ;
#576 = ORIENTED_EDGE ( 'NONE', *, *, #358, .T. ) ;
#577 = ADVANCED_FACE ( 'NONE', ( #722 ), #616, .F. ) ;
#578 = EDGE_CURVE ( 'NONE', #469, #279, #100, .T. ) ;
#579 = CARTESIAN_POINT ( 'NONE',  ( 5.000000000000000000, 0.000000000000000000, -43.99999999999998579 ) ) ;
#580 = DIRECTION ( 'NONE',  ( 1.734723475976805615E-16, 0.000000000000000000, 1.000000000000000000 ) ) ;
#581 = EDGE_LOOP ( 'NONE', ( #510, #520, #647, #221 ) ) ;
#582 = LINE ( 'NONE', #72, #172 ) ;
#583 = FACE_OUTER_BOUND ( 'NONE', #125, .T. ) ;
#584 = ORIENTED_EDGE ( 'NONE', *, *, #300, .T. ) ;
#585 = DIRECTION ( 'NONE',  ( -0.000000000000000000, 1.000000000000000000, -0.000000000000000000 ) ) ;
#586 = DIRECTION ( 'NONE',  ( -0.000000000000000000, 1.000000000000000000, -0.000000000000000000 ) ) ;
#587 = ORIENTED_EDGE ( 'NONE', *, *, #725, .F. ) ;
#588 = FACE_OUTER_BOUND ( 'NONE', #114, .T. ) ;
#589 = VECTOR ( 'NONE', #513, 1000.000000000000000 ) ;
#590 = AXIS2_PLACEMENT_3D ( 'NONE', #594, #406, #629 ) ;
#591 = VERTEX_POINT ( 'NONE', #559 ) ;
#592 = LINE ( 'NONE', #368, #276 ) ;
#593 = LINE ( 'NONE', #85, #252 ) ;
#594 = CARTESIAN_POINT ( 'NONE',  ( 89.00000000000001421, -35.00000000000000000, -43.99999999999997158 ) ) ;
#595 = ORIENTED_EDGE ( 'NONE', *, *, #170, .T. ) ;
#596 =( NAMED_UNIT ( * ) PLANE_ANGLE_UNIT ( ) SI_UNIT ( $, .RADIAN. ) );
#597 = CARTESIAN_POINT ( 'NONE',  ( 89.00000000000001421, -35.00000000000000000, -1.324697927109562513E-14 ) ) ;
#598 = EDGE_CURVE ( 'NONE', #490, #198, #329, .T. ) ;
#599 = ORIENTED_EDGE ( 'NONE', *, *, #214, .F. ) ;
#600 = CARTESIAN_POINT ( 'NONE',  ( 89.00000000000000000, 0.000000000000000000, -43.99999999999998579 ) ) ;
#601 = CARTESIAN_POINT ( 'NONE',  ( 2.000000000000000444, 20.00000000000000000, -41.99999999999997868 ) ) ;
#602 = MECHANICAL_DESIGN_GEOMETRIC_PRESENTATION_REPRESENTATION (  '', ( #366 ), #330 ) ;
#603 = VECTOR ( 'NONE', #585, 1000.000000000000000 ) ;
#604 = ORIENTED_EDGE ( 'NONE', *, *, #29, .F. ) ;
#605 = CARTESIAN_POINT ( 'NONE',  ( 0.000000000000000000, 20.00000000000000000, 0.000000000000000000 ) ) ;
#606 = PRODUCT_CONTEXT ( 'NONE', #476, 'mechanical' ) ;
#607 = DIRECTION ( 'NONE',  ( -1.000000000000000000, 0.000000000000000000, 1.387778780781444492E-15 ) ) ;
#608 = ORIENTED_EDGE ( 'NONE', *, *, #522, .T. ) ;
#609 = CARTESIAN_POINT ( 'NONE',  ( -9.856383386231863511E-16, 0.000000000000000000, -5.000000000000000000 ) ) ;
#610 = ORIENTED_EDGE ( 'NONE', *, *, #578, .T. ) ;
#611 = CARTESIAN_POINT ( 'NONE',  ( 89.00000000000000000, -35.00000000000000000, -38.99999999999996447 ) ) ;
#612 = PRODUCT_DEFINITION_FORMATION_WITH_SPECIFIED_SOURCE ( 'ä»', '', #64, .NOT_KNOWN. ) ;
#613 = EDGE_LOOP ( 'NONE', ( #528, #256, #587, #652 ) ) ;
#614 = DIRECTION ( 'NONE',  ( -1.734723475976807094E-16, 0.000000000000000000, 1.000000000000000000 ) ) ;
#615 = DIRECTION ( 'NONE',  ( -0.000000000000000000, 1.000000000000000000, -0.000000000000000000 ) ) ;
#616 = PLANE ( 'NONE',  #240 ) ;
#617 = EDGE_LOOP ( 'NONE', ( #56, #556, #533, #148 ) ) ;
#618 = CARTESIAN_POINT ( 'NONE',  ( 94.00000000000000000, 0.000000000000000000, 0.000000000000000000 ) ) ;
#619 = EDGE_CURVE ( 'NONE', #481, #362, #438, .T. ) ;
#620 = ORIENTED_EDGE ( 'NONE', *, *, #679, .F. ) ;
#621 = VECTOR ( 'NONE', #389, 1000.000000000000000 ) ;
#622 = CARTESIAN_POINT ( 'NONE',  ( 94.00000000000000000, -35.00000000000000000, -5.000000000000015987 ) ) ;
#623 = DIRECTION ( 'NONE',  ( 3.469446951953611231E-16, 0.000000000000000000, 1.000000000000000000 ) ) ;
#624 = ADVANCED_FACE ( 'NONE', ( #149 ), #658, .T. ) ;
#625 = CARTESIAN_POINT ( 'NONE',  ( 5.000000000000000000, -35.00000000000000000, -43.99999999999998579 ) ) ;
#626 = ADVANCED_FACE ( 'NONE', ( #48 ), #105, .F. ) ;
#627 = ORIENTED_EDGE ( 'NONE', *, *, #500, .F. ) ;
#628 = DIRECTION ( 'NONE',  ( 0.000000000000000000, 1.000000000000000000, 0.000000000000000000 ) ) ;
#629 = DIRECTION ( 'NONE',  ( 2.775557561562888984E-15, 0.000000000000000000, -1.000000000000000000 ) ) ;
#630 = CARTESIAN_POINT ( 'NONE',  ( 89.00000000000001421, -35.00000000000000000, -1.324697927109562513E-14 ) ) ;
#631 = AXIS2_PLACEMENT_3D ( 'NONE', #32, #628, #410 ) ;
#632 = AXIS2_PLACEMENT_3D ( 'NONE', #319, #708, #81 ) ;
#633 = ORIENTED_EDGE ( 'NONE', *, *, #619, .T. ) ;
#634 = FACE_OUTER_BOUND ( 'NONE', #47, .T. ) ;
#635 = DIRECTION ( 'NONE',  ( 1.000000000000000000, 0.000000000000000000, 0.000000000000000000 ) ) ;
#636 = CARTESIAN_POINT ( 'NONE',  ( 94.00000000000000000, -35.00000000000000000, -43.99999999999997158 ) ) ;
#637 = EDGE_LOOP ( 'NONE', ( #584, #393, #701, #595 ) ) ;
#638 = PLANE ( 'NONE',  #113 ) ;
#639 = CARTESIAN_POINT ( 'NONE',  ( 94.00000000000000000, -35.00000000000000000, -43.99999999999997158 ) ) ;
#640 = PLANE ( 'NONE',  #492 ) ;
#641 = ORIENTED_EDGE ( 'NONE', *, *, #374, .F. ) ;
#642 = CARTESIAN_POINT ( 'NONE',  ( 6.123233995736765296E-16, -35.00000000000000000, -38.99999999999997868 ) ) ;
#643 = PLANE ( 'NONE',  #479 ) ;
#644 = EDGE_CURVE ( 'NONE', #371, #294, #386, .T. ) ;
#645 = DIRECTION ( 'NONE',  ( 1.000000000000000000, 0.000000000000000000, 0.000000000000000000 ) ) ;
#646 = FACE_OUTER_BOUND ( 'NONE', #80, .T. ) ;
#647 = ORIENTED_EDGE ( 'NONE', *, *, #102, .F. ) ;
#648 = DIRECTION ( 'NONE',  ( 0.000000000000000000, 0.000000000000000000, -1.000000000000000000 ) ) ;
#649 = VECTOR ( 'NONE', #124, 1000.000000000000000 ) ;
#650 = VECTOR ( 'NONE', #417, 1000.000000000000000 ) ;
#651 = FACE_OUTER_BOUND ( 'NONE', #322, .T. ) ;
#652 = ORIENTED_EDGE ( 'NONE', *, *, #161, .T. ) ;
#653 = DIRECTION ( 'NONE',  ( -1.971276677246372505E-16, 0.000000000000000000, -1.000000000000000000 ) ) ;
#654 = EDGE_CURVE ( 'NONE', #721, #111, #160, .T. ) ;
#655 = VERTEX_POINT ( 'NONE', #326 ) ;
#656 = APPLICATION_PROTOCOL_DEFINITION ( 'draft international standard', 'automotive_design', 1998, #720 ) ;
#657 = EDGE_LOOP ( 'NONE', ( #333, #178, #711, #21 ) ) ;
#658 = PLANE ( 'NONE',  #668 ) ;
#659 = PLANE ( 'NONE',  #57 ) ;
#660 = VECTOR ( 'NONE', #498, 1000.000000000000000 ) ;
#661 = VERTEX_POINT ( 'NONE', #383 ) ;
#662 = CARTESIAN_POINT ( 'NONE',  ( 6.123233995736765296E-16, 0.000000000000000000, -38.99999999999997868 ) ) ;
#663 = ORIENTED_EDGE ( 'NONE', *, *, #180, .F. ) ;
#664 = CARTESIAN_POINT ( 'NONE',  ( 94.00000000000000000, -35.00000000000000000, -38.99999999999997158 ) ) ;
#665 = FACE_OUTER_BOUND ( 'NONE', #5, .T. ) ;
#666 = DIRECTION ( 'NONE',  ( -0.000000000000000000, 1.000000000000000000, -0.000000000000000000 ) ) ;
#667 = VECTOR ( 'NONE', #699, 1000.000000000000000 ) ;
#668 = AXIS2_PLACEMENT_3D ( 'NONE', #394, #557, #502 ) ;
#669 = ORIENTED_EDGE ( 'NONE', *, *, #286, .T. ) ;
#670 = CARTESIAN_POINT ( 'NONE',  ( 0.000000000000000000, 20.00000000000000000, 0.000000000000000000 ) ) ;
#671 = ORIENTED_EDGE ( 'NONE', *, *, #578, .F. ) ;
#672 = ORIENTED_EDGE ( 'NONE', *, *, #316, .F. ) ;
#673 = LINE ( 'NONE', #453, #574 ) ;
#674 = FACE_OUTER_BOUND ( 'NONE', #26, .T. ) ;
#675 = EDGE_CURVE ( 'NONE', #9, #371, #380, .T. ) ;
#676 = VECTOR ( 'NONE', #13, 1000.000000000000000 ) ;
#677 = DIRECTION ( 'NONE',  ( -0.000000000000000000, -0.000000000000000000, -1.000000000000000000 ) ) ;
#678 = LINE ( 'NONE', #275, #689 ) ;
#679 = EDGE_CURVE ( 'NONE', #342, #408, #506, .T. ) ;
#680 = CARTESIAN_POINT ( 'NONE',  ( 0.000000000000000000, -35.00000000000000000, -43.99999999999998579 ) ) ;
#681 = VERTEX_POINT ( 'NONE', #609 ) ;
#682 = LINE ( 'NONE', #404, #8 ) ;
#683 = DIRECTION ( 'NONE',  ( 1.224646799147352961E-16, 0.000000000000000000, -1.000000000000000000 ) ) ;
#684 = ORIENTED_EDGE ( 'NONE', *, *, #572, .F. ) ;
#685 = CARTESIAN_POINT ( 'NONE',  ( 2.000000000000000444, 1.000000000000000888, -41.99999999999997868 ) ) ;
#686 = CARTESIAN_POINT ( 'NONE',  ( 89.00000000000001421, -35.00000000000000000, -1.324697927109562513E-14 ) ) ;
#687 = VECTOR ( 'NONE', #244, 1000.000000000000000 ) ;
#688 = LINE ( 'NONE', #351, #387 ) ;
#689 = VECTOR ( 'NONE', #677, 1000.000000000000000 ) ;
#690 = ORIENTED_EDGE ( 'NONE', *, *, #277, .F. ) ;
#691 = PLANE ( 'NONE',  #171 ) ;
#692 = EDGE_CURVE ( 'NONE', #428, #721, #46, .T. ) ;
#693 = ORIENTED_EDGE ( 'NONE', *, *, #443, .T. ) ;
#694 = CARTESIAN_POINT ( 'NONE',  ( 2.000000000000000444, 20.00000000000000000, -41.99999999999997868 ) ) ;
#695 = CARTESIAN_POINT ( 'NONE',  ( 6.123233995736765296E-16, -35.00000000000000000, -5.000000000000000000 ) ) ;
#696 = CARTESIAN_POINT ( 'NONE',  ( 92.00000000000000000, 1.000000000000000888, -1.999999999999980904 ) ) ;
#697 = ORIENTED_EDGE ( 'NONE', *, *, #102, .T. ) ;
#698 = FACE_OUTER_BOUND ( 'NONE', #132, .T. ) ;
#699 = DIRECTION ( 'NONE',  ( -0.000000000000000000, -1.000000000000000000, -0.000000000000000000 ) ) ;
#700 = EDGE_CURVE ( 'NONE', #159, #469, #55, .T. ) ;
#701 = ORIENTED_EDGE ( 'NONE', *, *, #619, .F. ) ;
#702 = LINE ( 'NONE', #88, #151 ) ;
#703 = AXIS2_PLACEMENT_3D ( 'NONE', #176, #402, #418 ) ;
#704 = CARTESIAN_POINT ( 'NONE',  ( 93.99999999999998579, 20.00000000000000000, -43.99999999999998579 ) ) ;
#705 = VECTOR ( 'NONE', #257, 1000.000000000000000 ) ;
#706 = EDGE_CURVE ( 'NONE', #201, #74, #718, .T. ) ;
#707 = VERTEX_POINT ( 'NONE', #611 ) ;
#708 = DIRECTION ( 'NONE',  ( 0.000000000000000000, -1.000000000000000000, 0.000000000000000000 ) ) ;
#709 = CARTESIAN_POINT ( 'NONE',  ( 89.00000000000001421, -35.00000000000000000, -43.99999999999997158 ) ) ;
#710 = ADVANCED_FACE ( 'NONE', ( #4 ), #268, .F. ) ;
#711 = ORIENTED_EDGE ( 'NONE', *, *, #220, .F. ) ;
#712 = SURFACE_STYLE_USAGE ( .BOTH. , #39 ) ;
#713 = DIRECTION ( 'NONE',  ( -0.000000000000000000, 1.000000000000000000, -0.000000000000000000 ) ) ;
#714 = VERTEX_POINT ( 'NONE', #332 ) ;
#715 = CARTESIAN_POINT ( 'NONE',  ( 0.000000000000000000, 20.00000000000000000, 0.000000000000000000 ) ) ;
#716 = VECTOR ( 'NONE', #280, 1000.000000000000000 ) ;
#717 = VERTEX_POINT ( 'NONE', #289 ) ;
#718 = LINE ( 'NONE', #208, #266 ) ;
#719 = EDGE_CURVE ( 'NONE', #145, #198, #293, .T. ) ;
#720 = APPLICATION_CONTEXT ( 'automotive_design' ) ;
#721 = VERTEX_POINT ( 'NONE', #571 ) ;
#722 = FACE_OUTER_BOUND ( 'NONE', #219, .T. ) ;
#723 = ORIENTED_EDGE ( 'NONE', *, *, #423, .T. ) ;
#724 = DIRECTION ( 'NONE',  ( -1.000000000000000000, 0.000000000000000000, 1.387778780781444492E-15 ) ) ;
#725 = EDGE_CURVE ( 'NONE', #328, #481, #678, .T. ) ;
ENDSEC;
END-ISO-10303-21;
