ISO-10303-21;
HEADER;
FILE_DESCRIPTION (( 'STEP AP214' ),
    '1' );
FILE_NAME ('µçÔ´Ö§¼Ü.STEP',
    '2026-04-29T07:09:26',
    ( '' ),
    ( '' ),
    'SwSTEP 2.0',
    'SolidWorks 2024',
    '' );
FILE_SCHEMA (( 'AUTOMOTIVE_DESIGN' ));
ENDSEC;

DATA;
#1 = CARTESIAN_POINT ( 'NONE',  ( 72.00000000000000000, 20.00000000000000000, -2.000000000000000000 ) ) ;
#2 = VECTOR ( 'NONE', #24, 1000.000000000000000 ) ;
#3 = ORIENTED_EDGE ( 'NONE', *, *, #110, .T. ) ;
#4 = CARTESIAN_POINT ( 'NONE',  ( 0.000000000000000000, 0.000000000000000000, -5.000000000000000000 ) ) ;
#5 = LINE ( 'NONE', #250, #120 ) ;
#6 = DIRECTION ( 'NONE',  ( 0.000000000000000000, 0.000000000000000000, -1.000000000000000000 ) ) ;
#7 = LINE ( 'NONE', #192, #604 ) ;
#8 = DIRECTION ( 'NONE',  ( 1.000000000000000000, 0.000000000000000000, -0.000000000000000000 ) ) ;
#9 = AXIS2_PLACEMENT_3D ( 'NONE', #417, #312, #498 ) ;
#10 = ORIENTED_EDGE ( 'NONE', *, *, #523, .T. ) ;
#11 = CARTESIAN_POINT ( 'NONE',  ( 8.000000000000001776, 2.000000000000001776, -63.00000000000000000 ) ) ;
#12 = PLANE ( 'NONE',  #624 ) ;
#13 = CARTESIAN_POINT ( 'NONE',  ( 8.000000000000001776, 20.00000000000000000, -64.00000000000000000 ) ) ;
#14 = CARTESIAN_POINT ( 'NONE',  ( 2.000000000000000000, 20.00000000000000000, 0.000000000000000000 ) ) ;
#15 = VECTOR ( 'NONE', #709, 1000.000000000000000 ) ;
#16 = ORIENTED_EDGE ( 'NONE', *, *, #356, .F. ) ;
#17 = APPLICATION_PROTOCOL_DEFINITION ( 'draft international standard', 'automotive_design', 1998, #575 ) ;
#18 = LINE ( 'NONE', #196, #504 ) ;
#19 = CARTESIAN_POINT ( 'NONE',  ( 2.000000000000000000, 20.00000000000000000, -63.00000000000000000 ) ) ;
#20 = CARTESIAN_POINT ( 'NONE',  ( 0.000000000000000000, 20.00000000000000000, 0.000000000000000000 ) ) ;
#21 = EDGE_CURVE ( 'NONE', #364, #734, #636, .T. ) ;
#22 = EDGE_CURVE ( 'NONE', #339, #598, #201, .T. ) ;
#23 = ORIENTED_EDGE ( 'NONE', *, *, #44, .F. ) ;
#24 = DIRECTION ( 'NONE',  ( 1.000000000000000000, -0.000000000000000000, 0.000000000000000000 ) ) ;
#25 = CARTESIAN_POINT ( 'NONE',  ( 74.00000000000000000, -7.000000000000000000, -87.00000000000000000 ) ) ;
#26 = DIRECTION ( 'NONE',  ( 0.000000000000000000, 0.000000000000000000, -1.000000000000000000 ) ) ;
#27 = ORIENTED_EDGE ( 'NONE', *, *, #398, .T. ) ;
#28 = ORIENTED_EDGE ( 'NONE', *, *, #523, .F. ) ;
#29 = EDGE_CURVE ( 'NONE', #327, #225, #426, .T. ) ;
#30 = DIRECTION ( 'NONE',  ( 0.000000000000000000, 0.000000000000000000, 1.000000000000000000 ) ) ;
#31 = ORIENTED_EDGE ( 'NONE', *, *, #428, .T. ) ;
#32 = FACE_OUTER_BOUND ( 'NONE', #273, .T. ) ;
#33 = AXIS2_PLACEMENT_3D ( 'NONE', #328, #603, #561 ) ;
#34 = ORIENTED_EDGE ( 'NONE', *, *, #430, .T. ) ;
#35 = CARTESIAN_POINT ( 'NONE',  ( 74.00000000000000000, -7.000000000000000000, -5.000000000000000000 ) ) ;
#36 = ORIENTED_EDGE ( 'NONE', *, *, #246, .F. ) ;
#37 = EDGE_LOOP ( 'NONE', ( #276, #269, #232, #633 ) ) ;
#38 = SURFACE_STYLE_FILL_AREA ( #513 ) ;
#39 = APPLICATION_CONTEXT ( 'automotive_design' ) ;
#40 = ORIENTED_EDGE ( 'NONE', *, *, #29, .F. ) ;
#41 = ORIENTED_EDGE ( 'NONE', *, *, #332, .F. ) ;
#42 = EDGE_CURVE ( 'NONE', #277, #598, #211, .T. ) ;
#43 = ORIENTED_EDGE ( 'NONE', *, *, #451, .F. ) ;
#44 = EDGE_CURVE ( 'NONE', #625, #450, #234, .T. ) ;
#45 = ORIENTED_EDGE ( 'NONE', *, *, #22, .F. ) ;
#46 = FACE_OUTER_BOUND ( 'NONE', #528, .T. ) ;
#48 = EDGE_CURVE ( 'NONE', #630, #159, #438, .T. ) ;
#47 = ORIENTED_EDGE ( 'NONE', *, *, #615, .F. ) ;
#49 = DIRECTION ( 'NONE',  ( -0.000000000000000000, 1.000000000000000000, -0.000000000000000000 ) ) ;
#50 = ORIENTED_EDGE ( 'NONE', *, *, #466, .F. ) ;
#51 = DIRECTION ( 'NONE',  ( 0.000000000000000000, 0.000000000000000000, -1.000000000000000000 ) ) ;
#52 = EDGE_CURVE ( 'NONE', #688, #434, #146, .T. ) ;
#53 = AXIS2_PLACEMENT_3D ( 'NONE', #619, #540, #8 ) ;
#54 =( LENGTH_UNIT ( ) NAMED_UNIT ( * ) SI_UNIT ( .MILLI., .METRE. ) );
#55 = PRODUCT_DEFINITION_SHAPE ( 'NONE', 'NONE',  #473 ) ;
#56 = ORIENTED_EDGE ( 'NONE', *, *, #589, .F. ) ;
#57 = DIRECTION ( 'NONE',  ( 0.000000000000000000, 1.000000000000000000, 0.000000000000000000 ) ) ;
#58 = AXIS2_PLACEMENT_3D ( 'NONE', #401, #628, #338 ) ;
#59 = ORIENTED_EDGE ( 'NONE', *, *, #243, .T. ) ;
#60 = CARTESIAN_POINT ( 'NONE',  ( 2.000000000000009326, 20.00000000000000000, -2.000000000000001776 ) ) ;
#61 = CARTESIAN_POINT ( 'NONE',  ( 8.000000000000001776, 2.000000000000001776, -64.00000000000000000 ) ) ;
#62 = EDGE_CURVE ( 'NONE', #217, #639, #205, .T. ) ;
#63 = LINE ( 'NONE', #352, #701 ) ;
#64 = VECTOR ( 'NONE', #67, 1000.000000000000000 ) ;
#65 = VERTEX_POINT ( 'NONE', #367 ) ;
#66 = CARTESIAN_POINT ( 'NONE',  ( 3.306546357697854128E-15, -7.000000000000000000, -92.00000000000000000 ) ) ;
#67 = DIRECTION ( 'NONE',  ( 1.000000000000000000, 0.000000000000000000, 0.000000000000000000 ) ) ;
#68 = DIRECTION ( 'NONE',  ( -0.000000000000000000, 1.000000000000000000, 0.000000000000000000 ) ) ;
#69 = VERTEX_POINT ( 'NONE', #607 ) ;
#70 = CARTESIAN_POINT ( 'NONE',  ( 2.000000000000009326, 20.00000000000000000, -2.000000000000001776 ) ) ;
#71 = DIRECTION ( 'NONE',  ( 0.000000000000000000, 0.000000000000000000, -1.000000000000000000 ) ) ;
#72 = DIRECTION ( 'NONE',  ( 0.000000000000000000, 0.000000000000000000, 1.000000000000000000 ) ) ;
#73 = DIRECTION ( 'NONE',  ( -0.000000000000000000, 1.000000000000000000, -0.000000000000000000 ) ) ;
#74 = CARTESIAN_POINT ( 'NONE',  ( 72.00000000000000000, 20.00000000000000000, -92.00000000000000000 ) ) ;
#75 = ORIENTED_EDGE ( 'NONE', *, *, #497, .F. ) ;
#76 = CARTESIAN_POINT ( 'NONE',  ( 1.983927814618712240E-15, -7.000000000000000000, -90.00000000000000000 ) ) ;
#77 = CARTESIAN_POINT ( 'NONE',  ( 72.00000000000000000, 20.00000000000000000, 0.000000000000000000 ) ) ;
#78 = ADVANCED_FACE ( 'NONE', ( #314 ), #156, .F. ) ;
#79 = EDGE_CURVE ( 'NONE', #104, #695, #666, .T. ) ;
#80 = CARTESIAN_POINT ( 'NONE',  ( 72.00000000000002842, 2.000000000000001776, -2.000000000000001776 ) ) ;
#81 = DIRECTION ( 'NONE',  ( 1.000000000000000000, 0.000000000000000000, 0.000000000000000000 ) ) ;
#82 = VECTOR ( 'NONE', #209, 1000.000000000000000 ) ;
#83 = EDGE_LOOP ( 'NONE', ( #96, #494, #380, #514 ) ) ;
#84 = CARTESIAN_POINT ( 'NONE',  ( 74.00000000000000000, 0.000000000000000000, -87.00000000000000000 ) ) ;
#85 = DIRECTION ( 'NONE',  ( 0.000000000000000000, 0.000000000000000000, -1.000000000000000000 ) ) ;
#86 = CARTESIAN_POINT ( 'NONE',  ( 0.000000000000000000, 20.00000000000000000, -90.00000000000000000 ) ) ;
#87 = ORIENTED_EDGE ( 'NONE', *, *, #713, .F. ) ;
#88 = CARTESIAN_POINT ( 'NONE',  ( 8.000000000000001776, 2.000000000000001776, -64.00000000000000000 ) ) ;
#89 = EDGE_CURVE ( 'NONE', #434, #643, #272, .T. ) ;
#90 = PLANE ( 'NONE',  #416 ) ;
#91 = LINE ( 'NONE', #150, #288 ) ;
#92 = ORIENTED_EDGE ( 'NONE', *, *, #62, .T. ) ;
#93 = ORIENTED_EDGE ( 'NONE', *, *, #398, .F. ) ;
#94 = DIRECTION ( 'NONE',  ( 1.000000000000000000, 0.000000000000000000, 0.000000000000000000 ) ) ;
#95 = CARTESIAN_POINT ( 'NONE',  ( 73.99999999999998579, -7.000000000000000000, -92.00000000000000000 ) ) ;
#96 = ORIENTED_EDGE ( 'NONE', *, *, #708, .T. ) ;
#97 = FACE_OUTER_BOUND ( 'NONE', #407, .T. ) ;
#98 = VECTOR ( 'NONE', #588, 1000.000000000000000 ) ;
#99 = ORIENTED_EDGE ( 'NONE', *, *, #396, .F. ) ;
#100 = PLANE ( 'NONE',  #629 ) ;
#101 = ORIENTED_EDGE ( 'NONE', *, *, #570, .T. ) ;
#102 = DIRECTION ( 'NONE',  ( 0.000000000000000000, 0.000000000000000000, 1.000000000000000000 ) ) ;
#103 = SURFACE_STYLE_USAGE ( .BOTH. , #172 ) ;
#104 = VERTEX_POINT ( 'NONE', #499 ) ;
#105 = EDGE_CURVE ( 'NONE', #590, #65, #387, .T. ) ;
#106 = ORIENTED_EDGE ( 'NONE', *, *, #210, .F. ) ;
#107 = AXIS2_PLACEMENT_3D ( 'NONE', #687, #456, #747 ) ;
#108 = VECTOR ( 'NONE', #68, 1000.000000000000000 ) ;
#109 = ORIENTED_EDGE ( 'NONE', *, *, #378, .F. ) ;
#110 = EDGE_CURVE ( 'NONE', #310, #625, #554, .T. ) ;
#111 = CARTESIAN_POINT ( 'NONE',  ( 74.00000000000000000, -7.000000000000000000, -5.000000000000000000 ) ) ;
#112 = DIRECTION ( 'NONE',  ( -2.275047181608927644E-16, -0.000000000000000000, -1.000000000000000000 ) ) ;
#113 = VECTOR ( 'NONE', #81, 1000.000000000000000 ) ;
#114 = ORIENTED_EDGE ( 'NONE', *, *, #171, .F. ) ;
#115 = ORIENTED_EDGE ( 'NONE', *, *, #52, .T. ) ;
#116 = EDGE_CURVE ( 'NONE', #688, #756, #91, .T. ) ;
#117 = CARTESIAN_POINT ( 'NONE',  ( 74.00000000000000000, 20.00000000000000000, -2.000000000000000000 ) ) ;
#118 = ORIENTED_EDGE ( 'NONE', *, *, #648, .T. ) ;
#119 = CARTESIAN_POINT ( 'NONE',  ( 0.000000000000000000, -7.000000000000000000, -87.00000000000000000 ) ) ;
#120 = VECTOR ( 'NONE', #406, 1000.000000000000000 ) ;
#121 = EDGE_LOOP ( 'NONE', ( #341, #3, #347, #56 ) ) ;
#122 = CARTESIAN_POINT ( 'NONE',  ( 2.000000000000000000, 2.000000000000001776, -63.00000000000000000 ) ) ;
#123 = VECTOR ( 'NONE', #208, 1000.000000000000000 ) ;
#124 = PRODUCT_RELATED_PRODUCT_CATEGORY ( 'part', '', ( #525 ) ) ;
#125 = DIRECTION ( 'NONE',  ( 0.000000000000000000, 0.000000000000000000, 1.000000000000000000 ) ) ;
#126 = ADVANCED_FACE ( 'NONE', ( #305 ), #613, .T. ) ;
#127 = DIRECTION ( 'NONE',  ( 0.000000000000000000, 0.000000000000000000, -1.000000000000000000 ) ) ;
#128 = CARTESIAN_POINT ( 'NONE',  ( 0.000000000000000000, 2.000000000000001776, -90.00000000000000000 ) ) ;
#129 = COLOUR_RGB ( '',0.7921568627450980005, 0.8196078431372548767, 0.9333333333333333481 ) ;
#130 = VECTOR ( 'NONE', #738, 1000.000000000000000 ) ;
#131 = ORIENTED_EDGE ( 'NONE', *, *, #457, .T. ) ;
#132 = PLANE ( 'NONE',  #741 ) ;
#133 = FACE_OUTER_BOUND ( 'NONE', #489, .T. ) ;
#134 = DIRECTION ( 'NONE',  ( 0.000000000000000000, 0.000000000000000000, -1.000000000000000000 ) ) ;
#135 = VECTOR ( 'NONE', #303, 1000.000000000000000 ) ;
#136 = EDGE_LOOP ( 'NONE', ( #137, #212, #106, #320 ) ) ;
#137 = ORIENTED_EDGE ( 'NONE', *, *, #516, .F. ) ;
#138 = LINE ( 'NONE', #66, #474 ) ;
#139 = CYLINDRICAL_SURFACE ( 'NONE', #605, 1.000000000000000888 ) ;
#140 = DIRECTION ( 'NONE',  ( -0.000000000000000000, 1.000000000000000000, -0.000000000000000000 ) ) ;
#141 = DIRECTION ( 'NONE',  ( 0.000000000000000000, 0.000000000000000000, -1.000000000000000000 ) ) ;
#142 = EDGE_LOOP ( 'NONE', ( #287, #157, #118, #686 ) ) ;
#143 = DIRECTION ( 'NONE',  ( 0.000000000000000000, -1.000000000000000000, 0.000000000000000000 ) ) ;
#144 = DIRECTION ( 'NONE',  ( 0.000000000000000000, -1.000000000000000000, 0.000000000000000000 ) ) ;
#145 = CARTESIAN_POINT ( 'NONE',  ( 74.00000000000000000, 0.000000000000000000, 0.000000000000000000 ) ) ;
#146 = LINE ( 'NONE', #683, #762 ) ;
#147 = CARTESIAN_POINT ( 'NONE',  ( 2.449293598294705921E-16, -7.000000000000000000, -2.000000000000000000 ) ) ;
#148 = CARTESIAN_POINT ( 'NONE',  ( 0.000000000000000000, 0.000000000000000000, -87.00000000000000000 ) ) ;
#149 = DIRECTION ( 'NONE',  ( 1.492999712930858920E-16, 0.000000000000000000, 1.000000000000000000 ) ) ;
#150 = CARTESIAN_POINT ( 'NONE',  ( 2.000000000000000000, 2.000000000000001776, -63.00000000000000000 ) ) ;
#151 = EDGE_LOOP ( 'NONE', ( #573, #620, #537, #115 ) ) ;
#152 = AXIS2_PLACEMENT_3D ( 'NONE', #519, #623, #459 ) ;
#153 = ORIENTED_EDGE ( 'NONE', *, *, #518, .T. ) ;
#154 = CARTESIAN_POINT ( 'NONE',  ( 72.00000000000000000, -7.000000000000000000, -92.00000000000000000 ) ) ;
#155 = PLANE ( 'NONE',  #283 ) ;
#156 = PLANE ( 'NONE',  #163 ) ;
#157 = ORIENTED_EDGE ( 'NONE', *, *, #488, .F. ) ;
#158 = DIRECTION ( 'NONE',  ( 0.000000000000000000, 0.000000000000000000, 1.000000000000000000 ) ) ;
#159 = VERTEX_POINT ( 'NONE', #254 ) ;
#160 = CARTESIAN_POINT ( 'NONE',  ( 74.00000000000000000, 20.00000000000000000, 0.000000000000000000 ) ) ;
#161 = DIRECTION ( 'NONE',  ( -0.000000000000000000, 1.000000000000000000, -0.000000000000000000 ) ) ;
#162 = ORIENTED_EDGE ( 'NONE', *, *, #42, .T. ) ;
#163 = AXIS2_PLACEMENT_3D ( 'NONE', #319, #660, #326 ) ;
#164 = ORIENTED_EDGE ( 'NONE', *, *, #48, .T. ) ;
#165 = DIRECTION ( 'NONE',  ( -0.000000000000000000, 0.000000000000000000, 1.000000000000000000 ) ) ;
#166 = EDGE_LOOP ( 'NONE', ( #41, #239, #705, #763 ) ) ;
#167 = AXIS2_PLACEMENT_3D ( 'NONE', #394, #586, #761 ) ;
#168 = PLANE ( 'NONE',  #467 ) ;
#169 = VERTEX_POINT ( 'NONE', #86 ) ;
#170 = ORIENTED_EDGE ( 'NONE', *, *, #669, .T. ) ;
#171 = EDGE_CURVE ( 'NONE', #364, #441, #482, .T. ) ;
#172 = SURFACE_SIDE_STYLE ('',( #38 ) ) ;
#173 = EDGE_CURVE ( 'NONE', #381, #193, #712, .T. ) ;
#174 = ORIENTED_EDGE ( 'NONE', *, *, #21, .T. ) ;
#175 = CARTESIAN_POINT ( 'NONE',  ( 6.123233995736765296E-16, -7.000000000000000000, -5.000000000000000000 ) ) ;
#176 = VECTOR ( 'NONE', #373, 1000.000000000000000 ) ;
#177 = PRODUCT_DEFINITION_CONTEXT ( 'detailed design', #39, 'design' ) ;
#178 = EDGE_CURVE ( 'NONE', #695, #564, #5, .T. ) ;
#179 = ORIENTED_EDGE ( 'NONE', *, *, #105, .F. ) ;
#180 = DIRECTION ( 'NONE',  ( 1.000000000000000000, 0.000000000000000000, 0.000000000000000000 ) ) ;
#181 = STYLED_ITEM ( 'NONE', ( #286 ), #322 ) ;
#182 = LINE ( 'NONE', #298, #535 ) ;
#183 = ORIENTED_EDGE ( 'NONE', *, *, #532, .T. ) ;
#184 = DIRECTION ( 'NONE',  ( 0.000000000000000000, 0.000000000000000000, -1.000000000000000000 ) ) ;
#185 = ADVANCED_FACE ( 'NONE', ( #641 ), #318, .T. ) ;
#186 = DIRECTION ( 'NONE',  ( -2.275047181608927644E-16, -0.000000000000000000, -1.000000000000000000 ) ) ;
#187 = AXIS2_PLACEMENT_3D ( 'NONE', #122, #184, #411 ) ;
#188 = ADVANCED_FACE ( 'NONE', ( #376 ), #90, .F. ) ;
#189 = CARTESIAN_POINT ( 'NONE',  ( 7.000000000000000888, 20.00000000000000000, -64.00000000000000000 ) ) ;
#190 = ADVANCED_FACE ( 'NONE', ( #612 ), #12, .T. ) ;
#191 = LINE ( 'NONE', #11, #123 ) ;
#192 = CARTESIAN_POINT ( 'NONE',  ( 0.000000000000000000, -7.000000000000000000, 0.000000000000000000 ) ) ;
#193 = VERTEX_POINT ( 'NONE', #421 ) ;
#194 = EDGE_CURVE ( 'NONE', #450, #643, #448, .T. ) ;
#195 = DIRECTION ( 'NONE',  ( -0.000000000000000000, 1.000000000000000000, -0.000000000000000000 ) ) ;
#196 = CARTESIAN_POINT ( 'NONE',  ( 7.000000000000000888, 2.000000000000001776, -64.00000000000000000 ) ) ;
#197 = VECTOR ( 'NONE', #440, 1000.000000000000000 ) ;
#198 = DIRECTION ( 'NONE',  ( 0.000000000000000000, 0.000000000000000000, -1.000000000000000000 ) ) ;
#199 = AXIS2_PLACEMENT_3D ( 'NONE', #716, #144, #71 ) ;
#200 = DIRECTION ( 'NONE',  ( 0.000000000000000000, 0.000000000000000000, 1.000000000000000000 ) ) ;
#201 = LINE ( 'NONE', #257, #463 ) ;
#202 = PLANE ( 'NONE',  #611 ) ;
#203 = CARTESIAN_POINT ( 'NONE',  ( 2.000000000000000000, 20.00000000000000000, -2.000000000000000000 ) ) ;
#204 = FACE_OUTER_BOUND ( 'NONE', #37, .T. ) ;
#205 = LINE ( 'NONE', #309, #558 ) ;
#206 = VECTOR ( 'NONE', #493, 1000.000000000000000 ) ;
#207 = AXIS2_PLACEMENT_3D ( 'NONE', #13, #73, #26 ) ;
#208 = DIRECTION ( 'NONE',  ( -0.000000000000000000, -1.000000000000000000, -0.000000000000000000 ) ) ;
#209 = DIRECTION ( 'NONE',  ( -0.000000000000000000, 1.000000000000000000, -0.000000000000000000 ) ) ;
#210 = EDGE_CURVE ( 'NONE', #441, #590, #750, .T. ) ;
#211 = LINE ( 'NONE', #602, #559 ) ;
#212 = ORIENTED_EDGE ( 'NONE', *, *, #243, .F. ) ;
#213 = AXIS2_PLACEMENT_3D ( 'NONE', #1, #711, #51 ) ;
#214 = ORIENTED_EDGE ( 'NONE', *, *, #311, .F. ) ;
#215 = DIRECTION ( 'NONE',  ( 0.000000000000000000, 0.000000000000000000, -1.000000000000000000 ) ) ;
#216 = CARTESIAN_POINT ( 'NONE',  ( 0.000000000000000000, 20.00000000000000000, -2.000000000000000000 ) ) ;
#217 = VERTEX_POINT ( 'NONE', #25 ) ;
#218 = FACE_OUTER_BOUND ( 'NONE', #769, .T. ) ;
#219 = ORIENTED_EDGE ( 'NONE', *, *, #52, .F. ) ;
#220 = ORIENTED_EDGE ( 'NONE', *, *, #669, .F. ) ;
#221 = VECTOR ( 'NONE', #423, 1000.000000000000000 ) ;
#222 = ORIENTED_EDGE ( 'NONE', *, *, #451, .T. ) ;
#223 =( NAMED_UNIT ( * ) PLANE_ANGLE_UNIT ( ) SI_UNIT ( $, .RADIAN. ) );
#224 = VECTOR ( 'NONE', #542, 1000.000000000000000 ) ;
#226 = ADVANCED_FACE ( 'NONE', ( #726 ), #139, .T. ) ;
#225 = VERTEX_POINT ( 'NONE', #676 ) ;
#227 = LINE ( 'NONE', #95, #402 ) ;
#228 = EDGE_LOOP ( 'NONE', ( #560, #609, #714, #656, #634, #524, #517, #568 ) ) ;
#229 = ORIENTED_EDGE ( 'NONE', *, *, #105, .T. ) ;
#230 = PLANE ( 'NONE',  #107 ) ;
#231 = EDGE_CURVE ( 'NONE', #310, #577, #544, .T. ) ;
#232 = ORIENTED_EDGE ( 'NONE', *, *, #685, .F. ) ;
#233 = CARTESIAN_POINT ( 'NONE',  ( 2.000000000000000000, 20.00000000000000000, -2.000000000000000000 ) ) ;
#234 = CIRCLE ( 'NONE', #207, 1.000000000000000888 ) ;
#235 = ORIENTED_EDGE ( 'NONE', *, *, #477, .T. ) ;
#236 = ORIENTED_EDGE ( 'NONE', *, *, #116, .T. ) ;
#237 = VECTOR ( 'NONE', #112, 1000.000000000000000 ) ;
#238 = FACE_OUTER_BOUND ( 'NONE', #530, .T. ) ;
#239 = ORIENTED_EDGE ( 'NONE', *, *, #430, .F. ) ;
#240 = DIRECTION ( 'NONE',  ( -0.000000000000000000, 1.000000000000000000, -0.000000000000000000 ) ) ;
#241 = EDGE_CURVE ( 'NONE', #734, #639, #663, .T. ) ;
#242 = ORIENTED_EDGE ( 'NONE', *, *, #428, .F. ) ;
#243 = EDGE_CURVE ( 'NONE', #590, #749, #267, .T. ) ;
#244 = CARTESIAN_POINT ( 'NONE',  ( 0.000000000000000000, -7.000000000000000000, -87.00000000000000000 ) ) ;
#245 = ADVANCED_FACE ( 'NONE', ( #304, #371 ), #155, .F. ) ;
#246 = EDGE_CURVE ( 'NONE', #744, #555, #606, .T. ) ;
#247 = LINE ( 'NONE', #703, #503 ) ;
#248 = VECTOR ( 'NONE', #258, 1000.000000000000000 ) ;
#249 = DIRECTION ( 'NONE',  ( 0.000000000000000000, -0.000000000000000000, -1.000000000000000000 ) ) ;
#250 = CARTESIAN_POINT ( 'NONE',  ( 72.00000000000000000, -6.999999999999999112, -92.00000000000000000 ) ) ;
#251 = EDGE_CURVE ( 'NONE', #306, #364, #549, .T. ) ;
#252 = PLANE ( 'NONE',  #645 ) ;
#253 = DIRECTION ( 'NONE',  ( -1.000000000000000000, 0.000000000000000000, -0.000000000000000000 ) ) ;
#254 = CARTESIAN_POINT ( 'NONE',  ( 0.000000000000000000, 20.00000000000000000, -2.000000000000000000 ) ) ;
#255 = PLANE ( 'NONE',  #700 ) ;
#256 = CARTESIAN_POINT ( 'NONE',  ( 8.000000000000001776, 20.00000000000000000, -64.00000000000000000 ) ) ;
#257 = CARTESIAN_POINT ( 'NONE',  ( 2.000000000000000000, 20.00000000000000000, -63.00000000000000000 ) ) ;
#258 = DIRECTION ( 'NONE',  ( 1.492999712930858674E-16, 0.000000000000000000, 1.000000000000000000 ) ) ;
#259 = ORIENTED_EDGE ( 'NONE', *, *, #578, .T. ) ;
#260 = DIRECTION ( 'NONE',  ( -0.000000000000000000, 0.000000000000000000, 1.000000000000000000 ) ) ;
#261 = CARTESIAN_POINT ( 'NONE',  ( 6.123233995736765296E-16, -7.000000000000000000, -5.000000000000000000 ) ) ;
#262 = EDGE_CURVE ( 'NONE', #69, #450, #18, .T. ) ;
#263 = DIRECTION ( 'NONE',  ( 0.000000000000000000, 0.000000000000000000, -1.000000000000000000 ) ) ;
#264 = ORIENTED_EDGE ( 'NONE', *, *, #439, .F. ) ;
#265 = LINE ( 'NONE', #495, #362 ) ;
#266 = EDGE_CURVE ( 'NONE', #564, #562, #496, .T. ) ;
#267 = LINE ( 'NONE', #77, #82 ) ;
#268 = CARTESIAN_POINT ( 'NONE',  ( 72.00000000000000000, 20.00000000000000000, -90.00000000000000000 ) ) ;
#269 = ORIENTED_EDGE ( 'NONE', *, *, #42, .F. ) ;
#270 = ORIENTED_EDGE ( 'NONE', *, *, #178, .F. ) ;
#271 = PLANE ( 'NONE',  #582 ) ;
#272 = LINE ( 'NONE', #19, #206 ) ;
#273 = EDGE_LOOP ( 'NONE', ( #693, #584, #229, #679, #324, #388 ) ) ;
#274 = VECTOR ( 'NONE', #180, 1000.000000000000000 ) ;
#275 = FACE_OUTER_BOUND ( 'NONE', #290, .T. ) ;
#276 = ORIENTED_EDGE ( 'NONE', *, *, #22, .T. ) ;
#277 = VERTEX_POINT ( 'NONE', #363 ) ;
#278 = LINE ( 'NONE', #690, #237 ) ;
#279 = VERTEX_POINT ( 'NONE', #731 ) ;
#280 = DIRECTION ( 'NONE',  ( 1.000000000000000000, 0.000000000000000000, 0.000000000000000000 ) ) ;
#281 = ORIENTED_EDGE ( 'NONE', *, *, #110, .F. ) ;
#282 = VECTOR ( 'NONE', #667, 1000.000000000000000 ) ;
#283 = AXIS2_PLACEMENT_3D ( 'NONE', #502, #655, #737 ) ;
#284 = CARTESIAN_POINT ( 'NONE',  ( 2.000000000000000888, 20.00000000000000000, -90.00000000000000000 ) ) ;
#285 = UNCERTAINTY_MEASURE_WITH_UNIT (LENGTH_MEASURE( 1.000000000000000082E-05 ), #637, 'distance_accuracy_value', 'NONE');
#286 = PRESENTATION_STYLE_ASSIGNMENT (( #103 ) ) ;
#287 = ORIENTED_EDGE ( 'NONE', *, *, #736, .F. ) ;
#288 = VECTOR ( 'NONE', #379, 1000.000000000000000 ) ;
#289 = CARTESIAN_POINT ( 'NONE',  ( 72.00000000000001421, 20.00000000000000000, -63.00000000000000000 ) ) ;
#290 = EDGE_LOOP ( 'NONE', ( #464, #219, #16, #458 ) ) ;
#291 = CIRCLE ( 'NONE', #515, 1.000000000000000888 ) ;
#292 = DIRECTION ( 'NONE',  ( 0.000000000000000000, 0.000000000000000000, 1.000000000000000000 ) ) ;
#293 = CIRCLE ( 'NONE', #199, 2.000000000000000000 ) ;
#294 = ORIENTED_EDGE ( 'NONE', *, *, #457, .F. ) ;
#295 = LINE ( 'NONE', #357, #343 ) ;
#296 = ADVANCED_FACE ( 'NONE', ( #204 ), #271, .F. ) ;
#297 = EDGE_CURVE ( 'NONE', #630, #306, #7, .T. ) ;
#298 = CARTESIAN_POINT ( 'NONE',  ( 72.00000000000001421, 20.00000000000000000, -63.00000000000000000 ) ) ;
#299 = DIRECTION ( 'NONE',  ( -1.000000000000000000, 0.000000000000000000, 0.000000000000000000 ) ) ;
#300 = ADVANCED_FACE ( 'NONE', ( #397 ), #230, .F. ) ;
#301 = VECTOR ( 'NONE', #240, 1000.000000000000000 ) ;
#302 = FACE_OUTER_BOUND ( 'NONE', #83, .T. ) ;
#303 = DIRECTION ( 'NONE',  ( 0.000000000000000000, 0.000000000000000000, 1.000000000000000000 ) ) ;
#304 = FACE_BOUND ( 'NONE', #512, .T. ) ;
#305 = FACE_OUTER_BOUND ( 'NONE', #752, .T. ) ;
#306 = VERTEX_POINT ( 'NONE', #758 ) ;
#307 = LINE ( 'NONE', #662, #313 ) ;
#308 = DIRECTION ( 'NONE',  ( -0.000000000000000000, 1.000000000000000000, 0.000000000000000000 ) ) ;
#309 = CARTESIAN_POINT ( 'NONE',  ( 74.00000000000000000, -7.000000000000000000, -87.00000000000000000 ) ) ;
#310 = VERTEX_POINT ( 'NONE', #694 ) ;
#311 = EDGE_CURVE ( 'NONE', #562, #217, #227, .T. ) ;
#312 = DIRECTION ( 'NONE',  ( 0.000000000000000000, -1.000000000000000000, 0.000000000000000000 ) ) ;
#313 = VECTOR ( 'NONE', #369, 1000.000000000000000 ) ;
#314 = FACE_OUTER_BOUND ( 'NONE', #597, .T. ) ;
#315 = CYLINDRICAL_SURFACE ( 'NONE', #691, 2.000000000000001776 ) ;
#316 = EDGE_CURVE ( 'NONE', #671, #749, #635, .T. ) ;
#317 = CARTESIAN_POINT ( 'NONE',  ( 8.000000000000001776, 20.00000000000000000, -63.00000000000000000 ) ) ;
#318 = CYLINDRICAL_SURFACE ( 'NONE', #9, 2.000000000000000000 ) ;
#319 = CARTESIAN_POINT ( 'NONE',  ( 0.000000000000000000, -7.000000000000000000, 0.000000000000000000 ) ) ;
#320 = ORIENTED_EDGE ( 'NONE', *, *, #532, .F. ) ;
#321 = PLANE ( 'NONE',  #33 ) ;
#322 = MANIFOLD_SOLID_BREP ( 'Ô²½Ç5', #399 ) ;
#323 = ADVANCED_FACE ( 'NONE', ( #46 ), #100, .F. ) ;
#324 = ORIENTED_EDGE ( 'NONE', *, *, #297, .T. ) ;
#325 = CARTESIAN_POINT ( 'NONE',  ( 3.306546357697854128E-15, 20.00000000000000000, -92.00000000000000000 ) ) ;
#326 = DIRECTION ( 'NONE',  ( 0.000000000000000000, 0.000000000000000000, 1.000000000000000000 ) ) ;
#327 = VERTEX_POINT ( 'NONE', #342 ) ;
#328 = CARTESIAN_POINT ( 'NONE',  ( 0.000000000000000000, 2.000000000000001776, 0.000000000000000000 ) ) ;
#329 = VECTOR ( 'NONE', #664, 1000.000000000000000 ) ;
#330 = ORIENTED_EDGE ( 'NONE', *, *, #297, .F. ) ;
#331 = APPLICATION_PROTOCOL_DEFINITION ( 'draft international standard', 'automotive_design', 1998, #39 ) ;
#332 = EDGE_CURVE ( 'NONE', #350, #169, #393, .T. ) ;
#333 = DIRECTION ( 'NONE',  ( 0.000000000000000000, 0.000000000000000000, -1.000000000000000000 ) ) ;
#334 = VECTOR ( 'NONE', #49, 1000.000000000000000 ) ;
#335 = LINE ( 'NONE', #506, #403 ) ;
#336 = AXIS2_PLACEMENT_3D ( 'NONE', #704, #102, #94 ) ;
#337 = ORIENTED_EDGE ( 'NONE', *, *, #241, .F. ) ;
#338 = DIRECTION ( 'NONE',  ( 0.000000000000000000, 0.000000000000000000, -1.000000000000000000 ) ) ;
#339 = VERTEX_POINT ( 'NONE', #284 ) ;
#340 = ORIENTED_EDGE ( 'NONE', *, *, #587, .F. ) ;
#341 = ORIENTED_EDGE ( 'NONE', *, *, #231, .F. ) ;
#342 = CARTESIAN_POINT ( 'NONE',  ( 72.00000000000002842, 2.000000000000001776, -2.000000000000001776 ) ) ;
#343 = VECTOR ( 'NONE', #591, 1000.000000000000000 ) ;
#344 = EDGE_CURVE ( 'NONE', #616, #556, #351, .T. ) ;
#345 = ORIENTED_EDGE ( 'NONE', *, *, #697, .T. ) ;
#346 = DIRECTION ( 'NONE',  ( 1.000000000000000000, -0.000000000000000000, 0.000000000000000000 ) ) ;
#347 = ORIENTED_EDGE ( 'NONE', *, *, #647, .T. ) ;
#348 = DIRECTION ( 'NONE',  ( 1.000000000000000000, -0.000000000000000000, 0.000000000000000000 ) ) ;
#349 = CYLINDRICAL_SURFACE ( 'NONE', #420, 2.000000000000001776 ) ;
#350 = VERTEX_POINT ( 'NONE', #696 ) ;
#351 = CIRCLE ( 'NONE', #152, 2.000000000000001776 ) ;
#352 = CARTESIAN_POINT ( 'NONE',  ( 3.306546357697854128E-15, -7.000000000000000000, -92.00000000000000000 ) ) ;
#353 = PRODUCT_DEFINITION_FORMATION_WITH_SPECIFIED_SOURCE ( 'ä»', '', #525, .NOT_KNOWN. ) ;
#354 = EDGE_CURVE ( 'NONE', #306, #555, #742, .T. ) ;
#355 = CARTESIAN_POINT ( 'NONE',  ( 0.000000000000000000, 20.00000000000000000, 0.000000000000000000 ) ) ;
#356 = EDGE_CURVE ( 'NONE', #327, #688, #278, .T. ) ;
#357 = CARTESIAN_POINT ( 'NONE',  ( 3.306546357697854128E-15, 20.00000000000000000, -92.00000000000000000 ) ) ;
#358 = ORIENTED_EDGE ( 'NONE', *, *, #194, .F. ) ;
#359 = CARTESIAN_POINT ( 'NONE',  ( 0.000000000000000000, -7.000000000000000000, -87.00000000000000000 ) ) ;
#360 = AXIS2_PLACEMENT_3D ( 'NONE', #617, #299, #536 ) ;
#361 = DIRECTION ( 'NONE',  ( 0.000000000000000000, 0.000000000000000000, 1.000000000000000000 ) ) ;
#362 = VECTOR ( 'NONE', #735, 1000.000000000000000 ) ;
#363 = CARTESIAN_POINT ( 'NONE',  ( 2.000000000000009326, 2.000000000000001776, -2.000000000000001776 ) ) ;
#364 = VERTEX_POINT ( 'NONE', #35 ) ;
#365 = DIRECTION ( 'NONE',  ( 1.000000000000000000, 0.000000000000000000, 0.000000000000000000 ) ) ;
#366 = CARTESIAN_POINT ( 'NONE',  ( 0.000000000000000000, 2.000000000000001776, -65.00000000000000000 ) ) ;
#367 = CARTESIAN_POINT ( 'NONE',  ( 2.000000000000000000, -7.000000000000000000, 0.000000000000000000 ) ) ;
#368 = ORIENTED_EDGE ( 'NONE', *, *, #587, .T. ) ;
#369 = DIRECTION ( 'NONE',  ( -0.000000000000000000, 1.000000000000000000, -0.000000000000000000 ) ) ;
#370 = AXIS2_PLACEMENT_3D ( 'NONE', #492, #557, #30 ) ;
#371 = FACE_OUTER_BOUND ( 'NONE', #228, .T. ) ;
#372 = ADVANCED_FACE ( 'NONE', ( #579 ), #168, .F. ) ;
#373 = DIRECTION ( 'NONE',  ( -0.000000000000000000, 1.000000000000000000, -0.000000000000000000 ) ) ;
#374 = FACE_OUTER_BOUND ( 'NONE', #661, .T. ) ;
#375 = CARTESIAN_POINT ( 'NONE',  ( 2.000000000000000000, -7.000000000000000000, -92.00000000000000000 ) ) ;
#376 = FACE_OUTER_BOUND ( 'NONE', #757, .T. ) ;
#377 = CIRCLE ( 'NONE', #754, 1.000000000000000888 ) ;
#378 = EDGE_CURVE ( 'NONE', #279, #104, #682, .T. ) ;
#379 = DIRECTION ( 'NONE',  ( -1.000000000000000000, -0.000000000000000000, -0.000000000000000000 ) ) ;
#380 = ORIENTED_EDGE ( 'NONE', *, *, #251, .F. ) ;
#381 = VERTEX_POINT ( 'NONE', #563 ) ;
#382 = PLANE ( 'NONE',  #360 ) ;
#383 = DIRECTION ( 'NONE',  ( -0.000000000000000000, -0.000000000000000000, 1.000000000000000000 ) ) ;
#384 = ORIENTED_EDGE ( 'NONE', *, *, #488, .T. ) ;
#385 = DIRECTION ( 'NONE',  ( 0.000000000000000000, -1.000000000000000000, 0.000000000000000000 ) ) ;
#386 = ADVANCED_FACE ( 'NONE', ( #275 ), #508, .F. ) ;
#387 = LINE ( 'NONE', #732, #432 ) ;
#388 = ORIENTED_EDGE ( 'NONE', *, *, #251, .T. ) ;
#389 = CARTESIAN_POINT ( 'NONE',  ( 2.000000000000000000, 2.000000000000001776, -63.00000000000000000 ) ) ;
#390 = ORIENTED_EDGE ( 'NONE', *, *, #241, .T. ) ;
#391 = CARTESIAN_POINT ( 'NONE',  ( 0.000000000000000000, 20.00000000000000000, 0.000000000000000000 ) ) ;
#392 = EDGE_LOOP ( 'NONE', ( #340, #34, #153, #692 ) ) ;
#393 = CIRCLE ( 'NONE', #58, 2.000000000000001776 ) ;
#394 = CARTESIAN_POINT ( 'NONE',  ( 72.00000000000001421, 2.000000000000001776, -63.00000000000000000 ) ) ;
#395 = ORIENTED_EDGE ( 'NONE', *, *, #79, .F. ) ;
#396 = EDGE_CURVE ( 'NONE', #159, #671, #675, .T. ) ;
#397 = FACE_OUTER_BOUND ( 'NONE', #121, .T. ) ;
#398 = EDGE_CURVE ( 'NONE', #756, #69, #291, .T. ) ;
#399 = CLOSED_SHELL ( 'NONE', ( #585, #372, #730, #188, #245, #386, #323, #296, #511, #677, #190, #300, #650, #126, #595, #707, #665, #78, #533, #185, #460, #727, #759, #226 ) ) ;
#400 = CARTESIAN_POINT ( 'NONE',  ( 72.00000000000000000, -6.999999999999999112, -2.000000000000000000 ) ) ;
#401 = CARTESIAN_POINT ( 'NONE',  ( 2.000000000000000000, 20.00000000000000000, -90.00000000000000000 ) ) ;
#402 = VECTOR ( 'NONE', #632, 1000.000000000000000 ) ;
#403 = VECTOR ( 'NONE', #745, 1000.000000000000000 ) ;
#404 = EDGE_LOOP ( 'NONE', ( #566, #739, #23, #281 ) ) ;
#405 = DIRECTION ( 'NONE',  ( -1.000000000000000000, -0.000000000000000000, -0.000000000000000000 ) ) ;
#406 = DIRECTION ( 'NONE',  ( 0.000000000000000000, -1.000000000000000000, 0.000000000000000000 ) ) ;
#407 = EDGE_LOOP ( 'NONE', ( #179, #59, #447, #222 ) ) ;
#408 = LINE ( 'NONE', #465, #765 ) ;
#409 = ORIENTED_EDGE ( 'NONE', *, *, #572, .F. ) ;
#410 = AXIS2_PLACEMENT_3D ( 'NONE', #400, #720, #553 ) ;
#411 = DIRECTION ( 'NONE',  ( -1.000000000000000000, 0.000000000000000000, -0.000000000000000000 ) ) ;
#412 = MECHANICAL_DESIGN_GEOMETRIC_PRESENTATION_REPRESENTATION (  '', ( #181 ), #657 ) ;
#413 = CARTESIAN_POINT ( 'NONE',  ( 72.00000000000000000, 20.00000000000000000, -65.00000000000000000 ) ) ;
#414 = FACE_OUTER_BOUND ( 'NONE', #151, .T. ) ;
#415 = CARTESIAN_POINT ( 'NONE',  ( 73.99999999999998579, -7.000000000000000000, -90.00000000000000000 ) ) ;
#416 = AXIS2_PLACEMENT_3D ( 'NONE', #486, #481, #72 ) ;
#417 = CARTESIAN_POINT ( 'NONE',  ( 72.00000000000000000, 20.00000000000000000, -2.000000000000000000 ) ) ;
#418 = ORIENTED_EDGE ( 'NONE', *, *, #615, .T. ) ;
#419 = CARTESIAN_POINT ( 'NONE',  ( 0.000000000000000000, 0.000000000000000000, 0.000000000000000000 ) ) ;
#420 = AXIS2_PLACEMENT_3D ( 'NONE', #583, #57, #292 ) ;
#421 = CARTESIAN_POINT ( 'NONE',  ( 72.00000000000000000, 2.000000000000001776, -90.00000000000000000 ) ) ;
#422 = VECTOR ( 'NONE', #659, 1000.000000000000000 ) ;
#423 = DIRECTION ( 'NONE',  ( -0.000000000000000000, -0.000000000000000000, 1.000000000000000000 ) ) ;
#424 = DIRECTION ( 'NONE',  ( 1.000000000000000000, 0.000000000000000000, 0.000000000000000000 ) ) ;
#425 = DIRECTION ( 'NONE',  ( 1.000000000000000000, -0.000000000000000000, 0.000000000000000000 ) ) ;
#426 = LINE ( 'NONE', #80, #130 ) ;
#427 = DIRECTION ( 'NONE',  ( -0.000000000000000000, -1.000000000000000000, -0.000000000000000000 ) ) ;
#428 = EDGE_CURVE ( 'NONE', #339, #478, #247, .T. ) ;
#429 = CARTESIAN_POINT ( 'NONE',  ( 72.00000000000000000, 2.000000000000001776, -65.00000000000000000 ) ) ;
#430 = EDGE_CURVE ( 'NONE', #556, #350, #649, .T. ) ;
#431 = CARTESIAN_POINT ( 'NONE',  ( 2.000000000000000000, 2.000000000000001776, -63.00000000000000000 ) ) ;
#432 = VECTOR ( 'NONE', #433, 1000.000000000000000 ) ;
#433 = DIRECTION ( 'NONE',  ( -1.000000000000000000, -0.000000000000000000, -0.000000000000000000 ) ) ;
#434 = VERTEX_POINT ( 'NONE', #289 ) ;
#435 = LINE ( 'NONE', #715, #2 ) ;
#436 = CARTESIAN_POINT ( 'NONE',  ( 0.000000000000000000, 0.000000000000000000, 0.000000000000000000 ) ) ;
#437 = CIRCLE ( 'NONE', #213, 2.000000000000000000 ) ;
#438 = LINE ( 'NONE', #216, #329 ) ;
#439 = EDGE_CURVE ( 'NONE', #225, #434, #182, .T. ) ;
#440 = DIRECTION ( 'NONE',  ( -1.000000000000000000, -0.000000000000000000, -0.000000000000000000 ) ) ;
#441 = VERTEX_POINT ( 'NONE', #531 ) ;
#442 = CARTESIAN_POINT ( 'NONE',  ( 0.000000000000000000, 20.00000000000000000, 0.000000000000000000 ) ) ;
#443 = DIRECTION ( 'NONE',  ( -0.000000000000000000, 1.000000000000000000, -0.000000000000000000 ) ) ;
#444 = ORIENTED_EDGE ( 'NONE', *, *, #44, .T. ) ;
#445 = DIRECTION ( 'NONE',  ( 0.000000000000000000, 1.000000000000000000, 0.000000000000000000 ) ) ;
#446 =( NAMED_UNIT ( * ) SI_UNIT ( $, .STERADIAN. ) SOLID_ANGLE_UNIT ( ) );
#447 = ORIENTED_EDGE ( 'NONE', *, *, #316, .F. ) ;
#448 = CIRCLE ( 'NONE', #718, 1.000000000000000888 ) ;
#449 = ORIENTED_EDGE ( 'NONE', *, *, #477, .F. ) ;
#450 = VERTEX_POINT ( 'NONE', #189 ) ;
#451 = EDGE_CURVE ( 'NONE', #671, #65, #408, .T. ) ;
#452 = AXIS2_PLACEMENT_3D ( 'NONE', #203, #143, #6 ) ;
#453 = LINE ( 'NONE', #576, #135 ) ;
#454 =( GEOMETRIC_REPRESENTATION_CONTEXT ( 3 ) GLOBAL_UNCERTAINTY_ASSIGNED_CONTEXT ( ( #461 ) ) GLOBAL_UNIT_ASSIGNED_CONTEXT ( ( #54, #725, #766 ) ) REPRESENTATION_CONTEXT ( 'NONE', 'WORKASPACE' ) );
#455 = VERTEX_POINT ( 'NONE', #244 ) ;
#456 = DIRECTION ( 'NONE',  ( 0.000000000000000000, 0.000000000000000000, 1.000000000000000000 ) ) ;
#457 = EDGE_CURVE ( 'NONE', #217, #455, #472, .T. ) ;
#458 = ORIENTED_EDGE ( 'NONE', *, *, #29, .T. ) ;
#459 = DIRECTION ( 'NONE',  ( 0.000000000000000000, 0.000000000000000000, 1.000000000000000000 ) ) ;
#460 = ADVANCED_FACE ( 'NONE', ( #642 ), #349, .T. ) ;
#461 = UNCERTAINTY_MEASURE_WITH_UNIT (LENGTH_MEASURE( 1.000000000000000082E-05 ), #54, 'distance_accuracy_value', 'NONE');
#462 = DIRECTION ( 'NONE',  ( -1.000000000000000000, 0.000000000000000000, -0.000000000000000000 ) ) ;
#463 = VECTOR ( 'NONE', #728, 1000.000000000000000 ) ;
#464 = ORIENTED_EDGE ( 'NONE', *, *, #439, .T. ) ;
#465 = CARTESIAN_POINT ( 'NONE',  ( 2.000000000000000000, 20.00000000000000000, 0.000000000000000000 ) ) ;
#466 = EDGE_CURVE ( 'NONE', #381, #339, #529, .T. ) ;
#467 = AXIS2_PLACEMENT_3D ( 'NONE', #391, #346, #215 ) ;
#468 = ORIENTED_EDGE ( 'NONE', *, *, #262, .F. ) ;
#469 = CARTESIAN_POINT ( 'NONE',  ( 2.000000000000000000, 20.00000000000000000, -92.00000000000000000 ) ) ;
#470 = LINE ( 'NONE', #60, #274 ) ;
#471 = VERTEX_POINT ( 'NONE', #413 ) ;
#472 = LINE ( 'NONE', #119, #592 ) ;
#473 = PRODUCT_DEFINITION ( 'æœ', '', #353, #177 ) ;
#474 = VECTOR ( 'NONE', #365, 1000.000000000000000 ) ;
#475 = VECTOR ( 'NONE', #383, 1000.000000000000000 ) ;
#476 = CARTESIAN_POINT ( 'NONE',  ( 72.00000000000000000, 20.00000000000000000, -90.00000000000000000 ) ) ;
#477 = EDGE_CURVE ( 'NONE', #598, #225, #470, .T. ) ;
#478 = VERTEX_POINT ( 'NONE', #476 ) ;
#479 = CARTESIAN_POINT ( 'NONE',  ( 72.00000000000000000, -7.000000000000000000, 0.000000000000000000 ) ) ;
#480 = LINE ( 'NONE', #719, #527 ) ;
#481 = DIRECTION ( 'NONE',  ( -1.000000000000000000, 0.000000000000000000, 0.000000000000000000 ) ) ;
#482 = LINE ( 'NONE', #721, #221 ) ;
#483 = CARTESIAN_POINT ( 'NONE',  ( 6.123233995736765296E-16, -7.000000000000000000, -5.000000000000000000 ) ) ;
#484 = AXIS2_PLACEMENT_3D ( 'NONE', #680, #385, #487 ) ;
#485 = DIRECTION ( 'NONE',  ( 0.000000000000000000, 1.000000000000000000, 0.000000000000000000 ) ) ;
#486 = CARTESIAN_POINT ( 'NONE',  ( 74.00000000000000000, 20.00000000000000000, 0.000000000000000000 ) ) ;
#487 = DIRECTION ( 'NONE',  ( 0.000000000000000000, -0.000000000000000000, -1.000000000000000000 ) ) ;
#488 = EDGE_CURVE ( 'NONE', #193, #478, #764, .T. ) ;
#489 = EDGE_LOOP ( 'NONE', ( #468, #93, #409, #358 ) ) ;
#490 = CARTESIAN_POINT ( 'NONE',  ( 8.000000000000001776, 20.00000000000000000, -65.00000000000000000 ) ) ;
#491 = CARTESIAN_POINT ( 'NONE',  ( 8.000000000000001776, 2.000000000000001776, -64.00000000000000000 ) ) ;
#492 = CARTESIAN_POINT ( 'NONE',  ( 72.00000000000000000, -6.999999999999999112, -90.00000000000000000 ) ) ;
#493 = DIRECTION ( 'NONE',  ( -1.000000000000000000, -0.000000000000000000, -0.000000000000000000 ) ) ;
#494 = ORIENTED_EDGE ( 'NONE', *, *, #21, .F. ) ;
#495 = CARTESIAN_POINT ( 'NONE',  ( 72.00000000000000000, 2.000000000000001776, 0.000000000000000000 ) ) ;
#496 = CIRCLE ( 'NONE', #370, 2.000000000000001776 ) ;
#497 = EDGE_CURVE ( 'NONE', #169, #159, #640, .T. ) ;
#498 = DIRECTION ( 'NONE',  ( 0.000000000000000000, 0.000000000000000000, -1.000000000000000000 ) ) ;
#499 = CARTESIAN_POINT ( 'NONE',  ( 74.00000000000000000, 20.00000000000000000, -90.00000000000000000 ) ) ;
#500 = ORIENTED_EDGE ( 'NONE', *, *, #231, .T. ) ;
#501 = LINE ( 'NONE', #729, #197 ) ;
#502 = CARTESIAN_POINT ( 'NONE',  ( 0.000000000000000000, 20.00000000000000000, 0.000000000000000000 ) ) ;
#503 = VECTOR ( 'NONE', #348, 1000.000000000000000 ) ;
#504 = VECTOR ( 'NONE', #618, 1000.000000000000000 ) ;
#505 = ORIENTED_EDGE ( 'NONE', *, *, #647, .F. ) ;
#506 = CARTESIAN_POINT ( 'NONE',  ( 2.000000000000009326, 2.000000000000001776, -2.000000000000001776 ) ) ;
#507 = ORIENTED_EDGE ( 'NONE', *, *, #266, .F. ) ;
#508 = PLANE ( 'NONE',  #167 ) ;
#509 = EDGE_LOOP ( 'NONE', ( #75, #259, #28, #418, #673, #520, #330, #164 ) ) ;
#510 = VECTOR ( 'NONE', #425, 1000.000000000000000 ) ;
#511 = ADVANCED_FACE ( 'NONE', ( #414 ), #534, .F. ) ;
#512 = EDGE_LOOP ( 'NONE', ( #505, #444, #746, #698, #264, #449, #45, #31, #760 ) ) ;
#513 = FILL_AREA_STYLE ('',( #567 ) ) ;
#514 = ORIENTED_EDGE ( 'NONE', *, *, #354, .T. ) ;
#515 = AXIS2_PLACEMENT_3D ( 'NONE', #61, #770, #125 ) ;
#516 = EDGE_CURVE ( 'NONE', #749, #279, #437, .T. ) ;
#518 = EDGE_CURVE ( 'NONE', #350, #695, #295, .T. ) ;
#517 = ORIENTED_EDGE ( 'NONE', *, *, #378, .T. ) ;
#519 = CARTESIAN_POINT ( 'NONE',  ( 2.000000000000000000, -6.999999999999999112, -90.00000000000000000 ) ) ;
#520 = ORIENTED_EDGE ( 'NONE', *, *, #354, .F. ) ;
#521 = ORIENTED_EDGE ( 'NONE', *, *, #344, .T. ) ;
#522 = DIRECTION ( 'NONE',  ( 6.613092715395701550E-16, -0.000000000000000000, -1.000000000000000000 ) ) ;
#523 = EDGE_CURVE ( 'NONE', #455, #616, #63, .T. ) ;
#524 = ORIENTED_EDGE ( 'NONE', *, *, #516, .T. ) ;
#525 = PRODUCT ( '\X2\75356e90652f67b6\X0\', '\X2\75356e90652f67b6\X0\', '', ( #552 ) ) ;
#526 = DIRECTION ( 'NONE',  ( 0.000000000000000000, -1.000000000000000000, 0.000000000000000000 ) ) ;
#527 = VECTOR ( 'NONE', #195, 1000.000000000000000 ) ;
#528 = EDGE_LOOP ( 'NONE', ( #235, #40, #87, #162 ) ) ;
#529 = LINE ( 'NONE', #768, #301 ) ;
#530 = EDGE_LOOP ( 'NONE', ( #99, #571, #702, #43 ) ) ;
#531 = CARTESIAN_POINT ( 'NONE',  ( 74.00000000000000000, -7.000000000000000000, -2.000000000000000000 ) ) ;
#532 = EDGE_CURVE ( 'NONE', #279, #441, #699, .T. ) ;
#533 = ADVANCED_FACE ( 'NONE', ( #238 ), #546, .T. ) ;
#534 = PLANE ( 'NONE',  #187 ) ;
#535 = VECTOR ( 'NONE', #186, 1000.000000000000000 ) ;
#536 = DIRECTION ( 'NONE',  ( 0.000000000000000000, 0.000000000000000000, 1.000000000000000000 ) ) ;
#537 = ORIENTED_EDGE ( 'NONE', *, *, #116, .F. ) ;
#538 = CARTESIAN_POINT ( 'NONE',  ( 0.000000000000000000, -6.999999999999999112, -90.00000000000000000 ) ) ;
#539 = DIRECTION ( 'NONE',  ( 1.224646799147352961E-16, 0.000000000000000000, -1.000000000000000000 ) ) ;
#540 = DIRECTION ( 'NONE',  ( 0.000000000000000000, 0.000000000000000000, 1.000000000000000000 ) ) ;
#541 = ORIENTED_EDGE ( 'NONE', *, *, #685, .T. ) ;
#542 = DIRECTION ( 'NONE',  ( 0.000000000000000000, -1.000000000000000000, 0.000000000000000000 ) ) ;
#543 = AXIS2_PLACEMENT_3D ( 'NONE', #268, #140, #198 ) ;
#544 = LINE ( 'NONE', #366, #510 ) ;
#545 = PLANE ( 'NONE',  #484 ) ;
#546 = CYLINDRICAL_SURFACE ( 'NONE', #452, 2.000000000000000000 ) ;
#547 = VECTOR ( 'NONE', #333, 1000.000000000000000 ) ;
#548 = CARTESIAN_POINT ( 'NONE',  ( 8.000000000000001776, 2.000000000000001776, -63.00000000000000000 ) ) ;
#549 = LINE ( 'NONE', #261, #64 ) ;
#550 = DIRECTION ( 'NONE',  ( -1.000000000000000000, 0.000000000000000000, -0.000000000000000000 ) ) ;
#551 = FACE_OUTER_BOUND ( 'NONE', #740, .T. ) ;
#552 = PRODUCT_CONTEXT ( 'NONE', #575, 'mechanical' ) ;
#553 = DIRECTION ( 'NONE',  ( 0.000000000000000000, 0.000000000000000000, -1.000000000000000000 ) ) ;
#554 = LINE ( 'NONE', #670, #108 ) ;
#555 = VERTEX_POINT ( 'NONE', #4 ) ;
#556 = VERTEX_POINT ( 'NONE', #375 ) ;
#557 = DIRECTION ( 'NONE',  ( -0.000000000000000000, -1.000000000000000000, 0.000000000000000000 ) ) ;
#558 = VECTOR ( 'NONE', #678, 1000.000000000000000 ) ;
#559 = VECTOR ( 'NONE', #443, 1000.000000000000000 ) ;
#560 = ORIENTED_EDGE ( 'NONE', *, *, #518, .F. ) ;
#561 = DIRECTION ( 'NONE',  ( 0.000000000000000000, -0.000000000000000000, 1.000000000000000000 ) ) ;
#562 = VERTEX_POINT ( 'NONE', #415 ) ;
#563 = CARTESIAN_POINT ( 'NONE',  ( 2.000000000000000888, 2.000000000000001776, -90.00000000000000000 ) ) ;
#564 = VERTEX_POINT ( 'NONE', #154 ) ;
#565 = DIRECTION ( 'NONE',  ( 0.000000000000000000, 0.000000000000000000, 1.000000000000000000 ) ) ;
#566 = ORIENTED_EDGE ( 'NONE', *, *, #697, .F. ) ;
#567 = FILL_AREA_STYLE_COLOUR ( '', #129 ) ;
#568 = ORIENTED_EDGE ( 'NONE', *, *, #79, .T. ) ;
#569 = CARTESIAN_POINT ( 'NONE',  ( 2.000000000000009326, 2.000000000000001776, -2.000000000000001776 ) ) ;
#570 = EDGE_CURVE ( 'NONE', #562, #104, #480, .T. ) ;
#571 = ORIENTED_EDGE ( 'NONE', *, *, #48, .F. ) ;
#572 = EDGE_CURVE ( 'NONE', #643, #756, #191, .T. ) ;
#573 = ORIENTED_EDGE ( 'NONE', *, *, #89, .T. ) ;
#574 = VECTOR ( 'NONE', #706, 1000.000000000000000 ) ;
#575 = APPLICATION_CONTEXT ( 'automotive_design' ) ;
#576 = CARTESIAN_POINT ( 'NONE',  ( 72.00000000000000000, 20.00000000000000000, -0.000000000000000000 ) ) ;
#577 = VERTEX_POINT ( 'NONE', #429 ) ;
#578 = EDGE_CURVE ( 'NONE', #169, #616, #594, .T. ) ;
#579 = FACE_OUTER_BOUND ( 'NONE', #509, .T. ) ;
#580 = DIRECTION ( 'NONE',  ( 0.000000000000000000, -1.000000000000000000, 0.000000000000000000 ) ) ;
#581 = DIRECTION ( 'NONE',  ( 1.000000000000000000, -0.000000000000000000, 0.000000000000000000 ) ) ;
#582 = AXIS2_PLACEMENT_3D ( 'NONE', #431, #668, #149 ) ;
#583 = CARTESIAN_POINT ( 'NONE',  ( 2.000000000000000000, 20.00000000000000000, -90.00000000000000000 ) ) ;
#584 = ORIENTED_EDGE ( 'NONE', *, *, #210, .T. ) ;
#585 = ADVANCED_FACE ( 'NONE', ( #551 ), #252, .T. ) ;
#586 = DIRECTION ( 'NONE',  ( 1.000000000000000000, 0.000000000000000000, -2.275047181608927644E-16 ) ) ;
#587 = EDGE_CURVE ( 'NONE', #556, #564, #138, .T. ) ;
#588 = DIRECTION ( 'NONE',  ( -0.000000000000000000, -0.000000000000000000, 1.000000000000000000 ) ) ;
#589 = EDGE_CURVE ( 'NONE', #577, #471, #610, .T. ) ;
#590 = VERTEX_POINT ( 'NONE', #479 ) ;
#591 = DIRECTION ( 'NONE',  ( 1.000000000000000000, 0.000000000000000000, 0.000000000000000000 ) ) ;
#592 = VECTOR ( 'NONE', #405, 1000.000000000000000 ) ;
#593 = ORIENTED_EDGE ( 'NONE', *, *, #266, .T. ) ;
#594 = LINE ( 'NONE', #538, #224 ) ;
#595 = ADVANCED_FACE ( 'NONE', ( #302 ), #255, .F. ) ;
#596 = DIRECTION ( 'NONE',  ( -0.000000000000000000, 1.000000000000000000, -0.000000000000000000 ) ) ;
#597 = EDGE_LOOP ( 'NONE', ( #10, #521, #368, #593, #622, #131 ) ) ;
#598 = VERTEX_POINT ( 'NONE', #70 ) ;
#599 = CARTESIAN_POINT ( 'NONE',  ( 72.00000000000000000, 2.000000000000001776, -65.00000000000000000 ) ) ;
#600 = CYLINDRICAL_SURFACE ( 'NONE', #723, 1.000000000000000888 ) ;
#601 = CARTESIAN_POINT ( 'NONE',  ( 8.000000000000001776, 2.000000000000001776, -64.00000000000000000 ) ) ;
#602 = CARTESIAN_POINT ( 'NONE',  ( 2.000000000000009326, 2.000000000000001776, -2.000000000000001776 ) ) ;
#603 = DIRECTION ( 'NONE',  ( 0.000000000000000000, 1.000000000000000000, 0.000000000000000000 ) ) ;
#604 = VECTOR ( 'NONE', #539, 1000.000000000000000 ) ;
#605 = AXIS2_PLACEMENT_3D ( 'NONE', #601, #308, #200 ) ;
#606 = LINE ( 'NONE', #436, #475 ) ;
#607 = CARTESIAN_POINT ( 'NONE',  ( 7.000000000000000888, 2.000000000000001776, -64.00000000000000000 ) ) ;
#608 = LINE ( 'NONE', #621, #113 ) ;
#609 = ORIENTED_EDGE ( 'NONE', *, *, #332, .T. ) ;
#610 = LINE ( 'NONE', #599, #282 ) ;
#611 = AXIS2_PLACEMENT_3D ( 'NONE', #20, #263, #462 ) ;
#612 = FACE_OUTER_BOUND ( 'NONE', #392, .T. ) ;
#613 = PLANE ( 'NONE',  #53 ) ;
#614 = ORIENTED_EDGE ( 'NONE', *, *, #708, .F. ) ;
#615 = EDGE_CURVE ( 'NONE', #455, #744, #307, .T. ) ;
#616 = VERTEX_POINT ( 'NONE', #76 ) ;
#617 = CARTESIAN_POINT ( 'NONE',  ( 72.00000000000000000, 2.000000000000001776, 0.000000000000000000 ) ) ;
#618 = DIRECTION ( 'NONE',  ( 0.000000000000000000, 1.000000000000000000, 0.000000000000000000 ) ) ;
#619 = CARTESIAN_POINT ( 'NONE',  ( 0.000000000000000000, 2.000000000000001776, -90.00000000000000000 ) ) ;
#620 = ORIENTED_EDGE ( 'NONE', *, *, #572, .T. ) ;
#621 = CARTESIAN_POINT ( 'NONE',  ( 6.123233995736765296E-16, 0.000000000000000000, -5.000000000000000000 ) ) ;
#622 = ORIENTED_EDGE ( 'NONE', *, *, #311, .T. ) ;
#623 = DIRECTION ( 'NONE',  ( -0.000000000000000000, -1.000000000000000000, 0.000000000000000000 ) ) ;
#624 = AXIS2_PLACEMENT_3D ( 'NONE', #325, #85, #253 ) ;
#625 = VERTEX_POINT ( 'NONE', #490 ) ;
#626 = CARTESIAN_POINT ( 'NONE',  ( 72.00000000000000000, 20.00000000000000000, -90.00000000000000000 ) ) ;
#627 = ORIENTED_EDGE ( 'NONE', *, *, #648, .F. ) ;
#628 = DIRECTION ( 'NONE',  ( -0.000000000000000000, 1.000000000000000000, -0.000000000000000000 ) ) ;
#629 = AXIS2_PLACEMENT_3D ( 'NONE', #569, #165, #753 ) ;
#630 = VERTEX_POINT ( 'NONE', #147 ) ;
#631 = EDGE_LOOP ( 'NONE', ( #170, #47, #294, #92 ) ) ;
#632 = DIRECTION ( 'NONE',  ( 2.775557561562888984E-15, 0.000000000000000000, 1.000000000000000000 ) ) ;
#633 = ORIENTED_EDGE ( 'NONE', *, *, #466, .T. ) ;
#634 = ORIENTED_EDGE ( 'NONE', *, *, #316, .T. ) ;
#635 = LINE ( 'NONE', #442, #755 ) ;
#636 = LINE ( 'NONE', #111, #176 ) ;
#637 =( LENGTH_UNIT ( ) NAMED_UNIT ( * ) SI_UNIT ( .MILLI., .METRE. ) );
#638 = VECTOR ( 'NONE', #580, 1000.000000000000000 ) ;
#639 = VERTEX_POINT ( 'NONE', #84 ) ;
#640 = LINE ( 'NONE', #355, #98 ) ;
#641 = FACE_OUTER_BOUND ( 'NONE', #136, .T. ) ;
#642 = FACE_OUTER_BOUND ( 'NONE', #166, .T. ) ;
#643 = VERTEX_POINT ( 'NONE', #317 ) ;
#644 = DIRECTION ( 'NONE',  ( -0.000000000000000000, 1.000000000000000000, -0.000000000000000000 ) ) ;
#645 = AXIS2_PLACEMENT_3D ( 'NONE', #419, #658, #249 ) ;
#646 = CARTESIAN_POINT ( 'NONE',  ( 72.00000000000000000, 2.000000000000001776, -90.00000000000000000 ) ) ;
#647 = EDGE_CURVE ( 'NONE', #625, #471, #435, .T. ) ;
#648 = EDGE_CURVE ( 'NONE', #193, #577, #265, .T. ) ;
#649 = LINE ( 'NONE', #469, #15 ) ;
#650 = ADVANCED_FACE ( 'NONE', ( #674 ), #382, .T. ) ;
#651 = VECTOR ( 'NONE', #581, 1000.000000000000000 ) ;
#652 = ORIENTED_EDGE ( 'NONE', *, *, #713, .T. ) ;
#653 = FACE_OUTER_BOUND ( 'NONE', #631, .T. ) ;
#654 = CARTESIAN_POINT ( 'NONE',  ( 72.00000000000000000, 20.00000000000000000, 0.000000000000000000 ) ) ;
#655 = DIRECTION ( 'NONE',  ( 0.000000000000000000, -1.000000000000000000, 0.000000000000000000 ) ) ;
#656 = ORIENTED_EDGE ( 'NONE', *, *, #396, .T. ) ;
#657 =( GEOMETRIC_REPRESENTATION_CONTEXT ( 3 ) GLOBAL_UNCERTAINTY_ASSIGNED_CONTEXT ( ( #285 ) ) GLOBAL_UNIT_ASSIGNED_CONTEXT ( ( #637, #223, #446 ) ) REPRESENTATION_CONTEXT ( 'NONE', 'WORKASPACE' ) );
#658 = DIRECTION ( 'NONE',  ( 0.000000000000000000, -1.000000000000000000, 0.000000000000000000 ) ) ;
#659 = DIRECTION ( 'NONE',  ( 0.000000000000000000, 0.000000000000000000, -1.000000000000000000 ) ) ;
#660 = DIRECTION ( 'NONE',  ( 0.000000000000000000, 1.000000000000000000, -0.000000000000000000 ) ) ;
#661 = EDGE_LOOP ( 'NONE', ( #767, #236, #27, #345, #500, #627, #751, #541, #652 ) ) ;
#662 = CARTESIAN_POINT ( 'NONE',  ( 0.000000000000000000, -7.000000000000000000, -87.00000000000000000 ) ) ;
#663 = LINE ( 'NONE', #145, #422 ) ;
#664 = DIRECTION ( 'NONE',  ( 0.000000000000000000, 1.000000000000000000, -0.000000000000000000 ) ) ;
#665 = ADVANCED_FACE ( 'NONE', ( #653 ), #132, .F. ) ;
#666 = CIRCLE ( 'NONE', #543, 2.000000000000001776 ) ;
#667 = DIRECTION ( 'NONE',  ( -0.000000000000000000, 1.000000000000000000, -0.000000000000000000 ) ) ;
#668 = DIRECTION ( 'NONE',  ( -1.000000000000000000, 0.000000000000000000, 1.492999712930858920E-16 ) ) ;
#669 = EDGE_CURVE ( 'NONE', #639, #744, #501, .T. ) ;
#670 = CARTESIAN_POINT ( 'NONE',  ( 8.000000000000001776, 2.000000000000001776, -65.00000000000000000 ) ) ;
#671 = VERTEX_POINT ( 'NONE', #14 ) ;
#672 = LINE ( 'NONE', #389, #248 ) ;
#673 = ORIENTED_EDGE ( 'NONE', *, *, #246, .T. ) ;
#674 = FACE_OUTER_BOUND ( 'NONE', #142, .T. ) ;
#675 = CIRCLE ( 'NONE', #710, 2.000000000000000000 ) ;
#676 = CARTESIAN_POINT ( 'NONE',  ( 72.00000000000002842, 20.00000000000000000, -2.000000000000001776 ) ) ;
#677 = ADVANCED_FACE ( 'NONE', ( #374 ), #321, .T. ) ;
#678 = DIRECTION ( 'NONE',  ( -0.000000000000000000, 1.000000000000000000, -0.000000000000000000 ) ) ;
#679 = ORIENTED_EDGE ( 'NONE', *, *, #743, .T. ) ;
#680 = CARTESIAN_POINT ( 'NONE',  ( 0.000000000000000000, -7.000000000000000000, 0.000000000000000000 ) ) ;
#681 = SHAPE_DEFINITION_REPRESENTATION ( #55, #724 ) ;
#682 = LINE ( 'NONE', #160, #547 ) ;
#683 = CARTESIAN_POINT ( 'NONE',  ( 72.00000000000001421, 2.000000000000001776, -63.00000000000000000 ) ) ;
#684 = ORIENTED_EDGE ( 'NONE', *, *, #62, .F. ) ;
#685 = EDGE_CURVE ( 'NONE', #381, #277, #672, .T. ) ;
#686 = ORIENTED_EDGE ( 'NONE', *, *, #589, .T. ) ;
#687 = CARTESIAN_POINT ( 'NONE',  ( 0.000000000000000000, 2.000000000000001776, -65.00000000000000000 ) ) ;
#688 = VERTEX_POINT ( 'NONE', #733 ) ;
#689 = CARTESIAN_POINT ( 'NONE',  ( 74.00000000000000000, 0.000000000000000000, -5.000000000000000000 ) ) ;
#690 = CARTESIAN_POINT ( 'NONE',  ( 72.00000000000001421, 2.000000000000001776, -63.00000000000000000 ) ) ;
#691 = AXIS2_PLACEMENT_3D ( 'NONE', #626, #445, #565 ) ;
#692 = ORIENTED_EDGE ( 'NONE', *, *, #178, .T. ) ;
#693 = ORIENTED_EDGE ( 'NONE', *, *, #171, .T. ) ;
#694 = CARTESIAN_POINT ( 'NONE',  ( 8.000000000000001776, 2.000000000000001776, -65.00000000000000000 ) ) ;
#695 = VERTEX_POINT ( 'NONE', #74 ) ;
#696 = CARTESIAN_POINT ( 'NONE',  ( 2.000000000000000000, 20.00000000000000000, -92.00000000000000000 ) ) ;
#697 = EDGE_CURVE ( 'NONE', #69, #310, #377, .T. ) ;
#698 = ORIENTED_EDGE ( 'NONE', *, *, #89, .F. ) ;
#699 = LINE ( 'NONE', #117, #638 ) ;
#700 = AXIS2_PLACEMENT_3D ( 'NONE', #483, #260, #424 ) ;
#701 = VECTOR ( 'NONE', #522, 1000.000000000000000 ) ;
#702 = ORIENTED_EDGE ( 'NONE', *, *, #743, .F. ) ;
#703 = CARTESIAN_POINT ( 'NONE',  ( 0.000000000000000000, 20.00000000000000000, -90.00000000000000000 ) ) ;
#704 = CARTESIAN_POINT ( 'NONE',  ( 0.000000000000000000, 0.000000000000000000, 0.000000000000000000 ) ) ;
#705 = ORIENTED_EDGE ( 'NONE', *, *, #344, .F. ) ;
#706 = DIRECTION ( 'NONE',  ( -0.000000000000000000, 1.000000000000000000, -0.000000000000000000 ) ) ;
#707 = ADVANCED_FACE ( 'NONE', ( #32 ), #545, .T. ) ;
#708 = EDGE_CURVE ( 'NONE', #555, #734, #608, .T. ) ;
#709 = DIRECTION ( 'NONE',  ( -0.000000000000000000, 1.000000000000000000, -0.000000000000000000 ) ) ;
#710 = AXIS2_PLACEMENT_3D ( 'NONE', #233, #644, #127 ) ;
#711 = DIRECTION ( 'NONE',  ( -0.000000000000000000, 1.000000000000000000, -0.000000000000000000 ) ) ;
#712 = LINE ( 'NONE', #128, #651 ) ;
#713 = EDGE_CURVE ( 'NONE', #277, #327, #335, .T. ) ;
#714 = ORIENTED_EDGE ( 'NONE', *, *, #497, .T. ) ;
#715 = CARTESIAN_POINT ( 'NONE',  ( 0.000000000000000000, 20.00000000000000000, -65.00000000000000000 ) ) ;
#716 = CARTESIAN_POINT ( 'NONE',  ( 2.000000000000000000, -6.999999999999999112, -2.000000000000000000 ) ) ;
#717 = ORIENTED_EDGE ( 'NONE', *, *, #173, .T. ) ;
#718 = AXIS2_PLACEMENT_3D ( 'NONE', #256, #596, #134 ) ;
#719 = CARTESIAN_POINT ( 'NONE',  ( 74.00000000000000000, 20.00000000000000000, -90.00000000000000000 ) ) ;
#720 = DIRECTION ( 'NONE',  ( 0.000000000000000000, -1.000000000000000000, 0.000000000000000000 ) ) ;
#721 = CARTESIAN_POINT ( 'NONE',  ( 74.00000000000000000, -7.000000000000000000, 0.000000000000000000 ) ) ;
#722 = PRESENTATION_LAYER_ASSIGNMENT (  '', '', ( #181 ) ) ;
#723 = AXIS2_PLACEMENT_3D ( 'NONE', #491, #485, #361 ) ;
#724 = ADVANCED_BREP_SHAPE_REPRESENTATION ( '\X2\75356e90652f67b6\X0\', ( #322, #336 ), #454 ) ;
#725 =( NAMED_UNIT ( * ) PLANE_ANGLE_UNIT ( ) SI_UNIT ( $, .RADIAN. ) );
#726 = FACE_OUTER_BOUND ( 'NONE', #404, .T. ) ;
#727 = ADVANCED_FACE ( 'NONE', ( #218 ), #315, .T. ) ;
#728 = DIRECTION ( 'NONE',  ( 1.492999712930858674E-16, 0.000000000000000000, 1.000000000000000000 ) ) ;
#729 = CARTESIAN_POINT ( 'NONE',  ( 0.000000000000000000, 0.000000000000000000, -87.00000000000000000 ) ) ;
#730 = ADVANCED_FACE ( 'NONE', ( #97 ), #202, .F. ) ;
#731 = CARTESIAN_POINT ( 'NONE',  ( 74.00000000000000000, 20.00000000000000000, -2.000000000000000000 ) ) ;
#732 = CARTESIAN_POINT ( 'NONE',  ( 0.000000000000000000, -7.000000000000000000, 0.000000000000000000 ) ) ;
#733 = CARTESIAN_POINT ( 'NONE',  ( 72.00000000000001421, 2.000000000000001776, -63.00000000000000000 ) ) ;
#734 = VERTEX_POINT ( 'NONE', #689 ) ;
#735 = DIRECTION ( 'NONE',  ( 0.000000000000000000, 0.000000000000000000, 1.000000000000000000 ) ) ;
#736 = EDGE_CURVE ( 'NONE', #478, #471, #453, .T. ) ;
#737 = DIRECTION ( 'NONE',  ( 0.000000000000000000, -0.000000000000000000, -1.000000000000000000 ) ) ;
#738 = DIRECTION ( 'NONE',  ( -0.000000000000000000, 1.000000000000000000, -0.000000000000000000 ) ) ;
#739 = ORIENTED_EDGE ( 'NONE', *, *, #262, .T. ) ;
#740 = EDGE_LOOP ( 'NONE', ( #36, #220, #337, #614 ) ) ;
#741 = AXIS2_PLACEMENT_3D ( 'NONE', #359, #141, #550 ) ;
#742 = LINE ( 'NONE', #175, #334 ) ;
#743 = EDGE_CURVE ( 'NONE', #65, #630, #293, .T. ) ;
#744 = VERTEX_POINT ( 'NONE', #148 ) ;
#745 = DIRECTION ( 'NONE',  ( 1.000000000000000000, 0.000000000000000000, 0.000000000000000000 ) ) ;
#746 = ORIENTED_EDGE ( 'NONE', *, *, #194, .T. ) ;
#747 = DIRECTION ( 'NONE',  ( 1.000000000000000000, 0.000000000000000000, -0.000000000000000000 ) ) ;
#748 = ORIENTED_EDGE ( 'NONE', *, *, #570, .F. ) ;
#749 = VERTEX_POINT ( 'NONE', #654 ) ;
#750 = CIRCLE ( 'NONE', #410, 2.000000000000000000 ) ;
#751 = ORIENTED_EDGE ( 'NONE', *, *, #173, .F. ) ;
#752 = EDGE_LOOP ( 'NONE', ( #242, #50, #717, #384 ) ) ;
#753 = DIRECTION ( 'NONE',  ( 1.000000000000000000, 0.000000000000000000, 0.000000000000000000 ) ) ;
#754 = AXIS2_PLACEMENT_3D ( 'NONE', #88, #427, #158 ) ;
#755 = VECTOR ( 'NONE', #280, 1000.000000000000000 ) ;
#756 = VERTEX_POINT ( 'NONE', #548 ) ;
#757 = EDGE_LOOP ( 'NONE', ( #214, #101, #109, #183, #114, #174, #390, #684 ) ) ;
#758 = CARTESIAN_POINT ( 'NONE',  ( 6.123233995736765296E-16, -7.000000000000000000, -5.000000000000000000 ) ) ;
#759 = ADVANCED_FACE ( 'NONE', ( #133 ), #600, .T. ) ;
#760 = ORIENTED_EDGE ( 'NONE', *, *, #736, .T. ) ;
#761 = DIRECTION ( 'NONE',  ( -2.275047181608927644E-16, 0.000000000000000000, -1.000000000000000000 ) ) ;
#762 = VECTOR ( 'NONE', #161, 1000.000000000000000 ) ;
#763 = ORIENTED_EDGE ( 'NONE', *, *, #578, .F. ) ;
#764 = LINE ( 'NONE', #646, #574 ) ;
#765 = VECTOR ( 'NONE', #526, 1000.000000000000000 ) ;
#766 =( NAMED_UNIT ( * ) SI_UNIT ( $, .STERADIAN. ) SOLID_ANGLE_UNIT ( ) );
#767 = ORIENTED_EDGE ( 'NONE', *, *, #356, .T. ) ;
#768 = CARTESIAN_POINT ( 'NONE',  ( 2.000000000000000888, 2.000000000000001776, -90.00000000000000000 ) ) ;
#769 = EDGE_LOOP ( 'NONE', ( #395, #748, #507, #270 ) ) ;
#770 = DIRECTION ( 'NONE',  ( -0.000000000000000000, -1.000000000000000000, -0.000000000000000000 ) ) ;
ENDSEC;
END-ISO-10303-21;
