ISO-10303-21;
HEADER;
FILE_DESCRIPTION (( 'STEP AP214' ),
    '1' );
FILE_NAME ('µç³Ø²Öv2.STEP',
    '2026-07-29T10:36:37',
    ( '' ),
    ( '' ),
    'SwSTEP 2.0',
    'SolidWorks 2024',
    '' );
FILE_SCHEMA (( 'AUTOMOTIVE_DESIGN' ));
ENDSEC;

DATA;
#1 = ORIENTED_EDGE ( 'NONE', *, *, #415, .T. ) ;
#2 = DIRECTION ( 'NONE',  ( 0.000000000000000000, 0.000000000000000000, -1.000000000000000000 ) ) ;
#3 = DIRECTION ( 'NONE',  ( -0.000000000000000000, -1.000000000000000000, -0.000000000000000000 ) ) ;
#4 = CIRCLE ( 'NONE', #37, 1.449999999999999956 ) ;
#5 = ORIENTED_EDGE ( 'NONE', *, *, #95, .T. ) ;
#6 = CARTESIAN_POINT ( 'NONE',  ( 0.000000000000000000, 2.000000000000000000, -3.000000000000002665 ) ) ;
#7 = DIRECTION ( 'NONE',  ( 1.000000000000000000, 0.000000000000000000, -0.000000000000000000 ) ) ;
#8 = EDGE_CURVE ( 'NONE', #282, #566, #358, .T. ) ;
#9 = CIRCLE ( 'NONE', #24, 1.449999999999993294 ) ;
#10 = CARTESIAN_POINT ( 'NONE',  ( 80.00000000000000000, 2.000000000000000000, 0.000000000000000000 ) ) ;
#11 = ORIENTED_EDGE ( 'NONE', *, *, #317, .F. ) ;
#12 = LINE ( 'NONE', #935, #469 ) ;
#13 = FACE_OUTER_BOUND ( 'NONE', #579, .T. ) ;
#14 = FACE_OUTER_BOUND ( 'NONE', #406, .T. ) ;
#15 = EDGE_LOOP ( 'NONE', ( #577, #270, #642, #290 ) ) ;
#16 = DIRECTION ( 'NONE',  ( 8.659560562354932858E-17, -0.7071067811865474617, 0.7071067811865474617 ) ) ;
#17 = VERTEX_POINT ( 'NONE', #602 ) ;
#18 = EDGE_CURVE ( 'NONE', #538, #535, #615, .T. ) ;
#19 = ADVANCED_FACE ( 'NONE', ( #239 ), #204, .F. ) ;
#20 = DIRECTION ( 'NONE',  ( 0.000000000000000000, 0.000000000000000000, -1.000000000000000000 ) ) ;
#21 = LINE ( 'NONE', #79, #249 ) ;
#22 = ADVANCED_FACE ( 'NONE', ( #607 ), #887, .F. ) ;
#23 = PLANE ( 'NONE',  #567 ) ;
#24 = AXIS2_PLACEMENT_3D ( 'NONE', #756, #409, #394 ) ;
#25 = VECTOR ( 'NONE', #91, 1000.000000000000000 ) ;
#26 = CARTESIAN_POINT ( 'NONE',  ( 80.00000000000000000, 0.000000000000000000, 0.000000000000000000 ) ) ;
#27 = CARTESIAN_POINT ( 'NONE',  ( 67.50000000000000000, -1.734723475976807883E-15, -52.00000000000000711 ) ) ;
#28 = ORIENTED_EDGE ( 'NONE', *, *, #501, .T. ) ;
#29 = EDGE_CURVE ( 'NONE', #782, #276, #689, .T. ) ;
#30 = EDGE_CURVE ( 'NONE', #772, #285, #597, .T. ) ;
#31 = CONICAL_SURFACE ( 'NONE', #841, 1.774999999999998801, 0.7853981633974482790 ) ;
#32 = CARTESIAN_POINT ( 'NONE',  ( 0.000000000000000000, 0.000000000000000000, 0.000000000000000000 ) ) ;
#33 = CARTESIAN_POINT ( 'NONE',  ( 0.000000000000000000, 0.000000000000000000, 0.000000000000000000 ) ) ;
#34 = VERTEX_POINT ( 'NONE', #465 ) ;
#35 = CARTESIAN_POINT ( 'NONE',  ( 5.500000000000000000, 0.3250000000000006217, -4.449999999999999289 ) ) ;
#36 = VECTOR ( 'NONE', #527, 1000.000000000000000 ) ;
#37 = AXIS2_PLACEMENT_3D ( 'NONE', #188, #483, #758 ) ;
#38 = DIRECTION ( 'NONE',  ( 0.000000000000000000, 0.000000000000000000, -1.000000000000000000 ) ) ;
#39 = DIRECTION ( 'NONE',  ( 0.000000000000000000, 0.000000000000000000, 1.000000000000000000 ) ) ;
#40 = VERTEX_POINT ( 'NONE', #744 ) ;
#41 = EDGE_CURVE ( 'NONE', #772, #907, #680, .T. ) ;
#42 = DIRECTION ( 'NONE',  ( 0.000000000000000000, 0.000000000000000000, -1.000000000000000000 ) ) ;
#43 = DIRECTION ( 'NONE',  ( -0.000000000000000000, -1.000000000000000000, -0.000000000000000000 ) ) ;
#44 = CARTESIAN_POINT ( 'NONE',  ( 0.000000000000000000, 2.000000000000000000, 0.000000000000000000 ) ) ;
#45 = ORIENTED_EDGE ( 'NONE', *, *, #767, .T. ) ;
#46 = DIRECTION ( 'NONE',  ( 0.000000000000000000, 0.000000000000000000, -1.000000000000000000 ) ) ;
#47 = AXIS2_PLACEMENT_3D ( 'NONE', #152, #603, #734 ) ;
#48 = EDGE_CURVE ( 'NONE', #17, #587, #873, .T. ) ;
#49 = ORIENTED_EDGE ( 'NONE', *, *, #175, .F. ) ;
#50 = CARTESIAN_POINT ( 'NONE',  ( 0.000000000000000000, 3.000000000000000000, -3.000000000000002665 ) ) ;
#51 = LINE ( 'NONE', #343, #243 ) ;
#52 = ORIENTED_EDGE ( 'NONE', *, *, #245, .F. ) ;
#53 = DIRECTION ( 'NONE',  ( -0.000000000000000000, -1.000000000000000000, -0.000000000000000000 ) ) ;
#54 = AXIS2_PLACEMENT_3D ( 'NONE', #659, #155, #450 ) ;
#55 = ORIENTED_EDGE ( 'NONE', *, *, #472, .F. ) ;
#56 = CARTESIAN_POINT ( 'NONE',  ( 5.500000000000000000, 0.000000000000000000, -1.550000000000006706 ) ) ;
#57 = CARTESIAN_POINT ( 'NONE',  ( 74.50000000000001421, 0.3250000000000006217, -1.550000000000007150 ) ) ;
#58 = DIRECTION ( 'NONE',  ( 1.000000000000000000, 0.000000000000000000, 0.000000000000000000 ) ) ;
#59 = ORIENTED_EDGE ( 'NONE', *, *, #95, .F. ) ;
#60 = DIRECTION ( 'NONE',  ( 0.000000000000000000, 0.000000000000000000, -1.000000000000000000 ) ) ;
#61 = ORIENTED_EDGE ( 'NONE', *, *, #468, .T. ) ;
#62 = ADVANCED_FACE ( 'NONE', ( #318 ), #612, .F. ) ;
#63 = CARTESIAN_POINT ( 'NONE',  ( 67.50000000000000000, -1.734723475976807883E-15, -52.00000000000000711 ) ) ;
#64 = AXIS2_PLACEMENT_3D ( 'NONE', #555, #43, #413 ) ;
#65 = SHAPE_DEFINITION_REPRESENTATION ( #454, #70 ) ;
#66 = ORIENTED_EDGE ( 'NONE', *, *, #941, .F. ) ;
#67 = FACE_OUTER_BOUND ( 'NONE', #573, .T. ) ;
#68 = DIRECTION ( 'NONE',  ( 8.659560562354921765E-17, -0.7071067811865484609, 0.7071067811865465735 ) ) ;
#69 = ORIENTED_EDGE ( 'NONE', *, *, #415, .F. ) ;
#70 = ADVANCED_BREP_SHAPE_REPRESENTATION ( '\X2\75356c604ed3\X0\v2', ( #184, #777 ), #460 ) ;
#71 = CARTESIAN_POINT ( 'NONE',  ( 12.50000000000000000, 0.3250000000000006217, -50.55000000000000426 ) ) ;
#72 = EDGE_CURVE ( 'NONE', #907, #630, #751, .T. ) ;
#73 = ORIENTED_EDGE ( 'NONE', *, *, #850, .F. ) ;
#74 = CARTESIAN_POINT ( 'NONE',  ( 12.50000000000000000, -1.734723475976807883E-15, -52.00000000000000711 ) ) ;
#75 = ADVANCED_FACE ( 'NONE', ( #337 ), #755, .F. ) ;
#76 = ORIENTED_EDGE ( 'NONE', *, *, #508, .F. ) ;
#77 = AXIS2_PLACEMENT_3D ( 'NONE', #357, #584, #368 ) ;
#78 = ADVANCED_FACE ( 'NONE', ( #115 ), #915, .F. ) ;
#79 = CARTESIAN_POINT ( 'NONE',  ( 12.50000000000000000, -1.734723475976807883E-15, -53.77500000000000568 ) ) ;
#80 = CARTESIAN_POINT ( 'NONE',  ( 0.000000000000000000, 2.000000000000000000, -56.99999999999999289 ) ) ;
#81 = CARTESIAN_POINT ( 'NONE',  ( 0.000000000000000000, 0.000000000000000000, -60.00000000000000000 ) ) ;
#82 = VECTOR ( 'NONE', #809, 1000.000000000000000 ) ;
#83 = DIRECTION ( 'NONE',  ( 1.000000000000000000, -0.000000000000000000, 0.000000000000000000 ) ) ;
#84 = CARTESIAN_POINT ( 'NONE',  ( 74.50000000000001421, -1.734723475976807883E-15, -1.225000000000001199 ) ) ;
#85 = FACE_BOUND ( 'NONE', #174, .T. ) ;
#86 = AXIS2_PLACEMENT_3D ( 'NONE', #219, #140, #586 ) ;
#87 = CARTESIAN_POINT ( 'NONE',  ( 12.50000000000000000, 2.000000000000000000, -50.55000000000001137 ) ) ;
#88 = PLANE ( 'NONE',  #893 ) ;
#89 = DIRECTION ( 'NONE',  ( -0.000000000000000000, -1.000000000000000000, -0.000000000000000000 ) ) ;
#90 = ORIENTED_EDGE ( 'NONE', *, *, #865, .T. ) ;
#91 = DIRECTION ( 'NONE',  ( -0.000000000000000000, -1.000000000000000000, -0.000000000000000000 ) ) ;
#92 = ORIENTED_EDGE ( 'NONE', *, *, #500, .F. ) ;
#93 = AXIS2_PLACEMENT_3D ( 'NONE', #529, #164, #383 ) ;
#94 = CONICAL_SURFACE ( 'NONE', #170, 1.775000000000000577, 0.7853981633974469467 ) ;
#95 = EDGE_CURVE ( 'NONE', #538, #656, #762, .T. ) ;
#96 = DIRECTION ( 'NONE',  ( 0.000000000000000000, 1.000000000000000000, -0.000000000000000000 ) ) ;
#97 = DIRECTION ( 'NONE',  ( 0.000000000000000000, 0.000000000000000000, -1.000000000000000000 ) ) ;
#98 = LINE ( 'NONE', #390, #522 ) ;
#99 = ORIENTED_EDGE ( 'NONE', *, *, #294, .F. ) ;
#100 = DIRECTION ( 'NONE',  ( -0.000000000000000000, -1.000000000000000000, -0.000000000000000000 ) ) ;
#101 = CARTESIAN_POINT ( 'NONE',  ( 0.000000000000000000, 2.000000000000000000, -3.000000000000002665 ) ) ;
#102 = DIRECTION ( 'NONE',  ( 0.000000000000000000, 0.000000000000000000, -1.000000000000000000 ) ) ;
#103 = EDGE_LOOP ( 'NONE', ( #287, #557, #283, #860, #505, #520, #701, #715, #768, #459 ) ) ;
#104 = CONICAL_SURFACE ( 'NONE', #704, 1.774999999999998801, 0.7853981633974482790 ) ;
#105 = EDGE_CURVE ( 'NONE', #261, #673, #496, .T. ) ;
#106 = VECTOR ( 'NONE', #676, 1000.000000000000000 ) ;
#107 = ADVANCED_FACE ( 'NONE', ( #899 ), #258, .F. ) ;
#108 = CARTESIAN_POINT ( 'NONE',  ( 74.50000000000001421, 0.000000000000000000, -1.550000000000007150 ) ) ;
#109 = APPLICATION_PROTOCOL_DEFINITION ( 'draft international standard', 'automotive_design', 1998, #291 ) ;
#110 = ORIENTED_EDGE ( 'NONE', *, *, #743, .F. ) ;
#111 = PLANE ( 'NONE',  #726 ) ;
#112 = LINE ( 'NONE', #825, #808 ) ;
#113 = ORIENTED_EDGE ( 'NONE', *, *, #871, .T. ) ;
#114 = DIRECTION ( 'NONE',  ( -0.000000000000000000, -1.000000000000000000, -0.000000000000000000 ) ) ;
#115 = FACE_OUTER_BOUND ( 'NONE', #518, .T. ) ;
#116 = CARTESIAN_POINT ( 'NONE',  ( 5.500000000000000000, 0.000000000000000000, -3.000000000000000000 ) ) ;
#117 = ORIENTED_EDGE ( 'NONE', *, *, #259, .T. ) ;
#118 = PLANE ( 'NONE',  #423 ) ;
#119 = CARTESIAN_POINT ( 'NONE',  ( 77.00000000000000000, 3.000000000000000000, 0.000000000000000000 ) ) ;
#120 = AXIS2_PLACEMENT_3D ( 'NONE', #911, #397, #38 ) ;
#121 = ORIENTED_EDGE ( 'NONE', *, *, #840, .T. ) ;
#122 = LINE ( 'NONE', #619, #892 ) ;
#123 = VECTOR ( 'NONE', #203, 1000.000000000000000 ) ;
#124 = AXIS2_PLACEMENT_3D ( 'NONE', #668, #801, #163 ) ;
#125 = LINE ( 'NONE', #274, #288 ) ;
#126 =( NAMED_UNIT ( * ) SI_UNIT ( $, .STERADIAN. ) SOLID_ANGLE_UNIT ( ) );
#127 = VERTEX_POINT ( 'NONE', #189 ) ;
#128 = CARTESIAN_POINT ( 'NONE',  ( 74.50000000000001421, -1.734723475976807883E-15, -3.000000000000000000 ) ) ;
#129 = CIRCLE ( 'NONE', #769, 1.449999999999993294 ) ;
#130 = EDGE_LOOP ( 'NONE', ( #69, #515, #759, #99 ) ) ;
#131 = LINE ( 'NONE', #213, #269 ) ;
#132 = DIRECTION ( 'NONE',  ( -0.000000000000000000, -1.000000000000000000, -0.000000000000000000 ) ) ;
#133 = ORIENTED_EDGE ( 'NONE', *, *, #292, .T. ) ;
#134 = DIRECTION ( 'NONE',  ( -0.000000000000000000, -1.000000000000000000, -0.000000000000000000 ) ) ;
#135 = DIRECTION ( 'NONE',  ( 0.000000000000000000, 0.000000000000000000, -1.000000000000000000 ) ) ;
#136 = CARTESIAN_POINT ( 'NONE',  ( 12.50000000000000000, -1.734723475976807883E-15, -52.00000000000000711 ) ) ;
#137 = EDGE_CURVE ( 'NONE', #371, #673, #125, .T. ) ;
#138 = EDGE_LOOP ( 'NONE', ( #912, #212, #653, #605 ) ) ;
#139 = SURFACE_STYLE_USAGE ( .BOTH. , #532 ) ;
#140 = DIRECTION ( 'NONE',  ( -0.000000000000000000, -1.000000000000000000, -0.000000000000000000 ) ) ;
#141 = AXIS2_PLACEMENT_3D ( 'NONE', #714, #284, #932 ) ;
#142 = ORIENTED_EDGE ( 'NONE', *, *, #105, .F. ) ;
#143 = EDGE_CURVE ( 'NONE', #335, #384, #51, .T. ) ;
#144 = FACE_OUTER_BOUND ( 'NONE', #165, .T. ) ;
#145 = VERTEX_POINT ( 'NONE', #180 ) ;
#146 = AXIS2_PLACEMENT_3D ( 'NONE', #27, #458, #159 ) ;
#147 = ORIENTED_EDGE ( 'NONE', *, *, #137, .F. ) ;
#148 = DIRECTION ( 'NONE',  ( -0.000000000000000000, -1.000000000000000000, -0.000000000000000000 ) ) ;
#149 = VECTOR ( 'NONE', #906, 1000.000000000000000 ) ;
#150 = FACE_OUTER_BOUND ( 'NONE', #218, .T. ) ;
#151 = AXIS2_PLACEMENT_3D ( 'NONE', #422, #637, #760 ) ;
#152 = CARTESIAN_POINT ( 'NONE',  ( 5.500000000000000000, 0.3250000000000006217, -3.000000000000000000 ) ) ;
#153 = DIRECTION ( 'NONE',  ( -0.000000000000000000, -1.000000000000000000, -0.000000000000000000 ) ) ;
#154 = ORIENTED_EDGE ( 'NONE', *, *, #536, .F. ) ;
#155 = DIRECTION ( 'NONE',  ( -0.000000000000000000, -1.000000000000000000, -0.000000000000000000 ) ) ;
#156 = CLOSED_SHELL ( 'NONE', ( #678, #646, #348, #807, #401, #75, #162, #78, #628, #716, #62, #781, #891, #22, #922, #202, #533, #488, #693, #451, #281, #328, #250, #199, #909, #913, #419, #107, #19 ) ) ;
#157 = EDGE_CURVE ( 'NONE', #696, #478, #112, .T. ) ;
#158 = FACE_OUTER_BOUND ( 'NONE', #310, .T. ) ;
#159 = DIRECTION ( 'NONE',  ( 0.000000000000000000, 0.000000000000000000, -1.000000000000000000 ) ) ;
#160 = AXIS2_PLACEMENT_3D ( 'NONE', #848, #301, #784 ) ;
#161 = VERTEX_POINT ( 'NONE', #476 ) ;
#162 = ADVANCED_FACE ( 'NONE', ( #403 ), #682, .F. ) ;
#163 = DIRECTION ( 'NONE',  ( 0.000000000000000000, 0.000000000000000000, -1.000000000000000000 ) ) ;
#164 = DIRECTION ( 'NONE',  ( 0.000000000000000000, -1.000000000000000000, 0.000000000000000000 ) ) ;
#165 = EDGE_LOOP ( 'NONE', ( #431, #5, #822, #315, #710, #725 ) ) ;
#166 = DIRECTION ( 'NONE',  ( 0.000000000000000000, -1.000000000000000000, 0.000000000000000000 ) ) ;
#167 = EDGE_CURVE ( 'NONE', #510, #936, #333, .T. ) ;
#168 = FACE_OUTER_BOUND ( 'NONE', #467, .T. ) ;
#169 = EDGE_LOOP ( 'NONE', ( #356, #625, #482, #90 ) ) ;
#170 = AXIS2_PLACEMENT_3D ( 'NONE', #382, #172, #97 ) ;
#171 = CARTESIAN_POINT ( 'NONE',  ( 3.000000000000000444, 3.000000000000000000, -56.99999999999999289 ) ) ;
#172 = DIRECTION ( 'NONE',  ( -0.000000000000000000, -1.000000000000000000, -0.000000000000000000 ) ) ;
#173 = CARTESIAN_POINT ( 'NONE',  ( 5.500000000000000000, 2.000000000000000000, -3.000000000000000000 ) ) ;
#174 = EDGE_LOOP ( 'NONE', ( #210, #547 ) ) ;
#175 = EDGE_CURVE ( 'NONE', #752, #485, #264, .T. ) ;
#176 = AXIS2_PLACEMENT_3D ( 'NONE', #778, #709, #706 ) ;
#177 = ORIENTED_EDGE ( 'NONE', *, *, #361, .T. ) ;
#178 = VECTOR ( 'NONE', #381, 1000.000000000000000 ) ;
#179 = LINE ( 'NONE', #475, #369 ) ;
#180 = CARTESIAN_POINT ( 'NONE',  ( 5.500000000000000000, -1.734723475976807883E-15, -4.775000000000000355 ) ) ;
#181 = CARTESIAN_POINT ( 'NONE',  ( 80.00000000000000000, 3.000000000000000000, -60.00000000000000000 ) ) ;
#182 = ORIENTED_EDGE ( 'NONE', *, *, #72, .T. ) ;
#183 = CARTESIAN_POINT ( 'NONE',  ( 74.50000000000001421, 3.000000000000000000, -1.550000000000007150 ) ) ;
#184 = MANIFOLD_SOLID_BREP ( 'M3.5 ÂÝÎÆ¿×1', #156 ) ;
#185 = DIRECTION ( 'NONE',  ( 0.000000000000000000, -0.7071067811865439090, -0.7071067811865512365 ) ) ;
#186 = DIRECTION ( 'NONE',  ( 1.000000000000000000, -0.000000000000000000, 0.000000000000000000 ) ) ;
#187 = ORIENTED_EDGE ( 'NONE', *, *, #794, .T. ) ;
#188 = CARTESIAN_POINT ( 'NONE',  ( 12.50000000000000000, 0.3250000000000006217, -52.00000000000000711 ) ) ;
#189 = CARTESIAN_POINT ( 'NONE',  ( 0.000000000000000000, 3.000000000000000000, 0.000000000000000000 ) ) ;
#190 = LINE ( 'NONE', #484, #392 ) ;
#191 = VERTEX_POINT ( 'NONE', #425 ) ;
#192 = DIRECTION ( 'NONE',  ( -0.000000000000000000, -1.000000000000000000, -0.000000000000000000 ) ) ;
#193 = EDGE_CURVE ( 'NONE', #827, #901, #877, .T. ) ;
#194 = DIRECTION ( 'NONE',  ( 0.000000000000000000, 0.000000000000000000, 1.000000000000000000 ) ) ;
#195 = AXIS2_PLACEMENT_3D ( 'NONE', #690, #408, #694 ) ;
#196 = EDGE_LOOP ( 'NONE', ( #582, #113, #785, #495 ) ) ;
#197 = CARTESIAN_POINT ( 'NONE',  ( 12.50000000000000000, 2.000000000000000000, -52.00000000000000711 ) ) ;
#198 = AXIS2_PLACEMENT_3D ( 'NONE', #703, #53, #42 ) ;
#199 = ADVANCED_FACE ( 'NONE', ( #640 ), #503, .F. ) ;
#200 = EDGE_CURVE ( 'NONE', #594, #901, #583, .T. ) ;
#201 = ORIENTED_EDGE ( 'NONE', *, *, #143, .T. ) ;
#202 = ADVANCED_FACE ( 'NONE', ( #13 ), #88, .F. ) ;
#203 = DIRECTION ( 'NONE',  ( 0.000000000000000000, 0.000000000000000000, 1.000000000000000000 ) ) ;
#204 = CONICAL_SURFACE ( 'NONE', #323, 1.774999999999998801, 0.7853981633974536081 ) ;
#205 = CIRCLE ( 'NONE', #141, 1.449999999999993072 ) ;
#206 = APPLICATION_PROTOCOL_DEFINITION ( 'draft international standard', 'automotive_design', 1998, #647 ) ;
#207 = VERTEX_POINT ( 'NONE', #386 ) ;
#208 =( NAMED_UNIT ( * ) SI_UNIT ( $, .STERADIAN. ) SOLID_ANGLE_UNIT ( ) );
#209 = CARTESIAN_POINT ( 'NONE',  ( 67.50000000000000000, 2.000000000000000000, -53.44999999999999574 ) ) ;
#210 = ORIENTED_EDGE ( 'NONE', *, *, #517, .F. ) ;
#211 = EDGE_CURVE ( 'NONE', #656, #712, #729, .T. ) ;
#212 = ORIENTED_EDGE ( 'NONE', *, *, #798, .F. ) ;
#213 = CARTESIAN_POINT ( 'NONE',  ( 67.50000000000000000, 0.000000000000000000, -53.44999999999999574 ) ) ;
#214 = ORIENTED_EDGE ( 'NONE', *, *, #341, .T. ) ;
#215 = LINE ( 'NONE', #308, #227 ) ;
#216 = AXIS2_PLACEMENT_3D ( 'NONE', #796, #233, #447 ) ;
#217 = VECTOR ( 'NONE', #818, 1000.000000000000000 ) ;
#218 = EDGE_LOOP ( 'NONE', ( #354, #201, #851, #55 ) ) ;
#219 = CARTESIAN_POINT ( 'NONE',  ( 74.50000000000001421, -1.734723475976807883E-15, -3.000000000000000000 ) ) ;
#220 = VERTEX_POINT ( 'NONE', #883 ) ;
#221 = CARTESIAN_POINT ( 'NONE',  ( 0.000000000000000000, 2.000000000000000000, -60.00000000000000000 ) ) ;
#222 = EDGE_CURVE ( 'NONE', #220, #384, #658, .T. ) ;
#223 = ORIENTED_EDGE ( 'NONE', *, *, #464, .F. ) ;
#224 = CARTESIAN_POINT ( 'NONE',  ( 3.000000000000000444, 3.000000000000000000, 0.000000000000000000 ) ) ;
#225 = ORIENTED_EDGE ( 'NONE', *, *, #157, .T. ) ;
#226 = DIRECTION ( 'NONE',  ( 0.000000000000000000, 0.000000000000000000, -1.000000000000000000 ) ) ;
#227 = VECTOR ( 'NONE', #590, 1000.000000000000000 ) ;
#228 = ORIENTED_EDGE ( 'NONE', *, *, #761, .F. ) ;
#229 = DIRECTION ( 'NONE',  ( 0.000000000000000000, 0.000000000000000000, -1.000000000000000000 ) ) ;
#230 = ORIENTED_EDGE ( 'NONE', *, *, #654, .T. ) ;
#231 = DIRECTION ( 'NONE',  ( 0.000000000000000000, -1.000000000000000000, 0.000000000000000000 ) ) ;
#232 = CARTESIAN_POINT ( 'NONE',  ( 0.000000000000000000, 3.000000000000000000, -56.99999999999999289 ) ) ;
#233 = DIRECTION ( 'NONE',  ( -0.000000000000000000, -1.000000000000000000, -0.000000000000000000 ) ) ;
#234 = FILL_AREA_STYLE_COLOUR ( '', #934 ) ;
#235 = VECTOR ( 'NONE', #800, 1000.000000000000000 ) ;
#236 = DIRECTION ( 'NONE',  ( -1.000000000000000000, 0.000000000000000000, -0.000000000000000000 ) ) ;
#237 = CARTESIAN_POINT ( 'NONE',  ( 5.500000000000000000, 0.3250000000000006217, -1.550000000000000711 ) ) ;
#238 = EDGE_LOOP ( 'NONE', ( #441, #121, #177, #424 ) ) ;
#239 = FACE_OUTER_BOUND ( 'NONE', #691, .T. ) ;
#240 = DIRECTION ( 'NONE',  ( 0.000000000000000000, 0.000000000000000000, -1.000000000000000000 ) ) ;
#241 = DIRECTION ( 'NONE',  ( -1.000000000000000000, 0.000000000000000000, 0.000000000000000000 ) ) ;
#242 = ORIENTED_EDGE ( 'NONE', *, *, #167, .F. ) ;
#243 = VECTOR ( 'NONE', #254, 999.9999999999998863 ) ;
#244 = DIRECTION ( 'NONE',  ( 0.000000000000000000, 0.000000000000000000, 1.000000000000000000 ) ) ;
#245 = EDGE_CURVE ( 'NONE', #635, #677, #494, .T. ) ;
#246 = CYLINDRICAL_SURFACE ( 'NONE', #216, 1.449999999999993072 ) ;
#247 = CIRCLE ( 'NONE', #325, 1.449999999999993072 ) ;
#248 = ORIENTED_EDGE ( 'NONE', *, *, #193, .T. ) ;
#249 = VECTOR ( 'NONE', #473, 1000.000000000000114 ) ;
#250 = ADVANCED_FACE ( 'NONE', ( #158 ), #94, .F. ) ;
#251 =( LENGTH_UNIT ( ) NAMED_UNIT ( * ) SI_UNIT ( .MILLI., .METRE. ) );
#252 = ORIENTED_EDGE ( 'NONE', *, *, #793, .T. ) ;
#253 = VECTOR ( 'NONE', #442, 1000.000000000000000 ) ;
#254 = DIRECTION ( 'NONE',  ( 8.659560562354979697E-17, -0.7071067811865439090, 0.7071067811865512365 ) ) ;
#255 = CARTESIAN_POINT ( 'NONE',  ( 74.50000000000001421, 3.000000000000000000, -3.000000000000000000 ) ) ;
#256 = ORIENTED_EDGE ( 'NONE', *, *, #30, .T. ) ;
#257 = CARTESIAN_POINT ( 'NONE',  ( 0.000000000000000000, 3.000000000000000000, -3.000000000000002665 ) ) ;
#258 = CYLINDRICAL_SURFACE ( 'NONE', #120, 1.449999999999993072 ) ;
#259 = EDGE_CURVE ( 'NONE', #261, #207, #21, .T. ) ;
#260 = DIRECTION ( 'NONE',  ( 0.000000000000000000, -1.000000000000000000, 0.000000000000000000 ) ) ;
#261 = VERTEX_POINT ( 'NONE', #707 ) ;
#262 = DIRECTION ( 'NONE',  ( 0.000000000000000000, 0.000000000000000000, -1.000000000000000000 ) ) ;
#263 = VECTOR ( 'NONE', #266, 1000.000000000000000 ) ;
#264 = LINE ( 'NONE', #559, #609 ) ;
#265 = FACE_OUTER_BOUND ( 'NONE', #103, .T. ) ;
#266 = DIRECTION ( 'NONE',  ( -0.000000000000000000, -1.000000000000000000, -0.000000000000000000 ) ) ;
#267 = ORIENTED_EDGE ( 'NONE', *, *, #361, .F. ) ;
#268 = CARTESIAN_POINT ( 'NONE',  ( 74.50000000000001421, 0.3250000000000006217, -3.000000000000000000 ) ) ;
#269 = VECTOR ( 'NONE', #509, 1000.000000000000000 ) ;
#270 = ORIENTED_EDGE ( 'NONE', *, *, #372, .F. ) ;
#271 = CARTESIAN_POINT ( 'NONE',  ( 73.05000000000001137, 2.000000000000000000, -3.000000000000002665 ) ) ;
#272 = CIRCLE ( 'NONE', #549, 1.449999999999993072 ) ;
#273 = CONICAL_SURFACE ( 'NONE', #146, 1.774999999999998801, 0.7853981633974536081 ) ;
#274 = CARTESIAN_POINT ( 'NONE',  ( 12.50000000000000000, 0.000000000000000000, -50.55000000000001137 ) ) ;
#275 = EDGE_CURVE ( 'NONE', #772, #705, #404, .T. ) ;
#276 = VERTEX_POINT ( 'NONE', #849 ) ;
#277 = DIRECTION ( 'NONE',  ( 0.000000000000000000, 0.000000000000000000, -1.000000000000000000 ) ) ;
#278 = CIRCLE ( 'NONE', #198, 1.775000000000000577 ) ;
#279 = ORIENTED_EDGE ( 'NONE', *, *, #30, .F. ) ;
#280 = DIRECTION ( 'NONE',  ( 0.000000000000000000, 0.000000000000000000, -1.000000000000000000 ) ) ;
#281 = ADVANCED_FACE ( 'NONE', ( #821, #398, #265 ), #695, .F. ) ;
#282 = VERTEX_POINT ( 'NONE', #181 ) ;
#283 = ORIENTED_EDGE ( 'NONE', *, *, #464, .T. ) ;
#284 = DIRECTION ( 'NONE',  ( -0.000000000000000000, -1.000000000000000000, -0.000000000000000000 ) ) ;
#285 = VERTEX_POINT ( 'NONE', #560 ) ;
#286 = DIRECTION ( 'NONE',  ( -0.000000000000000000, -0.000000000000000000, 1.000000000000000000 ) ) ;
#287 = ORIENTED_EDGE ( 'NONE', *, *, #330, .T. ) ;
#288 = VECTOR ( 'NONE', #420, 1000.000000000000000 ) ;
#289 = DIRECTION ( 'NONE',  ( 0.000000000000000000, 0.000000000000000000, 1.000000000000000000 ) ) ;
#290 = ORIENTED_EDGE ( 'NONE', *, *, #222, .T. ) ;
#291 = APPLICATION_CONTEXT ( 'automotive_design' ) ;
#292 = EDGE_CURVE ( 'NONE', #34, #890, #685, .T. ) ;
#293 = CARTESIAN_POINT ( 'NONE',  ( 0.000000000000000000, 2.000000000000000000, -3.000000000000002665 ) ) ;
#294 = EDGE_CURVE ( 'NONE', #300, #17, #745, .T. ) ;
#295 = AXIS2_PLACEMENT_3D ( 'NONE', #771, #260, #428 ) ;
#296 = LINE ( 'NONE', #80, #898 ) ;
#297 = ORIENTED_EDGE ( 'NONE', *, *, #211, .T. ) ;
#298 = LINE ( 'NONE', #666, #633 ) ;
#299 = CONICAL_SURFACE ( 'NONE', #86, 1.774999999999998801, 0.7853981633974536081 ) ;
#300 = VERTEX_POINT ( 'NONE', #900 ) ;
#301 = DIRECTION ( 'NONE',  ( -0.000000000000000000, -1.000000000000000000, -0.000000000000000000 ) ) ;
#302 = ORIENTED_EDGE ( 'NONE', *, *, #544, .T. ) ;
#303 = DIRECTION ( 'NONE',  ( 0.000000000000000000, 0.000000000000000000, -1.000000000000000000 ) ) ;
#304 = CIRCLE ( 'NONE', #521, 1.449999999999993072 ) ;
#305 = CARTESIAN_POINT ( 'NONE',  ( 0.000000000000000000, 3.000000000000000000, -60.00000000000000000 ) ) ;
#306 = FACE_BOUND ( 'NONE', #601, .T. ) ;
#307 = EDGE_LOOP ( 'NONE', ( #448, #142, #117, #880 ) ) ;
#308 = CARTESIAN_POINT ( 'NONE',  ( 12.50000000000000000, 0.000000000000000000, -53.44999999999999574 ) ) ;
#309 = LINE ( 'NONE', #10, #783 ) ;
#310 = EDGE_LOOP ( 'NONE', ( #931, #345, #414, #252 ) ) ;
#311 = AXIS2_PLACEMENT_3D ( 'NONE', #578, #852, #859 ) ;
#312 = DIRECTION ( 'NONE',  ( 1.000000000000000000, -0.000000000000000000, 0.000000000000000000 ) ) ;
#313 = ORIENTED_EDGE ( 'NONE', *, *, #793, .F. ) ;
#314 = CARTESIAN_POINT ( 'NONE',  ( 80.00000000000000000, 3.000000000000000000, 0.000000000000000000 ) ) ;
#315 = ORIENTED_EDGE ( 'NONE', *, *, #341, .F. ) ;
#316 = MECHANICAL_DESIGN_GEOMETRIC_PRESENTATION_REPRESENTATION (  '', ( #720 ), #813 ) ;
#317 = EDGE_CURVE ( 'NONE', #936, #538, #938, .T. ) ;
#318 = FACE_OUTER_BOUND ( 'NONE', #562, .T. ) ;
#319 = CARTESIAN_POINT ( 'NONE',  ( 74.50000000000001421, 2.000000000000000000, -3.000000000000000000 ) ) ;
#320 = CARTESIAN_POINT ( 'NONE',  ( 77.00000000000000000, 3.000000000000000000, -56.99999999999999289 ) ) ;
#321 = CIRCLE ( 'NONE', #919, 1.774999999999998801 ) ;
#322 = ORIENTED_EDGE ( 'NONE', *, *, #8, .T. ) ;
#323 = AXIS2_PLACEMENT_3D ( 'NONE', #878, #100, #20 ) ;
#324 = ORIENTED_EDGE ( 'NONE', *, *, #222, .F. ) ;
#325 = AXIS2_PLACEMENT_3D ( 'NONE', #828, #347, #46 ) ;
#326 = CARTESIAN_POINT ( 'NONE',  ( 3.000000000000000444, 2.000000000000000000, -0.000000000000000000 ) ) ;
#327 = EDGE_CURVE ( 'NONE', #40, #371, #461, .T. ) ;
#328 = ADVANCED_FACE ( 'NONE', ( #477 ), #556, .F. ) ;
#329 = CARTESIAN_POINT ( 'NONE',  ( 5.500000000000000000, 0.000000000000000000, -3.000000000000000000 ) ) ;
#330 = EDGE_CURVE ( 'NONE', #677, #510, #826, .T. ) ;
#331 = ORIENTED_EDGE ( 'NONE', *, *, #362, .F. ) ;
#332 = DIRECTION ( 'NONE',  ( 0.000000000000000000, 0.000000000000000000, -1.000000000000000000 ) ) ;
#333 = LINE ( 'NONE', #623, #149 ) ;
#334 = DIRECTION ( 'NONE',  ( 0.000000000000000000, -0.000000000000000000, -1.000000000000000000 ) ) ;
#335 = VERTEX_POINT ( 'NONE', #480 ) ;
#336 = DIRECTION ( 'NONE',  ( 1.000000000000000000, -0.000000000000000000, 0.000000000000000000 ) ) ;
#337 = FACE_OUTER_BOUND ( 'NONE', #196, .T. ) ;
#338 = EDGE_CURVE ( 'NONE', #485, #827, #9, .T. ) ;
#339 = ORIENTED_EDGE ( 'NONE', *, *, #742, .T. ) ;
#340 = DIRECTION ( 'NONE',  ( 0.000000000000000000, 0.000000000000000000, -1.000000000000000000 ) ) ;
#341 = EDGE_CURVE ( 'NONE', #191, #696, #190, .T. ) ;
#342 = EDGE_CURVE ( 'NONE', #510, #191, #304, .T. ) ;
#343 = CARTESIAN_POINT ( 'NONE',  ( 67.50000000000000000, -1.734723475976807883E-15, -50.22500000000000853 ) ) ;
#344 = EDGE_CURVE ( 'NONE', #594, #145, #298, .T. ) ;
#345 = ORIENTED_EDGE ( 'NONE', *, *, #200, .F. ) ;
#346 =( NAMED_UNIT ( * ) PLANE_ANGLE_UNIT ( ) SI_UNIT ( $, .RADIAN. ) );
#347 = DIRECTION ( 'NONE',  ( 0.000000000000000000, -1.000000000000000000, 0.000000000000000000 ) ) ;
#348 = ADVANCED_FACE ( 'NONE', ( #596 ), #104, .F. ) ;
#349 = VECTOR ( 'NONE', #780, 1000.000000000000000 ) ;
#350 = ORIENTED_EDGE ( 'NONE', *, *, #499, .F. ) ;
#351 = LINE ( 'NONE', #650, #817 ) ;
#352 = DIRECTION ( 'NONE',  ( 0.000000000000000000, 0.000000000000000000, -1.000000000000000000 ) ) ;
#353 = UNCERTAINTY_MEASURE_WITH_UNIT (LENGTH_MEASURE( 1.000000000000000082E-05 ), #251, 'distance_accuracy_value', 'NONE');
#354 = ORIENTED_EDGE ( 'NONE', *, *, #786, .F. ) ;
#355 = CARTESIAN_POINT ( 'NONE',  ( 77.00000000000000000, 3.000000000000000000, -3.000000000000002665 ) ) ;
#356 = ORIENTED_EDGE ( 'NONE', *, *, #927, .T. ) ;
#357 = CARTESIAN_POINT ( 'NONE',  ( 0.000000000000000000, 3.000000000000000000, 0.000000000000000000 ) ) ;
#358 = LINE ( 'NONE', #305, #82 ) ;
#359 = EDGE_CURVE ( 'NONE', #161, #752, #930, .T. ) ;
#360 = CARTESIAN_POINT ( 'NONE',  ( 5.500000000000000000, 3.000000000000000000, -3.000000000000000000 ) ) ;
#361 = EDGE_CURVE ( 'NONE', #463, #207, #790, .T. ) ;
#362 = EDGE_CURVE ( 'NONE', #812, #282, #363, .T. ) ;
#363 = LINE ( 'NONE', #432, #595 ) ;
#364 = EDGE_CURVE ( 'NONE', #40, #261, #215, .T. ) ;
#365 = EDGE_CURVE ( 'NONE', #566, #379, #866, .T. ) ;
#366 = EDGE_LOOP ( 'NONE', ( #526, #302 ) ) ;
#367 = FACE_OUTER_BOUND ( 'NONE', #437, .T. ) ;
#368 = DIRECTION ( 'NONE',  ( 0.000000000000000000, 0.000000000000000000, 1.000000000000000000 ) ) ;
#369 = VECTOR ( 'NONE', #380, 1000.000000000000000 ) ;
#370 = VECTOR ( 'NONE', #528, 999.9999999999998863 ) ;
#371 = VERTEX_POINT ( 'NONE', #87 ) ;
#372 = EDGE_CURVE ( 'NONE', #396, #335, #272, .T. ) ;
#373 = CARTESIAN_POINT ( 'NONE',  ( 6.949999999999993072, 2.000000000000000000, -3.000000000000002665 ) ) ;
#374 = ORIENTED_EDGE ( 'NONE', *, *, #499, .T. ) ;
#375 = EDGE_CURVE ( 'NONE', #127, #300, #12, .T. ) ;
#376 = FACE_OUTER_BOUND ( 'NONE', #662, .T. ) ;
#377 = AXIS2_PLACEMENT_3D ( 'NONE', #426, #3, #60 ) ;
#378 = FACE_BOUND ( 'NONE', #491, .T. ) ;
#379 = VERTEX_POINT ( 'NONE', #81 ) ;
#380 = DIRECTION ( 'NONE',  ( -0.000000000000000000, -1.000000000000000000, -0.000000000000000000 ) ) ;
#381 = DIRECTION ( 'NONE',  ( -0.000000000000000000, -1.000000000000000000, -0.000000000000000000 ) ) ;
#382 = CARTESIAN_POINT ( 'NONE',  ( 5.500000000000000000, -1.734723475976807883E-15, -3.000000000000000000 ) ) ;
#383 = DIRECTION ( 'NONE',  ( 0.000000000000000000, -0.000000000000000000, -1.000000000000000000 ) ) ;
#384 = VERTEX_POINT ( 'NONE', #599 ) ;
#385 = PRODUCT_DEFINITION_FORMATION_WITH_SPECIFIED_SOURCE ( 'ä»', '', #671, .NOT_KNOWN. ) ;
#386 = CARTESIAN_POINT ( 'NONE',  ( 12.50000000000000000, -1.734723475976807883E-15, -53.77500000000000568 ) ) ;
#387 = CARTESIAN_POINT ( 'NONE',  ( 80.00000000000000000, 2.000000000000000000, -60.00000000000000000 ) ) ;
#388 = ORIENTED_EDGE ( 'NONE', *, *, #539, .F. ) ;
#389 = CIRCLE ( 'NONE', #393, 1.449999999999993738 ) ;
#390 = CARTESIAN_POINT ( 'NONE',  ( 67.50000000000000000, 0.000000000000000000, -50.55000000000001137 ) ) ;
#391 = ORIENTED_EDGE ( 'NONE', *, *, #365, .T. ) ;
#392 = VECTOR ( 'NONE', #132, 1000.000000000000000 ) ;
#393 = AXIS2_PLACEMENT_3D ( 'NONE', #173, #672, #395 ) ;
#394 = DIRECTION ( 'NONE',  ( 0.000000000000000000, 0.000000000000000000, 1.000000000000000000 ) ) ;
#395 = DIRECTION ( 'NONE',  ( 0.000000000000000000, 0.000000000000000000, -1.000000000000000000 ) ) ;
#396 = VERTEX_POINT ( 'NONE', #721 ) ;
#397 = DIRECTION ( 'NONE',  ( -0.000000000000000000, -1.000000000000000000, -0.000000000000000000 ) ) ;
#398 = FACE_BOUND ( 'NONE', #366, .T. ) ;
#399 = AXIS2_PLACEMENT_3D ( 'NONE', #627, #700, #340 ) ;
#400 = ORIENTED_EDGE ( 'NONE', *, *, #338, .F. ) ;
#401 = ADVANCED_FACE ( 'NONE', ( #150 ), #868, .F. ) ;
#402 = DIRECTION ( 'NONE',  ( 0.000000000000000000, -0.7071067811865439090, -0.7071067811865512365 ) ) ;
#403 = FACE_OUTER_BOUND ( 'NONE', #920, .T. ) ;
#404 = LINE ( 'NONE', #551, #764 ) ;
#405 = VECTOR ( 'NONE', #545, 1000.000000000000000 ) ;
#406 = EDGE_LOOP ( 'NONE', ( #665, #513, #331, #741 ) ) ;
#407 = CARTESIAN_POINT ( 'NONE',  ( 74.50000000000001421, -1.734723475976807883E-15, -4.774999999999998579 ) ) ;
#408 = DIRECTION ( 'NONE',  ( -0.000000000000000000, -1.000000000000000000, -0.000000000000000000 ) ) ;
#409 = DIRECTION ( 'NONE',  ( 0.000000000000000000, 1.000000000000000000, -0.000000000000000000 ) ) ;
#410 = ORIENTED_EDGE ( 'NONE', *, *, #850, .T. ) ;
#411 = PLANE ( 'NONE',  #492 ) ;
#412 = PRESENTATION_LAYER_ASSIGNMENT (  '', '', ( #720 ) ) ;
#413 = DIRECTION ( 'NONE',  ( 0.000000000000000000, 0.000000000000000000, -1.000000000000000000 ) ) ;
#414 = ORIENTED_EDGE ( 'NONE', *, *, #344, .T. ) ;
#415 = EDGE_CURVE ( 'NONE', #379, #300, #792, .T. ) ;
#416 = CARTESIAN_POINT ( 'NONE',  ( 4.050000000000006928, 3.000000000000000000, -3.000000000000002665 ) ) ;
#417 = EDGE_CURVE ( 'NONE', #904, #890, #444, .T. ) ;
#418 = AXIS2_PLACEMENT_3D ( 'NONE', #255, #620, #903 ) ;
#419 = ADVANCED_FACE ( 'NONE', ( #436 ), #31, .F. ) ;
#420 = DIRECTION ( 'NONE',  ( -0.000000000000000000, -1.000000000000000000, -0.000000000000000000 ) ) ;
#421 = ORIENTED_EDGE ( 'NONE', *, *, #364, .F. ) ;
#422 = CARTESIAN_POINT ( 'NONE',  ( 5.500000000000000000, 0.3250000000000006217, -3.000000000000000000 ) ) ;
#423 = AXIS2_PLACEMENT_3D ( 'NONE', #257, #554, #908 ) ;
#424 = ORIENTED_EDGE ( 'NONE', *, *, #259, .F. ) ;
#425 = CARTESIAN_POINT ( 'NONE',  ( 74.50000000000001421, 2.000000000000000000, -4.449999999999993072 ) ) ;
#426 = CARTESIAN_POINT ( 'NONE',  ( 74.50000000000001421, 0.3250000000000006217, -3.000000000000000000 ) ) ;
#427 = VECTOR ( 'NONE', #286, 1000.000000000000000 ) ;
#428 = DIRECTION ( 'NONE',  ( 0.000000000000000000, 0.000000000000000000, -1.000000000000000000 ) ) ;
#429 = CARTESIAN_POINT ( 'NONE',  ( 67.50000000000000000, -1.734723475976807883E-15, -52.00000000000000711 ) ) ;
#430 = DIRECTION ( 'NONE',  ( 1.000000000000000000, 0.000000000000000000, 0.000000000000000000 ) ) ;
#431 = ORIENTED_EDGE ( 'NONE', *, *, #317, .T. ) ;
#432 = CARTESIAN_POINT ( 'NONE',  ( 80.00000000000000000, 3.000000000000000000, 0.000000000000000000 ) ) ;
#433 = ORIENTED_EDGE ( 'NONE', *, *, #470, .T. ) ;
#434 = PLANE ( 'NONE',  #176 ) ;
#435 = VECTOR ( 'NONE', #312, 1000.000000000000000 ) ;
#436 = FACE_OUTER_BOUND ( 'NONE', #307, .T. ) ;
#437 = EDGE_LOOP ( 'NONE', ( #388, #279, #797, #648 ) ) ;
#438 = CYLINDRICAL_SURFACE ( 'NONE', #498, 1.449999999999993072 ) ;
#439 = ORIENTED_EDGE ( 'NONE', *, *, #500, .T. ) ;
#440 = DIRECTION ( 'NONE',  ( 1.000000000000000000, -0.000000000000000000, 0.000000000000000000 ) ) ;
#441 = ORIENTED_EDGE ( 'NONE', *, *, #588, .F. ) ;
#442 = DIRECTION ( 'NONE',  ( -0.000000000000000000, -1.000000000000000000, -0.000000000000000000 ) ) ;
#443 = ORIENTED_EDGE ( 'NONE', *, *, #327, .T. ) ;
#444 = LINE ( 'NONE', #293, #349 ) ;
#445 = VECTOR ( 'NONE', #68, 1000.000000000000000 ) ;
#446 = CARTESIAN_POINT ( 'NONE',  ( 0.000000000000000000, 3.000000000000000000, -56.99999999999999289 ) ) ;
#447 = DIRECTION ( 'NONE',  ( 0.000000000000000000, 0.000000000000000000, -1.000000000000000000 ) ) ;
#448 = ORIENTED_EDGE ( 'NONE', *, *, #840, .F. ) ;
#449 = AXIS2_PLACEMENT_3D ( 'NONE', #675, #96, #882 ) ;
#450 = DIRECTION ( 'NONE',  ( 0.000000000000000000, 0.000000000000000000, -1.000000000000000000 ) ) ;
#451 = ADVANCED_FACE ( 'NONE', ( #717, #376 ), #775, .T. ) ;
#452 = AXIS2_PLACEMENT_3D ( 'NONE', #268, #192, #135 ) ;
#453 = DIRECTION ( 'NONE',  ( 0.000000000000000000, 0.000000000000000000, -1.000000000000000000 ) ) ;
#454 = PRODUCT_DEFINITION_SHAPE ( 'NONE', 'NONE',  #487 ) ;
#455 = DIRECTION ( 'NONE',  ( -0.000000000000000000, -1.000000000000000000, -0.000000000000000000 ) ) ;
#456 = ORIENTED_EDGE ( 'NONE', *, *, #536, .T. ) ;
#457 = EDGE_CURVE ( 'NONE', #901, #502, #663, .T. ) ;
#458 = DIRECTION ( 'NONE',  ( -0.000000000000000000, -1.000000000000000000, -0.000000000000000000 ) ) ;
#459 = ORIENTED_EDGE ( 'NONE', *, *, #245, .T. ) ;
#460 =( GEOMETRIC_REPRESENTATION_CONTEXT ( 3 ) GLOBAL_UNCERTAINTY_ASSIGNED_CONTEXT ( ( #353 ) ) GLOBAL_UNIT_ASSIGNED_CONTEXT ( ( #251, #832, #126 ) ) REPRESENTATION_CONTEXT ( 'NONE', 'WORKASPACE' ) );
#461 = CIRCLE ( 'NONE', #295, 1.449999999999993072 ) ;
#462 = CARTESIAN_POINT ( 'NONE',  ( 6.949999999999993072, 3.000000000000000000, -3.000000000000002665 ) ) ;
#463 = VERTEX_POINT ( 'NONE', #872 ) ;
#464 = EDGE_CURVE ( 'NONE', #191, #904, #937, .T. ) ;
#465 = CARTESIAN_POINT ( 'NONE',  ( 77.00000000000000000, 2.000000000000000000, -56.99999999999999289 ) ) ;
#466 = CARTESIAN_POINT ( 'NONE',  ( 12.50000000000000000, 0.000000000000000000, -52.00000000000000711 ) ) ;
#467 = EDGE_LOOP ( 'NONE', ( #154, #789, #929, #421 ) ) ;
#468 = EDGE_CURVE ( 'NONE', #853, #677, #179, .T. ) ;
#469 = VECTOR ( 'NONE', #523, 1000.000000000000000 ) ;
#470 = EDGE_CURVE ( 'NONE', #901, #594, #657, .T. ) ;
#471 = DIRECTION ( 'NONE',  ( -0.000000000000000000, -1.000000000000000000, -0.000000000000000000 ) ) ;
#472 = EDGE_CURVE ( 'NONE', #396, #220, #493, .T. ) ;
#473 = DIRECTION ( 'NONE',  ( 0.000000000000000000, -0.7071067811865474617, -0.7071067811865474617 ) ) ;
#474 = ORIENTED_EDGE ( 'NONE', *, *, #41, .F. ) ;
#475 = CARTESIAN_POINT ( 'NONE',  ( 6.949999999999993072, 0.000000000000000000, -3.000000000000002665 ) ) ;
#476 = CARTESIAN_POINT ( 'NONE',  ( 3.000000000000000444, 2.000000000000000000, -3.000000000000002665 ) ) ;
#477 = FACE_OUTER_BOUND ( 'NONE', #699, .T. ) ;
#478 = VERTEX_POINT ( 'NONE', #407 ) ;
#479 = FACE_OUTER_BOUND ( 'NONE', #736, .T. ) ;
#480 = CARTESIAN_POINT ( 'NONE',  ( 67.50000000000000000, 0.3250000000000006217, -50.55000000000001137 ) ) ;
#481 = AXIS2_PLACEMENT_3D ( 'NONE', #329, #489, #629 ) ;
#482 = ORIENTED_EDGE ( 'NONE', *, *, #8, .F. ) ;
#483 = DIRECTION ( 'NONE',  ( -0.000000000000000000, -1.000000000000000000, -0.000000000000000000 ) ) ;
#484 = CARTESIAN_POINT ( 'NONE',  ( 74.50000000000001421, 0.000000000000000000, -4.449999999999993072 ) ) ;
#485 = VERTEX_POINT ( 'NONE', #416 ) ;
#486 = CARTESIAN_POINT ( 'NONE',  ( 77.00000000000000000, 3.000000000000000000, -3.000000000000002665 ) ) ;
#487 = PRODUCT_DEFINITION ( 'æœ', '', #385, #626 ) ;
#488 = ADVANCED_FACE ( 'NONE', ( #479 ), #111, .T. ) ;
#489 = DIRECTION ( 'NONE',  ( -0.000000000000000000, -1.000000000000000000, -0.000000000000000000 ) ) ;
#490 = CARTESIAN_POINT ( 'NONE',  ( 5.500000000000000000, 0.000000000000000000, -4.449999999999993960 ) ) ;
#491 = EDGE_LOOP ( 'NONE', ( #76, #267 ) ) ;
#492 = AXIS2_PLACEMENT_3D ( 'NONE', #622, #834, #262 ) ;
#493 = LINE ( 'NONE', #753, #684 ) ;
#494 = CIRCLE ( 'NONE', #858, 1.449999999999993738 ) ;
#495 = ORIENTED_EDGE ( 'NONE', *, *, #794, .F. ) ;
#496 = CIRCLE ( 'NONE', #64, 1.449999999999999956 ) ;
#497 = CARTESIAN_POINT ( 'NONE',  ( 0.000000000000000000, 3.000000000000000000, -60.00000000000000000 ) ) ;
#498 = AXIS2_PLACEMENT_3D ( 'NONE', #719, #644, #280 ) ;
#499 = EDGE_CURVE ( 'NONE', #535, #630, #122, .T. ) ;
#500 = EDGE_CURVE ( 'NONE', #535, #904, #766, .T. ) ;
#501 = EDGE_CURVE ( 'NONE', #502, #145, #278, .T. ) ;
#502 = VERTEX_POINT ( 'NONE', #692 ) ;
#503 = CYLINDRICAL_SURFACE ( 'NONE', #124, 1.449999999999993072 ) ;
#504 = LINE ( 'NONE', #770, #713 ) ;
#505 = ORIENTED_EDGE ( 'NONE', *, *, #292, .F. ) ;
#506 = DIRECTION ( 'NONE',  ( 0.000000000000000000, 0.000000000000000000, -1.000000000000000000 ) ) ;
#507 = ORIENTED_EDGE ( 'NONE', *, *, #470, .F. ) ;
#508 = EDGE_CURVE ( 'NONE', #207, #463, #799, .T. ) ;
#509 = DIRECTION ( 'NONE',  ( -0.000000000000000000, -1.000000000000000000, -0.000000000000000000 ) ) ;
#510 = VERTEX_POINT ( 'NONE', #271 ) ;
#511 = VECTOR ( 'NONE', #134, 1000.000000000000000 ) ;
#512 = CARTESIAN_POINT ( 'NONE',  ( 5.500000000000000000, -1.734723475976807883E-15, -1.224999999999999423 ) ) ;
#513 = ORIENTED_EDGE ( 'NONE', *, *, #865, .F. ) ;
#514 = CARTESIAN_POINT ( 'NONE',  ( 3.000000000000000444, 3.000000000000000000, -3.000000000000002665 ) ) ;
#515 = ORIENTED_EDGE ( 'NONE', *, *, #927, .F. ) ;
#516 = DIRECTION ( 'NONE',  ( 0.000000000000000000, 0.000000000000000000, -1.000000000000000000 ) ) ;
#517 = EDGE_CURVE ( 'NONE', #478, #712, #321, .T. ) ;
#518 = EDGE_LOOP ( 'NONE', ( #610, #248, #433, #66, #838, #875 ) ) ;
#519 = FACE_OUTER_BOUND ( 'NONE', #731, .T. ) ;
#520 = ORIENTED_EDGE ( 'NONE', *, *, #767, .F. ) ;
#521 = AXIS2_PLACEMENT_3D ( 'NONE', #319, #895, #546 ) ;
#522 = VECTOR ( 'NONE', #89, 1000.000000000000000 ) ;
#523 = DIRECTION ( 'NONE',  ( -0.000000000000000000, -1.000000000000000000, -0.000000000000000000 ) ) ;
#524 = ORIENTED_EDGE ( 'NONE', *, *, #517, .T. ) ;
#525 = CARTESIAN_POINT ( 'NONE',  ( 67.50000000000000000, -1.734723475976807883E-15, -52.00000000000000711 ) ) ;
#526 = ORIENTED_EDGE ( 'NONE', *, *, #29, .T. ) ;
#527 = DIRECTION ( 'NONE',  ( -0.000000000000000000, -1.000000000000000000, -0.000000000000000000 ) ) ;
#528 = DIRECTION ( 'NONE',  ( 8.659560562354979697E-17, -0.7071067811865439090, 0.7071067811865512365 ) ) ;
#529 = CARTESIAN_POINT ( 'NONE',  ( 0.000000000000000000, 0.000000000000000000, 0.000000000000000000 ) ) ;
#530 = EDGE_LOOP ( 'NONE', ( #59, #933, #439, #223, #214, #230 ) ) ;
#531 = VECTOR ( 'NONE', #194, 1000.000000000000000 ) ;
#532 = SURFACE_SIDE_STYLE ('',( #591 ) ) ;
#533 = ADVANCED_FACE ( 'NONE', ( #905 ), #411, .F. ) ;
#534 = CARTESIAN_POINT ( 'NONE',  ( 77.00000000000000000, 3.000000000000000000, -56.99999999999999289 ) ) ;
#535 = VERTEX_POINT ( 'NONE', #839 ) ;
#536 = EDGE_CURVE ( 'NONE', #371, #40, #763, .T. ) ;
#537 = CARTESIAN_POINT ( 'NONE',  ( 75.95000000000000284, 2.000000000000000000, -3.000000000000002665 ) ) ;
#538 = VERTEX_POINT ( 'NONE', #183 ) ;
#539 = EDGE_CURVE ( 'NONE', #285, #161, #558, .T. ) ;
#540 = AXIS2_PLACEMENT_3D ( 'NONE', #197, #563, #277 ) ;
#541 = CARTESIAN_POINT ( 'NONE',  ( 67.50000000000000000, 2.000000000000000000, -52.00000000000000711 ) ) ;
#542 = DIRECTION ( 'NONE',  ( -0.000000000000000000, -1.000000000000000000, -0.000000000000000000 ) ) ;
#543 = ORIENTED_EDGE ( 'NONE', *, *, #871, .F. ) ;
#544 = EDGE_CURVE ( 'NONE', #276, #782, #247, .T. ) ;
#545 = DIRECTION ( 'NONE',  ( 0.000000000000000000, 0.000000000000000000, -1.000000000000000000 ) ) ;
#546 = DIRECTION ( 'NONE',  ( 0.000000000000000000, 0.000000000000000000, -1.000000000000000000 ) ) ;
#547 = ORIENTED_EDGE ( 'NONE', *, *, #722, .F. ) ;
#548 = DIRECTION ( 'NONE',  ( 0.000000000000000000, 0.000000000000000000, -1.000000000000000000 ) ) ;
#549 = AXIS2_PLACEMENT_3D ( 'NONE', #652, #645, #226 ) ;
#550 = DIRECTION ( 'NONE',  ( 0.000000000000000000, 0.000000000000000000, -1.000000000000000000 ) ) ;
#551 = CARTESIAN_POINT ( 'NONE',  ( 3.000000000000000444, 3.000000000000000000, 0.000000000000000000 ) ) ;
#552 = DIRECTION ( 'NONE',  ( 0.000000000000000000, 0.000000000000000000, 1.000000000000000000 ) ) ;
#553 = ORIENTED_EDGE ( 'NONE', *, *, #41, .T. ) ;
#554 = DIRECTION ( 'NONE',  ( 0.000000000000000000, 0.000000000000000000, -1.000000000000000000 ) ) ;
#555 = CARTESIAN_POINT ( 'NONE',  ( 12.50000000000000000, 0.3250000000000006217, -52.00000000000000711 ) ) ;
#556 = CYLINDRICAL_SURFACE ( 'NONE', #748, 1.449999999999993738 ) ;
#557 = ORIENTED_EDGE ( 'NONE', *, *, #342, .T. ) ;
#558 = LINE ( 'NONE', #326, #123 ) ;
#559 = CARTESIAN_POINT ( 'NONE',  ( 4.050000000000006928, 0.000000000000000000, -3.000000000000002665 ) ) ;
#560 = CARTESIAN_POINT ( 'NONE',  ( 3.000000000000000444, 2.000000000000000000, -56.99999999999999289 ) ) ;
#561 = AXIS2_PLACEMENT_3D ( 'NONE', #525, #879, #102 ) ;
#562 = EDGE_LOOP ( 'NONE', ( #1, #917, #580, #391 ) ) ;
#563 = DIRECTION ( 'NONE',  ( 0.000000000000000000, -1.000000000000000000, 0.000000000000000000 ) ) ;
#564 = EDGE_CURVE ( 'NONE', #853, #936, #572, .T. ) ;
#565 = VECTOR ( 'NONE', #186, 1000.000000000000000 ) ;
#566 = VERTEX_POINT ( 'NONE', #497 ) ;
#567 = AXIS2_PLACEMENT_3D ( 'NONE', #604, #241, #896 ) ;
#568 = CARTESIAN_POINT ( 'NONE',  ( 75.95000000000000284, 0.000000000000000000, -3.000000000000002665 ) ) ;
#569 = ORIENTED_EDGE ( 'NONE', *, *, #761, .T. ) ;
#570 =( LENGTH_UNIT ( ) NAMED_UNIT ( * ) SI_UNIT ( .MILLI., .METRE. ) );
#571 = AXIS2_PLACEMENT_3D ( 'NONE', #861, #231, #548 ) ;
#572 = LINE ( 'NONE', #843, #589 ) ;
#573 = EDGE_LOOP ( 'NONE', ( #803, #297, #718, #897 ) ) ;
#574 = CARTESIAN_POINT ( 'NONE',  ( 0.000000000000000000, 2.000000000000000000, 0.000000000000000000 ) ) ;
#575 = ORIENTED_EDGE ( 'NONE', *, *, #72, .F. ) ;
#576 = CIRCLE ( 'NONE', #377, 1.449999999999993072 ) ;
#577 = ORIENTED_EDGE ( 'NONE', *, *, #143, .F. ) ;
#578 = CARTESIAN_POINT ( 'NONE',  ( 5.500000000000000000, -1.734723475976807883E-15, -3.000000000000000000 ) ) ;
#579 = EDGE_LOOP ( 'NONE', ( #45, #73, #474, #256 ) ) ;
#580 = ORIENTED_EDGE ( 'NONE', *, *, #787, .F. ) ;
#581 = CARTESIAN_POINT ( 'NONE',  ( 74.50000000000001421, -1.734723475976807883E-15, -1.225000000000001199 ) ) ;
#582 = ORIENTED_EDGE ( 'NONE', *, *, #544, .F. ) ;
#583 = CIRCLE ( 'NONE', #47, 1.449999999999999067 ) ;
#584 = DIRECTION ( 'NONE',  ( 0.000000000000000000, 1.000000000000000000, -0.000000000000000000 ) ) ;
#585 = ORIENTED_EDGE ( 'NONE', *, *, #105, .T. ) ;
#586 = DIRECTION ( 'NONE',  ( 0.000000000000000000, 0.000000000000000000, -1.000000000000000000 ) ) ;
#587 = VERTEX_POINT ( 'NONE', #688 ) ;
#588 = EDGE_CURVE ( 'NONE', #673, #261, #4, .T. ) ;
#589 = VECTOR ( 'NONE', #336, 1000.000000000000000 ) ;
#590 = DIRECTION ( 'NONE',  ( -0.000000000000000000, -1.000000000000000000, -0.000000000000000000 ) ) ;
#591 = SURFACE_STYLE_FILL_AREA ( #606 ) ;
#592 = EDGE_LOOP ( 'NONE', ( #11, #779, #618, #400, #776, #765, #553, #182, #350, #750 ) ) ;
#593 = DIRECTION ( 'NONE',  ( 0.000000000000000000, 0.000000000000000000, -1.000000000000000000 ) ) ;
#594 = VERTEX_POINT ( 'NONE', #35 ) ;
#595 = VECTOR ( 'NONE', #303, 1000.000000000000000 ) ;
#596 = FACE_OUTER_BOUND ( 'NONE', #238, .T. ) ;
#597 = LINE ( 'NONE', #171, #36 ) ;
#598 = PLANE ( 'NONE',  #93 ) ;
#599 = CARTESIAN_POINT ( 'NONE',  ( 67.50000000000000000, -1.734723475976807883E-15, -50.22500000000000853 ) ) ;
#600 = LINE ( 'NONE', #884, #435 ) ;
#601 = EDGE_LOOP ( 'NONE', ( #313, #621 ) ) ;
#602 = CARTESIAN_POINT ( 'NONE',  ( 80.00000000000000000, 0.000000000000000000, 0.000000000000000000 ) ) ;
#603 = DIRECTION ( 'NONE',  ( -0.000000000000000000, -1.000000000000000000, -0.000000000000000000 ) ) ;
#604 = CARTESIAN_POINT ( 'NONE',  ( 80.00000000000000000, 2.000000000000000000, 0.000000000000000000 ) ) ;
#605 = ORIENTED_EDGE ( 'NONE', *, *, #375, .T. ) ;
#606 = FILL_AREA_STYLE ('',( #234 ) ) ;
#607 = FACE_OUTER_BOUND ( 'NONE', #169, .T. ) ;
#608 = FACE_OUTER_BOUND ( 'NONE', #15, .T. ) ;
#609 = VECTOR ( 'NONE', #830, 1000.000000000000000 ) ;
#610 = ORIENTED_EDGE ( 'NONE', *, *, #338, .T. ) ;
#611 = VECTOR ( 'NONE', #697, 1000.000000000000000 ) ;
#612 = PLANE ( 'NONE',  #924 ) ;
#613 = CARTESIAN_POINT ( 'NONE',  ( 77.00000000000000000, 2.000000000000000000, -3.000000000000002665 ) ) ;
#614 = ORIENTED_EDGE ( 'NONE', *, *, #364, .T. ) ;
#615 = CIRCLE ( 'NONE', #449, 1.449999999999993072 ) ;
#616 = AXIS2_PLACEMENT_3D ( 'NONE', #574, #229, #921 ) ;
#617 = CARTESIAN_POINT ( 'NONE',  ( 77.00000000000000000, 2.000000000000000000, -0.000000000000000000 ) ) ;
#618 = ORIENTED_EDGE ( 'NONE', *, *, #742, .F. ) ;
#619 = CARTESIAN_POINT ( 'NONE',  ( 0.000000000000000000, 3.000000000000000000, -3.000000000000002665 ) ) ;
#620 = DIRECTION ( 'NONE',  ( 0.000000000000000000, 1.000000000000000000, -0.000000000000000000 ) ) ;
#621 = ORIENTED_EDGE ( 'NONE', *, *, #501, .F. ) ;
#622 = CARTESIAN_POINT ( 'NONE',  ( 77.00000000000000000, 3.000000000000000000, 0.000000000000000000 ) ) ;
#623 = CARTESIAN_POINT ( 'NONE',  ( 73.05000000000001137, 0.000000000000000000, -3.000000000000002665 ) ) ;
#624 = AXIS2_PLACEMENT_3D ( 'NONE', #44, #749, #334 ) ;
#625 = ORIENTED_EDGE ( 'NONE', *, *, #365, .F. ) ;
#626 = PRODUCT_DEFINITION_CONTEXT ( 'detailed design', #647, 'design' ) ;
#627 = CARTESIAN_POINT ( 'NONE',  ( 12.50000000000000000, -1.734723475976807883E-15, -52.00000000000000711 ) ) ;
#628 = ADVANCED_FACE ( 'NONE', ( #902 ), #118, .T. ) ;
#629 = DIRECTION ( 'NONE',  ( 0.000000000000000000, 0.000000000000000000, -1.000000000000000000 ) ) ;
#630 = VERTEX_POINT ( 'NONE', #486 ) ;
#631 = DIRECTION ( 'NONE',  ( 0.000000000000000000, 0.000000000000000000, -1.000000000000000000 ) ) ;
#632 = DIRECTION ( 'NONE',  ( -0.000000000000000000, -1.000000000000000000, -0.000000000000000000 ) ) ;
#633 = VECTOR ( 'NONE', #788, 1000.000000000000000 ) ;
#634 = CARTESIAN_POINT ( 'NONE',  ( 73.05000000000001137, 3.000000000000000000, -3.000000000000002665 ) ) ;
#635 = VERTEX_POINT ( 'NONE', #823 ) ;
#636 = VECTOR ( 'NONE', #16, 1000.000000000000114 ) ;
#637 = DIRECTION ( 'NONE',  ( -0.000000000000000000, -1.000000000000000000, -0.000000000000000000 ) ) ;
#638 = EDGE_CURVE ( 'NONE', #656, #696, #847, .T. ) ;
#639 = EDGE_LOOP ( 'NONE', ( #133, #228, #575, #410 ) ) ;
#640 = FACE_OUTER_BOUND ( 'NONE', #651, .T. ) ;
#641 = FACE_OUTER_BOUND ( 'NONE', #138, .T. ) ;
#642 = ORIENTED_EDGE ( 'NONE', *, *, #472, .T. ) ;
#643 = AXIS2_PLACEMENT_3D ( 'NONE', #836, #471, #550 ) ;
#644 = DIRECTION ( 'NONE',  ( -0.000000000000000000, -1.000000000000000000, -0.000000000000000000 ) ) ;
#645 = DIRECTION ( 'NONE',  ( -0.000000000000000000, -1.000000000000000000, -0.000000000000000000 ) ) ;
#646 = ADVANCED_FACE ( 'NONE', ( #144 ), #438, .F. ) ;
#647 = APPLICATION_CONTEXT ( 'automotive_design' ) ;
#648 = ORIENTED_EDGE ( 'NONE', *, *, #743, .T. ) ;
#649 = PRESENTATION_STYLE_ASSIGNMENT (( #139 ) ) ;
#650 = CARTESIAN_POINT ( 'NONE',  ( 3.000000000000000444, 3.000000000000000000, -3.000000000000002665 ) ) ;
#651 = EDGE_LOOP ( 'NONE', ( #543, #816, #187, #670 ) ) ;
#652 = CARTESIAN_POINT ( 'NONE',  ( 67.50000000000000000, 0.3250000000000006217, -52.00000000000000711 ) ) ;
#653 = ORIENTED_EDGE ( 'NONE', *, *, #886, .F. ) ;
#654 = EDGE_CURVE ( 'NONE', #696, #656, #576, .T. ) ;
#655 = DIRECTION ( 'NONE',  ( 0.000000000000000000, 1.000000000000000000, -0.000000000000000000 ) ) ;
#656 = VERTEX_POINT ( 'NONE', #57 ) ;
#657 = CIRCLE ( 'NONE', #151, 1.449999999999999067 ) ;
#658 = CIRCLE ( 'NONE', #698, 1.774999999999998801 ) ;
#659 = CARTESIAN_POINT ( 'NONE',  ( 12.50000000000000000, -1.734723475976807883E-15, -52.00000000000000711 ) ) ;
#660 = EDGE_LOOP ( 'NONE', ( #92, #374, #569, #842 ) ) ;
#661 = CARTESIAN_POINT ( 'NONE',  ( 74.50000000000001421, 0.3250000000000006217, -4.449999999999993072 ) ) ;
#662 = EDGE_LOOP ( 'NONE', ( #322, #819, #723, #833 ) ) ;
#663 = LINE ( 'NONE', #512, #445 ) ;
#664 = FACE_BOUND ( 'NONE', #940, .T. ) ;
#665 = ORIENTED_EDGE ( 'NONE', *, *, #48, .T. ) ;
#666 = CARTESIAN_POINT ( 'NONE',  ( 5.500000000000000000, -1.734723475976807883E-15, -4.775000000000000355 ) ) ;
#667 = CARTESIAN_POINT ( 'NONE',  ( 0.000000000000000000, 2.000000000000000000, -60.00000000000000000 ) ) ;
#668 = CARTESIAN_POINT ( 'NONE',  ( 67.50000000000000000, 0.000000000000000000, -52.00000000000000711 ) ) ;
#669 = LINE ( 'NONE', #737, #857 ) ;
#670 = ORIENTED_EDGE ( 'NONE', *, *, #372, .T. ) ;
#671 = PRODUCT ( '\X2\75356c604ed3\X0\v2', '\X2\75356c604ed3\X0\v2', '', ( #855 ) ) ;
#672 = DIRECTION ( 'NONE',  ( 0.000000000000000000, -1.000000000000000000, 0.000000000000000000 ) ) ;
#673 = VERTEX_POINT ( 'NONE', #71 ) ;
#674 = CIRCLE ( 'NONE', #311, 1.775000000000000577 ) ;
#675 = CARTESIAN_POINT ( 'NONE',  ( 74.50000000000001421, 3.000000000000000000, -3.000000000000000000 ) ) ;
#676 = DIRECTION ( 'NONE',  ( 1.000000000000000000, -0.000000000000000000, 0.000000000000000000 ) ) ;
#677 = VERTEX_POINT ( 'NONE', #373 ) ;
#678 = ADVANCED_FACE ( 'NONE', ( #67 ), #299, .F. ) ;
#679 = VECTOR ( 'NONE', #440, 1000.000000000000000 ) ;
#680 = LINE ( 'NONE', #446, #235 ) ;
#681 = LINE ( 'NONE', #874, #106 ) ;
#682 = CONICAL_SURFACE ( 'NONE', #195, 1.775000000000000577, 0.7853981633974469467 ) ;
#683 = ORIENTED_EDGE ( 'NONE', *, *, #211, .F. ) ;
#684 = VECTOR ( 'NONE', #402, 999.9999999999998863 ) ;
#685 = LINE ( 'NONE', #617, #217 ) ;
#686 = DIRECTION ( 'NONE',  ( -1.000000000000000000, -0.000000000000000000, -0.000000000000000000 ) ) ;
#687 = EDGE_LOOP ( 'NONE', ( #147, #774, #614, #585 ) ) ;
#688 = CARTESIAN_POINT ( 'NONE',  ( 80.00000000000000000, 0.000000000000000000, -60.00000000000000000 ) ) ;
#689 = CIRCLE ( 'NONE', #754, 1.449999999999993072 ) ;
#690 = CARTESIAN_POINT ( 'NONE',  ( 5.500000000000000000, -1.734723475976807883E-15, -3.000000000000000000 ) ) ;
#691 = EDGE_LOOP ( 'NONE', ( #683, #864, #225, #524 ) ) ;
#692 = CARTESIAN_POINT ( 'NONE',  ( 5.500000000000000000, -1.734723475976807883E-15, -1.224999999999999423 ) ) ;
#693 = ADVANCED_FACE ( 'NONE', ( #367 ), #863, .T. ) ;
#694 = DIRECTION ( 'NONE',  ( 0.000000000000000000, 0.000000000000000000, -1.000000000000000000 ) ) ;
#695 = PLANE ( 'NONE',  #624 ) ;
#696 = VERTEX_POINT ( 'NONE', #661 ) ;
#697 = DIRECTION ( 'NONE',  ( -0.000000000000000000, -1.000000000000000000, -0.000000000000000000 ) ) ;
#698 = AXIS2_PLACEMENT_3D ( 'NONE', #429, #888, #240 ) ;
#699 = EDGE_LOOP ( 'NONE', ( #867, #339, #61, #52, #862, #747 ) ) ;
#700 = DIRECTION ( 'NONE',  ( -0.000000000000000000, -1.000000000000000000, -0.000000000000000000 ) ) ;
#701 = ORIENTED_EDGE ( 'NONE', *, *, #539, .T. ) ;
#702 = AXIS2_PLACEMENT_3D ( 'NONE', #224, #430, #593 ) ;
#703 = CARTESIAN_POINT ( 'NONE',  ( 5.500000000000000000, -1.734723475976807883E-15, -3.000000000000000000 ) ) ;
#704 = AXIS2_PLACEMENT_3D ( 'NONE', #136, #711, #516 ) ;
#705 = VERTEX_POINT ( 'NONE', #514 ) ;
#706 = DIRECTION ( 'NONE',  ( -1.000000000000000000, 0.000000000000000000, -0.000000000000000000 ) ) ;
#707 = CARTESIAN_POINT ( 'NONE',  ( 12.50000000000000000, 0.3250000000000006217, -53.45000000000000284 ) ) ;
#708 = ORIENTED_EDGE ( 'NONE', *, *, #330, .F. ) ;
#709 = DIRECTION ( 'NONE',  ( 0.000000000000000000, 0.000000000000000000, -1.000000000000000000 ) ) ;
#710 = ORIENTED_EDGE ( 'NONE', *, *, #342, .F. ) ;
#711 = DIRECTION ( 'NONE',  ( -0.000000000000000000, -1.000000000000000000, -0.000000000000000000 ) ) ;
#712 = VERTEX_POINT ( 'NONE', #581 ) ;
#713 = VECTOR ( 'NONE', #289, 1000.000000000000000 ) ;
#714 = CARTESIAN_POINT ( 'NONE',  ( 67.50000000000000000, 0.3250000000000006217, -52.00000000000000711 ) ) ;
#715 = ORIENTED_EDGE ( 'NONE', *, *, #359, .T. ) ;
#716 = ADVANCED_FACE ( 'NONE', ( #519 ), #434, .T. ) ;
#717 = FACE_BOUND ( 'NONE', #592, .T. ) ;
#718 = ORIENTED_EDGE ( 'NONE', *, *, #722, .T. ) ;
#719 = CARTESIAN_POINT ( 'NONE',  ( 74.50000000000001421, 0.000000000000000000, -3.000000000000000000 ) ) ;
#720 = STYLED_ITEM ( 'NONE', ( #649 ), #184 ) ;
#721 = CARTESIAN_POINT ( 'NONE',  ( 67.50000000000000000, 0.3250000000000006217, -53.44999999999999574 ) ) ;
#722 = EDGE_CURVE ( 'NONE', #712, #478, #732, .T. ) ;
#723 = ORIENTED_EDGE ( 'NONE', *, *, #886, .T. ) ;
#724 = CARTESIAN_POINT ( 'NONE',  ( 3.000000000000000444, 3.000000000000000000, -56.99999999999999289 ) ) ;
#725 = ORIENTED_EDGE ( 'NONE', *, *, #167, .T. ) ;
#726 = AXIS2_PLACEMENT_3D ( 'NONE', #50, #631, #914 ) ;
#727 = DIRECTION ( 'NONE',  ( -0.000000000000000000, -1.000000000000000000, -0.000000000000000000 ) ) ;
#728 = CARTESIAN_POINT ( 'NONE',  ( 0.000000000000000000, 2.000000000000000000, 0.000000000000000000 ) ) ;
#729 = LINE ( 'NONE', #84, #370 ) ;
#730 = LINE ( 'NONE', #387, #916 ) ;
#731 = EDGE_LOOP ( 'NONE', ( #242, #708, #870, #806 ) ) ;
#732 = CIRCLE ( 'NONE', #160, 1.774999999999998801 ) ;
#733 = DIRECTION ( 'NONE',  ( 0.000000000000000000, 0.000000000000000000, -1.000000000000000000 ) ) ;
#734 = DIRECTION ( 'NONE',  ( 0.000000000000000000, 0.000000000000000000, -1.000000000000000000 ) ) ;
#735 = LINE ( 'NONE', #320, #25 ) ;
#736 = EDGE_LOOP ( 'NONE', ( #49, #926, #110, #846 ) ) ;
#737 = CARTESIAN_POINT ( 'NONE',  ( 0.000000000000000000, 0.000000000000000000, -60.00000000000000000 ) ) ;
#738 = VECTOR ( 'NONE', #58, 1000.000000000000000 ) ;
#739 = DIRECTION ( 'NONE',  ( 0.000000000000000000, 0.000000000000000000, -1.000000000000000000 ) ) ;
#740 = CARTESIAN_POINT ( 'NONE',  ( 5.500000000000000000, 3.000000000000000000, -1.550000000000006706 ) ) ;
#741 = ORIENTED_EDGE ( 'NONE', *, *, #798, .T. ) ;
#742 = EDGE_CURVE ( 'NONE', #827, #853, #129, .T. ) ;
#743 = EDGE_CURVE ( 'NONE', #705, #161, #351, .T. ) ;
#744 = CARTESIAN_POINT ( 'NONE',  ( 12.50000000000000000, 2.000000000000000000, -53.44999999999999574 ) ) ;
#745 = LINE ( 'NONE', #32, #738 ) ;
#746 = DIRECTION ( 'NONE',  ( 0.000000000000000000, 0.000000000000000000, -1.000000000000000000 ) ) ;
#747 = ORIENTED_EDGE ( 'NONE', *, *, #200, .T. ) ;
#748 = AXIS2_PLACEMENT_3D ( 'NONE', #116, #831, #352 ) ;
#749 = DIRECTION ( 'NONE',  ( 0.000000000000000000, -1.000000000000000000, 0.000000000000000000 ) ) ;
#750 = ORIENTED_EDGE ( 'NONE', *, *, #18, .F. ) ;
#751 = LINE ( 'NONE', #119, #531 ) ;
#752 = VERTEX_POINT ( 'NONE', #939 ) ;
#753 = CARTESIAN_POINT ( 'NONE',  ( 67.50000000000000000, -1.734723475976807883E-15, -53.77500000000000568 ) ) ;
#754 = AXIS2_PLACEMENT_3D ( 'NONE', #541, #814, #894 ) ;
#755 = CYLINDRICAL_SURFACE ( 'NONE', #643, 1.449999999999993072 ) ;
#756 = CARTESIAN_POINT ( 'NONE',  ( 5.500000000000000000, 3.000000000000000000, -3.000000000000000000 ) ) ;
#757 = ORIENTED_EDGE ( 'NONE', *, *, #344, .F. ) ;
#758 = DIRECTION ( 'NONE',  ( 0.000000000000000000, 0.000000000000000000, -1.000000000000000000 ) ) ;
#759 = ORIENTED_EDGE ( 'NONE', *, *, #48, .F. ) ;
#760 = DIRECTION ( 'NONE',  ( 0.000000000000000000, 0.000000000000000000, -1.000000000000000000 ) ) ;
#761 = EDGE_CURVE ( 'NONE', #630, #890, #791, .T. ) ;
#762 = LINE ( 'NONE', #108, #881 ) ;
#763 = CIRCLE ( 'NONE', #540, 1.449999999999993072 ) ;
#764 = VECTOR ( 'NONE', #39, 1000.000000000000000 ) ;
#765 = ORIENTED_EDGE ( 'NONE', *, *, #275, .F. ) ;
#766 = LINE ( 'NONE', #568, #611 ) ;
#767 = EDGE_CURVE ( 'NONE', #285, #34, #296, .T. ) ;
#768 = ORIENTED_EDGE ( 'NONE', *, *, #835, .T. ) ;
#769 = AXIS2_PLACEMENT_3D ( 'NONE', #360, #655, #869 ) ;
#770 = CARTESIAN_POINT ( 'NONE',  ( 0.000000000000000000, 3.000000000000000000, 0.000000000000000000 ) ) ;
#771 = CARTESIAN_POINT ( 'NONE',  ( 12.50000000000000000, 2.000000000000000000, -52.00000000000000711 ) ) ;
#772 = VERTEX_POINT ( 'NONE', #724 ) ;
#773 = PLANE ( 'NONE',  #616 ) ;
#774 = ORIENTED_EDGE ( 'NONE', *, *, #327, .F. ) ;
#775 = PLANE ( 'NONE',  #77 ) ;
#776 = ORIENTED_EDGE ( 'NONE', *, *, #804, .F. ) ;
#777 = AXIS2_PLACEMENT_3D ( 'NONE', #33, #552, #845 ) ;
#778 = CARTESIAN_POINT ( 'NONE',  ( 0.000000000000000000, 3.000000000000000000, -3.000000000000002665 ) ) ;
#779 = ORIENTED_EDGE ( 'NONE', *, *, #564, .F. ) ;
#780 = DIRECTION ( 'NONE',  ( 1.000000000000000000, -0.000000000000000000, 0.000000000000000000 ) ) ;
#781 = ADVANCED_FACE ( 'NONE', ( #641 ), #773, .F. ) ;
#782 = VERTEX_POINT ( 'NONE', #209 ) ;
#783 = VECTOR ( 'NONE', #153, 1000.000000000000000 ) ;
#784 = DIRECTION ( 'NONE',  ( 0.000000000000000000, 0.000000000000000000, -1.000000000000000000 ) ) ;
#785 = ORIENTED_EDGE ( 'NONE', *, *, #786, .T. ) ;
#786 = EDGE_CURVE ( 'NONE', #335, #396, #205, .T. ) ;
#787 = EDGE_CURVE ( 'NONE', #566, #127, #504, .T. ) ;
#788 = DIRECTION ( 'NONE',  ( 0.000000000000000000, -0.7071067811865484609, -0.7071067811865465735 ) ) ;
#789 = ORIENTED_EDGE ( 'NONE', *, *, #137, .T. ) ;
#790 = CIRCLE ( 'NONE', #54, 1.774999999999998801 ) ;
#791 = LINE ( 'NONE', #355, #253 ) ;
#792 = LINE ( 'NONE', #854, #427 ) ;
#793 = EDGE_CURVE ( 'NONE', #145, #502, #674, .T. ) ;
#794 = EDGE_CURVE ( 'NONE', #782, #396, #131, .T. ) ;
#795 = ORIENTED_EDGE ( 'NONE', *, *, #824, .F. ) ;
#796 = CARTESIAN_POINT ( 'NONE',  ( 12.50000000000000000, 0.000000000000000000, -52.00000000000000711 ) ) ;
#797 = ORIENTED_EDGE ( 'NONE', *, *, #275, .T. ) ;
#798 = EDGE_CURVE ( 'NONE', #812, #17, #309, .T. ) ;
#799 = CIRCLE ( 'NONE', #399, 1.774999999999998801 ) ;
#800 = DIRECTION ( 'NONE',  ( 1.000000000000000000, -0.000000000000000000, 0.000000000000000000 ) ) ;
#801 = DIRECTION ( 'NONE',  ( -0.000000000000000000, -1.000000000000000000, -0.000000000000000000 ) ) ;
#802 = CARTESIAN_POINT ( 'NONE',  ( 12.50000000000000000, -1.734723475976807883E-15, -50.22500000000000853 ) ) ;
#803 = ORIENTED_EDGE ( 'NONE', *, *, #638, .F. ) ;
#804 = EDGE_CURVE ( 'NONE', #705, #485, #600, .T. ) ;
#805 = FACE_OUTER_BOUND ( 'NONE', #130, .T. ) ;
#806 = ORIENTED_EDGE ( 'NONE', *, *, #564, .T. ) ;
#807 = ADVANCED_FACE ( 'NONE', ( #168 ), #815, .F. ) ;
#808 = VECTOR ( 'NONE', #185, 999.9999999999998863 ) ;
#809 = DIRECTION ( 'NONE',  ( -1.000000000000000000, 0.000000000000000000, 0.000000000000000000 ) ) ;
#810 = CARTESIAN_POINT ( 'NONE',  ( 5.500000000000000000, 2.000000000000000000, -3.000000000000000000 ) ) ;
#811 = LINE ( 'NONE', #802, #636 ) ;
#812 = VERTEX_POINT ( 'NONE', #314 ) ;
#813 =( GEOMETRIC_REPRESENTATION_CONTEXT ( 3 ) GLOBAL_UNCERTAINTY_ASSIGNED_CONTEXT ( ( #925 ) ) GLOBAL_UNIT_ASSIGNED_CONTEXT ( ( #570, #346, #208 ) ) REPRESENTATION_CONTEXT ( 'NONE', 'WORKASPACE' ) );
#814 = DIRECTION ( 'NONE',  ( 0.000000000000000000, -1.000000000000000000, 0.000000000000000000 ) ) ;
#815 = CYLINDRICAL_SURFACE ( 'NONE', #910, 1.449999999999993072 ) ;
#816 = ORIENTED_EDGE ( 'NONE', *, *, #29, .F. ) ;
#817 = VECTOR ( 'NONE', #148, 1000.000000000000000 ) ;
#818 = DIRECTION ( 'NONE',  ( 0.000000000000000000, 0.000000000000000000, 1.000000000000000000 ) ) ;
#819 = ORIENTED_EDGE ( 'NONE', *, *, #787, .T. ) ;
#820 = AXIS2_PLACEMENT_3D ( 'NONE', #63, #876, #506 ) ;
#821 = FACE_BOUND ( 'NONE', #856, .T. ) ;
#822 = ORIENTED_EDGE ( 'NONE', *, *, #638, .T. ) ;
#823 = CARTESIAN_POINT ( 'NONE',  ( 5.500000000000000000, 2.000000000000000000, -4.449999999999993960 ) ) ;
#824 = EDGE_CURVE ( 'NONE', #384, #220, #829, .T. ) ;
#825 = CARTESIAN_POINT ( 'NONE',  ( 74.50000000000001421, -1.734723475976807883E-15, -4.774999999999998579 ) ) ;
#826 = LINE ( 'NONE', #101, #565 ) ;
#827 = VERTEX_POINT ( 'NONE', #740 ) ;
#828 = CARTESIAN_POINT ( 'NONE',  ( 67.50000000000000000, 2.000000000000000000, -52.00000000000000711 ) ) ;
#829 = CIRCLE ( 'NONE', #561, 1.774999999999998801 ) ;
#830 = DIRECTION ( 'NONE',  ( 0.000000000000000000, 1.000000000000000000, 0.000000000000000000 ) ) ;
#831 = DIRECTION ( 'NONE',  ( -0.000000000000000000, -1.000000000000000000, -0.000000000000000000 ) ) ;
#832 =( NAMED_UNIT ( * ) PLANE_ANGLE_UNIT ( ) SI_UNIT ( $, .RADIAN. ) );
#833 = ORIENTED_EDGE ( 'NONE', *, *, #362, .T. ) ;
#834 = DIRECTION ( 'NONE',  ( 1.000000000000000000, 0.000000000000000000, 0.000000000000000000 ) ) ;
#835 = EDGE_CURVE ( 'NONE', #752, #635, #389, .T. ) ;
#836 = CARTESIAN_POINT ( 'NONE',  ( 67.50000000000000000, 0.000000000000000000, -52.00000000000000711 ) ) ;
#837 = LINE ( 'NONE', #490, #263 ) ;
#838 = ORIENTED_EDGE ( 'NONE', *, *, #835, .F. ) ;
#839 = CARTESIAN_POINT ( 'NONE',  ( 75.95000000000000284, 3.000000000000000000, -3.000000000000002665 ) ) ;
#840 = EDGE_CURVE ( 'NONE', #673, #463, #811, .T. ) ;
#841 = AXIS2_PLACEMENT_3D ( 'NONE', #74, #727, #733 ) ;
#842 = ORIENTED_EDGE ( 'NONE', *, *, #417, .F. ) ;
#843 = CARTESIAN_POINT ( 'NONE',  ( 0.000000000000000000, 3.000000000000000000, -3.000000000000002665 ) ) ;
#844 = AXIS2_PLACEMENT_3D ( 'NONE', #667, #244, #7 ) ;
#845 = DIRECTION ( 'NONE',  ( 1.000000000000000000, 0.000000000000000000, 0.000000000000000000 ) ) ;
#846 = ORIENTED_EDGE ( 'NONE', *, *, #804, .T. ) ;
#847 = CIRCLE ( 'NONE', #452, 1.449999999999993072 ) ;
#848 = CARTESIAN_POINT ( 'NONE',  ( 74.50000000000001421, -1.734723475976807883E-15, -3.000000000000000000 ) ) ;
#849 = CARTESIAN_POINT ( 'NONE',  ( 67.50000000000000000, 2.000000000000000000, -50.55000000000001137 ) ) ;
#850 = EDGE_CURVE ( 'NONE', #907, #34, #735, .T. ) ;
#851 = ORIENTED_EDGE ( 'NONE', *, *, #824, .T. ) ;
#852 = DIRECTION ( 'NONE',  ( -0.000000000000000000, -1.000000000000000000, -0.000000000000000000 ) ) ;
#853 = VERTEX_POINT ( 'NONE', #462 ) ;
#854 = CARTESIAN_POINT ( 'NONE',  ( 0.000000000000000000, 0.000000000000000000, 0.000000000000000000 ) ) ;
#855 = PRODUCT_CONTEXT ( 'NONE', #291, 'mechanical' ) ;
#856 = EDGE_LOOP ( 'NONE', ( #443, #456 ) ) ;
#857 = VECTOR ( 'NONE', #686, 1000.000000000000000 ) ;
#858 = AXIS2_PLACEMENT_3D ( 'NONE', #810, #166, #739 ) ;
#859 = DIRECTION ( 'NONE',  ( 0.000000000000000000, 0.000000000000000000, -1.000000000000000000 ) ) ;
#860 = ORIENTED_EDGE ( 'NONE', *, *, #417, .T. ) ;
#861 = CARTESIAN_POINT ( 'NONE',  ( 74.50000000000001421, 2.000000000000000000, -3.000000000000000000 ) ) ;
#862 = ORIENTED_EDGE ( 'NONE', *, *, #941, .T. ) ;
#863 = PLANE ( 'NONE',  #702 ) ;
#864 = ORIENTED_EDGE ( 'NONE', *, *, #654, .F. ) ;
#865 = EDGE_CURVE ( 'NONE', #282, #587, #730, .T. ) ;
#866 = LINE ( 'NONE', #221, #178 ) ;
#867 = ORIENTED_EDGE ( 'NONE', *, *, #193, .F. ) ;
#868 = CONICAL_SURFACE ( 'NONE', #820, 1.774999999999998801, 0.7853981633974536081 ) ;
#869 = DIRECTION ( 'NONE',  ( 0.000000000000000000, 0.000000000000000000, 1.000000000000000000 ) ) ;
#870 = ORIENTED_EDGE ( 'NONE', *, *, #468, .F. ) ;
#871 = EDGE_CURVE ( 'NONE', #276, #335, #98, .T. ) ;
#872 = CARTESIAN_POINT ( 'NONE',  ( 12.50000000000000000, -1.734723475976807883E-15, -50.22500000000000853 ) ) ;
#873 = LINE ( 'NONE', #26, #405 ) ;
#874 = CARTESIAN_POINT ( 'NONE',  ( 0.000000000000000000, 3.000000000000000000, 0.000000000000000000 ) ) ;
#875 = ORIENTED_EDGE ( 'NONE', *, *, #175, .T. ) ;
#876 = DIRECTION ( 'NONE',  ( -0.000000000000000000, -1.000000000000000000, -0.000000000000000000 ) ) ;
#877 = LINE ( 'NONE', #56, #511 ) ;
#878 = CARTESIAN_POINT ( 'NONE',  ( 74.50000000000001421, -1.734723475976807883E-15, -3.000000000000000000 ) ) ;
#879 = DIRECTION ( 'NONE',  ( -0.000000000000000000, -1.000000000000000000, -0.000000000000000000 ) ) ;
#880 = ORIENTED_EDGE ( 'NONE', *, *, #508, .T. ) ;
#881 = VECTOR ( 'NONE', #632, 1000.000000000000000 ) ;
#882 = DIRECTION ( 'NONE',  ( 0.000000000000000000, 0.000000000000000000, 1.000000000000000000 ) ) ;
#883 = CARTESIAN_POINT ( 'NONE',  ( 67.50000000000000000, -1.734723475976807883E-15, -53.77500000000000568 ) ) ;
#884 = CARTESIAN_POINT ( 'NONE',  ( 0.000000000000000000, 3.000000000000000000, -3.000000000000002665 ) ) ;
#885 = ORIENTED_EDGE ( 'NONE', *, *, #457, .T. ) ;
#886 = EDGE_CURVE ( 'NONE', #127, #812, #681, .T. ) ;
#887 = PLANE ( 'NONE',  #844 ) ;
#888 = DIRECTION ( 'NONE',  ( -0.000000000000000000, -1.000000000000000000, -0.000000000000000000 ) ) ;
#889 = FACE_OUTER_BOUND ( 'NONE', #687, .T. ) ;
#890 = VERTEX_POINT ( 'NONE', #613 ) ;
#891 = ADVANCED_FACE ( 'NONE', ( #14 ), #23, .F. ) ;
#892 = VECTOR ( 'NONE', #918, 1000.000000000000000 ) ;
#893 = AXIS2_PLACEMENT_3D ( 'NONE', #232, #2, #236 ) ;
#894 = DIRECTION ( 'NONE',  ( 0.000000000000000000, 0.000000000000000000, -1.000000000000000000 ) ) ;
#895 = DIRECTION ( 'NONE',  ( 0.000000000000000000, -1.000000000000000000, 0.000000000000000000 ) ) ;
#896 = DIRECTION ( 'NONE',  ( 0.000000000000000000, 0.000000000000000000, 1.000000000000000000 ) ) ;
#897 = ORIENTED_EDGE ( 'NONE', *, *, #157, .F. ) ;
#898 = VECTOR ( 'NONE', #928, 1000.000000000000000 ) ;
#899 = FACE_OUTER_BOUND ( 'NONE', #530, .T. ) ;
#900 = CARTESIAN_POINT ( 'NONE',  ( 0.000000000000000000, 0.000000000000000000, 0.000000000000000000 ) ) ;
#901 = VERTEX_POINT ( 'NONE', #237 ) ;
#902 = FACE_OUTER_BOUND ( 'NONE', #660, .T. ) ;
#903 = DIRECTION ( 'NONE',  ( 0.000000000000000000, 0.000000000000000000, 1.000000000000000000 ) ) ;
#904 = VERTEX_POINT ( 'NONE', #537 ) ;
#905 = FACE_OUTER_BOUND ( 'NONE', #639, .T. ) ;
#906 = DIRECTION ( 'NONE',  ( 0.000000000000000000, 1.000000000000000000, 0.000000000000000000 ) ) ;
#907 = VERTEX_POINT ( 'NONE', #534 ) ;
#908 = DIRECTION ( 'NONE',  ( -1.000000000000000000, 0.000000000000000000, -0.000000000000000000 ) ) ;
#909 = ADVANCED_FACE ( 'NONE', ( #608 ), #273, .F. ) ;
#910 = AXIS2_PLACEMENT_3D ( 'NONE', #466, #455, #746 ) ;
#911 = CARTESIAN_POINT ( 'NONE',  ( 74.50000000000001421, 0.000000000000000000, -3.000000000000000000 ) ) ;
#912 = ORIENTED_EDGE ( 'NONE', *, *, #294, .T. ) ;
#913 = ADVANCED_FACE ( 'NONE', ( #889 ), #246, .F. ) ;
#914 = DIRECTION ( 'NONE',  ( -1.000000000000000000, 0.000000000000000000, -0.000000000000000000 ) ) ;
#915 = CYLINDRICAL_SURFACE ( 'NONE', #481, 1.449999999999993738 ) ;
#916 = VECTOR ( 'NONE', #542, 1000.000000000000000 ) ;
#917 = ORIENTED_EDGE ( 'NONE', *, *, #375, .F. ) ;
#918 = DIRECTION ( 'NONE',  ( 1.000000000000000000, -0.000000000000000000, 0.000000000000000000 ) ) ;
#919 = AXIS2_PLACEMENT_3D ( 'NONE', #128, #114, #332 ) ;
#920 = EDGE_LOOP ( 'NONE', ( #507, #885, #28, #757 ) ) ;
#921 = DIRECTION ( 'NONE',  ( -1.000000000000000000, 0.000000000000000000, -0.000000000000000000 ) ) ;
#922 = ADVANCED_FACE ( 'NONE', ( #85, #378, #664, #306, #805 ), #598, .T. ) ;
#923 = PRODUCT_RELATED_PRODUCT_CATEGORY ( 'part', '', ( #671 ) ) ;
#924 = AXIS2_PLACEMENT_3D ( 'NONE', #728, #83, #453 ) ;
#925 = UNCERTAINTY_MEASURE_WITH_UNIT (LENGTH_MEASURE( 1.000000000000000082E-05 ), #570, 'distance_accuracy_value', 'NONE');
#926 = ORIENTED_EDGE ( 'NONE', *, *, #359, .F. ) ;
#927 = EDGE_CURVE ( 'NONE', #587, #379, #669, .T. ) ;
#928 = DIRECTION ( 'NONE',  ( 1.000000000000000000, -0.000000000000000000, 0.000000000000000000 ) ) ;
#929 = ORIENTED_EDGE ( 'NONE', *, *, #588, .T. ) ;
#930 = LINE ( 'NONE', #6, #679 ) ;
#931 = ORIENTED_EDGE ( 'NONE', *, *, #457, .F. ) ;
#932 = DIRECTION ( 'NONE',  ( 0.000000000000000000, 0.000000000000000000, -1.000000000000000000 ) ) ;
#933 = ORIENTED_EDGE ( 'NONE', *, *, #18, .T. ) ;
#934 = COLOUR_RGB ( '',0.7921568627450980005, 0.8196078431372548767, 0.9333333333333333481 ) ;
#935 = CARTESIAN_POINT ( 'NONE',  ( 0.000000000000000000, 2.000000000000000000, 0.000000000000000000 ) ) ;
#936 = VERTEX_POINT ( 'NONE', #634 ) ;
#937 = CIRCLE ( 'NONE', #571, 1.449999999999993072 ) ;
#938 = CIRCLE ( 'NONE', #418, 1.449999999999993072 ) ;
#939 = CARTESIAN_POINT ( 'NONE',  ( 4.050000000000006928, 2.000000000000000000, -3.000000000000002665 ) ) ;
#940 = EDGE_LOOP ( 'NONE', ( #324, #795 ) ) ;
#941 = EDGE_CURVE ( 'NONE', #635, #594, #837, .T. ) ;
ENDSEC;
END-ISO-10303-21;
