ISO-10303-21;
HEADER;
FILE_DESCRIPTION (( 'STEP AP214' ),
    '1' );
FILE_NAME ('¹ÜµÀÖ§¼Ü1.STEP',
    '2026-07-29T04:43:24',
    ( '' ),
    ( '' ),
    'SwSTEP 2.0',
    'SolidWorks 2024',
    '' );
FILE_SCHEMA (( 'AUTOMOTIVE_DESIGN' ));
ENDSEC;

DATA;
#1 = FACE_OUTER_BOUND ( 'NONE', #475, .T. ) ;
#2 = CIRCLE ( 'NONE', #341, 2.099999999999990763 ) ;
#3 = ORIENTED_EDGE ( 'NONE', *, *, #174, .T. ) ;
#4 = DIRECTION ( 'NONE',  ( 0.000000000000000000, 0.000000000000000000, 1.000000000000000000 ) ) ;
#5 = DIRECTION ( 'NONE',  ( 0.000000000000000000, -0.000000000000000000, -1.000000000000000000 ) ) ;
#6 = DIRECTION ( 'NONE',  ( -0.000000000000000000, -1.000000000000000000, -0.000000000000000000 ) ) ;
#7 = ADVANCED_FACE ( 'NONE', ( #187, #196 ), #408, .F. ) ;
#8 = DIRECTION ( 'NONE',  ( 1.000000000000000000, 0.000000000000000000, 0.000000000000000000 ) ) ;
#9 = AXIS2_PLACEMENT_3D ( 'NONE', #72, #242, #645 ) ;
#10 = AXIS2_PLACEMENT_3D ( 'NONE', #377, #661, #161 ) ;
#11 = EDGE_CURVE ( 'NONE', #159, #154, #86, .T. ) ;
#12 = ORIENTED_EDGE ( 'NONE', *, *, #219, .F. ) ;
#13 = DIRECTION ( 'NONE',  ( 1.000000000000000000, 0.000000000000000000, 0.000000000000000000 ) ) ;
#14 = CARTESIAN_POINT ( 'NONE',  ( 50.00000000000000000, 2.000000000000000000, 0.000000000000000000 ) ) ;
#15 = EDGE_CURVE ( 'NONE', #139, #19, #357, .T. ) ;
#16 = ORIENTED_EDGE ( 'NONE', *, *, #537, .F. ) ;
#17 = CARTESIAN_POINT ( 'NONE',  ( 36.00000000000000711, 12.00000000000000178, -14.00000000000000533 ) ) ;
#18 = DIRECTION ( 'NONE',  ( -0.000000000000000000, -1.000000000000000000, -0.000000000000000000 ) ) ;
#19 = VERTEX_POINT ( 'NONE', #39 ) ;
#20 = ADVANCED_FACE ( 'NONE', ( #693 ), #152, .F. ) ;
#21 = VECTOR ( 'NONE', #260, 1000.000000000000000 ) ;
#22 = AXIS2_PLACEMENT_3D ( 'NONE', #559, #676, #67 ) ;
#23 = CARTESIAN_POINT ( 'NONE',  ( 43.50000000000000000, -1.734723475976807883E-15, -9.525000000000000355 ) ) ;
#24 = EDGE_LOOP ( 'NONE', ( #498, #130, #656, #384 ) ) ;
#25 = PRODUCT_DEFINITION ( 'æœ', '', #321, #619 ) ;
#26 = DIRECTION ( 'NONE',  ( 1.000000000000000000, 0.000000000000000000, 0.000000000000000000 ) ) ;
#27 = EDGE_LOOP ( 'NONE', ( #241, #602, #205, #521 ) ) ;
#28 = CARTESIAN_POINT ( 'NONE',  ( 0.000000000000000000, 0.000000000000000000, 0.000000000000000000 ) ) ;
#29 = DIRECTION ( 'NONE',  ( 8.659560562355057350E-17, -0.7071067811865374697, 0.7071067811865576758 ) ) ;
#30 = ORIENTED_EDGE ( 'NONE', *, *, #611, .F. ) ;
#31 = CARTESIAN_POINT ( 'NONE',  ( 20.41742430504416461, 2.000000000000000444, -14.00000000000000533 ) ) ;
#32 = CARTESIAN_POINT ( 'NONE',  ( 0.000000000000000000, 0.000000000000000000, 0.000000000000000000 ) ) ;
#33 = EDGE_CURVE ( 'NONE', #280, #339, #360, .T. ) ;
#34 = AXIS2_PLACEMENT_3D ( 'NONE', #332, #18, #556 ) ;
#35 = ORIENTED_EDGE ( 'NONE', *, *, #508, .T. ) ;
#36 = ORIENTED_EDGE ( 'NONE', *, *, #631, .T. ) ;
#37 = ORIENTED_EDGE ( 'NONE', *, *, #624, .T. ) ;
#38 = LINE ( 'NONE', #28, #457 ) ;
#39 = CARTESIAN_POINT ( 'NONE',  ( 43.50000000000000000, 0.4249999999999948264, -9.099999999999992539 ) ) ;
#40 = ADVANCED_FACE ( 'NONE', ( #587 ), #515, .F. ) ;
#41 = EDGE_LOOP ( 'NONE', ( #678, #653, #176, #510 ) ) ;
#42 = DIRECTION ( 'NONE',  ( 1.000000000000000000, 0.000000000000000000, 0.000000000000000000 ) ) ;
#43 = CIRCLE ( 'NONE', #263, 11.00000000000000355 ) ;
#44 = CIRCLE ( 'NONE', #490, 2.099999999999990763 ) ;
#45 = VERTEX_POINT ( 'NONE', #381 ) ;
#46 = LINE ( 'NONE', #597, #500 ) ;
#47 = DIRECTION ( 'NONE',  ( -1.000000000000000000, -0.000000000000000000, -0.000000000000000000 ) ) ;
#48 = DIRECTION ( 'NONE',  ( 0.000000000000000000, 1.000000000000000000, -0.000000000000000000 ) ) ;
#49 = ORIENTED_EDGE ( 'NONE', *, *, #376, .T. ) ;
#50 = FACE_OUTER_BOUND ( 'NONE', #629, .T. ) ;
#51 = CARTESIAN_POINT ( 'NONE',  ( 25.00000000000000000, 12.00000000000000178, 0.000000000000000000 ) ) ;
#52 = CARTESIAN_POINT ( 'NONE',  ( 7.000000000000000000, 2.000000000000000000, -4.900000000000012790 ) ) ;
#53 = ORIENTED_EDGE ( 'NONE', *, *, #228, .F. ) ;
#54 = DIRECTION ( 'NONE',  ( -0.000000000000000000, -1.000000000000000000, -0.000000000000000000 ) ) ;
#55 = EDGE_CURVE ( 'NONE', #522, #594, #382, .T. ) ;
#56 = AXIS2_PLACEMENT_3D ( 'NONE', #136, #298, #473 ) ;
#57 = DIRECTION ( 'NONE',  ( 0.000000000000000000, 0.000000000000000000, -1.000000000000000000 ) ) ;
#58 = EDGE_CURVE ( 'NONE', #243, #120, #534, .T. ) ;
#59 =( NAMED_UNIT ( * ) SI_UNIT ( $, .STERADIAN. ) SOLID_ANGLE_UNIT ( ) );
#60 = ADVANCED_FACE ( 'NONE', ( #604 ), #599, .T. ) ;
#61 = VERTEX_POINT ( 'NONE', #541 ) ;
#62 = PRESENTATION_LAYER_ASSIGNMENT (  '', '', ( #328 ) ) ;
#63 = AXIS2_PLACEMENT_3D ( 'NONE', #412, #634, #138 ) ;
#64 = AXIS2_PLACEMENT_3D ( 'NONE', #528, #198, #689 ) ;
#65 = EDGE_CURVE ( 'NONE', #80, #94, #420, .T. ) ;
#66 = AXIS2_PLACEMENT_3D ( 'NONE', #632, #128, #460 ) ;
#67 = DIRECTION ( 'NONE',  ( 1.000000000000000000, 0.000000000000000000, 0.000000000000000000 ) ) ;
#68 = CARTESIAN_POINT ( 'NONE',  ( 25.00000000000000000, 12.00000000000000178, 0.000000000000000000 ) ) ;
#69 = ORIENTED_EDGE ( 'NONE', *, *, #336, .F. ) ;
#70 = CARTESIAN_POINT ( 'NONE',  ( 7.000000000000000000, -1.734723475976807883E-15, -9.524999999999998579 ) ) ;
#71 = CARTESIAN_POINT ( 'NONE',  ( 25.00000000000000000, 12.00000000000000178, -14.00000000000000533 ) ) ;
#72 = CARTESIAN_POINT ( 'NONE',  ( 0.000000000000000000, 2.000000000000000000, 0.000000000000000000 ) ) ;
#73 = DIRECTION ( 'NONE',  ( -0.000000000000000000, -1.000000000000000000, -0.000000000000000000 ) ) ;
#74 = ORIENTED_EDGE ( 'NONE', *, *, #323, .F. ) ;
#75 = EDGE_CURVE ( 'NONE', #519, #609, #373, .T. ) ;
#76 = CIRCLE ( 'NONE', #402, 2.099999999999988987 ) ;
#77 = DIRECTION ( 'NONE',  ( 0.000000000000000000, -1.000000000000000000, 0.000000000000000000 ) ) ;
#78 = ORIENTED_EDGE ( 'NONE', *, *, #348, .T. ) ;
#79 = PLANE ( 'NONE',  #292 ) ;
#80 = VERTEX_POINT ( 'NONE', #646 ) ;
#81 = ADVANCED_FACE ( 'NONE', ( #255 ), #268, .F. ) ;
#82 = DIRECTION ( 'NONE',  ( -0.000000000000000000, -1.000000000000000000, -0.000000000000000000 ) ) ;
#83 = DIRECTION ( 'NONE',  ( -1.000000000000000000, -0.000000000000000000, -0.000000000000000000 ) ) ;
#84 = ORIENTED_EDGE ( 'NONE', *, *, #565, .F. ) ;
#85 = DIRECTION ( 'NONE',  ( 0.000000000000000000, 0.000000000000000000, 1.000000000000000000 ) ) ;
#86 = CIRCLE ( 'NONE', #63, 2.099999999999988987 ) ;
#87 = ORIENTED_EDGE ( 'NONE', *, *, #259, .F. ) ;
#88 = ORIENTED_EDGE ( 'NONE', *, *, #58, .F. ) ;
#89 = CARTESIAN_POINT ( 'NONE',  ( 14.90000000000000746, 12.00000000000000355, 0.000000000000000000 ) ) ;
#90 = FACE_OUTER_BOUND ( 'NONE', #333, .T. ) ;
#91 = ORIENTED_EDGE ( 'NONE', *, *, #542, .F. ) ;
#92 = ORIENTED_EDGE ( 'NONE', *, *, #131, .F. ) ;
#93 = LINE ( 'NONE', #182, #456 ) ;
#94 = VERTEX_POINT ( 'NONE', #101 ) ;
#95 = ORIENTED_EDGE ( 'NONE', *, *, #537, .T. ) ;
#96 = DIRECTION ( 'NONE',  ( 0.000000000000000000, 0.000000000000000000, 1.000000000000000000 ) ) ;
#97 = AXIS2_PLACEMENT_3D ( 'NONE', #288, #511, #415 ) ;
#98 = VERTEX_POINT ( 'NONE', #309 ) ;
#99 = DIRECTION ( 'NONE',  ( -0.000000000000000000, -1.000000000000000000, -0.000000000000000000 ) ) ;
#100 = DIRECTION ( 'NONE',  ( 0.000000000000000000, 0.000000000000000000, -1.000000000000000000 ) ) ;
#101 = CARTESIAN_POINT ( 'NONE',  ( 50.00000000000000000, 0.000000000000000000, -14.00000000000000000 ) ) ;
#102 = LINE ( 'NONE', #147, #125 ) ;
#103 = ORIENTED_EDGE ( 'NONE', *, *, #631, .F. ) ;
#104 = SURFACE_SIDE_STYLE ('',( #480 ) ) ;
#105 = LINE ( 'NONE', #705, #21 ) ;
#106 = DIRECTION ( 'NONE',  ( 0.000000000000000000, 0.000000000000000000, 1.000000000000000000 ) ) ;
#107 = DIRECTION ( 'NONE',  ( 0.000000000000000000, 0.000000000000000000, -1.000000000000000000 ) ) ;
#108 = VECTOR ( 'NONE', #47, 1000.000000000000000 ) ;
#109 = LINE ( 'NONE', #544, #590 ) ;
#110 = CARTESIAN_POINT ( 'NONE',  ( 20.41742430504416461, 2.000000000000000444, 0.000000000000000000 ) ) ;
#111 = ORIENTED_EDGE ( 'NONE', *, *, #542, .T. ) ;
#112 = DIRECTION ( 'NONE',  ( 0.000000000000000000, -1.000000000000000000, 0.000000000000000000 ) ) ;
#113 = ORIENTED_EDGE ( 'NONE', *, *, #11, .T. ) ;
#114 = VECTOR ( 'NONE', #375, 1000.000000000000000 ) ;
#115 = CARTESIAN_POINT ( 'NONE',  ( 25.00000000000000000, 12.00000000000000178, -14.00000000000000533 ) ) ;
#116 = CARTESIAN_POINT ( 'NONE',  ( 14.90000000000000746, 12.00000000000000355, -14.00000000000000533 ) ) ;
#117 = VERTEX_POINT ( 'NONE', #314 ) ;
#118 = EDGE_CURVE ( 'NONE', #660, #139, #282, .T. ) ;
#119 = CARTESIAN_POINT ( 'NONE',  ( 0.000000000000000000, 2.000000000000000000, -14.00000000000000000 ) ) ;
#120 = VERTEX_POINT ( 'NONE', #477 ) ;
#121 = CARTESIAN_POINT ( 'NONE',  ( 43.50000000000000000, 0.4249999999999948264, -4.900000000000010125 ) ) ;
#122 = EDGE_CURVE ( 'NONE', #120, #606, #596, .T. ) ;
#123 = VERTEX_POINT ( 'NONE', #52 ) ;
#124 = DIRECTION ( 'NONE',  ( 0.000000000000000000, -0.7071067811865374697, -0.7071067811865576758 ) ) ;
#125 = VECTOR ( 'NONE', #319, 1000.000000000000000 ) ;
#126 = FACE_BOUND ( 'NONE', #696, .T. ) ;
#127 = ORIENTED_EDGE ( 'NONE', *, *, #311, .F. ) ;
#128 = DIRECTION ( 'NONE',  ( 0.000000000000000000, -1.000000000000000000, 0.000000000000000000 ) ) ;
#129 = LINE ( 'NONE', #186, #208 ) ;
#130 = ORIENTED_EDGE ( 'NONE', *, *, #513, .T. ) ;
#131 = EDGE_CURVE ( 'NONE', #660, #400, #105, .T. ) ;
#132 = DIRECTION ( 'NONE',  ( 0.000000000000000000, 0.000000000000000000, -1.000000000000000000 ) ) ;
#133 = CARTESIAN_POINT ( 'NONE',  ( 7.000000000000000000, -1.734723475976807883E-15, -7.000000000000000888 ) ) ;
#134 = ORIENTED_EDGE ( 'NONE', *, *, #700, .F. ) ;
#135 = ORIENTED_EDGE ( 'NONE', *, *, #192, .T. ) ;
#136 = CARTESIAN_POINT ( 'NONE',  ( 0.000000000000000000, 2.000000000000000000, -14.00000000000000000 ) ) ;
#137 = EDGE_CURVE ( 'NONE', #459, #339, #424, .T. ) ;
#138 = DIRECTION ( 'NONE',  ( 0.000000000000000000, 0.000000000000000000, -1.000000000000000000 ) ) ;
#139 = VERTEX_POINT ( 'NONE', #318 ) ;
#140 = PLANE ( 'NONE',  #66 ) ;
#141 = DIRECTION ( 'NONE',  ( 0.000000000000000000, 0.000000000000000000, -1.000000000000000000 ) ) ;
#142 = ADVANCED_FACE ( 'NONE', ( #1 ), #437, .F. ) ;
#143 = DIRECTION ( 'NONE',  ( 0.000000000000000000, 0.000000000000000000, -1.000000000000000000 ) ) ;
#144 = ORIENTED_EDGE ( 'NONE', *, *, #376, .F. ) ;
#145 = DIRECTION ( 'NONE',  ( -1.000000000000000000, -0.000000000000000000, -0.000000000000000000 ) ) ;
#146 = DIRECTION ( 'NONE',  ( -0.000000000000000000, -1.000000000000000000, -0.000000000000000000 ) ) ;
#147 = CARTESIAN_POINT ( 'NONE',  ( 14.00000000000000178, 12.00000000000000178, -14.00000000000000533 ) ) ;
#148 = ORIENTED_EDGE ( 'NONE', *, *, #545, .T. ) ;
#149 = LINE ( 'NONE', #595, #270 ) ;
#150 = CARTESIAN_POINT ( 'NONE',  ( 43.50000000000000000, 0.4249999999999948264, -7.000000000000000888 ) ) ;
#151 = CARTESIAN_POINT ( 'NONE',  ( 7.000000000000000000, 0.4249999999999948264, -9.099999999999990763 ) ) ;
#152 = CONICAL_SURFACE ( 'NONE', #233, 2.524999999999999467, 0.7853981633974626009 ) ;
#153 = VECTOR ( 'NONE', #688, 1000.000000000000000 ) ;
#154 = VERTEX_POINT ( 'NONE', #151 ) ;
#155 = DIRECTION ( 'NONE',  ( 0.000000000000000000, 0.000000000000000000, 1.000000000000000000 ) ) ;
#156 = LINE ( 'NONE', #707, #291 ) ;
#157 = DIRECTION ( 'NONE',  ( 0.000000000000000000, 0.000000000000000000, 1.000000000000000000 ) ) ;
#158 = CYLINDRICAL_SURFACE ( 'NONE', #167, 2.099999999999988987 ) ;
#159 = VERTEX_POINT ( 'NONE', #433 ) ;
#160 = ADVANCED_FACE ( 'NONE', ( #488 ), #264, .F. ) ;
#161 = DIRECTION ( 'NONE',  ( 0.000000000000000000, 0.000000000000000000, -1.000000000000000000 ) ) ;
#162 = AXIS2_PLACEMENT_3D ( 'NONE', #543, #269, #8 ) ;
#163 = VECTOR ( 'NONE', #397, 1000.000000000000000 ) ;
#164 = CARTESIAN_POINT ( 'NONE',  ( 0.000000000000000000, 0.000000000000000000, 0.000000000000000000 ) ) ;
#165 = DIRECTION ( 'NONE',  ( 0.000000000000000000, 0.000000000000000000, 1.000000000000000000 ) ) ;
#166 = VERTEX_POINT ( 'NONE', #658 ) ;
#167 = AXIS2_PLACEMENT_3D ( 'NONE', #591, #99, #316 ) ;
#168 = AXIS2_PLACEMENT_3D ( 'NONE', #199, #48, #155 ) ;
#169 = EDGE_CURVE ( 'NONE', #117, #530, #383, .T. ) ;
#170 = VECTOR ( 'NONE', #334, 1000.000000000000000 ) ;
#171 = CARTESIAN_POINT ( 'NONE',  ( 23.58225531212428550, 2.000000000000000000, -14.00000000000000533 ) ) ;
#172 = DIRECTION ( 'NONE',  ( 0.000000000000000000, 0.000000000000000000, 1.000000000000000000 ) ) ;
#173 = ORIENTED_EDGE ( 'NONE', *, *, #621, .T. ) ;
#174 = EDGE_CURVE ( 'NONE', #522, #61, #102, .T. ) ;
#175 = CYLINDRICAL_SURFACE ( 'NONE', #540, 10.09999999999999076 ) ;
#176 = ORIENTED_EDGE ( 'NONE', *, *, #482, .T. ) ;
#177 = FACE_BOUND ( 'NONE', #362, .T. ) ;
#178 = VERTEX_POINT ( 'NONE', #600 ) ;
#179 = CLOSED_SHELL ( 'NONE', ( #142, #691, #20, #81, #160, #605, #598, #253, #389, #266, #7, #555, #240, #406, #504, #340, #60, #675, #580, #40, #304, #533 ) ) ;
#180 = VECTOR ( 'NONE', #172, 1000.000000000000000 ) ;
#181 = FACE_OUTER_BOUND ( 'NONE', #24, .T. ) ;
#182 = CARTESIAN_POINT ( 'NONE',  ( 0.000000000000000000, 2.000000000000000000, -14.00000000000000000 ) ) ;
#183 = ORIENTED_EDGE ( 'NONE', *, *, #294, .F. ) ;
#184 = EDGE_CURVE ( 'NONE', #19, #547, #671, .T. ) ;
#185 = CARTESIAN_POINT ( 'NONE',  ( 25.00000000000000000, 12.00000000000000178, 0.000000000000000000 ) ) ;
#186 = CARTESIAN_POINT ( 'NONE',  ( 43.50000000000000000, -1.734723475976807883E-15, -4.475000000000001421 ) ) ;
#187 = FACE_BOUND ( 'NONE', #287, .T. ) ;
#188 = ORIENTED_EDGE ( 'NONE', *, *, #184, .T. ) ;
#189 = DIRECTION ( 'NONE',  ( 0.000000000000000000, 0.000000000000000000, 1.000000000000000000 ) ) ;
#190 = DIRECTION ( 'NONE',  ( 0.000000000000000000, -0.000000000000000000, -1.000000000000000000 ) ) ;
#191 = ORIENTED_EDGE ( 'NONE', *, *, #438, .T. ) ;
#192 = EDGE_CURVE ( 'NONE', #178, #276, #588, .T. ) ;
#193 = CARTESIAN_POINT ( 'NONE',  ( 0.000000000000000000, 2.000000000000000000, 0.000000000000000000 ) ) ;
#194 = CYLINDRICAL_SURFACE ( 'NONE', #64, 2.099999999999988987 ) ;
#195 = AXIS2_PLACEMENT_3D ( 'NONE', #51, #532, #258 ) ;
#196 = FACE_OUTER_BOUND ( 'NONE', #702, .T. ) ;
#197 = ORIENTED_EDGE ( 'NONE', *, *, #192, .F. ) ;
#198 = DIRECTION ( 'NONE',  ( -0.000000000000000000, -1.000000000000000000, -0.000000000000000000 ) ) ;
#199 = CARTESIAN_POINT ( 'NONE',  ( 36.00000000000000711, 12.00000000000000178, -14.00000000000000533 ) ) ;
#200 = VERTEX_POINT ( 'NONE', #449 ) ;
#201 =( NAMED_UNIT ( * ) PLANE_ANGLE_UNIT ( ) SI_UNIT ( $, .RADIAN. ) );
#202 = CARTESIAN_POINT ( 'NONE',  ( 14.00000000000000178, 12.00000000000000178, 0.000000000000000000 ) ) ;
#203 = DIRECTION ( 'NONE',  ( 0.000000000000000000, 0.000000000000000000, -1.000000000000000000 ) ) ;
#204 = EDGE_CURVE ( 'NONE', #166, #568, #549, .T. ) ;
#205 = ORIENTED_EDGE ( 'NONE', *, *, #55, .T. ) ;
#206 = CARTESIAN_POINT ( 'NONE',  ( 0.000000000000000000, 2.000000000000000000, 0.000000000000000000 ) ) ;
#207 = VECTOR ( 'NONE', #529, 1000.000000000000000 ) ;
#208 = VECTOR ( 'NONE', #583, 1000.000000000000000 ) ;
#209 = ORIENTED_EDGE ( 'NONE', *, *, #565, .T. ) ;
#210 = CARTESIAN_POINT ( 'NONE',  ( 25.00000000000000000, 12.00000000000000178, -14.00000000000000533 ) ) ;
#211 = ORIENTED_EDGE ( 'NONE', *, *, #435, .F. ) ;
#212 = CARTESIAN_POINT ( 'NONE',  ( 50.00000000000000000, 2.000000000000000000, -14.00000000000000000 ) ) ;
#213 = APPLICATION_PROTOCOL_DEFINITION ( 'draft international standard', 'automotive_design', 1998, #378 ) ;
#214 = CIRCLE ( 'NONE', #625, 11.00000000000000355 ) ;
#215 = ORIENTED_EDGE ( 'NONE', *, *, #311, .T. ) ;
#216 = CYLINDRICAL_SURFACE ( 'NONE', #265, 11.00000000000000355 ) ;
#217 = CARTESIAN_POINT ( 'NONE',  ( 43.50000000000000000, 0.4249999999999948264, -7.000000000000000888 ) ) ;
#218 = ORIENTED_EDGE ( 'NONE', *, *, #65, .F. ) ;
#219 = EDGE_CURVE ( 'NONE', #326, #606, #307, .T. ) ;
#220 = DIRECTION ( 'NONE',  ( 0.000000000000000000, 0.000000000000000000, -1.000000000000000000 ) ) ;
#221 = AXIS2_PLACEMENT_3D ( 'NONE', #659, #4, #422 ) ;
#222 = EDGE_CURVE ( 'NONE', #154, #117, #396, .T. ) ;
#223 = VECTOR ( 'NONE', #299, 1000.000000000000000 ) ;
#224 = VECTOR ( 'NONE', #73, 1000.000000000000000 ) ;
#225 = DIRECTION ( 'NONE',  ( -0.000000000000000000, -0.000000000000000000, -1.000000000000000000 ) ) ;
#226 = DIRECTION ( 'NONE',  ( 0.000000000000000000, 1.000000000000000000, 0.000000000000000000 ) ) ;
#227 = ORIENTED_EDGE ( 'NONE', *, *, #294, .T. ) ;
#228 = EDGE_CURVE ( 'NONE', #630, #178, #493, .T. ) ;
#229 = DIRECTION ( 'NONE',  ( 0.000000000000000000, 0.000000000000000000, -1.000000000000000000 ) ) ;
#230 = ORIENTED_EDGE ( 'NONE', *, *, #281, .T. ) ;
#231 = CARTESIAN_POINT ( 'NONE',  ( 25.00000000000000000, 12.00000000000000178, -14.00000000000000533 ) ) ;
#232 = ORIENTED_EDGE ( 'NONE', *, *, #508, .F. ) ;
#233 = AXIS2_PLACEMENT_3D ( 'NONE', #416, #642, #143 ) ;
#234 = AXIS2_PLACEMENT_3D ( 'NONE', #346, #356, #141 ) ;
#235 = LINE ( 'NONE', #644, #153 ) ;
#236 = DIRECTION ( 'NONE',  ( 1.000000000000000000, 0.000000000000000000, 0.000000000000000000 ) ) ;
#237 = EDGE_LOOP ( 'NONE', ( #692, #173, #113, #514 ) ) ;
#238 = DIRECTION ( 'NONE',  ( -0.000000000000000000, -1.000000000000000000, -0.000000000000000000 ) ) ;
#239 = CARTESIAN_POINT ( 'NONE',  ( 0.000000000000000000, 2.000000000000000000, 0.000000000000000000 ) ) ;
#240 = ADVANCED_FACE ( 'NONE', ( #616 ), #216, .T. ) ;
#241 = ORIENTED_EDGE ( 'NONE', *, *, #641, .F. ) ;
#242 = DIRECTION ( 'NONE',  ( 0.000000000000000000, 0.000000000000000000, -1.000000000000000000 ) ) ;
#243 = VERTEX_POINT ( 'NONE', #171 ) ;
#244 = VERTEX_POINT ( 'NONE', #452 ) ;
#245 = DIRECTION ( 'NONE',  ( 0.000000000000000000, 0.000000000000000000, -1.000000000000000000 ) ) ;
#246 = LINE ( 'NONE', #685, #564 ) ;
#247 = AXIS2_PLACEMENT_3D ( 'NONE', #210, #157, #322 ) ;
#248 = CONICAL_SURFACE ( 'NONE', #34, 2.524999999999997691, 0.7853981633974626009 ) ;
#249 = CARTESIAN_POINT ( 'NONE',  ( 50.00000000000000000, 2.000000000000000000, 0.000000000000000000 ) ) ;
#250 = ORIENTED_EDGE ( 'NONE', *, *, #15, .T. ) ;
#251 = PRESENTATION_STYLE_ASSIGNMENT (( #654 ) ) ;
#252 = CARTESIAN_POINT ( 'NONE',  ( 0.000000000000000000, 2.000000000000000000, -14.00000000000000000 ) ) ;
#253 = ADVANCED_FACE ( 'NONE', ( #566 ), #393, .F. ) ;
#254 = FACE_OUTER_BOUND ( 'NONE', #278, .T. ) ;
#255 = FACE_OUTER_BOUND ( 'NONE', #41, .T. ) ;
#256 = EDGE_LOOP ( 'NONE', ( #111, #296 ) ) ;
#257 = DIRECTION ( 'NONE',  ( 0.000000000000000000, 0.000000000000000000, -1.000000000000000000 ) ) ;
#258 = DIRECTION ( 'NONE',  ( 1.000000000000000000, 0.000000000000000000, 0.000000000000000000 ) ) ;
#259 = EDGE_CURVE ( 'NONE', #80, #244, #458, .T. ) ;
#260 = DIRECTION ( 'NONE',  ( -0.000000000000000000, -1.000000000000000000, -0.000000000000000000 ) ) ;
#261 = ORIENTED_EDGE ( 'NONE', *, *, #137, .F. ) ;
#262 = DIRECTION ( 'NONE',  ( -0.000000000000000000, -1.000000000000000000, -0.000000000000000000 ) ) ;
#263 = AXIS2_PLACEMENT_3D ( 'NONE', #185, #531, #601 ) ;
#264 = PLANE ( 'NONE',  #468 ) ;
#265 = AXIS2_PLACEMENT_3D ( 'NONE', #441, #505, #554 ) ;
#266 = ADVANCED_FACE ( 'NONE', ( #461 ), #633, .F. ) ;
#267 =( LENGTH_UNIT ( ) NAMED_UNIT ( * ) SI_UNIT ( .MILLI., .METRE. ) );
#268 = CYLINDRICAL_SURFACE ( 'NONE', #663, 2.099999999999990763 ) ;
#269 = DIRECTION ( 'NONE',  ( 0.000000000000000000, 0.000000000000000000, 1.000000000000000000 ) ) ;
#270 = VECTOR ( 'NONE', #434, 1000.000000000000000 ) ;
#271 = ORIENTED_EDGE ( 'NONE', *, *, #33, .F. ) ;
#272 = VECTOR ( 'NONE', #342, 1000.000000000000000 ) ;
#273 = VECTOR ( 'NONE', #536, 1000.000000000000000 ) ;
#274 = EDGE_CURVE ( 'NONE', #630, #589, #293, .T. ) ;
#275 = CARTESIAN_POINT ( 'NONE',  ( 7.000000000000000000, 2.000000000000000000, -7.000000000000000888 ) ) ;
#276 = VERTEX_POINT ( 'NONE', #476 ) ;
#277 = DIRECTION ( 'NONE',  ( 0.000000000000000000, 0.000000000000000000, -1.000000000000000000 ) ) ;
#278 = EDGE_LOOP ( 'NONE', ( #92, #526, #250, #49 ) ) ;
#279 = DIRECTION ( 'NONE',  ( 1.000000000000000000, 0.000000000000000000, 0.000000000000000000 ) ) ;
#280 = VERTEX_POINT ( 'NONE', #32 ) ;
#281 = EDGE_CURVE ( 'NONE', #98, #351, #93, .T. ) ;
#282 = CIRCLE ( 'NONE', #445, 2.099999999999990763 ) ;
#283 = AXIS2_PLACEMENT_3D ( 'NONE', #668, #620, #165 ) ;
#284 = CARTESIAN_POINT ( 'NONE',  ( 7.000000000000000000, 2.000000000000000000, -7.000000000000000888 ) ) ;
#285 = ORIENTED_EDGE ( 'NONE', *, *, #222, .F. ) ;
#286 = CARTESIAN_POINT ( 'NONE',  ( 7.000000000000000000, 2.000000000000000000, -9.099999999999990763 ) ) ;
#287 = EDGE_LOOP ( 'NONE', ( #469, #584 ) ) ;
#288 = CARTESIAN_POINT ( 'NONE',  ( 7.000000000000000000, 0.4249999999999948264, -7.000000000000000888 ) ) ;
#289 = FACE_OUTER_BOUND ( 'NONE', #290, .T. ) ;
#290 = EDGE_LOOP ( 'NONE', ( #12, #232, #135, #686 ) ) ;
#291 = VECTOR ( 'NONE', #106, 1000.000000000000000 ) ;
#292 = AXIS2_PLACEMENT_3D ( 'NONE', #164, #112, #329 ) ;
#293 = LINE ( 'NONE', #411, #682 ) ;
#294 = EDGE_CURVE ( 'NONE', #519, #522, #520, .T. ) ;
#295 = ORIENTED_EDGE ( 'NONE', *, *, #385, .F. ) ;
#296 = ORIENTED_EDGE ( 'NONE', *, *, #447, .T. ) ;
#297 = LINE ( 'NONE', #349, #552 ) ;
#298 = DIRECTION ( 'NONE',  ( 0.000000000000000000, 0.000000000000000000, 1.000000000000000000 ) ) ;
#299 = DIRECTION ( 'NONE',  ( -0.000000000000000000, -1.000000000000000000, -0.000000000000000000 ) ) ;
#300 = EDGE_CURVE ( 'NONE', #98, #166, #465, .T. ) ;
#301 = ORIENTED_EDGE ( 'NONE', *, *, #228, .T. ) ;
#302 = CARTESIAN_POINT ( 'NONE',  ( 50.00000000000000000, 0.000000000000000000, 0.000000000000000000 ) ) ;
#303 = CARTESIAN_POINT ( 'NONE',  ( 14.90000000000000746, 12.00000000000000355, -14.00000000000000533 ) ) ;
#304 = ADVANCED_FACE ( 'NONE', ( #90 ), #194, .F. ) ;
#305 = ORIENTED_EDGE ( 'NONE', *, *, #435, .T. ) ;
#306 = DIRECTION ( 'NONE',  ( -0.000000000000000000, -0.000000000000000000, 1.000000000000000000 ) ) ;
#307 = CIRCLE ( 'NONE', #22, 10.09999999999999076 ) ;
#308 = AXIS2_PLACEMENT_3D ( 'NONE', #284, #560, #229 ) ;
#309 = CARTESIAN_POINT ( 'NONE',  ( 0.000000000000000000, 2.000000000000000000, -14.00000000000000000 ) ) ;
#310 = ORIENTED_EDGE ( 'NONE', *, *, #259, .T. ) ;
#311 = EDGE_CURVE ( 'NONE', #276, #243, #404, .T. ) ;
#312 = CARTESIAN_POINT ( 'NONE',  ( 43.50000000000000000, -1.734723475976807883E-15, -7.000000000000000888 ) ) ;
#313 = DIRECTION ( 'NONE',  ( -0.000000000000000000, -1.000000000000000000, -0.000000000000000000 ) ) ;
#314 = CARTESIAN_POINT ( 'NONE',  ( 7.000000000000000000, -1.734723475976807883E-15, -9.524999999999998579 ) ) ;
#315 = ORIENTED_EDGE ( 'NONE', *, *, #11, .F. ) ;
#316 = DIRECTION ( 'NONE',  ( 0.000000000000000000, 0.000000000000000000, -1.000000000000000000 ) ) ;
#317 = LINE ( 'NONE', #325, #273 ) ;
#318 = CARTESIAN_POINT ( 'NONE',  ( 43.50000000000000000, 2.000000000000000000, -9.099999999999992539 ) ) ;
#319 = DIRECTION ( 'NONE',  ( 0.000000000000000000, 0.000000000000000000, 1.000000000000000000 ) ) ;
#320 = FILL_AREA_STYLE_COLOUR ( '', #367 ) ;
#321 = PRODUCT_DEFINITION_FORMATION_WITH_SPECIFIED_SOURCE ( 'ä»', '', #607, .NOT_KNOWN. ) ;
#322 = DIRECTION ( 'NONE',  ( 1.000000000000000000, 0.000000000000000000, 0.000000000000000000 ) ) ;
#323 = EDGE_CURVE ( 'NONE', #276, #606, #640, .T. ) ;
#324 = CIRCLE ( 'NONE', #414, 2.099999999999990763 ) ;
#325 = CARTESIAN_POINT ( 'NONE',  ( 50.00000000000000000, 0.000000000000000000, 0.000000000000000000 ) ) ;
#326 = VERTEX_POINT ( 'NONE', #364 ) ;
#327 = EDGE_CURVE ( 'NONE', #45, #547, #637, .T. ) ;
#328 = STYLED_ITEM ( 'NONE', ( #251 ), #687 ) ;
#329 = DIRECTION ( 'NONE',  ( 0.000000000000000000, -0.000000000000000000, -1.000000000000000000 ) ) ;
#330 = AXIS2_PLACEMENT_3D ( 'NONE', #133, #350, #100 ) ;
#331 = CARTESIAN_POINT ( 'NONE',  ( 0.000000000000000000, 2.000000000000000000, 0.000000000000000000 ) ) ;
#332 = CARTESIAN_POINT ( 'NONE',  ( 7.000000000000000000, -1.734723475976807883E-15, -7.000000000000000888 ) ) ;
#333 = EDGE_LOOP ( 'NONE', ( #443, #91, #148, #37 ) ) ;
#334 = DIRECTION ( 'NONE',  ( -1.000000000000000000, 0.000000000000000000, 0.000000000000000000 ) ) ;
#335 = CARTESIAN_POINT ( 'NONE',  ( 14.00000000000000178, 12.00000000000000178, -14.00000000000000533 ) ) ;
#336 = EDGE_CURVE ( 'NONE', #400, #45, #129, .T. ) ;
#337 = ORIENTED_EDGE ( 'NONE', *, *, #667, .F. ) ;
#338 = PLANE ( 'NONE',  #695 ) ;
#339 = VERTEX_POINT ( 'NONE', #302 ) ;
#340 = ADVANCED_FACE ( 'NONE', ( #289 ), #579, .F. ) ;
#341 = AXIS2_PLACEMENT_3D ( 'NONE', #150, #313, #704 ) ;
#342 = DIRECTION ( 'NONE',  ( 0.000000000000000000, -0.7071067811865374697, -0.7071067811865576758 ) ) ;
#343 = DIRECTION ( 'NONE',  ( 0.000000000000000000, 0.000000000000000000, 1.000000000000000000 ) ) ;
#344 = EDGE_LOOP ( 'NONE', ( #483, #74, #215, #507 ) ) ;
#345 = FACE_OUTER_BOUND ( 'NONE', #479, .T. ) ;
#346 = CARTESIAN_POINT ( 'NONE',  ( 43.50000000000000000, -1.734723475976807883E-15, -7.000000000000000888 ) ) ;
#347 = EDGE_LOOP ( 'NONE', ( #454, #462, #432, #379 ) ) ;
#348 = EDGE_CURVE ( 'NONE', #459, #80, #246, .T. ) ;
#349 = CARTESIAN_POINT ( 'NONE',  ( 7.000000000000000000, 0.000000000000000000, -4.900000000000012790 ) ) ;
#350 = DIRECTION ( 'NONE',  ( -0.000000000000000000, -1.000000000000000000, -0.000000000000000000 ) ) ;
#351 = VERTEX_POINT ( 'NONE', #419 ) ;
#352 = MECHANICAL_DESIGN_GEOMETRIC_PRESENTATION_REPRESENTATION (  '', ( #328 ), #548 ) ;
#353 = ORIENTED_EDGE ( 'NONE', *, *, #438, .F. ) ;
#354 = AXIS2_PLACEMENT_3D ( 'NONE', #365, #54, #203 ) ;
#355 = CARTESIAN_POINT ( 'NONE',  ( 26.41774468787573227, 2.000000000000000000, 0.000000000000000000 ) ) ;
#356 = DIRECTION ( 'NONE',  ( -0.000000000000000000, -1.000000000000000000, -0.000000000000000000 ) ) ;
#357 = LINE ( 'NONE', #581, #223 ) ;
#358 = ORIENTED_EDGE ( 'NONE', *, *, #615, .T. ) ;
#359 = CARTESIAN_POINT ( 'NONE',  ( 25.00000000000000000, 12.00000000000000178, -14.00000000000000533 ) ) ;
#360 = LINE ( 'NONE', #701, #114 ) ;
#361 = EDGE_CURVE ( 'NONE', #530, #117, #550, .T. ) ;
#362 = EDGE_LOOP ( 'NONE', ( #395, #582 ) ) ;
#363 = DIRECTION ( 'NONE',  ( 0.000000000000000000, 0.000000000000000000, 1.000000000000000000 ) ) ;
#364 = CARTESIAN_POINT ( 'NONE',  ( 35.09999999999999432, 12.00000000000000178, 0.000000000000000000 ) ) ;
#365 = CARTESIAN_POINT ( 'NONE',  ( 7.000000000000000000, -1.734723475976807883E-15, -7.000000000000000888 ) ) ;
#366 = ORIENTED_EDGE ( 'NONE', *, *, #55, .F. ) ;
#367 = COLOUR_RGB ( '',0.7921568627450980005, 0.8196078431372548767, 0.9333333333333333481 ) ;
#368 = FACE_OUTER_BOUND ( 'NONE', #237, .T. ) ;
#369 = AXIS2_PLACEMENT_3D ( 'NONE', #239, #690, #190 ) ;
#370 = LINE ( 'NONE', #202, #527 ) ;
#371 = VECTOR ( 'NONE', #145, 1000.000000000000000 ) ;
#372 = AXIS2_PLACEMENT_3D ( 'NONE', #193, #410, #245 ) ;
#373 = LINE ( 'NONE', #303, #436 ) ;
#374 = EDGE_LOOP ( 'NONE', ( #429, #261, #553, #191, #305, #391, #413, #502, #648, #638, #666, #577 ) ) ;
#375 = DIRECTION ( 'NONE',  ( 1.000000000000000000, 0.000000000000000000, 0.000000000000000000 ) ) ;
#376 = EDGE_CURVE ( 'NONE', #19, #400, #2, .T. ) ;
#377 = CARTESIAN_POINT ( 'NONE',  ( 7.000000000000000000, -1.734723475976807883E-15, -7.000000000000000888 ) ) ;
#378 = APPLICATION_CONTEXT ( 'automotive_design' ) ;
#379 = ORIENTED_EDGE ( 'NONE', *, *, #184, .F. ) ;
#380 = EDGE_CURVE ( 'NONE', #609, #61, #370, .T. ) ;
#381 = CARTESIAN_POINT ( 'NONE',  ( 43.50000000000000000, -1.734723475976807883E-15, -4.475000000000001421 ) ) ;
#382 = CIRCLE ( 'NONE', #247, 11.00000000000000355 ) ;
#383 = CIRCLE ( 'NONE', #10, 2.524999999999997691 ) ;
#384 = ORIENTED_EDGE ( 'NONE', *, *, #204, .T. ) ;
#385 = EDGE_CURVE ( 'NONE', #120, #609, #503, .T. ) ;
#386 = CARTESIAN_POINT ( 'NONE',  ( 43.50000000000000000, -1.734723475976807883E-15, -9.525000000000000355 ) ) ;
#387 = DIRECTION ( 'NONE',  ( 1.000000000000000000, 0.000000000000000000, 0.000000000000000000 ) ) ;
#388 = ORIENTED_EDGE ( 'NONE', *, *, #65, .T. ) ;
#389 = ADVANCED_FACE ( 'NONE', ( #649 ), #423, .F. ) ;
#390 = FACE_OUTER_BOUND ( 'NONE', #466, .T. ) ;
#391 = ORIENTED_EDGE ( 'NONE', *, *, #219, .T. ) ;
#392 = CIRCLE ( 'NONE', #446, 11.00000000000000355 ) ;
#393 = PLANE ( 'NONE',  #9 ) ;
#394 = LINE ( 'NONE', #119, #163 ) ;
#395 = ORIENTED_EDGE ( 'NONE', *, *, #169, .F. ) ;
#396 = LINE ( 'NONE', #70, #272 ) ;
#397 = DIRECTION ( 'NONE',  ( -1.000000000000000000, -0.000000000000000000, -0.000000000000000000 ) ) ;
#398 = ORIENTED_EDGE ( 'NONE', *, *, #380, .F. ) ;
#399 = DIRECTION ( 'NONE',  ( 0.000000000000000000, 0.000000000000000000, -1.000000000000000000 ) ) ;
#400 = VERTEX_POINT ( 'NONE', #121 ) ;
#401 = CIRCLE ( 'NONE', #467, 2.524999999999999467 ) ;
#402 = AXIS2_PLACEMENT_3D ( 'NONE', #275, #77, #220 ) ;
#403 = CIRCLE ( 'NONE', #97, 2.099999999999988987 ) ;
#404 = LINE ( 'NONE', #570, #108 ) ;
#405 = ORIENTED_EDGE ( 'NONE', *, *, #281, .F. ) ;
#406 = ADVANCED_FACE ( 'NONE', ( #665 ), #338, .T. ) ;
#407 = FACE_BOUND ( 'NONE', #256, .T. ) ;
#408 = PLANE ( 'NONE',  #369 ) ;
#409 = EDGE_LOOP ( 'NONE', ( #706, #30, #84, #271 ) ) ;
#410 = DIRECTION ( 'NONE',  ( 1.000000000000000000, -0.000000000000000000, 0.000000000000000000 ) ) ;
#411 = CARTESIAN_POINT ( 'NONE',  ( 36.00000000000000711, 12.00000000000000178, -14.00000000000000533 ) ) ;
#412 = CARTESIAN_POINT ( 'NONE',  ( 7.000000000000000000, 0.4249999999999948264, -7.000000000000000888 ) ) ;
#413 = ORIENTED_EDGE ( 'NONE', *, *, #122, .F. ) ;
#414 = AXIS2_PLACEMENT_3D ( 'NONE', #217, #444, #277 ) ;
#415 = DIRECTION ( 'NONE',  ( 0.000000000000000000, 0.000000000000000000, -1.000000000000000000 ) ) ;
#416 = CARTESIAN_POINT ( 'NONE',  ( 43.50000000000000000, -1.734723475976807883E-15, -7.000000000000000888 ) ) ;
#417 = EDGE_LOOP ( 'NONE', ( #209, #218, #492, #455 ) ) ;
#418 = CYLINDRICAL_SURFACE ( 'NONE', #684, 2.099999999999990763 ) ;
#419 = CARTESIAN_POINT ( 'NONE',  ( 0.000000000000000000, 0.000000000000000000, -14.00000000000000000 ) ) ;
#420 = LINE ( 'NONE', #212, #636 ) ;
#421 = EDGE_LOOP ( 'NONE', ( #451, #439, #657, #535 ) ) ;
#422 = DIRECTION ( 'NONE',  ( 1.000000000000000000, 0.000000000000000000, 0.000000000000000000 ) ) ;
#423 = PLANE ( 'NONE',  #283 ) ;
#424 = LINE ( 'NONE', #249, #525 ) ;
#425 = VERTEX_POINT ( 'NONE', #286 ) ;
#426 =( NAMED_UNIT ( * ) SI_UNIT ( $, .STERADIAN. ) SOLID_ANGLE_UNIT ( ) );
#427 = CIRCLE ( 'NONE', #308, 2.099999999999988987 ) ;
#428 = DIRECTION ( 'NONE',  ( 0.000000000000000000, -1.000000000000000000, 0.000000000000000000 ) ) ;
#429 = ORIENTED_EDGE ( 'NONE', *, *, #33, .T. ) ;
#430 = CARTESIAN_POINT ( 'NONE',  ( 43.50000000000000000, 2.000000000000000000, -4.900000000000010125 ) ) ;
#431 = DIRECTION ( 'NONE',  ( 0.000000000000000000, -1.000000000000000000, 0.000000000000000000 ) ) ;
#432 = ORIENTED_EDGE ( 'NONE', *, *, #327, .T. ) ;
#433 = CARTESIAN_POINT ( 'NONE',  ( 7.000000000000000000, 0.4249999999999948264, -4.900000000000011013 ) ) ;
#434 = DIRECTION ( 'NONE',  ( -0.000000000000000000, -1.000000000000000000, -0.000000000000000000 ) ) ;
#435 = EDGE_CURVE ( 'NONE', #589, #326, #562, .T. ) ;
#436 = VECTOR ( 'NONE', #96, 1000.000000000000000 ) ;
#437 = CONICAL_SURFACE ( 'NONE', #354, 2.524999999999997691, 0.7853981633974626009 ) ;
#438 = EDGE_CURVE ( 'NONE', #200, #589, #392, .T. ) ;
#439 = ORIENTED_EDGE ( 'NONE', *, *, #624, .F. ) ;
#440 = SHAPE_DEFINITION_REPRESENTATION ( #699, #610 ) ;
#441 = CARTESIAN_POINT ( 'NONE',  ( 25.00000000000000000, 12.00000000000000178, -14.00000000000000533 ) ) ;
#442 = CARTESIAN_POINT ( 'NONE',  ( 43.50000000000000000, 2.000000000000000000, -7.000000000000000888 ) ) ;
#443 = ORIENTED_EDGE ( 'NONE', *, *, #621, .F. ) ;
#444 = DIRECTION ( 'NONE',  ( -0.000000000000000000, -1.000000000000000000, -0.000000000000000000 ) ) ;
#445 = AXIS2_PLACEMENT_3D ( 'NONE', #486, #431, #538 ) ;
#446 = AXIS2_PLACEMENT_3D ( 'NONE', #68, #343, #387 ) ;
#447 = EDGE_CURVE ( 'NONE', #123, #425, #76, .T. ) ;
#448 = UNCERTAINTY_MEASURE_WITH_UNIT (LENGTH_MEASURE( 1.000000000000000082E-05 ), #489, 'distance_accuracy_value', 'NONE');
#449 = CARTESIAN_POINT ( 'NONE',  ( 29.58257569495584605, 2.000000000000001776, 0.000000000000000000 ) ) ;
#450 = DIRECTION ( 'NONE',  ( 0.000000000000000000, -0.000000000000000000, 1.000000000000000000 ) ) ;
#451 = ORIENTED_EDGE ( 'NONE', *, *, #463, .F. ) ;
#452 = CARTESIAN_POINT ( 'NONE',  ( 29.58257569495584249, 2.000000000000000000, -14.00000000000000000 ) ) ;
#453 = CARTESIAN_POINT ( 'NONE',  ( 14.00000000000000178, 12.00000000000000178, -14.00000000000000533 ) ) ;
#454 = ORIENTED_EDGE ( 'NONE', *, *, #482, .F. ) ;
#455 = ORIENTED_EDGE ( 'NONE', *, *, #137, .T. ) ;
#456 = VECTOR ( 'NONE', #586, 1000.000000000000000 ) ;
#457 = VECTOR ( 'NONE', #681, 1000.000000000000000 ) ;
#458 = LINE ( 'NONE', #252, #672 ) ;
#459 = VERTEX_POINT ( 'NONE', #14 ) ;
#460 = DIRECTION ( 'NONE',  ( 0.000000000000000000, -0.000000000000000000, -1.000000000000000000 ) ) ;
#461 = FACE_OUTER_BOUND ( 'NONE', #623, .T. ) ;
#462 = ORIENTED_EDGE ( 'NONE', *, *, #336, .T. ) ;
#463 = EDGE_CURVE ( 'NONE', #159, #530, #608, .T. ) ;
#464 = EDGE_LOOP ( 'NONE', ( #211, #571, #301, #35 ) ) ;
#465 = LINE ( 'NONE', #698, #603 ) ;
#466 = EDGE_LOOP ( 'NONE', ( #295, #88, #36, #669 ) ) ;
#467 = AXIS2_PLACEMENT_3D ( 'NONE', #312, #262, #257 ) ;
#468 = AXIS2_PLACEMENT_3D ( 'NONE', #206, #428, #5 ) ;
#469 = ORIENTED_EDGE ( 'NONE', *, *, #499, .T. ) ;
#470 = PRODUCT_RELATED_PRODUCT_CATEGORY ( 'part', '', ( #607 ) ) ;
#471 = VECTOR ( 'NONE', #29, 1000.000000000000000 ) ;
#472 = DIRECTION ( 'NONE',  ( -0.000000000000000000, -0.000000000000000000, -1.000000000000000000 ) ) ;
#473 = DIRECTION ( 'NONE',  ( 1.000000000000000000, 0.000000000000000000, -0.000000000000000000 ) ) ;
#474 = DIRECTION ( 'NONE',  ( -0.000000000000000000, -1.000000000000000000, -0.000000000000000000 ) ) ;
#475 = EDGE_LOOP ( 'NONE', ( #315, #561, #495, #285 ) ) ;
#476 = CARTESIAN_POINT ( 'NONE',  ( 26.41774468787573227, 2.000000000000000000, -14.00000000000000000 ) ) ;
#477 = CARTESIAN_POINT ( 'NONE',  ( 23.58225531212428550, 2.000000000000000000, 0.000000000000000000 ) ) ;
#478 = APPLICATION_CONTEXT ( 'automotive_design' ) ;
#479 = EDGE_LOOP ( 'NONE', ( #358, #337, #643, #230 ) ) ;
#480 = SURFACE_STYLE_FILL_AREA ( #703 ) ;
#481 = CARTESIAN_POINT ( 'NONE',  ( 0.000000000000000000, 2.000000000000000000, 0.000000000000000000 ) ) ;
#482 = EDGE_CURVE ( 'NONE', #400, #19, #324, .T. ) ;
#483 = ORIENTED_EDGE ( 'NONE', *, *, #122, .T. ) ;
#484 = CYLINDRICAL_SURFACE ( 'NONE', #221, 11.00000000000000355 ) ;
#485 = VECTOR ( 'NONE', #189, 1000.000000000000000 ) ;
#486 = CARTESIAN_POINT ( 'NONE',  ( 43.50000000000000000, 2.000000000000000000, -7.000000000000000888 ) ) ;
#487 =( NAMED_UNIT ( * ) PLANE_ANGLE_UNIT ( ) SI_UNIT ( $, .RADIAN. ) );
#488 = FACE_OUTER_BOUND ( 'NONE', #344, .T. ) ;
#489 =( LENGTH_UNIT ( ) NAMED_UNIT ( * ) SI_UNIT ( .MILLI., .METRE. ) );
#490 = AXIS2_PLACEMENT_3D ( 'NONE', #442, #501, #399 ) ;
#491 = CIRCLE ( 'NONE', #539, 10.09999999999999076 ) ;
#492 = ORIENTED_EDGE ( 'NONE', *, *, #348, .F. ) ;
#493 = LINE ( 'NONE', #17, #170 ) ;
#494 = CARTESIAN_POINT ( 'NONE',  ( 35.09999999999999432, 12.00000000000000178, -14.00000000000000533 ) ) ;
#495 = ORIENTED_EDGE ( 'NONE', *, *, #361, .T. ) ;
#496 = DIRECTION ( 'NONE',  ( 1.000000000000000000, 0.000000000000000000, 0.000000000000000000 ) ) ;
#497 = CARTESIAN_POINT ( 'NONE',  ( 7.000000000000000000, 0.000000000000000000, -9.099999999999990763 ) ) ;
#498 = ORIENTED_EDGE ( 'NONE', *, *, #651, .F. ) ;
#499 = EDGE_CURVE ( 'NONE', #139, #660, #44, .T. ) ;
#500 = VECTOR ( 'NONE', #363, 1000.000000000000000 ) ;
#501 = DIRECTION ( 'NONE',  ( 0.000000000000000000, -1.000000000000000000, 0.000000000000000000 ) ) ;
#502 = ORIENTED_EDGE ( 'NONE', *, *, #385, .T. ) ;
#503 = CIRCLE ( 'NONE', #195, 10.09999999999999076 ) ;
#504 = ADVANCED_FACE ( 'NONE', ( #390 ), #175, .F. ) ;
#505 = DIRECTION ( 'NONE',  ( 0.000000000000000000, 0.000000000000000000, 1.000000000000000000 ) ) ;
#506 = DIRECTION ( 'NONE',  ( 0.000000000000000000, 0.000000000000000000, 1.000000000000000000 ) ) ;
#507 = ORIENTED_EDGE ( 'NONE', *, *, #58, .T. ) ;
#508 = EDGE_CURVE ( 'NONE', #178, #326, #673, .T. ) ;
#509 = CARTESIAN_POINT ( 'NONE',  ( 36.00000000000000711, 12.00000000000000178, 0.000000000000000000 ) ) ;
#510 = ORIENTED_EDGE ( 'NONE', *, *, #15, .F. ) ;
#511 = DIRECTION ( 'NONE',  ( -0.000000000000000000, -1.000000000000000000, -0.000000000000000000 ) ) ;
#512 = CARTESIAN_POINT ( 'NONE',  ( 26.41774468787573227, 2.000000000000001776, -14.00000000000000533 ) ) ;
#513 = EDGE_CURVE ( 'NONE', #594, #98, #394, .T. ) ;
#514 = ORIENTED_EDGE ( 'NONE', *, *, #545, .F. ) ;
#515 = CONICAL_SURFACE ( 'NONE', #575, 2.524999999999999467, 0.7853981633974626009 ) ;
#516 = VECTOR ( 'NONE', #496, 1000.000000000000000 ) ;
#517 = DIRECTION ( 'NONE',  ( 0.000000000000000000, 0.000000000000000000, 1.000000000000000000 ) ) ;
#518 = ORIENTED_EDGE ( 'NONE', *, *, #647, .T. ) ;
#519 = VERTEX_POINT ( 'NONE', #116 ) ;
#520 = LINE ( 'NONE', #573, #371 ) ;
#521 = ORIENTED_EDGE ( 'NONE', *, *, #651, .T. ) ;
#522 = VERTEX_POINT ( 'NONE', #453 ) ;
#523 = CARTESIAN_POINT ( 'NONE',  ( 25.00000000000000000, 12.00000000000000178, -14.00000000000000533 ) ) ;
#524 = CARTESIAN_POINT ( 'NONE',  ( 43.50000000000000000, 0.000000000000000000, -7.000000000000000888 ) ) ;
#525 = VECTOR ( 'NONE', #146, 1000.000000000000000 ) ;
#526 = ORIENTED_EDGE ( 'NONE', *, *, #499, .F. ) ;
#527 = VECTOR ( 'NONE', #592, 1000.000000000000000 ) ;
#528 = CARTESIAN_POINT ( 'NONE',  ( 7.000000000000000000, 0.000000000000000000, -7.000000000000000888 ) ) ;
#529 = DIRECTION ( 'NONE',  ( 0.000000000000000000, 0.000000000000000000, 1.000000000000000000 ) ) ;
#530 = VERTEX_POINT ( 'NONE', #551 ) ;
#531 = DIRECTION ( 'NONE',  ( 0.000000000000000000, 0.000000000000000000, 1.000000000000000000 ) ) ;
#532 = DIRECTION ( 'NONE',  ( -0.000000000000000000, -0.000000000000000000, -1.000000000000000000 ) ) ;
#533 = ADVANCED_FACE ( 'NONE', ( #613 ), #248, .F. ) ;
#534 = LINE ( 'NONE', #593, #207 ) ;
#535 = ORIENTED_EDGE ( 'NONE', *, *, #169, .T. ) ;
#536 = DIRECTION ( 'NONE',  ( 0.000000000000000000, 0.000000000000000000, -1.000000000000000000 ) ) ;
#537 = EDGE_CURVE ( 'NONE', #244, #630, #214, .T. ) ;
#538 = DIRECTION ( 'NONE',  ( 0.000000000000000000, 0.000000000000000000, -1.000000000000000000 ) ) ;
#539 = AXIS2_PLACEMENT_3D ( 'NONE', #359, #472, #697 ) ;
#540 = AXIS2_PLACEMENT_3D ( 'NONE', #231, #617, #279 ) ;
#541 = CARTESIAN_POINT ( 'NONE',  ( 14.00000000000000178, 12.00000000000000178, 0.000000000000000000 ) ) ;
#542 = EDGE_CURVE ( 'NONE', #425, #123, #427, .T. ) ;
#543 = CARTESIAN_POINT ( 'NONE',  ( 0.000000000000000000, 0.000000000000000000, 0.000000000000000000 ) ) ;
#544 = CARTESIAN_POINT ( 'NONE',  ( 0.000000000000000000, 2.000000000000000000, 0.000000000000000000 ) ) ;
#545 = EDGE_CURVE ( 'NONE', #425, #154, #679, .T. ) ;
#546 = DIRECTION ( 'NONE',  ( 1.000000000000000000, 0.000000000000000000, 0.000000000000000000 ) ) ;
#547 = VERTEX_POINT ( 'NONE', #23 ) ;
#548 =( GEOMETRIC_REPRESENTATION_CONTEXT ( 3 ) GLOBAL_UNCERTAINTY_ASSIGNED_CONTEXT ( ( #448 ) ) GLOBAL_UNIT_ASSIGNED_CONTEXT ( ( #489, #201, #59 ) ) REPRESENTATION_CONTEXT ( 'NONE', 'WORKASPACE' ) );
#549 = LINE ( 'NONE', #331, #516 ) ;
#550 = CIRCLE ( 'NONE', #330, 2.524999999999997691 ) ;
#551 = CARTESIAN_POINT ( 'NONE',  ( 7.000000000000000000, -1.734723475976807883E-15, -4.475000000000002309 ) ) ;
#552 = VECTOR ( 'NONE', #82, 1000.000000000000000 ) ;
#553 = ORIENTED_EDGE ( 'NONE', *, *, #569, .F. ) ;
#554 = DIRECTION ( 'NONE',  ( 1.000000000000000000, 0.000000000000000000, 0.000000000000000000 ) ) ;
#555 = ADVANCED_FACE ( 'NONE', ( #177, #126, #567 ), #79, .T. ) ;
#556 = DIRECTION ( 'NONE',  ( 0.000000000000000000, 0.000000000000000000, -1.000000000000000000 ) ) ;
#557 = EDGE_LOOP ( 'NONE', ( #398, #674, #227, #3 ) ) ;
#558 = UNCERTAINTY_MEASURE_WITH_UNIT (LENGTH_MEASURE( 1.000000000000000082E-05 ), #267, 'distance_accuracy_value', 'NONE');
#559 = CARTESIAN_POINT ( 'NONE',  ( 25.00000000000000000, 12.00000000000000178, 0.000000000000000000 ) ) ;
#560 = DIRECTION ( 'NONE',  ( 0.000000000000000000, -1.000000000000000000, 0.000000000000000000 ) ) ;
#561 = ORIENTED_EDGE ( 'NONE', *, *, #463, .T. ) ;
#562 = LINE ( 'NONE', #509, #612 ) ;
#563 = ORIENTED_EDGE ( 'NONE', *, *, #700, .T. ) ;
#564 = VECTOR ( 'NONE', #628, 1000.000000000000000 ) ;
#565 = EDGE_CURVE ( 'NONE', #339, #94, #317, .T. ) ;
#566 = FACE_OUTER_BOUND ( 'NONE', #374, .T. ) ;
#567 = FACE_OUTER_BOUND ( 'NONE', #409, .T. ) ;
#568 = VERTEX_POINT ( 'NONE', #110 ) ;
#569 = EDGE_CURVE ( 'NONE', #200, #459, #109, .T. ) ;
#570 = CARTESIAN_POINT ( 'NONE',  ( 0.000000000000000000, 2.000000000000000000, -14.00000000000000000 ) ) ;
#571 = ORIENTED_EDGE ( 'NONE', *, *, #274, .F. ) ;
#572 = CARTESIAN_POINT ( 'NONE',  ( 43.50000000000000000, 0.000000000000000000, -7.000000000000000888 ) ) ;
#573 = CARTESIAN_POINT ( 'NONE',  ( 14.00000000000000178, 12.00000000000000178, -14.00000000000000533 ) ) ;
#574 = ORIENTED_EDGE ( 'NONE', *, *, #647, .F. ) ;
#575 = AXIS2_PLACEMENT_3D ( 'NONE', #655, #6, #57 ) ;
#576 = VECTOR ( 'NONE', #124, 1000.000000000000000 ) ;
#577 = ORIENTED_EDGE ( 'NONE', *, *, #667, .T. ) ;
#578 = PLANE ( 'NONE',  #372 ) ;
#579 = CYLINDRICAL_SURFACE ( 'NONE', #652, 10.09999999999999076 ) ;
#580 = ADVANCED_FACE ( 'NONE', ( #254 ), #418, .F. ) ;
#581 = CARTESIAN_POINT ( 'NONE',  ( 43.50000000000000000, 0.000000000000000000, -9.099999999999992539 ) ) ;
#582 = ORIENTED_EDGE ( 'NONE', *, *, #361, .F. ) ;
#583 = DIRECTION ( 'NONE',  ( 8.659560562355057350E-17, -0.7071067811865374697, 0.7071067811865576758 ) ) ;
#584 = ORIENTED_EDGE ( 'NONE', *, *, #118, .T. ) ;
#585 = ORIENTED_EDGE ( 'NONE', *, *, #327, .F. ) ;
#586 = DIRECTION ( 'NONE',  ( -0.000000000000000000, -1.000000000000000000, -0.000000000000000000 ) ) ;
#587 = FACE_OUTER_BOUND ( 'NONE', #680, .T. ) ;
#588 = CIRCLE ( 'NONE', #664, 10.09999999999999076 ) ;
#589 = VERTEX_POINT ( 'NONE', #626 ) ;
#590 = VECTOR ( 'NONE', #546, 1000.000000000000000 ) ;
#591 = CARTESIAN_POINT ( 'NONE',  ( 7.000000000000000000, 0.000000000000000000, -7.000000000000000888 ) ) ;
#592 = DIRECTION ( 'NONE',  ( -1.000000000000000000, -0.000000000000000000, -0.000000000000000000 ) ) ;
#593 = CARTESIAN_POINT ( 'NONE',  ( 23.58225531212428550, 2.000000000000000000, -14.00000000000000533 ) ) ;
#594 = VERTEX_POINT ( 'NONE', #31 ) ;
#595 = CARTESIAN_POINT ( 'NONE',  ( 0.000000000000000000, 2.000000000000000000, 0.000000000000000000 ) ) ;
#596 = LINE ( 'NONE', #481, #694 ) ;
#597 = CARTESIAN_POINT ( 'NONE',  ( 29.58257569495584605, 2.000000000000001776, -14.00000000000000533 ) ) ;
#598 = ADVANCED_FACE ( 'NONE', ( #345 ), #578, .F. ) ;
#599 = PLANE ( 'NONE',  #168 ) ;
#600 = CARTESIAN_POINT ( 'NONE',  ( 35.09999999999999432, 12.00000000000000178, -14.00000000000000533 ) ) ;
#601 = DIRECTION ( 'NONE',  ( 1.000000000000000000, 0.000000000000000000, 0.000000000000000000 ) ) ;
#602 = ORIENTED_EDGE ( 'NONE', *, *, #174, .F. ) ;
#603 = VECTOR ( 'NONE', #306, 1000.000000000000000 ) ;
#604 = FACE_OUTER_BOUND ( 'NONE', #464, .T. ) ;
#605 = ADVANCED_FACE ( 'NONE', ( #407, #181 ), #140, .F. ) ;
#606 = VERTEX_POINT ( 'NONE', #355 ) ;
#607 = PRODUCT ( '\X2\7ba19053652f67b6\X0\1', '\X2\7ba19053652f67b6\X0\1', '', ( #662 ) ) ;
#608 = LINE ( 'NONE', #677, #471 ) ;
#609 = VERTEX_POINT ( 'NONE', #89 ) ;
#610 = ADVANCED_BREP_SHAPE_REPRESENTATION ( '\X2\7ba19053652f67b6\X0\1', ( #687, #162 ), #635 ) ;
#611 = EDGE_CURVE ( 'NONE', #94, #351, #235, .T. ) ;
#612 = VECTOR ( 'NONE', #622, 1000.000000000000000 ) ;
#613 = FACE_OUTER_BOUND ( 'NONE', #421, .T. ) ;
#614 = ORIENTED_EDGE ( 'NONE', *, *, #611, .T. ) ;
#615 = EDGE_CURVE ( 'NONE', #351, #280, #38, .T. ) ;
#616 = FACE_OUTER_BOUND ( 'NONE', #27, .T. ) ;
#617 = DIRECTION ( 'NONE',  ( 0.000000000000000000, 0.000000000000000000, 1.000000000000000000 ) ) ;
#618 = ORIENTED_EDGE ( 'NONE', *, *, #569, .T. ) ;
#619 = PRODUCT_DEFINITION_CONTEXT ( 'detailed design', #478, 'design' ) ;
#620 = DIRECTION ( 'NONE',  ( -1.000000000000000000, 0.000000000000000000, 0.000000000000000000 ) ) ;
#621 = EDGE_CURVE ( 'NONE', #123, #159, #297, .T. ) ;
#622 = DIRECTION ( 'NONE',  ( -1.000000000000000000, 0.000000000000000000, 0.000000000000000000 ) ) ;
#623 = EDGE_LOOP ( 'NONE', ( #614, #405, #683, #366, #183, #103, #127, #197, #53, #16, #87, #388 ) ) ;
#624 = EDGE_CURVE ( 'NONE', #154, #159, #403, .T. ) ;
#625 = AXIS2_PLACEMENT_3D ( 'NONE', #71, #506, #26 ) ;
#626 = CARTESIAN_POINT ( 'NONE',  ( 36.00000000000000711, 12.00000000000000178, 0.000000000000000000 ) ) ;
#627 = ORIENTED_EDGE ( 'NONE', *, *, #274, .T. ) ;
#628 = DIRECTION ( 'NONE',  ( 0.000000000000000000, 0.000000000000000000, -1.000000000000000000 ) ) ;
#629 = EDGE_LOOP ( 'NONE', ( #353, #574, #95, #627 ) ) ;
#630 = VERTEX_POINT ( 'NONE', #639 ) ;
#631 = EDGE_CURVE ( 'NONE', #243, #519, #491, .T. ) ;
#632 = CARTESIAN_POINT ( 'NONE',  ( 0.000000000000000000, 2.000000000000000000, 0.000000000000000000 ) ) ;
#633 = PLANE ( 'NONE',  #56 ) ;
#634 = DIRECTION ( 'NONE',  ( -0.000000000000000000, -1.000000000000000000, -0.000000000000000000 ) ) ;
#635 =( GEOMETRIC_REPRESENTATION_CONTEXT ( 3 ) GLOBAL_UNCERTAINTY_ASSIGNED_CONTEXT ( ( #558 ) ) GLOBAL_UNIT_ASSIGNED_CONTEXT ( ( #267, #487, #426 ) ) REPRESENTATION_CONTEXT ( 'NONE', 'WORKASPACE' ) );
#636 = VECTOR ( 'NONE', #474, 1000.000000000000000 ) ;
#637 = CIRCLE ( 'NONE', #234, 2.524999999999999467 ) ;
#638 = ORIENTED_EDGE ( 'NONE', *, *, #641, .T. ) ;
#639 = CARTESIAN_POINT ( 'NONE',  ( 36.00000000000000711, 12.00000000000000178, -14.00000000000000533 ) ) ;
#640 = LINE ( 'NONE', #512, #485 ) ;
#641 = EDGE_CURVE ( 'NONE', #61, #568, #43, .T. ) ;
#642 = DIRECTION ( 'NONE',  ( -0.000000000000000000, -1.000000000000000000, -0.000000000000000000 ) ) ;
#643 = ORIENTED_EDGE ( 'NONE', *, *, #300, .F. ) ;
#644 = CARTESIAN_POINT ( 'NONE',  ( 0.000000000000000000, 0.000000000000000000, -14.00000000000000000 ) ) ;
#645 = DIRECTION ( 'NONE',  ( -1.000000000000000000, 0.000000000000000000, -0.000000000000000000 ) ) ;
#646 = CARTESIAN_POINT ( 'NONE',  ( 50.00000000000000000, 2.000000000000000000, -14.00000000000000000 ) ) ;
#647 = EDGE_CURVE ( 'NONE', #244, #200, #46, .T. ) ;
#648 = ORIENTED_EDGE ( 'NONE', *, *, #380, .T. ) ;
#649 = FACE_OUTER_BOUND ( 'NONE', #417, .T. ) ;
#650 = DIRECTION ( 'NONE',  ( -0.000000000000000000, -1.000000000000000000, -0.000000000000000000 ) ) ;
#651 = EDGE_CURVE ( 'NONE', #594, #568, #156, .T. ) ;
#652 = AXIS2_PLACEMENT_3D ( 'NONE', #523, #85, #236 ) ;
#653 = ORIENTED_EDGE ( 'NONE', *, *, #131, .T. ) ;
#654 = SURFACE_STYLE_USAGE ( .BOTH. , #104 ) ;
#655 = CARTESIAN_POINT ( 'NONE',  ( 43.50000000000000000, -1.734723475976807883E-15, -7.000000000000000888 ) ) ;
#656 = ORIENTED_EDGE ( 'NONE', *, *, #300, .T. ) ;
#657 = ORIENTED_EDGE ( 'NONE', *, *, #222, .T. ) ;
#658 = CARTESIAN_POINT ( 'NONE',  ( 0.000000000000000000, 2.000000000000000000, 0.000000000000000000 ) ) ;
#659 = CARTESIAN_POINT ( 'NONE',  ( 25.00000000000000000, 12.00000000000000178, -14.00000000000000533 ) ) ;
#660 = VERTEX_POINT ( 'NONE', #430 ) ;
#661 = DIRECTION ( 'NONE',  ( -0.000000000000000000, -1.000000000000000000, -0.000000000000000000 ) ) ;
#662 = PRODUCT_CONTEXT ( 'NONE', #378, 'mechanical' ) ;
#663 = AXIS2_PLACEMENT_3D ( 'NONE', #524, #650, #107 ) ;
#664 = AXIS2_PLACEMENT_3D ( 'NONE', #115, #225, #13 ) ;
#665 = FACE_OUTER_BOUND ( 'NONE', #557, .T. ) ;
#666 = ORIENTED_EDGE ( 'NONE', *, *, #204, .F. ) ;
#667 = EDGE_CURVE ( 'NONE', #166, #280, #149, .T. ) ;
#668 = CARTESIAN_POINT ( 'NONE',  ( 50.00000000000000000, 2.000000000000000000, 0.000000000000000000 ) ) ;
#669 = ORIENTED_EDGE ( 'NONE', *, *, #75, .T. ) ;
#670 = APPLICATION_PROTOCOL_DEFINITION ( 'draft international standard', 'automotive_design', 1998, #478 ) ;
#671 = LINE ( 'NONE', #386, #576 ) ;
#672 = VECTOR ( 'NONE', #83, 1000.000000000000000 ) ;
#673 = LINE ( 'NONE', #494, #180 ) ;
#674 = ORIENTED_EDGE ( 'NONE', *, *, #75, .F. ) ;
#675 = ADVANCED_FACE ( 'NONE', ( #50 ), #484, .T. ) ;
#676 = DIRECTION ( 'NONE',  ( -0.000000000000000000, -0.000000000000000000, -1.000000000000000000 ) ) ;
#677 = CARTESIAN_POINT ( 'NONE',  ( 7.000000000000000000, -1.734723475976807883E-15, -4.475000000000002309 ) ) ;
#678 = ORIENTED_EDGE ( 'NONE', *, *, #118, .F. ) ;
#679 = LINE ( 'NONE', #497, #224 ) ;
#680 = EDGE_LOOP ( 'NONE', ( #69, #144, #188, #563 ) ) ;
#681 = DIRECTION ( 'NONE',  ( -0.000000000000000000, -0.000000000000000000, 1.000000000000000000 ) ) ;
#682 = VECTOR ( 'NONE', #517, 1000.000000000000000 ) ;
#683 = ORIENTED_EDGE ( 'NONE', *, *, #513, .F. ) ;
#684 = AXIS2_PLACEMENT_3D ( 'NONE', #572, #238, #132 ) ;
#685 = CARTESIAN_POINT ( 'NONE',  ( 50.00000000000000000, 2.000000000000000000, 0.000000000000000000 ) ) ;
#686 = ORIENTED_EDGE ( 'NONE', *, *, #323, .T. ) ;
#687 = MANIFOLD_SOLID_BREP ( 'M5 ÂÝÎÆ¿×3', #179 ) ;
#688 = DIRECTION ( 'NONE',  ( -1.000000000000000000, -0.000000000000000000, -0.000000000000000000 ) ) ;
#689 = DIRECTION ( 'NONE',  ( 0.000000000000000000, 0.000000000000000000, -1.000000000000000000 ) ) ;
#690 = DIRECTION ( 'NONE',  ( 0.000000000000000000, -1.000000000000000000, 0.000000000000000000 ) ) ;
#691 = ADVANCED_FACE ( 'NONE', ( #368 ), #158, .F. ) ;
#692 = ORIENTED_EDGE ( 'NONE', *, *, #447, .F. ) ;
#693 = FACE_OUTER_BOUND ( 'NONE', #347, .T. ) ;
#694 = VECTOR ( 'NONE', #42, 1000.000000000000000 ) ;
#695 = AXIS2_PLACEMENT_3D ( 'NONE', #335, #226, #450 ) ;
#696 = EDGE_LOOP ( 'NONE', ( #134, #585 ) ) ;
#697 = DIRECTION ( 'NONE',  ( 1.000000000000000000, 0.000000000000000000, 0.000000000000000000 ) ) ;
#698 = CARTESIAN_POINT ( 'NONE',  ( 0.000000000000000000, 2.000000000000000000, 0.000000000000000000 ) ) ;
#699 = PRODUCT_DEFINITION_SHAPE ( 'NONE', 'NONE',  #25 ) ;
#700 = EDGE_CURVE ( 'NONE', #547, #45, #401, .T. ) ;
#701 = CARTESIAN_POINT ( 'NONE',  ( 0.000000000000000000, 0.000000000000000000, 0.000000000000000000 ) ) ;
#702 = EDGE_LOOP ( 'NONE', ( #310, #518, #618, #78 ) ) ;
#703 = FILL_AREA_STYLE ('',( #320 ) ) ;
#704 = DIRECTION ( 'NONE',  ( 0.000000000000000000, 0.000000000000000000, -1.000000000000000000 ) ) ;
#705 = CARTESIAN_POINT ( 'NONE',  ( 43.50000000000000000, 0.000000000000000000, -4.900000000000010125 ) ) ;
#706 = ORIENTED_EDGE ( 'NONE', *, *, #615, .F. ) ;
#707 = CARTESIAN_POINT ( 'NONE',  ( 20.41742430504416461, 2.000000000000000444, -14.00000000000000533 ) ) ;
ENDSEC;
END-ISO-10303-21;
