ISO-10303-21;
HEADER;
FILE_DESCRIPTION (( 'STEP AP214' ),
    '1' );
FILE_NAME ('¹ÜµÀÖ§¼Ü2.STEP',
    '2026-07-29T04:57:34',
    ( '' ),
    ( '' ),
    'SwSTEP 2.0',
    'SolidWorks 2024',
    '' );
FILE_SCHEMA (( 'AUTOMOTIVE_DESIGN' ));
ENDSEC;

DATA;
#1 = CARTESIAN_POINT ( 'NONE',  ( 8.977183093455964880, 3.726572152189819409, -8.222508560507042930 ) ) ;
#2 = VERTEX_POINT ( 'NONE', #285 ) ;
#3 = FILL_AREA_STYLE ('',( #654 ) ) ;
#4 = EDGE_CURVE ( 'NONE', #505, #673, #856, .T. ) ;
#5 = CYLINDRICAL_SURFACE ( 'NONE', #317, 2.099999999999988098 ) ;
#6 = DIRECTION ( 'NONE',  ( 0.000000000000000000, 0.000000000000000000, -1.000000000000000000 ) ) ;
#7 = ORIENTED_EDGE ( 'NONE', *, *, #287, .F. ) ;
#8 = VECTOR ( 'NONE', #735, 1000.000000000000000 ) ;
#9 = CARTESIAN_POINT ( 'NONE',  ( 18.79893031489439537, 3.911304859262367817, -9.599999999999981881 ) ) ;
#10 = CIRCLE ( 'NONE', #576, 10.86285106106642750 ) ;
#11 = ORIENTED_EDGE ( 'NONE', *, *, #1006, .F. ) ;
#12 = ADVANCED_FACE ( 'NONE', ( #36 ), #442, .F. ) ;
#13 = CARTESIAN_POINT ( 'NONE',  ( 19.00000000000000000, 0.000000000000000000, -7.499999999999992006 ) ) ;
#14 = ORIENTED_EDGE ( 'NONE', *, *, #800, .F. ) ;
#15 = CYLINDRICAL_SURFACE ( 'NONE', #217, 10.19999999999999929 ) ;
#16 = VERTEX_POINT ( 'NONE', #278 ) ;
#17 = ORIENTED_EDGE ( 'NONE', *, *, #20, .F. ) ;
#18 = DIRECTION ( 'NONE',  ( -0.000000000000000000, -1.000000000000000000, -0.000000000000000000 ) ) ;
#19 = LINE ( 'NONE', #742, #61 ) ;
#20 = EDGE_CURVE ( 'NONE', #689, #673, #683, .T. ) ;
#21 = ORIENTED_EDGE ( 'NONE', *, *, #1000, .T. ) ;
#22 = PLANE ( 'NONE',  #595 ) ;
#23 = CARTESIAN_POINT ( 'NONE',  ( 17.07201342769026908, 3.028931716572101251, -6.633455449287954053 ) ) ;
#24 = ORIENTED_EDGE ( 'NONE', *, *, #270, .T. ) ;
#25 = CARTESIAN_POINT ( 'NONE',  ( 4.989488954345904226, 5.762697343448186516, -8.126379049374692798 ) ) ;
#26 = VECTOR ( 'NONE', #188, 1000.000000000000000 ) ;
#27 = PRODUCT_DEFINITION ( 'æœ', '', #219, #612 ) ;
#28 = MECHANICAL_DESIGN_GEOMETRIC_PRESENTATION_REPRESENTATION (  '', ( #912 ), #760 ) ;
#29 = AXIS2_PLACEMENT_3D ( 'NONE', #120, #291, #620 ) ;
#30 = CARTESIAN_POINT ( 'NONE',  ( 23.19999999999999929, 13.10000000000000142, 0.000000000000000000 ) ) ;
#31 = LINE ( 'NONE', #920, #26 ) ;
#32 = CARTESIAN_POINT ( 'NONE',  ( 6.478047530861254621, 4.407497287789808205, -5.449677416746927072 ) ) ;
#33 = EDGE_LOOP ( 'NONE', ( #201, #139, #347, #903 ) ) ;
#34 = EDGE_CURVE ( 'NONE', #845, #823, #939, .T. ) ;
#35 = CARTESIAN_POINT ( 'NONE',  ( 16.89959616809333198, 3.674866052699624408, -7.357701776674790750 ) ) ;
#36 = FACE_OUTER_BOUND ( 'NONE', #945, .T. ) ;
#37 = CARTESIAN_POINT ( 'NONE',  ( 6.999999999999704237, 4.044530206835427855, -9.600000000001200462 ) ) ;
#38 = CARTESIAN_POINT ( 'NONE',  ( 7.000000000000000000, 4.044530206835642794, -5.400000000000012790 ) ) ;
#39 = ORIENTED_EDGE ( 'NONE', *, *, #1016, .F. ) ;
#40 = CARTESIAN_POINT ( 'NONE',  ( 6.006063744116863390, 5.668576734340299517, -5.632556813776741222 ) ) ;
#41 = VECTOR ( 'NONE', #1025, 1000.000000000000000 ) ;
#42 = AXIS2_PLACEMENT_3D ( 'NONE', #587, #754, #274 ) ;
#43 = PRODUCT_CONTEXT ( 'NONE', #305, 'mechanical' ) ;
#44 = VERTEX_POINT ( 'NONE', #130 ) ;
#45 = DIRECTION ( 'NONE',  ( 0.000000000000000000, -0.000000000000000000, -1.000000000000000000 ) ) ;
#46 = ORIENTED_EDGE ( 'NONE', *, *, #810, .T. ) ;
#47 = LINE ( 'NONE', #371, #41 ) ;
#48 = CARTESIAN_POINT ( 'NONE',  ( 17.02635673485946199, 3.728082811904220417, -8.232353425357544552 ) ) ;
#49 = CARTESIAN_POINT ( 'NONE',  ( 19.99555354360527204, 5.670257252641668799, -9.366188283017226723 ) ) ;
#50 = CARTESIAN_POINT ( 'NONE',  ( 19.26751253226143135, 4.221779452896877949, -9.599999999999980105 ) ) ;
#51 = CARTESIAN_POINT ( 'NONE',  ( 9.001058493186967269, 2.999999999999997335, -8.136996787153792710 ) ) ;
#52 = EDGE_CURVE ( 'NONE', #444, #954, #195, .T. ) ;
#53 = ORIENTED_EDGE ( 'NONE', *, *, #670, .T. ) ;
#54 = CARTESIAN_POINT ( 'NONE',  ( 13.00000000000000000, 13.10000000000000142, 0.000000000000000000 ) ) ;
#55 = CARTESIAN_POINT ( 'NONE',  ( 8.538337672243006438, 3.194520649212615471, -6.051507889055340428 ) ) ;
#56 = CARTESIAN_POINT ( 'NONE',  ( 19.00000000000000000, 0.4249999999999948264, -9.599999999999980105 ) ) ;
#57 = ORIENTED_EDGE ( 'NONE', *, *, #644, .F. ) ;
#58 = VERTEX_POINT ( 'NONE', #308 ) ;
#59 = CARTESIAN_POINT ( 'NONE',  ( 19.00000000000000000, 0.4249999999999948264, -7.499999999999992006 ) ) ;
#60 = CARTESIAN_POINT ( 'NONE',  ( 5.044288033173342178, 6.715897758791241401, -8.278941806244551671 ) ) ;
#61 = VECTOR ( 'NONE', #664, 1000.000000000000000 ) ;
#62 = AXIS2_PLACEMENT_3D ( 'NONE', #675, #681, #761 ) ;
#63 = CARTESIAN_POINT ( 'NONE',  ( 19.00000000000000000, 4.851363749079488308, -9.599999999999980105 ) ) ;
#64 = CARTESIAN_POINT ( 'NONE',  ( 19.63948545152294400, 4.501042662417443552, -5.495633715774277839 ) ) ;
#65 = LINE ( 'NONE', #388, #125 ) ;
#66 = DIRECTION ( 'NONE',  ( 1.000000000000000000, 0.000000000000000000, 0.000000000000000000 ) ) ;
#67 = CARTESIAN_POINT ( 'NONE',  ( 5.791678804573482608, 5.877911039299587692, -5.763072251253293921 ) ) ;
#68 = EDGE_CURVE ( 'NONE', #749, #136, #558, .T. ) ;
#69 = CARTESIAN_POINT ( 'NONE',  ( 19.00000000000000000, -1.734723475976807883E-15, -7.499999999999992006 ) ) ;
#70 = CARTESIAN_POINT ( 'NONE',  ( 0.000000000000000000, 3.000000000000000000, -15.00000000000000178 ) ) ;
#71 = CARTESIAN_POINT ( 'NONE',  ( 13.00000000000000000, 13.10000000000000142, 0.000000000000000000 ) ) ;
#72 = PLANE ( 'NONE',  #148 ) ;
#73 = CARTESIAN_POINT ( 'NONE',  ( 7.000000000000000000, 0.4249999999999948264, -9.599999999999990763 ) ) ;
#74 = CARTESIAN_POINT ( 'NONE',  ( 20.82947990713207886, 6.561719469373467284, -8.541188573748362600 ) ) ;
#75 = CARTESIAN_POINT ( 'NONE',  ( 8.199863668456695009, 4.099129348654297900, -5.771381178881786589 ) ) ;
#76 = VERTEX_POINT ( 'NONE', #324 ) ;
#77 = CARTESIAN_POINT ( 'NONE',  ( 0.000000000000000000, 3.000000000000000000, -15.00000000000000178 ) ) ;
#78 = LINE ( 'NONE', #245, #298 ) ;
#79 = AXIS2_PLACEMENT_3D ( 'NONE', #907, #266, #599 ) ;
#80 = AXIS2_PLACEMENT_3D ( 'NONE', #54, #792, #66 ) ;
#81 = LINE ( 'NONE', #1053, #181 ) ;
#82 = AXIS2_PLACEMENT_3D ( 'NONE', #702, #692, #1010 ) ;
#83 = CARTESIAN_POINT ( 'NONE',  ( 14.42478068487749709, 2.999999999999999112, -15.00000000000000000 ) ) ;
#84 = DIRECTION ( 'NONE',  ( 0.000000000000000000, 0.000000000000000000, -1.000000000000000000 ) ) ;
#85 = CARTESIAN_POINT ( 'NONE',  ( 7.000000000000000000, 0.000000000000000000, -9.599999999999988987 ) ) ;
#86 = CARTESIAN_POINT ( 'NONE',  ( 0.000000000000000000, 0.000000000000000000, 0.000000000000000000 ) ) ;
#87 = CARTESIAN_POINT ( 'NONE',  ( 21.10022833862866776, 5.862055944079987313, -7.658601996171265469 ) ) ;
#88 = ORIENTED_EDGE ( 'NONE', *, *, #68, .T. ) ;
#89 = EDGE_CURVE ( 'NONE', #302, #988, #649, .T. ) ;
#90 = CARTESIAN_POINT ( 'NONE',  ( 19.26506096940194723, 5.044167234168818403, -5.400000000000004796 ) ) ;
#91 = CARTESIAN_POINT ( 'NONE',  ( 17.69265836188974461, 4.042824302616250698, -9.149378532786343499 ) ) ;
#92 = LINE ( 'NONE', #904, #648 ) ;
#93 = ORIENTED_EDGE ( 'NONE', *, *, #622, .T. ) ;
#94 = CARTESIAN_POINT ( 'NONE',  ( 17.39151132349910611, 3.164109568571667364, -6.144946097631983406 ) ) ;
#95 = VECTOR ( 'NONE', #730, 1000.000000000000000 ) ;
#96 = SURFACE_STYLE_USAGE ( .BOTH. , #327 ) ;
#97 = VECTOR ( 'NONE', #410, 1000.000000000000000 ) ;
#98 = ORIENTED_EDGE ( 'NONE', *, *, #662, .T. ) ;
#99 =( GEOMETRIC_REPRESENTATION_CONTEXT ( 3 ) GLOBAL_UNCERTAINTY_ASSIGNED_CONTEXT ( ( #699 ) ) GLOBAL_UNIT_ASSIGNED_CONTEXT ( ( #769, #265, #687 ) ) REPRESENTATION_CONTEXT ( 'NONE', 'WORKASPACE' ) );
#100 = EDGE_CURVE ( 'NONE', #1018, #1022, #478, .T. ) ;
#101 = CARTESIAN_POINT ( 'NONE',  ( 13.00000000000000000, 13.10000000000000142, 0.000000000000000000 ) ) ;
#102 = CARTESIAN_POINT ( 'NONE',  ( 7.000000000000000000, 0.000000000000000000, -5.400000000000012790 ) ) ;
#103 = DIRECTION ( 'NONE',  ( 1.000000000000000000, 0.000000000000000000, 0.000000000000000000 ) ) ;
#104 = VERTEX_POINT ( 'NONE', #393 ) ;
#105 = CARTESIAN_POINT ( 'NONE',  ( 0.000000000000000000, 3.000000000000000000, -15.00000000000000178 ) ) ;
#106 = CARTESIAN_POINT ( 'NONE',  ( 18.75831468221811704, 4.675563548588233864, -9.599999999999978328 ) ) ;
#107 = EDGE_CURVE ( 'NONE', #613, #76, #81, .T. ) ;
#108 = B_SPLINE_CURVE_WITH_KNOTS ( 'NONE', 3,
 ( #1034, #304, #368, #55, #859, #614, #937, #459, #701, #1020 ),
 .UNSPECIFIED., .F., .F.,
 ( 4, 2, 2, 2, 4 ),
 ( 4.750735894131341900E-18, 0.0007155747225421523741, 0.001431149445084299978, 0.002146724167626447473, 0.002862298890168595185 ),
 .UNSPECIFIED. ) ;
#109 = ORIENTED_EDGE ( 'NONE', *, *, #598, .T. ) ;
#110 = CARTESIAN_POINT ( 'NONE',  ( 5.491734299956689824, 5.248542990355693050, -8.967162929518174508 ) ) ;
#111 = CARTESIAN_POINT ( 'NONE',  ( 19.00000000000029488, 4.044530206835431407, -5.399999999998794209 ) ) ;
#112 = CARTESIAN_POINT ( 'NONE',  ( 8.006485496239061916, 3.450780633629711769, -9.356223512168641676 ) ) ;
#113 = AXIS2_PLACEMENT_3D ( 'NONE', #976, #573, #232 ) ;
#114 = VERTEX_POINT ( 'NONE', #822 ) ;
#115 = AXIS2_PLACEMENT_3D ( 'NONE', #645, #468, #239 ) ;
#116 = CARTESIAN_POINT ( 'NONE',  ( 0.000000000000000000, 3.000000000000000000, 0.000000000000000000 ) ) ;
#117 = ORIENTED_EDGE ( 'NONE', *, *, #785, .F. ) ;
#118 = EDGE_CURVE ( 'NONE', #2, #613, #332, .T. ) ;
#119 = CARTESIAN_POINT ( 'NONE',  ( 17.68604460310154991, 4.039405158140670693, -5.855872891134012548 ) ) ;
#120 = CARTESIAN_POINT ( 'NONE',  ( 19.00000000000000000, -1.734723475976807883E-15, -7.499999999999992006 ) ) ;
#121 = CARTESIAN_POINT ( 'NONE',  ( 5.998308466463811328, 4.789056426572601666, -5.636435902073794857 ) ) ;
#122 = LINE ( 'NONE', #958, #712 ) ;
#123 = PLANE ( 'NONE',  #300 ) ;
#124 = ORIENTED_EDGE ( 'NONE', *, *, #974, .T. ) ;
#125 = VECTOR ( 'NONE', #259, 1000.000000000000000 ) ;
#126 = CARTESIAN_POINT ( 'NONE',  ( 5.046332732653926456, 6.713342848490935211, -6.715947062859394023 ) ) ;
#127 = CIRCLE ( 'NONE', #318, 10.86285106106643461 ) ;
#128 = EDGE_CURVE ( 'NONE', #1018, #872, #19, .T. ) ;
#129 = DIRECTION ( 'NONE',  ( -0.000000000000000000, -1.000000000000000000, -0.000000000000000000 ) ) ;
#130 = CARTESIAN_POINT ( 'NONE',  ( 2.799999999999998490, 13.10000000000000142, 0.000000000000000000 ) ) ;
#131 = DIRECTION ( 'NONE',  ( -0.000000000000000000, -1.000000000000000000, -0.000000000000000000 ) ) ;
#132 = CARTESIAN_POINT ( 'NONE',  ( 9.001058493186969045, 2.999999999999997780, -15.00000000000000000 ) ) ;
#133 = CARTESIAN_POINT ( 'NONE',  ( 0.000000000000000000, 0.000000000000000000, -15.00000000000000178 ) ) ;
#134 = EDGE_CURVE ( 'NONE', #2, #823, #762, .T. ) ;
#135 = ORIENTED_EDGE ( 'NONE', *, *, #905, .T. ) ;
#136 = VERTEX_POINT ( 'NONE', #344 ) ;
#137 = ORIENTED_EDGE ( 'NONE', *, *, #20, .T. ) ;
#138 = DIRECTION ( 'NONE',  ( 0.000000000000000000, 0.000000000000000000, -1.000000000000000000 ) ) ;
#139 = ORIENTED_EDGE ( 'NONE', *, *, #630, .F. ) ;
#140 = DIRECTION ( 'NONE',  ( 0.000000000000000000, 0.000000000000000000, 1.000000000000000000 ) ) ;
#141 = FACE_OUTER_BOUND ( 'NONE', #325, .T. ) ;
#142 = CARTESIAN_POINT ( 'NONE',  ( 7.490066480677903371, 4.511570981431554550, -9.558408275491892425 ) ) ;
#143 = ORIENTED_EDGE ( 'NONE', *, *, #765, .F. ) ;
#144 = DIRECTION ( 'NONE',  ( 0.000000000000000000, -1.000000000000000000, 0.000000000000000000 ) ) ;
#145 = ADVANCED_FACE ( 'NONE', ( #682, #1007 ), #984, .F. ) ;
#146 = CARTESIAN_POINT ( 'NONE',  ( 6.734156528459891433, 5.044736420721137371, -5.400000000000013678 ) ) ;
#147 = VECTOR ( 'NONE', #462, 1000.000000000000000 ) ;
#148 = AXIS2_PLACEMENT_3D ( 'NONE', #1033, #303, #634 ) ;
#149 = CARTESIAN_POINT ( 'NONE',  ( 21.08056988774505314, 6.875222168627104224, -7.826044993640687508 ) ) ;
#150 = CARTESIAN_POINT ( 'NONE',  ( 7.119770004977769240, 4.764243889746809124, -5.400000000000012790 ) ) ;
#151 = VERTEX_POINT ( 'NONE', #755 ) ;
#152 = FACE_OUTER_BOUND ( 'NONE', #516, .T. ) ;
#153 = PRODUCT_RELATED_PRODUCT_CATEGORY ( 'part', '', ( #376 ) ) ;
#154 = DIRECTION ( 'NONE',  ( 0.000000000000000000, -1.000000000000000000, 0.000000000000000000 ) ) ;
#155 = CARTESIAN_POINT ( 'NONE',  ( 8.615989109070335772, 3.889730556565675013, -8.848754495547415999 ) ) ;
#156 = LINE ( 'NONE', #77, #746 ) ;
#157 = CARTESIAN_POINT ( 'NONE',  ( 20.21258104533202271, 5.882281656115052826, -5.766422873208497890 ) ) ;
#158 = CARTESIAN_POINT ( 'NONE',  ( 23.19999999999999929, 13.10000000000000142, -15.00000000000000000 ) ) ;
#159 = LINE ( 'NONE', #253, #566 ) ;
#160 = CIRCLE ( 'NONE', #454, 2.099999999999988098 ) ;
#161 = CIRCLE ( 'NONE', #115, 2.524999999999998579 ) ;
#162 = CARTESIAN_POINT ( 'NONE',  ( 7.608643194896479223, 4.440135331659202045, -5.485995575300106175 ) ) ;
#163 = EDGE_CURVE ( 'NONE', #954, #950, #409, .T. ) ;
#164 = CARTESIAN_POINT ( 'NONE',  ( 13.00000000000000000, 13.10000000000000142, -15.00000000000000000 ) ) ;
#165 = CARTESIAN_POINT ( 'NONE',  ( 11.57521931512250291, 2.999999999999999112, -15.00000000000000000 ) ) ;
#166 = FACE_OUTER_BOUND ( 'NONE', #545, .T. ) ;
#167 = B_SPLINE_CURVE_WITH_KNOTS ( 'NONE', 3,
 ( #357, #106, #427, #817, #192, #521, #91, #413, #441, #48, #783, #453, #295, #35, #446, #623, #932, #850, #1015, #284, #536, #119, #770, #615, #938, #962, #326, #892 ),
 .UNSPECIFIED., .F., .F.,
 ( 4, 2, 2, 2, 2, 2, 2, 2, 2, 2, 2, 2, 2, 4 ),
 ( 0.000000000000000000, 0.0008805649084323425007, 0.001320847362648510824, 0.001761129816864679580, 0.002641694725297017311, 0.003081977179513186501, 0.003522259633729355258, 0.003962542087945524448, 0.004402824542161692771, 0.004843106996377861961, 0.005283389450594030284, 0.005723671904810199475, 0.006163954359026368665, 0.007044519267458707046 ),
 .UNSPECIFIED. ) ;
#168 = CARTESIAN_POINT ( 'NONE',  ( 17.46953714088995113, 3.198839436568182926, -6.057575258057492640 ) ) ;
#169 = EDGE_CURVE ( 'NONE', #613, #841, #490, .T. ) ;
#170 = CARTESIAN_POINT ( 'NONE',  ( 19.00000000000000000, 4.044530206835648123, -9.599999999999980105 ) ) ;
#171 = DIRECTION ( 'NONE',  ( -0.000000000000000000, -0.000000000000000000, 1.000000000000000000 ) ) ;
#172 = CARTESIAN_POINT ( 'NONE',  ( 7.000000000000000000, 3.000000000000000000, -7.500000000000000888 ) ) ;
#173 = ORIENTED_EDGE ( 'NONE', *, *, #205, .F. ) ;
#174 = ORIENTED_EDGE ( 'NONE', *, *, #211, .F. ) ;
#175 = CARTESIAN_POINT ( 'NONE',  ( 0.000000000000000000, 0.000000000000000000, 0.000000000000000000 ) ) ;
#176 = ORIENTED_EDGE ( 'NONE', *, *, #486, .F. ) ;
#177 = ADVANCED_FACE ( 'NONE', ( #747 ), #261, .F. ) ;
#178 = APPLICATION_PROTOCOL_DEFINITION ( 'draft international standard', 'automotive_design', 1998, #305 ) ;
#179 = DIRECTION ( 'NONE',  ( 0.000000000000000000, 0.000000000000000000, -1.000000000000000000 ) ) ;
#180 = AXIS2_PLACEMENT_3D ( 'NONE', #659, #816, #1052 ) ;
#181 = VECTOR ( 'NONE', #515, 1000.000000000000000 ) ;
#182 = ORIENTED_EDGE ( 'NONE', *, *, #287, .T. ) ;
#183 = LINE ( 'NONE', #175, #97 ) ;
#184 = VECTOR ( 'NONE', #580, 1000.000000000000000 ) ;
#185 = CARTESIAN_POINT ( 'NONE',  ( 2.137148938933564946, 13.10000000000000142, -15.00000000000000000 ) ) ;
#186 = EDGE_CURVE ( 'NONE', #114, #366, #877, .T. ) ;
#187 = DIRECTION ( 'NONE',  ( 1.000000000000000000, 0.000000000000000000, -0.000000000000000000 ) ) ;
#188 = DIRECTION ( 'NONE',  ( -1.000000000000000000, -0.000000000000000000, -0.000000000000000000 ) ) ;
#189 = CARTESIAN_POINT ( 'NONE',  ( 5.401866515530161728, 5.335772362463814034, -8.869117179286073238 ) ) ;
#190 = ORIENTED_EDGE ( 'NONE', *, *, #1035, .T. ) ;
#191 = DIRECTION ( 'NONE',  ( -1.000000000000000000, -0.000000000000000000, -0.000000000000000000 ) ) ;
#192 = CARTESIAN_POINT ( 'NONE',  ( 18.03203786046833912, 4.226682510620825006, -9.368421680086948200 ) ) ;
#193 = ORIENTED_EDGE ( 'NONE', *, *, #293, .T. ) ;
#194 = DIRECTION ( 'NONE',  ( 0.000000000000000000, 0.000000000000000000, -1.000000000000000000 ) ) ;
#195 = B_SPLINE_CURVE_WITH_KNOTS ( 'NONE', 3,
 ( #786, #50, #610, #373, #1026, #718, #243, #1040, #568, #809, #329, #241, #87, #484, #961, #320, #403, #471, #878, #651, #1047, #891, #802, #64, #657, #637, #971, #577 ),
 .UNSPECIFIED., .F., .F.,
 ( 4, 2, 2, 2, 2, 2, 2, 2, 2, 2, 2, 2, 2, 4 ),
 ( 0.002862298890168615568, 0.003814333036683463605, 0.004766367183198311208, 0.005242384256455734359, 0.005718401329713155776, 0.006194418402970578059, 0.006670435476228000343, 0.007146452549485425229, 0.007622469622742850115, 0.008098486696000275001, 0.008574503769257699887, 0.009526537915772553128, 0.01000255498902998495, 0.01047857206228741504 ),
 .UNSPECIFIED. ) ;
#196 = DIRECTION ( 'NONE',  ( -1.000000000000000000, -0.000000000000000000, -0.000000000000000000 ) ) ;
#197 = CARTESIAN_POINT ( 'NONE',  ( 16.99894150681301852, 3.000000000000000000, -15.00000000000000178 ) ) ;
#198 = ADVANCED_FACE ( 'NONE', ( #989 ), #660, .F. ) ;
#199 = CARTESIAN_POINT ( 'NONE',  ( 6.360514548477045338, 4.501042662417439111, -9.504366284225712391 ) ) ;
#200 = AXIS2_PLACEMENT_3D ( 'NONE', #862, #154, #1036 ) ;
#201 = ORIENTED_EDGE ( 'NONE', *, *, #1028, .F. ) ;
#202 = VECTOR ( 'NONE', #191, 1000.000000000000000 ) ;
#203 = ORIENTED_EDGE ( 'NONE', *, *, #363, .F. ) ;
#204 = CARTESIAN_POINT ( 'NONE',  ( 5.037772638590964469, 5.709962725090107050, -6.737814594740306973 ) ) ;
#205 = EDGE_CURVE ( 'NONE', #104, #872, #688, .T. ) ;
#206 = CARTESIAN_POINT ( 'NONE',  ( 5.409228865244798179, 6.285631160833563769, -8.877595524709503749 ) ) ;
#207 = ORIENTED_EDGE ( 'NONE', *, *, #513, .T. ) ;
#208 = CARTESIAN_POINT ( 'NONE',  ( 4.900232610294440683, 5.861540113586779732, -7.664592152600161690 ) ) ;
#209 = ORIENTED_EDGE ( 'NONE', *, *, #385, .F. ) ;
#210 = DIRECTION ( 'NONE',  ( 0.000000000000000000, 0.000000000000000000, -1.000000000000000000 ) ) ;
#211 = EDGE_CURVE ( 'NONE', #749, #58, #433, .T. ) ;
#212 = CARTESIAN_POINT ( 'NONE',  ( 21.07923700949590184, 6.873485606032142314, -7.165805500177000908 ) ) ;
#213 = DIRECTION ( 'NONE',  ( 1.000000000000000000, 0.000000000000000000, 0.000000000000000000 ) ) ;
#214 = ORIENTED_EDGE ( 'NONE', *, *, #211, .T. ) ;
#215 = VECTOR ( 'NONE', #213, 1000.000000000000000 ) ;
#216 = CARTESIAN_POINT ( 'NONE',  ( 6.479830179634091358, 5.249650307741287492, -9.550443408944026658 ) ) ;
#217 = AXIS2_PLACEMENT_3D ( 'NONE', #341, #672, #103 ) ;
#218 = EDGE_CURVE ( 'NONE', #44, #338, #31, .T. ) ;
#219 = PRODUCT_DEFINITION_FORMATION_WITH_SPECIFIED_SOURCE ( 'ä»', '', #376, .NOT_KNOWN. ) ;
#220 = ORIENTED_EDGE ( 'NONE', *, *, #644, .T. ) ;
#221 = VERTEX_POINT ( 'NONE', #496 ) ;
#222 = CARTESIAN_POINT ( 'NONE',  ( 5.174434190805055067, 6.557008915141850025, -6.451732726812153373 ) ) ;
#223 = DIRECTION ( 'NONE',  ( -0.000000000000000000, -1.000000000000000000, -0.000000000000000000 ) ) ;
#224 = ORIENTED_EDGE ( 'NONE', *, *, #591, .F. ) ;
#225 = EDGE_CURVE ( 'NONE', #933, #993, #167, .T. ) ;
#226 = DIRECTION ( 'NONE',  ( 0.000000000000000000, 0.000000000000000000, 1.000000000000000000 ) ) ;
#227 = ORIENTED_EDGE ( 'NONE', *, *, #840, .T. ) ;
#228 = DIRECTION ( 'NONE',  ( 0.000000000000000000, 0.000000000000000000, -1.000000000000000000 ) ) ;
#229 = CARTESIAN_POINT ( 'NONE',  ( 6.731682017458042289, 5.046536362621767857, -9.599999999999988987 ) ) ;
#230 = DIRECTION ( 'NONE',  ( -0.000000000000000000, -1.000000000000000000, -0.000000000000000000 ) ) ;
#231 = DIRECTION ( 'NONE',  ( -1.000000000000000000, -0.000000000000000000, -0.000000000000000000 ) ) ;
#232 = DIRECTION ( 'NONE',  ( 0.000000000000000000, 0.000000000000000000, -1.000000000000000000 ) ) ;
#233 = CARTESIAN_POINT ( 'NONE',  ( 7.000000000000000000, 0.4249999999999948264, -7.500000000000000888 ) ) ;
#234 = LINE ( 'NONE', #882, #95 ) ;
#235 = AXIS2_PLACEMENT_3D ( 'NONE', #721, #655, #481 ) ;
#236 = VECTOR ( 'NONE', #831, 1000.000000000000000 ) ;
#237 = CARTESIAN_POINT ( 'NONE',  ( 23.19999999999999929, 13.10000000000000142, -15.00000000000000000 ) ) ;
#238 = CARTESIAN_POINT ( 'NONE',  ( 8.973333213978385459, 3.728215684392644835, -6.766817247788321943 ) ) ;
#239 = DIRECTION ( 'NONE',  ( 0.000000000000000000, 0.000000000000000000, -1.000000000000000000 ) ) ;
#240 = CARTESIAN_POINT ( 'NONE',  ( 20.75066554919845530, 6.468066229955605095, -6.332396685535643499 ) ) ;
#241 = CARTESIAN_POINT ( 'NONE',  ( 21.08205826855670040, 5.841586261575923089, -7.815538906542520259 ) ) ;
#242 = ADVANCED_FACE ( 'NONE', ( #1049 ), #557, .F. ) ;
#243 = CARTESIAN_POINT ( 'NONE',  ( 20.60105482890971373, 5.338633933812242383, -8.865722355895327311 ) ) ;
#244 = LINE ( 'NONE', #406, #334 ) ;
#245 = CARTESIAN_POINT ( 'NONE',  ( 0.000000000000000000, 0.000000000000000000, 0.000000000000000000 ) ) ;
#246 = ADVANCED_FACE ( 'NONE', ( #641 ), #653, .F. ) ;
#247 = CIRCLE ( 'NONE', #42, 2.099999999999988098 ) ;
#248 = CARTESIAN_POINT ( 'NONE',  ( 8.521784126576047669, 3.934905227520530069, -8.953896154094504567 ) ) ;
#249 = DIRECTION ( 'NONE',  ( 1.000000000000000000, 0.000000000000000000, 0.000000000000000000 ) ) ;
#250 = CARTESIAN_POINT ( 'NONE',  ( 17.99351450376093808, 3.450780633629709993, -5.643776487831359212 ) ) ;
#251 = EDGE_CURVE ( 'NONE', #993, #954, #65, .T. ) ;
#252 = ORIENTED_EDGE ( 'NONE', *, *, #704, .F. ) ;
#253 = CARTESIAN_POINT ( 'NONE',  ( 2.137148938933564946, 13.10000000000000142, -15.00000000000000000 ) ) ;
#254 = ORIENTED_EDGE ( 'NONE', *, *, #974, .F. ) ;
#255 = CARTESIAN_POINT ( 'NONE',  ( 9.001058493186969045, 2.999999999999997780, -15.00000000000000000 ) ) ;
#256 = ORIENTED_EDGE ( 'NONE', *, *, #630, .T. ) ;
#257 = DIRECTION ( 'NONE',  ( 1.000000000000000000, 0.000000000000000000, 0.000000000000000000 ) ) ;
#258 = EDGE_CURVE ( 'NONE', #584, #848, #913, .T. ) ;
#259 = DIRECTION ( 'NONE',  ( -0.000000000000000000, -1.000000000000000000, -0.000000000000000000 ) ) ;
#260 = DIRECTION ( 'NONE',  ( 1.000000000000000000, 0.000000000000000000, 0.000000000000000000 ) ) ;
#261 = CYLINDRICAL_SURFACE ( 'NONE', #1029, 2.099999999999988098 ) ;
#262 = AXIS2_PLACEMENT_3D ( 'NONE', #669, #588, #834 ) ;
#263 = CIRCLE ( 'NONE', #1046, 2.099999999999989875 ) ;
#264 = EDGE_LOOP ( 'NONE', ( #502, #346, #313, #972, #928, #98, #109, #1048 ) ) ;
#265 =( NAMED_UNIT ( * ) PLANE_ANGLE_UNIT ( ) SI_UNIT ( $, .RADIAN. ) );
#266 = DIRECTION ( 'NONE',  ( -0.000000000000000000, -1.000000000000000000, -0.000000000000000000 ) ) ;
#267 = ORIENTED_EDGE ( 'NONE', *, *, #1028, .T. ) ;
#268 = CARTESIAN_POINT ( 'NONE',  ( 7.199123107385524634, 3.912594628494360016, -9.599999999999988987 ) ) ;
#269 = ORIENTED_EDGE ( 'NONE', *, *, #225, .T. ) ;
#270 = EDGE_CURVE ( 'NONE', #694, #505, #160, .T. ) ;
#271 = DIRECTION ( 'NONE',  ( 0.000000000000000000, 0.000000000000000000, 1.000000000000000000 ) ) ;
#272 = ORIENTED_EDGE ( 'NONE', *, *, #1000, .F. ) ;
#273 = FACE_OUTER_BOUND ( 'NONE', #863, .T. ) ;
#274 = DIRECTION ( 'NONE',  ( 0.000000000000000000, 0.000000000000000000, -1.000000000000000000 ) ) ;
#275 = EDGE_LOOP ( 'NONE', ( #707, #435, #586, #143, #438, #684, #282, #835 ) ) ;
#276 = EDGE_LOOP ( 'NONE', ( #957, #990, #719, #674 ) ) ;
#277 = CYLINDRICAL_SURFACE ( 'NONE', #62, 10.86285106106642750 ) ;
#278 = CARTESIAN_POINT ( 'NONE',  ( 9.001058493186969045, 2.999999999999997780, -15.00000000000000000 ) ) ;
#279 = CARTESIAN_POINT ( 'NONE',  ( 8.530462859110041762, 3.198839436568182926, -8.942424741942508248 ) ) ;
#280 = VECTOR ( 'NONE', #179, 1000.000000000000000 ) ;
#281 = AXIS2_PLACEMENT_3D ( 'NONE', #164, #511, #415 ) ;
#282 = ORIENTED_EDGE ( 'NONE', *, *, #905, .F. ) ;
#283 = CARTESIAN_POINT ( 'NONE',  ( 7.000000000000000000, -1.734723475976807883E-15, -7.500000000000000888 ) ) ;
#284 = CARTESIAN_POINT ( 'NONE',  ( 17.38401003198591965, 3.889732355608292114, -6.151286042621205041 ) ) ;
#285 = CARTESIAN_POINT ( 'NONE',  ( 9.001058493186969045, 2.999999999999997780, -6.863003212846215284 ) ) ;
#286 = CARTESIAN_POINT ( 'NONE',  ( 11.57521931512250291, 2.999999999999999112, -15.00000000000000000 ) ) ;
#287 = EDGE_CURVE ( 'NONE', #756, #44, #563, .T. ) ;
#288 = EDGE_LOOP ( 'NONE', ( #207, #917, #272, #447, #753, #724, #480, #686, #793, #617, #1005, #292 ) ) ;
#289 = VERTEX_POINT ( 'NONE', #470 ) ;
#290 = CARTESIAN_POINT ( 'NONE',  ( 2.137148938933564946, 13.10000000000000142, 0.000000000000000000 ) ) ;
#291 = DIRECTION ( 'NONE',  ( -0.000000000000000000, -1.000000000000000000, -0.000000000000000000 ) ) ;
#292 = ORIENTED_EDGE ( 'NONE', *, *, #128, .T. ) ;
#293 = EDGE_CURVE ( 'NONE', #302, #460, #122, .T. ) ;
#294 = LINE ( 'NONE', #132, #147 ) ;
#295 = CARTESIAN_POINT ( 'NONE',  ( 16.90042007154616854, 3.675206980297023307, -7.653977808412458117 ) ) ;
#296 = ORIENTED_EDGE ( 'NONE', *, *, #691, .F. ) ;
#297 = DIRECTION ( 'NONE',  ( 0.000000000000000000, 0.000000000000000000, -1.000000000000000000 ) ) ;
#298 = VECTOR ( 'NONE', #331, 1000.000000000000000 ) ;
#299 = DIRECTION ( 'NONE',  ( 0.000000000000000000, -1.000000000000000000, 0.000000000000000000 ) ) ;
#300 = AXIS2_PLACEMENT_3D ( 'NONE', #116, #836, #194 ) ;
#301 = CARTESIAN_POINT ( 'NONE',  ( 19.00000000000000000, 0.000000000000000000, -5.400000000000004796 ) ) ;
#302 = VERTEX_POINT ( 'NONE', #799 ) ;
#303 = DIRECTION ( 'NONE',  ( 0.000000000000000000, -1.000000000000000000, 0.000000000000000000 ) ) ;
#304 = CARTESIAN_POINT ( 'NONE',  ( 8.928139931022503362, 3.028870996520452774, -6.633937209574582994 ) ) ;
#305 = APPLICATION_CONTEXT ( 'automotive_design' ) ;
#306 = EDGE_CURVE ( 'NONE', #136, #749, #1021, .T. ) ;
#307 = LINE ( 'NONE', #943, #796 ) ;
#308 = CARTESIAN_POINT ( 'NONE',  ( 7.000000000000000000, 4.044530206835642794, -5.400000000000012790 ) ) ;
#309 = CARTESIAN_POINT ( 'NONE',  ( 16.99894150681302563, 2.999999999999999112, -8.136996787153760735 ) ) ;
#310 = FACE_OUTER_BOUND ( 'NONE', #426, .T. ) ;
#311 = CARTESIAN_POINT ( 'NONE',  ( 21.09968189165773467, 6.900390857375036546, -7.331821774617672816 ) ) ;
#312 = CARTESIAN_POINT ( 'NONE',  ( 8.308810287278875606, 4.042077756658885690, -5.851896815506032468 ) ) ;
#313 = ORIENTED_EDGE ( 'NONE', *, *, #549, .T. ) ;
#314 = FACE_OUTER_BOUND ( 'NONE', #264, .T. ) ;
#315 = CARTESIAN_POINT ( 'NONE',  ( 19.52240191642768963, 5.251622346044957368, -5.450414534215475726 ) ) ;
#316 = AXIS2_PLACEMENT_3D ( 'NONE', #575, #396, #895 ) ;
#317 = AXIS2_PLACEMENT_3D ( 'NONE', #805, #1045, #343 ) ;
#318 = AXIS2_PLACEMENT_3D ( 'NONE', #737, #330, #249 ) ;
#319 = DIRECTION ( 'NONE',  ( 1.000000000000000000, 0.000000000000000000, 0.000000000000000000 ) ) ;
#320 = CARTESIAN_POINT ( 'NONE',  ( 21.01051104565409844, 5.762697343448188292, -6.873620950625301873 ) ) ;
#321 = ORIENTED_EDGE ( 'NONE', *, *, #270, .F. ) ;
#322 = DIRECTION ( 'NONE',  ( 0.000000000000000000, 0.000000000000000000, -1.000000000000000000 ) ) ;
#323 = ADVANCED_FACE ( 'NONE', ( #695 ), #776, .F. ) ;
#324 = CARTESIAN_POINT ( 'NONE',  ( 7.000000000000000000, 0.4249999999999948264, -5.400000000000011013 ) ) ;
#325 = EDGE_LOOP ( 'NONE', ( #14, #927, #173, #531 ) ) ;
#326 = CARTESIAN_POINT ( 'NONE',  ( 18.76029653905991879, 4.677005137317448380, -5.400000000000003908 ) ) ;
#327 = SURFACE_SIDE_STYLE ('',( #337 ) ) ;
#328 = LINE ( 'NONE', #820, #696 ) ;
#329 = CARTESIAN_POINT ( 'NONE',  ( 21.01221519057604681, 5.764562481051893172, -8.120903746181616256 ) ) ;
#330 = DIRECTION ( 'NONE',  ( 0.000000000000000000, 0.000000000000000000, 1.000000000000000000 ) ) ;
#331 = DIRECTION ( 'NONE',  ( 1.000000000000000000, 0.000000000000000000, 0.000000000000000000 ) ) ;
#332 = CIRCLE ( 'NONE', #745, 2.099999999999988098 ) ;
#333 = EDGE_CURVE ( 'NONE', #2, #58, #108, .T. ) ;
#334 = VECTOR ( 'NONE', #894, 1000.000000000000000 ) ;
#335 = DIRECTION ( 'NONE',  ( 0.000000000000000000, -1.000000000000000000, 0.000000000000000000 ) ) ;
#336 = VECTOR ( 'NONE', #844, 1000.000000000000000 ) ;
#337 = SURFACE_STYLE_FILL_AREA ( #3 ) ;
#338 = VERTEX_POINT ( 'NONE', #290 ) ;
#339 = DIRECTION ( 'NONE',  ( -0.000000000000000000, -1.000000000000000000, -0.000000000000000000 ) ) ;
#340 = ORIENTED_EDGE ( 'NONE', *, *, #734, .F. ) ;
#341 = CARTESIAN_POINT ( 'NONE',  ( 13.00000000000000000, 13.10000000000000142, -15.00000000000000000 ) ) ;
#342 = ORIENTED_EDGE ( 'NONE', *, *, #854, .T. ) ;
#343 = DIRECTION ( 'NONE',  ( 0.000000000000000000, 0.000000000000000000, -1.000000000000000000 ) ) ;
#344 = CARTESIAN_POINT ( 'NONE',  ( 7.000000000000000000, 4.851363749079486531, -9.599999999999988987 ) ) ;
#345 = CARTESIAN_POINT ( 'NONE',  ( 19.00000000000000000, 4.044530206835648123, -9.599999999999980105 ) ) ;
#346 = ORIENTED_EDGE ( 'NONE', *, *, #186, .T. ) ;
#347 = ORIENTED_EDGE ( 'NONE', *, *, #4, .T. ) ;
#348 = CARTESIAN_POINT ( 'NONE',  ( 0.000000000000000000, 3.000000000000000000, -15.00000000000000178 ) ) ;
#349 = DIRECTION ( 'NONE',  ( 0.000000000000000000, 0.000000000000000000, -1.000000000000000000 ) ) ;
#350 = CIRCLE ( 'NONE', #382, 2.525000000000000355 ) ;
#351 = CIRCLE ( 'NONE', #661, 2.099999999999988098 ) ;
#352 = CARTESIAN_POINT ( 'NONE',  ( 7.000000000000000000, 3.000000000000000000, -9.599999999999988987 ) ) ;
#353 = LINE ( 'NONE', #922, #680 ) ;
#354 = EDGE_CURVE ( 'NONE', #763, #923, #47, .T. ) ;
#355 = ORIENTED_EDGE ( 'NONE', *, *, #399, .T. ) ;
#356 = ORIENTED_EDGE ( 'NONE', *, *, #169, .F. ) ;
#357 = CARTESIAN_POINT ( 'NONE',  ( 19.00000000000000000, 4.851363749079488308, -9.599999999999980105 ) ) ;
#358 = ORIENTED_EDGE ( 'NONE', *, *, #333, .T. ) ;
#359 = CARTESIAN_POINT ( 'NONE',  ( 0.000000000000000000, 3.000000000000000000, 0.000000000000000000 ) ) ;
#360 = ORIENTED_EDGE ( 'NONE', *, *, #34, .T. ) ;
#361 = CARTESIAN_POINT ( 'NONE',  ( 6.999999999999704237, 4.044530206835427855, -9.600000000001200462 ) ) ;
#362 = ORIENTED_EDGE ( 'NONE', *, *, #52, .F. ) ;
#363 = EDGE_CURVE ( 'NONE', #16, #906, #294, .T. ) ;
#364 = ORIENTED_EDGE ( 'NONE', *, *, #935, .F. ) ;
#365 = CARTESIAN_POINT ( 'NONE',  ( 6.002015060534120039, 4.785979030548952018, -9.365403290657329904 ) ) ;
#366 = VERTEX_POINT ( 'NONE', #710 ) ;
#367 = AXIS2_PLACEMENT_3D ( 'NONE', #703, #767, #45 ) ;
#368 = CARTESIAN_POINT ( 'NONE',  ( 8.819142219523591564, 3.072768073130497157, -6.425135462275484599 ) ) ;
#369 = ORIENTED_EDGE ( 'NONE', *, *, #428, .F. ) ;
#370 = CARTESIAN_POINT ( 'NONE',  ( 6.732487467738563325, 4.221779452896872620, -5.400000000000014566 ) ) ;
#371 = CARTESIAN_POINT ( 'NONE',  ( 2.137148938933564946, 13.10000000000000142, -15.00000000000000000 ) ) ;
#372 = DIRECTION ( 'NONE',  ( 0.000000000000000000, 0.000000000000000000, -1.000000000000000000 ) ) ;
#373 = CARTESIAN_POINT ( 'NONE',  ( 20.00169153353618512, 4.789056426572605218, -9.363564097926197149 ) ) ;
#374 = EDGE_LOOP ( 'NONE', ( #758, #951, #625, #254 ) ) ;
#375 = CARTESIAN_POINT ( 'NONE',  ( 5.245536043644381863, 6.472502897321122717, -8.661971797729613343 ) ) ;
#376 = PRODUCT ( '\X2\7ba19053652f67b6\X0\2', '\X2\7ba19053652f67b6\X0\2', '', ( #43 ) ) ;
#377 = CARTESIAN_POINT ( 'NONE',  ( 19.00000000000000000, -1.734723475976807883E-15, -7.499999999999992006 ) ) ;
#378 = ORIENTED_EDGE ( 'NONE', *, *, #354, .T. ) ;
#379 = B_SPLINE_CURVE_WITH_KNOTS ( 'NONE', 3,
 ( #726, #90, #315, #647, #157, #485, #970, #240, #569, #887, #554, #212, #311, #801, #149, #784, #392, #74, #870, #567, #550, #464, #49, #795, #722, #63 ),
 .UNSPECIFIED., .F., .F.,
 ( 4, 2, 2, 2, 2, 2, 2, 2, 2, 2, 2, 2, 4 ),
 ( 0.007044519267458707046, 0.008018236490126373281, 0.008991953712794041251, 0.009478812324127876970, 0.009965670935461712690, 0.01045252954679554841, 0.01093938815812938586, 0.01142624676946321985, 0.01191310538079705730, 0.01239996399213089302, 0.01288682260346472874, 0.01386053982613240712, 0.01483425704880008376 ),
 .UNSPECIFIED. ) ;
#380 = DIRECTION ( 'NONE',  ( -0.000000000000000000, -1.000000000000000000, -0.000000000000000000 ) ) ;
#381 = ORIENTED_EDGE ( 'NONE', *, *, #451, .T. ) ;
#382 = AXIS2_PLACEMENT_3D ( 'NONE', #377, #706, #711 ) ;
#383 = CARTESIAN_POINT ( 'NONE',  ( 4.992611995110064704, 6.781354615736118419, -8.137051513265854297 ) ) ;
#384 = VECTOR ( 'NONE', #507, 1000.000000000000000 ) ;
#385 = EDGE_CURVE ( 'NONE', #841, #906, #860, .T. ) ;
#386 = PLANE ( 'NONE',  #200 ) ;
#387 = CARTESIAN_POINT ( 'NONE',  ( 7.850708697873058028, 4.294048412593152619, -5.575693612553425993 ) ) ;
#388 = CARTESIAN_POINT ( 'NONE',  ( 19.00000000000000000, 0.000000000000000000, -5.400000000000004796 ) ) ;
#389 = CARTESIAN_POINT ( 'NONE',  ( 19.00000000000000000, -1.734723475976807883E-15, -10.02499999999999147 ) ) ;
#390 = PLANE ( 'NONE',  #235 ) ;
#391 = EDGE_CURVE ( 'NONE', #848, #756, #952, .T. ) ;
#392 = CARTESIAN_POINT ( 'NONE',  ( 20.95533483872487324, 6.715447116898068280, -8.279574271748957770 ) ) ;
#393 = CARTESIAN_POINT ( 'NONE',  ( 26.00000000000000000, 0.000000000000000000, 0.000000000000000000 ) ) ;
#394 = DIRECTION ( 'NONE',  ( -0.000000000000000000, -0.000000000000000000, -1.000000000000000000 ) ) ;
#395 = CARTESIAN_POINT ( 'NONE',  ( 17.07186006897748953, 3.028870996520454550, -8.366062790425388584 ) ) ;
#396 = DIRECTION ( 'NONE',  ( -0.000000000000000000, -1.000000000000000000, -0.000000000000000000 ) ) ;
#397 = CARTESIAN_POINT ( 'NONE',  ( 13.00000000000000000, 13.10000000000000142, -15.00000000000000000 ) ) ;
#398 = CARTESIAN_POINT ( 'NONE',  ( 9.085185603027555956, 3.681117468636311507, -7.790059631523115868 ) ) ;
#399 = EDGE_CURVE ( 'NONE', #955, #104, #78, .T. ) ;
#400 = ORIENTED_EDGE ( 'NONE', *, *, #662, .F. ) ;
#401 = DIRECTION ( 'NONE',  ( -0.000000000000000000, -1.000000000000000000, -0.000000000000000000 ) ) ;
#402 = LINE ( 'NONE', #900, #8 ) ;
#403 = CARTESIAN_POINT ( 'NONE',  ( 20.96022909203518836, 5.707807292468416449, -6.732748879565961353 ) ) ;
#404 = ORIENTED_EDGE ( 'NONE', *, *, #854, .F. ) ;
#405 = ADVANCED_FACE ( 'NONE', ( #565 ), #843, .F. ) ;
#406 = CARTESIAN_POINT ( 'NONE',  ( 19.00000000000000000, 0.000000000000000000, -9.599999999999980105 ) ) ;
#407 = DIRECTION ( 'NONE',  ( -1.000000000000000000, 0.000000000000000000, -0.000000000000000000 ) ) ;
#408 = CARTESIAN_POINT ( 'NONE',  ( 7.486933554710248906, 4.517022015244897659, -5.453481865918607951 ) ) ;
#409 = B_SPLINE_CURVE_WITH_KNOTS ( 'NONE', 3,
 ( #111, #829, #424, #915, #250, #581, #896, #168, #94, #420, #23, #902 ),
 .UNSPECIFIED., .F., .F.,
 ( 4, 2, 2, 2, 2, 4 ),
 ( 0.01047857206228741504, 0.01119489180545983620, 0.01191121154863225909, 0.01226937142021847400, 0.01262753129180468892, 0.01334385103497712222 ),
 .UNSPECIFIED. ) ;
#410 = DIRECTION ( 'NONE',  ( -0.000000000000000000, -0.000000000000000000, 1.000000000000000000 ) ) ;
#411 = ADVANCED_FACE ( 'NONE', ( #890 ), #983, .F. ) ;
#412 = DIRECTION ( 'NONE',  ( -0.000000000000000000, -1.000000000000000000, -0.000000000000000000 ) ) ;
#413 = CARTESIAN_POINT ( 'NONE',  ( 17.38165796426440224, 3.886153357963637145, -8.867236580838085303 ) ) ;
#414 = ORIENTED_EDGE ( 'NONE', *, *, #107, .T. ) ;
#415 = DIRECTION ( 'NONE',  ( 1.000000000000000000, 0.000000000000000000, 0.000000000000000000 ) ) ;
#416 = APPLICATION_CONTEXT ( 'automotive_design' ) ;
#417 = ORIENTED_EDGE ( 'NONE', *, *, #591, .T. ) ;
#418 = AXIS2_PLACEMENT_3D ( 'NONE', #1027, #299, #629 ) ;
#419 = CIRCLE ( 'NONE', #80, 10.86285106106643461 ) ;
#420 = CARTESIAN_POINT ( 'NONE',  ( 17.18267444142906086, 3.073545169335272220, -6.422523588572636832 ) ) ;
#421 = FACE_OUTER_BOUND ( 'NONE', #744, .T. ) ;
#422 = EDGE_LOOP ( 'NONE', ( #781, #643 ) ) ;
#423 = CARTESIAN_POINT ( 'NONE',  ( 26.00000000000000000, 3.000000000000000000, -15.00000000000000178 ) ) ;
#424 = CARTESIAN_POINT ( 'NONE',  ( 18.59462770297160006, 3.785764975427406309, -5.428895255878399162 ) ) ;
#425 = CARTESIAN_POINT ( 'NONE',  ( 17.62782723170938581, 3.270103676247618996, -9.105282354913363463 ) ) ;
#426 = EDGE_LOOP ( 'NONE', ( #830, #214, #227, #224 ) ) ;
#427 = CARTESIAN_POINT ( 'NONE',  ( 18.51549024809162702, 4.515186822051042270, -9.559497485376583725 ) ) ;
#428 = EDGE_CURVE ( 'NONE', #1022, #114, #402, .T. ) ;
#429 = ORIENTED_EDGE ( 'NONE', *, *, #549, .F. ) ;
#430 = CARTESIAN_POINT ( 'NONE',  ( 5.398945171090288930, 5.338633933812236165, -6.134277644104669136 ) ) ;
#431 = ORIENTED_EDGE ( 'NONE', *, *, #445, .F. ) ;
#432 = FACE_OUTER_BOUND ( 'NONE', #288, .T. ) ;
#433 = LINE ( 'NONE', #102, #893 ) ;
#434 = CIRCLE ( 'NONE', #281, 10.19999999999999929 ) ;
#435 = ORIENTED_EDGE ( 'NONE', *, *, #134, .T. ) ;
#436 = CARTESIAN_POINT ( 'NONE',  ( 26.00000000000000000, 0.000000000000000000, -15.00000000000000178 ) ) ;
#437 = VECTOR ( 'NONE', #18, 1000.000000000000000 ) ;
#438 = ORIENTED_EDGE ( 'NONE', *, *, #821, .T. ) ;
#439 = VECTOR ( 'NONE', #556, 1000.000000000000000 ) ;
#440 = LINE ( 'NONE', #1002, #628 ) ;
#441 = CARTESIAN_POINT ( 'NONE',  ( 17.20827346763404009, 3.807639924696181843, -8.634086920780838170 ) ) ;
#442 = CYLINDRICAL_SURFACE ( 'NONE', #82, 2.099999999999988098 ) ;
#443 = CYLINDRICAL_SURFACE ( 'NONE', #508, 10.86285106106643461 ) ;
#444 = VERTEX_POINT ( 'NONE', #170 ) ;
#445 = EDGE_CURVE ( 'NONE', #950, #1008, #234, .T. ) ;
#446 = CARTESIAN_POINT ( 'NONE',  ( 16.91490093573754194, 3.681152855156521131, -7.209143078944580729 ) ) ;
#447 = ORIENTED_EDGE ( 'NONE', *, *, #821, .F. ) ;
#448 = CARTESIAN_POINT ( 'NONE',  ( 6.867676411687606119, 4.132205561953460560, -9.599999999999985434 ) ) ;
#449 = ORIENTED_EDGE ( 'NONE', *, *, #953, .T. ) ;
#450 = CARTESIAN_POINT ( 'NONE',  ( 4.919422388155237691, 6.875226300347322628, -7.826554794514882119 ) ) ;
#451 = EDGE_CURVE ( 'NONE', #988, #652, #328, .T. ) ;
#452 = APPLICATION_PROTOCOL_DEFINITION ( 'draft international standard', 'automotive_design', 1998, #416 ) ;
#453 = CARTESIAN_POINT ( 'NONE',  ( 16.91694976935467309, 3.682002447733196071, -7.804524999168162225 ) ) ;
#454 = AXIS2_PLACEMENT_3D ( 'NONE', #619, #794, #553 ) ;
#455 = EDGE_LOOP ( 'NONE', ( #7, #552, #466, #46 ) ) ;
#456 = DIRECTION ( 'NONE',  ( 0.000000000000000000, 0.000000000000000000, 1.000000000000000000 ) ) ;
#457 = CIRCLE ( 'NONE', #826, 2.524999999999998579 ) ;
#458 = EDGE_LOOP ( 'NONE', ( #811, #667, #590, #773 ) ) ;
#459 = CARTESIAN_POINT ( 'NONE',  ( 7.403181362649916331, 3.787028269490251287, -5.428273220820289957 ) ) ;
#460 = VERTEX_POINT ( 'NONE', #739 ) ;
#461 = CARTESIAN_POINT ( 'NONE',  ( 23.19999999999999929, 13.10000000000000142, 0.000000000000000000 ) ) ;
#462 = DIRECTION ( 'NONE',  ( 0.000000000000000000, 0.000000000000000000, 1.000000000000000000 ) ) ;
#463 = DIRECTION ( 'NONE',  ( 0.000000000000000000, 0.000000000000000000, 1.000000000000000000 ) ) ;
#464 = CARTESIAN_POINT ( 'NONE',  ( 20.21491688281629351, 5.884575568136321877, -9.232135616198116068 ) ) ;
#465 = ORIENTED_EDGE ( 'NONE', *, *, #953, .F. ) ;
#466 = ORIENTED_EDGE ( 'NONE', *, *, #777, .T. ) ;
#467 = ADVANCED_FACE ( 'NONE', ( #152 ), #390, .T. ) ;
#468 = DIRECTION ( 'NONE',  ( -0.000000000000000000, -1.000000000000000000, -0.000000000000000000 ) ) ;
#469 = ORIENTED_EDGE ( 'NONE', *, *, #134, .F. ) ;
#470 = CARTESIAN_POINT ( 'NONE',  ( 7.000000000000000000, -1.734723475976807883E-15, -4.975000000000002309 ) ) ;
#471 = CARTESIAN_POINT ( 'NONE',  ( 20.83568054010935100, 5.575913962724905026, -6.469733369592015393 ) ) ;
#472 = VERTEX_POINT ( 'NONE', #73 ) ;
#473 = CARTESIAN_POINT ( 'NONE',  ( 0.000000000000000000, 3.000000000000000000, 0.000000000000000000 ) ) ;
#474 = VECTOR ( 'NONE', #231, 1000.000000000000000 ) ;
#475 = CARTESIAN_POINT ( 'NONE',  ( 4.994397322364923397, 6.779087942030311176, -6.857499746232543991 ) ) ;
#476 = VECTOR ( 'NONE', #798, 1000.000000000000000 ) ;
#477 = CARTESIAN_POINT ( 'NONE',  ( 19.00000000000000000, 3.000000000000000000, -7.499999999999992006 ) ) ;
#478 = LINE ( 'NONE', #70, #729 ) ;
#479 = CARTESIAN_POINT ( 'NONE',  ( 9.001058493186967269, 2.999999999999997335, -8.136996787153792710 ) ) ;
#480 = ORIENTED_EDGE ( 'NONE', *, *, #258, .F. ) ;
#481 = DIRECTION ( 'NONE',  ( 0.000000000000000000, -0.000000000000000000, 1.000000000000000000 ) ) ;
#482 = ADVANCED_FACE ( 'NONE', ( #310 ), #977, .F. ) ;
#483 = DIRECTION ( 'NONE',  ( 0.000000000000000000, 1.000000000000000000, 0.000000000000000000 ) ) ;
#484 = CARTESIAN_POINT ( 'NONE',  ( 21.09976738970556198, 5.861540113586785949, -7.335407847399833869 ) ) ;
#485 = CARTESIAN_POINT ( 'NONE',  ( 20.49850564228385608, 6.183960021123271922, -6.023215841244319080 ) ) ;
#486 = EDGE_CURVE ( 'NONE', #993, #933, #379, .T. ) ;
#487 = DIRECTION ( 'NONE',  ( -1.000000000000000000, -0.000000000000000000, -0.000000000000000000 ) ) ;
#488 = CARTESIAN_POINT ( 'NONE',  ( 7.000000000000000000, 0.4249999999999948264, -7.500000000000000888 ) ) ;
#489 = CARTESIAN_POINT ( 'NONE',  ( 0.000000000000000000, 3.000000000000000000, 0.000000000000000000 ) ) ;
#490 = CIRCLE ( 'NONE', #544, 2.099999999999988098 ) ;
#491 = PRESENTATION_LAYER_ASSIGNMENT (  '', '', ( #912 ) ) ;
#492 = CARTESIAN_POINT ( 'NONE',  ( 9.100398708348665266, 3.674868172818826384, -7.642942324672943322 ) ) ;
#493 = ORIENTED_EDGE ( 'NONE', *, *, #186, .F. ) ;
#494 =( LENGTH_UNIT ( ) NAMED_UNIT ( * ) SI_UNIT ( .MILLI., .METRE. ) );
#495 = CARTESIAN_POINT ( 'NONE',  ( 7.000000000000000000, 0.000000000000000000, -7.500000000000000888 ) ) ;
#496 = CARTESIAN_POINT ( 'NONE',  ( 26.00000000000000000, 3.000000000000000000, 0.000000000000000000 ) ) ;
#497 = DIRECTION ( 'NONE',  ( -0.000000000000000000, -1.000000000000000000, -0.000000000000000000 ) ) ;
#498 = EDGE_CURVE ( 'NONE', #988, #584, #997, .T. ) ;
#499 = CARTESIAN_POINT ( 'NONE',  ( 19.00000000000000000, 4.851363749079488308, -9.599999999999980105 ) ) ;
#500 = DIRECTION ( 'NONE',  ( 0.000000000000000000, 0.000000000000000000, -1.000000000000000000 ) ) ;
#501 = CARTESIAN_POINT ( 'NONE',  ( 7.000000000000000000, 3.000000000000000000, -7.500000000000000888 ) ) ;
#502 = ORIENTED_EDGE ( 'NONE', *, *, #428, .T. ) ;
#503 = ORIENTED_EDGE ( 'NONE', *, *, #385, .T. ) ;
#504 = CARTESIAN_POINT ( 'NONE',  ( 9.001058493186969045, 2.999999999999997780, 0.000000000000000000 ) ) ;
#505 = VERTEX_POINT ( 'NONE', #56 ) ;
#506 = AXIS2_PLACEMENT_3D ( 'NONE', #676, #271, #594 ) ;
#507 = DIRECTION ( 'NONE',  ( 0.000000000000000000, -0.7071067811865374697, -0.7071067811865576758 ) ) ;
#508 = AXIS2_PLACEMENT_3D ( 'NONE', #842, #685, #1004 ) ;
#509 = DIRECTION ( 'NONE',  ( 0.000000000000000000, 0.000000000000000000, 1.000000000000000000 ) ) ;
#510 = EDGE_LOOP ( 'NONE', ( #11, #779, #837, #381 ) ) ;
#511 = DIRECTION ( 'NONE',  ( -0.000000000000000000, -0.000000000000000000, -1.000000000000000000 ) ) ;
#512 = ORIENTED_EDGE ( 'NONE', *, *, #765, .T. ) ;
#513 = EDGE_CURVE ( 'NONE', #872, #618, #1039, .T. ) ;
#514 = CARTESIAN_POINT ( 'NONE',  ( 16.99894150681302563, 2.999999999999999112, 0.000000000000000000 ) ) ;
#515 = DIRECTION ( 'NONE',  ( -0.000000000000000000, -1.000000000000000000, -0.000000000000000000 ) ) ;
#516 = EDGE_LOOP ( 'NONE', ( #911, #528, #378, #512 ) ) ;
#517 = CARTESIAN_POINT ( 'NONE',  ( 6.485203156338800845, 4.406126328998233532, -9.539992052356057073 ) ) ;
#518 = ORIENTED_EDGE ( 'NONE', *, *, #578, .F. ) ;
#519 = CARTESIAN_POINT ( 'NONE',  ( 26.00000000000000000, 3.000000000000000000, 0.000000000000000000 ) ) ;
#520 = FACE_OUTER_BOUND ( 'NONE', #589, .T. ) ;
#521 = CARTESIAN_POINT ( 'NONE',  ( 17.80244409288101437, 4.100350060626725579, -9.230263022638487413 ) ) ;
#522 = ADVANCED_FACE ( 'NONE', ( #636 ), #1044, .F. ) ;
#523 = EDGE_LOOP ( 'NONE', ( #57, #547 ) ) ;
#524 = CARTESIAN_POINT ( 'NONE',  ( 7.806155985027731781, 3.556477716483867457, -9.450362552994958421 ) ) ;
#525 = CARTESIAN_POINT ( 'NONE',  ( 7.000000000000000000, 0.000000000000000000, -9.599999999999988987 ) ) ;
#526 = AXIS2_PLACEMENT_3D ( 'NONE', #477, #804, #372 ) ;
#527 = VECTOR ( 'NONE', #1038, 1000.000000000000000 ) ;
#528 = ORIENTED_EDGE ( 'NONE', *, *, #810, .F. ) ;
#529 = FACE_OUTER_BOUND ( 'NONE', #1019, .T. ) ;
#530 = ADVANCED_FACE ( 'NONE', ( #1031, #883, #141 ), #386, .T. ) ;
#531 = ORIENTED_EDGE ( 'NONE', *, *, #399, .F. ) ;
#532 = DIRECTION ( 'NONE',  ( 0.000000000000000000, 0.000000000000000000, 1.000000000000000000 ) ) ;
#533 = ORIENTED_EDGE ( 'NONE', *, *, #691, .T. ) ;
#534 = CARTESIAN_POINT ( 'NONE',  ( 4.917941731443303155, 5.841586261575916872, -7.184461093457476188 ) ) ;
#535 = CARTESIAN_POINT ( 'NONE',  ( 6.004665303339863591, 5.669932890016418092, -9.366602168895658664 ) ) ;
#536 = CARTESIAN_POINT ( 'NONE',  ( 17.47926433654506440, 3.935416871786225457, -6.045010042287962904 ) ) ;
#537 = ORIENTED_EDGE ( 'NONE', *, *, #888, .T. ) ;
#538 = CARTESIAN_POINT ( 'NONE',  ( 5.781652875553511706, 4.977928196165072983, -5.769389547554689024 ) ) ;
#539 = ORIENTED_EDGE ( 'NONE', *, *, #251, .T. ) ;
#540 = EDGE_LOOP ( 'NONE', ( #708, #340, #886, #665 ) ) ;
#541 = CARTESIAN_POINT ( 'NONE',  ( 4.900272704493159104, 6.900450182818800293, -7.329847221418883230 ) ) ;
#542 = CARTESIAN_POINT ( 'NONE',  ( 0.000000000000000000, 0.000000000000000000, 0.000000000000000000 ) ) ;
#543 = PLANE ( 'NONE',  #812 ) ;
#544 = AXIS2_PLACEMENT_3D ( 'NONE', #172, #1003, #349 ) ;
#545 = EDGE_LOOP ( 'NONE', ( #174, #88, #417, #135, #209, #190, #533, #941, #791, #358 ) ) ;
#546 = CIRCLE ( 'NONE', #714, 10.19999999999999929 ) ;
#547 = ORIENTED_EDGE ( 'NONE', *, *, #656, .F. ) ;
#548 = CARTESIAN_POINT ( 'NONE',  ( 5.500072478775972051, 6.185476700924056104, -8.975443935594798361 ) ) ;
#549 = EDGE_CURVE ( 'NONE', #366, #771, #679, .T. ) ;
#550 = CARTESIAN_POINT ( 'NONE',  ( 20.50181265907396977, 6.187536570250212087, -8.973478178769077829 ) ) ;
#551 = ORIENTED_EDGE ( 'NONE', *, *, #118, .T. ) ;
#552 = ORIENTED_EDGE ( 'NONE', *, *, #391, .F. ) ;
#553 = DIRECTION ( 'NONE',  ( 0.000000000000000000, 0.000000000000000000, -1.000000000000000000 ) ) ;
#554 = CARTESIAN_POINT ( 'NONE',  ( 21.00592313289282131, 6.779497888291725616, -6.858762999901866664 ) ) ;
#555 = ADVANCED_FACE ( 'NONE', ( #963 ), #543, .T. ) ;
#556 = DIRECTION ( 'NONE',  ( 0.000000000000000000, -0.7071067811865344721, -0.7071067811865605623 ) ) ;
#557 = PLANE ( 'NONE',  #947 ) ;
#558 = B_SPLINE_CURVE_WITH_KNOTS ( 'NONE', 3,
 ( #731, #150, #570, #408, #162, #387, #806, #75, #312, #561, #975, #572, #965, #238, #815, #728, #736, #492, #398, #797, #1, #979, #885, #155, #248, #723, #1037, #142, #889, #642 ),
 .UNSPECIFIED., .F., .F.,
 ( 4, 2, 2, 2, 2, 2, 2, 2, 2, 2, 2, 2, 2, 2, 4 ),
 ( 0.007855676094398066425, 0.008298076635343801591, 0.008740477176289536757, 0.009182877717235273657, 0.009625278258181010557, 0.01006767879912674746, 0.01051007934007248436, 0.01095247988101822126, 0.01139488042196395989, 0.01183728096290969679, 0.01227968150385543716, 0.01272208204480117580, 0.01316448258574691617, 0.01404928366763839170, 0.01493408474952986377 ),
 .UNSPECIFIED. ) ;
#559 = PRODUCT_DEFINITION_SHAPE ( 'NONE', 'NONE',  #27 ) ;
#560 = CARTESIAN_POINT ( 'NONE',  ( 14.42478068487749354, 3.000000000000000000, -15.00000000000000178 ) ) ;
#561 = CARTESIAN_POINT ( 'NONE',  ( 8.514156027920275704, 3.938645288751764895, -6.038302357551714294 ) ) ;
#562 = CARTESIAN_POINT ( 'NONE',  ( 19.00000000000000000, 0.4249999999999948264, -5.400000000000004796 ) ) ;
#563 = CIRCLE ( 'NONE', #624, 10.19999999999999929 ) ;
#564 = EDGE_CURVE ( 'NONE', #673, #689, #350, .T. ) ;
#565 = FACE_OUTER_BOUND ( 'NONE', #582, .T. ) ;
#566 = VECTOR ( 'NONE', #658, 1000.000000000000000 ) ;
#567 = CARTESIAN_POINT ( 'NONE',  ( 20.59097651178134214, 6.285849674508586560, -8.877425287107014285 ) ) ;
#568 = CARTESIAN_POINT ( 'NONE',  ( 20.83805654058114243, 5.578392116975166459, -8.526065769568392128 ) ) ;
#569 = CARTESIAN_POINT ( 'NONE',  ( 20.82590626853960813, 6.557430907980243973, -6.452531652738441537 ) ) ;
#570 = CARTESIAN_POINT ( 'NONE',  ( 7.242987498946331648, 4.678704388297354022, -5.410431184386943926 ) ) ;
#571 = PLANE ( 'NONE',  #967 ) ;
#572 = CARTESIAN_POINT ( 'NONE',  ( 8.778969400548996660, 3.813908159238491358, -6.375035381004511059 ) ) ;
#573 = DIRECTION ( 'NONE',  ( -0.000000000000000000, -1.000000000000000000, -0.000000000000000000 ) ) ;
#574 = CARTESIAN_POINT ( 'NONE',  ( 11.57521931512249935, 3.000000000000000000, 0.000000000000000000 ) ) ;
#575 = CARTESIAN_POINT ( 'NONE',  ( 7.000000000000000000, 0.000000000000000000, -7.500000000000000888 ) ) ;
#576 = AXIS2_PLACEMENT_3D ( 'NONE', #846, #456, #1023 ) ;
#577 = CARTESIAN_POINT ( 'NONE',  ( 19.00000000000029488, 4.044530206835431407, -5.399999999998794209 ) ) ;
#578 = EDGE_CURVE ( 'NONE', #366, #505, #307, .T. ) ;
#579 = DIRECTION ( 'NONE',  ( 0.000000000000000000, 0.000000000000000000, 1.000000000000000000 ) ) ;
#580 = DIRECTION ( 'NONE',  ( -0.000000000000000000, -1.000000000000000000, -0.000000000000000000 ) ) ;
#581 = CARTESIAN_POINT ( 'NONE',  ( 17.72091738099416602, 3.316097694022452469, -5.830840825722731324 ) ) ;
#582 = EDGE_LOOP ( 'NONE', ( #678, #296, #124, #220 ) ) ;
#583 = EDGE_CURVE ( 'NONE', #771, #694, #959, .T. ) ;
#584 = VERTEX_POINT ( 'NONE', #560 ) ;
#585 = CARTESIAN_POINT ( 'NONE',  ( 19.00000000000000000, 3.000000000000000000, -5.400000000000004796 ) ) ;
#586 = ORIENTED_EDGE ( 'NONE', *, *, #670, .F. ) ;
#587 = CARTESIAN_POINT ( 'NONE',  ( 19.00000000000000000, 3.000000000000000000, -7.499999999999992006 ) ) ;
#588 = DIRECTION ( 'NONE',  ( 0.000000000000000000, -1.000000000000000000, 0.000000000000000000 ) ) ;
#589 = EDGE_LOOP ( 'NONE', ( #626, #369, #537, #193, #39, #431, #867, #362 ) ) ;
#590 = ORIENTED_EDGE ( 'NONE', *, *, #598, .F. ) ;
#591 = EDGE_CURVE ( 'NONE', #136, #858, #814, .T. ) ;
#592 = AXIS2_PLACEMENT_3D ( 'NONE', #488, #497, #981 ) ;
#593 = LINE ( 'NONE', #525, #437 ) ;
#594 = DIRECTION ( 'NONE',  ( 1.000000000000000000, 0.000000000000000000, 0.000000000000000000 ) ) ;
#595 = AXIS2_PLACEMENT_3D ( 'NONE', #348, #532, #187 ) ;
#596 = CARTESIAN_POINT ( 'NONE',  ( 4.899771661371330467, 5.862055944079981984, -7.341398003828730090 ) ) ;
#597 = EDGE_LOOP ( 'NONE', ( #606, #176 ) ) ;
#598 = EDGE_CURVE ( 'NONE', #221, #1018, #901, .T. ) ;
#599 = DIRECTION ( 'NONE',  ( 0.000000000000000000, 0.000000000000000000, -1.000000000000000000 ) ) ;
#600 = CARTESIAN_POINT ( 'NONE',  ( 7.405372297028393724, 3.785764975427404089, -9.571104744121594621 ) ) ;
#601 = EDGE_LOOP ( 'NONE', ( #355, #252, #400, #640, #787, #631, #117, #182, #748, #53, #936, #342 ) ) ;
#602 = CARTESIAN_POINT ( 'NONE',  ( 7.000000000000000000, -1.734723475976807883E-15, -10.02499999999999858 ) ) ;
#603 = ORIENTED_EDGE ( 'NONE', *, *, #498, .T. ) ;
#604 = CARTESIAN_POINT ( 'NONE',  ( 5.238557206699239188, 5.499021837840721183, -8.651447684755485312 ) ) ;
#605 = ORIENTED_EDGE ( 'NONE', *, *, #918, .F. ) ;
#606 = ORIENTED_EDGE ( 'NONE', *, *, #225, .F. ) ;
#607 = CARTESIAN_POINT ( 'NONE',  ( 23.19999999999999929, 13.10000000000000142, -15.00000000000000000 ) ) ;
#608 = AXIS2_PLACEMENT_3D ( 'NONE', #397, #866, #319 ) ;
#609 = AXIS2_PLACEMENT_3D ( 'NONE', #101, #849, #260 ) ;
#610 = CARTESIAN_POINT ( 'NONE',  ( 19.52195246913874982, 4.407497287789815310, -9.550322583253064934 ) ) ;
#611 = CARTESIAN_POINT ( 'NONE',  ( 4.918840125631893656, 5.840581802148918200, -7.821370433476380946 ) ) ;
#612 = PRODUCT_DEFINITION_CONTEXT ( 'detailed design', #416, 'design' ) ;
#613 = VERTEX_POINT ( 'NONE', #973 ) ;
#614 = CARTESIAN_POINT ( 'NONE',  ( 8.004204250017838973, 3.451908403900188826, -5.642215467477282864 ) ) ;
#615 = CARTESIAN_POINT ( 'NONE',  ( 18.02588006291098566, 4.223189922314130484, -5.634740092984574567 ) ) ;
#616 = DIRECTION ( 'NONE',  ( -0.000000000000000000, -1.000000000000000000, -0.000000000000000000 ) ) ;
#617 = ORIENTED_EDGE ( 'NONE', *, *, #888, .F. ) ;
#618 = VERTEX_POINT ( 'NONE', #807 ) ;
#619 = CARTESIAN_POINT ( 'NONE',  ( 19.00000000000000000, 0.4249999999999948264, -7.499999999999992006 ) ) ;
#620 = DIRECTION ( 'NONE',  ( 0.000000000000000000, 0.000000000000000000, -1.000000000000000000 ) ) ;
#621 = CARTESIAN_POINT ( 'NONE',  ( 13.00000000000000000, 13.10000000000000142, 0.000000000000000000 ) ) ;
#622 = EDGE_CURVE ( 'NONE', #732, #618, #156, .T. ) ;
#623 = CARTESIAN_POINT ( 'NONE',  ( 16.97692133082443178, 3.707171480166456590, -6.917429356523289385 ) ) ;
#624 = AXIS2_PLACEMENT_3D ( 'NONE', #621, #853, #869 ) ;
#625 = ORIENTED_EDGE ( 'NONE', *, *, #656, .T. ) ;
#626 = ORIENTED_EDGE ( 'NONE', *, *, #717, .F. ) ;
#627 = CARTESIAN_POINT ( 'NONE',  ( 0.000000000000000000, 3.000000000000000000, 0.000000000000000000 ) ) ;
#628 = VECTOR ( 'NONE', #833, 1000.000000000000000 ) ;
#629 = DIRECTION ( 'NONE',  ( 0.000000000000000000, 0.000000000000000000, -1.000000000000000000 ) ) ;
#630 = EDGE_CURVE ( 'NONE', #505, #694, #351, .T. ) ;
#631 = ORIENTED_EDGE ( 'NONE', *, *, #918, .T. ) ;
#632 = DIRECTION ( 'NONE',  ( -1.000000000000000000, 0.000000000000000000, 0.000000000000000000 ) ) ;
#633 = ORIENTED_EDGE ( 'NONE', *, *, #740, .F. ) ;
#634 = DIRECTION ( 'NONE',  ( 0.000000000000000000, -0.000000000000000000, -1.000000000000000000 ) ) ;
#635 = CARTESIAN_POINT ( 'NONE',  ( 5.248186972441825304, 6.469404822913742414, -6.334086672708897581 ) ) ;
#636 = FACE_OUTER_BOUND ( 'NONE', #998, .T. ) ;
#637 = CARTESIAN_POINT ( 'NONE',  ( 19.26168377159385159, 4.222087313671435638, -5.412392525496267481 ) ) ;
#638 = ADVANCED_FACE ( 'NONE', ( #314 ), #571, .F. ) ;
#639 = CARTESIAN_POINT ( 'NONE',  ( 8.817325558570935584, 3.073545169335269112, -8.577476411427374714 ) ) ;
#640 = ORIENTED_EDGE ( 'NONE', *, *, #1016, .T. ) ;
#641 = FACE_OUTER_BOUND ( 'NONE', #1032, .T. ) ;
#642 = CARTESIAN_POINT ( 'NONE',  ( 7.000000000000000000, 4.851363749079486531, -9.599999999999988987 ) ) ;
#643 = ORIENTED_EDGE ( 'NONE', *, *, #68, .F. ) ;
#644 = EDGE_CURVE ( 'NONE', #838, #289, #457, .T. ) ;
#645 = CARTESIAN_POINT ( 'NONE',  ( 7.000000000000000000, -1.734723475976807883E-15, -7.500000000000000888 ) ) ;
#646 = VECTOR ( 'NONE', #808, 1000.000000000000000 ) ;
#647 = CARTESIAN_POINT ( 'NONE',  ( 19.99318445064929151, 5.668033248344189978, -5.632571556703993565 ) ) ;
#648 = VECTOR ( 'NONE', #257, 1000.000000000000000 ) ;
#649 = LINE ( 'NONE', #158, #474 ) ;
#650 = B_SPLINE_CURVE_WITH_KNOTS ( 'NONE', 3,
 ( #38, #370, #32, #121, #538, #916, #430, #757, #926, #204, #780, #534, #596, #208, #611, #25, #1011, #698, #604, #189, #110, #857, #365, #199, #517, #1017, #448, #852 ),
 .UNSPECIFIED., .F., .F.,
 ( 4, 2, 2, 2, 2, 2, 2, 2, 2, 2, 2, 2, 2, 4 ),
 ( 0.002862298890168595185, 0.003814333036683445390, 0.004766367183198295596, 0.005242384256455719614, 0.005718401329713143633, 0.006194418402970568518, 0.006670435476227991670, 0.007146452549485419158, 0.007622469622742845778, 0.008098486696000273266, 0.008574503769257699887, 0.009526537915772547924, 0.01000255498902997281, 0.01047857206228739770 ),
 .UNSPECIFIED. ) ;
#651 = CARTESIAN_POINT ( 'NONE',  ( 20.59813348446984449, 5.335772362463818475, -6.130882820713920545 ) ) ;
#652 = VERTEX_POINT ( 'NONE', #461 ) ;
#653 = CYLINDRICAL_SURFACE ( 'NONE', #113, 2.099999999999988098 ) ;
#654 = FILL_AREA_STYLE_COLOUR ( '', #949 ) ;
#655 = DIRECTION ( 'NONE',  ( 0.000000000000000000, 1.000000000000000000, 0.000000000000000000 ) ) ;
#656 = EDGE_CURVE ( 'NONE', #289, #838, #161, .T. ) ;
#657 = CARTESIAN_POINT ( 'NONE',  ( 19.51479684366119827, 4.406126328998238861, -5.460007947643934934 ) ) ;
#658 = DIRECTION ( 'NONE',  ( 0.000000000000000000, 0.000000000000000000, 1.000000000000000000 ) ) ;
#659 = CARTESIAN_POINT ( 'NONE',  ( 7.000000000000000000, -1.734723475976807883E-15, -7.500000000000000888 ) ) ;
#660 = CONICAL_SURFACE ( 'NONE', #79, 2.525000000000000355, 0.7853981633974667087 ) ;
#661 = AXIS2_PLACEMENT_3D ( 'NONE', #59, #1042, #138 ) ;
#662 = EDGE_CURVE ( 'NONE', #1008, #221, #788, .T. ) ;
#663 = B_SPLINE_CURVE_WITH_KNOTS ( 'NONE', 3,
 ( #309, #395, #725, #898, #425, #743, #909, #996, #9, #345 ),
 .UNSPECIFIED., .F., .F.,
 ( 4, 2, 2, 2, 4 ),
 ( 0.000000000000000000, 0.0007155747225421538920, 0.001431149445084307784, 0.002146724167626461784, 0.002862298890168615568 ),
 .UNSPECIFIED. ) ;
#664 = DIRECTION ( 'NONE',  ( -0.000000000000000000, -1.000000000000000000, -0.000000000000000000 ) ) ;
#665 = ORIENTED_EDGE ( 'NONE', *, *, #391, .T. ) ;
#666 =( NAMED_UNIT ( * ) PLANE_ANGLE_UNIT ( ) SI_UNIT ( $, .RADIAN. ) );
#667 = ORIENTED_EDGE ( 'NONE', *, *, #128, .F. ) ;
#668 = DIRECTION ( 'NONE',  ( -1.000000000000000000, -0.000000000000000000, -0.000000000000000000 ) ) ;
#669 = CARTESIAN_POINT ( 'NONE',  ( 19.00000000000000000, 3.000000000000000000, -7.499999999999992006 ) ) ;
#670 = EDGE_CURVE ( 'NONE', #338, #823, #419, .T. ) ;
#671 = ORIENTED_EDGE ( 'NONE', *, *, #717, .T. ) ;
#672 = DIRECTION ( 'NONE',  ( 0.000000000000000000, 0.000000000000000000, 1.000000000000000000 ) ) ;
#673 = VERTEX_POINT ( 'NONE', #389 ) ;
#674 = ORIENTED_EDGE ( 'NONE', *, *, #52, .T. ) ;
#675 = CARTESIAN_POINT ( 'NONE',  ( 13.00000000000000000, 13.10000000000000142, -15.00000000000000000 ) ) ;
#676 = CARTESIAN_POINT ( 'NONE',  ( 13.00000000000000000, 13.10000000000000142, -15.00000000000000000 ) ) ;
#677 = PRESENTATION_STYLE_ASSIGNMENT (( #96 ) ) ;
#678 = ORIENTED_EDGE ( 'NONE', *, *, #1050, .F. ) ;
#679 = CIRCLE ( 'NONE', #526, 2.099999999999988098 ) ;
#680 = VECTOR ( 'NONE', #171, 1000.000000000000000 ) ;
#681 = DIRECTION ( 'NONE',  ( 0.000000000000000000, 0.000000000000000000, 1.000000000000000000 ) ) ;
#682 = FACE_BOUND ( 'NONE', #422, .T. ) ;
#683 = CIRCLE ( 'NONE', #29, 2.525000000000000355 ) ;
#684 = ORIENTED_EDGE ( 'NONE', *, *, #363, .T. ) ;
#685 = DIRECTION ( 'NONE',  ( 0.000000000000000000, 0.000000000000000000, 1.000000000000000000 ) ) ;
#686 = ORIENTED_EDGE ( 'NONE', *, *, #498, .F. ) ;
#687 =( NAMED_UNIT ( * ) SI_UNIT ( $, .STERADIAN. ) SOLID_ANGLE_UNIT ( ) );
#688 = LINE ( 'NONE', #839, #280 ) ;
#689 = VERTEX_POINT ( 'NONE', #803 ) ;
#690 = FACE_OUTER_BOUND ( 'NONE', #275, .T. ) ;
#691 = EDGE_CURVE ( 'NONE', #472, #76, #263, .T. ) ;
#692 = DIRECTION ( 'NONE',  ( -0.000000000000000000, -1.000000000000000000, -0.000000000000000000 ) ) ;
#693 = CARTESIAN_POINT ( 'NONE',  ( 8.279082619005828647, 3.316097694022452469, -9.169159174277268676 ) ) ;
#694 = VERTEX_POINT ( 'NONE', #562 ) ;
#695 = FACE_OUTER_BOUND ( 'NONE', #374, .T. ) ;
#696 = VECTOR ( 'NONE', #1043, 1000.000000000000000 ) ;
#697 = ADVANCED_FACE ( 'NONE', ( #715 ), #72, .F. ) ;
#698 = CARTESIAN_POINT ( 'NONE',  ( 5.164319459890648112, 5.575913962724897921, -8.530266630407975725 ) ) ;
#699 = UNCERTAINTY_MEASURE_WITH_UNIT (LENGTH_MEASURE( 1.000000000000000082E-05 ), #769, 'distance_accuracy_value', 'NONE');
#700 = ORIENTED_EDGE ( 'NONE', *, *, #451, .F. ) ;
#701 = CARTESIAN_POINT ( 'NONE',  ( 7.201069685105606411, 3.911304859262366040, -5.400000000000012790 ) ) ;
#702 = CARTESIAN_POINT ( 'NONE',  ( 7.000000000000000000, 0.000000000000000000, -7.500000000000000888 ) ) ;
#703 = CARTESIAN_POINT ( 'NONE',  ( 0.000000000000000000, 3.000000000000000000, 0.000000000000000000 ) ) ;
#704 = EDGE_CURVE ( 'NONE', #221, #104, #874, .T. ) ;
#705 = CARTESIAN_POINT ( 'NONE',  ( 6.482741882681518852, 5.247195231193420462, -5.448732739353837395 ) ) ;
#706 = DIRECTION ( 'NONE',  ( -0.000000000000000000, -1.000000000000000000, -0.000000000000000000 ) ) ;
#707 = ORIENTED_EDGE ( 'NONE', *, *, #333, .F. ) ;
#708 = ORIENTED_EDGE ( 'NONE', *, *, #785, .T. ) ;
#709 = CARTESIAN_POINT ( 'NONE',  ( 7.000000000000000000, -1.734723475976807883E-15, -7.500000000000000888 ) ) ;
#710 = CARTESIAN_POINT ( 'NONE',  ( 19.00000000000000000, 3.000000000000000000, -9.599999999999980105 ) ) ;
#711 = DIRECTION ( 'NONE',  ( 0.000000000000000000, 0.000000000000000000, -1.000000000000000000 ) ) ;
#712 = VECTOR ( 'NONE', #140, 1000.000000000000000 ) ;
#713 = ORIENTED_EDGE ( 'NONE', *, *, #1035, .F. ) ;
#714 = AXIS2_PLACEMENT_3D ( 'NONE', #71, #394, #966 ) ;
#715 = FACE_OUTER_BOUND ( 'NONE', #540, .T. ) ;
#716 = CARTESIAN_POINT ( 'NONE',  ( 4.920554864513091431, 6.873751548532502476, -7.166598432625068682 ) ) ;
#717 = EDGE_CURVE ( 'NONE', #114, #444, #663, .T. ) ;
#718 = CARTESIAN_POINT ( 'NONE',  ( 20.51060509564710088, 5.250789378712164002, -8.964724482093798130 ) ) ;
#719 = ORIENTED_EDGE ( 'NONE', *, *, #740, .T. ) ;
#720 = CARTESIAN_POINT ( 'NONE',  ( 26.00000000000000000, 3.000000000000000000, 0.000000000000000000 ) ) ;
#721 = CARTESIAN_POINT ( 'NONE',  ( 2.137148938933564946, 13.10000000000000142, -15.00000000000000000 ) ) ;
#722 = CARTESIAN_POINT ( 'NONE',  ( 19.26725248092055409, 5.045761324235548351, -9.599999999999980105 ) ) ;
#723 = CARTESIAN_POINT ( 'NONE',  ( 8.211749217938375978, 4.090772905617663824, -9.237880217961974338 ) ) ;
#724 = ORIENTED_EDGE ( 'NONE', *, *, #777, .F. ) ;
#725 = CARTESIAN_POINT ( 'NONE',  ( 17.18085778047640133, 3.072768073130497157, -8.574864537724492308 ) ) ;
#726 = CARTESIAN_POINT ( 'NONE',  ( 19.00000000000000000, 4.851363749079488308, -5.400000000000004796 ) ) ;
#727 = DIRECTION ( 'NONE',  ( 0.000000000000000000, -0.000000000000000000, 1.000000000000000000 ) ) ;
#728 = CARTESIAN_POINT ( 'NONE',  ( 9.083014072367355141, 3.682018021419543707, -7.195463122261272382 ) ) ;
#729 = VECTOR ( 'NONE', #487, 1000.000000000000000 ) ;
#730 = DIRECTION ( 'NONE',  ( 0.000000000000000000, 0.000000000000000000, 1.000000000000000000 ) ) ;
#731 = CARTESIAN_POINT ( 'NONE',  ( 6.999999999999920952, 4.851363749079448340, -5.399999999999767653 ) ) ;
#732 = VERTEX_POINT ( 'NONE', #752 ) ;
#733 = LINE ( 'NONE', #83, #1014 ) ;
#734 = EDGE_CURVE ( 'NONE', #584, #151, #733, .T. ) ;
#735 = DIRECTION ( 'NONE',  ( 0.000000000000000000, 0.000000000000000000, 1.000000000000000000 ) ) ;
#736 = CARTESIAN_POINT ( 'NONE',  ( 9.099585590461066076, 3.675204637369925642, -7.345573348984414608 ) ) ;
#737 = CARTESIAN_POINT ( 'NONE',  ( 13.00000000000000000, 13.10000000000000142, -15.00000000000000000 ) ) ;
#738 = MANIFOLD_SOLID_BREP ( 'M5 ÂÝÎÆ¿×2', #1001 ) ;
#739 = CARTESIAN_POINT ( 'NONE',  ( 23.86285106106642573, 13.10000000000000142, 0.000000000000000000 ) ) ;
#740 = EDGE_CURVE ( 'NONE', #933, #444, #244, .T. ) ;
#741 = FACE_OUTER_BOUND ( 'NONE', #276, .T. ) ;
#742 = CARTESIAN_POINT ( 'NONE',  ( 26.00000000000000000, 3.000000000000000000, -15.00000000000000178 ) ) ;
#743 = CARTESIAN_POINT ( 'NONE',  ( 17.99579574998215392, 3.451908403900188826, -9.357784532522702037 ) ) ;
#744 = EDGE_LOOP ( 'NONE', ( #605, #700, #603, #992 ) ) ;
#745 = AXIS2_PLACEMENT_3D ( 'NONE', #501, #335, #6 ) ;
#746 = VECTOR ( 'NONE', #401, 1000.000000000000000 ) ;
#747 = FACE_OUTER_BOUND ( 'NONE', #986, .T. ) ;
#748 = ORIENTED_EDGE ( 'NONE', *, *, #218, .T. ) ;
#749 = VERTEX_POINT ( 'NONE', #987 ) ;
#750 = LINE ( 'NONE', #931, #336 ) ;
#751 = DIRECTION ( 'NONE',  ( 0.000000000000000000, 0.000000000000000000, -1.000000000000000000 ) ) ;
#752 = CARTESIAN_POINT ( 'NONE',  ( 0.000000000000000000, 3.000000000000000000, -15.00000000000000178 ) ) ;
#753 = ORIENTED_EDGE ( 'NONE', *, *, #354, .F. ) ;
#754 = DIRECTION ( 'NONE',  ( 0.000000000000000000, -1.000000000000000000, 0.000000000000000000 ) ) ;
#755 = CARTESIAN_POINT ( 'NONE',  ( 14.42478068487749354, 3.000000000000000000, 0.000000000000000000 ) ) ;
#756 = VERTEX_POINT ( 'NONE', #574 ) ;
#757 = CARTESIAN_POINT ( 'NONE',  ( 5.235852066498881463, 5.501786750019917349, -6.352674332505744204 ) ) ;
#758 = ORIENTED_EDGE ( 'NONE', *, *, #768, .F. ) ;
#759 = AXIS2_PLACEMENT_3D ( 'NONE', #489, #84, #407 ) ;
#760 =( GEOMETRIC_REPRESENTATION_CONTEXT ( 3 ) GLOBAL_UNCERTAINTY_ASSIGNED_CONTEXT ( ( #1012 ) ) GLOBAL_UNIT_ASSIGNED_CONTEXT ( ( #494, #666, #991 ) ) REPRESENTATION_CONTEXT ( 'NONE', 'WORKASPACE' ) );
#761 = DIRECTION ( 'NONE',  ( 1.000000000000000000, 0.000000000000000000, 0.000000000000000000 ) ) ;
#762 = LINE ( 'NONE', #255, #775 ) ;
#763 = VERTEX_POINT ( 'NONE', #1055 ) ;
#764 = CARTESIAN_POINT ( 'NONE',  ( 8.365925597506596034, 3.274772410330251571, -9.099110052923020220 ) ) ;
#765 = EDGE_CURVE ( 'NONE', #923, #338, #159, .T. ) ;
#766 = ORIENTED_EDGE ( 'NONE', *, *, #4, .F. ) ;
#767 = DIRECTION ( 'NONE',  ( 0.000000000000000000, -1.000000000000000000, 0.000000000000000000 ) ) ;
#768 = EDGE_CURVE ( 'NONE', #76, #472, #861, .T. ) ;
#769 =( LENGTH_UNIT ( ) NAMED_UNIT ( * ) SI_UNIT ( .MILLI., .METRE. ) );
#770 = CARTESIAN_POINT ( 'NONE',  ( 17.79579978482917824, 4.096804345905614042, -5.774309988921525694 ) ) ;
#771 = VERTEX_POINT ( 'NONE', #585 ) ;
#772 = LINE ( 'NONE', #921, #1030 ) ;
#773 = ORIENTED_EDGE ( 'NONE', *, *, #704, .T. ) ;
#774 = CARTESIAN_POINT ( 'NONE',  ( 5.502550884074451254, 6.182784331301812486, -6.022033263522291513 ) ) ;
#775 = VECTOR ( 'NONE', #509, 1000.000000000000000 ) ;
#776 = CONICAL_SURFACE ( 'NONE', #929, 2.524999999999998579, 0.7853981633974626009 ) ;
#777 = EDGE_CURVE ( 'NONE', #848, #763, #434, .T. ) ;
#778 = VECTOR ( 'NONE', #297, 1000.000000000000000 ) ;
#779 = ORIENTED_EDGE ( 'NONE', *, *, #293, .F. ) ;
#780 = CARTESIAN_POINT ( 'NONE',  ( 4.987784809423957633, 5.764562481051889620, -6.879096253818379303 ) ) ;
#781 = ORIENTED_EDGE ( 'NONE', *, *, #306, .F. ) ;
#782 = CARTESIAN_POINT ( 'NONE',  ( 5.171714481341052938, 6.560270635288472540, -8.543518901106491370 ) ) ;
#783 = CARTESIAN_POINT ( 'NONE',  ( 16.98011785347937774, 3.708523265078815356, -8.093219902462108095 ) ) ;
#784 = CARTESIAN_POINT ( 'NONE',  ( 21.00814805387747697, 6.782323725620167387, -8.134364082666804663 ) ) ;
#785 = EDGE_CURVE ( 'NONE', #756, #151, #92, .T. ) ;
#786 = CARTESIAN_POINT ( 'NONE',  ( 19.00000000000000000, 4.044530206835648123, -9.599999999999980105 ) ) ;
#787 = ORIENTED_EDGE ( 'NONE', *, *, #1006, .T. ) ;
#788 = LINE ( 'NONE', #473, #476 ) ;
#789 = CARTESIAN_POINT ( 'NONE',  ( 4.899732799092603841, 6.901155634217467139, -7.663353507302276491 ) ) ;
#790 = DIRECTION ( 'NONE',  ( 0.000000000000000000, 0.000000000000000000, -1.000000000000000000 ) ) ;
#791 = ORIENTED_EDGE ( 'NONE', *, *, #118, .F. ) ;
#792 = DIRECTION ( 'NONE',  ( 0.000000000000000000, 0.000000000000000000, 1.000000000000000000 ) ) ;
#793 = ORIENTED_EDGE ( 'NONE', *, *, #89, .F. ) ;
#794 = DIRECTION ( 'NONE',  ( -0.000000000000000000, -1.000000000000000000, -0.000000000000000000 ) ) ;
#795 = CARTESIAN_POINT ( 'NONE',  ( 19.52468798962533825, 5.253517137506076295, -9.549021249133039291 ) ) ;
#796 = VECTOR ( 'NONE', #129, 1000.000000000000000 ) ;
#797 = CARTESIAN_POINT ( 'NONE',  ( 9.023466162088615405, 3.707008009248782709, -8.081135336901045463 ) ) ;
#798 = DIRECTION ( 'NONE',  ( 1.000000000000000000, 0.000000000000000000, 0.000000000000000000 ) ) ;
#799 = CARTESIAN_POINT ( 'NONE',  ( 23.86285106106642573, 13.10000000000000142, -15.00000000000000000 ) ) ;
#800 = EDGE_CURVE ( 'NONE', #618, #955, #183, .T. ) ;
#801 = CARTESIAN_POINT ( 'NONE',  ( 21.10031041220608472, 6.901212094830722954, -7.660137859442567532 ) ) ;
#802 = CARTESIAN_POINT ( 'NONE',  ( 19.99798493946587286, 4.785979030548955571, -5.634596709342661214 ) ) ;
#803 = CARTESIAN_POINT ( 'NONE',  ( 19.00000000000000000, -1.734723475976807883E-15, -4.974999999999992539 ) ) ;
#804 = DIRECTION ( 'NONE',  ( 0.000000000000000000, -1.000000000000000000, 0.000000000000000000 ) ) ;
#805 = CARTESIAN_POINT ( 'NONE',  ( 19.00000000000000000, 0.000000000000000000, -7.499999999999992006 ) ) ;
#806 = CARTESIAN_POINT ( 'NONE',  ( 7.971482841116025675, 4.224697387329946707, -5.633447846690688543 ) ) ;
#807 = CARTESIAN_POINT ( 'NONE',  ( 0.000000000000000000, 0.000000000000000000, -15.00000000000000178 ) ) ;
#808 = DIRECTION ( 'NONE',  ( 0.000000000000000000, 0.000000000000000000, 1.000000000000000000 ) ) ;
#809 = CARTESIAN_POINT ( 'NONE',  ( 20.96222736140902754, 5.709962725090111491, -8.262185405259685922 ) ) ;
#810 = EDGE_CURVE ( 'NONE', #763, #44, #819, .T. ) ;
#811 = ORIENTED_EDGE ( 'NONE', *, *, #205, .T. ) ;
#812 = AXIS2_PLACEMENT_3D ( 'NONE', #237, #483, #727 ) ;
#813 = CARTESIAN_POINT ( 'NONE',  ( 2.799999999999998490, 13.10000000000000142, -15.00000000000000000 ) ) ;
#814 = LINE ( 'NONE', #85, #184 ) ;
#815 = CARTESIAN_POINT ( 'NONE',  ( 9.020117724471258924, 3.708423967242210573, -6.907703862193613986 ) ) ;
#816 = DIRECTION ( 'NONE',  ( -0.000000000000000000, -1.000000000000000000, -0.000000000000000000 ) ) ;
#817 = CARTESIAN_POINT ( 'NONE',  ( 18.15313477889652205, 4.296301093017943273, -9.425977464893344759 ) ) ;
#818 = ORIENTED_EDGE ( 'NONE', *, *, #163, .T. ) ;
#819 = LINE ( 'NONE', #813, #236 ) ;
#820 = CARTESIAN_POINT ( 'NONE',  ( 23.19999999999999929, 13.10000000000000142, -15.00000000000000000 ) ) ;
#821 = EDGE_CURVE ( 'NONE', #923, #16, #127, .T. ) ;
#822 = CARTESIAN_POINT ( 'NONE',  ( 16.99894150681302563, 2.999999999999999112, -8.136996787153760735 ) ) ;
#823 = VERTEX_POINT ( 'NONE', #504 ) ;
#824 = FACE_BOUND ( 'NONE', #597, .T. ) ;
#825 = ORIENTED_EDGE ( 'NONE', *, *, #768, .T. ) ;
#826 = AXIS2_PLACEMENT_3D ( 'NONE', #709, #131, #322 ) ;
#827 = ADVANCED_FACE ( 'NONE', ( #824, #421 ), #15, .F. ) ;
#828 = CARTESIAN_POINT ( 'NONE',  ( 0.000000000000000000, 3.000000000000000000, -15.00000000000000178 ) ) ;
#829 = CARTESIAN_POINT ( 'NONE',  ( 18.80087689261446471, 3.912594628494364457, -5.400000000000005684 ) ) ;
#830 = ORIENTED_EDGE ( 'NONE', *, *, #306, .T. ) ;
#831 = DIRECTION ( 'NONE',  ( 0.000000000000000000, 0.000000000000000000, 1.000000000000000000 ) ) ;
#832 = ORIENTED_EDGE ( 'NONE', *, *, #800, .T. ) ;
#833 = DIRECTION ( 'NONE',  ( 8.659560562355057350E-17, -0.7071067811865374697, 0.7071067811865576758 ) ) ;
#834 = DIRECTION ( 'NONE',  ( 0.000000000000000000, 0.000000000000000000, -1.000000000000000000 ) ) ;
#835 = ORIENTED_EDGE ( 'NONE', *, *, #840, .F. ) ;
#836 = DIRECTION ( 'NONE',  ( 1.000000000000000000, -0.000000000000000000, 0.000000000000000000 ) ) ;
#837 = ORIENTED_EDGE ( 'NONE', *, *, #89, .T. ) ;
#838 = VERTEX_POINT ( 'NONE', #1009 ) ;
#839 = CARTESIAN_POINT ( 'NONE',  ( 26.00000000000000000, 0.000000000000000000, 0.000000000000000000 ) ) ;
#840 = EDGE_CURVE ( 'NONE', #58, #858, #650, .T. ) ;
#841 = VERTEX_POINT ( 'NONE', #352 ) ;
#842 = CARTESIAN_POINT ( 'NONE',  ( 13.00000000000000000, 13.10000000000000142, -15.00000000000000000 ) ) ;
#843 = CONICAL_SURFACE ( 'NONE', #180, 2.524999999999998579, 0.7853981633974626009 ) ;
#844 = DIRECTION ( 'NONE',  ( 8.659560562355093096E-17, -0.7071067811865344721, 0.7071067811865605623 ) ) ;
#845 = VERTEX_POINT ( 'NONE', #359 ) ;
#846 = CARTESIAN_POINT ( 'NONE',  ( 13.00000000000000000, 13.10000000000000142, -15.00000000000000000 ) ) ;
#847 = ORIENTED_EDGE ( 'NONE', *, *, #583, .F. ) ;
#848 = VERTEX_POINT ( 'NONE', #286 ) ;
#849 = DIRECTION ( 'NONE',  ( 0.000000000000000000, 0.000000000000000000, 1.000000000000000000 ) ) ;
#850 = CARTESIAN_POINT ( 'NONE',  ( 17.14195089354109314, 3.778601048602583834, -6.510520142753020600 ) ) ;
#851 = ORIENTED_EDGE ( 'NONE', *, *, #578, .T. ) ;
#852 = CARTESIAN_POINT ( 'NONE',  ( 6.999999999999704237, 4.044530206835427855, -9.600000000001200462 ) ) ;
#853 = DIRECTION ( 'NONE',  ( -0.000000000000000000, -0.000000000000000000, -1.000000000000000000 ) ) ;
#854 = EDGE_CURVE ( 'NONE', #845, #955, #772, .T. ) ;
#855 = SHAPE_DEFINITION_REPRESENTATION ( #559, #864 ) ;
#856 = LINE ( 'NONE', #871, #439 ) ;
#857 = CARTESIAN_POINT ( 'NONE',  ( 5.785192899649389986, 4.974750282794224709, -9.233197520092803146 ) ) ;
#858 = VERTEX_POINT ( 'NONE', #37 ) ;
#859 = CARTESIAN_POINT ( 'NONE',  ( 8.372172768290603528, 3.270103676247619884, -5.894717645086619662 ) ) ;
#860 = CIRCLE ( 'NONE', #418, 2.099999999999988098 ) ;
#861 = CIRCLE ( 'NONE', #592, 2.099999999999989875 ) ;
#862 = CARTESIAN_POINT ( 'NONE',  ( 0.000000000000000000, 0.000000000000000000, 0.000000000000000000 ) ) ;
#863 = EDGE_LOOP ( 'NONE', ( #832, #404, #465, #93 ) ) ;
#864 = ADVANCED_BREP_SHAPE_REPRESENTATION ( '\X2\7ba19053652f67b6\X0\2', ( #738, #1051 ), #99 ) ;
#865 = CARTESIAN_POINT ( 'NONE',  ( 6.999999999999920952, 4.851363749079448340, -5.399999999999767653 ) ) ;
#866 = DIRECTION ( 'NONE',  ( -0.000000000000000000, -0.000000000000000000, -1.000000000000000000 ) ) ;
#867 = ORIENTED_EDGE ( 'NONE', *, *, #163, .F. ) ;
#868 = CARTESIAN_POINT ( 'NONE',  ( 8.927986572309723812, 3.028931716572101251, -8.366544550712060158 ) ) ;
#869 = DIRECTION ( 'NONE',  ( 1.000000000000000000, 0.000000000000000000, 0.000000000000000000 ) ) ;
#870 = CARTESIAN_POINT ( 'NONE',  ( 20.75539426198100657, 6.473580989550776543, -8.660645366856703831 ) ) ;
#871 = CARTESIAN_POINT ( 'NONE',  ( 19.00000000000000000, -1.734723475976807883E-15, -10.02499999999999147 ) ) ;
#872 = VERTEX_POINT ( 'NONE', #436 ) ;
#873 = ADVANCED_FACE ( 'NONE', ( #273 ), #123, .F. ) ;
#874 = LINE ( 'NONE', #720, #527 ) ;
#875 = CARTESIAN_POINT ( 'NONE',  ( 5.788563087360127923, 5.881041712038661551, -9.234730558538888801 ) ) ;
#876 = DIRECTION ( 'NONE',  ( -1.000000000000000000, -0.000000000000000000, -0.000000000000000000 ) ) ;
#877 = CIRCLE ( 'NONE', #262, 2.099999999999988098 ) ;
#878 = CARTESIAN_POINT ( 'NONE',  ( 20.76144279330075548, 5.499021837840728288, -6.348552315244504030 ) ) ;
#879 = AXIS2_PLACEMENT_3D ( 'NONE', #495, #412, #500 ) ;
#880 = DIRECTION ( 'NONE',  ( 0.000000000000000000, -0.000000000000000000, -1.000000000000000000 ) ) ;
#881 = ADVANCED_FACE ( 'NONE', ( #529 ), #940, .F. ) ;
#882 = CARTESIAN_POINT ( 'NONE',  ( 16.99894150681302563, 2.999999999999999112, -15.00000000000000000 ) ) ;
#883 = FACE_BOUND ( 'NONE', #523, .T. ) ;
#884 = CYLINDRICAL_SURFACE ( 'NONE', #879, 2.099999999999988098 ) ;
#885 = CARTESIAN_POINT ( 'NONE',  ( 8.784319912556744825, 3.811477183492287146, -8.616584945065442369 ) ) ;
#886 = ORIENTED_EDGE ( 'NONE', *, *, #258, .T. ) ;
#887 = CARTESIAN_POINT ( 'NONE',  ( 20.95279581992097206, 6.712272869441950007, -6.714053356959705177 ) ) ;
#888 = EDGE_CURVE ( 'NONE', #1022, #302, #10, .T. ) ;
#889 = CARTESIAN_POINT ( 'NONE',  ( 7.241769684382337147, 4.675502180916367045, -9.599999999999987210 ) ) ;
#890 = FACE_OUTER_BOUND ( 'NONE', #601, .T. ) ;
#891 = CARTESIAN_POINT ( 'NONE',  ( 20.21480710035061890, 4.974750282794231815, -5.766802479907195966 ) ) ;
#892 = CARTESIAN_POINT ( 'NONE',  ( 19.00000000000000000, 4.851363749079488308, -5.400000000000004796 ) ) ;
#893 = VECTOR ( 'NONE', #995, 1000.000000000000000 ) ;
#894 = DIRECTION ( 'NONE',  ( -0.000000000000000000, -1.000000000000000000, -0.000000000000000000 ) ) ;
#895 = DIRECTION ( 'NONE',  ( 0.000000000000000000, 0.000000000000000000, -1.000000000000000000 ) ) ;
#896 = CARTESIAN_POINT ( 'NONE',  ( 17.63407440249339686, 3.274772410330252015, -5.900889947076983333 ) ) ;
#897 = ADVANCED_FACE ( 'NONE', ( #690 ), #443, .T. ) ;
#898 = CARTESIAN_POINT ( 'NONE',  ( 17.46166232775697935, 3.194520649212614138, -8.948492110944638256 ) ) ;
#899 = B_SPLINE_CURVE_WITH_KNOTS ( 'NONE', 3,
 ( #361, #268, #600, #524, #112, #693, #764, #279, #934, #639, #868, #51 ),
 .UNSPECIFIED., .F., .F.,
 ( 4, 2, 2, 2, 2, 4 ),
 ( 0.01047857206228739770, 0.01119489180545981538, 0.01191121154863223133, 0.01226937142021844451, 0.01262753129180465596, 0.01334385103497708752 ),
 .UNSPECIFIED. ) ;
#900 = CARTESIAN_POINT ( 'NONE',  ( 16.99894150681302563, 2.999999999999999112, -15.00000000000000000 ) ) ;
#901 = LINE ( 'NONE', #519, #778 ) ;
#902 = CARTESIAN_POINT ( 'NONE',  ( 16.99894150681302563, 2.999999999999999112, -6.863003212846222389 ) ) ;
#903 = ORIENTED_EDGE ( 'NONE', *, *, #564, .T. ) ;
#904 = CARTESIAN_POINT ( 'NONE',  ( 0.000000000000000000, 3.000000000000000000, 0.000000000000000000 ) ) ;
#905 = EDGE_CURVE ( 'NONE', #858, #906, #899, .T. ) ;
#906 = VERTEX_POINT ( 'NONE', #479 ) ;
#907 = CARTESIAN_POINT ( 'NONE',  ( 19.00000000000000000, -1.734723475976807883E-15, -7.499999999999992006 ) ) ;
#908 = ORIENTED_EDGE ( 'NONE', *, *, #169, .T. ) ;
#909 = CARTESIAN_POINT ( 'NONE',  ( 18.19234561102606307, 3.555610634078188781, -9.449949088240428452 ) ) ;
#910 = VECTOR ( 'NONE', #876, 1000.000000000000000 ) ;
#911 = ORIENTED_EDGE ( 'NONE', *, *, #218, .F. ) ;
#912 = STYLED_ITEM ( 'NONE', ( #677 ), #738 ) ;
#913 = LINE ( 'NONE', #105, #964 ) ;
#914 = LINE ( 'NONE', #30, #202 ) ;
#915 = CARTESIAN_POINT ( 'NONE',  ( 18.19384401497226378, 3.556477716483868790, -5.549637447005036250 ) ) ;
#916 = CARTESIAN_POINT ( 'NONE',  ( 5.489394904352894677, 5.250789378712159561, -6.035275517906193876 ) ) ;
#917 = ORIENTED_EDGE ( 'NONE', *, *, #622, .F. ) ;
#918 = EDGE_CURVE ( 'NONE', #652, #151, #546, .T. ) ;
#919 = CARTESIAN_POINT ( 'NONE',  ( 19.00000000000000000, 4.851363749079488308, -5.400000000000004796 ) ) ;
#920 = CARTESIAN_POINT ( 'NONE',  ( 2.137148938933564946, 13.10000000000000142, 0.000000000000000000 ) ) ;
#921 = CARTESIAN_POINT ( 'NONE',  ( 0.000000000000000000, 3.000000000000000000, 0.000000000000000000 ) ) ;
#922 = CARTESIAN_POINT ( 'NONE',  ( 0.000000000000000000, 3.000000000000000000, 0.000000000000000000 ) ) ;
#923 = VERTEX_POINT ( 'NONE', #185 ) ;
#924 = LINE ( 'NONE', #828, #982 ) ;
#925 = EDGE_LOOP ( 'NONE', ( #1054, #17 ) ) ;
#926 = CARTESIAN_POINT ( 'NONE',  ( 5.161943459418850466, 5.578392116975164683, -6.473934230431598991 ) ) ;
#927 = ORIENTED_EDGE ( 'NONE', *, *, #513, .F. ) ;
#928 = ORIENTED_EDGE ( 'NONE', *, *, #445, .T. ) ;
#929 = AXIS2_PLACEMENT_3D ( 'NONE', #283, #942, #210 ) ;
#930 = CIRCLE ( 'NONE', #609, 10.86285106106642750 ) ;
#931 = CARTESIAN_POINT ( 'NONE',  ( 19.00000000000000000, -1.734723475976807883E-15, -4.974999999999992539 ) ) ;
#932 = CARTESIAN_POINT ( 'NONE',  ( 17.02266720102206321, 3.726506296719454436, -6.777800670177321685 ) ) ;
#933 = VERTEX_POINT ( 'NONE', #499 ) ;
#934 = CARTESIAN_POINT ( 'NONE',  ( 8.608488676500881454, 3.164109568571666031, -8.855053902368020147 ) ) ;
#935 = EDGE_CURVE ( 'NONE', #771, #950, #247, .T. ) ;
#936 = ORIENTED_EDGE ( 'NONE', *, *, #34, .F. ) ;
#937 = CARTESIAN_POINT ( 'NONE',  ( 7.807654388973934267, 3.555610634078187893, -5.550050911759560890 ) ) ;
#938 = CARTESIAN_POINT ( 'NONE',  ( 18.14673583730849060, 4.292553803084409481, -5.576816768698144244 ) ) ;
#939 = LINE ( 'NONE', #944, #215 ) ;
#940 = PLANE ( 'NONE',  #367 ) ;
#941 = ORIENTED_EDGE ( 'NONE', *, *, #107, .F. ) ;
#942 = DIRECTION ( 'NONE',  ( -0.000000000000000000, -1.000000000000000000, -0.000000000000000000 ) ) ;
#943 = CARTESIAN_POINT ( 'NONE',  ( 19.00000000000000000, 0.000000000000000000, -9.599999999999980105 ) ) ;
#944 = CARTESIAN_POINT ( 'NONE',  ( 0.000000000000000000, 3.000000000000000000, 0.000000000000000000 ) ) ;
#945 = EDGE_LOOP ( 'NONE', ( #356, #414, #825, #713 ) ) ;
#946 = CARTESIAN_POINT ( 'NONE',  ( 7.000000000000000000, 4.851363749079486531, -9.599999999999988987 ) ) ;
#947 = AXIS2_PLACEMENT_3D ( 'NONE', #956, #632, #226 ) ;
#948 = DIRECTION ( 'NONE',  ( 1.000000000000000000, 0.000000000000000000, 0.000000000000000000 ) ) ;
#949 = COLOUR_RGB ( '',0.7921568627450980005, 0.8196078431372548767, 0.9333333333333333481 ) ;
#950 = VERTEX_POINT ( 'NONE', #1024 ) ;
#951 = ORIENTED_EDGE ( 'NONE', *, *, #1050, .T. ) ;
#952 = LINE ( 'NONE', #165, #646 ) ;
#953 = EDGE_CURVE ( 'NONE', #732, #845, #353, .T. ) ;
#954 = VERTEX_POINT ( 'NONE', #978 ) ;
#955 = VERTEX_POINT ( 'NONE', #86 ) ;
#956 = CARTESIAN_POINT ( 'NONE',  ( 26.00000000000000000, 3.000000000000000000, 0.000000000000000000 ) ) ;
#957 = ORIENTED_EDGE ( 'NONE', *, *, #251, .F. ) ;
#958 = CARTESIAN_POINT ( 'NONE',  ( 23.86285106106642573, 13.10000000000000142, -15.00000000000000000 ) ) ;
#959 = LINE ( 'NONE', #301, #999 ) ;
#960 = ADVANCED_FACE ( 'NONE', ( #166 ), #884, .F. ) ;
#961 = CARTESIAN_POINT ( 'NONE',  ( 21.08115987436811167, 5.840581802148923529, -7.178629566523616390 ) ) ;
#962 = CARTESIAN_POINT ( 'NONE',  ( 18.51002394220414971, 4.511657359028412806, -5.441676081671291243 ) ) ;
#963 = FACE_OUTER_BOUND ( 'NONE', #510, .T. ) ;
#964 = VECTOR ( 'NONE', #196, 1000.000000000000000 ) ;
#965 = CARTESIAN_POINT ( 'NONE',  ( 8.851969839788239369, 3.781296632369543609, -6.499096091502434724 ) ) ;
#966 = DIRECTION ( 'NONE',  ( 1.000000000000000000, 0.000000000000000000, 0.000000000000000000 ) ) ;
#967 = AXIS2_PLACEMENT_3D ( 'NONE', #627, #144, #880 ) ;
#968 = ORIENTED_EDGE ( 'NONE', *, *, #583, .T. ) ;
#969 = ADVANCED_FACE ( 'NONE', ( #741 ), #5, .F. ) ;
#970 = CARTESIAN_POINT ( 'NONE',  ( 20.58722732120844157, 6.281690564216432904, -6.118393400454399611 ) ) ;
#971 = CARTESIAN_POINT ( 'NONE',  ( 19.13232358831239921, 4.132205561953466777, -5.400000000000005684 ) ) ;
#972 = ORIENTED_EDGE ( 'NONE', *, *, #935, .T. ) ;
#973 = CARTESIAN_POINT ( 'NONE',  ( 7.000000000000000000, 3.000000000000000000, -5.400000000000012790 ) ) ;
#974 = EDGE_CURVE ( 'NONE', #472, #838, #994, .T. ) ;
#975 = CARTESIAN_POINT ( 'NONE',  ( 8.610817163782458650, 3.892194885489134837, -6.145176916735924699 ) ) ;
#976 = CARTESIAN_POINT ( 'NONE',  ( 19.00000000000000000, 0.000000000000000000, -7.499999999999992006 ) ) ;
#977 = CYLINDRICAL_SURFACE ( 'NONE', #316, 2.099999999999988098 ) ;
#978 = CARTESIAN_POINT ( 'NONE',  ( 19.00000000000029488, 4.044530206835431407, -5.399999999998794209 ) ) ;
#979 = CARTESIAN_POINT ( 'NONE',  ( 8.858324127379372470, 3.778480464654271120, -8.488889803089177732 ) ) ;
#980 = AXIS2_PLACEMENT_3D ( 'NONE', #69, #223, #790 ) ;
#981 = DIRECTION ( 'NONE',  ( 0.000000000000000000, 0.000000000000000000, -1.000000000000000000 ) ) ;
#982 = VECTOR ( 'NONE', #668, 1000.000000000000000 ) ;
#983 = PLANE ( 'NONE',  #759 ) ;
#984 = CYLINDRICAL_SURFACE ( 'NONE', #506, 10.19999999999999929 ) ;
#985 = ADVANCED_FACE ( 'NONE', ( #520 ), #277, .T. ) ;
#986 = EDGE_LOOP ( 'NONE', ( #847, #429, #851, #256 ) ) ;
#987 = CARTESIAN_POINT ( 'NONE',  ( 6.999999999999920952, 4.851363749079448340, -5.399999999999767653 ) ) ;
#988 = VERTEX_POINT ( 'NONE', #607 ) ;
#989 = FACE_OUTER_BOUND ( 'NONE', #33, .T. ) ;
#990 = ORIENTED_EDGE ( 'NONE', *, *, #486, .T. ) ;
#991 =( NAMED_UNIT ( * ) SI_UNIT ( $, .STERADIAN. ) SOLID_ANGLE_UNIT ( ) );
#992 = ORIENTED_EDGE ( 'NONE', *, *, #734, .T. ) ;
#993 = VERTEX_POINT ( 'NONE', #919 ) ;
#994 = LINE ( 'NONE', #602, #384 ) ;
#995 = DIRECTION ( 'NONE',  ( -0.000000000000000000, -1.000000000000000000, -0.000000000000000000 ) ) ;
#996 = CARTESIAN_POINT ( 'NONE',  ( 18.59681863735008633, 3.787028269490253063, -9.571726779179700273 ) ) ;
#997 = CIRCLE ( 'NONE', #608, 10.19999999999999929 ) ;
#998 = EDGE_LOOP ( 'NONE', ( #321, #267, #137, #766 ) ) ;
#999 = VECTOR ( 'NONE', #230, 1000.000000000000000 ) ;
#1000 = EDGE_CURVE ( 'NONE', #16, #732, #924, .T. ) ;
#1001 = CLOSED_SHELL ( 'NONE', ( #522, #246, #969, #323, #482, #12, #697, #881, #873, #411, #242, #1041, #638, #530, #897, #467, #145, #827, #555, #985, #960, #405, #177, #198 ) ) ;
#1002 = CARTESIAN_POINT ( 'NONE',  ( 7.000000000000000000, -1.734723475976807883E-15, -4.975000000000002309 ) ) ;
#1003 = DIRECTION ( 'NONE',  ( 0.000000000000000000, -1.000000000000000000, 0.000000000000000000 ) ) ;
#1004 = DIRECTION ( 'NONE',  ( 1.000000000000000000, 0.000000000000000000, 0.000000000000000000 ) ) ;
#1005 = ORIENTED_EDGE ( 'NONE', *, *, #100, .F. ) ;
#1006 = EDGE_CURVE ( 'NONE', #460, #652, #914, .T. ) ;
#1007 = FACE_OUTER_BOUND ( 'NONE', #455, .T. ) ;
#1008 = VERTEX_POINT ( 'NONE', #514 ) ;
#1009 = CARTESIAN_POINT ( 'NONE',  ( 7.000000000000000000, -1.734723475976807883E-15, -10.02499999999999858 ) ) ;
#1010 = DIRECTION ( 'NONE',  ( 0.000000000000000000, 0.000000000000000000, -1.000000000000000000 ) ) ;
#1011 = CARTESIAN_POINT ( 'NONE',  ( 5.039770907964814306, 5.707807292468408455, -8.267251120434034206 ) ) ;
#1012 = UNCERTAINTY_MEASURE_WITH_UNIT (LENGTH_MEASURE( 1.000000000000000082E-05 ), #494, 'distance_accuracy_value', 'NONE');
#1013 = CARTESIAN_POINT ( 'NONE',  ( 5.411785006128985387, 6.282787166047159033, -6.119501574241807518 ) ) ;
#1014 = VECTOR ( 'NONE', #579, 1000.000000000000000 ) ;
#1015 = CARTESIAN_POINT ( 'NONE',  ( 17.21607872719521737, 3.811660309400074720, -6.382825972381619195 ) ) ;
#1016 = EDGE_CURVE ( 'NONE', #1008, #460, #930, .T. ) ;
#1017 = CARTESIAN_POINT ( 'NONE',  ( 6.738316228406143082, 4.222087313671431197, -9.587607474503727190 ) ) ;
#1018 = VERTEX_POINT ( 'NONE', #423 ) ;
#1019 = EDGE_LOOP ( 'NONE', ( #469, #551, #908, #503, #203, #21, #449, #360 ) ) ;
#1020 = CARTESIAN_POINT ( 'NONE',  ( 7.000000000000000000, 4.044530206835642794, -5.400000000000012790 ) ) ;
#1021 = B_SPLINE_CURVE_WITH_KNOTS ( 'NONE', 3,
 ( #946, #229, #216, #535, #875, #548, #206, #375, #782, #60, #383, #450, #789, #541, #716, #475, #126, #222, #635, #1013, #774, #67, #40, #705, #146, #865 ),
 .UNSPECIFIED., .F., .F.,
 ( 4, 2, 2, 2, 2, 2, 2, 2, 2, 2, 2, 2, 4 ),
 ( 0.000000000000000000, 0.0009819595117997596042, 0.001963919023599519208, 0.002454898779499397818, 0.002945878535399277295, 0.003436858291299155904, 0.003927838047199034947, 0.004418817803098913991, 0.004909797558998792166, 0.005400777314898671209, 0.005891757070798551120, 0.006873716582598308339, 0.007855676094398066425 ),
 .UNSPECIFIED. ) ;
#1022 = VERTEX_POINT ( 'NONE', #197 ) ;
#1023 = DIRECTION ( 'NONE',  ( 1.000000000000000000, 0.000000000000000000, 0.000000000000000000 ) ) ;
#1024 = CARTESIAN_POINT ( 'NONE',  ( 16.99894150681302563, 2.999999999999999112, -6.863003212846222389 ) ) ;
#1025 = DIRECTION ( 'NONE',  ( -1.000000000000000000, -0.000000000000000000, -0.000000000000000000 ) ) ;
#1026 = CARTESIAN_POINT ( 'NONE',  ( 20.21834712444648829, 4.977928196165077424, -9.230610452445306535 ) ) ;
#1027 = CARTESIAN_POINT ( 'NONE',  ( 7.000000000000000000, 3.000000000000000000, -7.500000000000000888 ) ) ;
#1028 = EDGE_CURVE ( 'NONE', #694, #689, #750, .T. ) ;
#1029 = AXIS2_PLACEMENT_3D ( 'NONE', #13, #339, #751 ) ;
#1030 = VECTOR ( 'NONE', #616, 1000.000000000000000 ) ;
#1031 = FACE_BOUND ( 'NONE', #925, .T. ) ;
#1032 = EDGE_LOOP ( 'NONE', ( #269, #539, #818, #364, #968, #24, #518, #493, #671, #633 ) ) ;
#1033 = CARTESIAN_POINT ( 'NONE',  ( 0.000000000000000000, 3.000000000000000000, 0.000000000000000000 ) ) ;
#1034 = CARTESIAN_POINT ( 'NONE',  ( 9.001058493186969045, 2.999999999999997780, -6.863003212846215284 ) ) ;
#1035 = EDGE_CURVE ( 'NONE', #841, #472, #593, .T. ) ;
#1036 = DIRECTION ( 'NONE',  ( 0.000000000000000000, -0.000000000000000000, -1.000000000000000000 ) ) ;
#1037 = CARTESIAN_POINT ( 'NONE',  ( 7.975951764608225858, 4.218591343553967477, -9.377425880629015609 ) ) ;
#1038 = DIRECTION ( 'NONE',  ( -0.000000000000000000, -1.000000000000000000, -0.000000000000000000 ) ) ;
#1039 = LINE ( 'NONE', #133, #910 ) ;
#1040 = CARTESIAN_POINT ( 'NONE',  ( 20.76414793350111765, 5.501786750019922678, -8.647325667494248691 ) ) ;
#1041 = ADVANCED_FACE ( 'NONE', ( #432 ), #22, .F. ) ;
#1042 = DIRECTION ( 'NONE',  ( -0.000000000000000000, -1.000000000000000000, -0.000000000000000000 ) ) ;
#1043 = DIRECTION ( 'NONE',  ( 0.000000000000000000, 0.000000000000000000, 1.000000000000000000 ) ) ;
#1044 = CONICAL_SURFACE ( 'NONE', #980, 2.525000000000000355, 0.7853981633974667087 ) ;
#1045 = DIRECTION ( 'NONE',  ( -0.000000000000000000, -1.000000000000000000, -0.000000000000000000 ) ) ;
#1046 = AXIS2_PLACEMENT_3D ( 'NONE', #233, #380, #228 ) ;
#1047 = CARTESIAN_POINT ( 'NONE',  ( 20.50826570004331018, 5.248542990355697491, -6.032837070481823716 ) ) ;
#1048 = ORIENTED_EDGE ( 'NONE', *, *, #100, .T. ) ;
#1049 = FACE_OUTER_BOUND ( 'NONE', #458, .T. ) ;
#1050 = EDGE_CURVE ( 'NONE', #76, #289, #440, .T. ) ;
#1051 = AXIS2_PLACEMENT_3D ( 'NONE', #542, #463, #948 ) ;
#1052 = DIRECTION ( 'NONE',  ( 0.000000000000000000, 0.000000000000000000, -1.000000000000000000 ) ) ;
#1053 = CARTESIAN_POINT ( 'NONE',  ( 7.000000000000000000, 0.000000000000000000, -5.400000000000012790 ) ) ;
#1054 = ORIENTED_EDGE ( 'NONE', *, *, #564, .F. ) ;
#1055 = CARTESIAN_POINT ( 'NONE',  ( 2.799999999999998490, 13.10000000000000142, -15.00000000000000000 ) ) ;
ENDSEC;
END-ISO-10303-21;
