ISO-10303-21;
HEADER;
FILE_DESCRIPTION (( 'STEP AP214' ),
    '1' );
FILE_NAME ('õÎõÎ°å2.STEP',
    '2026-04-13T11:48:17',
    ( '' ),
    ( '' ),
    'SwSTEP 2.0',
    'SolidWorks 2024',
    '' );
FILE_SCHEMA (( 'AUTOMOTIVE_DESIGN' ));
ENDSEC;

DATA;
#1 = ORIENTED_EDGE ( 'NONE', *, *, #108, .T. ) ;
#2 = DIRECTION ( 'NONE',  ( 0.9428672530551416298, 0.3331686406555265934, 0.000000000000000000 ) ) ;
#3 = VECTOR ( 'NONE', #271, 1000.000000000000000 ) ;
#4 = VECTOR ( 'NONE', #130, 1000.000000000000000 ) ;
#5 = DIRECTION ( 'NONE',  ( -0.000000000000000000, -0.000000000000000000, 1.000000000000000000 ) ) ;
#6 = CARTESIAN_POINT ( 'NONE',  ( 271.6999999999999318, 0.000000000000000000, 0.000000000000000000 ) ) ;
#7 = ADVANCED_FACE ( 'NONE', ( #69, #239 ), #285, .F. ) ;
#8 = LINE ( 'NONE', #232, #258 ) ;
#9 = VECTOR ( 'NONE', #233, 1000.000000000000000 ) ;
#10 = DIRECTION ( 'NONE',  ( 0.000000000000000000, -0.000000000000000000, -1.000000000000000000 ) ) ;
#11 = DIRECTION ( 'NONE',  ( -0.000000000000000000, -0.000000000000000000, 1.000000000000000000 ) ) ;
#12 = VERTEX_POINT ( 'NONE', #45 ) ;
#13 = ORIENTED_EDGE ( 'NONE', *, *, #295, .F. ) ;
#14 =( NAMED_UNIT ( * ) SI_UNIT ( $, .STERADIAN. ) SOLID_ANGLE_UNIT ( ) );
#15 = CONICAL_SURFACE ( 'NONE', #55, 1.524999999999998579, 0.7853981633974199683 ) ;
#16 = EDGE_CURVE ( 'NONE', #64, #287, #54, .T. ) ;
#17 = VERTEX_POINT ( 'NONE', #301 ) ;
#18 = FACE_OUTER_BOUND ( 'NONE', #111, .T. ) ;
#19 = CARTESIAN_POINT ( 'NONE',  ( 3.141338010189919761, 8.889986568837484171, 0.000000000000000000 ) ) ;
#20 = DIRECTION ( 'NONE',  ( -0.9428672530551416298, 0.3331686406555265934, 0.000000000000000000 ) ) ;
#21 = LINE ( 'NONE', #121, #9 ) ;
#22 = EDGE_CURVE ( 'NONE', #186, #143, #214, .T. ) ;
#23 = VECTOR ( 'NONE', #172, 1000.000000000000114 ) ;
#24 = CARTESIAN_POINT ( 'NONE',  ( -3.612221640027642824E-16, 9.999999999999998224, -200.0000000000000000 ) ) ;
#25 = ORIENTED_EDGE ( 'NONE', *, *, #29, .T. ) ;
#26 = FACE_OUTER_BOUND ( 'NONE', #266, .T. ) ;
#27 = FILL_AREA_STYLE ('',( #49 ) ) ;
#28 = CARTESIAN_POINT ( 'NONE',  ( 150.0000000000000000, 5.000000000000000000, 0.000000000000000000 ) ) ;
#29 = EDGE_CURVE ( 'NONE', #77, #64, #21, .T. ) ;
#30 = CARTESIAN_POINT ( 'NONE',  ( 0.000000000000000000, 10.00000000000000000, 0.000000000000000000 ) ) ;
#31 = DIRECTION ( 'NONE',  ( 1.000000000000000000, 0.000000000000000000, 0.000000000000000000 ) ) ;
#32 = VECTOR ( 'NONE', #309, 1000.000000000000114 ) ;
#33 = DIRECTION ( 'NONE',  ( 0.9428672530551416298, 0.3331686406555265934, 0.000000000000000000 ) ) ;
#34 = DIRECTION ( 'NONE',  ( 0.000000000000000000, 0.000000000000000000, -1.000000000000000000 ) ) ;
#35 = ORIENTED_EDGE ( 'NONE', *, *, #16, .T. ) ;
#36 = ORIENTED_EDGE ( 'NONE', *, *, #253, .F. ) ;
#37 = DIRECTION ( 'NONE',  ( 1.000000000000000000, 0.000000000000000000, -0.000000000000000000 ) ) ;
#38 = PRODUCT_RELATED_PRODUCT_CATEGORY ( 'part', '', ( #175 ) ) ;
#39 = VECTOR ( 'NONE', #125, 1000.000000000000000 ) ;
#40 = DIRECTION ( 'NONE',  ( 1.000000000000000000, 0.000000000000000000, 0.000000000000000000 ) ) ;
#41 = CARTESIAN_POINT ( 'NONE',  ( 148.7500000000000000, 5.000000000000000000, -0.2750000000000113465 ) ) ;
#42 = EDGE_LOOP ( 'NONE', ( #299, #25, #35, #207 ) ) ;
#43 = EDGE_CURVE ( 'NONE', #190, #93, #118, .T. ) ;
#44 = DIRECTION ( 'NONE',  ( 0.000000000000000000, 0.000000000000000000, 1.000000000000000000 ) ) ;
#45 = CARTESIAN_POINT ( 'NONE',  ( 271.6999999999999886, 0.000000000000000000, 0.000000000000000000 ) ) ;
#46 = UNCERTAINTY_MEASURE_WITH_UNIT (LENGTH_MEASURE( 1.000000000000000082E-05 ), #225, 'distance_accuracy_value', 'NONE');
#47 = AXIS2_PLACEMENT_3D ( 'NONE', #181, #306, #261 ) ;
#48 = DIRECTION ( 'NONE',  ( -0.000000000000000000, -0.000000000000000000, 1.000000000000000000 ) ) ;
#49 = FILL_AREA_STYLE_COLOUR ( '', #138 ) ;
#50 = ORIENTED_EDGE ( 'NONE', *, *, #140, .T. ) ;
#51 = PLANE ( 'NONE',  #270 ) ;
#52 = EDGE_CURVE ( 'NONE', #81, #143, #209, .T. ) ;
#53 = ORIENTED_EDGE ( 'NONE', *, *, #213, .F. ) ;
#54 = CIRCLE ( 'NONE', #300, 1.250000000000001110 ) ;
#55 = AXIS2_PLACEMENT_3D ( 'NONE', #158, #256, #83 ) ;
#56 = CARTESIAN_POINT ( 'NONE',  ( 271.6999999999999886, 1.663682676641678944E-14, -500.0000000000000000 ) ) ;
#57 = CARTESIAN_POINT ( 'NONE',  ( 0.000000000000000000, 0.000000000000000000, 0.000000000000000000 ) ) ;
#58 = ADVANCED_FACE ( 'NONE', ( #139 ), #113, .F. ) ;
#59 = AXIS2_PLACEMENT_3D ( 'NONE', #265, #242, #94 ) ;
#60 = AXIS2_PLACEMENT_3D ( 'NONE', #147, #264, #197 ) ;
#61 = CARTESIAN_POINT ( 'NONE',  ( 0.000000000000000000, 10.00000000000000000, 0.000000000000000000 ) ) ;
#62 = ORIENTED_EDGE ( 'NONE', *, *, #189, .F. ) ;
#63 = CARTESIAN_POINT ( 'NONE',  ( 151.5250000000000057, 5.000000000000000000, 1.734723475976807883E-15 ) ) ;
#64 = VERTEX_POINT ( 'NONE', #41 ) ;
#65 =( NAMED_UNIT ( * ) PLANE_ANGLE_UNIT ( ) SI_UNIT ( $, .RADIAN. ) );
#66 = CARTESIAN_POINT ( 'NONE',  ( 150.0000000000000000, 5.000000000000000000, -0.2750000000000113465 ) ) ;
#67 = APPLICATION_CONTEXT ( 'automotive_design' ) ;
#68 = APPLICATION_PROTOCOL_DEFINITION ( 'draft international standard', 'automotive_design', 1998, #67 ) ;
#69 = FACE_BOUND ( 'NONE', #307, .T. ) ;
#70 = VECTOR ( 'NONE', #33, 1000.000000000000114 ) ;
#71 = EDGE_CURVE ( 'NONE', #287, #64, #90, .T. ) ;
#72 = ORIENTED_EDGE ( 'NONE', *, *, #286, .F. ) ;
#73 = ORIENTED_EDGE ( 'NONE', *, *, #126, .T. ) ;
#74 = CARTESIAN_POINT ( 'NONE',  ( 148.4749999999999943, 5.000000000000000000, 1.734723475976807883E-15 ) ) ;
#75 = CARTESIAN_POINT ( 'NONE',  ( -0.000000000000000000, 10.00000000000000000, 0.000000000000000000 ) ) ;
#76 = LINE ( 'NONE', #30, #120 ) ;
#77 = VERTEX_POINT ( 'NONE', #243 ) ;
#78 = DIRECTION ( 'NONE',  ( 1.000000000000000000, 0.000000000000000000, 0.000000000000000000 ) ) ;
#79 = ADVANCED_FACE ( 'NONE', ( #195 ), #51, .F. ) ;
#80 = DIRECTION ( 'NONE',  ( -0.000000000000000000, -0.000000000000000000, 1.000000000000000000 ) ) ;
#81 = VERTEX_POINT ( 'NONE', #191 ) ;
#82 = LINE ( 'NONE', #180, #4 ) ;
#83 = DIRECTION ( 'NONE',  ( 1.000000000000000000, 0.000000000000000000, 0.000000000000000000 ) ) ;
#84 =( GEOMETRIC_REPRESENTATION_CONTEXT ( 3 ) GLOBAL_UNCERTAINTY_ASSIGNED_CONTEXT ( ( #46 ) ) GLOBAL_UNIT_ASSIGNED_CONTEXT ( ( #225, #65, #208 ) ) REPRESENTATION_CONTEXT ( 'NONE', 'WORKASPACE' ) );
#85 = CARTESIAN_POINT ( 'NONE',  ( 0.000000000000000000, 10.00000000000000000, -200.0000000000000000 ) ) ;
#86 = EDGE_CURVE ( 'NONE', #165, #12, #129, .T. ) ;
#87 = DIRECTION ( 'NONE',  ( 0.7071067811865274777, 0.000000000000000000, 0.7071067811865675568 ) ) ;
#88 = ORIENTED_EDGE ( 'NONE', *, *, #126, .F. ) ;
#89 = ORIENTED_EDGE ( 'NONE', *, *, #22, .T. ) ;
#90 = CIRCLE ( 'NONE', #229, 1.250000000000001110 ) ;
#91 = ORIENTED_EDGE ( 'NONE', *, *, #189, .T. ) ;
#92 = AXIS2_PLACEMENT_3D ( 'NONE', #280, #275, #296 ) ;
#93 = VERTEX_POINT ( 'NONE', #75 ) ;
#94 = DIRECTION ( 'NONE',  ( -0.9428672530551416298, 0.3331686406555265934, 0.000000000000000000 ) ) ;
#95 = ORIENTED_EDGE ( 'NONE', *, *, #213, .T. ) ;
#96 = FACE_OUTER_BOUND ( 'NONE', #42, .T. ) ;
#97 = SURFACE_STYLE_USAGE ( .BOTH. , #267 ) ;
#98 = CARTESIAN_POINT ( 'NONE',  ( 28.29999999999999005, 0.000000000000000000, 0.000000000000000000 ) ) ;
#99 = EDGE_CURVE ( 'NONE', #107, #77, #263, .T. ) ;
#100 = ORIENTED_EDGE ( 'NONE', *, *, #253, .T. ) ;
#101 = CARTESIAN_POINT ( 'NONE',  ( 0.000000000000000000, 10.00000000000000000, -200.0000000000000000 ) ) ;
#102 = CARTESIAN_POINT ( 'NONE',  ( 151.2500000000000000, 5.000000000000000000, 0.000000000000000000 ) ) ;
#103 = DIRECTION ( 'NONE',  ( 1.000000000000000000, 0.000000000000000000, 0.000000000000000000 ) ) ;
#104 = ORIENTED_EDGE ( 'NONE', *, *, #86, .F. ) ;
#105 = CARTESIAN_POINT ( 'NONE',  ( 28.30000000000003624, 0.000000000000000000, 0.000000000000000000 ) ) ;
#106 = CONICAL_SURFACE ( 'NONE', #249, 1.524999999999998579, 0.7853981633974199683 ) ;
#107 = VERTEX_POINT ( 'NONE', #273 ) ;
#108 = EDGE_CURVE ( 'NONE', #137, #262, #308, .T. ) ;
#109 = CIRCLE ( 'NONE', #277, 1.524999999999998579 ) ;
#110 = VECTOR ( 'NONE', #87, 1000.000000000000000 ) ;
#111 = EDGE_LOOP ( 'NONE', ( #196, #119, #1, #36 ) ) ;
#112 = LINE ( 'NONE', #105, #179 ) ;
#113 = CYLINDRICAL_SURFACE ( 'NONE', #47, 1.250000000000001110 ) ;
#114 = ADVANCED_FACE ( 'NONE', ( #96 ), #311, .F. ) ;
#115 =( GEOMETRIC_REPRESENTATION_CONTEXT ( 3 ) GLOBAL_UNCERTAINTY_ASSIGNED_CONTEXT ( ( #199 ) ) GLOBAL_UNIT_ASSIGNED_CONTEXT ( ( #228, #252, #14 ) ) REPRESENTATION_CONTEXT ( 'NONE', 'WORKASPACE' ) );
#116 = VECTOR ( 'NONE', #259, 1000.000000000000000 ) ;
#117 = PRODUCT_CONTEXT ( 'NONE', #67, 'mechanical' ) ;
#118 = LINE ( 'NONE', #19, #148 ) ;
#119 = ORIENTED_EDGE ( 'NONE', *, *, #136, .T. ) ;
#120 = VECTOR ( 'NONE', #78, 1000.000000000000000 ) ;
#121 = CARTESIAN_POINT ( 'NONE',  ( 148.7500000000000000, 5.000000000000000000, 0.000000000000000000 ) ) ;
#122 = ORIENTED_EDGE ( 'NONE', *, *, #163, .F. ) ;
#123 = PLANE ( 'NONE',  #198 ) ;
#124 = DIRECTION ( 'NONE',  ( -0.000000000000000000, -0.000000000000000000, 1.000000000000000000 ) ) ;
#125 = DIRECTION ( 'NONE',  ( -0.7071067811865274777, 8.659560562354687572E-17, 0.7071067811865675568 ) ) ;
#126 = EDGE_CURVE ( 'NONE', #190, #12, #292, .T. ) ;
#127 = EDGE_LOOP ( 'NONE', ( #254, #255 ) ) ;
#128 = PRODUCT_DEFINITION_SHAPE ( 'NONE', 'NONE',  #231 ) ;
#129 = LINE ( 'NONE', #6, #160 ) ;
#130 = DIRECTION ( 'NONE',  ( 0.000000000000000000, 0.000000000000000000, -1.000000000000000000 ) ) ;
#131 = DIRECTION ( 'NONE',  ( -1.000000000000000000, 0.000000000000000000, -0.000000000000000000 ) ) ;
#132 = ORIENTED_EDGE ( 'NONE', *, *, #282, .T. ) ;
#133 = ORIENTED_EDGE ( 'NONE', *, *, #22, .F. ) ;
#134 = AXIS2_PLACEMENT_3D ( 'NONE', #281, #44, #37 ) ;
#135 = CARTESIAN_POINT ( 'NONE',  ( 0.000000000000000000, 0.000000000000000000, 0.000000000000000000 ) ) ;
#136 = EDGE_CURVE ( 'NONE', #64, #137, #145, .T. ) ;
#137 = VERTEX_POINT ( 'NONE', #248 ) ;
#138 = COLOUR_RGB ( '',0.7921568627450980005, 0.8196078431372548767, 0.9333333333333333481 ) ;
#139 = FACE_OUTER_BOUND ( 'NONE', #226, .T. ) ;
#140 = EDGE_CURVE ( 'NONE', #262, #137, #109, .T. ) ;
#141 = APPLICATION_PROTOCOL_DEFINITION ( 'draft international standard', 'automotive_design', 1998, #297 ) ;
#142 = CARTESIAN_POINT ( 'NONE',  ( 150.0000000000000000, 5.000000000000000000, -0.2750000000000113465 ) ) ;
#143 = VERTEX_POINT ( 'NONE', #101 ) ;
#144 = CLOSED_SHELL ( 'NONE', ( #269, #114, #310, #7, #222, #79, #182, #167, #58, #304 ) ) ;
#145 = LINE ( 'NONE', #74, #39 ) ;
#146 = DIRECTION ( 'NONE',  ( 1.000000000000000000, 0.000000000000000000, 0.000000000000000000 ) ) ;
#147 = CARTESIAN_POINT ( 'NONE',  ( 150.0000000000000000, 5.000000000000000000, -200.0000000000000000 ) ) ;
#148 = VECTOR ( 'NONE', #20, 1000.000000000000114 ) ;
#149 = CIRCLE ( 'NONE', #92, 1.250000000000001110 ) ;
#150 = CARTESIAN_POINT ( 'NONE',  ( 150.0000000000000000, 5.000000000000000000, 1.734723475976807883E-15 ) ) ;
#151 = LINE ( 'NONE', #194, #23 ) ;
#152 = EDGE_LOOP ( 'NONE', ( #220, #272, #73, #168 ) ) ;
#153 = FACE_OUTER_BOUND ( 'NONE', #237, .T. ) ;
#154 = ADVANCED_BREP_SHAPE_REPRESENTATION ( '\X2\8df78df7677f\X0\2', ( #202, #290 ), #115 ) ;
#155 = DIRECTION ( 'NONE',  ( -0.000000000000000000, -0.000000000000000000, 1.000000000000000000 ) ) ;
#156 = EDGE_LOOP ( 'NONE', ( #241, #192, #62, #133 ) ) ;
#157 = EDGE_CURVE ( 'NONE', #93, #17, #76, .T. ) ;
#158 = CARTESIAN_POINT ( 'NONE',  ( 150.0000000000000000, 5.000000000000000000, 1.734723475976807883E-15 ) ) ;
#159 = ORIENTED_EDGE ( 'NONE', *, *, #71, .F. ) ;
#160 = VECTOR ( 'NONE', #170, 1000.000000000000000 ) ;
#161 = DIRECTION ( 'NONE',  ( -0.000000000000000000, 0.000000000000000000, 1.000000000000000000 ) ) ;
#162 = AXIS2_PLACEMENT_3D ( 'NONE', #28, #48, #289 ) ;
#163 = EDGE_CURVE ( 'NONE', #165, #81, #151, .T. ) ;
#164 = DIRECTION ( 'NONE',  ( -0.000000000000000000, -0.000000000000000000, 1.000000000000000000 ) ) ;
#165 = VERTEX_POINT ( 'NONE', #219 ) ;
#166 = ORIENTED_EDGE ( 'NONE', *, *, #136, .F. ) ;
#167 = ADVANCED_FACE ( 'NONE', ( #171 ), #169, .F. ) ;
#168 = ORIENTED_EDGE ( 'NONE', *, *, #247, .T. ) ;
#169 = PLANE ( 'NONE',  #59 ) ;
#170 = DIRECTION ( 'NONE',  ( 0.000000000000000000, 0.000000000000000000, 1.000000000000000000 ) ) ;
#171 = FACE_OUTER_BOUND ( 'NONE', #156, .T. ) ;
#172 = DIRECTION ( 'NONE',  ( 0.9428672530551416298, 0.3331686406555265934, -0.000000000000000000 ) ) ;
#173 = AXIS2_PLACEMENT_3D ( 'NONE', #135, #305, #10 ) ;
#174 = DIRECTION ( 'NONE',  ( 0.000000000000000000, -1.000000000000000000, 0.000000000000000000 ) ) ;
#175 = PRODUCT ( '\X2\8df78df7677f\X0\2', '\X2\8df78df7677f\X0\2', '', ( #117 ) ) ;
#176 = PRESENTATION_STYLE_ASSIGNMENT (( #97 ) ) ;
#177 = FACE_BOUND ( 'NONE', #127, .T. ) ;
#178 = STYLED_ITEM ( 'NONE', ( #176 ), #202 ) ;
#179 = VECTOR ( 'NONE', #161, 1000.000000000000000 ) ;
#180 = CARTESIAN_POINT ( 'NONE',  ( 300.0000000000000000, 10.00000000000000000, 0.000000000000000000 ) ) ;
#181 = CARTESIAN_POINT ( 'NONE',  ( 150.0000000000000000, 5.000000000000000000, 0.000000000000000000 ) ) ;
#182 = ADVANCED_FACE ( 'NONE', ( #26 ), #123, .T. ) ;
#183 = CARTESIAN_POINT ( 'NONE',  ( 151.2500000000000000, 5.000000000000000000, -0.2750000000000113465 ) ) ;
#184 = ORIENTED_EDGE ( 'NONE', *, *, #247, .F. ) ;
#185 = FACE_OUTER_BOUND ( 'NONE', #260, .T. ) ;
#186 = VERTEX_POINT ( 'NONE', #193 ) ;
#187 = VECTOR ( 'NONE', #155, 1000.000000000000000 ) ;
#188 = ORIENTED_EDGE ( 'NONE', *, *, #52, .T. ) ;
#189 = EDGE_CURVE ( 'NONE', #143, #93, #291, .T. ) ;
#190 = VERTEX_POINT ( 'NONE', #98 ) ;
#191 = CARTESIAN_POINT ( 'NONE',  ( 300.0000000000000000, 10.00000000000000000, -200.0000000000000000 ) ) ;
#192 = ORIENTED_EDGE ( 'NONE', *, *, #43, .T. ) ;
#193 = CARTESIAN_POINT ( 'NONE',  ( 28.30000000000003624, 0.000000000000000000, -200.0000000000000000 ) ) ;
#194 = CARTESIAN_POINT ( 'NONE',  ( 33.30040293487542868, -84.24014030569759370, -200.0000000000000000 ) ) ;
#195 = FACE_OUTER_BOUND ( 'NONE', #251, .T. ) ;
#196 = ORIENTED_EDGE ( 'NONE', *, *, #16, .F. ) ;
#197 = DIRECTION ( 'NONE',  ( 1.000000000000000000, 0.000000000000000000, 0.000000000000000000 ) ) ;
#198 = AXIS2_PLACEMENT_3D ( 'NONE', #56, #216, #2 ) ;
#199 = UNCERTAINTY_MEASURE_WITH_UNIT (LENGTH_MEASURE( 1.000000000000000082E-05 ), #228, 'distance_accuracy_value', 'NONE');
#200 = LINE ( 'NONE', #102, #187 ) ;
#201 = FACE_OUTER_BOUND ( 'NONE', #152, .T. ) ;
#202 = MANIFOLD_SOLID_BREP ( 'M3 ÂÝÎÆ¿×2', #144 ) ;
#203 = ORIENTED_EDGE ( 'NONE', *, *, #157, .T. ) ;
#204 = PLANE ( 'NONE',  #173 ) ;
#205 = PRESENTATION_LAYER_ASSIGNMENT (  '', '', ( #178 ) ) ;
#206 = ORIENTED_EDGE ( 'NONE', *, *, #257, .T. ) ;
#207 = ORIENTED_EDGE ( 'NONE', *, *, #257, .F. ) ;
#208 =( NAMED_UNIT ( * ) SI_UNIT ( $, .STERADIAN. ) SOLID_ANGLE_UNIT ( ) );
#209 = LINE ( 'NONE', #85, #116 ) ;
#210 = AXIS2_PLACEMENT_3D ( 'NONE', #150, #5, #31 ) ;
#211 = DIRECTION ( 'NONE',  ( 0.000000000000000000, 0.000000000000000000, 1.000000000000000000 ) ) ;
#212 = ORIENTED_EDGE ( 'NONE', *, *, #163, .T. ) ;
#213 = EDGE_CURVE ( 'NONE', #165, #186, #8, .T. ) ;
#214 = LINE ( 'NONE', #24, #32 ) ;
#215 = DIRECTION ( 'NONE',  ( 0.000000000000000000, -0.000000000000000000, -1.000000000000000000 ) ) ;
#216 = DIRECTION ( 'NONE',  ( 0.3331686406555266489, -0.9428672530551417408, 0.000000000000000000 ) ) ;
#217 = PRODUCT_DEFINITION_FORMATION_WITH_SPECIFIED_SOURCE ( 'ä»', '', #175, .NOT_KNOWN. ) ;
#218 = SURFACE_STYLE_FILL_AREA ( #27 ) ;
#219 = CARTESIAN_POINT ( 'NONE',  ( 271.6999999999999886, 1.663682676641678944E-14, -200.0000000000000000 ) ) ;
#220 = ORIENTED_EDGE ( 'NONE', *, *, #157, .F. ) ;
#221 = CARTESIAN_POINT ( 'NONE',  ( 0.000000000000000000, 10.00000000000000000, 0.000000000000000000 ) ) ;
#222 = ADVANCED_FACE ( 'NONE', ( #185 ), #204, .T. ) ;
#223 = ORIENTED_EDGE ( 'NONE', *, *, #99, .F. ) ;
#224 = AXIS2_PLACEMENT_3D ( 'NONE', #61, #34, #131 ) ;
#225 =( LENGTH_UNIT ( ) NAMED_UNIT ( * ) SI_UNIT ( .MILLI., .METRE. ) );
#226 = EDGE_LOOP ( 'NONE', ( #244, #223, #206, #268 ) ) ;
#227 = CARTESIAN_POINT ( 'NONE',  ( 151.5250000000000057, 5.000000000000000000, 1.734723475976807883E-15 ) ) ;
#228 =( LENGTH_UNIT ( ) NAMED_UNIT ( * ) SI_UNIT ( .MILLI., .METRE. ) );
#229 = AXIS2_PLACEMENT_3D ( 'NONE', #142, #80, #146 ) ;
#230 = ORIENTED_EDGE ( 'NONE', *, *, #286, .T. ) ;
#231 = PRODUCT_DEFINITION ( 'æœ', '', #217, #238 ) ;
#232 = CARTESIAN_POINT ( 'NONE',  ( 0.000000000000000000, 0.000000000000000000, -200.0000000000000000 ) ) ;
#233 = DIRECTION ( 'NONE',  ( -0.000000000000000000, -0.000000000000000000, 1.000000000000000000 ) ) ;
#234 = CARTESIAN_POINT ( 'NONE',  ( 0.000000000000000000, 0.000000000000000000, 0.000000000000000000 ) ) ;
#235 = MECHANICAL_DESIGN_GEOMETRIC_PRESENTATION_REPRESENTATION (  '', ( #178 ), #84 ) ;
#236 = VECTOR ( 'NONE', #294, 1000.000000000000000 ) ;
#237 = EDGE_LOOP ( 'NONE', ( #166, #159, #100, #50 ) ) ;
#238 = PRODUCT_DEFINITION_CONTEXT ( 'detailed design', #297, 'design' ) ;
#239 = FACE_OUTER_BOUND ( 'NONE', #278, .T. ) ;
#240 = LINE ( 'NONE', #63, #110 ) ;
#241 = ORIENTED_EDGE ( 'NONE', *, *, #295, .T. ) ;
#242 = DIRECTION ( 'NONE',  ( 0.3331686406555266489, 0.9428672530551417408, 0.000000000000000000 ) ) ;
#243 = CARTESIAN_POINT ( 'NONE',  ( 148.7500000000000000, 5.000000000000000000, -200.0000000000000000 ) ) ;
#244 = ORIENTED_EDGE ( 'NONE', *, *, #29, .F. ) ;
#245 = CARTESIAN_POINT ( 'NONE',  ( 0.000000000000000000, 10.00000000000000000, 0.000000000000000000 ) ) ;
#246 = DIRECTION ( 'NONE',  ( 1.000000000000000000, 0.000000000000000000, 0.000000000000000000 ) ) ;
#247 = EDGE_CURVE ( 'NONE', #12, #17, #250, .T. ) ;
#248 = CARTESIAN_POINT ( 'NONE',  ( 148.4749999999999943, 5.000000000000000000, 1.734723475976807883E-15 ) ) ;
#249 = AXIS2_PLACEMENT_3D ( 'NONE', #298, #11, #103 ) ;
#250 = LINE ( 'NONE', #283, #70 ) ;
#251 = EDGE_LOOP ( 'NONE', ( #91, #203, #230, #188 ) ) ;
#252 =( NAMED_UNIT ( * ) PLANE_ANGLE_UNIT ( ) SI_UNIT ( $, .RADIAN. ) );
#253 = EDGE_CURVE ( 'NONE', #287, #262, #240, .T. ) ;
#254 = ORIENTED_EDGE ( 'NONE', *, *, #140, .F. ) ;
#255 = ORIENTED_EDGE ( 'NONE', *, *, #108, .F. ) ;
#256 = DIRECTION ( 'NONE',  ( -0.000000000000000000, -0.000000000000000000, 1.000000000000000000 ) ) ;
#257 = EDGE_CURVE ( 'NONE', #107, #287, #200, .T. ) ;
#258 = VECTOR ( 'NONE', #302, 1000.000000000000000 ) ;
#259 = DIRECTION ( 'NONE',  ( -1.000000000000000000, -0.000000000000000000, -0.000000000000000000 ) ) ;
#260 = EDGE_LOOP ( 'NONE', ( #13, #53, #288, #88 ) ) ;
#261 = DIRECTION ( 'NONE',  ( 1.000000000000000000, 0.000000000000000000, 0.000000000000000000 ) ) ;
#262 = VERTEX_POINT ( 'NONE', #227 ) ;
#263 = CIRCLE ( 'NONE', #60, 1.250000000000001110 ) ;
#264 = DIRECTION ( 'NONE',  ( -0.000000000000000000, -0.000000000000000000, 1.000000000000000000 ) ) ;
#265 = CARTESIAN_POINT ( 'NONE',  ( 3.141338010189919761, 8.889986568837484171, -500.0000000000000000 ) ) ;
#266 = EDGE_LOOP ( 'NONE', ( #212, #72, #184, #104 ) ) ;
#267 = SURFACE_SIDE_STYLE ('',( #218 ) ) ;
#268 = ORIENTED_EDGE ( 'NONE', *, *, #71, .T. ) ;
#269 = ADVANCED_FACE ( 'NONE', ( #18 ), #15, .F. ) ;
#270 = AXIS2_PLACEMENT_3D ( 'NONE', #245, #174, #215 ) ;
#271 = DIRECTION ( 'NONE',  ( -0.000000000000000000, -0.000000000000000000, 1.000000000000000000 ) ) ;
#272 = ORIENTED_EDGE ( 'NONE', *, *, #43, .F. ) ;
#273 = CARTESIAN_POINT ( 'NONE',  ( 151.2500000000000000, 5.000000000000000000, -200.0000000000000000 ) ) ;
#274 = ORIENTED_EDGE ( 'NONE', *, *, #52, .F. ) ;
#275 = DIRECTION ( 'NONE',  ( -0.000000000000000000, -0.000000000000000000, 1.000000000000000000 ) ) ;
#276 = PLANE ( 'NONE',  #224 ) ;
#277 = AXIS2_PLACEMENT_3D ( 'NONE', #293, #124, #246 ) ;
#278 = EDGE_LOOP ( 'NONE', ( #95, #89, #274, #122 ) ) ;
#279 = DIRECTION ( 'NONE',  ( 1.000000000000000000, 0.000000000000000000, 0.000000000000000000 ) ) ;
#280 = CARTESIAN_POINT ( 'NONE',  ( 150.0000000000000000, 5.000000000000000000, -200.0000000000000000 ) ) ;
#281 = CARTESIAN_POINT ( 'NONE',  ( 0.000000000000000000, 10.00000000000000000, -200.0000000000000000 ) ) ;
#282 = EDGE_CURVE ( 'NONE', #77, #107, #149, .T. ) ;
#283 = CARTESIAN_POINT ( 'NONE',  ( 271.6999999999999886, 1.663682676641678944E-14, 0.000000000000000000 ) ) ;
#284 = SHAPE_DEFINITION_REPRESENTATION ( #128, #154 ) ;
#285 = PLANE ( 'NONE',  #134 ) ;
#286 = EDGE_CURVE ( 'NONE', #17, #81, #82, .T. ) ;
#287 = VERTEX_POINT ( 'NONE', #183 ) ;
#288 = ORIENTED_EDGE ( 'NONE', *, *, #86, .T. ) ;
#289 = DIRECTION ( 'NONE',  ( 1.000000000000000000, 0.000000000000000000, 0.000000000000000000 ) ) ;
#290 = AXIS2_PLACEMENT_3D ( 'NONE', #234, #211, #40 ) ;
#291 = LINE ( 'NONE', #221, #3 ) ;
#292 = LINE ( 'NONE', #57, #236 ) ;
#293 = CARTESIAN_POINT ( 'NONE',  ( 150.0000000000000000, 5.000000000000000000, 1.734723475976807883E-15 ) ) ;
#294 = DIRECTION ( 'NONE',  ( 1.000000000000000000, 0.000000000000000000, 0.000000000000000000 ) ) ;
#295 = EDGE_CURVE ( 'NONE', #186, #190, #112, .T. ) ;
#296 = DIRECTION ( 'NONE',  ( 1.000000000000000000, 0.000000000000000000, 0.000000000000000000 ) ) ;
#297 = APPLICATION_CONTEXT ( 'automotive_design' ) ;
#298 = CARTESIAN_POINT ( 'NONE',  ( 150.0000000000000000, 5.000000000000000000, 1.734723475976807883E-15 ) ) ;
#299 = ORIENTED_EDGE ( 'NONE', *, *, #282, .F. ) ;
#300 = AXIS2_PLACEMENT_3D ( 'NONE', #66, #164, #279 ) ;
#301 = CARTESIAN_POINT ( 'NONE',  ( 300.0000000000000000, 10.00000000000000000, 0.000000000000000000 ) ) ;
#302 = DIRECTION ( 'NONE',  ( -1.000000000000000000, -0.000000000000000000, -0.000000000000000000 ) ) ;
#303 = ORIENTED_EDGE ( 'NONE', *, *, #99, .T. ) ;
#304 = ADVANCED_FACE ( 'NONE', ( #153 ), #106, .F. ) ;
#305 = DIRECTION ( 'NONE',  ( 0.000000000000000000, -1.000000000000000000, 0.000000000000000000 ) ) ;
#306 = DIRECTION ( 'NONE',  ( -0.000000000000000000, -0.000000000000000000, 1.000000000000000000 ) ) ;
#307 = EDGE_LOOP ( 'NONE', ( #303, #132 ) ) ;
#308 = CIRCLE ( 'NONE', #210, 1.524999999999998579 ) ;
#309 = DIRECTION ( 'NONE',  ( -0.9428672530551416298, 0.3331686406555265934, 0.000000000000000000 ) ) ;
#310 = ADVANCED_FACE ( 'NONE', ( #177, #201 ), #276, .F. ) ;
#311 = CYLINDRICAL_SURFACE ( 'NONE', #162, 1.250000000000001110 ) ;
ENDSEC;
END-ISO-10303-21;
