ISO-10303-21;
HEADER;
FILE_DESCRIPTION (( 'STEP AP214' ),
    '1' );
FILE_NAME ('õÎõÎ°å.STEP',
    '2026-04-13T11:47:46',
    ( '' ),
    ( '' ),
    'SwSTEP 2.0',
    'SolidWorks 2024',
    '' );
FILE_SCHEMA (( 'AUTOMOTIVE_DESIGN' ));
ENDSEC;

DATA;
#1 = AXIS2_PLACEMENT_3D ( 'NONE', #270, #110, #192 ) ;
#2 = ORIENTED_EDGE ( 'NONE', *, *, #244, .T. ) ;
#3 = EDGE_CURVE ( 'NONE', #341, #160, #48, .T. ) ;
#4 = FACE_BOUND ( 'NONE', #129, .T. ) ;
#5 = DIRECTION ( 'NONE',  ( -0.000000000000000000, 1.000000000000000000, -0.000000000000000000 ) ) ;
#6 = DIRECTION ( 'NONE',  ( 0.4863228156303481819, 0.000000000000000000, 0.8737792163912863064 ) ) ;
#7 = EDGE_LOOP ( 'NONE', ( #31, #2, #207, #29 ) ) ;
#8 = CARTESIAN_POINT ( 'NONE',  ( 0.000000000000000000, 5.000000000000000000, -50.00000000000000000 ) ) ;
#9 = PLANE ( 'NONE',  #27 ) ;
#10 = DIRECTION ( 'NONE',  ( 0.000000000000000000, 1.000000000000000000, 0.000000000000000000 ) ) ;
#11 = DIRECTION ( 'NONE',  ( 0.000000000000000000, 1.000000000000000000, 0.000000000000000000 ) ) ;
#12 = LINE ( 'NONE', #123, #307 ) ;
#13 = AXIS2_PLACEMENT_3D ( 'NONE', #177, #11, #336 ) ;
#14 = CARTESIAN_POINT ( 'NONE',  ( -14.51088837489718841, 5.000000000000000000, -63.76350676867177469 ) ) ;
#15 = CARTESIAN_POINT ( 'NONE',  ( 0.000000000000000000, 5.000000000000000000, -48.74999999999999289 ) ) ;
#16 = VECTOR ( 'NONE', #93, 1000.000000000000000 ) ;
#17 = ORIENTED_EDGE ( 'NONE', *, *, #162, .T. ) ;
#18 =( NAMED_UNIT ( * ) SI_UNIT ( $, .STERADIAN. ) SOLID_ANGLE_UNIT ( ) );
#19 = ADVANCED_FACE ( 'NONE', ( #65, #39 ), #72, .F. ) ;
#20 = MECHANICAL_DESIGN_GEOMETRIC_PRESENTATION_REPRESENTATION (  '', ( #219 ), #261 ) ;
#21 = PLANE ( 'NONE',  #294 ) ;
#22 = ORIENTED_EDGE ( 'NONE', *, *, #324, .F. ) ;
#23 = DIRECTION ( 'NONE',  ( 0.000000000000000000, 0.000000000000000000, -1.000000000000000000 ) ) ;
#24 = EDGE_CURVE ( 'NONE', #313, #52, #173, .T. ) ;
#25 = ORIENTED_EDGE ( 'NONE', *, *, #244, .F. ) ;
#26 = DIRECTION ( 'NONE',  ( 0.000000000000000000, 0.000000000000000000, 1.000000000000000000 ) ) ;
#27 = AXIS2_PLACEMENT_3D ( 'NONE', #14, #63, #280 ) ;
#28 = DIRECTION ( 'NONE',  ( -0.4863228156303481819, 0.000000000000000000, 0.8737792163912863064 ) ) ;
#29 = ORIENTED_EDGE ( 'NONE', *, *, #321, .F. ) ;
#30 = DIRECTION ( 'NONE',  ( -0.000000000000000000, 1.000000000000000000, -0.000000000000000000 ) ) ;
#31 = ORIENTED_EDGE ( 'NONE', *, *, #89, .F. ) ;
#32 = CARTESIAN_POINT ( 'NONE',  ( 0.000000000000000000, 5.000000000000001776, -48.47499999999999432 ) ) ;
#33 = VECTOR ( 'NONE', #28, 1000.000000000000114 ) ;
#34 = CARTESIAN_POINT ( 'NONE',  ( 0.000000000000000000, 5.000000000000000000, -50.00000000000000000 ) ) ;
#35 = CARTESIAN_POINT ( 'NONE',  ( 14.51088837489718841, 5.000000000000000000, -63.76350676867177469 ) ) ;
#36 = ADVANCED_FACE ( 'NONE', ( #205 ), #60, .F. ) ;
#37 =( NAMED_UNIT ( * ) PLANE_ANGLE_UNIT ( ) SI_UNIT ( $, .RADIAN. ) );
#38 = DIRECTION ( 'NONE',  ( 0.000000000000000000, 0.000000000000000000, 1.000000000000000000 ) ) ;
#39 = FACE_OUTER_BOUND ( 'NONE', #246, .T. ) ;
#40 = APPLICATION_PROTOCOL_DEFINITION ( 'draft international standard', 'automotive_design', 1998, #227 ) ;
#41 = DIRECTION ( 'NONE',  ( -0.000000000000000000, -1.000000000000000000, -0.000000000000000000 ) ) ;
#42 = AXIS2_PLACEMENT_3D ( 'NONE', #66, #202, #67 ) ;
#43 = EDGE_LOOP ( 'NONE', ( #105, #111, #191, #79 ) ) ;
#44 = LINE ( 'NONE', #264, #211 ) ;
#45 = LINE ( 'NONE', #310, #102 ) ;
#46 = DIRECTION ( 'NONE',  ( -0.4863228156303481819, 0.000000000000000000, -0.8737792163912863064 ) ) ;
#47 = VECTOR ( 'NONE', #240, 1000.000000000000000 ) ;
#48 = CIRCLE ( 'NONE', #327, 1.250000000000001110 ) ;
#49 = EDGE_CURVE ( 'NONE', #55, #84, #44, .T. ) ;
#50 = ORIENTED_EDGE ( 'NONE', *, *, #236, .T. ) ;
#51 = LINE ( 'NONE', #185, #302 ) ;
#52 = VERTEX_POINT ( 'NONE', #210 ) ;
#53 = DIRECTION ( 'NONE',  ( 0.000000000000000000, 0.000000000000000000, 1.000000000000000000 ) ) ;
#54 = DIRECTION ( 'NONE',  ( 0.000000000000000000, 1.000000000000000000, 0.000000000000000000 ) ) ;
#55 = VERTEX_POINT ( 'NONE', #290 ) ;
#56 = EDGE_CURVE ( 'NONE', #330, #259, #51, .T. ) ;
#57 = DIRECTION ( 'NONE',  ( 0.000000000000000000, 0.000000000000000000, 1.000000000000000000 ) ) ;
#58 = DIRECTION ( 'NONE',  ( 0.000000000000000000, -0.000000000000000000, 1.000000000000000000 ) ) ;
#59 = AXIS2_PLACEMENT_3D ( 'NONE', #116, #140, #221 ) ;
#60 = CONICAL_SURFACE ( 'NONE', #108, 1.524999999999998579, 0.7853981633974471688 ) ;
#61 = CARTESIAN_POINT ( 'NONE',  ( 1.867586368699714066E-16, 5.000000000000001776, -51.52499999999999147 ) ) ;
#62 = FACE_OUTER_BOUND ( 'NONE', #126, .T. ) ;
#63 = DIRECTION ( 'NONE',  ( 0.8737792163912864174, -0.000000000000000000, 0.4863228156303482375 ) ) ;
#64 = MANIFOLD_SOLID_BREP ( 'M3 ÂÝÎÆ¿×1', #273 ) ;
#65 = FACE_BOUND ( 'NONE', #237, .T. ) ;
#66 = CARTESIAN_POINT ( 'NONE',  ( 0.000000000000000000, 5.000000000000001776, -49.99999999999999289 ) ) ;
#67 = DIRECTION ( 'NONE',  ( 0.000000000000000000, 0.000000000000000000, 1.000000000000000000 ) ) ;
#68 = LINE ( 'NONE', #255, #258 ) ;
#69 = ORIENTED_EDGE ( 'NONE', *, *, #303, .T. ) ;
#70 = UNCERTAINTY_MEASURE_WITH_UNIT (LENGTH_MEASURE( 1.000000000000000082E-05 ), #78, 'distance_accuracy_value', 'NONE');
#71 = ORIENTED_EDGE ( 'NONE', *, *, #166, .F. ) ;
#72 = PLANE ( 'NONE',  #97 ) ;
#73 = ORIENTED_EDGE ( 'NONE', *, *, #3, .T. ) ;
#74 = DIRECTION ( 'NONE',  ( -0.000000000000000000, 1.000000000000000000, -0.000000000000000000 ) ) ;
#75 = ORIENTED_EDGE ( 'NONE', *, *, #150, .T. ) ;
#76 = CARTESIAN_POINT ( 'NONE',  ( 0.000000000000000000, 0.000000000000000000, -50.00000000000000000 ) ) ;
#77 = VECTOR ( 'NONE', #144, 1000.000000000000000 ) ;
#78 =( LENGTH_UNIT ( ) NAMED_UNIT ( * ) SI_UNIT ( .MILLI., .METRE. ) );
#79 = ORIENTED_EDGE ( 'NONE', *, *, #305, .F. ) ;
#80 = CARTESIAN_POINT ( 'NONE',  ( 0.000000000000000000, 0.000000000000000000, -70.00000000000000000 ) ) ;
#81 = EDGE_LOOP ( 'NONE', ( #109, #22, #69, #243 ) ) ;
#82 = FACE_OUTER_BOUND ( 'NONE', #113, .T. ) ;
#83 = ADVANCED_FACE ( 'NONE', ( #317 ), #266, .T. ) ;
#84 = VERTEX_POINT ( 'NONE', #238 ) ;
#85 =( GEOMETRIC_REPRESENTATION_CONTEXT ( 3 ) GLOBAL_UNCERTAINTY_ASSIGNED_CONTEXT ( ( #99 ) ) GLOBAL_UNIT_ASSIGNED_CONTEXT ( ( #120, #37, #95 ) ) REPRESENTATION_CONTEXT ( 'NONE', 'WORKASPACE' ) );
#86 = LINE ( 'NONE', #90, #277 ) ;
#87 = ORIENTED_EDGE ( 'NONE', *, *, #256, .T. ) ;
#88 = DIRECTION ( 'NONE',  ( -0.000000000000000000, 1.000000000000000000, -0.000000000000000000 ) ) ;
#89 = EDGE_CURVE ( 'NONE', #160, #341, #250, .T. ) ;
#90 = CARTESIAN_POINT ( 'NONE',  ( -14.51088837489718841, 5.000000000000000000, -63.76350676867177469 ) ) ;
#91 = AXIS2_PLACEMENT_3D ( 'NONE', #134, #30, #328 ) ;
#92 = CARTESIAN_POINT ( 'NONE',  ( 1.867586368699714066E-16, 5.000000000000001776, -51.52499999999999147 ) ) ;
#93 = DIRECTION ( 'NONE',  ( 8.659560562354922997E-17, 0.7071067811865483499, -0.7071067811865466846 ) ) ;
#94 = EDGE_CURVE ( 'NONE', #186, #55, #45, .T. ) ;
#95 =( NAMED_UNIT ( * ) SI_UNIT ( $, .STERADIAN. ) SOLID_ANGLE_UNIT ( ) );
#96 = CARTESIAN_POINT ( 'NONE',  ( -14.51088837489718841, 0.000000000000000000, -63.76350676867177469 ) ) ;
#97 = AXIS2_PLACEMENT_3D ( 'NONE', #76, #127, #133 ) ;
#98 = ADVANCED_FACE ( 'NONE', ( #103 ), #21, .T. ) ;
#99 = UNCERTAINTY_MEASURE_WITH_UNIT (LENGTH_MEASURE( 1.000000000000000082E-05 ), #120, 'distance_accuracy_value', 'NONE');
#100 = LINE ( 'NONE', #278, #190 ) ;
#101 = CARTESIAN_POINT ( 'NONE',  ( 0.000000000000000000, 5.000000000000000000, -50.00000000000000000 ) ) ;
#102 = VECTOR ( 'NONE', #342, 1000.000000000000000 ) ;
#103 = FACE_OUTER_BOUND ( 'NONE', #296, .T. ) ;
#104 = EDGE_CURVE ( 'NONE', #158, #186, #155, .T. ) ;
#105 = ORIENTED_EDGE ( 'NONE', *, *, #24, .F. ) ;
#106 = CARTESIAN_POINT ( 'NONE',  ( 0.000000000000000000, 5.000000000000000000, 0.000000000000000000 ) ) ;
#107 = PRODUCT_DEFINITION_FORMATION_WITH_SPECIFIED_SOURCE ( 'ä»', '', #220, .NOT_KNOWN. ) ;
#108 = AXIS2_PLACEMENT_3D ( 'NONE', #182, #288, #184 ) ;
#109 = ORIENTED_EDGE ( 'NONE', *, *, #216, .F. ) ;
#110 = DIRECTION ( 'NONE',  ( -0.000000000000000000, 1.000000000000000000, -0.000000000000000000 ) ) ;
#111 = ORIENTED_EDGE ( 'NONE', *, *, #282, .T. ) ;
#112 = LINE ( 'NONE', #325, #169 ) ;
#113 = EDGE_LOOP ( 'NONE', ( #298, #239, #125, #148 ) ) ;
#114 = LINE ( 'NONE', #300, #33 ) ;
#115 = AXIS2_PLACEMENT_3D ( 'NONE', #197, #231, #309 ) ;
#116 = CARTESIAN_POINT ( 'NONE',  ( 0.000000000000000000, 5.000000000000000000, -50.00000000000000000 ) ) ;
#117 = CARTESIAN_POINT ( 'NONE',  ( 50.00000000000000000, 5.000000000000000000, 0.000000000000000000 ) ) ;
#118 = PLANE ( 'NONE',  #115 ) ;
#119 = CIRCLE ( 'NONE', #42, 1.524999999999998579 ) ;
#120 =( LENGTH_UNIT ( ) NAMED_UNIT ( * ) SI_UNIT ( .MILLI., .METRE. ) );
#121 = ADVANCED_FACE ( 'NONE', ( #189 ), #332, .F. ) ;
#122 = CYLINDRICAL_SURFACE ( 'NONE', #248, 1.250000000000001110 ) ;
#123 = CARTESIAN_POINT ( 'NONE',  ( 0.000000000000000000, 5.000000000000001776, -48.47499999999999432 ) ) ;
#124 = ADVANCED_FACE ( 'NONE', ( #215 ), #331, .T. ) ;
#125 = ORIENTED_EDGE ( 'NONE', *, *, #153, .F. ) ;
#126 = EDGE_LOOP ( 'NONE', ( #25, #346, #163, #75 ) ) ;
#127 = DIRECTION ( 'NONE',  ( 0.000000000000000000, 1.000000000000000000, 0.000000000000000000 ) ) ;
#128 = AXIS2_PLACEMENT_3D ( 'NONE', #171, #38, #143 ) ;
#129 = EDGE_LOOP ( 'NONE', ( #165, #289 ) ) ;
#130 = ADVANCED_BREP_SHAPE_REPRESENTATION ( '\X2\8df78df7677f\X0\', ( #64, #128 ), #85 ) ;
#131 = VERTEX_POINT ( 'NONE', #136 ) ;
#132 = EDGE_LOOP ( 'NONE', ( #181, #320, #179, #212 ) ) ;
#133 = DIRECTION ( 'NONE',  ( 0.000000000000000000, -0.000000000000000000, 1.000000000000000000 ) ) ;
#134 = CARTESIAN_POINT ( 'NONE',  ( 0.000000000000000000, 5.000000000000001776, -49.99999999999999289 ) ) ;
#135 = CARTESIAN_POINT ( 'NONE',  ( 0.000000000000000000, 0.000000000000000000, -49.99999999999999289 ) ) ;
#136 = CARTESIAN_POINT ( 'NONE',  ( 0.000000000000000000, 5.000000000000000000, -70.00000000000000000 ) ) ;
#137 = ORIENTED_EDGE ( 'NONE', *, *, #339, .F. ) ;
#138 = FACE_OUTER_BOUND ( 'NONE', #43, .T. ) ;
#139 = AXIS2_PLACEMENT_3D ( 'NONE', #180, #74, #284 ) ;
#140 = DIRECTION ( 'NONE',  ( -0.000000000000000000, -1.000000000000000000, -0.000000000000000000 ) ) ;
#141 = CIRCLE ( 'NONE', #91, 1.524999999999998579 ) ;
#142 = AXIS2_PLACEMENT_3D ( 'NONE', #34, #223, #57 ) ;
#143 = DIRECTION ( 'NONE',  ( 1.000000000000000000, 0.000000000000000000, 0.000000000000000000 ) ) ;
#144 = DIRECTION ( 'NONE',  ( -0.000000000000000000, 1.000000000000000000, -0.000000000000000000 ) ) ;
#145 = EDGE_CURVE ( 'NONE', #146, #241, #141, .T. ) ;
#146 = VERTEX_POINT ( 'NONE', #61 ) ;
#147 = AXIS2_PLACEMENT_3D ( 'NONE', #348, #234, #26 ) ;
#148 = ORIENTED_EDGE ( 'NONE', *, *, #56, .T. ) ;
#149 = DIRECTION ( 'NONE',  ( 1.000000000000000000, 0.000000000000000000, 0.000000000000000000 ) ) ;
#150 = EDGE_CURVE ( 'NONE', #52, #313, #232, .T. ) ;
#151 = VERTEX_POINT ( 'NONE', #80 ) ;
#152 = SURFACE_SIDE_STYLE ('',( #285 ) ) ;
#153 = EDGE_CURVE ( 'NONE', #330, #186, #86, .T. ) ;
#154 = AXIS2_PLACEMENT_3D ( 'NONE', #164, #10, #170 ) ;
#155 = LINE ( 'NONE', #106, #199 ) ;
#156 = ORIENTED_EDGE ( 'NONE', *, *, #236, .F. ) ;
#157 = PRESENTATION_STYLE_ASSIGNMENT (( #159 ) ) ;
#158 = VERTEX_POINT ( 'NONE', #117 ) ;
#159 = SURFACE_STYLE_USAGE ( .BOTH. , #152 ) ;
#160 = VERTEX_POINT ( 'NONE', #242 ) ;
#161 = DIRECTION ( 'NONE',  ( -0.000000000000000000, 1.000000000000000000, -0.000000000000000000 ) ) ;
#162 = EDGE_CURVE ( 'NONE', #158, #84, #167, .T. ) ;
#163 = ORIENTED_EDGE ( 'NONE', *, *, #321, .T. ) ;
#164 = CARTESIAN_POINT ( 'NONE',  ( 0.000000000000000000, 0.000000000000000000, -50.00000000000000000 ) ) ;
#165 = ORIENTED_EDGE ( 'NONE', *, *, #256, .F. ) ;
#166 = EDGE_CURVE ( 'NONE', #203, #151, #257, .T. ) ;
#167 = LINE ( 'NONE', #187, #47 ) ;
#168 = CARTESIAN_POINT ( 'NONE',  ( 14.51088837489718841, 0.000000000000000000, -63.76350676867177469 ) ) ;
#169 = VECTOR ( 'NONE', #247, 1000.000000000000000 ) ;
#170 = DIRECTION ( 'NONE',  ( 0.000000000000000000, 0.000000000000000000, 1.000000000000000000 ) ) ;
#171 = CARTESIAN_POINT ( 'NONE',  ( 0.000000000000000000, 0.000000000000000000, 0.000000000000000000 ) ) ;
#172 = CIRCLE ( 'NONE', #142, 20.00000000000000000 ) ;
#173 = CIRCLE ( 'NONE', #139, 1.250000000000001110 ) ;
#174 = CARTESIAN_POINT ( 'NONE',  ( 0.000000000000000000, 5.000000000000000000, -49.99999999999999289 ) ) ;
#175 = ADVANCED_FACE ( 'NONE', ( #4, #195 ), #249, .T. ) ;
#176 = LINE ( 'NONE', #15, #77 ) ;
#177 = CARTESIAN_POINT ( 'NONE',  ( 0.000000000000000000, 5.000000000000000000, -50.00000000000000000 ) ) ;
#178 = DIRECTION ( 'NONE',  ( 0.000000000000000000, 0.000000000000000000, 1.000000000000000000 ) ) ;
#179 = ORIENTED_EDGE ( 'NONE', *, *, #224, .T. ) ;
#180 = CARTESIAN_POINT ( 'NONE',  ( 0.000000000000000000, 4.725000000000000533, -49.99999999999999289 ) ) ;
#181 = ORIENTED_EDGE ( 'NONE', *, *, #233, .F. ) ;
#182 = CARTESIAN_POINT ( 'NONE',  ( 0.000000000000000000, 5.000000000000001776, -49.99999999999999289 ) ) ;
#183 = ORIENTED_EDGE ( 'NONE', *, *, #224, .F. ) ;
#184 = DIRECTION ( 'NONE',  ( 0.000000000000000000, 0.000000000000000000, 1.000000000000000000 ) ) ;
#185 = CARTESIAN_POINT ( 'NONE',  ( -14.51088837489718841, 5.000000000000000000, -63.76350676867177469 ) ) ;
#186 = VERTEX_POINT ( 'NONE', #292 ) ;
#187 = CARTESIAN_POINT ( 'NONE',  ( 50.00000000000000000, 5.000000000000000000, 0.000000000000000000 ) ) ;
#188 = EDGE_LOOP ( 'NONE', ( #318, #347, #235, #87 ) ) ;
#189 = FACE_OUTER_BOUND ( 'NONE', #7, .T. ) ;
#190 = VECTOR ( 'NONE', #281, 1000.000000000000114 ) ;
#191 = ORIENTED_EDGE ( 'NONE', *, *, #145, .T. ) ;
#192 = DIRECTION ( 'NONE',  ( 0.000000000000000000, 0.000000000000000000, 1.000000000000000000 ) ) ;
#193 = ORIENTED_EDGE ( 'NONE', *, *, #153, .T. ) ;
#194 = DIRECTION ( 'NONE',  ( -0.4863228156303481819, 0.000000000000000000, 0.8737792163912863064 ) ) ;
#195 = FACE_OUTER_BOUND ( 'NONE', #265, .T. ) ;
#196 = AXIS2_PLACEMENT_3D ( 'NONE', #8, #295, #58 ) ;
#197 = CARTESIAN_POINT ( 'NONE',  ( 0.000000000000000000, 5.000000000000000000, 0.000000000000000000 ) ) ;
#198 = FACE_OUTER_BOUND ( 'NONE', #283, .T. ) ;
#199 = VECTOR ( 'NONE', #218, 1000.000000000000000 ) ;
#200 = PRESENTATION_LAYER_ASSIGNMENT (  '', '', ( #219 ) ) ;
#201 = DIRECTION ( 'NONE',  ( -0.000000000000000000, 1.000000000000000000, -0.000000000000000000 ) ) ;
#202 = DIRECTION ( 'NONE',  ( -0.000000000000000000, 1.000000000000000000, -0.000000000000000000 ) ) ;
#203 = VERTEX_POINT ( 'NONE', #168 ) ;
#204 = ADVANCED_FACE ( 'NONE', ( #138 ), #251, .F. ) ;
#205 = FACE_OUTER_BOUND ( 'NONE', #188, .T. ) ;
#206 = CARTESIAN_POINT ( 'NONE',  ( 14.51088837489718841, 5.000000000000000000, -63.76350676867177469 ) ) ;
#207 = ORIENTED_EDGE ( 'NONE', *, *, #24, .T. ) ;
#208 = FILL_AREA_STYLE_COLOUR ( '', #308 ) ;
#209 = ORIENTED_EDGE ( 'NONE', *, *, #324, .T. ) ;
#210 = CARTESIAN_POINT ( 'NONE',  ( 0.000000000000000000, 4.725000000000000533, -48.74999999999999289 ) ) ;
#211 = VECTOR ( 'NONE', #149, 1000.000000000000000 ) ;
#212 = ORIENTED_EDGE ( 'NONE', *, *, #56, .F. ) ;
#213 = CARTESIAN_POINT ( 'NONE',  ( 0.000000000000000000, 4.725000000000000533, -49.99999999999999289 ) ) ;
#214 = ORIENTED_EDGE ( 'NONE', *, *, #233, .T. ) ;
#215 = FACE_OUTER_BOUND ( 'NONE', #81, .T. ) ;
#216 = EDGE_CURVE ( 'NONE', #131, #151, #272, .T. ) ;
#217 = ORIENTED_EDGE ( 'NONE', *, *, #162, .F. ) ;
#218 = DIRECTION ( 'NONE',  ( -1.000000000000000000, 0.000000000000000000, 1.224646799147353207E-16 ) ) ;
#219 = STYLED_ITEM ( 'NONE', ( #157 ), #64 ) ;
#220 = PRODUCT ( '\X2\8df78df7677f\X0\', '\X2\8df78df7677f\X0\', '', ( #253 ) ) ;
#221 = DIRECTION ( 'NONE',  ( 0.000000000000000000, 0.000000000000000000, -1.000000000000000000 ) ) ;
#222 = EDGE_CURVE ( 'NONE', #259, #55, #114, .T. ) ;
#223 = DIRECTION ( 'NONE',  ( 0.000000000000000000, 1.000000000000000000, 0.000000000000000000 ) ) ;
#224 = EDGE_CURVE ( 'NONE', #151, #259, #230, .T. ) ;
#225 = APPLICATION_CONTEXT ( 'automotive_design' ) ;
#226 = CARTESIAN_POINT ( 'NONE',  ( -14.51088837489718841, 5.000000000000000000, -63.76350676867177469 ) ) ;
#227 = APPLICATION_CONTEXT ( 'automotive_design' ) ;
#228 = CARTESIAN_POINT ( 'NONE',  ( 1.530808498934188859E-16, 4.725000000000000533, -51.25000000000000000 ) ) ;
#229 = AXIS2_PLACEMENT_3D ( 'NONE', #101, #314, #23 ) ;
#230 = CIRCLE ( 'NONE', #154, 20.00000000000000000 ) ;
#231 = DIRECTION ( 'NONE',  ( 0.000000000000000000, 0.000000000000000000, -1.000000000000000000 ) ) ;
#232 = CIRCLE ( 'NONE', #343, 1.250000000000001110 ) ;
#233 = EDGE_CURVE ( 'NONE', #131, #330, #172, .T. ) ;
#234 = DIRECTION ( 'NONE',  ( -0.000000000000000000, 1.000000000000000000, -0.000000000000000000 ) ) ;
#235 = ORIENTED_EDGE ( 'NONE', *, *, #305, .T. ) ;
#236 = EDGE_CURVE ( 'NONE', #326, #158, #274, .T. ) ;
#237 = EDGE_LOOP ( 'NONE', ( #73, #293 ) ) ;
#238 = CARTESIAN_POINT ( 'NONE',  ( 50.00000000000000000, 0.000000000000000000, 0.000000000000000000 ) ) ;
#239 = ORIENTED_EDGE ( 'NONE', *, *, #94, .F. ) ;
#240 = DIRECTION ( 'NONE',  ( -0.000000000000000000, -1.000000000000000000, -0.000000000000000000 ) ) ;
#241 = VERTEX_POINT ( 'NONE', #32 ) ;
#242 = CARTESIAN_POINT ( 'NONE',  ( 1.530808498934186394E-16, 0.000000000000000000, -51.25000000000000000 ) ) ;
#243 = ORIENTED_EDGE ( 'NONE', *, *, #166, .T. ) ;
#244 = EDGE_CURVE ( 'NONE', #160, #313, #112, .T. ) ;
#245 = CARTESIAN_POINT ( 'NONE',  ( 0.000000000000000000, 0.000000000000000000, -50.00000000000000000 ) ) ;
#246 = EDGE_LOOP ( 'NONE', ( #71, #311, #340, #267, #183 ) ) ;
#247 = DIRECTION ( 'NONE',  ( -0.000000000000000000, 1.000000000000000000, -0.000000000000000000 ) ) ;
#248 = AXIS2_PLACEMENT_3D ( 'NONE', #174, #201, #335 ) ;
#249 = PLANE ( 'NONE',  #196 ) ;
#250 = CIRCLE ( 'NONE', #147, 1.250000000000001110 ) ;
#251 = CONICAL_SURFACE ( 'NONE', #334, 1.524999999999998579, 0.7853981633974471688 ) ;
#252 = SHAPE_DEFINITION_REPRESENTATION ( #333, #130 ) ;
#253 = PRODUCT_CONTEXT ( 'NONE', #225, 'mechanical' ) ;
#254 = ADVANCED_FACE ( 'NONE', ( #82 ), #9, .F. ) ;
#255 = CARTESIAN_POINT ( 'NONE',  ( 14.51088837489718841, 5.000000000000000000, -63.76350676867177469 ) ) ;
#256 = EDGE_CURVE ( 'NONE', #241, #146, #119, .T. ) ;
#257 = CIRCLE ( 'NONE', #301, 20.00000000000000000 ) ;
#258 = VECTOR ( 'NONE', #41, 1000.000000000000000 ) ;
#259 = VERTEX_POINT ( 'NONE', #96 ) ;
#260 = DIRECTION ( 'NONE',  ( 0.8737792163912864174, 0.000000000000000000, -0.4863228156303482375 ) ) ;
#261 =( GEOMETRIC_REPRESENTATION_CONTEXT ( 3 ) GLOBAL_UNCERTAINTY_ASSIGNED_CONTEXT ( ( #70 ) ) GLOBAL_UNIT_ASSIGNED_CONTEXT ( ( #78, #312, #18 ) ) REPRESENTATION_CONTEXT ( 'NONE', 'WORKASPACE' ) );
#262 = VECTOR ( 'NONE', #271, 1000.000000000000000 ) ;
#263 = ADVANCED_FACE ( 'NONE', ( #198 ), #118, .F. ) ;
#264 = CARTESIAN_POINT ( 'NONE',  ( 0.000000000000000000, 0.000000000000000000, 0.000000000000000000 ) ) ;
#265 = EDGE_LOOP ( 'NONE', ( #209, #214, #193, #315, #156 ) ) ;
#266 = CYLINDRICAL_SURFACE ( 'NONE', #229, 20.00000000000000355 ) ;
#267 = ORIENTED_EDGE ( 'NONE', *, *, #222, .F. ) ;
#268 = CARTESIAN_POINT ( 'NONE',  ( 0.000000000000000000, 5.000000000000000000, -70.00000000000000000 ) ) ;
#269 = ORIENTED_EDGE ( 'NONE', *, *, #94, .T. ) ;
#270 = CARTESIAN_POINT ( 'NONE',  ( 0.000000000000000000, 5.000000000000000000, -49.99999999999999289 ) ) ;
#271 = DIRECTION ( 'NONE',  ( -0.000000000000000000, -1.000000000000000000, -0.000000000000000000 ) ) ;
#272 = LINE ( 'NONE', #268, #262 ) ;
#273 = CLOSED_SHELL ( 'NONE', ( #204, #121, #83, #124, #254, #263, #98, #175, #19, #337, #36 ) ) ;
#274 = LINE ( 'NONE', #35, #319 ) ;
#275 = CARTESIAN_POINT ( 'NONE',  ( 14.51088837489718841, 5.000000000000000000, -63.76350676867177469 ) ) ;
#276 = DIRECTION ( 'NONE',  ( 0.000000000000000000, 0.7071067811865483499, 0.7071067811865466846 ) ) ;
#277 = VECTOR ( 'NONE', #194, 1000.000000000000114 ) ;
#278 = CARTESIAN_POINT ( 'NONE',  ( 14.51088837489718841, 0.000000000000000000, -63.76350676867177469 ) ) ;
#279 = PRODUCT_DEFINITION ( 'æœ', '', #107, #316 ) ;
#280 = DIRECTION ( 'NONE',  ( 0.4863228156303481819, 0.000000000000000000, -0.8737792163912863064 ) ) ;
#281 = DIRECTION ( 'NONE',  ( 0.4863228156303481819, 0.000000000000000000, 0.8737792163912863064 ) ) ;
#282 = EDGE_CURVE ( 'NONE', #313, #146, #304, .T. ) ;
#283 = EDGE_LOOP ( 'NONE', ( #286, #217, #323, #269 ) ) ;
#284 = DIRECTION ( 'NONE',  ( 0.000000000000000000, 0.000000000000000000, 1.000000000000000000 ) ) ;
#285 = SURFACE_STYLE_FILL_AREA ( #345 ) ;
#286 = ORIENTED_EDGE ( 'NONE', *, *, #49, .T. ) ;
#287 = DIRECTION ( 'NONE',  ( -0.000000000000000000, -1.000000000000000000, -0.000000000000000000 ) ) ;
#288 = DIRECTION ( 'NONE',  ( -0.000000000000000000, 1.000000000000000000, -0.000000000000000000 ) ) ;
#289 = ORIENTED_EDGE ( 'NONE', *, *, #145, .F. ) ;
#290 = CARTESIAN_POINT ( 'NONE',  ( -50.00000000000000000, 0.000000000000000000, 6.123233995736766085E-15 ) ) ;
#291 = ORIENTED_EDGE ( 'NONE', *, *, #303, .F. ) ;
#292 = CARTESIAN_POINT ( 'NONE',  ( -50.00000000000000000, 5.000000000000000000, 6.123233995736766085E-15 ) ) ;
#293 = ORIENTED_EDGE ( 'NONE', *, *, #89, .T. ) ;
#294 = AXIS2_PLACEMENT_3D ( 'NONE', #206, #260, #46 ) ;
#295 = DIRECTION ( 'NONE',  ( 0.000000000000000000, 1.000000000000000000, 0.000000000000000000 ) ) ;
#296 = EDGE_LOOP ( 'NONE', ( #137, #291, #50, #17 ) ) ;
#297 = CARTESIAN_POINT ( 'NONE',  ( 0.000000000000000000, 5.000000000000001776, -49.99999999999999289 ) ) ;
#298 = ORIENTED_EDGE ( 'NONE', *, *, #222, .T. ) ;
#299 = DIRECTION ( 'NONE',  ( 0.000000000000000000, 0.000000000000000000, 1.000000000000000000 ) ) ;
#300 = CARTESIAN_POINT ( 'NONE',  ( -14.51088837489718841, 0.000000000000000000, -63.76350676867177469 ) ) ;
#301 = AXIS2_PLACEMENT_3D ( 'NONE', #245, #54, #299 ) ;
#302 = VECTOR ( 'NONE', #287, 1000.000000000000000 ) ;
#303 = EDGE_CURVE ( 'NONE', #326, #203, #68, .T. ) ;
#304 = LINE ( 'NONE', #92, #16 ) ;
#305 = EDGE_CURVE ( 'NONE', #52, #241, #12, .T. ) ;
#306 = APPLICATION_PROTOCOL_DEFINITION ( 'draft international standard', 'automotive_design', 1998, #225 ) ;
#307 = VECTOR ( 'NONE', #276, 1000.000000000000000 ) ;
#308 = COLOUR_RGB ( '',0.7921568627450980005, 0.8196078431372548767, 0.9333333333333333481 ) ;
#309 = DIRECTION ( 'NONE',  ( -1.000000000000000000, 0.000000000000000000, -0.000000000000000000 ) ) ;
#310 = CARTESIAN_POINT ( 'NONE',  ( -50.00000000000000000, 5.000000000000000000, 6.123233995736766085E-15 ) ) ;
#311 = ORIENTED_EDGE ( 'NONE', *, *, #339, .T. ) ;
#312 =( NAMED_UNIT ( * ) PLANE_ANGLE_UNIT ( ) SI_UNIT ( $, .RADIAN. ) );
#313 = VERTEX_POINT ( 'NONE', #228 ) ;
#314 = DIRECTION ( 'NONE',  ( -0.000000000000000000, -1.000000000000000000, -0.000000000000000000 ) ) ;
#315 = ORIENTED_EDGE ( 'NONE', *, *, #104, .F. ) ;
#316 = PRODUCT_DEFINITION_CONTEXT ( 'detailed design', #227, 'design' ) ;
#317 = FACE_OUTER_BOUND ( 'NONE', #132, .T. ) ;
#318 = ORIENTED_EDGE ( 'NONE', *, *, #282, .F. ) ;
#319 = VECTOR ( 'NONE', #6, 1000.000000000000114 ) ;
#320 = ORIENTED_EDGE ( 'NONE', *, *, #216, .T. ) ;
#321 = EDGE_CURVE ( 'NONE', #341, #52, #176, .T. ) ;
#322 = DIRECTION ( 'NONE',  ( 0.000000000000000000, 0.000000000000000000, 1.000000000000000000 ) ) ;
#323 = ORIENTED_EDGE ( 'NONE', *, *, #104, .T. ) ;
#324 = EDGE_CURVE ( 'NONE', #326, #131, #344, .T. ) ;
#325 = CARTESIAN_POINT ( 'NONE',  ( 1.530808498934190338E-16, 5.000000000000000000, -51.25000000000000000 ) ) ;
#326 = VERTEX_POINT ( 'NONE', #275 ) ;
#327 = AXIS2_PLACEMENT_3D ( 'NONE', #135, #5, #178 ) ;
#328 = DIRECTION ( 'NONE',  ( 0.000000000000000000, 0.000000000000000000, 1.000000000000000000 ) ) ;
#329 = PRODUCT_RELATED_PRODUCT_CATEGORY ( 'part', '', ( #220 ) ) ;
#330 = VERTEX_POINT ( 'NONE', #226 ) ;
#331 = CYLINDRICAL_SURFACE ( 'NONE', #59, 20.00000000000000355 ) ;
#332 = CYLINDRICAL_SURFACE ( 'NONE', #1, 1.250000000000001110 ) ;
#333 = PRODUCT_DEFINITION_SHAPE ( 'NONE', 'NONE',  #279 ) ;
#334 = AXIS2_PLACEMENT_3D ( 'NONE', #297, #161, #53 ) ;
#335 = DIRECTION ( 'NONE',  ( 0.000000000000000000, 0.000000000000000000, 1.000000000000000000 ) ) ;
#336 = DIRECTION ( 'NONE',  ( 0.000000000000000000, 0.000000000000000000, 1.000000000000000000 ) ) ;
#337 = ADVANCED_FACE ( 'NONE', ( #62 ), #122, .F. ) ;
#338 = CARTESIAN_POINT ( 'NONE',  ( 0.000000000000000000, 0.000000000000000000, -48.74999999999999289 ) ) ;
#339 = EDGE_CURVE ( 'NONE', #203, #84, #100, .T. ) ;
#340 = ORIENTED_EDGE ( 'NONE', *, *, #49, .F. ) ;
#341 = VERTEX_POINT ( 'NONE', #338 ) ;
#342 = DIRECTION ( 'NONE',  ( -0.000000000000000000, -1.000000000000000000, -0.000000000000000000 ) ) ;
#343 = AXIS2_PLACEMENT_3D ( 'NONE', #213, #88, #322 ) ;
#344 = CIRCLE ( 'NONE', #13, 20.00000000000000000 ) ;
#345 = FILL_AREA_STYLE ('',( #208 ) ) ;
#346 = ORIENTED_EDGE ( 'NONE', *, *, #3, .F. ) ;
#347 = ORIENTED_EDGE ( 'NONE', *, *, #150, .F. ) ;
#348 = CARTESIAN_POINT ( 'NONE',  ( 0.000000000000000000, 0.000000000000000000, -49.99999999999999289 ) ) ;
ENDSEC;
END-ISO-10303-21;
